<svg width="48" height="48" viewBox="0 0 48 48" fill="none" xmlns="http://www.w3.org/2000/svg"><rect width="48" height="48" rx="8" fill="#F5C500"/><g clip-path="url(#a)" fill="#3D466C"><path d="m16.704 38.39.094-.45c-.065-.73-.326-1.333-.83-1.829a1.729 1.729 0 0 0-.734-.44l1.47 2.72Zm0 0a.44.44 0 0 1-.01.049.998.998 0 0 0-.02.114v.001m.03-.163-.03.163m0 0a1.03 1.03 0 0 1-1.316.906 1.715 1.715 0 0 1-.418-.182m1.734-.724-1.734.724m0 0c-.869-.52-1.358-1.764-1.079-2.736m1.079 2.736-1.078-2.736m0 0a1.73 1.73 0 0 1 .182-.419m-.182.419.183-.42m0 0c.259-.425.7-.595 1.189-.452l-1.19.453Z" stroke="#3D466C"/><path d="M36.667 11.63c.2-.076.3-.016.29.2a2.235 2.235 0 0 1-1.08 1.753c-.688.427-1.415.766-2.154 1.085a216.21 216.21 0 0 1-4.095 1.729c-.923.375-1.863.707-2.798 1.052-.185.068-.379.113-.57.162-1.418.37-2.844.322-4.278.102a21.186 21.186 0 0 1-3.564-.892c-.847-.286-1.706-.535-2.553-.82a40.706 40.706 0 0 1-3.55-1.387c-.413-.184-.799-.408-1.065-.79-.12-.172-.23-.352-.344-.53-.011-.019-.013-.044-.026-.09.137.06.254.105.367.158.603.284 1.24.477 1.871.683 1.478.481 2.988.835 4.51 1.149 1.006.208 2.008.44 3.012.663.787.174 1.587.262 2.39.33.331.03.663.039.995.063.75.057 1.478-.053 2.194-.268a21.11 21.11 0 0 0 2.208-.82c.91-.389 1.827-.764 2.74-1.148.877-.37 1.75-.745 2.628-1.116.647-.272 1.299-.535 1.944-.813.293-.126.575-.278.86-.418.023-.012.045-.027.068-.036Z"/><path d="M35.984 10.722c.08.06.174.116.157.243l-2.45 1.016c-.033-.024-.056-.035-.074-.053-.395-.4-.859-.7-1.356-.957-1.032-.533-2.118-.923-3.227-1.26a33.155 33.155 0 0 0-4.614-1.033c-.632-.097-1.262-.197-1.895-.283-.31-.042-.624-.053-.936-.078l-.22-.019a1.14 1.14 0 0 1-.003-.047c.323-.063.645-.14.971-.185.714-.096 1.43-.074 2.144-.017.847.067 1.693.151 2.534.267.936.128 1.866.303 2.8.453 1.029.164 2.037.425 3.042.696.623.167 1.236.367 1.849.571.462.155.883.398 1.278.686Zm-.691 4.213c-.024.215-.044.404-.067.591-.201 1.61-.402 3.22-.605 4.83l-.597 4.752c-.198 1.585-.394 3.17-.593 4.754-.2 1.61-.41 3.219-.603 4.829-.058.49-.304.845-.698 1.111-.455.307-.921.598-1.376.905-.471.318-.93.654-1.402.971-.423.285-.853.561-1.287.83-.367.23-.743.45-1.12.664-.268.15-.545.281-.819.42-.02.01-.046.01-.1.022 0-.256.001-.496-.001-.737-.01-1.124-.01-2.249-.035-3.372-.016-.639-.075-1.275-.115-1.913-.131-2.13-.178-4.263-.224-6.397-.054-2.535-.127-5.07-.194-7.605-.006-.223-.026-.447-.038-.67-.003-.056 0-.113 0-.2.385-.091.758-.177 1.13-.267.149-.036.3-.068.442-.122 1.315-.495 2.64-.967 3.938-1.5 1.405-.578 2.787-1.214 4.179-1.824.05-.022.104-.04.185-.072Zm-3.06-2.963c.19.097.357.24.57.385-.386.162-.72.303-1.055.446-.788.335-1.576.668-2.362 1.008-.115.05-.19.044-.286-.047-.54-.508-1.167-.89-1.832-1.21a24.554 24.554 0 0 0-6.254-2.02 28.688 28.688 0 0 0-4.533-.47.354.354 0 0 1-.17-.04c.06-.028.12-.06.182-.084.544-.207 1.087-.415 1.631-.617a.777.777 0 0 1 .243-.04c.268-.011.536-.007.803-.026.861-.058 1.723-.12 2.585-.043a30.3 30.3 0 0 1 1.863.232c1.048.162 2.095.327 3.128.572 1.357.323 2.7.69 3.988 1.228.511.214 1.005.472 1.5.726Z"/><path d="M28.126 14.097c.055.041.105.087.179.149-.209.092-.384.18-.568.25-.569.21-1.136.428-1.712.617a5.26 5.26 0 0 1-1.964.256c-1.034-.06-2.067-.136-3.083-.345-1.044-.215-2.083-.458-3.125-.69-.773-.17-1.55-.326-2.317-.517a32.328 32.328 0 0 1-3.046-.913c-.367-.131-.724-.288-1.083-.44-.085-.035-.161-.092-.267-.156.103-.06.176-.11.254-.147.736-.343 1.466-.697 2.211-1.017.222-.095.485-.1.732-.126 1.116-.117 2.234-.086 3.35-.01 1.38.093 2.745.283 4.095.584 1.765.394 3.467.971 5.097 1.757.439.212.858.455 1.247.748Zm-2.974 24.409c.005.446 0 .892 0 1.365-.204-.026-.41-.051-.616-.08-1.521-.216-3.007-.584-4.478-1.026-.536-.162-1.088-.274-1.634-.41l-.264-.064v-.202c-.002-1.17-.406-2.179-1.251-2.99-.643-.617-1.408-.937-2.317-.845-.036.004-.074 0-.13 0l-2.807-18.958c.066.025.101.036.135.05.934.415 1.88.801 2.839 1.155 1.59.584 3.212 1.066 4.827 1.57.83.259 1.687.411 2.547.538.601.09 1.202.172 1.812.152.044-.002.095-.002.13.018.172.1.36.124.575.114.009.075.02.142.023.208.022.498.05.996.063 1.494.06 2.364.111 4.727.174 7.09.04 1.54.084 3.079.146 4.617.042 1.028.133 2.053.171 3.08.038 1.041.04 2.083.055 3.124Z"/></g><defs><clipPath id="a"><path fill="#fff" d="M8 8h32v32H8z"/></clipPath></defs></svg>