<svg width="24" height="24" viewBox="0 0 24 24" fill="none" xmlns="http://www.w3.org/2000/svg" stroke="currentColor"><path d="M18 4.33a9.75 9.75 0 0 0-15.75 7.684v2.25M6 19.7a9.752 9.752 0 0 0 15.75-7.686v-2.25" stroke-width="1.5" stroke-linecap="round" stroke-linejoin="round"/><path d="m.75 12.764 1.5 1.5 1.5-1.5m19.5-1.5-1.5-1.5-1.5 1.5M9.932 15.6s2.205 1.688 3.956.606c3.552-2.2.838-7.017 1.329-9.443a9.106 9.106 0 0 0-7.364 3.754c-1.386 2.051-.606 3.957 2.08 5.083Z" stroke-width="1.5" stroke-linecap="round" stroke-linejoin="round"/><path d="M11.434 12.02S9.57 13.256 9.5 17.264" stroke-width="1.5" stroke-linecap="round" stroke-linejoin="round"/></svg>
