<svg width="32" height="33" viewBox="0 0 32 33" fill="none" xmlns="http://www.w3.org/2000/svg"><g clip-path="url(#a)"><path d="M16.286 32.33c0-.113-.088-1.375-.097-1.384a4.458 4.458 0 0 0-.39.02c-1.554.118-3.333-.076-4.957-.54-3.236-.925-6.089-2.974-8.048-5.781a15.323 15.323 0 0 1-1.826-3.596 14.79 14.79 0 0 1-.604-7.23C1.103 9.395 3.83 5.54 7.776 3.338a14.742 14.742 0 0 1 7.476-1.842c2.172.06 4.173.544 6.067 1.466 1.535.747 2.76 1.618 3.996 2.84l.496.491-.669.671-.668.67-.49-.486a12.285 12.285 0 0 0-2.501-1.953 12.78 12.78 0 0 0-4.44-1.634c-.657-.11-1.073-.146-1.874-.16-1.051-.02-1.76.037-2.688.216a12.894 12.894 0 0 0-9.053 6.852 12.914 12.914 0 0 0-1.258 7.484 12.847 12.847 0 0 0 2.654 6.253c.105.133.196.238.202.233.009-.009.782-3.788 1.834-8.959.197-.972.396-1.88.441-2.016a3.858 3.858 0 0 1 .973-1.576c.552-.55 1.1-.853 1.805-.995.35-.071.936-.047 1.22.05.928.318 3.065 1.55 6.241 3.598.982.633 1.11.724 1.188.842.25.379-.088.912-.54.85-.053-.008-1.151-.437-2.44-.954a146.49 146.49 0 0 0-2.454-.97 1.709 1.709 0 0 0-.669.009c-.33.088-.602.328-.777.687-.187.382-.269.846-.242 1.372.014.278 1.403 12.188 1.451 12.45a.57.57 0 0 0 .038.14c.027.027.685.092 1.237.123.548.03 1.694-.004 1.736-.052.01-.01-.007-.352-.038-.76a9.429 9.429 0 0 1-.04-.754c.008-.008.59.423 1.293.96 1.673 1.275 1.707 1.301 1.698 1.326-.01.028-2.661 2.594-2.68 2.594-.008 0-.015-.034-.015-.074Zm-4.974-3.786-1.052-3.695a338.373 338.373 0 0 0-1.092-3.79c-.067-.182-.21-.314-.337-.314-.127 0-.29.126-.382.295-.062.114-.47 1.237-1.723 4.746l-.099.275.122.108c.303.271 1.019.776 1.596 1.126.391.237 1.202.646 1.64.827.326.134 1.264.468 1.319.47.012 0 .016-.022.008-.048Zm8.31 2.083c0-.005.144-.276.32-.601l.356-.662.036-.07-.406-.23c-1.71-.963-2.834-2.488-3.268-4.431a6.584 6.584 0 0 1-.162-1.567c0-.813.093-1.45.317-2.15.328-1.03.813-1.841 1.593-2.666.317-.334.4-.388.259-.167a3.5 3.5 0 0 0-.47 1.291c-.063.404-.037 1.134.056 1.556.201.906.671 1.842 1.312 2.61.7.842 1.965 1.732 2.82 1.986.074.022.077.017.396-.597.177-.341.33-.62.34-.62.02 0 1.935 5.201 1.92 5.215-.003.004-.16.039-.348.077a3907.024 3907.024 0 0 1-5.01 1.022c-.033.008-.061.01-.061.004Zm9.926-7.193-.362-.649c-.011-.018-.152.044-.375.165a6.947 6.947 0 0 1-2.365.784c-.323.047-1.359.047-1.682 0a7.726 7.726 0 0 1-2.411-.784c-1.87-1.006-3.114-2.62-3.56-4.616a3.095 3.095 0 0 1-.053-.276c0-.019.057.071.126.2.546 1.02 1.593 1.732 2.944 2.002 1.24.248 2.427.127 3.719-.377.576-.224 1.205-.574 1.544-.858l.075-.064-.358-.62a16.029 16.029 0 0 1-.358-.64c0-.01.053-.005.117.01.39.087 5.285 1.155 5.299 1.155.033 0 .011.075-.133.453a789.446 789.446 0 0 1-1.805 4.704c-.01.017-.173-.248-.362-.589Zm-8.727-4.929a7.827 7.827 0 0 1-1.804-.435l-.205-.08.415.014c.822.026 1.508-.173 2.242-.65 1.554-1.012 2.581-2.928 2.718-5.067.02-.306-.004-.79-.042-.85-.016-.026-.213-.044-.729-.066-.39-.016-.704-.039-.7-.05a375.29 375.29 0 0 1 3.92-3.945c.126.148 3.27 4.427 3.26 4.436a9.26 9.26 0 0 1-.726-.027 15.709 15.709 0 0 0-.72-.034 7.661 7.661 0 0 0-.046.474 6.637 6.637 0 0 1-.374 1.766c-.107.307-.4.925-.57 1.2-1.057 1.72-2.985 2.968-5.064 3.277a9.703 9.703 0 0 1-1.575.037Zm-9.291-8.233a2.535 2.535 0 0 1-.772-.257c-.17-.089-.284-.178-.497-.391-.317-.317-.443-.515-.571-.898-.084-.25-.088-.283-.088-.69 0-.395.006-.448.077-.664.291-.889 1.012-1.478 1.934-1.581a2.264 2.264 0 0 1 2.014.87c.302.4.457.867.457 1.374a2.214 2.214 0 0 1-.865 1.777c-.23.177-.587.351-.848.415a2.711 2.711 0 0 1-.841.045Z" fill="#343A40"/></g><defs><clipPath id="a"><path fill="#fff" d="M0 .5h32v32H0z"/></clipPath></defs></svg>