<svg width="24" height="24" viewBox="0 0 24 24" fill="none" xmlns="http://www.w3.org/2000/svg"><g clip-path="url(#a)" fill="currentColor"><path d="M3.75 7a.25.25 0 0 1 0-.5h10.5a.25.25 0 0 1 0 .5H3.75Zm0 4.5a.25.25 0 0 1 0-.5H7.5a.25.25 0 0 1 0 .5H3.75Zm0 4.5a.25.25 0 0 1 0-.5H7.5a.25.25 0 0 1 0 .5H3.75Z" stroke="currentColor"/><path d="M2.25 21A2.252 2.252 0 0 1 0 18.75V2.25A2.252 2.252 0 0 1 2.25 0h10.629c.601 0 1.165.234 1.59.658l2.872 2.872c.425.425.659.99.659 1.591V7.5a.75.75 0 0 1-1.5 0V5.121c0-.197-.08-.39-.219-.53l-2.872-2.872a.748.748 0 0 0-.53-.219H2.25a.75.75 0 0 0-.75.75v16.5c0 .414.336.75.75.75H7.5a.75.75 0 0 1 0 1.5H2.25Z"/><path d="M23.25 24a.742.742 0 0 1-.531-.221l-3.279-3.292a5.989 5.989 0 0 1-3.676 1.263c-3.308 0-6-2.692-6-6s2.692-6 6-6 6 2.692 6 6a5.99 5.99 0 0 1-1.263 3.677l3.281 3.294a.747.747 0 0 1-.003 1.06.744.744 0 0 1-.529.219Zm-7.486-12.75a4.505 4.505 0 0 0-4.5 4.5c0 2.481 2.019 4.5 4.5 4.5s4.5-2.019 4.5-4.5-2.019-4.5-4.5-4.5Z"/></g><defs><clipPath id="a"><path fill="#fff" d="M0 0h24v24H0z"/></clipPath></defs></svg>
