<svg xmlns="http://www.w3.org/2000/svg" id="adresse-mail" viewBox="0 0 500 500">
  <defs>
    <style>
      .cls-1{fill:#fff}.cls-2{fill:#71a52e}.cls-3{fill:#030f40}
    </style>
  </defs>
  <path id="secondary-color" fill="#f9bc13" d="M250.25 477.68a390.18 390.18 0 0 1-35.19-1.78c-14.32-1.41-28.48-3.72-42.16-8.36-23.73-8.04-43.21-22.03-58.11-42.2a299.96 299.96 0 0 1-13.8-20.27 298.32 298.32 0 0 0-44.03-55.63 1190.6 1190.6 0 0 1-20.24-20.58A156.03 156.03 0 0 1 19 306.66c-9.18-13.88-14.67-29.13-17.28-45.5-3.14-19.7-1.72-39.18 2.67-58.53 5.05-22.32 13.98-43.06 25.53-62.75 7.67-13.08 16.68-25.2 26.58-36.67a70.37 70.37 0 0 0 6.76-9.08c4.85-7.87 10.61-15.07 16.72-21.95 15.32-17.23 33.89-29.52 56.04-36.24 8.83-2.68 17.85-4.47 26.89-6.2 16.62-3.2 33.42-4.98 50.28-6.27 10.15-.78 20.3-1.32 30.47-1.14 16.85.3 33.36 3 49.65 7.18 9.99 2.57 19.84 5.57 29.25 9.85 25.95 11.81 46.75 29.61 62.16 53.64 4.89 7.64 9.61 15.39 14.58 22.97 5.77 8.79 11.79 17.41 18.86 25.24a178.73 178.73 0 0 0 23.61 22.08c6.76 5.19 13.67 10.18 20.4 15.4a485 485 0 0 1 17.15 13.86 70.37 70.37 0 0 1 7.34 7.51c10.69 12.27 14.65 26.65 12.96 42.68-1.12 10.52-4.15 20.59-7.84 30.46-6.8 18.23-14.77 35.96-23.08 53.55-5.61 11.86-11.02 23.81-17.5 35.25-14.55 25.7-33.01 48.13-56.09 66.61-20.8 16.65-44.1 28.78-69.1 37.85a187.54 187.54 0 0 1-60.92 11.22c-4.96.09-9.91.01-14.85.01Z" opacity=".1"/>
  <g id="invariable">
    <path d="M448.03 349.76a299.07 299.07 0 0 0-8.43-5.56 2.99 2.99 0 0 0-1.7-.5c-3.84.23-7.67.51-11.5.85a190 190 0 0 0-40.15 7.88c-5.5 1.72-10.95 3.63-16.51 5.16-4.43 1.22-8.98 1.98-13.47 2.95-.81.17-1.65.29-2.39.62-1.89.84-3.83.9-5.85.78a32.2 32.2 0 0 0-4.91.16c-6.28.65-12.56 1.38-18.83 2.07-2.8.31-5.61.53-8.4.89-3.4.44-6.49 1.73-9.28 3.73-1.33.95-2.66 1.9-3.91 3.02 6.48-1.18 12.73-3.36 19.46-3.56-.26.25-.48.6-.79.72-.96.37-1.94.69-2.93.96-3.71 1.02-7.42 2-11.13 3.02a70.79 70.79 0 0 0-14.46 5.92c-.54.29-1.1.56-1.66.81h-.02a4.6 4.6 0 0 0-.17.82c-.03.29-.02.6.09.88l.02.05c.23-.28.53-.53.88-.71a17.84 17.84 0 0 1 3.2-1.4c6.59-1.93 13.19-3.8 19.79-5.69 1.98-.57 3.95-1.16 5.93-1.72.31-.09.65-.06 1.17.22-.36.32-.65.76-1.07.95-2.06.92-4.11 1.96-6.26 2.61-5.26 1.59-10.57 2.98-15.86 4.48-1.38.39-2.76.84-4.11 1.34-.74.28-1.43.72-2.41 1.23 1.4 1.63 2.97 2 4.81 2.1.41-2.28 2.06-3.33 4.05-3.85a86.66 86.66 0 0 1 7.64-1.67c4.94-.82 9.89-1.5 15.1-2.27-.64.99-1.57 1.23-2.41 1.41-2.95.65-5.91 1.2-8.88 1.79-3.3.65-6.6 1.24-9.88 1.97-1.03.23-1.98.8-2.93 1.42a9.08 9.08 0 0 0 5.27 1.15c2.19-.14 4.38-.35 6.58-.44 6.45-.29 12.91-.42 19.35-.83a55.34 55.34 0 0 0 15.49-3.18c4.13-1.5 8.24-3.14 12.66-3.54 2.32-.21 4.67-.39 6.99-.28 8.3.37 16.59 1.08 24.9 1.27 7.69.18 15.39.01 23.08-.29 4.24-.17 8.44-.95 12.68-1.39 6.83-.71 13.68-1.3 20.5-2.07 2.79-.31 5.55-.93 8.32-1.44.66-.12 1.3-.37 1.79-.51 1.07-6.21-.5-11.6-3.9-16.57a21.85 21.85 0 0 0-5.54-5.76Z" class="cls-1"/>
    <path d="M381.91 222.75c-3.22-1.07-6.06-1.85-8.77-2.95-7.62-3.1-11.71-9.1-13.1-16.98-1.52-8.61-1.1-17.13 2.12-25.36 3.03-7.72 7.52-14.34 14.77-18.76a22.78 22.78 0 0 1 14.35-3.5c2.05.2 4.13.15 6.16.45 4.85.74 8.93 3.1 12.43 6.45 5.35 5.11 8.43 11.48 9.86 18.65.34 1.71.05 3.55.05 5.35.33.19.55.33.79.43 3.07 1.43 4.63 3.82 4.42 7.2-.1 1.56-.45 3.12-.88 4.64a6.18 6.18 0 0 1-3.35 3.99c-1.52.75-2.9 1.78-4.72 1.94-1.2.11-2.01 1-2.39 2.27-1.34 4.42-1.53 8.92-1.11 13.47.26 2.87.83 5.69 1.76 8.45 1.33 3.94 3.89 6.61 7.8 7.87 4.96 1.6 9.88 3.31 15.08 4.14a54.9 54.9 0 0 1 9.11 2.5c3.67 1.28 6.5 3.76 8.8 6.89a30.85 30.85 0 0 1 4.47 8.78c2.21 6.79 4.81 13.49 6.51 20.4 3.09 12.56 5.09 25.32 5.4 38.29.2 8.52.56 17.04.6 25.55.03 5.14-.3 10.3-.69 15.43-.17 2.16-.7 4.36-1.42 6.41a12.94 12.94 0 0 1-7.85 8.17c-6.56 2.57-13.38 3.52-20.33 4-5.14.35-10.27.82-15.4 1.36-1.55.16-3.04.92-4.59 1.09-4.43.49-8.88 1.01-13.33 1.15-6.31.21-12.65.33-18.95.03-4.44-.2-8.84-1.15-13.25-1.77-.2-.03-.4-.15-.6-.15-7.13-.13-14.31-.95-21.28 1.3a157.8 157.8 0 0 0-8.16 2.87 47.1 47.1 0 0 1-15.7 3.11c-7.55.19-15.11.03-22.67.04-.95 0-1.91.1-2.85.25-2.42.4-4.76.43-7.02-.77-.46-.25-1.16-.23-1.7-.1-1.3.33-2.57.47-3.84-.03-1.02-.41-1.77-1.09-1.85-2.26-.08-1.08.47-1.88 1.37-2.36a17.84 17.84 0 0 1 3.2-1.4c6.59-1.93 13.19-3.8 19.79-5.69 1.98-.57 3.95-1.16 5.93-1.72.31-.09.65-.06 1.17.22-.36.32-.65.76-1.07.95-2.06.92-4.11 1.96-6.26 2.61-5.26 1.59-10.57 2.98-15.86 4.48-1.38.39-2.76.84-4.11 1.34-.74.28-1.43.72-2.41 1.23 1.4 1.63 2.97 2 4.81 2.1.41-2.28 2.06-3.33 4.05-3.85a86.66 86.66 0 0 1 7.64-1.67c4.94-.82 9.89-1.5 15.1-2.27-.64.99-1.57 1.23-2.41 1.41-2.95.65-5.91 1.2-8.88 1.79-3.3.65-6.6 1.24-9.88 1.97a9.02 9.02 0 0 0-2.93 1.42 9.08 9.08 0 0 0 5.27 1.15c2.19-.14 4.38-.35 6.58-.44 6.45-.29 12.91-.42 19.35-.83a55.34 55.34 0 0 0 15.49-3.18c4.13-1.5 8.24-3.14 12.66-3.54 2.32-.21 4.67-.39 6.99-.28 8.3.37 16.59 1.08 24.9 1.27 7.69.18 15.39.01 23.08-.29 4.24-.17 8.44-.95 12.68-1.39 6.83-.71 13.68-1.3 20.5-2.07 2.79-.31 5.55-.93 8.32-1.44.66-.12 1.3-.37 1.79-.51 1.07-6.21-.5-11.6-3.9-16.57a21.85 21.85 0 0 0-5.55-5.75 299.07 299.07 0 0 0-8.43-5.56 2.99 2.99 0 0 0-1.7-.5c-3.84.23-7.67.51-11.5.85a190 190 0 0 0-40.15 7.88c-5.5 1.72-10.95 3.63-16.51 5.16-4.43 1.22-8.98 1.98-13.47 2.95-.81.17-1.65.29-2.39.62-1.89.84-3.83.9-5.85.78a32.2 32.2 0 0 0-4.91.16c-6.28.65-12.56 1.38-18.83 2.07-2.8.31-5.61.53-8.4.89-3.4.44-6.49 1.73-9.28 3.73-1.33.95-2.66 1.9-3.91 3.02 6.48-1.18 12.73-3.36 19.46-3.56-.26.25-.48.6-.79.72-.96.37-1.94.69-2.93.96-3.71 1.02-7.42 2-11.13 3.02a70.79 70.79 0 0 0-14.46 5.92c-.54.29-1.1.56-1.66.81-.11.05-.26 0-.47-.02-.65-.83-.22-1.59.43-2.08a22.25 22.25 0 0 1 3.62-2.32 14.71 14.71 0 0 0 3.68-2.58 91.2 91.2 0 0 1 5.74-5.02 23.27 23.27 0 0 1 13.02-5.16c5.89-.44 11.79-.79 17.68-1.26a35.9 35.9 0 0 0 7.21-1.28c-.6-.03-1.2-.09-1.8-.1-13.47-.08-26.94-.08-40.4-.27-4.76-.07-9.36.29-14.02 1.49-8.69 2.23-17.63 2.74-26.58 2.78-6.32.03-12.64.03-18.97.11-1.71.02-3.42.28-5.13.42-1.02.08-1.81.46-2.36 1.39-.34.58-.89 1.04-1.32 1.57-4.46 5.53-10.42 8.31-17.27 9.57-6.08 1.12-12.17 2.02-18.39 2.1-5.25.06-10.5.7-15.75.81-4.73.09-9.48-.13-14.21-.33-2.31-.1-3.2-1.31-3.15-3.68.09-5.37 1.72-10.12 5.55-14 .09-.09.11-.24.17-.37-3.01-1.08-4.11-2.7-3.49-5.95a18.25 18.25 0 0 1 9.64-13.15 5.65 5.65 0 0 1 2.95-.73c1.09.09 1.8-.26 2.58-.86 2.39-1.82 5.01-2.82 8.14-1.86.56-.61 1.14-1.19 1.65-1.82 2.72-3.37 5.39-6.78 8.16-10.1a39.07 39.07 0 0 1 4.41-4.59c2.92-2.51 5.99-2.68 9.32-.71a18.7 18.7 0 0 1 5.68 5.02 43.3 43.3 0 0 1 2.48 3.79c2.14 3.73 5.43 6.12 9.15 8.03.24.12.53.18.76.32 1.71 1.07 3.17.76 5.07-.04 4.22-1.77 8.65-3.14 13.09-4.33 8.16-2.19 16.38-4.13 24.57-6.18 1.53-.39 3.07-.77 4.56-1.28.81-.28 1.52-.84 2.3-1.22.61-.3 1.22-.63 1.87-.78a5.75 5.75 0 0 0 3.64-2.5c1.65-2.45 3.32-4.89 4.96-7.34 3.59-5.36 6.93-10.93 10.83-16.05 5.77-7.6 11.89-14.95 17.97-22.31a572.42 572.42 0 0 1 14.84-17.41c3.34-3.74 7.01-7.17 10.54-10.73 5.33-5.39 11.81-8.09 19.37-8.4 2.19-.09 4.38-.4 6.55-.66 4.25-.52 7.73-2.7 11.01-5.26a2.52 2.52 0 0 0 1.01-2.15l-.14-9.45ZM181.99 349.27c-.4.87-.77 1.76-1.2 2.62a29 29 0 0 0-3.17 11.43c-.07 1.2.12 2.49.54 3.61.73 1.91 2.73 2.51 4.4 1.33a8.58 8.58 0 0 0 2.31-2.56 50.74 50.74 0 0 0 2.76-5.52 14.35 14.35 0 0 1 4.26-5.72c.67-.53 1.73-1.21.95-2.13-.74-.87-1.74-.06-2.31.54-1.27 1.33-2.58 2.7-3.52 4.26-1.23 2.05-2.09 4.32-3.16 6.47-.48.98-.97 2-1.67 2.82-1.14 1.34-2.64 1.06-3.12-.61a9.77 9.77 0 0 1-.36-3.64 27.29 27.29 0 0 1 2.65-9.47c.37-.74.76-1.48.98-2.26.09-.31-.25-.74-.4-1.13-1.58-1.32-1.68-1.76-.36-3.31 1.29-1.51 2.7-2.92 4.05-4.38.34-.37.64-.79 1.27-1.57-1.27.23-2.08.3-2.84.53a10.47 10.47 0 0 0-5.28 3.77 32.82 32.82 0 0 0-5.75 11.74c-.21.8-.14 1.67-.19 2.51l.43.21c.65-.55 1.42-1.01 1.94-1.66 1.38-1.7 2.6-3.53 4-5.21.82-.98 1.85-1.78 2.78-2.66Zm277.67 21.8c.38.12.45.17.51.16.2-.03.41-.06.61-.12 3.37-1.04 5.35-3.45 6.52-6.64 1.06-2.87 1.33-5.88 1.56-8.9.84-11.26.38-22.52.18-33.79a197.51 197.51 0 0 0-2.55-27.25c-1.94-12.35-5.49-24.22-9.79-35.91a25.23 25.23 0 0 0-5.59-9.04 15.22 15.22 0 0 0-6.38-4.04 81.42 81.42 0 0 0-8.34-2.23 58.87 58.87 0 0 1-10.67-3.06c-1.69-.68-3.44-1.25-5.16-1.87-1.05 3.21-2.36 5.31-5.04 7.25a28.4 28.4 0 0 1-6.04 3.47c-7.9 3.1-16.15 3.74-24.51 2.67a36.89 36.89 0 0 1-7.36-1.84 7.6 7.6 0 0 1-4.93-5.18c-.25-.82-.27-1.72-.39-2.54l-8.3.34c-1.71.08-3.43.14-5.14.29-3.8.34-7.29 1.62-10.11 4.19-3.96 3.6-7.96 7.2-11.54 11.17-6.94 7.71-13.61 15.65-20.36 23.53-6.17 7.2-12.21 14.51-17.49 22.41-3.59 5.37-7.04 10.82-10.67 16.17-1.38 2.03-3.08 3.85-4.63 5.77-.19.23-.31.52-.4.7 11.38 4.53 16.4 13.2 17.01 25.1 14.5-15.61 30.19-29.9 44.72-45.38a4.7 4.7 0 0 1-1.27 3.13c-2.52 3.09-4.96 6.25-7.68 9.14A3821.21 3821.21 0 0 1 306 350.69c-2.13 2.21-4.61 4.1-6.93 6.13-.33.29-.69.54-1.37 1.06h2.02c6.53 0 13.05 0 19.58-.03 9.27-.06 18.55-.16 27.81-.25 1.03-.01 2.06-.11 3.09-.19 1.07-.08 2.13-.19 3.42-.3-.21-2.11-.35-4.02-.59-5.91-.57-4.5-1.11-9-1.81-13.48-1.79-11.4-3.69-22.78-5.5-34.17-.37-2.3-.59-4.63-.8-6.96-.08-.84-.28-1.84 1.14-2.39.27.64.66 1.26.79 1.92 1.15 5.65 2.41 11.29 3.36 16.98a499.31 499.31 0 0 1 5.35 40.21c.14 1.68.54 3.34.84 5.1 4.65-1.09 9.06-2.05 13.42-3.18 3.25-.84 6.46-1.89 9.67-2.88 11.29-3.5 22.7-6.52 34.35-8.55 4.53-.79 9.08-1.41 13.72-2.12.35-1.04.82-2.11 1.04-3.22.23-1.14.22-2.32.29-3.49.28-4.13.03-8.24-.6-12.33-.67-4.34-1.4-8.68-2.09-13.02-.08-.48-.4-1.07.54-1.4a53.4 53.4 0 0 1 3.06 10.88c.66 3.72 1.55 7.43 1.78 11.17.22 3.71-.26 7.47-.45 11.48 1.26 0 2.49-.09 3.71.02 1.69.16 3.56.08 5.01.8a63 63 0 0 1 9.76 5.7c5.57 4.13 9.09 9.7 10.02 16.67.26 2 .03 4.08.03 6.14Zm-40.52-134c-.88-.64-1.78-1.37-2.77-1.97a7.49 7.49 0 0 1-2.98-3.57 27.2 27.2 0 0 1-2.29-8.52c-.25-3.01-.62-6.03-.59-9.04.02-2.38.34-4.81.95-7.11.65-2.41 1.85-4.32 4.88-4.85 2.74-.48 5.2-2.14 5.45-5.4.12-1.68-.07-3.44-.47-5.07-.94-3.81-4.07-3.63-6.49-2.51-.72.33-1.29 1.01-1.89 1.56-.35.33-.6.76-.95 1.09-1.48 1.44-3.37 1.4-4.67-.22a7.06 7.06 0 0 1-1.34-2.52c-.45-1.72-.66-3.5-1.01-5.25-.45-2.28-.74-4.62-1.43-6.83-1.82-5.86-6.89-8.97-12.92-7.88-2.06.37-4.05 1.24-6.03 2-1.48.56-2.92 1.21-4.55 1.13-1.96-.09-2.7-.84-2.72-2.8 0-.48.05-.96 0-1.44-.12-1.19-.5-1.67-1.68-1.63-1.07.04-2.22.2-3.16.67-2.61 1.32-4.87 3.11-6.17 5.85-.91 1.92-1.86 3.83-2.59 5.83-2.58 7.05-2.92 14.34-2.35 21.75.53 6.89 3.93 12 9.34 15.99 3.69 2.72 7.78 4.38 12.38 4.52 1.98.06 3.99-.09 5.95-.38 3.89-.57 7.04-2.59 9.74-5.38.82-.84 1.61-1.74 3.04-2.46a6.92 6.92 0 0 1-2.36 4.19c-3.01 2.73-6.45 4.66-10.57 5.11-1.75.19-3.52.32-5.14.47.29 2.65.61 5.16.83 7.68a7.63 7.63 0 0 1-3.44 7.28 54.15 54.15 0 0 1-5.96 3.63c-.98.52-1.3 1.11-1.12 2.11a5.5 5.5 0 0 0 2.9 4.05 18.1 18.1 0 0 0 4.01 1.55c5.46 1.37 11.01 1.43 16.58.79 4.39-.5 8.69-1.33 12.73-3.21 4.06-1.89 7.33-4.55 8.82-9.19ZM187.66 377.01c.73.24 1.04.38 1.36.44 2.98.54 5.88.7 8.95.01 5.62-1.27 11.36-1.99 17.03-3.02 4.45-.81 8.66-2.19 12.04-5.4 1.39-1.33 2.87-2.59 4.1-4.06 1.77-2.12 4.1-2.93 6.66-3.24 1.9-.23 3.84-.25 5.76-.26 8.79-.09 17.59.01 26.38-.25a75.6 75.6 0 0 0 22.25-3.79c1.09-.37 2.11-1 3.1-1.61.35-.22.64-.7.73-1.12 1.11-4.95.45-9.73-1.75-14.24-2.6-5.31-6.59-9.24-12.19-11.39a6.37 6.37 0 0 0-4.59 0 145.2 145.2 0 0 1-10.83 3.28c-10.16 2.66-20.35 5.22-30.51 7.83-.34.09-.65.29-1.06.47l1.75 1.33a4.39 4.39 0 0 1-4.51-.05c-1.69-.9-3.41-1.74-5.11-2.64-3.74-1.98-7.17-4.24-9.09-8.31-1.52-3.24-4.19-5.6-7.16-7.53-2.93-1.91-5.13-1.67-7.56.84-1.24 1.28-2.31 2.72-3.45 4.09-2.82 3.37-5.54 6.83-8.49 10.08-2.16 2.39-4.62 4.51-6.94 6.75-.53.51-1.02 1.06-1.82 1.9.7-.08.96-.07 1.19-.14 6.58-2.05 12.6-5.06 17.55-9.99a69.8 69.8 0 0 1 4.43-4c1.04-.87 2.07-.96 2.78-.2a5.8 5.8 0 0 1 1.1 2.14c.48 1.49.79 3.04 1.27 4.53.51 1.57 1.17 3.08 1.69 4.65.27.81.54 1.7-.17 2.49-1.19-.75-1.36-.71-1.98-2.96-.93-3.39-3.73-4.83-6.12-6.78l-6.24 5.82c1.8 1.15 3.83 2.03 3.95 4.74-2.8-.08-4.21-2.51-6.49-3.21l-5.17 2.71c1.06 1.11 2.05 2.22 3.13 3.25.43.41 1.01.71 1.58.9.91.3 1.85.52 2.8.67 3.86.61 7.38 2.11 10.74 4.03.88.5 1.68 1.18 2.42 1.89.66.64 1.07 1.51.76 2.44-1.33 4.04-3.34 7.63-7.54 9.25a48.64 48.64 0 0 1-7.5 2.14 18.3 18.3 0 0 0-8 4.04c-.4.33-.69.79-1.25 1.44Zm-11.13-33.22c-5.11 2.45-8.32 6.41-9.41 12.03-.09.46-.05.96.03 1.43.23 1.33.78 1.75 2.11 1.59.45-.05.89-.25 1.33-.37.62-5.51 3.52-9.95 5.94-14.68Zm30.86-9.48-2.13 1.77 3.38 1.66-1.25-3.43ZM110.89 299.12H72.56c-6.87 0-13.74-.07-20.6-.06-2.81 0-5.63.1-8.44.2a77 77 0 0 1-24.01-3c-4.86-1.4-7.11-5.16-8.21-9.72a72.62 72.62 0 0 1-2.01-16.33c-.12-13.6 0-27.21 0-40.81 0-4.81-.09-9.61-.09-14.42 0-16.9-.05-33.8.09-50.7.04-4.79.34-9.62 1.58-14.31.74-2.78 1.32-5.71 3.51-7.79a17.13 17.13 0 0 1 4.65-3.3 32.94 32.94 0 0 1 12.41-2.67c7.48-.26 14.98-.39 22.44-.91 13.79-.97 27.61-.73 41.41-1.19 11.05-.37 22.11-.76 33.17-.98 6.32-.12 12.64.17 18.96.09 8.38-.1 16.76-.3 25.14-.61 8.05-.3 16.07.21 24.08.88 2.73.23 5.49.47 8.16 1.06 2.25.5 4.53 1.26 6.56 2.33 7.24 3.8 10.41 10.15 10.46 18.08.04 7-.26 14.01-.46 21.01-.08 2.81-.3 5.63-.37 8.44-.36 14.56-.75 29.12-1.01 43.69-.11 6.11.17 12.23.15 18.34-.05 12.58-.45 25.14-2.31 37.61a17.81 17.81 0 0 1-4.31 8.98c-1.92 2.19-4.81 3.32-7.79 3.93a111.7 111.7 0 0 1-17.97 2.11c-6.93.27-13.86.03-20.78.14-10.71.17-21.43-.06-32.15-.09-7.97-.02-15.94 0-23.9 0v.02Zm107.24-146.86c-1.26-.07-2.34-.19-3.42-.18-8.24.05-16.49.09-24.74.19-54.14.62-108.28 1.26-162.42 1.86-4.6.05-9.2-.13-13.8-.2-.4 0-.81.04-1.36.07-.11.78-.23 1.51-.32 2.25-.87 7.05-.81 14.12-.78 21.2.03 6.6.02 13.19.02 19.79 0 7.22.02 14.43.03 21.64 0 11.27.14 22.53-.04 33.8-.14 9.08-.29 18.14 1.18 27.13.52 3.18.98 6.37 2.28 9.38a9.4 9.4 0 0 0 6.79 5.73 79.7 79.7 0 0 0 18.75 2.45c13.33.07 26.66-.03 39.98-.04 10.51 0 21.02.09 31.54.03 8.38-.05 16.76-.34 25.14-.36 9.55-.03 19.1.22 28.65.18 11.68-.05 23.35-.47 34.96-1.93 4.44-.56 8.37-2.02 11.36-5.56a16.77 16.77 0 0 0 3.77-9.2c.55-4.84.96-9.71 1.23-14.57.33-6.04.7-12.09.62-18.12-.22-14.91-.2-29.82.49-44.72.28-6.04.37-12.08.42-18.13.03-4.39-.2-8.79-.22-13.19-.02-5.36.08-10.71.09-16.07.02-1.08-.12-2.16-.2-3.42Zm-205.58.47c6.23-.16 12.06-.38 17.89-.45 50.28-.63 100.57-1.23 150.86-1.84 11.06-.14 22.12-.3 33.18-.47 1.01-.02 2.01-.16 3.03-.24a13.02 13.02 0 0 0-3.99-7.69c-3.66-3.31-8.09-4.83-12.87-5.49a151.2 151.2 0 0 0-22.41-1.25c-12.09.14-24.18.32-36.27.45-9.68.11-19.37.08-29.05.27-12.43.24-24.86.6-37.29.99-7.55.23-15.12.39-22.64.99-7.13.57-14.24 1.13-21.39.93-3.84-.11-7.5.52-11.13 1.74-2.19.73-3.76 2.21-5.12 3.91-1.88 2.32-2.07 5.26-2.8 8.15ZM184.45 325.58c-.48-.53-.84-.88-1.15-1.27-.61-.81-1.37-.82-2.2-.45-1.7.77-2.98 3.4-2.55 5.21.29 1.2.92 1.64 2.11 1.21.95-.34 1.84-.9 2.72-1.42.63-.36 1.21-.81 1.89-1.28.48 1.07 0 1.68-.48 2.22a8.2 8.2 0 0 1-4.76 2.66c-1.77.29-2.91-.4-3.52-2.08-1.18-3.23 1.54-8.12 4.89-8.8 1.17-.24 2.21-.04 2.95.95.64.87.86 1.8.08 3.05ZM162.06 330.62c-1.06 2.31-4.04 3.13-6.3 1.8a4.97 4.97 0 0 1-2.35-3.23c-.82-3.29 1.39-7.04 4.54-7.67 1.74-.35 2.7.32 2.94 2.17-.27 0-.54.06-.77-.01-1.84-.6-2.95-.25-4.04 1.3-1.07 1.53-1.12 3.6-.08 4.8.93 1.07 2.12 1.12 3.4.81.84-.2 1.69-.67 2.67.04Z" class="cls-3"/>
    <path d="M232.61 309.02c-.4 2.44-1.58 3.66-3.37 4a4.58 4.58 0 0 1-4.8-2.06c-1.59-2.56-.74-7.63 1.6-9.52.67-.54.78-.54 2.13-.05l-.83.86c-1.88 1.92-2.13 4.27-1.51 6.7.46 1.83 2.28 2.38 4.19 1.46.76-.36 1.49-.79 2.6-1.39ZM251.24 303.2c-2.72.69-3.84 1.93-4.03 4.36-.09 1.15.12 2.26 1.21 2.87 1.01.57 2.03.21 2.9-.42.54-.4.94-1 1.46-1.43.28-.23.7-.28 1.05-.4.12.42.42.88.34 1.26-.32 1.5-2.65 3.1-4.45 3.16a3.86 3.86 0 0 1-3.69-2.48c-.88-2.19.15-5.9 2.02-7.34 1.26-.96 2.05-.89 3.19.42ZM165.67 323.15c.82 2.41-.57 4.55.06 6.88.71-.14 1.35-.31 2.01-.39a8.13 8.13 0 0 1 2.03-.05c.33.05.78.41.86.71.09.3-.14.96-.36 1.04a36.12 36.12 0 0 1-5.08 1.32c-.38.06-1.33-.85-1.3-1.28.17-2.58.53-5.14.87-7.7.03-.16.42-.26.9-.53ZM233.38 302.25c1.93 1.78 1.69 4.29 2.84 6.29.74-.28 1.46-.65 2.23-.8.45-.09.98.19 1.47.3-.18.47-.22 1.16-.56 1.37a21.75 21.75 0 0 1-3.64 1.83c-.29.11-1.13-.36-1.22-.69-.62-2.37-1.12-4.78-1.61-7.19-.05-.25.23-.56.48-1.12ZM243.28 308.83c-.29.54-.51 1.57-.94 1.66-.98.21-1.1-.87-1.24-1.55-.3-1.4-.5-2.82-.6-4.24-.03-.34.46-.71.71-1.07.35.27.91.47 1.01.82.41 1.37.68 2.77 1.06 4.39ZM174.01 326.59c.54 2.12.52 4.16.25 6.19-.06.42-.63.78-.96 1.16-.33-.37-.93-.73-.96-1.12-.16-2.06.02-4.1.97-5.98.04-.08.24-.09.7-.24ZM176.32 322.15c-.61.4-1 .85-1.3.8-.34-.06-.82-.56-.83-.88 0-.29.54-.8.86-.82.33-.02.68.45 1.27.9ZM242.21 300.54c-.53.36-.93.79-1.13.71-.36-.14-.59-.59-.88-.9.28-.24.61-.71.85-.68.36.06.67.47 1.16.87Z" class="cls-3"/>
    <path d="M469.04 321.77a197.8 197.8 0 0 0-2.55-27.26c-1.94-12.35-5.49-24.22-9.79-35.91a25.36 25.36 0 0 0-5.59-9.05 15.22 15.22 0 0 0-6.38-4.04 81.42 81.42 0 0 0-8.34-2.23 58.87 58.87 0 0 1-10.67-3.06c-1.69-.68-3.44-1.25-5.16-1.87-1.05 3.21-2.36 5.31-5.04 7.25a28.4 28.4 0 0 1-6.04 3.47c-7.9 3.1-16.15 3.74-24.51 2.67a36.89 36.89 0 0 1-7.36-1.84 7.6 7.6 0 0 1-4.93-5.18c-.25-.82-.27-1.72-.39-2.54l-8.3.34c-1.71.08-3.43.13-5.14.29-3.8.34-7.29 1.62-10.11 4.19-3.96 3.6-7.96 7.2-11.54 11.17-6.94 7.71-13.61 15.65-20.36 23.53-6.17 7.2-12.21 14.51-17.49 22.41-3.59 5.37-7.04 10.82-10.67 16.17-1.38 2.03-3.08 3.85-4.63 5.77-.19.23-.31.52-.4.7 11.38 4.53 16.4 13.2 17.01 25.1 14.5-15.61 30.19-29.9 44.72-45.38.02.61-.11 1.15-.33 1.64.41-.19.84-.33 1.29-.38h.04l-.68-4.21c-.37-2.3-.59-4.63-.8-6.96-.08-.84-.28-1.84 1.14-2.39.27.64.66 1.26.79 1.92 1.15 5.65 2.41 11.29 3.36 16.98a499.31 499.31 0 0 1 5.35 40.21c.14 1.68.54 3.34.84 5.1 4.65-1.09 9.06-2.05 13.42-3.18 3.25-.84 6.46-1.89 9.67-2.88 11.29-3.5 22.7-6.52 34.35-8.55 4.53-.79 9.08-1.41 13.72-2.12.35-1.04.82-2.11 1.04-3.22.23-1.14.22-2.32.29-3.49.28-4.13.03-8.24-.6-12.33-.67-4.34-1.4-8.68-2.09-13.02-.08-.48-.4-1.07.54-1.4a53.4 53.4 0 0 1 3.06 10.88c.66 3.72 1.55 7.43 1.78 11.17.22 3.71-.26 7.47-.46 11.48 1.26 0 2.49-.09 3.71.02 1.69.16 3.56.08 5.01.8a63 63 0 0 1 9.76 5.7c5.57 4.13 9.09 9.7 10.01 16.67.27 2.02.04 4.1.04 6.15.38.12.45.17.51.16.2-.03.41-.06.61-.12 3.37-1.04 5.35-3.45 6.52-6.64 1.06-2.87 1.33-5.88 1.56-8.9.84-11.27.39-22.53.19-33.79Z" class="cls-1"/>
    <path d="M419.14 237.07c-1.49 4.64-4.75 7.29-8.82 9.18-4.04 1.88-8.34 2.71-12.73 3.21-5.57.64-11.12.57-16.58-.79a17.61 17.61 0 0 1-4.01-1.55 5.48 5.48 0 0 1-2.9-4.05c-.18-.99.14-1.59 1.12-2.11a54.76 54.76 0 0 0 5.96-3.63 7.64 7.64 0 0 0 3.44-7.28c-.23-2.52-.54-5.03-.83-7.68 1.63-.15 3.38-.28 5.14-.47 4.13-.45 7.56-2.38 10.57-5.11 1.1-1 2.01-2.2 2.36-4.19-1.42.72-2.22 1.61-3.04 2.46-2.7 2.79-5.85 4.81-9.74 5.38-1.96.29-3.97.44-5.95.38-4.6-.14-8.69-1.8-12.38-4.52-5.42-3.99-8.82-9.1-9.34-15.99-.57-7.41-.22-14.7 2.35-21.75.73-1.99 1.69-3.91 2.59-5.83 1.29-2.74 3.55-4.52 6.17-5.85a7.82 7.82 0 0 1 3.16-.67c1.18-.05 1.56.43 1.68 1.63.05.48-.01.96 0 1.44.02 1.96.76 2.71 2.72 2.8 1.63.08 3.07-.56 4.55-1.13 1.98-.75 3.96-1.63 6.03-2 6.02-1.09 11.1 2.02 12.92 7.88.69 2.21.98 4.55 1.43 6.83.34 1.75.55 3.53 1.01 5.25.23.9.75 1.79 1.34 2.52 1.29 1.61 3.18 1.66 4.67.22.34-.33.59-.76.95-1.09.6-.56 1.17-1.23 1.89-1.56 2.42-1.12 5.55-1.3 6.49 2.51.4 1.64.59 3.4.47 5.07-.24 3.25-2.7 4.92-5.45 5.4-3.03.53-4.24 2.44-4.88 4.85-.62 2.3-.93 4.73-.95 7.11-.03 3.01.34 6.03.59 9.04a27.2 27.2 0 0 0 2.29 8.52 7.38 7.38 0 0 0 2.98 3.57c.98.6 1.88 1.34 2.77 1.98Zm-29.47-50.43c-.03-.55-.03-.82-.07-1.09-.2-1.23-1.02-1.99-2-1.89-.92.09-1.57.83-1.63 2.02-.04.81.01 1.63.13 2.43.11.73.59 1.37 1.33 1.29a2.51 2.51 0 0 0 1.64-.91c.4-.57.47-1.38.6-1.85Zm-18.04 3.18c1.53-1.06 2.5-3.4 1.94-4.85-.19-.49-.77-1.06-1.25-1.15-.48-.09-1.22.24-1.56.64-1.11 1.27-.64 4.08.87 5.36Zm17.67 10.83c-1.8 1.1-3.27 2.02-4.76 2.9-1.52.9-3.53.72-5.07 2.06 2.14.96 4.59.46 7.24-1.55 1-.76 2.63-1.21 2.59-3.42Zm-11.59-10.79-.25-.42c-.45.16-.96.25-1.36.5-1.71 1.06-4.6 4.08-5.18 5.36 1.47 2.26 2.63 2.84 4.25 1.89l-2.81-2.27c1.57-2.04 3.95-3.06 5.35-5.05Zm7.39-11.56c1.45 1.02 4.07 1.84 5.27 1.58.41-.09.95-.41 1.07-.75.13-.35-.05-.96-.31-1.27-1.25-1.49-4.63-1.27-6.02.44Zm-17.05 1.43c2.04-1.18 3.67-2.09 5.26-3.07.21-.13.4-.75.32-.83-.26-.23-.71-.51-.99-.43a7.87 7.87 0 0 0-4.25 2.67c-.23.28-.17.79-.34 1.66Zm23.01 21.66.42-.21c.16-1.96-.29-2.57-2.04-2.54l1.63 2.75ZM187.66 377.01c.56-.66.85-1.12 1.24-1.44a18.3 18.3 0 0 1 8-4.04 48.32 48.32 0 0 0 7.5-2.14c4.2-1.63 6.21-5.21 7.54-9.25.31-.93-.11-1.81-.76-2.44a12.24 12.24 0 0 0-2.42-1.89c-3.36-1.91-6.88-3.42-10.74-4.03-.95-.15-1.89-.37-2.8-.67a4.42 4.42 0 0 1-1.58-.9c-1.08-1.03-2.08-2.14-3.13-3.25a963.5 963.5 0 0 0 5.17-2.71c2.28.69 3.69 3.13 6.49 3.21-.11-2.71-2.15-3.59-3.95-4.74l6.24-5.82c2.38 1.94 5.19 3.39 6.12 6.78.62 2.25.78 2.21 1.98 2.96.71-.79.44-1.68.17-2.49-.52-1.56-1.18-3.08-1.69-4.65-.48-1.49-.79-3.04-1.27-4.53a6.05 6.05 0 0 0-1.1-2.14c-.7-.77-1.74-.68-2.78.2a70.1 70.1 0 0 0-4.43 4c-4.95 4.93-10.97 7.94-17.55 9.99-.23.07-.49.06-1.19.14.8-.84 1.3-1.39 1.82-1.9 2.32-2.25 4.78-4.37 6.94-6.75 2.95-3.26 5.67-6.71 8.49-10.08 1.15-1.37 2.22-2.81 3.45-4.09 2.44-2.51 4.63-2.75 7.56-.84 2.98 1.94 5.63 4.29 7.16 7.53 1.92 4.08 5.34 6.33 9.09 8.31 1.69.9 3.42 1.74 5.11 2.64 1.43.76 2.84.93 4.51.05l-1.75-1.33c.4-.18.71-.38 1.06-.47 10.17-2.61 20.36-5.17 30.51-7.83 3.65-.96 7.27-2.05 10.83-3.28a6.27 6.27 0 0 1 4.59 0c5.6 2.15 9.6 6.08 12.19 11.39a21.18 21.18 0 0 1 1.75 14.24c-.09.41-.39.9-.73 1.12-.99.61-2.01 1.24-3.1 1.61a75.6 75.6 0 0 1-22.25 3.79c-8.79.26-17.58.16-26.38.25-1.92.02-3.85.04-5.76.26-2.56.3-4.9 1.12-6.66 3.24-1.23 1.47-2.71 2.73-4.1 4.06-3.38 3.21-7.59 4.6-12.04 5.4-5.68 1.02-11.41 1.75-17.03 3.02-3.07.69-5.97.53-8.95-.01-.31-.06-.62-.2-1.35-.44Z" class="cls-1"/>
    <path d="M182 349.27c-.93.88-1.96 1.68-2.78 2.66-1.4 1.69-2.62 3.52-4 5.21-.53.65-1.29 1.11-1.94 1.66l-.43-.21c.06-.84-.02-1.71.19-2.51a32.9 32.9 0 0 1 5.75-11.74 10.49 10.49 0 0 1 5.28-3.77c.76-.23 1.57-.3 2.84-.53-.63.78-.93 1.19-1.27 1.57-1.35 1.46-2.76 2.87-4.05 4.38-1.32 1.55-1.23 2 .36 3.31l.05-.04Z" class="cls-1"/>
    <path d="M181.95 349.31c.15.38.49.81.4 1.13-.22.78-.61 1.52-.98 2.26a27.35 27.35 0 0 0-2.65 9.47c-.12 1.2.02 2.48.36 3.64.48 1.67 1.98 1.95 3.12.61.7-.82 1.18-1.84 1.67-2.82 1.07-2.15 1.93-4.42 3.16-6.47.94-1.57 2.25-2.92 3.52-4.26.57-.61 1.57-1.41 2.31-.54.79.92-.27 1.6-.95 2.13a14.29 14.29 0 0 0-4.26 5.72 51.66 51.66 0 0 1-2.76 5.52 8.33 8.33 0 0 1-2.31 2.56c-1.67 1.18-3.67.59-4.4-1.33a9.04 9.04 0 0 1-.54-3.61 29 29 0 0 1 3.17-11.43c.43-.85.8-1.74 1.2-2.62l-.05.04ZM176.52 343.79c-2.41 4.72-5.32 9.17-5.94 14.68-.43.12-.87.32-1.33.37-1.33.16-1.88-.25-2.11-1.59a4.05 4.05 0 0 1-.03-1.43c1.09-5.61 4.3-9.58 9.41-12.03ZM207.39 334.31l1.25 3.43-3.38-1.66 2.13-1.77ZM218.13 152.26c.08 1.26.22 2.34.22 3.42-.02 5.36-.11 10.71-.09 16.07.02 4.39.25 8.79.22 13.19a476.8 476.8 0 0 1-.42 18.13 740.9 740.9 0 0 0-.49 44.72c.09 6.04-.29 12.09-.62 18.12-.26 4.87-.68 9.73-1.23 14.57a16.81 16.81 0 0 1-3.77 9.2c-3 3.54-6.92 5-11.36 5.56-11.61 1.47-23.28 1.88-34.96 1.93-9.55.04-19.1-.2-28.65-.18-8.38.02-16.76.32-25.14.36-10.51.06-21.02-.03-31.54-.03-13.33 0-26.66.11-39.98.04a80.36 80.36 0 0 1-18.75-2.45 9.39 9.39 0 0 1-6.79-5.73c-1.3-3.01-1.77-6.2-2.28-9.38-1.47-8.99-1.32-18.05-1.18-27.13.17-11.26.04-22.53.04-33.8 0-7.22-.02-14.43-.03-21.64 0-6.6.02-13.19-.02-19.79-.04-7.08-.09-14.15.78-21.2.09-.74.21-1.47.32-2.25.56-.03.96-.08 1.36-.07 4.6.07 9.2.25 13.8.2 54.14-.6 108.28-1.24 162.42-1.86 8.24-.09 16.49-.14 24.74-.19 1.07 0 2.15.11 3.41.18Zm-54.44 99.84c.78-1.09 1.5-1.99 2.11-2.97 1.33-2.16 1.16-3-.89-4.47-2.34-1.68-4.73-3.31-7.06-5-.7-.5-1.29-1.15-2.18-1.96.98-.47 1.6-.85 2.28-1.07 1.83-.59 3.69-1.09 5.52-1.65.67-.2 1.31-.49 1.97-.73l-.07-.37-12.59-3.18c-.4-5.12-1.3-10.13-.96-15.24.49-7.35.07-14.69-.35-22.03-.07-1.22-.4-1.55-1.67-1.6a62.52 62.52 0 0 0-4.33-.01c-7.48.19-14.97.35-22.45.62-6.18.22-12.35.56-18.52.9-10.63.57-21.25 1.18-31.88 1.78-3.91.22-7.81.5-11.72.77-.54.04-1.09.14-1.62.25-.99.22-1.52.87-1.57 1.89-.02.48-.04.96-.03 1.44.16 10.58.29 21.15.5 31.73.08 4.12.29 8.24.49 12.35.1 2.06.8 2.79 2.89 3.02 1.36.15 2.75.27 4.11.21 7.96-.34 15.93-.52 23.87-1.16a458.5 458.5 0 0 1 31.88-1.65c5.69-.06 11.38-.64 17.06-1.01 2.17-.14 4.34-.39 6.58-.6l2.59 9.25c1.4-3.06 2.01-6.27 3.74-9.34 4.3 3.14 7.64 7.07 12.31 9.83Zm30.92 17.17c-.55-.78-.87-1.4-1.34-1.87a240.72 240.72 0 0 0-6.49-6.29c-.57-.53-1.28-1.76-2.16-.79-.74.82.3 1.63.88 2.23 2.15 2.21 4.34 4.38 6.55 6.53.38.37.88.7 1.38.82.28.07.67-.34 1.17-.63ZM25.02 257.38l.16.51c.56.04 1.15.22 1.66.1 2.92-.73 5.79-1.64 8.37-3.25.74-.46 1.77-1.04 1.24-2.03-.51-.96-1.61-.51-2.39-.16a228.35 228.35 0 0 0-7.56 3.64c-.55.28-.98.78-1.47 1.18Zm154.12-72.01c-.7.16-1.2.18-1.63.37-1.86.84-3.72 1.71-5.56 2.61-.42.2-.82.52-1.12.88-.23.28-.28.71-.41 1.08.41.14.88.49 1.22.38 2.47-.76 4.91-1.61 7.35-2.46.31-.11.67-.32.81-.59.23-.45.53-1.05.4-1.45-.12-.39-.77-.61-1.07-.82Zm-69.75-11.8c-.14-1.67-.23-3.03-.36-4.39-.06-.67-.41-1.33-1.09-1.23-.47.07-1.14.66-1.21 1.1-.45 2.72-.37 5.45.36 8.12.11.4.7.81 1.14.92.2.05.79-.58.85-.95.2-1.27.25-2.57.32-3.56ZM22.9 217.3l.13.42c1.39.29 2.78.63 4.18.85 1.14.18 2.3.3 3.45.28.86-.02 2.02-.12 1.99-1.27-.03-1.11-1.18-1.26-2.04-1.25-2.04.02-4.08.14-6.11.31-.54.05-1.06.43-1.59.66Zm11.41 66.94.48.42c.48-.19 1.08-.26 1.41-.6a112 112 0 0 0 4.04-4.38c.42-.48.65-1.14.06-1.65-.59-.52-1.2-.16-1.64.29-1.24 1.28-2.49 2.56-3.61 3.94-.42.52-.5 1.31-.74 1.98Zm160.42-58.88c-.09-.28-.09-.45-.17-.53-1.18-1.03-5.64-1.28-6.84-.4-.64.47-.51 1.29.34 1.57 1.86.59 3.77.65 5.66.13.4-.11.71-.53 1.02-.77ZM49.42 187.04c-.92-1.37-1.57-2.44-2.33-3.45a8.21 8.21 0 0 0-1.69-1.74c-.29-.21-.98-.18-1.28.03-.3.22-.52.83-.45 1.21.09.5.42 1.01.76 1.4 1.2 1.37 2.72 2.16 4.98 2.54Zm66.33 101.03c-.1-.71-.08-1.43-.33-2.04a1.82 1.82 0 0 0-1.11-.96c-.26-.06-.93.51-.95.83-.11 1.4-.11 2.82 0 4.23.02.29.68.74 1.04.72.37-.02.89-.43 1.03-.79.24-.62.23-1.33.32-1.99ZM12.54 152.73c.73-2.89.92-5.82 2.8-8.15 1.37-1.7 2.93-3.18 5.12-3.91a32.1 32.1 0 0 1 11.13-1.74c7.15.2 14.26-.36 21.39-.93 7.53-.61 15.09-.76 22.64-.99 12.43-.39 24.86-.74 37.29-.99 9.68-.19 19.37-.16 29.05-.27 12.09-.13 24.18-.31 36.27-.45 7.5-.09 14.97.22 22.41 1.25 4.78.66 9.21 2.19 12.87 5.49a13.02 13.02 0 0 1 3.99 7.69c-1.02.08-2.02.22-3.03.24-11.06.17-22.12.33-33.18.47-50.28.62-100.57 1.21-150.86 1.84-5.83.08-11.66.3-17.89.46Zm10.56-3.57a3 3 0 0 0 2.98-3c.02-1.85-1.26-3.36-2.85-3.38-1.66-.03-3.26 1.58-3.27 3.29a3.1 3.1 0 0 0 3.14 3.09Zm25.39-3.72c.06-1.64-1.4-3.1-3.15-3.16-1.76-.06-3.12 1.16-3.16 2.82a2.88 2.88 0 0 0 2.75 3.01c1.89.11 3.5-1.1 3.56-2.67Zm-14.37-2.72c-1.76.01-3.25 1.4-3.25 3.01s1.38 2.88 3.1 2.82c1.76-.06 3.22-1.5 3.16-3.1a2.94 2.94 0 0 0-3.01-2.73Z" class="cls-1"/>
    <path d="M389.67 186.64c-.14.46-.2 1.27-.6 1.85-.33.47-1.06.85-1.64.91-.74.08-1.23-.56-1.33-1.29-.12-.8-.17-1.63-.13-2.43.06-1.19.71-1.93 1.63-2.02.99-.1 1.8.67 2 1.89.05.26.04.54.07 1.09ZM371.63 189.81c-1.51-1.27-1.98-4.08-.87-5.36.34-.39 1.09-.72 1.56-.64.48.09 1.06.65 1.25 1.15.56 1.45-.41 3.79-1.94 4.85ZM389.3 200.64c.03 2.22-1.59 2.65-2.6 3.42-2.64 2.01-5.09 2.51-7.24 1.55 1.54-1.34 3.55-1.16 5.07-2.06 1.49-.89 2.97-1.81 4.76-2.9ZM377.71 189.85c-1.4 1.99-3.78 3.02-5.34 5.05l2.81 2.27c-1.63.95-2.79.37-4.25-1.89.58-1.27 3.47-4.3 5.18-5.36.4-.25.9-.33 1.36-.5l.25.42ZM385.11 178.3c1.39-1.72 4.77-1.94 6.03-.45.26.31.44.93.31 1.27-.12.34-.66.66-1.07.75-1.2.26-3.82-.56-5.27-1.58ZM368.06 179.73c.16-.87.11-1.38.34-1.66a7.95 7.95 0 0 1 4.25-2.67c.29-.08.74.19.99.43.08.08-.11.7-.32.83-1.59.98-3.22 1.89-5.26 3.07ZM391.07 201.39l-1.63-2.75c1.75-.03 2.2.57 2.04 2.54l-.42.21ZM163.69 252.1c-4.67-2.76-8.01-6.69-12.31-9.84-1.72 3.07-2.34 6.29-3.74 9.34l-2.59-9.25c-2.25.21-4.41.45-6.58.6-5.68.38-11.37.96-17.06 1.01-10.66.11-21.26.8-31.88 1.65-7.94.64-15.91.82-23.87 1.16a26.9 26.9 0 0 1-4.11-.21c-2.09-.23-2.79-.96-2.89-3.02-.2-4.11-.41-8.23-.49-12.35-.2-10.58-.34-21.15-.5-31.73 0-.48 0-.96.03-1.44.05-1.02.58-1.67 1.57-1.89a9.92 9.92 0 0 1 1.62-.25c3.91-.27 7.81-.54 11.72-.77a8509.1 8509.1 0 0 1 31.88-1.78c6.17-.33 12.34-.67 18.52-.9 7.48-.27 14.96-.43 22.45-.62 1.44-.04 2.89-.05 4.33.01 1.26.05 1.6.38 1.67 1.6.42 7.34.84 14.68.35 22.03-.34 5.11.56 10.12.96 15.24l12.59 3.18.07.37c-.65.25-1.3.53-1.97.73-1.84.56-3.69 1.06-5.52 1.65-.68.22-1.31.61-2.28 1.07.9.81 1.49 1.46 2.18 1.96 2.34 1.69 4.72 3.31 7.06 5 2.05 1.47 2.22 2.31.89 4.47-.6.99-1.32 1.89-2.1 2.98Zm-14.59-56.37-.54-.22c-1.15.85-2.3 1.68-3.44 2.54-11.41 8.71-22.83 17.41-34.2 26.17-1.2.93-2.3 1.15-3.59.54-2.18-1.01-4.37-1.99-6.5-3.1-3.66-1.89-7.24-3.93-10.91-5.81-7.82-4.02-15.66-7.98-23.5-11.94-2.25-1.13-4.53-2.19-7.14-3.43.83 14.9.23 29.52 1.34 44.24.98 0 1.79.04 2.6 0 9.05-.5 18.11-.86 27.15-1.55 9.94-.76 19.87-1.32 29.84-1.21 7.5.08 14.96-.42 22.41-1.26.59-.06 1.17-.22 1.85-.36-.85-4.14-1.91-8.08-2.56-12.27 3.01.69 5.59 1.85 8.56 2.08-.05-.7-.04-1.24-.14-1.77-1.08-5.7-1.17-11.45-1.05-17.23.11-5.13-.12-10.27-.21-15.41Zm-2.55-1.59a6.02 6.02 0 0 0-.19-.35c-14.12.64-28.25 1.1-42.35 1.98-14.12.88-28.29 1.14-42.38 2.95.56.48 1.15.8 1.74 1.11l7.09 3.76c5.96 3.12 11.9 6.25 17.88 9.33 4.45 2.3 8.93 4.54 13.41 6.78 1.96.98 3.97 1.88 5.95 2.81 1.02.48 1.91.42 2.84-.35 2.6-2.13 5.27-4.18 7.92-6.25 4.87-3.8 9.72-7.62 14.62-11.39 4.19-3.23 8.41-6.4 12.62-9.61.31-.23.58-.51.86-.77ZM194.6 269.27c-.5.28-.89.7-1.17.63-.5-.12-1-.45-1.38-.82-2.21-2.15-4.4-4.32-6.55-6.53-.58-.6-1.63-1.41-.88-2.23.87-.97 1.59.27 2.16.79 2.21 2.05 4.36 4.16 6.49 6.29.47.47.79 1.08 1.34 1.86ZM25.01 257.39c.49-.4.92-.91 1.47-1.18 2.5-1.26 5.02-2.48 7.56-3.64.78-.36 1.88-.81 2.39.16.53.99-.5 1.57-1.24 2.03-2.58 1.61-5.44 2.52-8.37 3.25-.51.13-1.1-.06-1.66-.1l-.16-.51ZM179.13 185.38c.31.22.95.43 1.08.82.14.4-.16 1.01-.4 1.45-.14.27-.5.48-.81.59a243.6 243.6 0 0 1-7.35 2.46c-.33.1-.81-.24-1.22-.38.13-.37.18-.8.41-1.08.29-.36.7-.67 1.12-.88 1.84-.9 3.69-1.77 5.56-2.61.42-.19.92-.22 1.62-.37ZM109.38 173.58c-.08.99-.12 2.29-.32 3.56-.06.37-.64 1.01-.85.95-.44-.11-1.03-.52-1.14-.92-.73-2.67-.81-5.4-.36-8.12.07-.44.75-1.03 1.21-1.1.68-.1 1.03.56 1.09 1.23l.36 4.39ZM22.89 217.31c.53-.23 1.05-.62 1.59-.67 2.03-.17 4.07-.29 6.11-.31.86 0 2.02.14 2.04 1.25.03 1.15-1.14 1.26-1.99 1.27-1.15.02-2.31-.1-3.45-.28-1.4-.22-2.79-.56-4.18-.85l-.13-.42ZM34.3 284.25c.23-.67.31-1.46.74-1.98 1.12-1.38 2.37-2.66 3.61-3.94.44-.45 1.04-.81 1.64-.29.59.51.36 1.16-.06 1.65a98.33 98.33 0 0 1-4.04 4.38c-.33.34-.93.41-1.41.6l-.48-.42ZM194.71 225.36c-.31.24-.62.66-1.02.77-1.89.53-3.8.46-5.66-.13-.86-.27-.98-1.09-.34-1.57 1.2-.88 5.66-.63 6.84.4.08.08.08.25.17.53ZM49.4 187.04c-2.26-.38-3.78-1.17-4.98-2.54-.35-.4-.68-.9-.76-1.4-.06-.38.15-.99.45-1.21.29-.22.99-.24 1.28-.03a7.98 7.98 0 0 1 1.69 1.74c.75 1 1.41 2.07 2.33 3.44ZM115.73 288.07c-.09.66-.08 1.37-.32 1.99-.14.36-.67.78-1.03.79-.35.02-1.02-.44-1.04-.72-.11-1.4-.11-2.82 0-4.23.03-.32.7-.89.95-.83.43.1.94.54 1.11.96.25.61.23 1.33.33 2.04ZM23.11 149.15a3.1 3.1 0 0 1-3.14-3.09c.02-1.72 1.61-3.32 3.27-3.29 1.6.03 2.87 1.54 2.85 3.38a2.99 2.99 0 0 1-2.98 3ZM48.5 145.43c-.06 1.57-1.66 2.78-3.56 2.67a2.88 2.88 0 0 1-2.75-3.01c.04-1.66 1.4-2.87 3.16-2.82 1.74.05 3.21 1.52 3.15 3.16ZM34.13 142.71c1.61-.01 2.96 1.21 3.01 2.73.06 1.61-1.4 3.04-3.16 3.1-1.73.06-3.1-1.19-3.1-2.82 0-1.62 1.49-3 3.25-3.01Z" class="cls-3"/>
    <path d="M149.1 195.73c.08 5.14.31 10.29.21 15.43-.12 5.79-.03 11.53 1.05 17.23.1.52.08 1.06.14 1.77-2.97-.23-5.55-1.38-8.56-2.08.65 4.19 1.71 8.13 2.56 12.27-.68.13-1.26.29-1.85.36-7.45.83-14.91 1.33-22.41 1.26-9.97-.11-19.91.45-29.84 1.21-9.04.69-18.1 1.05-27.15 1.55-.81.05-1.62 0-2.6 0-1.11-14.72-.51-29.34-1.34-44.24 2.61 1.25 4.89 2.3 7.14 3.43 7.84 3.96 15.68 7.93 23.5 11.94 3.66 1.88 7.25 3.91 10.91 5.81 2.13 1.1 4.32 2.09 6.5 3.1 1.3.6 2.39.38 3.59-.54 11.37-8.76 22.79-17.46 34.2-26.17 1.13-.87 2.29-1.69 3.44-2.54l.54.2Z" class="cls-1"/>
    <path d="M146.55 194.14c-.29.26-.56.54-.86.77-4.21 3.2-8.43 6.38-12.62 9.61-4.89 3.77-9.75 7.59-14.62 11.39-2.65 2.07-5.32 4.12-7.92 6.25-.93.77-1.82.83-2.84.35-1.99-.93-3.99-1.83-5.95-2.81a990.28 990.28 0 0 1-13.41-6.78c-5.97-3.08-11.92-6.21-17.88-9.33-2.37-1.24-4.73-2.5-7.09-3.76a8.93 8.93 0 0 1-1.74-1.11c14.09-1.81 28.26-2.07 42.38-2.95 14.1-.88 28.23-1.34 42.35-1.98l.19.34Z" class="cls-1"/>
  </g>
  <g id="primary-color">
    <path d="M61.24 198.34c3.65-.48 6.87-1.04 10.11-1.32 8.69-.75 17.37-1.53 26.07-2.02 6.78-.37 13.59-.24 20.38-.48 9.06-.32 18.11-.79 27.16-1.19.65-.03 1.31 0 1.97 0l.21.44c-.31.37-.57.81-.95 1.09-5.21 3.91-10.51 7.72-15.64 11.73a877.44 877.44 0 0 0-19.06 15.39c-1.36 1.13-2.41 1.38-4.02.58-3.93-1.96-7.98-3.65-11.91-5.59-5.66-2.79-11.27-5.68-16.9-8.55-3.91-1.99-7.83-3.97-11.72-6.03a25.12 25.12 0 0 1-5.7-4.07Zm77.82-1.6-.09-.47c-.86.06-1.73.11-2.59.2-9.3.92-18.6 1.76-27.95 1.79-12.3.04-24.57.67-36.83 1.67-.47.04-.93.17-1.44.26a70409.4 70409.4 0 0 0 38.63 18.73 340.28 340.28 0 0 1 30.27-22.18Z" class="cls-2"/>
    <path d="m144.1 237.39.38 3.5c-1.34.26-2.59.65-3.85.71-3.84.2-7.69.43-11.53.38-10.25-.12-20.46.43-30.68 1.08-10.76.68-21.48 2.02-32.28 1.95h-5.76c-.05-.73-.13-1.39-.14-2.05-.22-10.99-.42-21.98-.65-32.97-.06-2.82-.17-5.63-.23-8.45 0-.32.09-.64.17-1.22 1.02.61 1.94 1.03 2.71 1.66.42.34.73.99.82 1.54.21 1.35.28 2.73.37 4.1.68 10.51.7 21.01-.07 31.51-.05.61 0 1.22 0 1.99.6.05 1.12.16 1.63.14 7.2-.33 14.41-.71 21.61-1.02 14.69-.63 29.38-1.23 44.06-1.83 3.16-.13 6.32-.15 9.47-.33 1.21-.06 2.4-.42 3.97-.72ZM150.83 230.15l-3.88-.72c0-1.1.02-2.11 0-3.12-.19-8.84-.35-17.68-.59-26.51-.08-2.91.05-3.27 2.88-4.65.15.43.4.84.42 1.27.21 5.2.4 10.4.57 15.6.19 5.68.36 11.37.54 17.06l.06 1.07Z" class="cls-2"/>
  </g>
</svg>