<svg xmlns="http://www.w3.org/2000/svg" id="adresse-postale" viewBox="0 0 500 500">
  <defs>
    <style>
      .cls-1{fill:#fff}.cls-2{fill:#71a52e}.cls-3{fill:#030f40}
    </style>
  </defs>
  <path id="secondary-color" fill="#f9bc13" d="M104.95 376.67c.4-8.16.9-16.32 1.18-24.49.25-7.34.45-14.69.33-22.03a189.91 189.91 0 0 0-4.47-36.95c-1.87-8.63-3.98-17.21-5.9-25.83a157.53 157.53 0 0 1-3.77-26.21 90.73 90.73 0 0 1 6.7-39.04c.99-2.46 2.08-4.87 3.15-7.3 1.38-3.14 3-6.14 5.03-8.93 1.26-1.74 2.37-3.6 3.48-5.45 3.75-6.25 7.39-12.57 11.23-18.77 3.84-6.2 8.13-12.09 12.77-17.73 8.36-10.17 18-19.01 28.02-27.45 6.01-5.06 12.5-9.5 19.43-13.22 11.16-5.99 22.63-11.34 34.71-15.2 7.94-2.54 16.04-4.56 24.05-6.86 10.51-3.02 20.93-6.36 30.96-10.77 1.1-.48 2.19-1.11 3.1-1.88 8-6.7 17.12-11.49 26.57-15.75a131.78 131.78 0 0 1 33.14-10.22 153.04 153.04 0 0 1 32.35-1.97c16.36.82 31.68 5.55 46.51 12.17 23.29 10.4 42.79 25.76 58.99 45.34 11.87 14.34 20.29 30.51 24.22 48.81 5.26 24.49 2.49 47.96-9.19 70.29-6.07 11.6-13.82 21.95-22.68 31.51-9.77 10.56-20.42 20.19-31.48 29.37-4.29 3.56-8.56 7.15-12.87 10.7a196.32 196.32 0 0 0-32.08 33.61c-8.78 11.64-17.35 23.44-25.97 35.2-11.59 15.79-24.07 30.82-38.05 44.57-14.5 14.26-30.5 26.52-48.45 36.14a170.92 170.92 0 0 1-51.02 17.48 163.8 163.8 0 0 1-36.46 2.51c-13.65-.62-27.01-2.8-39.89-7.51a86.28 86.28 0 0 1-15.51-7.42c-12.5-7.68-20.53-18.72-24.55-32.74a92.52 92.52 0 0 1-3.4-22.55c-.13-3.81-.02-7.62-.02-11.43h-.15Z" opacity=".1"/>
  <g id="invariable">
    <path d="M228.78 348.47c-.95.75-1.72 1.56-2.65 2.08-8.05 4.45-15.23 10.2-22.82 15.34-4.53 3.06-9.05 6.14-13.59 9.18-1.23.82-1.57.77-2.49-.37a37.13 37.13 0 0 1-2.5-3.5c-14.35-22.75-28.7-45.5-43.03-68.26-10.75-17.08-22.09-33.73-34.81-49.42-5.43-6.69-10.96-13.3-17.07-19.41a17.68 17.68 0 0 1-2.18-2.69c-.84-1.25-.58-1.95.81-2.59.55-.25 1.12-.47 1.7-.67 7.46-2.47 14.62-5.67 21.76-8.9 16.05-7.27 32.12-14.48 48.56-20.83 11.69-4.52 23.51-8.72 35.13-13.41 16.34-6.58 32.54-13.5 48.82-20.24a1315.14 1315.14 0 0 0 52.61-23.17 606.92 606.92 0 0 0 35.94-18.12c6.53-3.59 12.85-7.55 19.27-11.35l11.82-7.02c.33-.2.68-.39.94-.66 1.16-1.2 2.54-1.34 3.95-.69a9.95 9.95 0 0 1 2.88 1.88 116.6 116.6 0 0 1 6.39 6.95 366.46 366.46 0 0 1 19.38 25.64c9.79 14.05 19.76 27.97 29.63 41.96 4.11 5.82 8.14 11.7 12.29 17.49 2.48 3.45 5.1 6.81 7.73 10.15.95 1.21 2.09 2.27 3.15 3.39.15.16.32.31.46.47 1.02 1.21.95 1.96-.36 2.85a66.4 66.4 0 0 1-3.91 2.5c-9.2 5.37-18.39 10.77-27.64 16.07a4713.74 4713.74 0 0 1-37.31 21.2c-8.62 4.84-17.34 9.51-26.42 13.44-.3.13-.58.3-.99.52 6.19 23.96 2.78 46.38-11.12 67.16.34.4.67.84 1.04 1.22 3.99 4.07 7.53 8.52 10.97 13.06 7.82 10.36 16.17 20.31 24.48 30.28a447.19 447.19 0 0 0 30.56 33.11 1864.2 1864.2 0 0 1 18.98 18.75c2.53 2.54 4.86 5.29 7.19 8.01 1 1.17 1.81 2.51 2.63 3.81a8 8 0 0 1 1.28 4.06c.02.44.1.88.18 1.31.77 4.14-.98 7.55-4.81 9.39-3.07 1.47-9.68 1.43-12.77-.02a31.51 31.51 0 0 1-8.19-5.56 273.46 273.46 0 0 1-19.29-19.83c-6.03-6.91-12.06-13.82-17.91-20.87-6.07-7.31-11.86-14.84-17.89-22.19-4.45-5.42-9-10.76-13.64-16.03-4.53-5.14-9.22-10.13-13.83-15.2-1.83-2.02-4.25-3.12-6.59-4.36-.74-.4-1.25.02-1.8.4a75.85 75.85 0 0 1-13.43 7.51 75.63 75.63 0 0 1-79.91-12.44c-.58-.49-1.15-1-1.61-1.4Zm-1.41-1.31-.98-1.03c-18.3-19.16-25.78-41.9-21.74-68.08 3.39-21.98 14.82-39.25 32.76-52.15 12.65-9.08 26.99-13.44 42.54-13.73a72.54 72.54 0 0 1 27.56 4.9c1.09.42 1.95.34 2.93-.24 2.15-1.24 4.34-2.41 6.55-3.56 12.18-6.37 24.37-12.72 36.56-19.07.83-.43 1.69-.81 2.57-1.14.35-.13.78-.05 1.17-.07l.12.35c-.48.33-.94.68-1.44.97-1.19.7-2.42 1.33-3.6 2.04a360.33 360.33 0 0 1-23.4 12.77c-5.42 2.74-10.79 5.57-16.18 8.36-.5.26-.96.59-1.37.85l13.46 7.73c1.3-.71 2.72-1.54 4.2-2.28 4.98-2.5 10.03-4.88 14.96-7.46 6.02-3.14 11.95-6.45 17.93-9.67.68-.36 1.38-.71 2.1-.96.21-.07.61.17.79.38.1.12 0 .57-.16.71-.46.39-.97.72-1.49 1.03-11.46 6.89-23.36 12.96-35.25 19.06-.41.21-.81.45-1.28.71l7.89 6.94c.21-.07.37-.11.52-.18l31.02-14.98c1.64-.79 3.25-1.63 4.88-2.44.46-.23 1.04-.41 1.26.21.09.26-.31.71-.5 1.06-.05.08-.18.12-.28.17-2.84 1.59-5.66 3.21-8.53 4.75-7.54 4.05-15.09 8.06-22.64 12.09-1.1.59-2.18 1.22-3.41 1.91a78.53 78.53 0 0 1 16.68 29.08c3.9-1.89 7.67-3.6 11.33-5.52 9.78-5.13 19.58-10.23 29.25-15.58a2824.07 2824.07 0 0 0 39.79-22.53c4.49-2.58 8.79-5.52 13.17-8.31.4-.25.73-.6 1.07-.89-1.93-2.46-3.87-4.73-5.58-7.17-4.89-6.96-9.65-14.01-14.54-20.98-4.73-6.74-9.57-13.4-14.31-20.12-3.92-5.55-7.63-11.25-11.69-16.69-7.36-9.88-14.91-19.61-22.39-29.4-1.31-1.71-2.58-3.46-3.92-5.14a364.36 364.36 0 0 0-5.59-6.76c-.46-.54-1.03-1-1.58-1.45-.71-.58-1.39-.67-2.23-.04-1.1.82-2.34 1.47-3.52 2.17-3.66 2.16-7.42 4.17-10.98 6.49-9.22 6-18.73 11.5-28.42 16.69a754.23 754.23 0 0 1-47.5 23.15 1638.25 1638.25 0 0 1-58.39 24.84c-11.68 4.71-23.29 9.6-35.11 13.92-21.07 7.7-41.9 15.97-62.26 25.4-9.82 4.55-19.67 9.04-30 12.37-.23.07-.42.25-.72.44.43.38.77.65 1.09.95 2.75 2.63 5.71 5.08 8.19 7.95a237.75 237.75 0 0 1 12.93 15.96c12.05 16.64 23.86 33.45 34.55 51.04 12.91 21.25 26.77 41.88 40.23 62.78.83 1.29 1.77 2.51 2.6 3.68 12.63-9.1 25.41-17.67 38.34-26.32Zm63.88-115.96c-3.85-.71-7.31-1.17-10.79-.77a61.42 61.42 0 0 0-12.92 2.8 112.1 112.1 0 0 0-22.08 10.53c-.61.37-1.19.81-1.75 1.25-5.26 4.11-9.29 9.26-12.61 15a86.86 86.86 0 0 0-8.84 21.9 47.11 47.11 0 0 0-1.66 12.61 50 50 0 0 0 2.76 14.93 58.56 58.56 0 0 0 21.75 29.51 54.43 54.43 0 0 0 14.2 7.4c.53.18 1.28.35 1.7.12 1.47-.83 2.84-1.84 4.42-2.91-1.67-.6-3.08-1.06-4.46-1.6a48.9 48.9 0 0 1-11.44-6.61c-5.32-3.99-10.47-8.19-14.15-13.82a59.09 59.09 0 0 1-4.47-8.29 51.27 51.27 0 0 1-2.5-7.7c-.31-1.19-.23-2.52-.17-3.78.04-.81.54-1.48 1.41-1.64.88-.16 1.32.49 1.61 1.15.34.75.54 1.56.82 2.34.64 1.82 1.06 3.76 1.99 5.42a121.5 121.5 0 0 0 5.81 9.25 42.23 42.23 0 0 0 8.67 9.53 75.29 75.29 0 0 0 11.2 7.05c3.27 1.73 6.64 3.26 10.3 4.03.86.18 1.54.1 2.32-.42 12.16-8.15 24.31-16.3 36.52-24.37 4.56-3.01 9.31-5.74 13.44-9.37.58-.51 1.23-.94 1.88-1.35 3.07-1.96 6.16-3.9 9.23-5.85.49-.31 1.16-.47 1.12-1.27-.17-3.64-.31-7.28-.5-10.91-.14-2.64-.34-5.28-.48-7.92-.04-.74.14-1.47.9-1.82.85-.39 1.59.07 2.06.66.74.94 1.5 1.96 1.88 3.07 1.35 3.98 2.44 8.04 2.13 12.32-.03.46.05.92.07 1.38l.33.12c.3-.39.84-.76.88-1.18.25-2.68.65-5.36-.07-8.06a136.3 136.3 0 0 1-2.19-9.35c-1.14-6-3.94-11.21-7.33-16.17-.21-.31-.36-.67-.45-.85-4.18 2.56-7.96 4.95-11.82 7.21-7.96 4.66-16 9.17-23.92 13.89-8.3 4.95-16.49 10.07-24.72 15.14-.79.49-1.58.81-2.49.71-.38-.04-.88-.27-1.07-.57-.3-.49-.2-1.08.29-1.49.38-.31.8-.59 1.2-.88 14.47-10.16 29.44-19.55 44.36-29.02 4.43-2.81 8.74-5.8 13.1-8.72.39-.26.72-.61 1.13-.96a66.42 66.42 0 0 0-13.12-11.78l-1.08.65c-5.29 3.3-10.57 6.63-15.88 9.91-11.46 7.08-22.94 14.13-34.4 21.22-1.17.72-2.25 1.58-3.35 2.42-.62.47-1.31.78-1.97.33a2.07 2.07 0 0 1-.79-1.32c-.1-.8.47-1.3 1.19-1.6.1-.04.21-.08.3-.13.73-.38 1.5-.71 2.19-1.16 9.43-5.96 18.85-11.92 28.26-17.92 7.08-4.51 14.13-9.05 21.2-13.59.34-.22.64-.49 1.06-.82-.68-.39-1.18-.75-1.74-.97-3.73-1.52-7.48-2.99-11.2-4.52-.69-.28-1.17.06-1.7.33-3.89 1.96-7.81 3.89-11.67 5.91-8.99 4.72-17.94 9.54-26.95 14.23-4.26 2.22-8.61 4.24-12.94 6.33-.66.32-1.36.83-2.15.26.06-1.16.04-1.28 1.09-2.01 2.13-1.48 4.25-2.99 6.49-4.3 12.97-7.57 25.85-15.3 39.15-22.28.38-.2.72-.45 1.39-.88Zm43.12 68.39c-.85.51-1.37.8-1.86 1.12-16.56 10.79-33.12 21.58-49.67 32.39-2.77 1.81-5.46 3.75-8.18 5.65-.27.19-.47.49-.87.92l3.69.48c1.86.24 3.72.42 5.57.73 1.22.21 1.89.99 1.92 1.95.03.91-.64 1.82-1.73 2.18-.57.19-1.18.27-1.78.33-4.44.39-8.81-.12-13.14-1.07-.41-.09-.95-.2-1.26-.01-1.53.93-2.99 1.96-4.52 2.98.22.16.29.25.39.29a58.86 58.86 0 0 0 32.36-.03 64.16 64.16 0 0 0 45.83-50.29c.1-.57.16-1.15.26-1.85-1.08.52-1.06.52-1.23 1.3-.64 2.91-1.23 5.83-1.94 8.72a13.05 13.05 0 0 1-3.4 5.98c-.48.5-1.07.87-1.77.48a1.62 1.62 0 0 1-.83-1.68c.05-.49.22-.96.32-1.45l1.83-9.11Zm-51.09 43.13c-1.4-1.09-2.96-.91-4.48-1.03-2.68-.21-5.39-.37-8.04-.84-3.99-.71-7.67-2.37-11.3-4.13-3.9-1.89-7.27-4.58-10.67-7.21a50.81 50.81 0 0 1-14-16.54c-1.7-3.2-3.49-6.39-4.32-9.99-.09-.38-.33-.73-.5-1.09a6.3 6.3 0 0 0-.3 3.42c.8 4.53 2.72 8.61 5.02 12.52 3.93 6.67 9.36 11.93 15.55 16.51a52.58 52.58 0 0 0 23.71 9.91c2.4.36 4.82.57 7.23-.06.82-.23 1.56-.52 2.09-1.47Zm50.66-33.11a8.8 8.8 0 0 0 2.62-4.08 46.68 46.68 0 0 0 1.97-19.43 24.95 24.95 0 0 0-1.98-7.14 3.42 3.42 0 0 0-1.69-1.94c0 .99-.08 1.75.02 2.49.25 1.91.59 3.81.87 5.72.79 5.28.84 10.54-.19 15.8-.55 2.86-1.08 5.72-1.61 8.58ZM3.06 400.42c.54-.54 1.03-1.12 1.61-1.6a1069.63 1069.63 0 0 1 60.73-46.58 703.9 703.9 0 0 1 49.64-32.74c2.42-1.44 4.76-3.01 7.15-4.5.49-.31 1.03-.54 1.78-.92 0 1.13-.62 1.55-1.12 1.95-2.21 1.74-4.4 3.53-6.71 5.13-3.17 2.2-6.42 4.31-9.7 6.36-26.79 16.69-52.56 34.85-77.77 53.82-8.16 6.14-16.3 12.33-24.45 18.48-.34.26-.74.42-1.12.63l-.03-.03ZM107.17 343.28c-.7.64-1.2 1.2-1.79 1.63a122.25 122.25 0 0 1-5.33 3.65c-10.87 6.97-21.76 13.91-32.65 20.85-.64.41-1.31.77-2.13.97.16-.14.31-.3.49-.42 11.05-7.59 22.1-15.2 33.17-22.76 1.96-1.34 4.02-2.51 6.06-3.73.54-.33 1.1-.78 2.19-.18ZM76.58 324.26a746.37 746.37 0 0 0-41.91 26.22c.28-.27.55-.55.85-.8a301.14 301.14 0 0 1 30.43-21.18 112.1 112.1 0 0 1 6.06-3.41c.97-.51 2.01-.92 3.05-1.27.45-.15.99-.02 1.48-.02l.04.46ZM3.08 400.44l-1.27 1.32-.25-.26c.43-.43.8-.94 1.49-1.09l.03.03ZM0 402.77l.78-.61.14.16-.73.64-.18-.19Z" class="cls-3"/>
    <path d="M227.36 347.16a1368.83 1368.83 0 0 0-38.35 26.32c-.83-1.17-1.76-2.4-2.6-3.68-13.46-20.89-27.33-41.53-40.23-62.78-10.68-17.58-22.49-34.39-34.55-51.04a237.75 237.75 0 0 0-12.93-15.96c-2.48-2.87-5.45-5.32-8.19-7.95-.31-.3-.65-.57-1.09-.95.3-.19.49-.36.72-.44 10.33-3.33 20.18-7.82 30-12.37 20.36-9.44 41.19-17.7 62.26-25.4 11.82-4.32 23.44-9.21 35.11-13.92a1654.05 1654.05 0 0 0 58.39-24.84A754.23 754.23 0 0 0 323.4 131c9.69-5.2 19.2-10.7 28.42-16.69 3.56-2.31 7.32-4.33 10.98-6.49 1.19-.7 2.42-1.35 3.52-2.17.84-.62 1.51-.54 2.23.04.55.45 1.12.91 1.58 1.45 1.89 2.23 3.76 4.48 5.59 6.76 1.35 1.68 2.61 3.42 3.92 5.14 7.47 9.79 15.02 19.53 22.39 29.4 4.06 5.45 7.77 11.15 11.69 16.69 4.75 6.72 9.59 13.38 14.31 20.12 4.89 6.97 9.64 14.02 14.54 20.98 1.71 2.44 3.65 4.71 5.58 7.17-.34.29-.68.64-1.07.89-4.38 2.79-8.67 5.72-13.17 8.31a2881.6 2881.6 0 0 1-39.79 22.53c-9.66 5.35-19.46 10.44-29.25 15.58-3.66 1.92-7.43 3.63-11.33 5.52a78.53 78.53 0 0 0-16.68-29.08c1.23-.69 2.31-1.33 3.41-1.91 7.54-4.03 15.1-8.04 22.64-12.09 2.86-1.54 5.69-3.16 8.53-4.75.1-.05.23-.09.28-.17.2-.35.6-.79.5-1.06-.22-.62-.8-.43-1.26-.21-1.63.81-3.24 1.64-4.88 2.44-10.33 5-20.67 9.99-31.02 14.98-.15.07-.31.11-.52.18l-7.89-6.94c.47-.26.87-.5 1.28-.71 11.89-6.1 23.79-12.17 35.25-19.06.52-.31 1.03-.64 1.49-1.03.16-.13.26-.59.16-.71-.18-.21-.58-.45-.79-.38-.73.25-1.42.59-2.1.96-5.98 3.22-11.91 6.52-17.93 9.67-4.94 2.58-9.98 4.97-14.96 7.46-1.47.74-2.9 1.57-4.2 2.28l-13.46-7.73c.41-.26.88-.59 1.37-.85 5.39-2.8 10.77-5.62 16.18-8.36a357.72 357.72 0 0 0 23.4-12.77c1.18-.71 2.41-1.35 3.6-2.04.5-.29.96-.64 1.44-.97l-.12-.35c-.4.02-.82-.06-1.17.07-.88.33-1.74.71-2.57 1.14-12.19 6.35-24.38 12.7-36.56 19.07-2.2 1.15-4.4 2.32-6.55 3.56-.99.57-1.84.66-2.93.24a72.54 72.54 0 0 0-27.56-4.9c-15.56.29-29.9 4.64-42.54 13.73-17.94 12.89-29.38 30.17-32.76 52.15-4.03 26.18 3.44 48.92 21.74 68.08l.98 1.03Zm134.69-181.3c1.07.86 2.02.45 2.94-.16 1.06-.71 2.07-1.47 3.13-2.17 2.03-1.33 4.08-2.64 6.11-3.96 1.23-.8 1.45-1.41.89-2.61-2.36-5.13-4.03-10.5-5.73-15.87-.88-2.79-1.63-5.61-2.44-8.42-.35-1.23-.83-1.43-1.92-.78-.43.25-.81.57-1.22.85-1.26.89-2.49 1.85-3.8 2.65a140.98 140.98 0 0 1-6.32 3.61c-2.69 1.45-2.6 2.4-2.06 4.35.05.2.06.42.1.64-6.94 3.41-12.25 8.15-13.66 16.18-.33.05-.6.11-.86.12-2.32.06-4.64.03-6.95.18-2.77.17-5.59.5-7.87 2.2-1.89 1.41-3.49 3.2-5.19 4.84-.18.17-.22.49-.32.74l.26.19c.71-.67 1.52-1.26 2.12-2.02 2.58-3.28 6.02-4.66 10.09-4.85 2.48-.12 4.95-.41 7.42-.63l1.14-.09v3.42c-1.29.5-1.44.57-3.49-.05a8.41 8.41 0 0 0-5.83.23 15.83 15.83 0 0 0-6.14 4.66 7.25 7.25 0 0 0-1.05 1.86c-.16.39-.09.88-.13 1.44.32-.18.46-.2.49-.28 1.29-2.99 3.67-4.92 6.39-6.47a7.7 7.7 0 0 1 5.61-.76c1.43.31 2.91.42 4.52.64l1.26 2.57c-.57.26-1.08.59-1.64.75-1.16.34-2.34.65-3.53.87-2.13.4-4.03 1.16-5.32 3.01-.15.22-.21.5-.31.75l.4.32c.24-.37.44-.78.73-1.1a5.84 5.84 0 0 1 3.42-1.88c2.39-.4 4.8-.71 6.88-1.9.29.17.44.24.57.34 3.01 2.68 6.5 3.3 10.36 2.49 4.17-.88 7.85-2.6 10.97-5.89Z" class="cls-1"/>
    <path d="M291.24 231.2c-.67.43-1.01.67-1.38.87-13.3 6.98-26.18 14.72-39.15 22.28-2.24 1.3-4.36 2.82-6.49 4.3-1.06.74-1.04.86-1.09 2.01.79.57 1.49.06 2.15-.26 4.33-2.08 8.68-4.11 12.94-6.33 9.01-4.69 17.95-9.51 26.95-14.23 3.86-2.03 7.78-3.95 11.67-5.91.53-.27 1.01-.61 1.7-.33 3.73 1.52 7.47 3 11.2 4.52.55.22 1.05.58 1.74.97-.43.33-.73.6-1.06.82-7.06 4.54-14.12 9.08-21.2 13.59-9.41 5.99-18.83 11.95-28.26 17.92-.7.44-1.46.78-2.19 1.16l-.3.13c-.73.29-1.29.8-1.19 1.6.06.47.4 1.06.79 1.32.66.44 1.35.14 1.97-.33 1.09-.83 2.18-1.7 3.35-2.42 11.46-7.09 22.94-14.13 34.4-21.22 5.31-3.28 10.58-6.61 15.88-9.91l1.08-.65a66.7 66.7 0 0 1 13.12 11.78c-.41.35-.74.7-1.13.96-4.36 2.92-8.67 5.91-13.1 8.72-14.92 9.47-29.89 18.86-44.36 29.02-.41.29-.82.56-1.2.88-.5.41-.6 1-.29 1.49.19.3.68.53 1.07.57.9.1 1.7-.23 2.49-.71 8.22-5.07 16.42-10.19 24.72-15.14 7.92-4.72 15.97-9.23 23.92-13.89 3.86-2.26 7.63-4.65 11.82-7.21.09.18.24.53.45.85 3.39 4.96 6.19 10.17 7.33 16.17.6 3.14 1.37 6.26 2.19 9.35.71 2.7.32 5.38.07 8.06-.04.42-.57.79-.88 1.18l-.33-.12c-.03-.46-.11-.92-.07-1.38.31-4.28-.78-8.34-2.13-12.32a10.99 10.99 0 0 0-1.88-3.07c-.46-.59-1.21-1.05-2.06-.66-.76.35-.93 1.08-.9 1.82.14 2.64.34 5.28.48 7.92.19 3.64.33 7.27.5 10.91.04.8-.63.96-1.12 1.27-3.07 1.96-6.16 3.89-9.23 5.85-.65.42-1.3.85-1.88 1.35-4.13 3.62-8.88 6.36-13.44 9.37-12.21 8.06-24.37 16.22-36.52 24.37-.77.52-1.45.6-2.32.42-3.66-.77-7.04-2.3-10.3-4.03a73.69 73.69 0 0 1-11.2-7.05 42.5 42.5 0 0 1-8.67-9.53c-2.06-3-4.03-6.07-5.81-9.25-.93-1.66-1.35-3.6-1.99-5.42-.28-.78-.48-1.59-.82-2.34-.3-.66-.74-1.32-1.61-1.15a1.7 1.7 0 0 0-1.41 1.64c-.06 1.26-.14 2.58.17 3.78a51.27 51.27 0 0 0 2.5 7.7 58.07 58.07 0 0 0 4.47 8.29c3.68 5.62 8.84 9.83 14.15 13.82a48.49 48.49 0 0 0 11.44 6.61c1.38.54 2.79 1 4.46 1.6-1.58 1.06-2.95 2.07-4.42 2.91-.42.24-1.17.07-1.7-.12a54.43 54.43 0 0 1-14.2-7.4 58.46 58.46 0 0 1-21.75-29.51 49.64 49.64 0 0 1-2.76-14.93c-.07-4.28.59-8.49 1.66-12.61a86.94 86.94 0 0 1 8.84-21.9c3.32-5.73 7.35-10.88 12.61-15 .57-.44 1.14-.88 1.75-1.25 7-4.27 14.32-7.86 22.08-10.53a61.55 61.55 0 0 1 12.92-2.8c3.47-.39 6.93.07 10.78.78Zm-59.89 55.45c-.26-1.09-.5-2.27-.85-3.41-.19-.64-.6-1.23-1.41-1.17-.79.05-1.11.64-1.28 1.32a16.85 16.85 0 0 0-.32 7.34c.15.79.24 1.83 1.22 1.95 1.06.12 1.51-.87 1.74-1.69.39-1.37.58-2.78.89-4.34Z" class="cls-1"/>
    <path d="M283.27 342.71c-.53.96-1.27 1.25-2.1 1.47-2.41.63-4.83.43-7.23.06a52.7 52.7 0 0 1-23.71-9.91c-6.19-4.58-11.62-9.83-15.55-16.51-2.3-3.91-4.22-8-5.02-12.52a6.21 6.21 0 0 1 .3-3.42c.17.36.42.71.5 1.09.83 3.6 2.62 6.78 4.32 9.99a50.81 50.81 0 0 0 14 16.54c3.4 2.64 6.77 5.33 10.67 7.21 3.63 1.75 7.31 3.42 11.3 4.13 2.65.47 5.35.63 8.04.84 1.52.12 3.08-.06 4.48 1.03ZM333.94 309.6c.54-2.86 1.06-5.72 1.62-8.58 1.03-5.26.99-10.53.19-15.8-.29-1.91-.62-3.81-.87-5.72-.1-.74-.02-1.5-.02-2.49a3.42 3.42 0 0 1 1.69 1.94c1 2.28 1.69 4.65 1.98 7.14.76 6.62.01 13.09-1.97 19.43a8.8 8.8 0 0 1-2.62 4.08Z" class="cls-1"/>
    <path d="M362.06 165.86c-3.12 3.29-6.8 5.02-10.95 5.89-3.86.81-7.35.19-10.36-2.49-.12-.11-.28-.17-.57-.34-2.08 1.18-4.49 1.49-6.88 1.9a5.81 5.81 0 0 0-3.42 1.88c-.29.33-.49.73-.73 1.1l-.4-.32c.1-.25.16-.54.31-.75 1.29-1.85 3.19-2.61 5.32-3.01 1.19-.22 2.37-.53 3.53-.87.56-.16 1.08-.48 1.64-.75l-1.26-2.57c-1.61-.22-3.09-.33-4.52-.64a7.7 7.7 0 0 0-5.61.76c-2.72 1.55-5.11 3.48-6.39 6.47-.03.07-.17.1-.49.28.04-.57-.03-1.05.13-1.44.27-.66.6-1.32 1.05-1.86a15.9 15.9 0 0 1 6.14-4.66c1.9-.8 3.83-.83 5.83-.23 2.05.61 2.2.55 3.49.04v-3.42l-1.14.09c-2.47.22-4.94.51-7.42.63-4.07.19-7.51 1.57-10.09 4.85-.6.76-1.41 1.35-2.12 2.02a2.48 2.48 0 0 1-.26-.19c.1-.25.14-.57.32-.74 1.71-1.64 3.31-3.44 5.19-4.84 2.28-1.7 5.1-2.02 7.87-2.2 2.31-.14 4.63-.12 6.95-.18.26 0 .53-.07.86-.12 1.41-8.04 6.72-12.78 13.66-16.18-.03-.22-.04-.43-.1-.64-.54-1.95-.63-2.9 2.06-4.35 2.14-1.15 4.25-2.35 6.32-3.61 1.32-.8 2.54-1.76 3.8-2.65.41-.29.8-.6 1.22-.85 1.09-.64 1.56-.44 1.92.78.81 2.81 1.56 5.63 2.44 8.42 1.69 5.37 3.37 10.74 5.73 15.87.55 1.2.33 1.81-.89 2.61-2.03 1.33-4.08 2.63-6.11 3.96-1.06.7-2.08 1.46-3.13 2.17-.92.61-1.88 1.02-2.95.16Zm-16.14-2.85c-.74 2.46-2.55 3.61-4.11 5.07a8.53 8.53 0 0 0 6.82 2.54 19.12 19.12 0 0 0 9.98-3.6c1-.74 1.86-1.67 2.67-2.4l-9.25-19.44c-7.32 2.11-14.07 11.83-12.52 18.39l1.7-1.6c.85-.78 1.63-1.67 2.58-2.31 1.22-.82 2.59-1.28 4.07-.65-1.57.29-3.19.45-4.38 1.65-1.31 1.32-2.56 2.71-3.89 4.13.28.83.59 1.75 1.6 2.47l4.71-4.23Zm21.56-3.77.29.06c.29-1.32.84-2.64.82-3.96a13 13 0 0 0-9.37-12.27 5.36 5.36 0 0 0-1.79-.11c-.21.01-.4.34-.7.6.34.11.49.19.64.2 2.02.08 3.74.82 5.14 2.3.45.48 1.02.85 1.48 1.32 3.13 3.12 4.59 6.78 3.57 11.23-.05.2-.06.41-.09.62ZM231.35 286.64c-.31 1.55-.5 2.97-.89 4.34-.23.82-.68 1.82-1.74 1.69-.99-.12-1.07-1.16-1.22-1.95a16.7 16.7 0 0 1 .32-7.34c.17-.67.49-1.26 1.28-1.32.81-.05 1.21.53 1.41 1.17.35 1.14.58 2.31.85 3.41Zm-2.18-3.36c-1.02.88-.89 1.98-.97 2.97-.14 1.76-.42 3.56.51 5.31 1.67-1.82 1.91-5.91.46-8.27ZM288.42 344.14c-.48-.39-1.12-.68-1.41-1.18-.39-.67.06-1.3.65-1.67a6.61 6.61 0 0 1 4.25-1.01c.57.05 1.2.28 1.17.93-.02.47-.29 1.17-.66 1.35-1.22.61-2.53 1.02-4 1.58Zm2.96-2.27c-1.2-.2-2.04-.16-2.95.59 1.19.47 1.92-.05 2.95-.59Z" class="cls-3"/>
    <path d="m345.91 163.01-4.7 4.24c-1.01-.72-1.32-1.64-1.6-2.47 1.33-1.41 2.57-2.8 3.89-4.13 1.19-1.2 2.81-1.37 4.38-1.65-1.49-.63-2.86-.17-4.07.65-.95.64-1.73 1.53-2.58 2.31l-1.7 1.6c-1.55-6.56 5.2-16.28 12.52-18.39l9.25 19.44c-.81.74-1.67 1.67-2.67 2.4a19.12 19.12 0 0 1-9.98 3.6 8.53 8.53 0 0 1-6.82-2.54c1.55-1.46 3.35-2.61 4.1-5.07Zm-2.86-6.9.29.35c1.22-.58 2.32-1.29 2.92-2.65l-3.2 2.3ZM367.48 159.23c.03-.21.04-.42.09-.62 1.02-4.45-.44-8.11-3.57-11.23-.47-.47-1.03-.84-1.48-1.32a7.13 7.13 0 0 0-5.14-2.3c-.15 0-.3-.09-.64-.2.29-.26.48-.58.7-.6a5.36 5.36 0 0 1 1.79.11 13 13 0 0 1 9.37 12.27c.02 1.31-.53 2.64-.82 3.96l-.29-.06ZM229.17 283.28c1.45 2.36 1.21 6.45-.46 8.27-.93-1.74-.65-3.55-.51-5.31.07-.99-.05-2.09.97-2.97ZM291.38 341.87c-1.03.54-1.75 1.06-2.95.59.91-.74 1.74-.79 2.95-.59Z" class="cls-1"/>
    <path d="m343.06 156.11 3.2-2.3c-.59 1.36-1.7 2.07-2.92 2.65l-.29-.35Z" class="cls-3"/>
  </g>
  <g id="primary-color">
    <path d="M274.64 336.46c.05-.51.06-.88.14-1.24.76-3.73 1.53-7.46 2.28-11.2.3-1.51.57-3.03.83-4.55.12-.69.44-1.19 1.06-1.58 7.35-4.6 14.68-9.23 22.01-13.84.22-.14.47-.23.89-.43-.09.6-.12 1.03-.22 1.43-1.3 5.19-2.63 10.38-3.92 15.58a3.2 3.2 0 0 1-1.44 2.1c-6.93 4.43-13.84 8.89-20.76 13.34-.22.15-.49.23-.87.4ZM312.73 311.22c.05-.26.07-.52.14-.77 1.46-5.15 2.94-10.29 4.39-15.44.22-.77.52-1.4 1.23-1.87 4.85-3.27 9.68-6.56 14.52-9.85.22-.15.47-.27.85-.5.12.52.28.91.29 1.31.16 3.97.29 7.94.47 11.9.05 1.01-.5 1.46-1.24 1.94-3.94 2.53-7.89 5.06-11.79 7.66-2.38 1.59-4.68 3.31-7.03 4.96-.48.34-1.02.59-1.54.88a7.4 7.4 0 0 1-.29-.24ZM185.08 349.7l5.59 9.15 10.34-6.45c-.05.77-.04 1.18-.1 1.58-.67 4.03-1.39 8.04-2.02 12.07a3.2 3.2 0 0 1-1.46 2.41c-2.38 1.59-4.69 3.3-7.02 4.97-1.09.78-1.56.79-2.34-.31-1.14-1.62-2.03-3.44-3.3-4.95-1.72-2.06-1.92-4.22-1.5-6.76.64-3.86.98-7.76 1.45-11.64l.35-.07ZM164.5 316.15c.34.44.56.68.73.95 2.79 4.3 5.56 8.62 8.4 12.89.63.95.76 1.81.53 2.92-.87 4.32-1.61 8.67-2.41 13-.08.42-.19.83-.36 1.54l-1.21-1.64c-3.01-4.12-5.14-8.74-7.54-13.2a2.26 2.26 0 0 1-.26-1.24c.57-4.59 1.19-9.18 1.8-13.77.06-.41.18-.82.32-1.44ZM142.37 284.56c.37.46.67.77.91 1.13l9.26 13.74c.41.61.73 1.19.61 1.99-.6 4.15-1.15 8.31-1.73 12.47-.03.21-.12.41-.25.83-.35-.46-.62-.76-.83-1.1-3.02-4.95-6.02-9.91-9.07-14.84a4 4 0 0 1-.66-2.81c.51-3.5.96-7 1.45-10.5.03-.26.16-.5.31-.91ZM187.77 190.09c-.16.49-.23.75-.33.99l-3.86 9.32c-.28.68-.58 1.26-1.34 1.56-5.18 2.03-10.35 4.1-15.52 6.14-.1.04-.22.02-.49.04.08-.38.09-.74.22-1.04l4.17-9.54c.28-.64.64-1.09 1.33-1.36 4.98-1.95 9.94-3.93 14.91-5.9.2-.08.42-.1.91-.21ZM198.86 194.7c1.6-3.63 3.04-6.97 4.54-10.28.19-.41.59-.85 1-1.02 5.2-2.13 10.41-4.22 15.83-6.41-.06.53-.04.88-.14 1.2-.73 2.43-1.49 4.85-2.2 7.28-.22.74-.56 1.24-1.3 1.56-5.6 2.46-11.19 4.97-16.78 7.45-.19.08-.4.09-.94.2ZM415.49 223.59c-.28.87-.43 1.39-.62 1.89-1.18 3.21-2.38 6.4-3.53 9.62a3.17 3.17 0 0 1-1.51 1.87c-.77.42-1.52.89-2.29 1.32l-8.54 4.7-2.17 1.19c.3-.86.43-1.31.61-1.74 1.43-3.46 2.89-6.9 4.29-10.38a3.3 3.3 0 0 1 1.52-1.84c3.68-2.01 7.33-4.05 10.99-6.07.28-.16.59-.26 1.24-.55ZM123.81 258.85l4.04 5.48c1.54 2.09 3.1 4.17 4.58 6.29.35.5.66 1.21.62 1.79-.26 3.63-.63 7.26-.97 10.88-.01.14-.12.26-.2.45-.17-.13-.33-.2-.41-.33-2.95-4.13-5.87-8.29-8.84-12.41a3.26 3.26 0 0 1-.61-2.77c.55-2.7.96-5.43 1.44-8.15.05-.32.17-.62.35-1.24ZM391.4 236.79c-.17.72-.28 1.24-.43 1.75-.9 3.12-1.85 6.23-2.7 9.36-.24.88-.71 1.4-1.5 1.8-3.84 1.92-7.65 3.89-11.48 5.83-.12.06-.29.04-.62.07.27-.98.48-1.88.77-2.75.87-2.61 1.78-5.21 2.67-7.82.26-.75.65-1.35 1.39-1.76 3.67-2.02 7.31-4.08 10.96-6.12.23-.12.49-.19.95-.36ZM154.34 203.74c-.21.5-.33.85-.49 1.17-1.43 2.92-2.89 5.83-4.3 8.75-.33.67-.7 1.2-1.45 1.46-4.31 1.51-8.62 3.05-12.93 4.57-.13.05-.3-.01-.59-.03.2-.52.35-.97.54-1.4 1.03-2.26 2.08-4.5 3.1-6.76.3-.68.67-1.2 1.4-1.51 4.65-2 9.29-4.05 13.94-6.07.18-.08.39-.09.78-.18ZM417.82 231.45c.23-.71.41-1.33.62-1.94l2.89-8.29c.24-.7.58-1.27 1.28-1.64 3.89-2.08 7.77-4.19 11.66-6.28.09-.05.21-.03.46-.07-.07.38-.09.74-.2 1.06-1 2.92-2.03 5.84-3 8.77a2.88 2.88 0 0 1-1.39 1.74c-3.91 2.16-7.8 4.37-11.7 6.55-.12.07-.3.05-.61.09ZM390.68 133.23c.43.51.66.74.85 1 2.51 3.43 5 6.88 7.54 10.29.56.75.66 1.38.27 2.25-1.09 2.47-2.09 4.97-3.34 7.98-.29-.55-.4-.85-.58-1.11-2.3-3.25-4.57-6.51-6.92-9.71a2.79 2.79 0 0 1-.4-2.89c.9-2.49 1.67-5.02 2.58-7.8ZM232.91 179.29c.83-2.73 1.58-5.27 2.4-7.77.13-.41.54-.87.93-1.05 5.21-2.25 10.43-4.46 15.66-6.67.05-.02.11 0 .29.02-.05.36-.06.71-.16 1.05-.54 1.85-1.12 3.69-1.65 5.55-.18.62-.46 1.07-1.07 1.36-5.24 2.46-10.46 4.95-15.69 7.42-.14.06-.31.04-.71.09ZM113.21 258.34c-.15-.29-.26-.6-.46-.85-2.54-3.41-5.06-6.82-7.65-10.19-.61-.79-.75-1.48-.43-2.42.85-2.55 1.61-5.14 2.48-7.95.5.5.85.8 1.14 1.15 2.33 2.8 4.63 5.62 6.98 8.4.44.52.56 1.02.42 1.66-.7 3.29-1.37 6.58-2.06 9.88l-.43.33ZM369.85 117.42l-2.54-3.9c-3.6 1.82-6.94 4.14-10.64 6.25.07-.56.07-.88.15-1.19.65-2.57 1.33-5.13 1.96-7.71.17-.69.53-1.17 1.12-1.55 1.99-1.3 3.93-2.66 5.92-3.96 1.71-1.12 2.18-.86 3.66.52 2.02 1.89 2.47 3.93 1.65 6.51-.5 1.56-.63 3.24-.94 4.87 0 .03-.09.05-.35.17ZM353.38 266.34c.1-.47.18-.94.32-1.4.86-2.79 1.71-5.58 2.63-8.35.16-.48.49-1.05.9-1.27 3.72-2.02 7.49-3.97 11.45-6.05-.08.52-.09.87-.19 1.18-1.02 3.09-2.02 6.18-3.1 9.24-.19.53-.54 1.16-.99 1.41-3.54 1.88-7.13 3.66-10.7 5.48l-.31-.25ZM411.15 175.86c-.59-.81-.98-1.33-1.36-1.87-1.93-2.75-3.83-5.53-5.82-8.25a2.5 2.5 0 0 1-.37-2.59c.93-2.64 1.77-5.31 2.65-7.97l.44-.26c.14.29.25.61.43.88 2.13 3.09 4.24 6.18 6.41 9.25.53.74.65 1.4.35 2.3-.82 2.4-1.52 4.84-2.27 7.26l-.45 1.24ZM218.48 338.06c.98.87 1.71 1.45 2.37 2.1 2 1.97 3.96 3.98 5.95 5.96.99.98.99 1.42-.16 2.18-4.01 2.62-8.04 5.22-12.06 7.82-.04.02-.11 0-.29 0 .03-.36.02-.71.09-1.05 1.09-4.84 2.17-9.67 3.28-14.51.17-.73.46-1.43.81-2.5ZM435.71 211.01c-.52-.64-.88-1.04-1.2-1.47-1.5-2.04-2.97-4.11-4.51-6.12-.6-.78-.77-1.46-.35-2.4 1.2-2.72 2.3-5.47 3.5-8.35.32.27.57.4.71.6 1.76 2.47 3.5 4.94 5.25 7.42.32.45.6.88.33 1.51-1.22 2.82-2.4 5.66-3.72 8.81ZM421.04 176.23c.28.33.57.64.83.98 1.69 2.25 3.33 4.55 5.08 6.75.68.86.74 1.56.34 2.55-1.06 2.66-2.01 5.37-3.05 8.2-.29-.26-.56-.42-.72-.66l-5.12-7.53c-.35-.51-.63-.99-.4-1.68.94-2.77 1.83-5.55 2.75-8.33.03-.09.14-.14.29-.28ZM310.13 143.73c.62-2.17 1.15-4.12 1.76-6.04.1-.32.47-.62.79-.78 4.12-2.13 8.25-4.23 12.39-6.33.08-.04.21.01.46.03-.35 1.44-.9 2.85-1 4.29-.16 2.11-1.22 3.16-3.1 3.93-3.42 1.4-6.75 3.02-10.12 4.54-.28.12-.6.19-1.17.36ZM260.31 166.2c.74-2.11 1.47-4.23 2.26-6.32.13-.36.55-.69.92-.85 4.26-1.95 8.53-3.86 12.8-5.78.13-.06.3-.02.68-.04-.51 1.27-1.1 2.39-1.4 3.58-.62 2.46-2.12 3.86-4.47 4.79-3.07 1.21-6 2.79-8.98 4.2-.49.23-.99.44-1.49.66l-.32-.23ZM123.68 216.36c-1.19 2.99-2.21 5.6-3.28 8.19-.13.32-.46.66-.78.79-3.13 1.21-6.27 2.38-9.62 3.65.07-.52.06-.82.15-1.09.73-2.2 1.5-4.38 2.22-6.58.2-.62.51-1.06 1.15-1.29 3.26-1.16 6.51-2.35 10.16-3.67ZM348.44 117.18c-.56 2.5-1.1 5.01-1.71 7.5-.11.43-.43.95-.81 1.16-3.17 1.85-6.38 3.65-9.86 5.62.09-.66.09-1.01.19-1.33.64-2.11 1.28-4.22 1.98-6.31.16-.49.44-1.08.84-1.34 2.97-1.88 5.98-3.69 8.98-5.52l.39.21ZM260.95 342.1l-.73 4.83c-5.21-1.03-9.52-3.41-13.82-6.51l4.52-4.07 10.03 5.76ZM381.8 134.12l-2.51-3.53c-.8-1.12-1.62-2.23-2.37-3.38-.25-.39-.53-.92-.45-1.33.53-2.8 1.15-5.59 1.78-8.6.37.31.64.46.81.68 1.57 1.99 3.12 4 4.7 5.98.43.55.71 1.08.49 1.81-.79 2.64-1.54 5.29-2.44 8.37ZM300.01 142.69c-.65 2.23-1.18 4.13-1.78 6-.1.31-.47.62-.79.76-3.38 1.5-6.78 2.96-10.17 4.42-.08.04-.2-.02-.5-.05.41-1.1.79-2.16 1.2-3.22 1.27-3.31 1.29-3.28 4.53-4.63 1.93-.8 3.83-1.7 5.75-2.55l1.77-.75ZM99.05 226.16l-2.82 10.7c-1.11-.56-5.34-4.51-6.59-6.14.2-.8.85-1.27 1.54-1.57 2.46-1.09 4.95-2.09 7.44-3.11.11-.04.28.08.43.13ZM256.22 332.85l6.63-4.27-1.11 7.46a16.39 16.39 0 0 1-5.52-3.19ZM447.81 213.56l-5.53 3.93c.14-1.36 2.06-5.88 3.17-7.5l2.37 3.57ZM338.13 279.75h1.89l-.82 2.49h-.27l-.8-2.49Z" class="cls-2"/>
  </g>
</svg>