<svg width="63" height="66" viewBox="0 0 63 66" fill="none" xmlns="http://www.w3.org/2000/svg">
<path fill-rule="evenodd" clip-rule="evenodd" d="M36.5093 -13.985C43.187 -13.8522 48.954 -8.86824 54.0899 -4.12763C58.6981 0.125885 61.2945 6.11394 64.4285 11.7853C67.6476 17.6107 71.9829 22.9054 72.7737 29.6833C73.6063 36.8205 72.4671 44.4356 68.9423 50.4751C65.4742 56.4174 59.4847 59.8267 53.5955 62.5435C48.1829 65.0404 42.3544 65.9176 36.5093 65.4372C30.9384 64.9792 26.0968 61.8975 20.8239 59.8496C14.3157 57.3221 5.63966 58.2906 1.77789 51.9485C-2.03294 45.6901 2.35484 37.2372 2.45536 29.6833C2.55413 22.2614 -0.709817 14.3855 2.36547 7.79485C5.45284 1.1783 12.7423 -1.1218 18.5616 -4.83383C24.3688 -8.53817 29.8131 -14.1181 36.5093 -13.985Z" fill="#9BCD41"/>
</svg>
