<svg width="48" height="48" viewBox="0 0 48 48" fill="none" xmlns="http://www.w3.org/2000/svg">
<rect width="48" height="48" rx="24" fill="#343A40" fill-opacity="0.05"/>
<path d="M32.2064 24.9077L32.2066 24.9078C32.2987 24.9456 32.3774 25.0101 32.4327 25.0929C32.4879 25.1758 32.5171 25.2732 32.5166 25.3728V25.3753V32.4453C32.5166 32.5779 32.464 32.7051 32.3702 32.7988C32.2764 32.8926 32.1492 32.9453 32.0166 32.9453L24.9466 32.9453L24.9437 32.9453C24.8444 32.9459 24.7472 32.9169 24.6644 32.862C24.5817 32.8071 24.5171 32.7288 24.479 32.637C24.441 32.5453 24.431 32.4443 24.4506 32.347C24.4701 32.2496 24.5182 32.1602 24.5887 32.0903L24.5902 32.0888L26.8861 29.7929C26.9565 29.725 27.0127 29.644 27.0515 29.5543C27.0917 29.4615 27.1124 29.3614 27.1124 29.2603C27.1124 29.1592 27.0917 29.0591 27.0515 28.9663C27.0126 28.8765 26.9563 28.7953 26.8858 28.7274L15.3702 17.2417C15.3701 17.2417 15.37 17.2416 15.37 17.2415C15.2753 17.1468 15.2003 17.0344 15.149 16.9107C15.0977 16.7869 15.0714 16.6543 15.0714 16.5203C15.0714 16.3863 15.0977 16.2536 15.149 16.1298C15.2003 16.006 15.2754 15.8936 15.3702 15.7988C15.4649 15.7041 15.5774 15.6289 15.7012 15.5777C15.825 15.5264 15.9576 15.5 16.0916 15.5C16.2256 15.5 16.3583 15.5264 16.4821 15.5777C16.6058 15.6289 16.7183 15.7041 16.813 15.7988C16.813 15.7988 16.8131 15.7988 16.8131 15.7988L28.3088 27.3146C28.3767 27.385 28.4579 27.4413 28.5476 27.4801C28.6405 27.5203 28.7405 27.541 28.8416 27.541C28.9428 27.541 29.0428 27.5203 29.1356 27.4801C29.2255 27.4412 29.3068 27.3848 29.3747 27.3143L31.661 25.0181L31.6614 25.0177C31.7311 24.9474 31.8201 24.8995 31.9172 24.8799C32.0142 24.8603 32.1148 24.87 32.2064 24.9077Z" fill="#30D158" stroke="#30D158"/>
</svg>
