<svg xmlns="http://www.w3.org/2000/svg" fill="none" viewBox="0 0 362 287"><g id="desktop_astuces-section_bottom-right-angle" clip-path="url(#clip0_3180_142125)"><g id="shape"><mask id="mask0_3180_142125" width="2006" height="484" x="-109" y="106" maskUnits="userSpaceOnUse" style="mask-type:alpha"><path id="mask" fill="#BBDBFD" fill-rule="evenodd" d="M395.19 535.9a61.16 61.16 0 1 0 0-122.32H157.1c-84.9 0-153.73-68.83-153.73-153.73 0-84.9 68.83-153.72 153.73-153.72h1712.95a26.74 26.74 0 0 1 0 53.5H157.11c-55.36 0-100.23 44.87-100.23 100.22 0 55.36 44.87 100.23 100.23 100.23h238.07c63.33 0 114.66 51.33 114.66 114.66s-51.33 114.65-114.65 114.65H-81.58a26.75 26.75 0 0 1 0-53.5h476.76Z" clip-rule="evenodd"/></mask><g mask="url(#mask0_3180_142125)"><g id="shapes"><path id="secondary-color" fill="#FFC229" fill-rule="evenodd" d="M395.19 525.2a50.46 50.46 0 0 0 0-100.92H157.1c-90.81 0-164.43-73.62-164.43-164.43 0-90.8 73.62-164.42 164.43-164.42h1712.95a37.44 37.44 0 0 1 0 74.9H157.11a89.53 89.53 0 1 0 0 179.05h238.07c69.24 0 125.36 56.12 125.36 125.36 0 69.23-56.12 125.35-125.36 125.35H-81.58a37.45 37.45 0 1 1 0-74.9h476.76Z" clip-rule="evenodd"/><g id="BlobCorner" clip-path="url(#clip1_3180_142125)" opacity=".06"><path id="Vector" fill="#343A40" fill-rule="evenodd" d="M117.16 146.18c-5.72-39.97 22.4-77.87 33.15-117.96 10.45-38.98 7.11-80 29.37-115.18 24.68-39.01 56.72-81.08 103.1-94.23 46.31-13.14 91.28 12.58 135.34 26.6 37.86 12.05 72.33 28.04 104.26 49.65 33.84 22.9 69.23 45.35 87.7 80.3 19.74 37.34 27.85 80.63 19.8 123.05-8.23 43.33-31.9 84.52-65.42 117.28-32.86 32.12-75.67 55.57-121.47 65.42-43.15 9.27-84.18-7.46-127.25-11.97-45.25-4.73-96.22 7.58-133.18-15.3-37.62-23.3-59.36-65.4-65.4-107.66Z" clip-rule="evenodd"/></g><g id="BlobCorner_2" clip-path="url(#clip2_3180_142125)" opacity=".06"><path id="Vector_2" fill="#343A40" fill-rule="evenodd" d="M246.8 446.83c-25.32 14.88-58.4 9.49-88.56 3.55-27.06-5.32-50.57-21.78-75.37-35.81-25.48-14.41-53.9-24.27-72.48-47.84-19.55-24.82-32.82-55.98-33.52-86.72-.68-30.25 13.9-56.81 29.71-80.55 14.53-21.81 34.35-38.52 57.35-50.18 21.93-11.11 47.16-10.71 71.63-15.18 30.2-5.52 60.48-29.12 89.55-14.25 28.69 14.67 31.71 56.44 48.73 84.97 16.72 28.04 47.08 50.03 50.73 81.8 3.67 31.9-18.34 57.3-31.6 84.6-13.22 27.25-20.77 60.7-46.17 75.61Z" clip-rule="evenodd"/></g></g></g></g><g id="peep-60"><g id="BODY" fill-rule="evenodd" clip-rule="evenodd"><path id="🎨 Background" fill="#fff" d="M268.76 110.75c-13.85-.99-32.85 1.75-36.86 17.52-1.24 5.73-3.69 8.25-7.8 12-26.12 33.35 65 38.96 69.68 6.44 9.87 3.58 20.6 4.34 30.48 7.97 5.36 1.97 10.21 5.09 14.86 8.34 18.98 13.45 37.68 27.28 56.59 40.82-7.32 3.36-21.23 16.2-15.56 24.82 1.32 1.68 3.28 2.84 5.02 4.07l.91.65c1.97 1.4 5.28 3.8 7.1 5.1l.35.25.41.3a314.95 314.95 0 0 1-45.8 52.9c-1.45 1.36-.85 4.38 1.26 4.74l2.51.36c8.13 1.19 16.41 2.25 24.6 1.6 7.97-.86 12.78-7.9 18.23-13A333.66 333.66 0 0 0 425 250.16l.2-.27c2.87-3.91 6.68-7.92 6.96-12.98.5-1.52-.83-3.7-2.12-4.73l-.44-.64c-6.9-9.9-14.71-19.45-24.5-26.63a3.46 3.46 0 0 0-1.44-2.9l-40.9-29.54c-10.56-7.24-20.37-15.76-31.8-21.61-11.7-5.62-24.9-5.84-36.9-10.53-.25-3.38-7.37-4.25-7.15-3.72-7.51-4.53-11.38-9.92-12.57-14.87-1.2-4.94.29-9.46-5.57-11ZM167.61 216.8c-12.65-19-24.7 2.02-29.97 14.68-6.22 17.33 6.66 38.65 14.98 53.59 3.07 4.15 7.1 12.9 12.5 13.53 13.62-.05 27.25-1 40.87-1.3 8.8-2.17-3.54-15.36-12.07-10.54-2.58.96-3.87 3.89-6.39 4.83-.92.2-.98-.22-1.35-1.13l-.06-.13-1.96-4.74c-5.55-13.63-11.41-27.14-17.24-40.64-1.25-2.93.5-5.35 2.77-7.09 1.74-1.43 9.21-4.91 2.17-3.38 2.71-6.28-.55-12.65-4.25-17.68Zm31.4-26c-1.22-.15-2.78 1.08-2.97 2.26-1.55 9.84.18 19.56 2.25 29.18l.38 1.76c.77 3.5 1.63 7.08 3.53 10.16a17.9 17.9 0 0 0 8.28 6.94c10.85 4.32 24.35.05 32.33-8.02 5.1-6.98.62-15.75-.24-23.4.81-2.06 1.11-4.44 1.58-6.57l.06-.25 1.82-7.93c.4-1.75-.88-4.14-2.98-3.9a185.4 185.4 0 0 1-44.04-.23Z"/><path id="🖍 Ink" fill="#030F40" d="M147.9 214.31c.04-.2-.19-.34-.34-.2-2.58 2.48-4.4 5.65-6.39 8.58-1.9 2.8-3.97 5.48-5.39 8.56a26.06 26.06 0 0 0-2.42 8.92c-.25 3.12.08 6.26.63 9.33 1.09 6.07 3.41 11.81 5.96 17.4a200.36 200.36 0 0 0 8.25 15.86l1.06 1.84c1.3 2.25 2.6 4.5 4 6.67 1.74 2.71 3.33 5.51 5.63 7.77 1.63 1.62 4.7 0 3.97-2.3-.33-1-.58-1.94-1.08-2.87-.38-.71-.81-1.4-1.21-2.1l-2.41-4.19c-1.7-2.94-3.48-5.82-5.15-8.76-2.9-5.1-5.65-10.31-8.08-15.66l-.29-.64c-2.23-4.95-4.35-10.09-5.33-15.45-1.03-5.65-.1-10.98 1.9-16.29a144.5 144.5 0 0 1 3.43-8.1l.24-.52c1.17-2.55 2.42-5.09 3.02-7.85Zm125.02-97.73c-.02-.1-.2-.1-.2 0-.73 4.8.88 9.87 3.5 13.86a23.09 23.09 0 0 0 5.27 5.73l.16.13c2.13 1.58 5 3.11 7.63 2.08l.24-.1c-.3.45-.57.93-.85 1.42-.83 1.43-1.58 2.92-2.38 4.37a27.9 27.9 0 0 1-5.35 6.93c-8.7 8.1-20.93 10.03-32.4 9.94h-.82c-5.04-.04-11.63.21-15.53-3.43-2.09-1.95-3.24-4.73-4.28-7.34-1.02-2.56-1.72-5.2-2.57-7.8a19.7 19.7 0 0 0 4.68-4.43 17.93 17.93 0 0 0 2.92-6l.08-.33c.45-1.72.9-4 .18-5.64-.08-.19-.4-.18-.48 0-.39.78-.46 1.66-.7 2.5a20.73 20.73 0 0 1-4.15 7.82 20.57 20.57 0 0 1-3.5 3.3c-.76-1.32-2.54-1.5-4.03-1.06-2 .58-3.97 1.33-5.9 2.12l-.38.15c-1.9.8-4.05 1.52-5.83 2.6-1.08.5-2.12 1.02-3.1 1.48a411.3 411.3 0 0 0-14.42 7.17l-1.02.53c-2 1.03-3.98 2.08-5.72 3.53-1.77 1.48-3.14 3.5-4.44 5.38-2.95 4.32-5.73 8.76-8.65 13.1-5.89 8.76-11.78 17.52-17.7 26.26-1.44 2.12-3.06 4.18-4.34 6.39-1.23 2.1-1.2 4.27-.96 6.62l.04.43c.46 4.32 1.26 8.46 3.68 12.16 3.82 5.82 9.84 9.44 16.2 11.94-.77.57-1.5 1.2-2.43 1.6-1.43.6-2.95.92-4.49 1.04-1.65.13-3.5-.28-4.83.84-.54.45-.55 1.52 0 1.96 1.28 1.05 2.93.75 4.5.57h.09c1.45-.17 2.88-.43 4.24-.97.33-.13.67-.27.99-.44a30.29 30.29 0 0 0 1.26 5.25l.33 1.08c.7 2.2 1.38 4.38 2.1 6.57 1.35 4.17 2.83 8.3 4.31 12.43l1.28 3.56c1.32 3.65 2.65 7.3 4.12 10.88.9 2.22 1.82 4.43 2.73 6.65.9 2.16 1.63 4.5 2.74 6.55.9 1.7 3.39.48 2.99-1.26-.52-2.28-1.5-4.55-2.26-6.77-.76-2.26-1.51-4.52-2.29-6.77a315.45 315.45 0 0 0-4.35-11.63l-1.5-3.82a379.84 379.84 0 0 0-4.52-11.19l-.17-.4c-1.64-3.87-3.34-8.22-6.33-11.22a.23.23 0 0 0-.14-.06c.73-.4 1.42-.88 2.02-1.45l.03-.03a11.5 11.5 0 0 0 1.54-2.24l1.24.43c.72.24 1.32.06 1.74-.32l.8.5a5.81 5.81 0 0 0 2.73 1.04c1.2.03 2.13-.63 2.77-1.6.57-.86.91-1.8 1.64-2.57.7-.77 1.53-1.4 2.38-2.02l1-.73a27.29 27.29 0 0 0 5.05-4.42c.74-.89 1.73-1.94 2.18-3 .09-.2.14-.4.15-.6l.3 2a255.7 255.7 0 0 1 2.92 28.24c.17 4.67.25 9.34.04 14a123.67 123.67 0 0 1-.88 10.48l-.04.27c-.04.35-.06.7-.03 1.02-1.14.56-1.8 1.97-2.25 3.08-.34.84-.07 1.65.48 2.24a9.73 9.73 0 0 0-1.75 2.13c-.1.17.11.3.24.2.82-.65 1.7-1.19 2.62-1.6.48.19 1 .24 1.5.1.52-.14.97-.5 1.3-.94a10.37 10.37 0 0 1 9.03 2.87l.22.25-.51.2-.46.16c-.44.09-.9.14-1.35.18l-.68.05c-2.62.22-5.23.29-7.66 1.38-.51.23-.33 1.02.15 1.15 1.78.48 3.54.44 5.35.31l.39-.03c1.68-.12 3.48-.12 5.12-.58-.4 1.07.14 2.47 1.78 2.69 4.93.66 9.88.35 14.81-.09 4.98-.43 9.96-.85 14.95-1.11 16.14-.85 32.32-.69 48.48-.46l9.13.14c7.28.1 14.56.18 21.85.12l3.4-.03c1.45-.01 2.89-.03 4.33-.07l.86-.03c1.71-.06 3.98.2 5.47-.82a2.62 2.62 0 0 0 .77-3.6 5.76 5.76 0 0 0-.82-.98c-.63-5.37-.98-10.77-1.34-16.16a256.06 256.06 0 0 1 2.37-56.36 226.44 226.44 0 0 1 22.87 8.53 347.5 347.5 0 0 1 12 5.39c3.62 1.7 7.25 3.85 11.12 4.96.35.31.84.46 1.28.32l.05-.02c.4.1.85.04 1.28-.22l.26-.16.13-.08a13.7 13.7 0 0 0 3.7-3.2c1.17 1.08 2.42 2.07 3.66 3.08 1.34 1.09 2.68 2.19 4 3.3.54.44 1.12.86 1.58 1.36l.07.08a1 1 0 0 1 .03.03c-2.01 1.3-3.77 3.27-5.35 4.99a176.6 176.6 0 0 0-4.95 5.64l-1.57 1.85c-11.1 13.08-22.33 26.64-36.7 36.26-2.28 1.52-.11 5.22 2.15 3.67 4.27-2.94 8.3-6.2 12.19-9.63 6.8-6 12.92-12.74 18.65-19.76 2.9-3.56 5.71-7.2 8.47-10.86l.94-1.24a160.9 160.9 0 0 0 3.67-5.02l.25-.36a24.74 24.74 0 0 0 2.83-4.91c.25.26.55.48.97.64.73.29 1.62-.31 1.8-1.02.43-1.72-1.06-2.74-2.28-3.65a204.6 204.6 0 0 0-4.5-3.23l-.54-.38c-1.89-1.34-3.79-2.7-5.85-3.76a1.2 1.2 0 0 0-.22-.23l-.29-.23a98.23 98.23 0 0 1 15.37-19.18l1.14-1.1a60.98 60.98 0 0 1 5.44-4.8l.6.68c.8.9 1.6 1.8 2.46 2.65 1.69 1.67 3.35 3.37 5 5.07 2.74 2.84 5.4 5.76 8.04 8.68l1.32 1.46c2.75 3.05 5.7 6.04 8.2 9.3l.13.16c1.1 1.47 1.87 3.08 1.36 4.94-.49 1.8-1.65 3.38-2.66 4.93l-.1.15a232.67 232.67 0 0 1-13.19 18.52c-9.42 11.9-20.16 23.17-32.98 31.44-1.77 1.14-.11 4 1.67 2.83a131.24 131.24 0 0 0 20.69-17.04 174.86 174.86 0 0 0 16-18.68c2.4-3.18 4.7-6.44 6.91-9.76 2.14-3.23 4.62-6.55 6.17-10.11a8.08 8.08 0 0 0 .45-5.88c-.61-1.81-1.82-3.32-3.08-4.74l-.11-.13a550.81 550.81 0 0 0-8.8-9.6 201.7 201.7 0 0 0-9.27-9.23 67 67 0 0 0-7.89-6.32l.76-.5c.78-.51.97-1.6.3-2.28-1.87-1.87-4.02-3.5-6.03-5.21l-5.7-4.82-11.59-9.81c-6.94-5.87-13.84-11.79-20.75-17.68-2.89-2.46-5.8-4.9-8.7-7.33l-5.16-4.33-2.52-2.11a27.37 27.37 0 0 0-4.08-2.97c-3.46-1.94-7.62-2.78-11.43-3.8l-.25-.07a303.94 303.94 0 0 0-25.92-5.92 75.46 75.46 0 0 0-11.93-1.45c-1-.37-2.24-.5-3.21-.1-.4.16-.83.4-1.2.72-1.96-.69-3.89-1.01-5.71-2.17a20.21 20.21 0 0 1-4.8-4.36c-2.8-3.46-4.27-7.56-5.26-11.84ZM228 234.02c1.55-.11 2.94.53 4.33 1.2-.78.35-1.56.68-2.34 1.01l-5.2 2.21c-1.7.73-3.52 1.37-5.15 2.27a.9.9 0 0 0-.28.23c-1.7-1.08-3.49-2.05-5.2-3.08l-1.19-.7c2.05.68 4.14 1.02 6.36.38 2.97-.85 5.54-3.3 8.67-3.52Zm-4.25-5.19.28-.19c1.5-1.02 3.3-2.35 5.12-1.42.86.43 1.57 1.14 2.41 1.6.86.48 1.8.84 2.74 1.06 1.58.37 3.39.42 5.09.07l-.03 2.29-3.84 1.61c-.82-.28-1.62-.62-2.46-1l-.56-.24a9.18 9.18 0 0 0-5.03-.98c-3.36.43-5.9 2.92-9.11 3.75-3.94 1.02-7.5-1.91-11.21-2.64a10.7 10.7 0 0 0-1.88-.2h-.2l-.1-.06c-.8-.46-2-.91-2.56-1.7-.6-.86-.66-2.29-.85-3.3l-.06-.3c.35 0 .7.02 1.06.09 1.14.2 2.21.6 3.27 1.06 2 .84 3.96 1.81 6.06 2.37 2.07.56 4.22.82 6.35.51 2.07-.3 3.8-1.23 5.51-2.38Zm-.32-8.04.31-.2c.82-.52 1.76-1.07 2.77-.87.9.17 1.67.88 2.45 1.32a13.72 13.72 0 0 0 10.51 1.06l-.05 5.07a8.53 8.53 0 0 1-7.16-1l-.81-.54c-1.39-.9-2.69-1.63-4.52-1.3-1.8.33-3.33 1.5-4.81 2.5l-.25.16a9.88 9.88 0 0 1-5.51 1.87c-2.26.01-4.48-.61-6.58-1.38-2.09-.76-4.07-1.68-6.3-1.96a8.1 8.1 0 0 0-2.3.02 103.08 103.08 0 0 1-.81-5.42c3.95-1.06 7.6 2.37 11.28 3.43 2.13.62 4.45.61 6.58.02 1.97-.55 3.52-1.7 5.2-2.78Zm-.01-8.53c.84-.16 1.68.22 2.4.62 1.83 1.02 3.4 2.43 5.48 2.96 2.67.68 5.59.1 8.24-1.03l-.04 4.7a11.3 11.3 0 0 1-7.18.3c-1.86-.55-3.29-2.02-5.15-2.48-1.91-.47-3.71.44-5.25 1.48l-.46.32c-1.76 1.19-3.47 2.23-5.67 2.43-2.33.21-4.35-.52-6.43-1.48l-.48-.22c-2.63-1.2-6.05-2.58-8.68-1.2-.2-1.96-.35-3.9-.45-5.86.36-.13.73-.23 1.16-.23 1.04 0 2.12.32 3.08.66 2.1.74 4.05 1.84 6.13 2.63 1.97.75 4.15 1.14 6.25.8 1.95-.3 3.41-1.32 4.76-2.71l.2-.2c.58-.63 1.22-1.32 2.09-1.5Zm-1.54-7.23c.97-.52 2.16-1 3.28-.84 1.08.14 1.8.86 2.45 1.64l.36.43c1.19 1.4 2.35 2.57 4.17 3.14 1.9.6 3.9.36 5.66-.5.62-.31 1.2-.7 1.79-1.08l-.03 4.11a17.8 17.8 0 0 1-3.66 1.42 7.87 7.87 0 0 1-6.51-1.17l-.22-.14c-1.55-1.02-3.14-2.23-5.05-2.34-1.87-.1-3.27.92-4.5 2.19l-.15.15c-1.55 1.63-3.12 2.43-5.43 2.24-2.24-.18-4.33-1.17-6.38-2.02l-.19-.07c-1.87-.77-4.03-1.56-6.09-1.27-.5.07-1.13.22-1.7.49-.08-1.93-.12-3.85-.13-5.78 1.17-1 3-1.18 4.46-.76 2.29.65 4.17 2.32 6.36 3.23 1.94.8 3.96.99 5.94.23 2.05-.8 3.65-2.3 5.57-3.3Zm-22.2-8.1c3.43.12 6.78 2.34 10.05 3.19 3.66.95 6.64-.34 9.9-1.78l.41-.18c1.68-.73 3.47-1.39 5.32-1.1 1.8.3 3.4 1.3 4.95 2.2l.3.17c2.83 1.6 5.7 2.7 9 2.43v3.08c-.55.3-1.07.66-1.56.98l-.18.11c-1.58.98-3.2 1.63-5.07 1.02-1.82-.59-2.67-2.16-3.91-3.46a5.62 5.62 0 0 0-4.31-1.84c-1.8.07-3.5.86-5 1.83-1.48.96-2.92 2.21-4.66 2.7-3.9 1.08-7.25-3.04-10.94-3.68a5.7 5.7 0 0 0-4.43 1c.01-2.22.06-4.44.13-6.67Zm29.5-.93 1.44.06c1.8.07 3.58.16 5.36.26 1.24.07 2.76.45 3.98.07a2 2 0 0 0 .12.36c-.18.91-.3 1.85-.36 2.8-1.13.13-2.26.09-3.37-.14-2.65-.55-4.8-2.22-7.18-3.41Zm-29.45-.77c6.53.45 13.1.3 19.64.44l.78.02h.1c-.75.29-1.5.62-2.24.96l-.74.34c-1.75.8-3.53 1.46-5.5 1.32-2.1-.16-4.07-1.01-6.03-1.7a13.05 13.05 0 0 0-6.03-.82l.02-.56Z"/></g><g id="HEAD" fill-rule="evenodd" clip-rule="evenodd"><path id="🎨 Background_2" fill="#fff" d="M298.76 26.42a9.11 9.11 0 0 0-4.92-2.84c1.71.85 3.38 1.74 4.92 2.84Zm2.63 12.37c.23-1.1.4-2.2.44-3.3-.3.45-.77.76-1.31.91a17 17 0 0 1 .87 2.39Zm-89.61 17.13c1.54-6.42 8.75-18.77 10.46-21.15 1.85-5.88-8.24-10.6-2.75-15.2 2.48-2.08 5.77-2.81 8.85-3.55 21.34-5.11 44.26-2.53 64.05 6.87 3-.63 6.15.6 8.33 2.77 10.29 10.31-3.73 28.92-6.8 40.55-5.25 12.96 5.58 15.14 4.42 26.11-.9 5.67-6.65 7.17-11.5 8.03-.79.18-1.83.2-2.08 1.03a21.38 21.38 0 0 1-7.1 12.45c.31.93.07 2.07-1.04 2.9a55.07 55.07 0 0 1-35.48 10.57c-15.04-.8-22.81-9.4-24.69-11.62-10.37-13.97-9.13-32.41-7.02-49.07 1.48-11.6-.4.68 2.35-10.69Z"/><path id="🖍 Ink_2" fill="#030F40" d="M258.13 2.5A3.07 3.07 0 0 0 254.8.32c-1.35.16-2.8 1.5-2.64 2.98.03.29.07.56.12.81h-.01l.03.1c.1.47.24.9.45 1.3l.77 2.3a4.9 4.9 0 0 0-1.11.07l-1.16-2.97c-.42-1.05-.71-2.41-1.53-3.23a3.57 3.57 0 0 0-4.16-.52c-1.35.79-1.83 2.2-1.54 3.7.15.76.66 1.3 1.3 1.63l.07.03.48 1.16a4.08 4.08 0 0 0-1.24-.32 55.59 55.59 0 0 0-2.26-3.69c-.91-1.38-2.7-1.97-4.19-1.1-1.34.79-2.05 2.84-1.1 4.19a81.33 81.33 0 0 1 2.1 3.12c-.12.02-.23.04-.34.08-.05-.07-.1-.14-.17-.21-.74-.92-1.6-1.6-2.48-2.37-.83-.72-1.22-1.84-2.3-2.39-1.38-.68-3.03-.35-3.85 1-1.75 2.92 1.2 5.05 3.07 6.82a46.18 46.18 0 0 0-8.07-4.02 3.6 3.6 0 0 0-3.95.66 2.14 2.14 0 0 0-.57 2.15 3.64 3.64 0 0 0 2.63 2.45c.95.27 1.93.44 2.89.72 1.6.46 3.15 1.02 4.66 1.72-.1.06-.21.14-.3.22a42.6 42.6 0 0 0-9.24-1.89l-.65-.06c-2.34-.22-5.15-.63-6.59 1.6-.47.74-.52 1.96 0 2.68 1 1.4 2 1.68 3.66 1.71a103.72 103.72 0 0 0-8.23 1.21l-.56.11c-1.36.27-2.87.43-4.03 1.21-2.54 1.71-1.35 5.05 1.46 5.4 1.36.17 2.88-.4 4.21-.67a87.03 87.03 0 0 1 5.94-.98c-1.38.2-2.76.48-4.1.88l-.36.11c-2.58.79-6.07 2.04-6.87 4.79-.49 1.67.85 3.13 2.46 3.23 1.5.09 2.76-.8 4.03-1.47.93-.48 1.88-.83 2.88-1.14 1.03-.32 2.1-.58 3.15-.8-.9.5-1.77 1.04-2.61 1.65l-.39.29c-2.23 1.66-5.64 4.23-4.85 7.34.25.98 1.34 1.92 2.4 1.82 2.74-.25 4.25-3.17 6.32-4.73.54-.4 1.13-.8 1.75-1.2a49.78 49.78 0 0 0-7.52 12.5c-4.18 9.8-5.45 18.88-5.49 29.41v.33c0 5.81.13 11.73.7 17.52.53 5.34 1.5 10.62 3.92 15.46 4.07 8.12 12 14.45 20.76 16.85a33.02 33.02 0 0 0 28.6-5.6c2.03-1.58-.67-5-2.74-3.54-8.3 5.8-19.04 7.65-28.57 3.71a29.35 29.35 0 0 1-16.23-17.54c-1.64-4.91-2.12-10.15-2.7-15.27l-.04-.34a138.3 138.3 0 0 1-.97-16.14c0-10 1.44-18.25 5.86-27.33a48.14 48.14 0 0 1 7.98-11.7c.98.2 2.02-.08 3-.19l1.52-.15c-.52.33-1.02.68-1.52 1.03l-.65.47c-2.03 1.45-4.62 3.11-4.1 5.92.15.76.9 1.46 1.64 1.63 2.67.64 4.5-1.95 6.3-3.49a73.25 73.25 0 0 1 6.03-4.53l-1.06 1.28-.5.64c-1.54 1.91-3.75 4.4-2.38 6.89.39.7 1.21 1.16 2.01 1.15 2.75-.06 3.85-3.18 5.14-5.14a71.73 71.73 0 0 1 4.6-6.18c5.79.3 11.55 1.06 17.2 2.28 3.9.84 7.72 1.92 11.52 3.11l.31.1c2.06.66 4.17 1.5 5.65 2.96a7.6 7.6 0 0 1-.15 3.04l-.16.77c-.65 3.19-1.09 6.32-.76 9.6.35 3.37 1.37 6.4 2.61 9.55.59 1.47 1.2 1.2 1.4 2.8.17 1.2.07 2.45-.04 3.67l-.1 1.03c-.22 2.71-.34 5.66 1.44 7.9.28.34.87.2 1.07-.14.07-.14.16-.27.25-.4a5.5 5.5 0 0 1 3.67-2.21c.2-.04.12-.3-.04-.31a5.28 5.28 0 0 0-3.5.82c.49-1.67 4.24-.86 5.47-.53h.05c1.54.42 3 1.09 4.28 2.04a9.73 9.73 0 0 1 4 8.08 8.72 8.72 0 0 1-4.5 7.56 9.15 9.15 0 0 1-4.42 1.07c-1.6-.02-3.02-.72-4.62-.62-.92.06-1.63 1.05-1.1 1.9a4.4 4.4 0 0 0 1.36 1.39 45.33 45.33 0 0 1-4.9 8.53 28.15 28.15 0 0 1-3.6 4.07c-1.05.97-3.3 2.1-3.17 3.7.04.59.35.94.88 1.16 1.65.68 3.66-1.65 4.77-2.77l.09-.09a30.75 30.75 0 0 0 3.73-4.49 22.56 22.56 0 0 0 3.65-9.45c2.65.8 6.16.05 8.32-.93 6.8-3.07 9.03-12.2 4.9-18.3-.8-1.17-1.8-2.18-2.95-3 .25-.13.49-.3.7-.52 1.15-1.23 1.97-2.83 2.78-4.3l.1-.18c.72-1.3 1.4-2.62 2.04-3.96l.23-.5c1.43-3.06 2.67-4.39 3.69-7.6.98-3.1 1.75-6.25 2.24-9.46l.14-.85c.28-1.87.56-3.86.35-5.75 1.44.47 2.9.76 4.33.05.95-.46 1.47-1.82 1.15-2.8a3.88 3.88 0 0 0-1.13-1.73c.3-.15.58-.34.82-.55l.22-.18c.87-.76.93-2.19.4-3.13l-.15-.27a2.96 2.96 0 0 0-2.56-1.46h-.5c.48-.11.95-.27 1.4-.55 2-1.22 1.74-4.56-.68-5.14a7.14 7.14 0 0 0-3.26.11l.12-.07c.85-.52 1.56-1.53 1.48-2.57a2.98 2.98 0 0 0-4.49-2.57c-.76.5-1.5 1.05-2.23 1.64a7.65 7.65 0 0 0 1.6-2.87 3.02 3.02 0 0 0-1.36-3.32 2.83 2.83 0 0 0-2.74-.06 2.9 2.9 0 0 0-.56-1.95c-.9-1.24-2.56-1.95-4-1.05-.19.12-.44.32-.68.57.47-1.51.04-3.1-1.59-3.8a3.3 3.3 0 0 0-3.2.52c.55-2.95-3.82-5.12-5.52-2.07-.39.7-.77 1.42-1.11 2.16l-.13.28h-.01l.09-.2.09-.21c.47-1.1 1.07-2.23 1.23-3.42.25-1.76-.54-3.43-2.45-3.68a3.2 3.2 0 0 0-2.76 1.1c.36-2.73-2.69-4.71-4.89-2.68-1.04.97-1.6 2.37-2.25 3.61l-1.13 2.1-.31-.34c.55-1.66.98-3.36 1.35-5.07.34-1.62-.46-3.29-2.13-3.75-1.52-.41-3.42.52-3.75 2.13a54.1 54.1 0 0 1-.83 3.37 5.55 5.55 0 0 0-.63-.11l-.06-.63-.08-.75c-.18-1.7-.36-3.65-1.25-5.1-1.53-2.47-5.42-1.44-5.47 1.48-.02 1.52.6 3.02.81 4.51.1.65.15 1.31.18 1.97a59.02 59.02 0 0 0-1.65-6.48l-.24-.76Zm33.64 84.45c-3.42-.53-6.54 1.38-8.57 4.05-.37.48-.13 1.17.2 1.58.25.3.57.34.93.38.42.06.95-.28 1.13-.64 1.3-2.6 3.63-4.24 6.31-5.25.05-.02.07-.1 0-.12Zm-4.74-46.53-.1-.11c-.7-.72.4-1.81 1.1-1.1.72.76 1.2 1.68 1.68 2.61.44.89-.9 1.67-1.34.78l-.2-.4a7.96 7.96 0 0 0-1.14-1.78Zm9.61-1.47c-.98-.17-.57-1.66.41-1.5l3.8.68c.98.16.56 1.65-.42 1.49-1.26-.22-2.52-.46-3.79-.67Zm-58.45-10.17c.94-.32 1.35 1.17.4 1.49a29 29 0 0 0-3.82 1.48c-.9.43-1.68-.9-.79-1.34a34.14 34.14 0 0 1 4.2-1.63Zm58.67-2c.93-.38 1.33 1.12.41 1.48l-3.34 1.34c-.93.37-1.33-1.13-.41-1.5l3.34-1.33Zm-70.36-3.64.12-.07c.84-.55 1.62.79.78 1.33-.49.32-1.08.53-1.53.9l-.1.1c-.72.68-1.82-.42-1.09-1.1.53-.5 1.2-.78 1.82-1.16Z"/></g><g id="FACE" fill="#030F40" fill-rule="evenodd" clip-rule="evenodd"><path id="🖍 Ink_3" d="M228.33 92.03c-2.1-2.93.87-5.69 2.82-6.87.51-.36.1-1.58-.99-1.39-9.91 1.7-4.77 18.74 7.89 9.39 1.5-1.21-.32-3.88-1.95-2.85l-.26.2c-1.82 1.41-5.16 3.99-7.51 1.52Zm15.54 12.35c-.48.2-4.51.38-6.9.27-1.62-.07-5.84-1.06-5.84-1.48 0-.42.18-.8.33-.79.63.07 5.63.13 9.15.17a525.42 525.42 0 0 1 4.01.03c.17.53-.27 1.62-.75 1.8Zm-8.08-3.07a97.18 97.18 0 0 0-5.78.06c-.58.04-.87.86-.91 1.25-.39 3.65 2.53 6.56 5.75 7.68 3 1.05 6.94 1.25 9.6-.7a8.14 8.14 0 0 0 2.61-3.34c.31-.7.54-1.43.66-2.2l.04-.21c.1-.55.21-1.2.03-1.7-.27-.72-.99-.73-1.64-.74h-.17l-.79-.02-2.09-.04a518.1 518.1 0 0 0-6.06-.03h-1.25Z"/><path id="Path" d="m253.44 65.5-.52-.26-.53-.26-.36-.18c-2.47-1.2-5.22-2.36-7.86-2.58-.96-.08-1.83.3-2.16 1.25-.28.8.05 1.99.93 2.31 2.93 1.1 6.07 1.55 9.01 2.66 1.47.55 2.91 1.16 4.37 1.75 1.1.44 2.27.75 3.4 1.15l-.28-.02c-.1 0-.1.16 0 .17.38.04.77.11 1.14.21l.17.05c.24.08.44-.18.25-.38-1.22-1.24-2.2-2.51-3.65-3.53a30.14 30.14 0 0 0-3.92-2.34Z"/><path id="Path_2" d="M229 63.69c-2.04-2.06-6.38-1.27-8.81-.33-1.39.54-2.7 1.22-3.8 2.23l-.1.1-.17.16c-.74.73-1.57 1.72-1.45 2.76.02.16.1.34.28.38.98.17 1.93-.34 2.83-.65l.6-.2c.89-.3 1.78-.6 2.7-.8a14.9 14.9 0 0 1 3.5-.4c1.18.01 2.45.35 3.59-.12 1.26-.53 1.91-2.04.82-3.13Z"/><path id="Path_3" d="M250.16 74.52c-.22-2.67-4.29-3.28-4.7-.64a10.8 10.8 0 0 0 1.14 6.67c1.02 2.04 3.58 1.09 3.78-.77.26-2.48-.09-3.6-.22-5.26Z"/><path id="Path_4" d="M223.41 73.23c-.57-.74-1.39-1.25-2.37-.97-3.07.9-2.16 5.25-1.09 7.36.59 1.15 2.48 1.44 3.34.43 1.4-1.65 2.06-4.94.29-6.57-.05-.08-.1-.17-.17-.25Z"/></g><g id="ACCESORIES"><path id="🖍 Ink_4" fill="#030F40" fill-rule="evenodd" d="M203.7 78.44c2.47 16.62 19.66 18.45 22.7 1.96-.48-.22-.83-.64-.76-1.46.02-3.6-1.1-7.39-4.35-9.39-3.36-2.06-7.29-2.27-11.18-2.21-7.41-.18-7.26 6-6.4 11.1m25.39-7.23c2.33-.1 5.27-.01 7.36 1.4a8.79 8.79 0 0 1 3.56-4.06c-5.59.16-11.35-.39-16.98-.81 1.35.91 2.6 2.3 3.42 3.89.75-.4 1.84-.37 2.64-.42m10.26 9c6.45 22.16 22.56 12.5 24.32 9.66 3.17-4.7 3.77-16.13 1-19.19-3.94-2.76-9.54-2.05-14.2-2.12-8.58.12-14.67 2.68-11.12 11.64M196.09 70c1.75-.22 3.62-.27 5.25.5a7.02 7.02 0 0 1 3.86-4.7c.22-.26.19-.4.92-.36 4.52-1.36 9.57-.64 13.92.75 6.85.57 14.05 1.03 20.96 1.82 6.48-2.9 26.02-3.33 27.24 3.83 1.52-.23 4.13-1.43 5.41.2 9.42-1.6 19.15.62 28.6 1.6 2.39.44 3.61 5.16.91 5.1-1.52-.42.05-2.94-2-3.13-9.12-1-18.05-2.41-27.27-2.58.32 1.6-6.1 1.7-6.2.77l-.03.02c1.58 5.9.15 14.38-2.72 18.04-4.01 4.79-14.1 6.16-18.56 3.08-5.77-2.84-11.77-17.12-10.08-21.86-3.06-.97-6.09-.68-9.26-.18.73 2.04 1.98 7.09.18 7.52.33 10.01-8.8 16.26-17.22 12.15-7.29-3.4-9.83-14.21-8.94-20.77-.9 1.75-8.52-.15-4.97-1.8" clip-rule="evenodd"/></g></g></g><defs><clipPath id="clip0_3180_142125"><path fill="#fff" d="M0 0h362v286.21H0z"/></clipPath><clipPath id="clip1_3180_142125"><path fill="#fff" d="M191.4 370.19 30.53-93.98l498.19-172.65 160.85 464.16z"/></clipPath><clipPath id="clip2_3180_142125"><path fill="#fff" d="m-21.88 104.1 353.62 10.6-10.55 351.64-353.62-10.6z"/></clipPath></defs></svg>