<svg xmlns="http://www.w3.org/2000/svg" fill="none" viewBox="0 0 219 165"><g id="desktop_section_bottom-left-angle" clip-path="url(#clip0_3180_142044)"><mask id="mask0_3180_142044" width="2249" height="542" x="-1914" y="-193" maskUnits="userSpaceOnUse" style="mask-type:alpha"><path id="mask" fill="#BBDBFD" fill-rule="evenodd" d="M-229.86-133a68.59 68.59 0 0 0 0 137.18H37.15c95.22 0 172.41 77.2 172.41 172.41 0 95.22-77.19 172.41-172.4 172.41H-1884a30 30 0 1 1 0-60H37.15c62.09 0 112.41-50.33 112.41-112.4 0-62.1-50.32-112.42-112.4-112.42h-267.02c-71.02 0-128.6-57.57-128.6-128.59 0-71.02 57.58-128.59 128.6-128.59h534.72a30 30 0 1 1 0 60h-534.72Z" clip-rule="evenodd"/></mask><g mask="url(#mask0_3180_142044)"><g id="shape"><path id="secondary-color" fill="#FFC229" fill-rule="evenodd" d="M-229.86-121a56.59 56.59 0 0 0 0 113.18H37.15C139-7.82 221.56 74.74 221.56 176.6S139 361 37.16 361H-1884a42 42 0 1 1 0-84H37.15c55.46 0 100.41-44.96 100.41-100.4 0-55.46-44.95-100.42-100.4-100.42h-267.02c-77.65 0-140.6-62.94-140.6-140.59S-307.5-205-229.85-205h534.72a42 42 0 1 1 0 84h-534.72Z" clip-rule="evenodd"/><g id="BlobCorner" clip-path="url(#clip1_3180_142044)" opacity=".06"><path id="Vector" fill="#343A40" fill-rule="evenodd" d="M204.5-258.6c15.7 42.47-6.19 90.67-8.51 137.16-2.26 45.2 11.07 89.4-5.03 133.22-17.85 48.6-43.05 102.28-90.8 127.65-47.68 25.33-103.05 7.74-154.67 2.76-44.35-4.27-85.92-13.66-126.03-29.82-42.51-17.13-86.6-33.39-115.1-67.34-30.47-36.29-49.57-81.84-50.76-130.25-1.2-49.46 15.04-100.2 44.05-144.03 28.45-42.98 69.85-78.8 117.74-100.4 45.13-20.34 94.07-11.69 142.36-16.9 50.73-5.5 103.7-31.02 149.62-14.65 46.75 16.66 80.53 57.7 97.12 102.6Z" clip-rule="evenodd"/></g><g id="BlobCorner_2" clip-path="url(#clip2_3180_142044)" opacity=".15"><path id="Vector_2" fill="#fff" fill-rule="evenodd" d="M-63.44-33.12c28.4-16.68 65.5-10.63 99.32-3.98 30.35 5.98 56.72 24.43 84.54 40.17 28.57 16.16 60.45 27.22 81.28 53.65 21.93 27.84 36.8 62.78 37.6 97.26.76 33.93-15.6 63.72-33.33 90.34-16.3 24.47-38.52 43.2-64.32 56.28-24.59 12.47-52.9 12.02-80.34 17.03-33.87 6.19-67.82 32.66-100.43 15.99-32.17-16.46-35.56-63.31-54.65-95.31-18.75-31.44-52.8-56.1-56.9-91.74-4.11-35.77 20.58-64.26 35.44-94.89 14.84-30.56 23.3-68.06 51.79-84.8Z" clip-rule="evenodd"/></g></g></g></g><defs><clipPath id="clip0_3180_142044"><path fill="#fff" d="M0 0h219v165H0z"/></clipPath><clipPath id="clip1_3180_142044"><path fill="#fff" d="m70.24-486.69 285.9 470.95-505.48 306.87-285.9-470.95z"/></clipPath><clipPath id="clip2_3180_142044"><path fill="#fff" d="m237.9 351.28-396.6-11.9L-146.87-55l396.59 11.9z"/></clipPath></defs></svg>
