<svg width="1233" height="393" viewBox="0 0 1233 393" fill="none" xmlns="http://www.w3.org/2000/svg"><g clip-path="url(#a)"><mask id="b" style="mask-type:alpha" maskUnits="userSpaceOnUse" x="-103" y="-406" width="2249" height="694"><path fill-rule="evenodd" clip-rule="evenodd" d="M430.833-345.788c54.939 0 99.477 44.537 99.477 99.477 0 54.94-44.538 99.477-99.477 99.477H239.316c-119.858 0-217.023 97.165-217.023 217.023 0 119.859 97.164 217.023 217.023 217.023H2115.86c16.56 0 30-13.432 30-30 0-16.569-13.44-30-30-30H239.316c-86.722 0-157.023-70.302-157.023-157.023 0-86.721 70.301-157.022 157.023-157.022h191.517c88.077 0 159.477-71.401 159.477-159.478 0-88.077-71.4-159.477-159.477-159.477H-73c-16.568 0-30 13.431-30 30 0 16.568 13.432 30 30 30h503.833Z" fill="#BBDBFD"/></mask><g mask="url(#b)"><path fill-rule="evenodd" clip-rule="evenodd" d="M430.833-345.788c54.939 0 99.477 44.538 99.477 99.477 0 54.94-44.538 99.478-99.477 99.478H239.316c-119.858 0-217.023 97.164-217.023 217.022 0 119.859 97.164 217.023 217.023 217.023H2115.86c16.56 0 30-13.431 30-30 0-16.569-13.44-30-30-30H239.316c-86.722 0-157.023-70.301-157.023-157.023 0-86.72 70.301-157.022 157.023-157.022h191.517c88.077 0 159.477-71.401 159.477-159.478 0-88.077-71.4-159.477-159.477-159.477H-73c-16.568 0-30 13.431-30 30 0 16.569 13.432 30 30 30h503.833Z" fill="#FFC229"/><g opacity=".06" clip-path="url(#c)"><path fill-rule="evenodd" clip-rule="evenodd" d="M149.897 154.369c-6.409 58.872 25.12 114.699 37.177 173.743 11.724 57.413 7.983 117.833 32.945 169.654 27.678 57.458 63.608 119.416 115.632 138.792 51.939 19.344 102.376-18.54 151.791-39.192 42.457-17.745 81.12-41.284 116.93-73.117 37.956-33.742 77.643-66.797 98.362-118.269 22.139-55 31.234-118.764 22.203-181.248-9.226-63.825-35.782-124.487-73.371-172.745-36.849-47.31-84.865-81.853-136.229-96.349-48.399-13.66-94.422 10.977-142.727 17.62-50.75 6.979-107.911-11.156-149.357 22.548-42.195 34.313-66.58 96.329-73.356 158.563Z" fill="#343A40"/></g><g opacity=".15" clip-path="url(#d)"><path fill-rule="evenodd" clip-rule="evenodd" d="M1069.55 5.485c-18.22 41.237-11.31 94.897-3.76 143.804 6.77 43.882 27.28 81.917 44.8 122.058 18 41.232 30.39 87.307 59.66 117.252 30.83 31.532 69.44 52.802 107.46 53.677 37.4.861 70.15-23.05 99.39-48.916 26.87-23.772 47.39-56.085 61.64-93.532 13.59-35.689 12.92-76.653 18.27-116.417 6.61-49.078 35.58-98.428 17-145.496-18.35-46.447-70.02-51-105.41-78.382-34.78-26.903-62.19-76.008-101.5-81.669-39.46-5.683-70.71 30.271-104.38 52.022-33.6 21.706-74.9 34.247-93.17 75.599Z" fill="#fff"/></g><g opacity=".06" clip-path="url(#e)"><path fill-rule="evenodd" clip-rule="evenodd" d="M928.449 471.404c12.877-47.332-6.056-100.555-8.449-152.125-2.327-50.145 8.538-99.351-5.471-147.8-15.533-53.72-37.322-112.996-77.914-140.578-40.525-27.536-87.163-7.348-130.741-1.202-37.441 5.28-72.485 16.2-106.232 34.622-35.771 19.526-72.886 38.099-96.662 76.13-25.406 40.638-41.136 91.426-41.69 145.174-.566 54.9 13.627 111.025 38.551 159.323 24.433 47.35 59.755 86.603 100.427 109.997 38.324 22.044 79.605 11.847 120.462 17.057 42.924 5.474 87.929 33.167 126.585 14.446 39.354-19.059 67.522-65.009 81.134-115.044Z" fill="#343A40"/></g><g opacity=".15" clip-path="url(#f)"><path fill-rule="evenodd" clip-rule="evenodd" d="M295.3-288.465c-28.401-21.914-65.504-13.969-99.326-5.227-30.347 7.844-56.72 32.082-84.534 52.75-28.57 21.229-60.459 35.743-81.285 70.464C8.225-133.918-6.652-88.033-7.437-42.752-8.21 1.801 8.153 40.926 25.883 75.891c16.295 32.134 38.52 56.741 64.321 73.913 24.591 16.366 52.893 15.78 80.337 22.361 33.874 8.124 67.828 42.892 100.432 20.992 32.175-21.612 35.566-83.137 54.65-125.162 18.751-41.29 52.804-73.682 56.902-120.48 4.113-46.982-20.576-84.396-35.442-124.615-14.836-40.135-23.303-89.39-51.783-111.365Z" fill="#fff"/></g></g><g opacity=".1" clip-path="url(#g)"><path fill-rule="evenodd" clip-rule="evenodd" d="M149.942 495.606c-28.652-5.848-47.62-34.123-72.324-51.16-24.022-16.567-52.809-24.283-71.354-47.928-20.563-26.216-41.408-58.165-39.03-92.808 2.374-34.588 30.914-58.817 51.255-85.274 17.476-22.732 36.807-42.213 59.355-58.601 23.9-17.37 47.86-35.899 76.208-39.923 30.292-4.299 61.795.733 88.752 16.51 27.535 16.115 49.825 42.183 63.967 72.871 13.863 30.085 19.381 64.81 14.888 98.249-4.234 31.509-25.678 55.258-39.291 83.358-14.301 29.522-18.374 67.066-43.018 86.551-25.09 19.838-59.119 24.336-89.408 18.155Z" fill="#9BCD41"/></g></g><defs><clipPath id="a"><path fill="#fff" d="M0 .212h1233v392H0z"/></clipPath><clipPath id="c"><path fill="#fff" d="M233.152-175.567 52.748 508.082l558.744 254.297L791.896 78.731z"/></clipPath><clipPath id="d"><path fill="#fff" d="M1172.46-217.343 965.825 229.659l371.87 296.488L1544.33 79.145z"/></clipPath><clipPath id="e"><path fill="#fff" d="m627.186-140.562-244.443 528.79 432.02 344.445 244.442-528.79z"/></clipPath><clipPath id="f"><path fill="#fff" d="m-6.035 216.356 396.596-15.626L378.73-317.2l-396.597 15.626z"/></clipPath><clipPath id="g"><path fill="#fff" d="M-35 116.212h360v384H-35z"/></clipPath></defs></svg>