<svg width="173" height="151" viewBox="0 0 173 151" fill="none" xmlns="http://www.w3.org/2000/svg"><g clip-path="url(#a)"><mask id="b" style="mask-type:alpha" maskUnits="userSpaceOnUse" x="-127" y="-194" width="2249" height="542"><path fill-rule="evenodd" clip-rule="evenodd" d="M437.864 288c37.881 0 68.59-30.709 68.59-68.591 0-37.882-30.709-68.591-68.59-68.591H170.847c-95.22 0-172.41-77.19-172.41-172.409S75.627-194 170.847-194H2092c16.57 0 30 13.431 30 30 0 16.569-13.43 30-30 30H170.847c-62.082 0-112.41 50.327-112.41 112.41 0 62.08 50.328 112.408 112.41 112.408h267.017c71.018 0 128.59 57.572 128.59 128.591S508.882 348 437.864 348h-534.72c-16.568 0-29.999-13.431-29.999-30 0-16.569 13.431-30 30-30h534.719Z" fill="#BBDBFD"/></mask><g mask="url(#b)"><path fill-rule="evenodd" clip-rule="evenodd" d="M437.864 276c31.254 0 56.59-25.337 56.59-56.591s-25.336-56.591-56.59-56.591H170.847C69 162.818-13.563 80.255-13.563-21.591-13.563-123.437 69-206 170.847-206H2092c23.2 0 42 18.804 42 42s-18.8 42-42 42H170.847c-55.455 0-100.41 44.955-100.41 100.41 0 55.454 44.955 100.408 100.41 100.408h267.017c77.646 0 140.59 62.945 140.59 140.591 0 77.646-62.944 140.591-140.59 140.591h-534.72c-23.195 0-41.999-18.804-41.999-42s18.804-42 42-42h534.719Z" fill="#FFC229"/><g opacity=".06" clip-path="url(#c)"><path fill-rule="evenodd" clip-rule="evenodd" d="M3.506 413.602c-15.7-42.475 6.179-90.667 8.505-137.158 2.263-45.205-11.075-89.395 5.025-133.223C34.887 94.625 60.086 40.942 107.84 15.572c47.676-25.33 103.053-7.741 154.672-2.766 44.35 4.275 85.918 13.663 126.026 29.824 42.513 17.13 86.608 33.386 115.11 67.342 30.457 36.284 49.565 81.836 50.747 130.25 1.208 49.453-15.034 100.198-44.049 144.031-28.444 42.972-69.85 78.789-117.741 100.388-45.127 20.353-94.067 11.698-142.355 16.918-50.732 5.483-103.707 31.011-149.625 14.643-46.749-16.664-80.525-57.698-97.12-102.6Z" fill="#343A40"/></g><g opacity=".15" clip-path="url(#d)"><path fill-rule="evenodd" clip-rule="evenodd" d="M271.445 188.117c-28.402 16.687-65.504 10.637-99.327 3.98-30.347-5.972-56.72-24.429-84.534-40.166-28.57-16.165-60.458-27.217-81.284-53.655-21.93-27.839-36.808-62.778-37.593-97.258-.772-33.925 15.59-63.717 33.32-90.34 16.295-24.469 38.52-43.206 64.322-56.282 24.59-12.462 52.893-12.015 80.337-17.027 33.873-6.186 67.828-32.66 100.432-15.984 32.174 16.456 35.566 63.305 54.65 95.305 18.751 31.44 52.804 56.106 56.901 91.74 4.114 35.774-20.576 64.263-35.442 94.888-14.835 30.561-23.302 68.066-51.782 84.799Z" fill="#fff"/></g></g></g><defs><clipPath id="a"><path fill="#fff" d="M173 151H0V0h173z"/></clipPath><clipPath id="c"><path fill="#fff" d="m137.763 641.689-285.905-470.952 505.489-306.87 285.903 470.95z"/></clipPath><clipPath id="d"><path fill="#fff" d="m-29.884-196.228 396.595 11.895-11.829 394.38-396.594-11.896z"/></clipPath></defs></svg>