<svg xmlns="http://www.w3.org/2000/svg" width="484" height="419" fill="none"><g id="desktop_actuhero" clip-path="url(#clip0_3180_142366)"><mask id="mask0_3180_142366" width="714" height="633" x="0" y="-148" maskUnits="userSpaceOnUse" style="mask-type:alpha"><path id="mask" fill="#BBDBFD" fill-rule="evenodd" d="M684 424.212H174.281c-62.734 0-113.59-50.856-113.59-113.591 0-62.735 50.856-113.591 113.59-113.591h162.946c119.559 0 216.48-96.921 216.48-216.48v-98.338c0-16.569-13.431-30-30-30-16.568 0-30 13.431-30 30v98.338c0 86.422-70.058 156.48-156.48 156.48H174.281C78.41 137.03.691 214.749.691 310.621c0 95.872 77.719 173.591 173.59 173.591H684c16.569 0 30-13.432 30-30 0-16.569-13.431-30-30-30Z" clip-rule="evenodd"/></mask><g mask="url(#mask0_3180_142366)"><g id="shape"><path id="secondary-color" fill="#FFC229" fill-rule="evenodd" d="M174.281 409.212c-54.45 0-98.59-44.141-98.59-98.591 0-54.45 44.14-98.591 98.59-98.591h152.946c127.843 0 231.48-103.637 231.48-231.48v-98.338c0-24.853-20.147-45-45-45-24.852 0-45 20.147-45 45v98.338c0 78.137-63.342 141.48-141.48 141.48H174.281c-104.156 0-188.59 84.435-188.59 188.591s84.434 188.591 188.59 188.591H684c24.853 0 45-20.147 45-45s-20.147-45-45-45H174.281Z" clip-rule="evenodd"/><g id="BlobCorner" clip-path="url(#clip1_3180_142366)" opacity=".15"><path id="Vector" fill="#fff" fill-rule="evenodd" d="M-136.474 250.4c-11.58 32.41 5.446 68.854 7.598 104.166 2.093 34.336-7.678 68.029 4.919 101.204 13.969 36.784 33.563 77.372 70.064 96.258 36.442 18.855 78.382 5.032 117.57.823 33.668-3.615 65.181-11.093 95.529-23.707 32.166-13.37 65.543-26.087 86.923-52.129 22.846-27.826 36.991-62.602 37.489-99.405.509-37.592-12.254-76.023-34.666-109.095-21.972-32.422-53.736-59.3-90.309-75.318-34.464-15.095-71.585-8.113-108.325-11.68-38.6-3.748-79.07-22.711-113.832-9.892-35.39 13.051-60.719 44.514-72.96 78.775Z" clip-rule="evenodd"/></g><g id="BlobCorner_2" clip-path="url(#clip2_3180_142366)" opacity=".06"><path id="Vector_2" fill="#343A40" fill-rule="evenodd" d="M523.639 459.814c15.699-42.475-6.179-90.668-8.506-137.158-2.262-45.205 11.076-89.395-5.024-133.224-17.852-48.596-43.051-102.278-90.805-127.648-47.677-25.33-103.054-7.742-154.672-2.766-44.35 4.275-85.919 13.662-126.027 29.824-42.512 17.13-86.607 33.385-115.11 67.342-30.456 36.284-49.564 81.836-50.746 130.25-1.208 49.452 15.034 100.198 44.049 144.031 28.444 42.971 69.85 78.789 117.741 100.388 45.126 20.353 94.066 11.698 142.354 16.917 50.732 5.484 103.707 31.012 149.626 14.644 46.749-16.665 80.524-57.698 97.12-102.6Z" clip-rule="evenodd"/></g><g id="BlobCorner_3" clip-path="url(#clip3_3180_142366)" opacity=".06"><path id="Vector_3" fill="#343A40" fill-rule="evenodd" d="M315.7 234.328c28.401 16.686 65.504 10.637 99.326 3.98 30.347-5.973 56.72-24.429 84.534-40.166 28.57-16.165 60.459-27.217 81.285-53.655 21.929-27.839 36.807-62.778 37.592-97.258.773-33.925-15.59-63.717-33.32-90.34-16.295-24.47-38.52-43.207-64.321-56.282-24.591-12.462-52.893-12.016-80.337-17.027-33.874-6.186-67.828-32.661-100.432-15.984-32.175 16.456-35.566 63.305-54.65 95.304-18.751 31.441-52.804 56.106-56.902 91.74-4.113 35.775 20.576 64.264 35.442 94.889 14.836 30.561 23.303 68.066 51.783 84.799Z" clip-rule="evenodd"/></g></g></g></g><defs><clipPath id="clip0_3180_142366"><path fill="#fff" d="M484 418.212H0v-418h484z"/></clipPath><clipPath id="clip1_3180_142366"><path fill="#fff" d="m134.438 669.436 219.817-362.085L-34.242 71.5-254.06 433.585z"/></clipPath><clipPath id="clip2_3180_142366"><path fill="#fff" d="m389.383 687.901 285.907-470.95L169.804-89.922l-285.907 470.95z"/></clipPath><clipPath id="clip3_3180_142366"><path fill="#fff" d="M617.035-150.069 220.441-138.17l11.832 394.379 396.594-11.899z"/></clipPath></defs></svg>