<svg xmlns="http://www.w3.org/2000/svg" width="151" height="173" fill="none"><g id="desktop_page_bottom-right-angle" clip-path="url(#clip0_3180_145886)"><mask id="mask0_3180_145886" width="542" height="2249" x="-197" y="-127" maskUnits="userSpaceOnUse" style="mask-type:alpha"><path id="mask" fill="#BBDBFD" fill-rule="evenodd" d="M-137 437.864c0 37.881 30.709 68.59 68.59 68.59 37.883 0 68.592-30.709 68.592-68.59V170.847c0-95.22 77.19-172.41 172.409-172.41S345 75.627 345 170.847V2092c0 16.57-13.431 30-30 30-16.569 0-30-13.43-30-30V170.847c0-62.082-50.327-112.41-112.409-112.41-62.082 0-112.41 50.328-112.41 112.41v267.017c0 71.018-57.571 128.59-128.59 128.59S-197 508.882-197 437.864v-534.72c0-16.568 13.431-29.999 30-29.999 16.569 0 30 13.431 30 30v534.719Z" clip-rule="evenodd"/></mask><g mask="url(#mask0_3180_145886)"><g id="shape"><path id="secondary-color" stroke="#FFC229" stroke-linecap="round" stroke-linejoin="round" stroke-width="84" d="M315 2092V170.847c0-78.65-63.759-142.41-142.409-142.41v0c-78.65 0-142.41 63.76-142.41 142.41v267.017c0 54.45-44.14 98.59-98.59 98.59v0c-54.45 0-98.591-44.14-98.591-98.59v-534.72"/><g id="BlobCorner" clip-path="url(#clip1_3180_145886)" opacity=".06"><path id="Vector" fill="#343A40" fill-rule="evenodd" d="M-262.602 3.506c42.475-15.7 90.668 6.179 137.158 8.505C-80.239 14.274-36.049.936 7.78 17.036c48.596 17.851 102.278 43.05 127.648 90.805 25.33 47.676 7.742 103.053 2.766 154.672-4.275 44.35-13.662 85.918-29.824 126.026-17.13 42.513-33.386 86.608-67.342 115.11-36.284 30.457-81.836 49.565-130.25 50.747-49.452 1.208-100.198-15.034-144.031-44.049-42.971-28.444-78.789-69.85-100.388-117.741-20.353-45.127-11.698-94.067-16.917-142.355-5.484-50.732-31.012-103.707-14.644-149.625 16.665-46.749 57.698-80.525 102.6-97.12Z" clip-rule="evenodd"/></g><g id="BlobCorner_2" clip-path="url(#clip2_3180_145886)" opacity=".15"><path id="Vector_2" fill="#fff" fill-rule="evenodd" d="M-37.116 271.446c-16.686-28.401-10.636-65.504-3.98-99.326 5.973-30.347 24.429-56.72 40.166-84.534C15.235 59.016 26.287 27.127 52.725 6.3c27.84-21.929 62.779-36.807 97.258-37.592 33.925-.773 63.717 15.59 90.341 33.32 24.469 16.295 43.206 38.52 56.281 64.321 12.462 24.591 12.016 52.893 17.027 80.337 6.186 33.874 32.661 67.828 15.984 100.433-16.456 32.174-63.304 35.565-95.304 54.649-31.441 18.751-56.106 52.804-91.741 56.902-35.774 4.113-64.263-20.576-94.887-35.442-30.562-14.835-68.067-23.302-84.8-51.783Z" clip-rule="evenodd"/></g></g></g></g><defs><clipPath id="clip0_3180_145886"><path fill="#fff" d="M0 173V0h151v173z"/></clipPath><clipPath id="clip1_3180_145886"><path fill="#fff" d="m-490.689 137.762 470.95-285.907 306.874 505.487-470.95 285.906z"/></clipPath><clipPath id="clip2_3180_145886"><path fill="#fff" d="m347.281-29.889-11.899 396.595-394.38-11.833 11.9-396.594z"/></clipPath></defs></svg>