<?xml version="1.0" encoding="UTF-8"?>
<svg id="felicitations" xmlns="http://www.w3.org/2000/svg" viewBox="0 0 500 500">
  <defs>
    <style>
      .cls-1 {
        fill: #fff;
      }

      .cls-2 {
        fill: #eb4a65;
      }

      .cls-3 {
        fill: #4bc068;
      }

      .cls-4 {
        fill: #030f40;
      }

      .cls-5 {
        fill: #abafc2;
      }

      .cls-6 {
        fill: #f5c500;
      }

      .cls-7 {
        fill: #f9bc13;
        opacity: .1;
      }
    </style>
  </defs>
  <path id="secondary-color" class="cls-7" d="m476.37,202.73c.33,6.81.69,13.61.95,20.42.1,2.4.03,4.77-.07,7.17-.2,6.15-.36,12.3-.66,18.41-.16,3.22-.62,6.41-.89,9.63-.1,1.18-.1,2.37-.03,3.58.26,6.31.99,12.63.53,18.97-.13,1.68-.33,3.32-.53,5-.82,7.07-1.58,14.14-2.5,21.18-.72,5.33-1.74,10.62-3.45,15.72-.16.49-.33,1.02-.43,1.55-1.15,6.61-3.75,12.69-6.41,18.77-3.91,8.81-8.55,17.2-14.24,25.02-.23.33-.49.66-.72,1.02-4.5,7.6-10.75,13.68-17,19.76-3.09,2.99-6.38,5.75-9.6,8.61-.66.59-1.38,1.15-2.01,1.78-5.66,5.82-12.23,10.46-19.1,14.76-5.36,3.35-10.46,7.14-15.13,11.44-4.11,3.81-8.12,7.76-12.26,11.54-2.1,1.94-4.37,3.68-6.54,5.56-5.23,4.47-10.06,9.34-14.5,14.6-2.33,2.79-4.93,5.39-7.66,7.79-3.81,3.35-7.76,6.54-12.07,9.27-2.93,1.87-5.75,3.85-8.65,5.79-7.3,4.96-15.03,9.04-23.35,12-2.76.99-5.49,2.01-8.25,2.99-4.01,1.41-8.22,2.17-12.43,2.63-5,.53-9.96,1.18-15.03.89-4.8-.26-9.54.33-14.3.76-12.69,1.18-25.32.79-37.85-1.38-5.95-1.05-11.8-2.47-17.69-3.68-3.09-.62-6.21-1.12-9.31-1.78-7-1.51-13.88-3.52-20.65-5.95-3.75-1.35-7.6-2.56-11.18-4.34-4.34-2.14-8.48-4.64-12.56-7.27-5.36-3.49-10.49-7.3-15.82-10.82-8.61-5.69-15.59-12.99-21.24-21.57-4.14-6.31-7.5-13.05-9.86-20.22-1.02-3.12-2.27-6.18-3.06-9.37-1.48-5.85-2.27-11.84-2.7-17.85-.36-4.83-.62-9.63-.53-14.5.13-6.67,1.12-13.22,2.1-19.76.66-4.47,1.48-8.94,2.37-13.42.59-3.03,1.48-6.02,2.2-9.04,1.45-5.98,2.4-12.07,3.12-18.18.2-1.61.56-3.19.79-4.77.92-6.61.59-13.22.33-19.86-.26-6.51-2.3-12.53-4.83-18.45-.76-1.78-1.64-3.45-2.27-5.26-.79-2.24-2.2-3.91-3.85-5.52-2.3-2.27-4.57-4.54-6.87-6.81-2.79-2.73-5.1-5.85-7-9.24-1.97-3.52-4.18-6.94-5.62-10.78-2.01-5.39-3.39-10.92-3.91-16.67-.39-4.37-.72-8.71-.3-13.05.43-4.57,1.12-9.14,2.24-13.58,2.07-8.35,4.64-16.57,7.89-24.53,2.83-7,6.31-13.65,10.62-19.86,2.17-3.12,4.8-5.79,7.46-8.42,4.54-4.5,9.04-9.04,13.55-13.55,2.63-2.6,5.29-5.2,7.89-7.79,1.51-1.51,3.03-3.06,4.44-4.67,5-5.79,10.06-11.54,14.83-17.49,3.39-4.24,6.41-8.78,9.57-13.22,1.15-1.61,2.24-3.26,3.32-4.9,1.71-2.66,3.42-5.33,5.1-7.99,5.2-8.32,10.59-16.47,17.03-23.9,2.7-3.12,5.36-6.25,8.09-9.34.76-.85,1.55-1.68,2.43-2.37,4.6-3.62,9.21-7.23,13.91-10.72,4.04-2.99,8.68-5,13.35-6.87,5.39-2.14,10.95-3.81,16.54-5.33,3.29-.89,6.67-1.35,10-1.97,1.51-.3,3.06-.53,4.6-.76,6.81-.99,13.61-1.91,20.39-2.96,8.15-1.28,16.24-2.76,24.1-5.36,5.56-1.81,11.31-2.47,17.07-3.19,4.08-.53,8.22-.92,12.33-1.02,4.7-.1,9.44.23,14.14.43,1.32.07,2.63.33,3.91.36,3.06.07,6.05.39,9.04,1.12,1.15.26,2.37.13,3.58.13,4.21,0,8.38.26,12.33,1.78,1.87.72,3.58,1.84,5.39,2.73.62.33,1.25.69,1.94.82,3.65.69,6.9,2.2,10,4.21,7.14,4.64,13.68,10.06,19.76,15.98,5.39,5.2,11.15,9.96,17.07,14.47,5.75,4.37,10.78,9.44,15.32,14.99.46.56.89,1.15,1.38,1.64,4.34,4.24,7.76,9.21,11.08,14.24,2.4,3.65,5.16,7.04,7.69,10.55,2.24,3.09,4.6,6.12,6.58,9.37,3.58,5.82,6.51,11.97,9.14,18.25,3.29,7.83,6.38,15.72,9.67,23.54,1.94,4.6,3.03,9.4,3.81,14.34,1.25,7.73,2.01,15.52,2.33,23.35.2,4.83.92,9.63,1.22,14.47.3,4.27.36,8.58.53,12.89.03,1.02,0,2.04,0,3.06h-.16Z"/>
  <g id="Invariable">
    <path class="cls-4" d="m135.08,133.92c-.29,4.54-.7,9.12-.84,13.71-.15,4.89,1.68,7.58,5.48,9.13,2.7,1.1,5.52,1.91,8.3,2.81.55.18,1.16.18,1.83.28,1.08-1.66,2.11-3.26,3.15-4.85,3.12-4.75,6.37-9.41,10.26-13.56,5.41-5.76,11.26-11.03,17.84-15.46,3.96-2.67,7.76-5.58,11.77-8.17,5.21-3.38,10.55-6.54,16.13-9.3,4.06-2.02,8.01-4.28,12.16-6.1,5.57-2.45,11.14-4.94,17.04-6.56,5.47-1.5,10.92-3.08,16.45-4.31,6.75-1.51,13.52-3,20.44-3.61,7.31-.65,14.59-1.86,21.97-1.43,4.77.27,9.54.59,14.29,1.09,5.11.53,10.19,1.3,15.28,1.97.53.07,1.06.18,1.58.32,6.23,1.64,12.55,3.04,18.68,5.01,6.47,2.08,12.76,4.74,18.8,7.9.27.14.52.3.79.42,6.25,2.66,12.01,6.17,17.42,10.23,13.07,9.81,25.57,20.25,35.66,33.27,14.03,18.09,23,38.49,27.43,60.88,6.64,33.59,3,66.26-9.52,97.98-11.95,30.27-30.64,55.64-56.16,75.9-.33.26-.65.52-.96.81-.07.06-.07.21-.14.47.65.03,1.28.08,1.9.09,1.93.03,3.81.29,5.6,1.04.43.18.87.39,1.25.67,1.98,1.47,2.28,3.29.83,5.27-1.23,1.68-2.88,2.92-4.79,3.65-3.51,1.36-7.02,2.76-10.63,3.76-12.67,3.49-25.36,6.9-38.09,10.16-10.06,2.58-20.15,5.1-30.31,7.27-9.98,2.13-20.09,3.7-30.1,5.7-11.9,2.37-23.88,4.17-35.93,5.62-.47.06-.95.12-1.43.13-5.02.03-10.04.12-15.05,0-1.57-.04-3.19-.49-4.7-.99-3.26-1.09-4.51-3.91-5.42-6.87-.36-1.15.23-2.22.99-3.13.98-1.17,2.21-1.99,3.62-2.57.58-.24,1.15-.51,1.83-.81-.28-.26-.39-.43-.54-.48-4.87-1.57-9.22-4.24-13.74-6.53-.69-.35-1.38-.73-2.11-.98-4.34-1.48-8.11-4.01-12.01-6.34-7.96-4.75-15.72-9.78-22.73-15.89-4.56-3.98-8.82-8.24-12.15-13.34-.12-.18-.32-.3-.64-.6.32,3.12.64,6.01.89,8.91.35,4.11.47,8.24.99,12.32,1.46,11.48.46,23.05,1.37,34.54.3,3.75.66,7.5.84,11.26.13,2.86.04,5.72.02,8.59,0,1.16-.51,2.01-1.57,2.62-1.08.62-2.05,1.42-3.25,2.27.38,2.25.12,4.72,1.42,6.94.28.48.33,1.13.39,1.71.68,6.47,1.33,12.95,2.02,19.42.11.99.53,1.9-.06,2.92-.71,1.24-1.65,2.16-2.88,2.85-2.02,1.14-4.24,1.64-6.49,1.92-2.25.27-4.53.56-6.78.5-4.65-.12-9.01.85-13.18,2.83-5.29,2.53-10.89,3.5-16.71,3.23-1.36-.06-2.73-.28-4.06-.58-3.29-.75-5.09-2.88-5.58-6.2-.12-.79-.47-1.55-.72-2.32-2,.35-3.79.78-5.61.94-2.84.27-5.73.68-8.56.45-5.96-.5-9.07-4.07-9.48-9.74-.16-2.17.99-3.79,2.9-4.76,1.43-.73,2.93-1.36,4.42-1.95,8.43-3.35,15.75-8.48,22.66-14.24,1.36-1.14,1.39-1.19.72-2.86-1.31-3.27-2.7-6.5-4.1-9.88-.61-.1-1.32-.17-2-.31-1.75-.37-2.69-1.27-2.43-2.97.34-2.22-.45-4.08-1.15-6.04-4.66-12.99-8.66-26.19-12.46-39.45-3.47-12.11-7.11-24.18-10.62-36.27-1.36-4.67-2.38-9.42-1.57-14.31.59-3.53,1.47-7.01,2.2-10.52,2.78-13.34,6.7-26.39,10-39.59,3.59-14.37,6.91-28.8,10.51-43.16.47-1.85-.08-3.63.37-5.41.06-.23-.26-.53-.33-.81-.29-1.33-.86-2.69-.76-3.99.23-2.77-.11-5.46-.47-8.18-.79-5.92-1.44-11.85-2.19-17.78-.21-1.69-.57-3.36-.91-5.38-.64.63-1.05.95-1.36,1.35-3.05,3.83-6.1,7.66-9.13,11.5-1.29,1.64-2.53,3.33-3.8,4.99-1.93,2.51-4.34,4.42-7.17,5.82-1.12.56-2.22,1.16-3.37,1.68-1.55.7-2,.49-2.77-1.2-1.83.69-3.3-.02-4.65-1.26-2.19-2.01-3.78-4.45-5.15-7.06-3.52-6.7-5.88-13.83-7.93-21.09-2.31-8.16-4.5-16.35-7.46-24.32-3.06-8.25-7.1-16.05-10.86-23.98-1.4-2.94-3.34-5.5-5.74-7.73-.52-.49-1.05-.99-1.46-1.57-.46-.65-.05-1.37.75-1.33.46.02.95.16,1.37.36,1.24.59,2.45,1.23,3.67,1.86.4.2.8.42,1.38.42-.61-.93-1.22-1.86-1.84-2.78-.9-1.34-1.82-2.66-2.72-4-.23-.35-.52-.71-.58-1.1-.07-.41-.03-.96.21-1.27.16-.2.8-.2,1.12-.06.54.23,1.04.6,1.47,1,1.33,1.28,2.63,2.6,4.15,3.8-.11-.34-.16-.71-.34-1-1.19-2-2.41-3.99-3.61-5.98-.43-.72-.9-1.42-1.25-2.17-.3-.66-.49-1.43.24-1.95.62-.45,1.28-.17,1.82.26.6.49,1.19,1.01,1.69,1.59,2.96,3.46,5.6,7.14,7.62,11.25.28.57.61,1.1,1.01,1.83.8-2.4,1.45-4.54,2.25-6.63.44-1.16,1.04-2.3,1.77-3.3.94-1.31,1.81-1.41,3.25-.67.79.41,1.57.87,2.34,1.31,1.19.67,2.36,1.38,3.58,2,1.43.73,1.53.81,1.46,2.54.58,0,1.16-.04,1.73,0,1.15.09,1.81.75,1.42,1.76-1.02,2.62-.83,5.41-1.37,8.09-.59,2.88-2,5.35-3.99,7.5-.93,1.01-1.86,2.02-2.78,3.05-1.29,1.44-1.28,2.96-.39,4.62,5.07,9.56,10.53,18.88,16.16,28.11,1.36,2.24,2.57,4.57,3.92,6.97,1.79-1.07,3.32-2.45,4.29-4.33,1.4-2.7,2.63-5.5,4.04-8.19,3.67-6.97,6.65-14.3,10.84-21,1.73-2.76,3.72-5.27,6.32-7.25,1.48-1.13,3.09-1.9,4.96-2.29,4.1-.85,8.2-.49,12.31-.31.48.02.95.11,1.43.13,2.23.1,2.57-.26,2.47-2.51-.1-2.2-.19-4.4-.29-6.68-1.24-.11-2.42-.16-3.59-.31-5.43-.69-9.06-3.76-11.13-8.71-1.91-4.57-2.26-9.37-1.7-14.26.51-4.42,1.73-8.65,3.5-12.74,2.83-6.56,7.98-10.2,14.87-11.26,6.41-.99,12.36.45,17.51,4.58,4.67,3.75,6.78,8.64,6.5,14.6-.04.89.18,1.79.1,2.68-.18,2.1-.47,4.15-.23,6.32.24,2.24-1.11,4.26-2.74,5.83-.63.61-1.67.82-2.7,1.29h0Zm30.95,80c-.08.14-.18.28-.24.45-5.17,13.51-8.89,27.37-9.95,41.86-.25,3.39-.42,6.81-.95,10.16-1.27,7.96-1.64,15.96-.43,23.92.8,5.24,2.09,10.42,3.44,15.56,3.25,12.41,8.57,23.94,15.39,34.77,3.63,5.76,7.44,11.41,11.32,17,24.38,35.16,63.16,54.98,105.91,54.16,1.43-.03,2.86-.18,4.27-.43,2.53-.44,5.04-.97,7.55-1.52,3.91-.87,7.81-1.76,11.69-2.7,6.03-1.46,12.08-2.88,18.07-4.49,4.78-1.29,9.5-2.8,14.22-4.3,1.98-.63,3.97-1.34,5.83-2.27,8.16-4.04,15.89-8.8,23.17-14.26,30.44-22.85,51.32-52.57,63.03-88.68,9.38-28.95,11.34-58.44,4.65-88.24-5.12-22.8-14.48-43.58-30.48-61.01-4.48-4.89-9.09-9.62-14.01-14.08-7.86-7.14-16.68-12.76-26.21-17.34-14.33-6.88-29.44-10.81-45.3-11.91-13.02-.9-25.93-.07-38.62,3.03-10.8,2.64-21.37,6.06-31.54,10.6-9.57,4.28-18.79,9.18-27.2,15.47-3.87,2.9-7.58,6.01-11.34,9.06-2.23,1.8-4.53,3.53-6.61,5.5-8.35,7.92-15.88,16.57-22.44,26.01-3.47,5-6.56,10.27-9.79,15.43-.29.46-.63,1.22-.44,1.6.47.97,1.23,1.81,1.79,2.59,2.1-3.2,6.44-2.32,3.64,5.01.02.04.13.25.26.44,3.14,4.66,6.18,9.38,9.44,13.94,3.02,4.22,4.74,8.92,5.72,13.94.13.68.1,1.44-.04,2.13-.19.99-.47,1.98-.85,2.92-1.71,4.27-3.51,8.5-5.21,12.77-3.19,8.05-6.34,16.11-9.46,24.19-1.67,4.33-1.7,8.74-.4,13.19,1.11,3.81,1.53,7.7,1.38,11.69-.15,4.29-.31,8.6.31,12.88.21,1.48.36,2.97.44,4.46.06,1.19.02,2.39-.09,3.57-.06.71-.26,1.51-1.11,1.66-.88.16-1.22-.59-1.56-1.22-.24-.45-.43-.93-.81-1.74-.2,1.87-.27,3.36-.56,4.8-.18.92-.03,2.37-1.33,2.43-1.24.06-1.34-1.32-1.65-2.25-.26-.78-.43-1.59-.64-2.38-.41.75-.46,1.45-.58,2.14-.24,1.47-.48,2.94-.79,4.4-.12.57-.35,1.33-1.08,1.19-.48-.09-.93-.63-1.29-1.05-.25-.3-.34-.75-.5-1.13-.42.39-.8.74-1.36,1.25-.42-.68-.86-1.17-1.05-1.75-.32-1.02-.55-2.08-.71-3.14-.56-3.78-1.07-7.57-1.59-11.35-.27-1.92-.53-3.85-.82-5.99-.5.47-.82.8-1.17,1.09-1.42,1.17-2.83,2.35-4.27,3.5-.62.49-1.33.57-1.97.03-.58-.48-.64-1.09-.32-1.78.19-.41.28-.86.42-1.33-2.37-.17-2.93-.91-2.37-3.11.19-.75.49-1.48.82-2.18.79-1.68,1.62-3.33,2.44-4.99,1.44-2.95,2.91-5.89,4.32-8.85.85-1.79,1.39-3.68,1.46-5.69.07-2.03.06-4.07.3-6.08.93-7.77,1.88-15.53,2.97-23.28.55-3.9,1.32-7.77,2.15-11.62.62-2.88.3-5.57-.89-8.21-.47-1.03-.94-2.06-1.45-3.08-.17-.34-1.89,1.11-2.66,1.88-.82.82-3.04,1.95-3.16,1.88.14-.85.21-1.73.44-2.55.38-1.32.77-2.65,1.34-3.89.82-1.78,1.07-3.37-.94-4.68h0Zm11.74,13.59c.82-.52,1.29-.84,1.78-1.14,3.37-2.1,7-3.46,11.01-3.07,2.11.2,4.18.86,6.26,1.37,1,.24,1.72-.17,1.69-1.19-.01-.52-.17-1.07-.41-1.54-.84-1.71-1.64-3.45-2.64-5.07-3.47-5.65-7.02-11.25-10.52-16.87-1.43-2.3-2.92-4.57-4.38-6.85-3.67-5.73-7.5-11.36-11.42-16.92-2.59-3.67-5.68-6.92-9.21-9.73-1.99-1.58-4.22-2.69-6.67-3.36-2.81-.78-5.62-1.6-8.42-2.43-2.28-.68-4.53-1.41-6.96-2.17-.35.8-.7,1.47-.94,2.19-.43,1.24-.71,2.54-1.2,3.75-2.42,5.91-6.82,8.27-13.7,7.36-2.54-.34-4.47-1.8-6.3-3.51-3.13-2.91-4.64-6.29-3.57-10.59.06-.22.07-.45.12-.77-.34-.09-.61-.22-.88-.22-3.22-.02-6.46-.24-9.67.02-3.86.31-7.29,1.79-9.65,5.11-1,1.41-2.03,2.8-2.95,4.27-4.03,6.46-6.76,13.56-9.93,20.44-2.14,4.65-3.63,9.64-7.78,13.15,1.39,1.93,1.27,4.06,1.17,6.23-.12,2.62-.38,5.28-.05,7.86.47,3.7-.12,7.13-1.47,10.51-.28.7-.55,1.41-.92,2.36.52-.17.79-.23,1.03-.36,2.03-1.07,3.87-2.38,5.31-4.19,1.15-1.45,2.31-2.9,3.38-4.41,3.76-5.32,7.63-10.55,12.15-15.27.7-.73.85-1.45.71-2.42-.27-1.82-.44-3.67-.58-5.51-.04-.53.18-1.07.3-1.73,1.05.45,1.08,1.22,1.24,1.88.82,3.36,1.72,6.7,2.38,10.09.73,3.75,1.28,7.53,1.82,11.31.42,3.01.63,6.06,1.06,9.07.34,2.44.54,4.86.28,7.32-.14,1.36-.21,2.74-.26,4.11-.05,1.35.31,2.59,1.1,3.71.31.42.7.91.72,1.37.01.44-.43.89-.7,1.4,9.83,8.88,21.78,12.16,34.72,13.27.14,2.11.54,4.25.39,6.36-.66,9.53-1.53,19.04-2.21,28.57-.54,7.57-.91,15.15-.51,22.74.36,6.74.67,13.48,1.32,20.2.89,9.28,2.94,18.38,4.7,27.53,2.22,11.61,4.34,23.24,6.22,34.91,1.52,9.43,2.73,18.92,3.85,28.4.64,5.38,1.42,10.79.57,16.24-.08.48-.26,1.09.45,1.41,1.19-4.68.9-9.39.4-14.05-.9-8.37-2.01-16.72-3.22-25.05-2.25-15.49-5.26-30.84-8.33-46.18-2.96-14.79-4.83-29.69-4.94-44.81-.08-10.53.65-21.01,1.33-31.5.55-8.43,1.89-16.81,1.92-25.37,1.92-.29,3.33-1.5,4.8-2.62,1.78-1.35,2.54-3.12,2.49-5.28-.04-1.67-.11-3.35-.29-5-.57-5.16-.29-10.24,1.13-15.26,2.79-9.82,5.94-19.53,9.37-29.15.31-.86.19-1.44-.32-2.12-.61-.81-1.16-1.67-1.63-2.56-.15-.29.04-.76.07-1.14.44.04.96-.05,1.3.16.44.26.76.75,1.1,1.16,2.45,2.93,4.81,5.95,7.37,8.78,2.56,2.82,5.32,5.45,7.81,8.35,2.61,3.05,5,6.23,7.19,9.58.79,1.21,1.12,2.47.87,3.91-.14.85-.14,1.72-.24,2.96h0Zm-40.2,230.02c-.16-3.09-.28-5.95-.49-8.81-.03-.48-.29-1.13-.65-1.36-2.32-1.44-2.76-3.84-3.12-6.18-.98-6.43-1.86-12.88-2.68-19.33-1.32-10.36-2.57-20.73-3.84-31.11-.79-6.46-1.47-12.93-2.35-19.38-1.14-8.34-2.4-16.66-3.66-24.99-1.79-11.8-3.61-23.6-5.44-35.4-.04-.29-.23-.55-.5-1.13-.67,2.34-1.21,4.35-1.83,6.34-3.25,10.3-6.52,20.59-9.81,30.88-.21.66-.23,1.19.07,1.86,2.03,4.52,4.21,8.98,5.93,13.62,3.94,10.6,5.94,21.61,6.24,32.92.1,3.71.57,7.39,1.54,10.98,1.76,6.45,3.6,12.87,5.41,19.3.55,1.95.97,3.95,1.67,5.85.71,1.95.85,2-.55,3.41-.47.47-.69.87-.54,1.56,1.14,5.13,2.23,10.26,3.35,15.39.09.39.19.95.46,1.09,1.52.79,1.66,2.2,1.88,3.64.3,1.97.63,3.93,1,6.16,2.76-1.86,5.37-3.62,7.88-5.31h0Zm-22.79-301.33c-1.08.23-1.57.79-1.62,1.75-.13,2.45.24,4.76,1.74,6.8.46.62.94,1.24,1.37,1.88.92,1.39,2.3,2.06,3.84,2.44,1.04.26,2.11.38,3.15.62,4.25.97,7.98-1.13,9.97-4.35,1.19-1.92,1.69-4.05,2.15-6.22.2-.96.13-1.68-.63-2.41-1.73-1.65-2.55-3.69-2.22-6.13.07-.47.06-.95.09-1.43.33-4.7.32-9.43,1.3-14.08.16-.78.09-1.54-.71-2.05-.2-.13-.29-.44-.45-.69.23-.07.35-.14.45-.13,3.01.26,4.26-2.11,5.02-4.44.15-.47.09-1.08-.06-1.58-.66-2.24-2.63-3.22-4.95-2.5-1.47.46-2.59,1.44-3.61,2.56-.37.41-.74.82-1.25,1.38-.88-2.3-.82-4.37-.65-6.46.23-2.98.51-5.95.61-8.93.07-2.38-1.23-4.06-3.51-4.83-1.6-.54-3.26-.76-4.94-.37-1.74.4-3.48.85-5.21,1.28-.93.23-1.84.56-2.78.66-1.79.2-2.7-.71-2.62-2.5.03-.62.14-1.24.22-1.86-1.45-.25-2.5.22-3.31,1.21-1.92,2.33-2.99,5.06-3.87,7.83.96-.17,1.81-.42,2.65-.42.33,0,.86.55.91.9.05.33-.34.94-.67,1.07-1.07.41-2.19,1-3.45-.12-.36,1.65-.67,3.06-1,4.56,2.36-.48,3.41-.08,3.82,1.32-1.34.6-2.52-.29-3.79-.44-.08.17-.18.33-.22.5-1.09,5.05-.64,9.99,1.3,14.76,1.11,2.75,3.05,4.82,5.73,6.15,2.98,1.48,6.11,1.5,9.27.82,1.81-.38,3.57-.97,5.36-1.43.46-.12.95-.09,1.69-.15-.31.59-.4.87-.58,1.09-1.29,1.61-3.01,2.47-5.02,2.83-.61.11-1.2.3-1.77.45.63,4.1.17,12.25-.76,13.94-1.08-.83-.36-2.18-.97-3.27h0Zm65.58,157.14c.06,0,.11,0,.16,0,.03-.44.07-.89.08-1.33.08-4.9.14-9.79.24-14.69,0-.54-.21-1.2.69-1.7.18.57.39,1.03.48,1.51.62,3.47,1.21,6.94,1.83,10.4.12.69.32,1.37.48,2.06.36-.48.46-.89.44-1.29-.12-2.27-.25-4.53-.41-6.79-.25-3.33-.77-6.66-.74-9.99.05-4.58-.41-9.05-1.66-13.45-1.2-4.25-1.19-8.53.23-12.71,1.94-5.7,3.96-11.39,6.14-17,2.6-6.67,5.42-13.26,8.13-19.89.24-.59.43-1.2.62-1.72-.21-.22-.28-.33-.37-.39-.09-.07-.2-.13-.32-.15-5.28-1.19-10.42-.94-15.37,1.49-1.28.63-2.07,1.52-2.42,2.89-.44,1.74-.98,3.44-1.42,5.18-1.08,4.34-2.54,8.59-3.04,13.07-.82,7.3-1.61,14.6-2.51,21.88-.39,3.19-.68,6.46-1.58,9.52-1.8,6.06-3.72,12.1-6.65,17.75-.17.33-.24.71-.43,1.29.6-.34.99-.49,1.31-.75,1.15-.95,2.22-2,3.42-2.87.8-.58,1.02-1.23.92-2.13-.09-.72-.1-1.44-.16-2.51.44.4.64.49.67.62,1.76,7.89,2.89,15.88,3.88,23.93.17-.37.31-.75.32-1.13.05-1.91.16-3.82.07-5.73-.19-3.87-.5-7.74-.78-11.61-.06-.85-.18-1.69.58-2.83,1.94,7.68,2.31,15.12,2.64,22.58.26-.57.36-1.13.39-1.7.3-6.26.58-12.52.88-18.78.02-.48-.13-1.07.77-1.43.84,6.22,1.67,12.32,2.49,18.43h0ZM54.93,139.83c-.98.07-1.72.57-2.18,1.34-.58.96-1.08,1.99-1.51,3.03-.43,1.05-.68,2.17-1.13,3.21-.82,1.91-2.62,2.48-4.44,1.47-1.47-.81-2.45-2.55-2.13-4.2.35-1.75.86-3.47,1.38-5.18.35-1.13,1.22-1.73,2.38-1.91.73-.12,1.46-.22,2.61-.4-1.88-1.15-3.37-2.06-4.93-3-1.45,1.96-2.19,3.99-2.92,5.99-.71,1.98-1.99,3.66-2.7,5.68-.92-.05-1.12-.83-1.47-1.4-1.45-2.47-2.88-4.96-4.33-7.43-.21-.36-.52-.66-.78-.99.06.66.33,1.18.54,1.72.99,2.62,1.99,5.24,2.93,7.87.2.56.66,1.38-.22,1.69-.73.26-.88-.62-1.21-1.08-1.09-1.52-2.18-3.04-3.27-4.57-.11.07-.21.14-.31.21.47.8.96,1.59,1.41,2.4.52.94,1.06,1.87,1.48,2.86.13.3,0,1.03-.15,1.08-.37.12-.86,0-1.27-.13-.25-.09-.41-.42-.64-.61-1.34-1.04-2.69-2.06-4.03-3.09,1.08,2.01,2.41,3.75,3.47,5.65,1.31,2.34,2.43,4.79,3.56,7.23,1.91,4.12,3.62,8.33,5.67,12.37,2.04,4.01,3.89,8.08,5.15,12.39,2.04,6.99,4,14.01,6.02,21.01,1.72,5.98,3.84,11.81,6.79,17.31,1.81,3.36,4.06,6.29,7.83,7.99.89-2.33,1.81-4.66,2.66-7.01.76-2.12.93-4.31.57-6.54-.45-2.8-.33-5.59-.08-8.4.1-1.07.1-2.15.09-3.22,0-.61-.17-1.19-.86-1.43-1.36-.46-2.02-1.58-2.7-2.74-1.78-3.04-3.52-6.1-5.41-9.08-5.4-8.53-10.74-17.08-14.84-26.36-.96-2.17-.84-3.9.46-5.66.95-1.3,2.03-2.5,3.09-3.71,2.35-2.68,3.72-5.81,4.35-9.29.3-1.63.67-3.25,1.05-5.08h0Zm83.85,318.27c-3.87,3.77-8.31,6.25-12.65,8.86-5.18,3.11-10.73,5.48-16.31,7.75-1.36.55-2.63,1.38-3.82,2.26-.86.64-1.48,1.61-1.37,2.78.04.41.29,1.02.61,1.15,2.68,1.13,5.31,2.51,8.39,2.1,3.93-.52,7.72-1.53,11.38-3.04,4.22-1.74,8.53-3.05,13.14-3.21,2.26-.08,4.53-.19,6.78-.46,3.82-.46,7.5-1.38,10.68-3.76.83-.62,1.1-1.22.97-2.24-.41-3.07-.71-6.17-1.07-9.25-.05-.46-.17-.9-.31-1.59-2.57,2.19-5.37,3.18-8.54,2.85-3.1-.32-6.08-.92-7.87-4.21h0Zm-28.27-5.37c-1.1.93-2.17,1.87-3.28,2.77-6.36,5.12-13.2,9.44-20.76,12.59-1.21.5-2.4,1.08-3.54,1.71-.96.53-1.75,1.25-1.62,2.66,1.97,1.01,4.11,1.51,6.29,1.78,4.49.55,8.78-.19,12.92-2.06,1.94-.88,4-1.57,6.07-2.09,1.96-.49,4-.67,6.01-.91.7-.08,1.51-.21,2.32.72-1.07.25-1.9.56-2.76.63-2.05.16-4,.61-5.88,1.45-2.02.9-4.04,1.78-6.07,2.64-5.7,2.41-11.45,2.69-17.25.39-.36-.14-.74-.26-1.32-.45.09.5.1.79.2,1.04.99,2.61,2.87,4.21,5.61,4.73,1.29.24,2.61.29,3.9.52,4.05.72,7.75-.76,11.51-1.61.61-2.49,2.19-3.98,4.21-5.06.95-.5,1.94-.92,2.93-1.33,5.65-2.29,11.14-4.92,16.39-8.03.55-.33,1.07-.7,1.35-.89-.35-2.3-.65-4.31-.97-6.38-6.86,3.42-13.47.23-16.26-4.81h0Zm78.18-74.95c-.24,1.45.2,2.24.66,2.98,1.73,2.79,3.44,5.61,5.93,7.83,1.56,1.39,3.07,2.84,4.61,4.25,1.67,1.54,3.36,3.05,5,4.63.9.87,1.09,1.67.62,2.18-.67.73-1.42.35-2.15.07-3.59-1.36-7.01-3.06-10.15-5.27-2.59-1.82-5.08-3.78-7.64-5.62-8.75-6.28-17.13-13-24.76-20.63-1.93-1.94-3.82-3.91-5.47-6.13-2.55-3.44-4.09-7.28-5.03-11.36-.99-4.33-1.2-8.77-.65-13.19.88-7.11,1.86-14.21,2.85-21.31.79-5.62,1.53-11.25,1.37-16.94-.01-.51-.06-1.02-.09-1.53-.71,2.55-1.16,5.12-1.45,7.7-1.06,9.32-2.04,18.64-3.09,27.96-.53,4.63-1.26,9.23-1.18,13.91.05,3.1.63,6.03,1.92,8.85,1.36,2.99,2.64,6.01,3.99,9.01.4.89.9,1.74,1.49,2.86.38-1.17-.37-2.06.12-2.84,2.46,2.54,4.78,5.11,7.29,7.48,8.22,7.79,17.12,14.72,26.6,20.89,2.7,1.76,5.45,3.47,8.28,4.99,5.58,3.01,11.5,5.29,17.41,7.55,2.16.83,4.45,1.34,6.69,1.96.55.15,1.14.16,1.71.24-1.16-.82-2.42-1.32-3.66-1.85-1.86-.8-3.72-1.6-5.56-2.46-.47-.22-.94-.56-1.26-.97-.21-.26-.32-.85-.17-1.08.16-.25.77-.43,1.06-.32,1,.39,1.93.93,2.9,1.39.44.21.9.38,1.66.69-.2-.7-.3-1.02-.39-1.35-.55-1.94.49-3.24,2.48-2.98.93.12,1.86.44,2.74.8,1.49.61,2.92,1.36,4.41,1.98,2.36.98,4.78,1.75,7.36,2.06-.25-.34-.55-.59-.89-.77-3.29-1.7-6.63-3.31-9.87-5.09-8.83-4.84-16.63-11.18-24.67-17.16-.58-.43-1.02-1.09-1.89-1.04,2.67,2.73,6.22,4.66,7.76,8.73-.69-.08-1.2,0-1.58-.2-1.32-.68-2.69-1.33-3.86-2.23-3.08-2.36-6.05-4.86-9.09-7.28-.62-.5-1.36-.85-2.32-1.43h0ZM332.31,93.47c-.43-.14-.7-.26-.99-.32-4.61-.96-9.21-2.02-13.85-2.83-3.7-.65-7.44-1.35-11.18-1.4-7.76-.1-15.53.2-23.29.39-1.91.05-3.81.28-5.71.5-1.22.14-2.3.67-3.23,1.65,4.91.14,9.81-.35,14.74.76-.88.34-1.76.67-2.78,1.07.33.13.5.19.65.26,1.68.83,1.78,1.99.21,3.05-.64.43-1.34.79-2.05,1.1-3.51,1.52-6.99,3.1-10.55,4.48-8.48,3.29-16.59,7.35-24.66,11.53-.37.19-.72.46-1.08.69.06.11.11.22.17.34,9.21-4.38,18.49-8.54,28.31-11.45,9.91-2.94,19.99-4.47,30.27-5.22,10.26-.75,20.39-.05,30.54,1.33,10.23,1.4,19.84,4.96,29.53,8.29-2.73-1.48-5.47-2.87-8.48-3.68-1.96-.52-3.9-1.11-5.84-1.71-2.74-.85-5.44-1.8-8.2-2.58-2.93-.84-5.9-1.5-8.84-2.3-1.03-.28-2.04-.68-2.97-1.2-1.29-.71-1.35-1.12-.75-2.74h0Zm-217.8,215.06c0-.43.06-.88,0-1.3-.7-4.06-1.34-8.13-2.17-12.17-2.16-10.53-3.71-21.17-5.35-31.79-.27-1.77-.63-3.52-1.03-5.27-.14-.62-.22-1.45-1.44-1.54.41,5.51,1.55,10.81,2.18,16.4-1.2-1.01-1.34-2.68-3.07-3.5.29.92.4,1.55.67,2.11.81,1.66,1.69,3.29,2.52,4.95.26.53.55,1.07.66,1.64,1.27,6.63,2.51,13.26,3.77,19.88.16.85.12,1.55-.35,2.36-.69,1.17-1.14,2.5-1.61,3.78-1.52,4.08-2.96,8.2-4.51,12.27-3.44,9.05-6.48,18.23-8.92,27.59-1.38,5.3-1.42,10.6,0,15.94.92,3.46,1.66,6.97,2.3,10.49,2.74,15.11,5.76,30.15,9.79,44.97,1.44,5.3,3.22,10.5,4.86,15.74.18.58.51,1.11.77,1.67.14-.06.28-.11.42-.17-.38-1.17-.77-2.33-1.13-3.5-4.48-14.7-7.9-29.65-10.85-44.72-1.64-8.38-3.19-16.78-5-25.12-1.03-4.77-1.26-9.49.05-14.17,1.62-5.8,3.35-11.58,5.23-17.31,2.59-7.88,5.37-15.7,8.06-23.55.4-1.18.79-2.37,1.27-3.82,1.34,2.75.81,5.86,2.89,8.12h0Zm-6.96,130.73c.22.54.42,1.1.66,1.63.8,1.74,1.64,3.45,2.4,5.2.76,1.75,1.5,3.53,1.36,5.49-.05.71.32,1.1.78,1.5,1.7,1.47,3.64,2.53,5.81,3.04,2.12.51,4.2.25,6.04-.65-1.39-6.32-2.73-12.42-4.06-18.43-4.37.75-8.63,1.48-13,2.23h0Zm-2.68,43.53c.54,2.13,1.05,3.99,3.19,4.56,1.65.44,3.39.76,5.09.8,5.57.12,10.9-1.03,15.94-3.46,4.2-2.03,8.6-3.01,13.31-3.05,3.2-.03,6.42-.52,9.6-.98,1.91-.28,3.65-1.12,4.95-2.65.25-.3.56-.72.54-1.06-.08-.99-.31-1.97-.47-2.93-1.45.84-2.74,1.69-4.12,2.37-3.51,1.72-7.31,2.25-11.15,2.15-5.43-.13-10.53,1.07-15.47,3.17-3.25,1.38-6.63,2.35-10.1,3.01-3,.57-5.93.52-8.75-.82-.74-.35-1.51-.66-2.54-1.11h0Zm34.26-33.99c.22,2.23.54,4.16.57,6.11.05,2.44,1.41,3.78,3.51,4.33,1.7.45,3.51.64,5.27.66,2.35.02,4.17-1.25,5.67-2.98.2-.24.33-.63.32-.95-.07-2.02-.18-4.04-.3-6.07-.02-.38-.16-.75-.24-1.1-4.98,1.26-9.82,2.71-14.81,0h0Zm12.84-179.16c0-1.47-.15-2.85.03-4.18.96-7.34,1.85-14.69,3.03-22,1.36-8.38,3.85-16.5,6.37-24.6.82-2.62,1.62-5.25,2.42-7.88.18-.6.56-1.26-.59-1.7-.43.89-.94,1.75-1.28,2.67-2.64,7.12-4.57,14.46-6.46,21.8-2.08,8.06-2.98,16.32-3.89,24.57-.21,1.93-2.21-.05-2.43,1.88-1.76-3.92-1.9-3.72-4.09-7.62-.18.51-.32.69-.27.8,2.08,4.95,4.18,9.89,6.3,14.82.22.51.59.97.87,1.44h0Zm57.67-126.85c-.17-.08-.24-.14-.27-.12-.21.12-.42.22-.6.37-8.85,7.01-16.6,15.11-23.36,24.14-2.6,3.48-4.81,7.26-7.14,10.94-.77,1.21-1.36,2.52-2.04,3.78-.3.55-.6,1.09.2,1.48.12-.06.25-.1.31-.18.25-.34.48-.68.71-1.03,7.82-12.29,16.73-23.7,27.1-33.96,1.4-1.39,2.76-2.81,4.12-4.24.35-.36.63-.78.97-1.19h0Zm-29.38-12.82c-.09-.13-.18-.26-.27-.39-.72.46-1.51.85-2.15,1.4-1.85,1.6-3.7,3.21-5.43,4.94-7.08,7.08-13.34,14.82-18.82,23.19-.33.51-.59,1.06-.95,1.74.43-.05.6-.01.65-.08,8.1-10.59,16.59-20.83,26.35-29.96.25-.24.42-.56.63-.85h0Zm-128.25,9.28c-1.6.18-2.96.31-4.3.51-.31.05-.76.28-.84.52-.5,1.58-.97,3.18-1.33,4.8-.09.4.17.93.4,1.33.37.65.98,1.23,1.73.96.44-.15.83-.81.99-1.33.75-2.38,1.39-4.79,3.35-6.8h0Zm213.7-47.68c-1.95-.47-16.3,2.74-18.98,4.35.88-.06,1.37-.06,1.85-.14,2.46-.43,4.93-.85,7.38-1.33,2.57-.51,5.12-1.06,7.68-1.64.78-.18,1.58-.41,2.07-1.24h0Zm-36.1,319.04c1.76,2.39,12.41,4.8,15.62,3.54-5.35-1.48-10.51-2.38-15.62-3.54Zm-41.05-287.53c-2.05.44-4.77,2.69-5.16,4.12,1.62-.33,4.27-2.39,5.16-4.12Zm181.22-14.22c.07-.08.13-.15.19-.22-.35-.14-.7-.29-1.06-.43-.02.06-.04.12-.06.17l.92.48h0Z"/>
    <path class="cls-1" d="m172.44,224.37c1.19,2.64,1.51,5.33.89,8.21-.83,3.85-1.6,7.72-2.15,11.62-1.09,7.75-2.04,15.51-2.97,23.28-.24,2.01-.23,4.05-.3,6.08-.07,2.01-.61,3.89-1.46,5.69-1.41,2.97-2.88,5.91-4.32,8.85-.82,1.66-1.65,3.31-2.44,4.99-.33.7-.62,1.43-.82,2.18-.56,2.2,0,2.94,2.37,3.11-.14.46-.23.92-.42,1.33-.32.69-.27,1.29.32,1.78.64.54,1.35.46,1.97-.03,1.44-1.14,2.86-2.32,4.27-3.5.35-.29.67-.62,1.17-1.09.29,2.14.56,4.06.82,5.99.53,3.78,1.04,7.57,1.59,11.35.15,1.06.38,2.12.71,3.14.18.58.63,1.08,1.05,1.75.56-.51.93-.85,1.36-1.25.16.38.24.83.5,1.13.36.42.8.96,1.29,1.05.73.14.96-.62,1.08-1.19.31-1.46.55-2.93.79-4.4.12-.69.16-1.4.58-2.14.21.8.38,1.6.64,2.38.31.93.41,2.31,1.65,2.25,1.3-.06,1.15-1.51,1.33-2.43.29-1.44.35-2.93.56-4.8.37.81.57,1.29.81,1.74.34.63.68,1.38,1.56,1.22.85-.15,1.05-.95,1.11-1.66.1-1.19.14-2.38.09-3.57-.08-1.49-.23-2.98-.44-4.46-.61-4.28-.46-8.59-.31-12.88.14-3.99-.27-7.87-1.38-11.69-1.3-4.45-1.27-8.86.4-13.19,3.11-8.08,6.27-16.14,9.46-24.19,1.69-4.27,3.5-8.51,5.21-12.77.37-.94.65-1.93.85-2.92.13-.69.17-1.45.04-2.13-.98-5.02-2.7-9.72-5.72-13.94-3.27-4.56-15.42-21.52-15.13-21.98,3.23-5.17,6.76-12.03,10.23-17.03,6.56-9.44,14.09-18.1,22.44-26.01,2.07-1.97,4.38-3.7,6.61-5.5,3.76-3.04,7.47-6.16,11.34-9.06,8.41-6.29,17.63-11.19,27.2-15.47,10.17-4.55,20.74-7.96,31.54-10.6,12.69-3.11,25.59-3.93,38.62-3.03,15.86,1.1,30.97,5.03,45.3,11.91,9.53,4.58,18.35,10.2,26.21,17.34,4.92,4.47,9.53,9.2,14.01,14.08,16,17.43,25.35,38.21,30.48,61.01,6.7,29.8,4.74,59.29-4.65,88.24-11.71,36.11-32.59,65.83-63.03,88.68-7.28,5.46-15.01,10.22-23.17,14.26-1.86.92-3.84,1.63-5.83,2.27-4.72,1.5-9.44,3.02-14.22,4.3-5.99,1.61-12.04,3.03-18.07,4.49-3.89.94-7.79,1.83-11.69,2.7-2.51.56-5.02,1.08-7.55,1.52-1.41.25-2.84.4-4.27.43-42.75.81-81.53-19.01-105.91-54.16-3.88-5.6-7.69-11.25-11.32-17-6.83-10.82-12.15-22.36-15.39-34.77-1.34-5.14-2.64-10.32-3.44-15.56-1.21-7.96-.84-15.95.43-23.92.53-3.35.7-6.77.95-10.16,1.06-14.49,4.78-28.35,9.95-41.86.06-.16,6.19,8.97,6.66,10h0Zm108.02-4.59c-.94,1.19-.68,2.22-.5,3.18.87,4.57,1.59,9.19,2.73,13.7,2.4,9.55,5.15,19.02,7.53,28.57,2.54,10.21,5.58,20.26,8.78,30.27,2.37,7.39,4.77,14.77,7.16,22.16,1.01,3.12,2.06,6.24,3.06,9.36,1.71,5.34,3.31,10.73,5.12,16.04,2.55,7.52,5.18,15.02,7.93,22.46,1.03,2.78,2.37,5.48,3.8,8.09,1.27,2.31,3.13,3.84,6.09,3.52,2.34-.25,3.46-.98,4.11-3.27.65-2.3.59-4.64.07-6.92-.57-2.5-1.28-4.97-2.06-7.42-4.15-13.03-8.47-26-13.32-38.8-7.37-19.43-14.67-38.89-22.01-58.33-.38-1-.85-1.98-1.27-2.96-5.53-12.83-11.06-25.66-16.59-38.49-.13-.31-.31-.6-.61-1.17h0Zm98.63,27.35c10.68.02,20.32-3.65,27.5-10.28,7.02-6.47,11.3-14.42,11.6-24.04.43-13.54-5.75-23.54-17.54-29.96-8.09-4.41-16.83-5.32-25.75-3.25-12.52,2.91-21.74,10.09-27.01,21.97-2.19,4.94-3.19,10.23-2.77,15.56.61,7.74,4.3,14.26,9.63,19.75,6.85,7.07,15.48,10.08,24.33,10.26h0Zm-142.23,23.22c16.32,0,27.23-7.04,34.67-19.79,2.63-4.5,4-9.49,4.03-14.72.1-13.55-6.09-23.49-17.97-29.72-14.16-7.43-32.53-4.4-44.16,6.96-5.04,4.92-8.5,10.76-10.03,17.66-.47,2.15-.54,4.38-.91,6.56-.34,1.99-.19,3.93.26,5.86,1.78,7.55,5.48,13.97,11.32,19.09,3.46,3.03,7.38,5.34,11.84,6.48,3.99,1.02,8.06,1.72,10.94,1.62h0Zm67.78-59.43c9.3-.16,18.26-3.44,25.78-10.31,6.65-6.07,10.73-13.57,11.52-22.62,1.15-13.24-5.53-25.26-17.47-31.4-9.95-5.12-20.35-5.66-30.74-1.74-13.48,5.09-22,14.65-24.35,29.14-.44,2.74-.96,5.55-.35,8.36,2.57,11.69,8.9,20.45,19.96,25.48,4.69,2.13,9.67,3.03,15.65,3.08h0Zm62.06,173.33c1.56-.2,2.75-.94,3.85-1.82,4.02-3.2,7.97-6.47,12.04-9.61,3.99-3.08,7.52-6.66,10.92-10.34,6.56-7.12,12.68-14.6,17.85-22.83,3.68-5.86,7.63-11.56,11.19-17.49,2.11-3.52,3.68-7.36,5.55-11.03,3.49-6.84,6.06-14.02,7.98-21.43.38-1.48.38-3.07.4-4.61,0-1.09-.77-1.47-1.71-.94-.4.23-.8.56-1.06.94-.61.88-1.24,1.77-1.68,2.74-2.07,4.57-4.08,9.16-6.13,13.74-2.29,5.12-4.63,10.22-6.87,15.37-1.88,4.32-4.32,8.38-5.71,12.93-.36,1.18-1.05,2.28-1.7,3.34-1.09,1.78-2.19,3.57-3.43,5.24-5.15,6.95-10.36,13.87-15.55,20.8-3.27,4.37-7.14,8.18-11.23,11.78-4.12,3.63-8.31,7.19-12.44,10.81-.83.73-1.53,1.6-2.29,2.41h0Zm69.78-100.79c1.37-.35,2.27-1.17,2.68-2.43.43-1.3.79-2.62,1.06-3.96.27-1.33-.33-2.31-1.37-2.52-.97-.19-1.89.41-2.21,1.62-.36,1.38-.64,2.78-.87,4.19-.17,1.08.12,2.1.7,3.09h0Z"/>
    <path class="cls-1" d="m146.62,403.79c-2.25-15.49-5.26-30.84-8.33-46.18-2.96-14.79-4.83-29.69-4.94-44.81-.08-10.53.65-21.01,1.33-31.5.54-8.33,1.85-16.6,1.92-25.06-.67.06-1.29.34-1.93.52.16,2.03.51,4.09.37,6.11-.66,9.53-1.53,19.04-2.21,28.57-.54,7.57-.91,15.15-.51,22.74.36,6.74.67,13.48,1.32,20.2.89,9.28,2.94,18.38,4.7,27.53,2.22,11.61,4.34,23.24,6.22,34.91,1.52,9.43,2.73,18.92,3.85,28.4.64,5.38,1.42,10.79.57,16.24-.08.48-.26,1.09.45,1.41,1.19-4.68.9-9.39.4-14.05-.9-8.37-2.01-16.72-3.22-25.05h0Z"/>
    <path class="cls-1" d="m114.79,156.2c.62,1.09-.1,2.44.97,3.27.93-1.68,1.39-9.84.76-13.94.58-.15,1.16-.35,1.77-.45,2.01-.36,3.73-1.21,5.02-2.83.17-.22.27-.5.58-1.09-.74.06-1.23.04-1.69.15-1.79.46-3.55,1.05-5.36,1.43-3.16.67-6.29.65-9.27-.82-2.69-1.33-4.62-3.41-5.73-6.15-1.94-4.77-2.38-9.71-1.3-14.76.04-.17.14-.32.22-.5,1.28.14,2.45,1.04,3.79.44-.41-1.4-1.46-1.79-3.82-1.32.33-1.51.63-2.91,1-4.56,1.26,1.12,2.38.53,3.45.12.34-.13.72-.74.67-1.07-.05-.35-.59-.9-.91-.9-.85,0-1.69.25-2.65.42.88-2.76,1.95-5.5,3.87-7.83.82-.99,1.86-1.46,3.31-1.21-.08.62-.19,1.24-.22,1.86-.08,1.79.83,2.71,2.62,2.5.94-.11,1.85-.44,2.78-.66,1.74-.43,3.47-.88,5.21-1.28,1.68-.39,3.34-.16,4.94.37,2.29.77,3.59,2.44,3.51,4.83-.09,2.98-.37,5.95-.61,8.93-.16,2.09-.23,4.16.65,6.46.51-.56.88-.98,1.25-1.38,1.02-1.11,2.14-2.1,3.61-2.56,2.32-.72,4.29.25,4.95,2.5.14.49.21,1.1.06,1.58-.76,2.33-2.01,4.71-5.02,4.44-.11,0-.22.06-.45.13.16.26.25.57.45.69.8.51.87,1.27.71,2.05-.98,4.64-.97,9.37-1.3,14.08-.03.48-.02.96-.09,1.43-.34,2.44.49,4.47,2.22,6.13.76.73.83,1.45.63,2.41-.46,2.17-.97,4.31-2.15,6.22-2,3.22-5.72,5.33-9.97,4.35-1.05-.24-2.11-.36-3.15-.62-1.54-.38-2.92-1.05-3.84-2.44-.43-.65-.91-1.26-1.37-1.88-1.5-2.03-1.87-4.35-1.74-6.8.05-.96.53-1.52,1.62-1.75h0Zm.12-24.9c.69.1,1.16.16,1.64.22,0-.5.16-1.08-.04-1.47-.34-.67-.86-1.27-1.41-1.79-.44-.42-1.12-.65-1.56-.05-.15.21.19.79.33,1.19.05.16.14.32.27.59-1.74,1.43-3.7,2.33-5.94,2.62-.61.08-1.3-.02-1.73.61,1.8,1.8,5.45.9,8.44-1.93h0Zm-9.94-5.25c.45-1.38.85-2.67,1.3-3.94.53-1.48,1.52-2.37,3.18-2.4.41,0,.81-.21,1.45-.38-2.31-1.25-4.34-.76-5.32,1.38-.81,1.76-1.21,3.71-1.71,5.6-.09.33.12,1.02.32,1.08.65.19,1.37.21,2.07.2.65-.01,1.3-.16,1.48-1.25-.88-.09-1.72-.18-2.76-.29h0Zm15.47-10.35c-.96-1.96-2.78-2.69-5.5-2.52-1.37.09-1.61.23-1.87,1.03,2.36.48,4.73.96,7.37,1.49h0Zm-7.55,5.18c.21.1.34.22.41.2,1.92-.69,3.86-1.17,5.93-.8.25.04.57-.32.85-.5-.22-.31-.37-.75-.68-.91-2.09-1.08-5.04-.19-6.51,2.01h0Z"/>
    <path class="cls-1" d="m180.37,313.34c-.83-6.11-1.65-12.21-2.49-18.43-.9.36-.75.95-.77,1.43-.3,6.26-.58,12.52-.88,18.78-.03.57-.13,1.13-.39,1.7-.33-7.46-.7-14.89-2.64-22.58-.77,1.13-.64,1.98-.58,2.83.28,3.87.59,7.74.78,11.61.1,1.9-.02,3.82-.07,5.73,0,.38-.14.76-.32,1.13-.99-8.04-2.12-16.04-3.88-23.93-.03-.13-.22-.22-.67-.62.07,1.06.08,1.79.16,2.51.11.9-.12,1.56-.92,2.13-1.2.87-2.28,1.92-3.42,2.87-.32.26-.71.42-1.31.75.19-.58.26-.96.43-1.29,2.93-5.65,4.85-11.69,6.65-17.75.91-3.06,1.19-6.33,1.58-9.52.89-7.29,1.68-14.59,2.51-21.88.5-4.48,1.96-8.73,3.04-13.07.43-1.74.98-3.45,1.42-5.18.35-1.37,1.14-2.27,2.42-2.89,4.95-2.43,10.08-2.68,15.37-1.49.11.03.22.09.32.15.09.07.16.17.37.39-.18.52-.37,1.13-.62,1.72-2.72,6.63-5.53,13.22-8.13,19.89-2.19,5.61-4.21,11.3-6.14,17-1.42,4.17-1.43,8.45-.23,12.71,1.25,4.4,1.7,8.87,1.66,13.45-.03,3.33.49,6.66.74,9.99.17,2.26.3,4.52.41,6.79.02.4-.08.81-.44,1.29-.16-.68-.36-1.36-.48-2.06-.62-3.47-1.21-6.94-1.83-10.4-.09-.48-.3-.94-.48-1.51-.91.49-.68,1.15-.69,1.7-.09,4.9-.16,9.79-.24,14.69,0,.44-.05.89-.08,1.33-.06,0-.11,0-.16,0h0Z"/>
    <path class="cls-1" d="m54.94,139.83c-.38,1.83-.75,3.45-1.05,5.08-.64,3.48-2,6.61-4.35,9.29-1.06,1.21-2.14,2.42-3.09,3.71-1.3,1.76-1.42,3.49-.46,5.66,4.1,9.28,9.45,17.82,14.84,26.36,1.88,2.98,3.63,6.04,5.41,9.08.67,1.15,1.34,2.28,2.7,2.74.69.23.85.82.86,1.43,0,1.07,0,2.15-.09,3.22-.25,2.8-.38,5.6.08,8.4.36,2.23.19,4.42-.57,6.54-.85,2.35-1.77,4.67-2.66,7.01-3.77-1.7-6.03-4.62-7.83-7.99-2.95-5.5-5.07-11.33-6.79-17.31-2.02-7-3.98-14.02-6.02-21.01-1.26-4.31-3.11-8.38-5.15-12.39-2.05-4.04-3.76-8.26-5.67-12.37-1.13-2.44-2.25-4.89-3.56-7.23-1.06-1.89-2.39-3.64-3.47-5.65,1.34,1.03,2.7,2.06,4.03,3.09.23.18.39.52.64.61.4.14.89.25,1.27.13.16-.05.29-.78.15-1.08-.42-.98-.96-1.92-1.48-2.86-.45-.81-.94-1.6-1.41-2.4.11-.07.21-.14.31-.21,1.09,1.52,2.17,3.05,3.27,4.57.33.45.48,1.33,1.21,1.08.88-.32.42-1.13.22-1.69-.94-2.64-1.94-5.25-2.93-7.87-.2-.54-.48-1.06-.54-1.72.26.33.57.63.78.99,1.45,2.47,2.88,4.96,4.33,7.43.34.58.54,1.35,1.47,1.4.71-2.02,1.98-3.71,2.7-5.68.73-2.01,1.47-4.03,2.92-5.99,1.56.95,3.05,1.86,4.93,3-1.14.17-1.88.28-2.61.4-1.15.18-2.04.78-2.38,1.91-.52,1.71-1.04,3.43-1.38,5.18-.33,1.65.66,3.39,2.13,4.2,1.82,1,3.62.44,4.44-1.47.45-1.04.69-2.16,1.13-3.21.43-1.04.93-2.07,1.51-3.03.47-.77,1.2-1.27,2.18-1.34h0Z"/>
    <path class="cls-1" d="m138.79,458.11c1.8,3.28,4.78,3.89,7.87,4.21,3.17.33,5.97-.66,8.54-2.85.14.69.26,1.14.31,1.59.36,3.08.65,6.18,1.07,9.25.14,1.02-.14,1.62-.97,2.24-3.18,2.37-6.86,3.3-10.68,3.76-2.25.27-4.52.38-6.78.46-4.61.16-8.92,1.47-13.14,3.21-3.66,1.51-7.45,2.52-11.38,3.04-3.08.4-5.71-.97-8.39-2.1-.32-.13-.57-.74-.61-1.15-.11-1.17.51-2.14,1.37-2.78,1.19-.88,2.46-1.71,3.82-2.26,5.59-2.27,11.13-4.64,16.31-7.75,4.34-2.61,8.77-5.09,12.65-8.86h0Z"/>
    <path class="cls-1" d="m110.51,452.73c2.79,5.04,9.4,8.24,16.26,4.81.31,2.07.62,4.08.97,6.38-.29.19-.81.56-1.35.89-5.25,3.1-10.74,5.74-16.39,8.03-.99.4-1.99.83-2.93,1.33-2.02,1.08-3.59,2.56-4.21,5.06-3.76.85-7.46,2.33-11.51,1.61-1.29-.23-2.61-.28-3.9-.52-2.74-.52-4.62-2.11-5.61-4.73-.1-.25-.11-.54-.2-1.04.58.2.95.31,1.32.45,5.81,2.3,11.56,2.02,17.25-.39,2.04-.86,4.06-1.74,6.07-2.64,1.87-.84,3.83-1.28,5.88-1.45.85-.07,1.69-.38,2.76-.63-.81-.93-1.61-.8-2.32-.72-2.01.24-4.05.42-6.01.91-2.07.52-4.13,1.21-6.07,2.09-4.14,1.87-8.42,2.61-12.92,2.06-2.18-.27-4.32-.77-6.29-1.78-.13-1.41.66-2.13,1.62-2.66,1.15-.63,2.33-1.21,3.54-1.71,7.56-3.15,14.41-7.46,20.76-12.59,1.11-.89,2.18-1.84,3.28-2.77h0Z"/>
    <path class="cls-1" d="m188.7,377.78c.96.59,1.7.93,2.32,1.43,3.04,2.41,6.01,4.92,9.09,7.28,1.17.9,2.54,1.54,3.86,2.23.38.19.89.12,1.58.2-1.54-4.07-5.09-6-7.76-8.73.87-.06,1.32.61,1.89,1.04,8.04,5.98,15.84,12.32,24.67,17.16,3.25,1.78,6.58,3.39,9.87,5.09.34.17.63.43.89.77-2.58-.31-5-1.09-7.36-2.06-1.49-.61-2.92-1.37-4.41-1.98-.88-.36-1.81-.68-2.74-.8-1.99-.26-3.03,1.04-2.48,2.98.09.33.19.65.39,1.35-.76-.31-1.22-.48-1.66-.69-.97-.46-1.9-1-2.9-1.39-.29-.11-.89.07-1.06.32-.15.24-.04.82.17,1.08.32.4.79.75,1.26.97,1.84.85,3.7,1.65,5.56,2.46,1.24.53,2.5,1.03,3.66,1.85-.57-.08-1.16-.09-1.71-.24-2.24-.62-4.53-1.13-6.69-1.96-5.91-2.26-11.82-4.54-17.41-7.55-2.83-1.53-5.58-3.23-8.28-4.99-9.48-6.18-18.38-13.11-26.6-20.89-2.51-2.37-4.83-4.95-7.29-7.48-.49.79.26,1.67-.12,2.84-.59-1.13-1.09-1.97-1.49-2.86-1.35-3-2.63-6.02-3.99-9.01-1.29-2.82-1.87-5.75-1.92-8.85-.07-4.69.66-9.28,1.18-13.91,1.06-9.32,2.04-18.64,3.09-27.96.29-2.58.74-5.15,1.45-7.7.03.51.08,1.02.09,1.53.16,5.7-.59,11.32-1.37,16.94-.99,7.1-1.97,14.19-2.85,21.31-.55,4.42-.35,8.86.65,13.19.93,4.08,2.47,7.92,5.03,11.36,1.65,2.23,3.54,4.19,5.47,6.13,7.62,7.63,16.01,14.34,24.76,20.63,2.57,1.84,5.05,3.81,7.64,5.62,3.14,2.2,6.56,3.91,10.15,5.27.73.28,1.48.66,2.15-.07.47-.51.29-1.31-.62-2.18-1.63-1.57-3.33-3.09-5-4.63-1.54-1.42-3.05-2.86-4.61-4.25-2.49-2.23-4.19-5.04-5.93-7.83-.46-.74-.9-1.53-.66-2.98h0Zm18.5,11.6c-.13.2-.46.5-.53.84-.1.5.85,1.43,1.55,1.51.27.03.74-.17.84-.39.3-.66-.89-2.02-1.86-1.95Zm4.23,12.49c-.38-.97-1.14-1.78-1.76-1.87-.2-.03-.5.03-.63.17-.13.13-.19.44-.13.63.26.8,1.35,1.28,2.52,1.08h0Z"/>
    <path class="cls-1" d="m332.32,93.47c-.6,1.61-.54,2.02.75,2.74.93.52,1.95.92,2.97,1.2,2.94.81,5.91,1.47,8.84,2.3,2.75.79,5.46,1.74,8.2,2.58,1.94.6,3.88,1.19,5.84,1.71,3.01.81,5.75,2.2,8.48,3.68-9.69-3.33-19.3-6.9-29.53-8.29-10.14-1.38-20.28-2.08-30.54-1.33-10.28.75-20.36,2.28-30.27,5.22-9.81,2.91-19.09,7.07-28.31,11.45-.06-.11-.11-.22-.17-.34.36-.23.7-.49,1.08-.69,8.06-4.18,16.18-8.24,24.66-11.53,3.56-1.38,7.05-2.96,10.55-4.48.71-.31,1.41-.66,2.05-1.1,1.56-1.07,1.46-2.23-.21-3.05-.16-.08-.33-.13-.65-.26,1.02-.39,1.9-.73,2.78-1.07-4.94-1.11-9.83-.62-14.74-.76.92-.99,2.01-1.51,3.23-1.65,1.9-.22,3.8-.46,5.71-.5,7.76-.19,15.53-.49,23.29-.39,3.73.05,7.48.75,11.18,1.4,4.64.81,9.24,1.87,13.85,2.83.29.06.57.18.99.32h0Zm-5.57,2.69c.59-.03.83-.03,1.06-.05.7-.06,1.31-.28,1.51-1.03.15-.57-.42-1.44-1.19-1.55-1.1-.15-2.24-.15-3.35-.05-.35.03-.86.56-.9.91-.04.36.31.98.65,1.13.8.36,1.69.5,2.23.65h0Zm-35.56-4.53c1.44,1.18,2.64,1.02,3.59-.39-1.22-.52-2.35-.53-3.59.39Z"/>
    <path class="cls-1" d="m114.52,308.54c-2.08-2.26-1.55-5.38-2.89-8.12-.48,1.45-.86,2.64-1.27,3.82-2.69,7.85-5.47,15.67-8.06,23.55-1.88,5.72-3.62,11.5-5.23,17.31-1.31,4.69-1.08,9.4-.05,14.17,1.81,8.35,3.36,16.74,5,25.12,2.94,15.07,6.37,30.02,10.85,44.72.36,1.17.75,2.33,1.13,3.5-.14.06-.28.11-.42.17-.26-.56-.59-1.09-.77-1.67-1.64-5.24-3.42-10.44-4.86-15.74-4.02-14.82-7.05-29.87-9.79-44.97-.64-3.52-1.38-7.03-2.3-10.49-1.41-5.34-1.37-10.64,0-15.94,2.44-9.37,5.48-18.55,8.92-27.59,1.55-4.07,2.99-8.19,4.51-12.27.48-1.29.93-2.61,1.61-3.78.47-.81.51-1.51.35-2.36-1.26-6.63-2.5-13.26-3.77-19.88-.11-.57-.4-1.11-.66-1.64-.83-1.65-1.71-3.28-2.52-4.95-.27-.56-.38-1.18-.67-2.11,1.73.82,1.86,2.49,3.07,3.5-.62-5.58-1.77-10.89-2.18-16.4,1.22.09,1.3.91,1.44,1.54.4,1.75.75,3.5,1.03,5.27,1.64,10.62,3.18,21.26,5.35,31.79.83,4.03,1.47,8.11,2.17,12.17.07.42,0,.86,0,1.3h0Z"/>
    <path class="cls-1" d="m107.56,439.27c4.37-.75,8.64-1.48,13-2.23,1.33,6.02,2.67,12.11,4.06,18.43-1.84.9-3.92,1.16-6.04.65-2.17-.52-4.11-1.58-5.81-3.04-.46-.4-.83-.78-.78-1.5.13-1.97-.6-3.75-1.36-5.49s-1.6-3.46-2.4-5.2c-.24-.53-.44-1.09-.66-1.63h0Z"/>
    <path class="cls-1" d="m104.88,482.81c1.04.45,1.8.76,2.54,1.11,2.82,1.33,5.75,1.39,8.75.82,3.47-.66,6.85-1.63,10.1-3.01,4.95-2.1,10.04-3.31,15.47-3.17,3.84.1,7.64-.44,11.15-2.15,1.38-.67,2.67-1.53,4.12-2.37.17.96.4,1.94.47,2.93.03.34-.28.76-.54,1.06-1.3,1.53-3.04,2.37-4.95,2.65-3.18.46-6.4.95-9.6.98-4.7.04-9.1,1.02-13.31,3.05-5.04,2.43-10.37,3.58-15.94,3.46-1.7-.04-3.44-.36-5.09-.8-2.15-.57-2.66-2.44-3.19-4.56h0Z"/>
    <path class="cls-1" d="m139.13,448.81c4.99,2.71,9.82,1.26,14.81,0,.08.36.22.73.24,1.1.12,2.02.23,4.04.3,6.07,0,.32-.12.71-.32.95-1.49,1.74-3.31,3.01-5.67,2.98-1.77-.02-3.57-.21-5.27-.66-2.1-.56-3.47-1.89-3.51-4.33-.04-1.94-.35-3.88-.57-6.11h0Z"/>
    <path class="cls-1" d="m151.97,269.66c-.29-.47-.65-.92-.87-1.44-2.12-4.93-4.21-9.87-6.3-14.82-.05-.11.1-.3.27-.8,2.18,3.9,4.09,7.62,5.84,11.53.23-1.93.46-3.86.68-5.8.91-8.25,1.81-16.51,3.89-24.57,1.9-7.34,3.82-14.68,6.46-21.8.34-.92.85-1.78,1.28-2.67,1.15.44.77,1.1.59,1.7-.8,2.63-1.6,5.25-2.42,7.88-2.52,8.1-5.01,16.22-6.37,24.6-1.18,7.31-2.08,14.66-3.03,22-.17,1.33-.03,2.71-.03,4.18h0Z"/>
    <path class="cls-1" d="m209.64,142.8c-.33.41-.62.83-.97,1.19-1.36,1.42-2.72,2.85-4.12,4.24-10.36,10.26-19.28,21.67-27.1,33.96-.22.35-.46.7-.71,1.03-.06.09-.2.12-.31.18-.8-.4-.5-.93-.2-1.48.68-1.26,1.27-2.58,2.04-3.78,2.33-3.68,4.54-7.46,7.14-10.94,6.75-9.03,14.5-17.13,23.36-24.14.18-.14.4-.26.6-.37.03-.02.1.04.27.12h0Z"/>
    <path class="cls-1" d="m180.26,129.99c-.21.28-.38.61-.63.85-9.75,9.13-18.25,19.38-26.35,29.96-.05.06-.22.03-.65.08.37-.68.62-1.23.95-1.74,5.48-8.37,11.74-16.12,18.82-23.19,1.73-1.73,3.58-3.34,5.43-4.94.64-.56,1.43-.94,2.15-1.4.09.13.18.26.27.39h0Z"/>
    <path class="cls-1" d="m265.71,91.58c-.49.82-1.29,1.06-2.07,1.24-2.55.58-5.11,1.13-7.68,1.64-2.45.48-4.92.9-7.38,1.33-.48.08-.97.08-1.85.14,2.68-1.61,17.02-4.82,18.98-4.35h0Z"/>
    <path class="cls-1" d="m229.61,410.62c5.11,1.16,10.27,2.06,15.62,3.54-3.21,1.26-13.86-1.16-15.62-3.54Z"/>
    <path class="cls-1" d="m188.55,123.1c-.89,1.73-3.54,3.79-5.16,4.12.38-1.43,3.11-3.68,5.16-4.12Z"/>
    <path class="cls-1" d="m369.77,108.88l-.92-.48c.02-.06.04-.12.06-.17.35.14.7.29,1.06.43-.07.08-.13.15-.19.22h0Z"/>
    <path class="cls-4" d="m280.46,219.78c.31.58.48.87.61,1.17,5.53,12.83,11.06,25.66,16.59,38.49.42.99.89,1.96,1.27,2.96,7.34,19.44,14.64,38.9,22.01,58.33,4.85,12.79,9.18,25.76,13.32,38.8.78,2.44,1.49,4.92,2.06,7.42.52,2.29.58,4.63-.07,6.92-.64,2.29-1.77,3.02-4.11,3.27-2.96.32-4.83-1.21-6.09-3.52-1.43-2.61-2.77-5.3-3.8-8.09-2.75-7.45-5.37-14.95-7.93-22.46-1.81-5.31-3.41-10.69-5.12-16.04-1-3.13-2.05-6.24-3.06-9.36-2.39-7.38-4.79-14.76-7.16-22.16-3.21-10.01-6.24-20.06-8.78-30.27-2.38-9.56-5.13-19.02-7.53-28.57-1.13-4.51-1.86-9.12-2.73-13.7-.18-.96-.43-1.99.5-3.18h0Zm52.76,149.85c-.38-1.22-.98-2.57-2.25-3.49-.54-.39-.97-.22-1.37.29-1.23,1.56-.5,4.36,1.36,5.15,1.14.48,2.3-.39,2.26-1.94Z"/>
    <path class="cls-4" d="m379.1,247.13c-8.85-.17-17.48-3.19-24.33-10.26-5.32-5.49-9.01-12.01-9.63-19.75-.42-5.32.57-10.61,2.77-15.56,5.27-11.89,14.49-19.06,27.01-21.97,8.92-2.07,17.66-1.16,25.75,3.25,11.78,6.42,17.96,16.42,17.54,29.96-.3,9.62-4.59,17.57-11.6,24.04-7.18,6.63-16.83,10.3-27.5,10.28h0Zm-31.09-30.88c.33,7.99,3.62,15.51,10.95,20.94,1.86,1.38,3.86,2.63,5.95,3.61,15.62,7.35,35.22,1.81,44.71-12.61,4.16-6.32,6.05-13.27,4.9-20.8-1.68-11.04-8.05-18.59-18.22-22.83-16.08-6.71-35.7.14-44.3,15.3-2.71,4.78-4.1,9.91-4,16.38h0Z"/>
    <path class="cls-4" d="m236.87,270.36c-2.88.11-6.95-.6-10.94-1.62-4.47-1.14-8.39-3.45-11.84-6.48-5.84-5.12-9.55-11.55-11.32-19.09-.45-1.93-.6-3.87-.26-5.86.36-2.18.43-4.41.91-6.56,1.52-6.9,4.98-12.74,10.03-17.66,11.64-11.35,29.99-14.39,44.16-6.96,11.88,6.23,18.07,16.17,17.97,29.72-.04,5.22-1.4,10.21-4.03,14.72-7.44,12.75-18.35,19.78-34.67,19.79h0Zm3.03-64.87c-8.7.18-17.01,3.22-23.94,9.6-6.92,6.38-10.83,14.24-10.62,23.78.19,8.9,3.64,16.31,10.85,21.79,3.37,2.56,7.1,4.37,11.14,5.6,3.28.99,6.58,1.71,10.04,1.38,4.85-.46,9.52-1.57,14.06-3.35,7.87-3.1,13.65-8.49,17.43-15.96,7.58-14.95,1.71-32.14-13.37-39.47-4.7-2.29-9.69-3.33-15.6-3.37Z"/>
    <path class="cls-4" d="m304.65,210.93c-5.98-.05-10.96-.94-15.65-3.08-11.05-5.03-17.39-13.79-19.96-25.48-.62-2.81-.1-5.62.35-8.36,2.35-14.49,10.87-24.05,24.35-29.14,10.38-3.92,20.79-3.38,30.74,1.74,11.93,6.14,18.62,18.16,17.47,31.4-.79,9.05-4.87,16.54-11.52,22.62-7.52,6.87-16.48,10.14-25.78,10.31h0Zm2.11-65.13c-6.06.03-12.2,1.49-17.73,4.83-11.73,7.09-18.23,17.2-16.97,31.32.37,4.15,1.5,8.21,3.88,11.78,3.38,5.05,7.89,8.77,13.44,11.2,6.83,2.99,13.95,3.74,21.22,2.17,10.93-2.35,19.42-8.22,24.63-18.24,7.8-15,1.9-32.41-13.33-39.74-4.65-2.24-9.58-3.3-15.14-3.31h0Z"/>
    <path class="cls-4" d="m366.71,384.26c.76-.81,1.46-1.68,2.29-2.41,4.13-3.62,8.32-7.18,12.44-10.81,4.08-3.6,7.95-7.41,11.23-11.78,5.19-6.93,10.4-13.85,15.55-20.8,1.24-1.68,2.34-3.46,3.43-5.24.65-1.07,1.34-2.16,1.7-3.34,1.38-4.54,3.83-8.61,5.71-12.93,2.24-5.15,4.58-10.25,6.87-15.37,2.05-4.58,4.05-9.18,6.13-13.74.44-.97,1.07-1.86,1.68-2.74.26-.38.66-.71,1.06-.94.94-.53,1.72-.15,1.71.94-.02,1.54-.02,3.14-.4,4.61-1.92,7.41-4.49,14.6-7.98,21.43-1.87,3.67-3.44,7.51-5.55,11.03-3.56,5.93-7.51,11.63-11.19,17.49-5.17,8.23-11.29,15.71-17.85,22.83-3.4,3.68-6.92,7.25-10.92,10.34-4.06,3.14-8.02,6.42-12.04,9.61-1.1.88-2.3,1.62-3.85,1.82h0Z"/>
    <path class="cls-4" d="m436.48,283.47c-.59-1-.87-2.02-.7-3.09.22-1.41.5-2.81.87-4.19.32-1.21,1.25-1.81,2.21-1.62,1.04.21,1.64,1.18,1.37,2.52-.27,1.34-.63,2.67-1.06,3.96-.41,1.26-1.31,2.07-2.68,2.43h0Z"/>
    <path class="cls-4" d="m114.92,131.3c-2.99,2.83-6.65,3.73-8.44,1.93.43-.63,1.12-.53,1.73-.61,2.24-.29,4.2-1.19,5.94-2.62-.12-.27-.21-.43-.27-.59-.13-.4-.48-.98-.33-1.19.44-.61,1.11-.37,1.56.05.55.52,1.07,1.12,1.41,1.79.2.39.04.98.04,1.47-.47-.07-.95-.13-1.64-.22h0Z"/>
    <path class="cls-4" d="m104.98,126.05c1.04.11,1.87.19,2.76.29-.18,1.09-.83,1.24-1.48,1.25-.69.01-1.41,0-2.07-.2-.2-.06-.41-.75-.32-1.08.51-1.89.91-3.84,1.71-5.6.98-2.14,3.02-2.62,5.32-1.38-.64.17-1.04.37-1.45.38-1.66.03-2.65.91-3.18,2.4-.45,1.27-.84,2.55-1.3,3.94h0Z"/>
    <path class="cls-4" d="m120.44,115.7c-2.64-.53-5.01-1.01-7.37-1.49.26-.81.5-.94,1.87-1.03,2.72-.17,4.54.56,5.5,2.52h0Z"/>
    <path class="cls-4" d="m112.9,120.89c1.48-2.2,4.43-3.09,6.51-2.01.3.15.45.6.68.91-.29.17-.61.54-.85.5-2.07-.37-4.01.11-5.93.8-.08.03-.2-.09-.41-.2h0Z"/>
    <path class="cls-4" d="m207.19,389.37c.97-.07,2.16,1.29,1.86,1.95-.1.22-.57.43-.84.39-.7-.08-1.66-1.01-1.55-1.51.07-.35.39-.63.53-.84Z"/>
    <path class="cls-4" d="m211.42,401.86c-1.17.2-2.26-.28-2.52-1.08-.06-.18,0-.49.13-.63.13-.14.42-.2.63-.17.61.09,1.38.91,1.76,1.87h0Z"/>
    <path class="cls-4" d="m326.75,96.15c-.54-.14-1.43-.29-2.23-.65-.34-.15-.69-.77-.65-1.13.04-.35.56-.88.9-.91,1.11-.1,2.25-.1,3.35.05.78.11,1.34.98,1.19,1.55-.2.75-.81.97-1.51,1.03-.24.02-.48.02-1.06.05h0Z"/>
    <path class="cls-4" d="m291.19,91.63c1.24-.92,2.37-.9,3.59-.39-.95,1.41-2.15,1.57-3.59.39Z"/>
    <path class="cls-1" d="m333.23,369.64c.04,1.55-1.12,2.42-2.26,1.94-1.86-.78-2.59-3.58-1.36-5.15.4-.51.84-.68,1.37-.29,1.27.92,1.86,2.27,2.25,3.49Z"/>
    <path class="cls-2" d="m348,216.25c-.1-6.48,1.29-11.61,4-16.38,8.6-15.15,28.22-22.01,44.3-15.3,10.17,4.24,16.54,11.79,18.22,22.83,1.15,7.53-.74,14.48-4.9,20.8-9.5,14.42-29.1,19.96-44.71,12.61-2.09-.98-4.1-2.24-5.95-3.61-7.33-5.43-10.62-12.95-10.95-20.94h0Zm38.61-.65c-8.08-.12-15.7,5.01-18.46,11.98-.31.78-.55,1.57-.81,2.37-.22.66-.33,1.35.37,1.75.81.46,1.36-.12,1.8-.71.53-.72,1.01-1.48,1.47-2.24,1.72-2.86,4.06-5.14,6.78-7.03,2.25-1.57,4.76-2.42,7.54-2.46,4.82-.06,8.83,1.7,12.1,5.21.36.39.7.82,1.11,1.16.65.55,1.39.71,2.13.17.71-.53.92-1.3.56-2.07-.32-.69-.76-1.36-1.28-1.91-3.78-4.03-8.45-6.11-13.3-6.22h0Zm-11.16-12.77c-.31-1.61-.44-3-.85-4.29-.59-1.82-2.22-2.27-3.64-1-.58.52-1.05,1.33-1.21,2.09-.4,1.9-.2,3.82.5,5.63.27.7.75,1.37,1.28,1.91,1.02,1.02,2.18.85,2.72-.45.54-1.3.84-2.7,1.19-3.87h0Zm19.17-1.74c-.36-1.37-.54-2.88-1.14-4.2-.78-1.7-2.9-1.77-3.68-.14-1.26,2.59-1.38,5.33-.01,7.92.94,1.78,3.08,1.67,3.93-.17.46-1,.59-2.16.91-3.4h0Z"/>
    <path class="cls-3" d="m239.9,205.49c5.91.04,10.89,1.08,15.6,3.37,15.08,7.33,20.95,24.52,13.37,39.47-3.79,7.47-9.56,12.86-17.43,15.96-4.54,1.79-9.21,2.89-14.06,3.35-3.47.33-6.76-.39-10.04-1.38-4.04-1.23-7.77-3.03-11.14-5.6-7.2-5.48-10.65-12.88-10.85-21.79-.21-9.54,3.7-17.4,10.62-23.78,6.93-6.38,15.24-9.42,23.94-9.6Zm-.68,48.14c.42,0,.84.03,1.25,0,.89-.08,1.79-.15,2.67-.28,6.43-.96,11.51-4.13,15.16-9.5.73-1.08,1.26-2.3,1.77-3.51.34-.78.13-1.55-.63-2.04-.77-.5-1.54-.3-2.11.32-.48.52-.84,1.15-1.18,1.78-1.83,3.27-4.36,5.82-7.72,7.5-7.93,3.97-16.95,2.18-22.8-4.48-.32-.36-.58-.79-.96-1.06-.3-.21-.83-.41-1.08-.28-.27.15-.47.68-.47,1.04,0,.46.15.97.39,1.36.71,1.16,1.36,2.41,2.29,3.39,3.62,3.82,8.14,5.71,13.41,5.76h0Zm-12.36-29.21c.13,2.29.24,4.27,1.62,5.87,1.26,1.45,2.49,1.25,3.29-.46,1.13-2.41.92-4.87.32-7.34-.34-1.4-1.07-2.07-2.08-2.14-1.06-.07-2.35.78-2.74,1.94-.26.78-.32,1.62-.41,2.14h0Zm25.07.08c-.36-1.35-.55-2.87-1.17-4.18-.8-1.68-2.9-1.69-3.68-.05-1.21,2.54-1.26,5.19-.06,7.78.4.86,1.14,1.38,2.16,1.32.94-.06,1.59-.62,1.88-1.44.37-1.06.56-2.17.87-3.43h0Z"/>
    <path class="cls-6" d="m306.76,145.8c5.57.02,10.5,1.07,15.14,3.31,15.23,7.34,21.13,24.75,13.33,39.74-5.21,10.02-13.7,15.89-24.63,18.24-7.27,1.56-14.39.82-21.22-2.17-5.55-2.43-10.06-6.15-13.44-11.2-2.39-3.57-3.51-7.63-3.88-11.78-1.26-14.12,5.24-24.22,16.97-31.32,5.53-3.34,11.67-4.8,17.73-4.83h0Zm-7.72,42.63c.45-.05.75-.07,1.05-.13,5.64-1.02,11.27-2.04,16.9-3.09.46-.09.92-.29,1.31-.55.71-.48.99-1.19.71-2.03-.26-.78-.89-1.11-1.66-1.11-.47,0-.95.09-1.42.18-4.04.77-8.09,1.54-12.13,2.33-1.52.3-3.04.6-4.54.99-.61.16-1.25.47-1.73.88-.84.72-.59,1.89.44,2.3.38.15.81.17,1.07.22h0Zm.27-22.02c-.07-.03-.13-.05-.2-.08-.1-.89-.18-1.78-.32-2.66-.07-.47-.19-.94-.36-1.38-.66-1.71-2.15-2.2-3.54-1.04-.6.49-1.12,1.29-1.29,2.03-.4,1.89-.27,3.82.41,5.64.28.76.79,1.49,1.36,2.06,1.01,1.01,2.17.82,2.71-.51.53-1.3.82-2.7,1.22-4.06h0Zm13.21-1.76c.31,1.18.55,2.47.99,3.68.33.88,1.12,1.41,2.12,1.36.92-.05,1.57-.59,1.92-1.41,1.09-2.57.89-5.13-.24-7.63-.36-.81-1.08-1.28-2.02-1.23-.94.05-1.61.59-1.87,1.43-.37,1.18-.59,2.42-.9,3.79Z"/>
    <path class="cls-4" d="m386.61,215.6c4.85.11,9.52,2.19,13.3,6.22.52.55.96,1.22,1.28,1.91.36.77.15,1.55-.56,2.07-.74.54-1.48.37-2.13-.17-.41-.34-.74-.77-1.11-1.16-3.27-3.51-7.28-5.27-12.1-5.21-2.78.04-5.29.88-7.54,2.46-2.71,1.9-5.05,4.17-6.78,7.03-.46.77-.93,1.53-1.47,2.24-.43.58-.98,1.17-1.8.71-.7-.4-.59-1.09-.37-1.75.27-.79.51-1.59.81-2.37,2.76-6.96,10.38-12.09,18.46-11.98h0Z"/>
    <path class="cls-4" d="m375.45,202.83c-.35,1.18-.65,2.57-1.19,3.87-.55,1.31-1.7,1.48-2.72.45-.53-.53-1.01-1.21-1.28-1.91-.71-1.81-.91-3.73-.5-5.63.16-.76.63-1.57,1.21-2.09,1.42-1.27,3.06-.82,3.64,1,.41,1.29.54,2.67.85,4.29h0Z"/>
    <path class="cls-4" d="m394.62,201.1c-.32,1.25-.45,2.4-.91,3.4-.85,1.84-2.99,1.96-3.93.17-1.37-2.59-1.24-5.33.01-7.92.79-1.62,2.9-1.55,3.68.14.61,1.32.79,2.83,1.14,4.2h0Z"/>
    <path class="cls-4" d="m239.22,253.63c-5.27-.06-9.79-1.94-13.41-5.76-.93-.98-1.57-2.23-2.29-3.39-.24-.39-.38-.9-.39-1.36,0-.36.19-.89.47-1.04.25-.13.78.07,1.08.28.38.27.64.7.96,1.06,5.85,6.66,14.87,8.45,22.8,4.48,3.36-1.68,5.89-4.24,7.72-7.5.35-.62.71-1.26,1.18-1.78.57-.62,1.33-.82,2.11-.32.76.49.97,1.26.63,2.04-.52,1.2-1.04,2.43-1.77,3.51-3.66,5.37-8.73,8.54-15.16,9.5-.88.13-1.78.21-2.67.28-.41.04-.84,0-1.25,0h0Z"/>
    <path class="cls-4" d="m226.86,224.42c.1-.51.15-1.36.41-2.14.38-1.16,1.68-2.01,2.74-1.94,1.02.07,1.74.74,2.08,2.14.6,2.47.82,4.93-.32,7.34-.8,1.71-2.04,1.9-3.29.46-1.39-1.6-1.49-3.57-1.62-5.87h0Z"/>
    <path class="cls-4" d="m251.93,224.5c-.31,1.26-.51,2.38-.87,3.43-.29.82-.95,1.38-1.88,1.44-1.02.07-1.76-.46-2.16-1.32-1.2-2.59-1.15-5.24.06-7.78.79-1.64,2.88-1.63,3.68.05.62,1.31.81,2.82,1.17,4.18h0Z"/>
    <path class="cls-4" d="m299.05,188.43c-.26-.05-.69-.07-1.07-.22-1.03-.41-1.28-1.57-.44-2.3.48-.41,1.11-.72,1.73-.88,1.5-.39,3.02-.7,4.54-.99,4.04-.79,8.08-1.56,12.13-2.33.47-.09.94-.18,1.42-.18.77,0,1.4.33,1.66,1.11.28.84,0,1.55-.71,2.03-.38.26-.85.46-1.31.55-5.63,1.05-11.26,2.06-16.9,3.09-.29.05-.59.07-1.05.13h0Z"/>
    <path class="cls-4" d="m299.31,166.41c-.39,1.36-.68,2.76-1.22,4.06-.54,1.32-1.71,1.52-2.71.51-.57-.58-1.08-1.31-1.36-2.06-.68-1.82-.82-3.75-.41-5.64.16-.74.69-1.54,1.29-2.03,1.39-1.16,2.88-.67,3.54,1.04.17.44.29.91.36,1.38.13.88.21,1.77.32,2.66.07.03.13.05.2.08h0Z"/>
    <path class="cls-4" d="m312.52,164.65c.32-1.37.53-2.61.9-3.79.27-.84.93-1.38,1.87-1.43.94-.05,1.65.42,2.02,1.23,1.13,2.5,1.33,5.05.24,7.63-.35.82-1,1.36-1.92,1.41-1,.05-1.79-.48-2.12-1.36-.45-1.21-.69-2.5-.99-3.68Z"/>
    <path id="blue3" class="cls-5" d="m197.97,222c-.84-1.71-1.64-3.45-2.64-5.07-3.47-5.65-7.02-11.25-10.52-16.87-1.43-2.3-2.92-4.57-4.38-6.85-3.67-5.73-7.5-11.36-11.42-16.92-2.59-3.67-5.68-6.92-9.21-9.73-1.99-1.58-4.22-2.69-6.67-3.36-2.81-.78-5.62-1.6-8.42-2.43-2.28-.68-4.53-1.41-6.96-2.17-.35.8-.7,1.47-.94,2.19-.43,1.24-.71,2.54-1.2,3.75-2.42,5.91-6.82,8.27-13.7,7.36-2.54-.34-4.47-1.8-6.3-3.51-3.13-2.91-4.64-6.29-3.57-10.59.06-.22.07-.45.12-.77-.34-.09-.61-.22-.88-.22-3.22-.02-6.46-.24-9.67.02-3.86.31-7.29,1.79-9.65,5.11-1,1.41-2.03,2.8-2.95,4.27-4.03,6.46-6.76,13.56-9.93,20.44-2.14,4.65-3.63,9.64-7.78,13.15,1.39,1.93,1.27,4.06,1.17,6.23-.12,2.62-.38,5.28-.05,7.86.47,3.7-.12,7.13-1.47,10.51-.28.7-.55,1.41-.92,2.36.52-.17.79-.23,1.03-.36,2.03-1.07,3.87-2.38,5.31-4.19,1.15-1.45,2.31-2.9,3.38-4.41,3.76-5.32,7.63-10.55,12.15-15.27.7-.73.85-1.45.71-2.42-.27-1.82-.44-3.67-.58-5.51-.04-.53.18-1.07.3-1.73,1.05.45,1.08,1.22,1.24,1.88.82,3.36,1.72,6.7,2.38,10.09.73,3.75,1.28,7.53,1.82,11.31.42,3.01.63,6.06,1.06,9.07.34,2.44.54,4.86.28,7.32-.14,1.36-.21,2.74-.26,4.11-.05,1.35.31,2.59,1.1,3.71.31.42.7.91.72,1.37.01.44-.43.89-.7,1.4,9.83,8.88,21.78,12.16,34.72,13.27,0,.04,0,.07,0,.11.67-.09,1.3-.4,1.95-.63v-.06c1.92-.29,3.33-1.5,4.8-2.62,1.78-1.35,2.54-3.12,2.49-5.28-.04-1.67-.11-3.35-.29-5-.57-5.16-.29-10.24,1.13-15.26,2.79-9.82,5.94-19.53,9.37-29.15.31-.86.19-1.44-.32-2.12-.61-.81-1.16-1.67-1.63-2.56-.15-.29.04-.76.07-1.14.44.04.96-.05,1.3.16.44.26.76.75,1.1,1.16,2.45,2.93,4.81,5.95,7.37,8.78,2.56,2.82,5.32,5.45,7.81,8.35,2.61,3.05,5,6.23,7.19,9.58.79,1.21,1.12,2.47.87,3.91-.15.85-.14,1.72-.24,2.96.82-.52,1.29-.84,1.78-1.14,3.37-2.1,7-3.46,11.01-3.07,2.11.2,4.18.86,6.26,1.37,1,.24,1.72-.17,1.69-1.19-.01-.52-.17-1.07-.41-1.54h0Z"/>
  </g>
</svg>