<svg width="362" height="287" viewBox="0 0 362 287" fill="none" xmlns="http://www.w3.org/2000/svg">
<g id="desktop_astuces-section_bottom-right-angle" clip-path="url(#clip0_3180_142125)">
<g id="shape">
<mask id="mask0_3180_142125" style="mask-type:alpha" maskUnits="userSpaceOnUse" x="-109" y="106" width="2006" height="484">
<path id="mask" fill-rule="evenodd" clip-rule="evenodd" d="M395.185 535.892C428.962 535.892 456.343 508.511 456.343 474.735C456.343 440.959 428.962 413.577 395.185 413.577L157.106 413.577C72.2067 413.577 3.38186 344.753 3.38186 259.853C3.38187 174.953 72.2066 106.129 157.106 106.129L1870.06 106.129C1884.83 106.129 1896.8 118.105 1896.8 132.878C1896.8 147.651 1884.83 159.626 1870.06 159.626L157.106 159.626C101.752 159.626 56.8794 204.499 56.8794 259.853C56.8794 315.207 101.752 360.08 157.106 360.08L395.185 360.08C458.508 360.08 509.84 411.413 509.84 474.735C509.84 538.057 458.508 589.39 395.185 589.39L-81.5835 589.39C-96.3564 589.39 -108.332 577.414 -108.332 562.641C-108.332 547.868 -96.3564 535.892 -81.5835 535.892L395.185 535.892Z" fill="#BBDBFD"/>
</mask>
<g mask="url(#mask0_3180_142125)">
<g id="shapes">
<path id="secondary-color" fill-rule="evenodd" clip-rule="evenodd" d="M395.185 525.193C423.052 525.193 445.643 502.602 445.643 474.735C445.643 446.868 423.052 424.277 395.185 424.277L157.106 424.277C66.2973 424.277 -7.31785 350.662 -7.31784 259.853C-7.31783 169.044 66.2972 95.4291 157.106 95.4291L1870.06 95.4292C1890.74 95.4292 1907.5 112.195 1907.5 132.878C1907.5 153.56 1890.74 170.326 1870.06 170.326L157.106 170.326C107.661 170.326 67.5786 210.408 67.5786 259.853C67.5786 309.298 107.661 349.38 157.106 349.38L395.185 349.38C464.417 349.38 520.54 405.503 520.54 474.735C520.54 543.966 464.417 600.089 395.185 600.089L-81.5837 600.089C-102.266 600.089 -119.032 583.323 -119.032 562.641C-119.032 541.959 -102.266 525.193 -81.5837 525.193L395.185 525.193Z" fill="#FFC229"/>
<g id="BlobCorner" opacity="0.06" clip-path="url(#clip1_3180_142125)">
<path id="Vector" fill-rule="evenodd" clip-rule="evenodd" d="M117.158 146.181C111.443 106.212 139.556 68.3088 150.306 28.2216C160.759 -10.7578 157.424 -51.7788 179.681 -86.9617C204.359 -125.972 236.396 -168.037 282.781 -181.192C329.092 -194.325 374.062 -168.605 418.122 -154.583C455.978 -142.536 490.451 -126.554 522.379 -104.941C556.222 -82.0334 591.608 -59.5914 610.081 -24.6453C629.821 12.6961 637.931 55.9874 629.878 98.4099C621.652 141.742 597.974 182.928 564.459 215.692C531.603 247.812 488.791 271.264 442.994 281.106C399.84 290.38 358.805 273.654 315.735 269.144C270.485 264.405 219.519 276.718 182.564 253.835C144.942 230.538 123.2 188.434 117.158 146.181Z" fill="#343A40"/>
</g>
<g id="BlobCorner_2" opacity="0.06" clip-path="url(#clip2_3180_142125)">
<path id="Vector_2" fill-rule="evenodd" clip-rule="evenodd" d="M246.802 446.834C221.479 461.712 188.397 456.318 158.24 450.383C131.182 445.058 107.667 428.602 82.8677 414.57C57.3944 400.157 28.9613 390.302 10.3925 366.73C-9.16026 341.908 -22.426 310.755 -23.1261 280.012C-23.8149 249.764 -9.22512 223.2 6.58322 199.462C21.1121 177.645 40.9287 160.938 63.9337 149.28C85.8593 138.169 111.094 138.567 135.564 134.098C165.767 128.583 196.041 104.977 225.112 119.846C253.799 134.519 256.823 176.291 273.839 204.822C290.558 232.856 320.921 254.848 324.574 286.621C328.242 318.518 306.228 343.919 292.973 371.225C279.746 398.474 272.196 431.915 246.802 446.834Z" fill="#343A40"/>
</g>
</g>
</g>
</g>
<g id="peep-60">
<g id="BODY">
<path id="&#240;&#159;&#142;&#168; Background" fill-rule="evenodd" clip-rule="evenodd" d="M268.762 110.754C254.906 109.764 235.91 112.504 231.903 128.268C230.66 134.004 228.211 136.522 224.097 140.273C197.983 173.624 289.095 179.229 293.779 146.708C303.646 150.294 314.387 151.053 324.26 154.678C329.615 156.652 334.471 159.766 339.124 163.022C358.098 176.469 376.804 190.3 395.71 203.843C388.394 207.205 374.484 220.04 380.152 228.665C381.472 230.345 383.432 231.503 385.166 232.731L386.08 233.382C388.047 234.788 391.358 237.185 393.189 238.488L393.526 238.733C393.659 238.829 393.808 238.936 393.943 239.033C380.74 258.293 365.288 276.065 348.148 291.932C346.688 293.286 347.286 296.313 349.398 296.666L351.915 297.034C360.04 298.215 368.32 299.278 376.509 298.637C384.483 297.771 389.289 290.727 394.741 285.625C405.627 274.522 415.761 262.678 424.992 250.167L425.184 249.903C428.057 245.986 431.87 241.982 432.149 236.924C432.658 235.403 431.319 233.224 430.032 232.187L429.592 231.555C422.69 221.649 414.877 212.096 405.09 204.923C405.126 203.854 404.631 202.73 403.65 202.022L362.745 172.485C352.191 165.238 342.381 156.72 330.941 150.868C319.243 145.248 306.043 145.028 294.055 140.337C293.801 136.957 286.678 136.094 286.903 136.616C279.388 132.09 275.519 126.705 274.326 121.755C273.133 116.806 274.616 112.292 268.762 110.754ZM167.607 216.799C154.958 197.809 142.902 218.819 137.636 231.483C131.415 248.812 144.299 270.129 152.622 285.069C155.688 289.218 159.72 297.969 165.123 298.603C178.737 298.548 192.369 297.591 205.991 297.306C214.787 295.129 202.446 281.94 193.922 286.758C191.339 287.722 190.049 290.648 187.53 291.586C186.613 291.782 186.549 291.373 186.176 290.462L186.123 290.334C185.458 288.756 184.812 287.17 184.157 285.588C178.611 271.961 172.748 258.453 166.918 244.952C165.673 242.021 167.42 239.605 169.69 237.861C171.429 236.433 178.903 232.947 171.861 234.481C174.573 228.201 171.314 221.827 167.607 216.799ZM199.009 190.803C197.792 190.652 196.227 191.876 196.04 193.063C194.487 202.896 196.217 212.618 198.292 222.238L198.674 223.999C199.439 227.508 200.295 231.085 202.203 234.16C204.151 237.299 207.098 239.664 210.48 241.102C221.332 245.417 234.828 241.149 242.811 233.082C247.919 226.102 243.429 217.334 242.572 209.683C243.382 207.622 243.681 205.238 244.149 203.112L244.206 202.858L246.026 194.93C246.428 193.181 245.15 190.788 243.052 191.028C228.417 192.703 213.626 192.628 199.009 190.803Z" fill="white"/>
<path id="&#240;&#159;&#150;&#141; Ink" fill-rule="evenodd" clip-rule="evenodd" d="M147.902 214.314C147.945 214.119 147.71 213.969 147.558 214.116C144.984 216.592 143.166 219.756 141.17 222.688C139.269 225.481 137.201 228.166 135.783 231.248C134.466 234.113 133.616 237.019 133.363 240.168C133.11 243.293 133.438 246.426 133.991 249.505C135.078 255.57 137.402 261.314 139.953 266.892C142.434 272.315 145.237 277.584 148.196 282.757L149.257 284.603C150.551 286.852 151.859 289.096 153.26 291.274C155.003 293.985 156.593 296.783 158.892 299.045C160.524 300.656 163.599 299.045 162.855 296.744C162.533 295.742 162.28 294.799 161.779 293.869C161.399 293.16 160.97 292.472 160.568 291.774C159.762 290.378 158.964 288.976 158.158 287.58C156.467 284.645 154.685 281.764 153.009 278.819C150.102 273.712 147.357 268.51 144.929 263.156L144.644 262.524C142.41 257.566 140.294 252.431 139.313 247.068C138.28 241.417 139.204 236.092 141.216 230.781C142.257 228.034 143.427 225.35 144.643 222.675L144.876 222.164C146.051 219.612 147.296 217.073 147.902 214.314ZM272.922 116.579C272.898 116.479 272.728 116.471 272.712 116.579C271.989 121.377 273.598 126.453 276.219 130.444C277.65 132.624 279.413 134.592 281.492 136.174L281.654 136.296C283.778 137.88 286.647 139.41 289.283 138.383C289.365 138.351 289.443 138.315 289.515 138.274C289.218 138.733 288.945 139.215 288.666 139.696C287.837 141.132 287.093 142.618 286.285 144.066C284.839 146.656 283.116 148.972 280.94 151C272.235 159.107 260.012 161.033 248.534 160.941L247.723 160.934C242.681 160.898 236.087 161.155 232.194 157.514C230.103 155.558 228.951 152.778 227.91 150.168C226.888 147.609 226.188 144.968 225.338 142.366C227.112 141.152 228.739 139.671 230.017 137.939C231.35 136.136 232.357 134.105 232.938 131.938L233.024 131.615C233.473 129.887 233.925 127.601 233.201 125.968C233.119 125.78 232.809 125.793 232.721 125.968C232.331 126.749 232.256 127.63 232.016 128.465C231.737 129.436 231.422 130.403 231.006 131.323C230.203 133.106 229.142 134.801 227.869 136.285C226.818 137.514 225.679 138.643 224.378 139.591C223.611 138.269 221.832 138.091 220.342 138.527C218.344 139.109 216.374 139.856 214.449 140.646L214.064 140.804C212.161 141.593 210.01 142.317 208.228 143.391C207.146 143.907 206.108 144.424 205.132 144.883C200.269 147.163 195.477 149.582 190.707 152.048L189.685 152.577C187.686 153.615 185.706 154.664 183.968 156.112C182.199 157.586 180.825 159.601 179.534 161.489C176.583 165.808 173.802 170.25 170.884 174.591C164.991 183.351 159.098 192.112 153.172 200.852C151.739 202.967 150.122 205.031 148.836 207.236C147.604 209.344 147.638 211.508 147.878 213.861L147.923 214.293C148.384 218.608 149.175 222.752 151.602 226.453C155.421 232.27 161.438 235.893 167.803 238.387C167.026 238.964 166.295 239.588 165.368 239.985C163.942 240.593 162.422 240.907 160.88 241.033C159.235 241.165 157.381 240.755 156.049 241.871C155.514 242.316 155.498 243.388 156.049 243.834C157.329 244.877 158.985 244.578 160.546 244.404L160.64 244.393C162.088 244.234 163.516 243.966 164.877 243.435C165.213 243.303 165.546 243.157 165.869 242.994C165.858 243.023 165.853 243.056 165.859 243.092C166.091 244.867 166.595 246.546 167.127 248.242L167.465 249.317C168.152 251.512 168.844 253.702 169.556 255.893C170.913 260.062 172.39 264.192 173.872 268.316L175.152 271.876C176.466 275.527 177.797 279.173 179.268 282.764C180.177 284.979 181.091 287.196 182.003 289.409C182.894 291.571 183.635 293.905 184.74 295.964C185.649 297.659 188.128 296.445 187.73 294.704C187.209 292.418 186.225 290.151 185.473 287.927C184.709 285.67 183.96 283.41 183.183 281.158C181.831 277.246 180.334 273.386 178.829 269.53L177.338 265.707C175.875 261.961 174.394 258.219 172.813 254.522L172.64 254.117C170.996 250.25 169.299 245.901 166.313 242.904C166.274 242.863 166.22 242.842 166.166 242.837C166.899 242.44 167.586 241.958 168.19 241.389L168.22 241.359C168.459 241.107 169.445 239.864 169.763 239.119C170.176 239.266 170.589 239.408 171.002 239.546C171.723 239.789 172.319 239.614 172.74 239.23L173.542 239.725C174.399 240.247 175.321 240.743 176.268 240.768C177.461 240.799 178.398 240.142 179.036 239.173C179.609 238.307 179.95 237.372 180.676 236.597C181.389 235.834 182.215 235.191 183.059 234.577L184.053 233.855C185.877 232.526 187.646 231.183 189.114 229.429C189.853 228.542 190.842 227.491 191.291 226.427C191.379 226.221 191.433 226.028 191.444 225.839C191.542 226.504 191.642 227.171 191.743 227.836C193.153 237.192 194.292 246.612 194.656 256.073C194.834 260.739 194.914 265.41 194.705 270.079C194.602 272.411 194.431 274.74 194.196 277.064C194.08 278.229 193.959 279.391 193.817 280.55L193.784 280.819C193.743 281.174 193.716 281.518 193.747 281.844C192.611 282.403 191.957 283.815 191.503 284.918C191.157 285.758 191.425 286.575 191.983 287.165C191.317 287.77 190.723 288.481 190.225 289.295C190.124 289.46 190.341 289.589 190.47 289.486C191.289 288.837 192.169 288.303 193.088 287.894C193.571 288.077 194.098 288.126 194.584 287.992C195.11 287.847 195.565 287.497 195.893 287.051C198.503 286.623 201.217 287.147 203.567 288.778C204.055 289.118 204.497 289.502 204.918 289.919C204.99 289.991 205.065 290.084 205.14 290.174L204.627 290.371C204.415 290.451 204.24 290.514 204.174 290.527C203.727 290.618 203.272 290.667 202.818 290.706L202.137 290.761C199.521 290.978 196.913 291.05 194.48 292.143C193.969 292.372 194.147 293.158 194.63 293.289C196.406 293.77 198.169 293.733 199.977 293.604L200.365 293.575C202.046 293.446 203.851 293.454 205.491 292.99C205.099 294.062 205.633 295.461 207.273 295.68C212.197 296.335 217.153 296.026 222.082 295.593C227.061 295.155 232.037 294.74 237.028 294.48C253.174 293.632 269.345 293.795 285.505 294.025L294.638 294.157C301.921 294.259 309.205 294.339 316.487 294.284L319.896 294.252C321.337 294.238 322.779 294.22 324.218 294.178L325.081 294.15C326.795 294.088 329.065 294.346 330.555 293.333C331.784 292.498 332.058 290.968 331.317 289.734C331.103 289.378 330.808 289.061 330.501 288.752C329.871 283.38 329.517 277.982 329.156 272.586C327.901 253.705 328.634 234.922 331.529 216.231C339.296 218.599 346.945 221.57 354.397 224.757C358.428 226.481 362.438 228.269 366.402 230.145C370.02 231.858 373.653 233.999 377.519 235.112C377.87 235.424 378.361 235.572 378.797 235.434L378.854 235.414H378.856C379.254 235.507 379.696 235.45 380.129 235.19C380.217 235.137 380.305 235.083 380.393 235.029L380.524 234.945C381.885 234.09 383.254 233.036 384.217 231.747C385.387 232.83 386.644 233.822 387.881 234.826C389.224 235.919 390.562 237.017 391.889 238.124C392.416 238.565 392.997 238.985 393.462 239.493L393.529 239.567C393.54 239.579 393.55 239.591 393.56 239.603C391.548 240.902 389.787 242.873 388.209 244.587C386.515 246.425 384.879 248.323 383.257 250.228L381.687 252.076C370.581 265.16 359.362 278.72 344.985 288.337C342.712 289.857 344.879 293.56 347.136 292.006C351.407 289.071 355.448 285.812 359.329 282.382C366.131 276.376 372.251 269.639 377.981 262.617C380.881 259.064 383.695 255.424 386.453 251.76L387.389 250.517C388.637 248.859 389.877 247.197 391.065 245.496L391.314 245.14C392.356 243.64 393.464 241.954 394.136 240.227C394.394 240.487 394.686 240.706 395.112 240.871C395.84 241.155 396.733 240.559 396.911 239.851C397.345 238.132 395.848 237.109 394.629 236.197C393.149 235.094 391.641 234.03 390.13 232.971L389.591 232.591C387.702 231.254 385.803 229.882 383.745 228.826C383.683 228.743 383.608 228.666 383.522 228.599C383.424 228.522 383.329 228.447 383.231 228.372C385.689 224.394 388.385 220.57 391.393 216.958C393.655 214.24 396.057 211.645 398.598 209.187L399.739 208.084C401.466 206.42 403.261 204.733 405.177 203.286L405.777 203.965C406.578 204.869 407.387 205.766 408.242 206.615C409.926 208.285 411.586 209.988 413.239 211.691C415.984 214.525 418.635 217.445 421.279 220.37L422.6 221.832C425.352 224.881 428.301 227.872 430.804 231.129L430.929 231.294C432.021 232.756 432.799 234.373 432.291 236.231C431.801 238.021 430.637 239.609 429.633 241.155L429.533 241.309C425.435 247.678 421.045 253.885 416.343 259.825C406.925 271.721 396.183 282.996 383.365 291.267C381.588 292.413 383.249 295.263 385.028 294.103C392.514 289.221 399.39 283.357 405.717 277.059C411.524 271.28 416.787 264.916 421.719 258.384C424.123 255.197 426.427 251.943 428.635 248.617C430.775 245.388 433.252 242.067 434.804 238.506C435.617 236.633 435.917 234.605 435.25 232.631C434.639 230.817 433.431 229.311 432.174 227.894L432.056 227.761C429.166 224.523 426.225 221.323 423.258 218.153C420.281 214.974 417.167 211.908 413.988 208.932C411.491 206.59 408.888 204.526 406.104 202.614C406.355 202.436 406.605 202.266 406.861 202.101C407.638 201.596 407.834 200.517 407.153 199.831C405.291 197.955 403.145 196.324 401.126 194.617C399.228 193.011 397.33 191.403 395.432 189.796C391.569 186.528 387.706 183.259 383.843 179.989C376.904 174.117 370.004 168.204 363.089 162.306C360.205 159.847 357.295 157.419 354.392 154.984L349.235 150.654L346.712 148.54C345.419 147.46 344.1 146.392 342.63 145.568C339.172 143.63 335.014 142.792 331.204 141.765L330.95 141.696C326.677 140.529 322.38 139.431 318.06 138.452C313.734 137.473 309.391 136.581 305.029 135.775C301.11 135.048 297.097 134.425 293.099 134.332C292.108 133.956 290.863 133.824 289.887 134.226C289.484 134.394 289.063 134.639 288.689 134.948C286.734 134.262 284.805 133.935 282.98 132.776C281.156 131.619 279.543 130.099 278.184 128.424C275.377 124.956 273.908 120.859 272.922 116.579ZM227.988 234.017C229.537 233.909 230.932 234.548 232.316 235.228C231.536 235.566 230.756 235.901 229.976 236.233L224.786 238.444C223.072 239.173 221.256 239.807 219.627 240.706C219.511 240.77 219.418 240.848 219.348 240.938C217.654 239.856 215.862 238.89 214.145 237.862C213.752 237.627 213.357 237.393 212.962 237.158C215.007 237.841 217.104 238.184 219.325 237.542C222.286 236.689 224.858 234.236 227.988 234.017ZM223.743 228.833L224.021 228.645C225.524 227.616 227.317 226.294 229.142 227.218C230.002 227.653 230.707 228.357 231.554 228.826C232.406 229.3 233.344 229.663 234.294 229.882C235.872 230.245 237.679 230.299 239.376 229.949L239.35 232.237C238.067 232.765 236.791 233.307 235.515 233.853C234.687 233.57 233.89 233.231 233.052 232.858L232.486 232.605C230.872 231.881 229.243 231.397 227.459 231.626C224.099 232.057 221.561 234.548 218.349 235.378C214.411 236.398 210.857 233.466 207.136 232.742C206.523 232.621 205.89 232.551 205.262 232.54L205.052 232.538L204.959 232.484C204.159 232.015 202.961 231.567 202.403 230.779C201.796 229.923 201.745 228.491 201.546 227.486C201.525 227.385 201.504 227.282 201.486 227.182C201.838 227.182 202.194 227.2 202.555 227.267C203.692 227.475 204.761 227.877 205.819 228.326C207.821 229.173 209.778 230.14 211.885 230.704C213.948 231.258 216.105 231.521 218.23 231.214C220.303 230.915 222.026 229.982 223.743 228.833ZM223.419 220.789L223.73 220.589C224.551 220.066 225.492 219.525 226.497 219.717C227.396 219.89 228.168 220.604 228.951 221.044C230.668 222.01 232.594 222.539 234.559 222.673C236.194 222.783 237.89 222.585 239.463 222.101L239.409 227.166C238.833 227.349 238.236 227.481 237.609 227.527C235.703 227.669 233.844 227.213 232.245 226.164L231.437 225.628C230.053 224.721 228.755 224.001 226.923 224.332C225.111 224.662 223.59 225.821 222.108 226.831L221.864 226.994C220.162 228.115 218.437 228.839 216.349 228.856C214.095 228.874 211.866 228.248 209.767 227.478C207.683 226.716 205.702 225.801 203.474 225.52C202.792 225.435 201.961 225.409 201.178 225.543C201.075 224.968 200.977 224.397 200.884 223.822C200.683 222.588 200.51 221.356 200.36 220.122C204.313 219.06 207.964 222.495 211.636 223.554C213.767 224.167 216.086 224.16 218.216 223.567C220.187 223.018 221.737 221.878 223.419 220.789ZM223.41 212.258C224.254 212.096 225.088 212.485 225.806 212.884C227.637 213.897 229.217 215.306 231.291 215.84C233.958 216.525 236.876 215.935 239.526 214.814C239.515 216.378 239.502 217.942 239.489 219.506C238.991 219.694 238.48 219.846 237.958 219.967C236.104 220.39 234.139 220.333 232.313 219.8C230.452 219.256 229.024 217.788 227.157 217.329C225.247 216.858 223.448 217.774 221.909 218.814L221.446 219.13C219.688 220.32 217.982 221.355 215.782 221.557C213.455 221.771 211.433 221.044 209.354 220.081L208.871 219.857C206.239 218.651 202.822 217.278 200.195 218.651C199.989 216.703 199.839 214.755 199.738 212.804C200.1 212.67 200.474 212.573 200.905 212.57C201.936 212.565 203.018 212.889 203.978 213.227C206.078 213.966 208.032 215.069 210.111 215.86C212.081 216.613 214.263 217.004 216.365 216.667C218.312 216.355 219.774 215.34 221.119 213.948L221.315 213.743C221.905 213.116 222.536 212.427 223.41 212.258ZM221.868 205.026C222.841 204.513 224.027 204.036 225.152 204.186C226.227 204.327 226.943 205.054 227.604 205.831L227.962 206.257C229.146 207.654 230.31 208.828 232.135 209.403C234.025 209.996 236.029 209.764 237.787 208.896C238.412 208.587 238.993 208.203 239.577 207.824L239.546 211.933C238.379 212.513 237.191 213.036 235.887 213.353C233.48 213.938 231.435 213.505 229.377 212.181L229.161 212.041C227.611 211.025 226.021 209.815 224.107 209.702C222.238 209.591 220.836 210.624 219.605 211.889L219.461 212.039C217.909 213.672 216.342 214.469 214.033 214.281C211.795 214.098 209.701 213.112 207.65 212.263L207.464 212.186C205.589 211.418 203.428 210.627 201.37 210.921C200.877 210.99 200.239 211.142 199.671 211.408C199.588 209.485 199.549 207.561 199.542 205.634C200.711 204.621 202.532 204.454 203.996 204.869C206.289 205.518 208.166 207.193 210.356 208.102C212.298 208.909 214.322 209.089 216.303 208.326C218.348 207.538 219.952 206.036 221.868 205.026ZM199.671 196.93C203.098 197.049 206.45 199.272 209.721 200.12C213.376 201.066 216.359 199.776 219.615 198.344L220.035 198.159C221.706 197.428 223.5 196.77 225.352 197.069C227.157 197.363 228.753 198.36 230.304 199.262L230.602 199.433C233.429 201.039 236.308 202.138 239.608 201.864C239.59 202.897 239.598 203.928 239.595 204.938C239.053 205.247 238.532 205.598 238.036 205.917L237.858 206.03C236.284 207.011 234.662 207.657 232.786 207.051C230.973 206.463 230.121 204.889 228.876 203.593C227.733 202.403 226.24 201.679 224.567 201.748C222.767 201.82 221.065 202.611 219.578 203.578C218.09 204.544 216.652 205.793 214.912 206.278C211.007 207.36 207.663 203.24 203.971 202.599C202.421 202.328 200.712 202.671 199.542 203.603C199.555 201.382 199.604 199.156 199.671 196.93ZM229.165 195.997C229.648 196.015 230.131 196.036 230.614 196.057C232.401 196.134 234.187 196.222 235.974 196.322C237.211 196.389 238.732 196.768 239.946 196.392C239.977 196.515 240.018 196.634 240.072 196.75C239.889 197.662 239.775 198.605 239.706 199.558C238.585 199.679 237.446 199.638 236.341 199.409C233.689 198.86 231.535 197.19 229.165 195.997ZM199.722 195.232C206.247 195.681 212.823 195.526 219.358 195.667L220.143 195.686C220.174 195.686 220.205 195.688 220.236 195.688C219.486 195.978 218.742 196.31 218.001 196.648L217.261 196.987C215.51 197.791 213.728 198.448 211.768 198.306C209.669 198.154 207.691 197.299 205.728 196.608C203.856 195.948 201.7 195.505 199.704 195.794C199.709 195.606 199.714 195.42 199.722 195.232Z" fill="#030F40"/>
</g>
<g id="HEAD">
<path id="&#240;&#159;&#142;&#168; Background_2" fill-rule="evenodd" clip-rule="evenodd" d="M298.764 26.4237C297.425 24.9898 295.712 23.9216 293.839 23.5802C295.551 24.4333 297.224 25.3225 298.764 26.4237ZM301.386 38.7872C301.623 37.6944 301.782 36.5911 301.832 35.4881C301.533 35.9421 301.055 36.2454 300.518 36.402C300.865 37.1768 301.16 37.975 301.386 38.7872ZM211.777 55.9197C213.323 49.4996 220.534 37.1508 222.239 34.774C224.09 28.8888 213.995 24.1692 219.485 19.5671C221.971 17.4907 225.256 16.7558 228.338 16.0194C249.675 10.9065 272.6 13.4851 292.389 22.8873C295.399 22.2553 298.535 23.4905 300.724 25.66C311.008 35.9735 296.993 54.5821 293.929 66.2092C288.671 79.1738 299.502 81.3546 298.34 92.3239C297.438 97.9909 291.685 99.4886 286.831 100.345C286.053 100.527 285.013 100.554 284.762 101.375C283.975 106.165 281.279 110.73 277.659 113.828C277.975 114.764 277.733 115.9 276.617 116.722C266.503 124.221 253.75 127.974 241.135 127.3C226.102 126.496 218.327 117.898 216.451 115.684C206.079 101.707 207.318 83.2654 209.434 66.6081C210.908 55.0042 209.039 67.2928 211.777 55.9197Z" fill="white"/>
<path id="&#240;&#159;&#150;&#141; Ink_2" fill-rule="evenodd" clip-rule="evenodd" d="M258.133 2.4978C257.66 1.02399 256.323 0.137645 254.792 0.320583C253.436 0.480331 251.985 1.82273 252.15 3.30427C252.181 3.59027 252.222 3.85823 252.271 4.11074L252.265 4.11299L252.258 4.11331L252.292 4.21122C252.393 4.68274 252.532 5.1053 252.739 5.50467C253.002 6.26991 253.255 7.03773 253.506 7.80813C253.144 7.79267 252.775 7.81329 252.4 7.88285C252.013 6.89345 251.623 5.90661 251.236 4.91463C250.82 3.85565 250.528 2.49522 249.707 1.67587C248.656 0.629773 246.833 0.41334 245.552 1.16055C244.199 1.94898 243.716 3.35064 244.011 4.85279C244.16 5.61901 244.673 6.15225 245.308 6.48728L245.377 6.52242L245.865 7.67673C245.715 7.61231 245.56 7.55305 245.392 7.5041C245.129 7.4268 244.87 7.37784 244.617 7.35723C243.92 6.09728 243.153 4.8734 242.361 3.67272C241.449 2.29167 239.667 1.70421 238.172 2.57767C236.834 3.35837 236.117 5.40933 237.075 6.75689C237.803 7.77979 238.492 8.82331 239.171 9.87713C239.055 9.89774 238.939 9.92351 238.828 9.957C238.776 9.88744 238.722 9.81787 238.665 9.7483C237.924 8.83104 237.062 8.14309 236.176 7.38042C235.347 6.66413 234.965 5.53816 233.875 4.9945C232.504 4.31171 230.851 4.63894 230.035 5.99937C228.285 8.91349 231.223 11.0417 233.103 12.8067C231.469 11.789 229.767 10.8588 228.021 10.0549C227.04 9.60401 226.043 9.16857 225.031 8.79239C223.531 8.23585 222.317 8.41389 221.085 9.44942C220.535 9.9132 220.262 10.9261 220.515 11.6009C221.005 12.8943 221.78 13.6802 223.138 14.0538C224.094 14.3166 225.072 14.4944 226.028 14.7701C227.629 15.2287 229.183 15.7878 230.691 16.4861C230.583 16.5531 230.48 16.6252 230.384 16.7077C229.258 16.3444 228.112 16.03 226.96 15.762C225.05 15.3152 223.106 15.0132 221.153 14.8244L220.504 14.7641C218.163 14.54 215.349 14.1263 213.912 16.3624C213.439 17.0993 213.388 18.3154 213.912 19.0446C214.914 20.4463 215.91 20.7245 217.568 20.7503C215.936 20.9229 214.307 21.1368 212.685 21.3867C211.567 21.5568 210.45 21.7495 209.337 21.9634L208.781 22.0721C207.425 22.3426 205.912 22.4998 204.747 23.2831C202.206 24.9939 203.399 28.3255 206.214 28.681C207.575 28.8511 209.086 28.2765 210.421 28.0085C211.717 27.7483 213.018 27.519 214.325 27.318C215.001 27.2124 215.678 27.1196 216.357 27.0346C214.976 27.233 213.604 27.5138 212.269 27.9106L211.899 28.0223C209.318 28.8071 205.834 30.0572 205.029 32.8087C204.541 34.4809 205.876 35.9393 207.492 36.0372C208.995 36.1274 210.248 35.2333 211.523 34.5737C212.453 34.0944 213.398 33.7363 214.4 33.4297C215.435 33.1128 216.491 32.8499 217.555 32.6361C216.656 33.1303 215.781 33.6735 214.94 34.2812L214.554 34.566C212.32 36.2269 208.913 38.7984 209.7 41.9118C209.948 42.8935 211.045 43.8313 212.099 43.7309C214.841 43.4758 216.355 40.5617 218.423 39.0002C218.963 38.5931 219.554 38.1912 220.174 37.7996C217.039 41.5305 214.544 45.8437 212.646 50.2986C208.475 60.0993 207.196 69.1756 207.165 79.7137L207.164 80.0401C207.159 85.8528 207.291 91.7712 207.859 97.5583C208.386 102.905 209.351 108.181 211.781 113.023C215.854 121.142 223.789 127.465 232.54 129.871C242.278 132.551 253.162 130.456 261.139 124.272C263.174 122.695 260.475 119.271 258.396 120.727C250.094 126.537 239.357 128.377 229.829 124.445C222.271 121.327 216.184 114.62 213.604 106.898C211.962 101.986 211.484 96.7477 210.899 91.628L210.86 91.2868C210.24 85.9327 209.881 80.5425 209.886 75.1523C209.894 65.1423 211.335 56.9023 215.748 47.8225C217.824 43.5453 220.517 39.5905 223.735 36.1196C224.711 36.318 225.749 36.0398 226.735 35.9341C227.239 35.88 227.742 35.8285 228.246 35.7821C227.732 36.114 227.227 36.459 226.731 36.8121L226.081 37.2801C224.046 38.7344 221.463 40.391 221.986 43.2027C222.129 43.9627 222.888 44.661 223.624 44.8336C226.291 45.4675 228.125 42.8806 229.927 41.3449C231.494 40.0103 233.134 38.8147 234.805 37.6166C235.184 37.3461 235.567 37.0755 235.951 36.8076C235.59 37.2281 235.238 37.6552 234.895 38.0862L234.388 38.7276C232.854 40.6433 230.642 43.1335 232.008 45.6169C232.396 46.3177 233.222 46.7841 234.022 46.7686C236.775 46.712 237.87 43.5943 239.161 41.6258C240.271 39.9381 241.477 38.3484 242.725 36.7586C243.068 36.3232 243.414 35.8877 243.765 35.4523C249.547 35.7512 255.308 36.5138 260.968 37.7326C264.857 38.57 268.682 39.655 272.477 40.8425L272.793 40.9426C274.847 41.6026 276.964 42.4473 278.445 43.8958C278.656 44.8937 278.494 45.9462 278.292 46.9429L278.134 47.7057C277.485 50.8957 277.042 54.0266 277.373 57.3017C277.717 60.6796 278.737 63.7174 279.981 66.8557C280.57 68.3346 281.18 68.0667 281.389 69.6539C281.549 70.8628 281.45 72.1108 281.34 73.3299L281.249 74.3634C281.019 77.0706 280.904 80.0222 282.683 82.2559C282.959 82.5986 283.55 82.4621 283.746 82.1194C283.824 81.9828 283.907 81.8514 283.997 81.7252C284.854 80.4858 286.169 79.7798 287.671 79.5067C287.863 79.4732 287.788 79.2181 287.628 79.1975C286.357 79.0481 285.154 79.365 284.131 80.0195C284.616 78.3463 288.37 79.16 289.604 79.4851L289.647 79.4964C291.186 79.9087 292.642 80.5786 293.926 81.5267C296.508 83.4334 298.001 86.4068 297.926 89.6095C297.851 92.7581 296.221 95.667 293.422 97.1743C292.072 97.9009 290.535 98.2514 289.006 98.2359C287.411 98.2204 285.99 97.5222 284.392 97.6201C283.468 97.6768 282.76 98.6662 283.295 99.5293C283.651 100.106 284.116 100.56 284.653 100.908C283.344 103.92 281.673 106.793 279.747 109.444C278.68 110.915 277.472 112.273 276.142 113.512C275.104 114.481 272.854 115.602 272.981 117.218C273.025 117.8 273.327 118.155 273.859 118.372C275.513 119.047 277.524 116.724 278.63 115.604L278.719 115.514C280.098 114.144 281.355 112.629 282.45 111.021C284.392 108.166 285.598 104.948 286.096 101.567C288.748 102.364 292.26 101.616 294.424 100.64C301.226 97.5737 303.449 88.4346 299.315 82.3487C298.514 81.1712 297.512 80.1637 296.371 79.3495C296.622 79.213 296.857 79.0378 297.066 78.8162C298.223 77.5898 299.041 75.9895 299.853 74.5145L299.95 74.3381C300.671 73.0395 301.351 71.7205 301.988 70.3812L302.225 69.878C303.648 66.8248 304.895 65.4901 305.91 62.2797C306.886 59.1826 307.656 56.0263 308.154 52.8159L308.286 51.9661C308.575 50.1032 308.847 48.1112 308.637 46.2198C310.085 46.6913 311.542 46.9825 312.975 46.2739C313.92 45.8076 314.442 44.4471 314.119 43.4706C313.884 42.7518 313.491 42.1875 312.993 41.7443C313.29 41.5949 313.569 41.4042 313.814 41.1929L314.029 41.0077C314.896 40.255 314.958 38.825 314.431 37.882C314.38 37.7918 314.328 37.6991 314.279 37.6089C313.778 36.7148 312.743 36.1299 311.72 36.1454C311.555 36.148 311.39 36.148 311.222 36.1454C311.699 36.0398 312.167 35.8774 312.611 35.6043C314.615 34.3753 314.362 31.0438 311.937 30.4563C310.92 30.2115 309.796 30.312 308.676 30.5748C308.717 30.5516 308.758 30.5284 308.8 30.5027C309.647 29.9848 310.357 28.9722 310.277 27.9338C310.189 26.7847 309.817 25.9653 308.8 25.3624C307.916 24.8419 306.667 24.793 305.789 25.3624C305.027 25.8597 304.281 26.4085 303.563 26.9985C304.283 26.1148 304.908 25.1537 305.161 24.1334C305.474 22.8631 304.952 21.4795 303.805 20.8096C302.891 20.2762 301.926 20.3355 301.063 20.7477C301.11 20.0804 300.947 19.4002 300.503 18.7973C299.594 17.5608 297.941 16.8494 296.503 17.7512C296.314 17.8697 296.061 18.0732 295.816 18.3232C296.294 16.8056 295.862 15.2132 294.233 14.5279C293.239 14.1079 291.893 14.3192 291.031 15.0432C291.578 12.0878 287.207 9.91578 285.508 12.969C285.122 13.6607 284.74 14.389 284.399 15.1341L284.273 15.4142L284.26 15.4091L284.347 15.2042L284.436 14.9994C284.908 13.9043 285.51 12.7655 285.675 11.5777C285.918 9.82044 285.133 8.1534 283.217 7.89574C282.228 7.76175 281.128 8.21008 280.464 8.99362C280.823 6.26734 277.771 4.28594 275.574 6.32144C274.533 7.28509 273.978 8.69448 273.317 9.93124C272.942 10.6295 272.56 11.3252 272.186 12.026C272.09 11.9126 271.987 11.7993 271.878 11.6885C272.434 10.0291 272.865 8.3286 273.229 6.61775C273.575 5.00481 272.767 3.33003 271.099 2.87423C269.583 2.45657 267.685 3.38955 267.346 4.99992C267.109 6.13335 266.827 7.25443 266.518 8.36983C266.306 8.3183 266.097 8.28222 265.89 8.25646C265.873 8.0469 265.853 7.83619 265.832 7.62663L265.75 6.8813C265.57 5.17832 265.388 3.23429 264.496 1.78666C262.975 -0.686861 259.076 0.338619 259.034 3.26304C259.011 4.77549 259.628 6.27507 259.842 7.77206C259.935 8.42394 259.99 9.08354 260.021 9.74315C259.605 7.55305 259.034 5.3913 258.373 3.26304C258.296 3.00796 258.213 2.75288 258.133 2.4978ZM291.775 86.9531C288.353 86.4249 285.226 88.329 283.199 90.9958C282.83 91.4827 283.073 92.1707 283.406 92.5804C283.646 92.8818 283.969 92.9179 284.333 92.9643C284.751 93.0184 285.28 92.6808 285.464 92.3176C286.768 89.7204 289.094 88.0791 291.775 87.069C291.824 87.051 291.839 86.9634 291.775 86.9531ZM287.031 40.4189L286.928 40.3079C286.236 39.5913 287.33 38.4968 288.024 39.2149C288.754 39.9709 289.239 40.8892 289.706 41.8198C290.151 42.7072 288.815 43.491 288.368 42.6003L288.165 42.1954C287.846 41.5659 287.505 40.944 287.031 40.4189ZM296.64 38.9482C295.659 38.7833 296.075 37.2933 297.052 37.4576C298.318 37.6705 299.579 37.9124 300.845 38.1255C301.826 38.2904 301.41 39.7804 300.433 39.6163C299.167 39.4032 297.906 39.1613 296.64 38.9482ZM238.186 28.7756C239.134 28.4599 239.541 29.9525 238.598 30.2664C237.295 30.7 236.003 31.1445 234.767 31.7466C233.875 32.1815 233.088 30.8487 233.985 30.4117C235.342 29.7508 236.756 29.2517 238.186 28.7756ZM296.863 26.772C297.789 26.4025 298.191 27.8972 297.275 28.2628L293.929 29.5983C293.003 29.9678 292.601 28.4733 293.517 28.1077L296.863 26.772ZM226.501 23.1423L226.623 23.0653C227.462 22.5227 228.239 23.8605 227.405 24.4003C226.915 24.717 226.319 24.9318 225.87 25.3091L225.777 25.3925C225.052 26.0753 223.954 24.9844 224.681 24.2993C225.213 23.7985 225.886 23.5197 226.501 23.1423Z" fill="#030F40"/>
</g>
<g id="FACE">
<path id="&#240;&#159;&#150;&#141; Ink_3" fill-rule="evenodd" clip-rule="evenodd" d="M228.327 92.0335C226.229 89.1015 229.2 86.3438 231.15 85.1611C231.661 84.7953 231.256 83.5833 230.164 83.7706C220.249 85.4704 225.386 102.512 238.045 93.1603C239.553 91.9472 237.727 89.2751 236.103 90.314C236.021 90.3771 235.934 90.4437 235.844 90.5132C234.019 91.9211 230.68 94.4972 228.327 92.0335ZM243.873 104.384C243.395 104.573 239.357 104.758 236.972 104.649C235.346 104.576 231.127 103.593 231.127 103.171C231.127 102.749 231.307 102.367 231.461 102.383C232.089 102.451 237.087 102.506 240.606 102.545C242.161 102.562 243.427 102.576 243.9 102.586C244.133 102.591 244.376 102.586 244.623 102.58C244.794 103.108 244.35 104.195 243.873 104.384ZM235.788 101.313C233.91 101.296 231.63 101.277 230.006 101.372C229.426 101.406 229.14 102.233 229.099 102.625C228.714 106.271 231.632 109.179 234.853 110.305C237.842 111.351 241.79 111.549 244.456 109.595C245.614 108.748 246.491 107.572 247.063 106.264C247.372 105.559 247.598 104.828 247.723 104.069C247.735 103.998 247.748 103.923 247.761 103.846C247.858 103.301 247.974 102.641 247.788 102.142C247.518 101.425 246.803 101.417 246.146 101.41C246.092 101.409 246.038 101.409 245.984 101.408C245.72 101.403 245.456 101.397 245.191 101.391C244.494 101.376 243.797 101.361 243.101 101.353C241.603 101.336 240.104 101.331 238.607 101.327C238.086 101.326 237.565 101.324 237.045 101.322C236.658 101.32 236.234 101.316 235.788 101.313Z" fill="#030F40"/>
<path id="Path" fill-rule="evenodd" clip-rule="evenodd" d="M253.435 65.4976L252.916 65.2382L252.385 64.9761L252.027 64.8009C249.56 63.6045 246.809 62.4364 244.17 62.216C243.208 62.1357 242.339 62.5124 242.009 63.4697C241.732 64.2776 242.056 65.4553 242.941 65.7846C245.874 66.8757 249.009 67.3332 251.953 68.4422C253.419 68.9943 254.861 69.6047 256.316 70.1854C257.422 70.6273 258.594 70.938 259.717 71.3409L259.444 71.3249C259.348 71.3191 259.34 71.4801 259.434 71.4921C259.823 71.5299 260.206 71.5999 260.584 71.7027L260.746 71.7487C260.989 71.8335 261.195 71.5651 261.003 71.3697C259.782 70.1339 258.791 68.8605 257.351 67.8424C256.106 66.9619 254.799 66.1804 253.435 65.4976Z" fill="#030F40"/>
<path id="Path_2" fill-rule="evenodd" clip-rule="evenodd" d="M228.995 63.6867C226.955 61.629 222.616 62.4198 220.19 63.361C218.804 63.8985 217.487 64.5779 216.39 65.5944L216.284 65.6944L216.119 65.8525C215.378 66.5758 214.553 67.5711 214.67 68.6139C214.688 68.7729 214.775 68.9545 214.955 68.9865C215.927 69.1583 216.881 68.6466 217.779 68.3387L218.373 68.1352C219.266 67.8318 220.164 67.5419 221.085 67.3326C222.229 67.0728 223.397 66.9226 224.572 66.9376C225.759 66.953 227.035 67.2875 228.166 66.817C229.428 66.2927 230.082 64.7838 228.995 63.6867Z" fill="#030F40"/>
<path id="Path_3" fill-rule="evenodd" clip-rule="evenodd" d="M250.158 74.5183C249.942 71.85 245.87 71.244 245.464 73.8845C245.102 76.2498 245.529 78.4226 246.596 80.5522C247.617 82.5867 250.181 81.6375 250.375 79.7849C250.635 77.3016 250.292 76.1782 250.158 74.5183Z" fill="#030F40"/>
<path id="Path_4" fill-rule="evenodd" clip-rule="evenodd" d="M223.411 73.2272C222.843 72.4851 222.023 71.9786 221.041 72.2648C217.972 73.1597 218.877 77.5072 219.954 79.6233C220.54 80.7725 222.433 81.0639 223.289 80.052C224.683 78.402 225.351 75.1068 223.578 73.4815C223.53 73.3975 223.477 73.3127 223.411 73.2272Z" fill="#030F40"/>
</g>
<g id="ACCESORIES">
<path id="&#240;&#159;&#150;&#141; Ink_4" fill-rule="evenodd" clip-rule="evenodd" d="M203.708 78.4402C206.17 95.0563 223.356 96.8939 226.409 80.3981C225.919 80.184 225.567 79.7625 225.64 78.9442C225.658 75.3493 224.539 71.5499 221.289 69.5507C217.931 67.4879 214 67.2833 210.114 67.3354C202.697 67.1591 202.853 73.3447 203.708 78.4402ZM229.1 71.2136C231.427 71.1157 234.372 71.1977 236.457 72.6127C237.03 71.0724 238.52 69.4278 240.025 68.5484C234.431 68.7118 228.673 68.1624 223.038 67.736C224.387 68.6535 225.642 70.032 226.457 71.6256C227.214 71.2229 228.298 71.2605 229.1 71.2136ZM239.36 80.2018C245.814 102.37 261.925 92.7075 263.682 89.8665C266.85 85.1653 267.446 73.7371 264.686 70.6816C260.736 67.9184 255.143 68.6296 250.477 68.5618C241.903 68.6772 235.814 71.2363 239.36 80.2018ZM196.087 70.006C197.84 69.7772 199.714 69.7311 201.345 70.5015C201.847 68.3724 203.423 66.5925 205.202 65.8093C205.417 65.5397 205.385 65.3949 206.121 65.4354C210.639 64.0806 215.694 64.7974 220.035 66.1867C226.892 66.7628 234.085 67.2171 240.999 68.0109C247.476 65.1087 267.022 64.6833 268.236 71.8367C269.764 71.6086 272.366 70.4087 273.65 72.0363C283.068 70.4432 292.799 72.6573 302.258 73.6434C304.639 74.0809 305.865 78.7955 303.162 78.7311C301.643 78.3196 303.209 75.7953 301.163 75.6054C292.037 74.6109 283.111 73.1999 273.892 73.0348C274.212 74.6232 267.794 74.7265 267.699 73.799C267.685 73.8059 267.671 73.8106 267.657 73.8168C269.243 79.7146 267.811 88.2023 264.945 91.8595C260.929 96.6484 250.847 98.0222 246.376 94.9411C240.609 92.0974 234.61 77.8226 236.295 73.0801C233.236 72.1129 230.213 72.4032 227.039 72.8959C227.765 74.944 229.02 79.9859 227.215 80.4231C227.546 90.4331 218.416 96.679 210 92.5727C202.715 89.1606 200.167 78.36 201.059 71.8044C200.152 73.5529 192.537 71.6493 196.087 70.006Z" fill="#030F40"/>
</g>
</g>
</g>
<defs>
<clipPath id="clip0_3180_142125">
<rect width="362" height="286.212" fill="white"/>
</clipPath>
<clipPath id="clip1_3180_142125">
<rect width="491.234" height="527.257" fill="white" transform="translate(191.391 370.185) rotate(-109.114)"/>
</clipPath>
<clipPath id="clip2_3180_142125">
<rect width="353.773" height="351.797" fill="white" transform="translate(-21.876 104.096) rotate(1.71846)"/>
</clipPath>
</defs>
</svg>
