<svg width="484" height="419" viewBox="0 0 484 419" fill="none" xmlns="http://www.w3.org/2000/svg">
<g id="desktop_actuhero" clip-path="url(#clip0_3180_142366)">
<mask id="mask0_3180_142366" style="mask-type:alpha" maskUnits="userSpaceOnUse" x="0" y="-148" width="714" height="633">
<path id="mask" fill-rule="evenodd" clip-rule="evenodd" d="M684 424.212H174.281C111.547 424.212 60.6904 373.356 60.6904 310.621C60.6904 247.886 111.547 197.03 174.281 197.03H337.227C456.786 197.03 553.707 100.109 553.707 -19.4499V-117.788C553.707 -134.357 540.276 -147.788 523.707 -147.788C507.139 -147.788 493.707 -134.357 493.707 -117.788V-19.4499C493.707 66.9716 423.649 137.03 337.227 137.03H174.281C78.4097 137.03 0.690434 214.749 0.69043 310.621C0.690428 406.493 78.4097 484.212 174.281 484.212L684 484.212C700.569 484.212 714 470.78 714 454.212C714 437.643 700.569 424.212 684 424.212Z" fill="#BBDBFD"/>
</mask>
<g mask="url(#mask0_3180_142366)">
<g id="shape">
<path id="secondary-color" fill-rule="evenodd" clip-rule="evenodd" d="M174.281 409.212C119.831 409.212 75.6904 365.071 75.6904 310.621C75.6904 256.171 119.831 212.03 174.281 212.03H327.227C455.07 212.03 558.707 108.393 558.707 -19.4498V-117.788C558.707 -142.641 538.56 -162.788 513.707 -162.788C488.855 -162.788 468.707 -142.641 468.707 -117.788V-19.4498C468.707 58.6874 405.365 122.03 327.227 122.03H174.281C70.1254 122.03 -14.3096 206.465 -14.3096 310.621C-14.3096 414.777 70.1254 499.212 174.281 499.212H684C708.853 499.212 729 479.065 729 454.212C729 429.359 708.853 409.212 684 409.212H174.281Z" fill="#FFC229"/>
<g id="BlobCorner" opacity="0.15" clip-path="url(#clip1_3180_142366)">
<path id="Vector" fill-rule="evenodd" clip-rule="evenodd" d="M-136.474 250.4C-148.054 282.81 -131.028 319.254 -128.876 354.566C-126.783 388.902 -136.554 422.595 -123.957 455.77C-109.988 492.554 -90.3942 533.142 -53.8927 552.028C-17.4505 570.883 24.4889 557.06 63.6761 552.851C97.3451 549.236 128.858 541.758 159.206 529.144C191.372 515.774 224.749 503.057 246.129 477.015C268.975 449.189 283.12 414.413 283.618 377.61C284.127 340.018 271.364 301.587 248.952 268.515C226.98 236.093 195.216 209.215 158.643 193.197C124.179 178.102 87.058 185.084 50.3176 181.517C11.7177 177.769 -28.7528 158.806 -63.5141 171.625C-98.9038 184.676 -124.233 216.139 -136.474 250.4Z" fill="white"/>
</g>
<g id="BlobCorner_2" opacity="0.06" clip-path="url(#clip2_3180_142366)">
<path id="Vector_2" fill-rule="evenodd" clip-rule="evenodd" d="M523.639 459.814C539.338 417.339 517.46 369.146 515.133 322.656C512.871 277.451 526.209 233.261 510.109 189.432C492.257 140.836 467.058 87.154 419.304 61.7835C371.627 36.4543 316.25 54.0421 264.632 59.0179C220.282 63.293 178.713 72.6802 138.605 88.8418C96.0925 105.972 51.9978 122.227 23.4952 156.184C-6.961 192.468 -26.0692 238.02 -27.2514 286.434C-28.459 335.886 -12.2171 386.632 16.7976 430.465C45.2418 473.436 86.6479 509.254 134.539 530.853C179.665 551.206 228.605 542.551 276.893 547.77C327.625 553.254 380.6 578.782 426.519 562.414C473.268 545.749 507.043 504.716 523.639 459.814Z" fill="#343A40"/>
</g>
<g id="BlobCorner_3" opacity="0.06" clip-path="url(#clip3_3180_142366)">
<path id="Vector_3" fill-rule="evenodd" clip-rule="evenodd" d="M315.7 234.328C344.101 251.014 381.204 244.965 415.026 238.308C445.373 232.335 471.746 213.879 499.56 198.142C528.13 181.977 560.019 170.925 580.845 144.487C602.774 116.648 617.652 81.7086 618.437 47.2291C619.21 13.3041 602.847 -16.488 585.117 -43.1116C568.822 -67.5805 546.597 -86.3177 520.796 -99.393C496.205 -111.855 467.903 -111.409 440.459 -116.42C406.585 -122.606 372.631 -149.081 340.027 -132.404C307.852 -115.948 304.461 -69.0994 285.377 -37.0996C266.626 -5.65875 232.573 19.0063 228.475 54.6408C224.362 90.4152 249.051 118.904 263.917 149.529C278.753 180.09 287.22 217.595 315.7 234.328Z" fill="#343A40"/>
</g>
</g>
</g>
</g>
<defs>
<clipPath id="clip0_3180_142366">
<rect width="484" height="418" fill="white" transform="translate(484 418.212) rotate(-180)"/>
</clipPath>
<clipPath id="clip1_3180_142366">
<rect width="423.586" height="454.484" fill="white" transform="matrix(0.518942 -0.854809 -0.854809 -0.518942 134.438 669.436)"/>
</clipPath>
<clipPath id="clip2_3180_142366">
<rect width="550.942" height="591.344" fill="white" transform="matrix(0.518942 -0.854809 -0.854809 -0.518942 389.383 687.901)"/>
</clipPath>
<clipPath id="clip3_3180_142366">
<rect width="396.773" height="394.557" fill="white" transform="matrix(-0.99955 0.0299882 0.0299882 0.99955 617.035 -150.069)"/>
</clipPath>
</defs>
</svg>
