<svg xmlns="http://www.w3.org/2000/svg" fill="none"   viewBox="0 0 320 200">
  <defs>
    <clipPath id="clippath_mobile">
      <path fill="none" d="M0 0h320v200H0z"/>
    </clipPath>
    <style>
      .cls-2_mobile{fill:#fff}.cls-4_mobile{fill-rule:evenodd;opacity:.5;fill:#efeee9}.cls-10_mobile{fill:#fac01a}.cls-11{fill:#030f40}.cls-12_mobile{fill:#abafc2}.cls-15_mobile{fill:#3b4670}
    </style>
    <mask id="mask" width="1038.29" height="472.1" x="-307.99" y="-129.68" maskUnits="userSpaceOnUse">
      <path id="mask0_9576_52679" fill="#fff" fill-rule="evenodd" d="M520.43-19.42c-13.6 0-24.62 11.02-24.62 24.62s11.02 24.62 24.62 24.62h67.53c47.07 0 85.22 38.16 85.22 85.22s-38.16 85.22-85.22 85.22h-875.64c-11.22 0-20.32-9.1-20.32-20.32s9.1-20.32 20.32-20.32h875.64c24.63 0 44.59-19.96 44.59-44.59s-19.96-44.59-44.59-44.59h-67.53c-36.04 0-65.25-29.21-65.25-65.25s29.21-65.25 65.25-65.25h189.54c11.22 0 20.32 9.1 20.32 20.32s-9.1 20.32-20.32 20.32H520.43Z" data-name="mask0 9576 52679"/>
    </mask>
  </defs>
  <g clip-path="url(#clippath_mobile)">
    <path d="M77.36 186.48c-5.87-16.43 2.76-34.9 3.85-52.8 1.06-17.4-3.89-34.48 2.49-51.3 7.08-18.64 17.01-39.22 35.51-48.79 18.47-9.56 39.73-2.55 59.59-.42 17.07 1.83 33.04 5.62 48.42 12.02 16.3 6.78 33.22 13.22 44.06 26.42 11.58 14.1 18.75 31.73 19 50.38.26 19.05-6.21 38.53-17.57 55.29-11.14 16.43-27.24 30.06-45.77 38.18-17.47 7.65-36.28 4.11-54.9 5.92-19.56 1.9-40.08 11.51-57.7 5.01-17.94-6.61-30.78-22.56-36.98-39.93Zm402.94 60.08c-15.28 9.6-35.7 6.9-54.33 3.81-16.72-2.77-31.46-12.44-46.95-20.59-15.91-8.38-33.56-13.9-45.4-28.03-12.47-14.88-21.19-33.75-22.18-52.61-.98-18.55 7.49-35.13 16.76-49.99 8.52-13.66 20.39-24.28 34.3-31.86 13.26-7.22 28.77-7.44 43.72-10.64 18.45-3.94 36.61-18.99 54.74-10.4 17.89 8.48 20.52 34.06 31.49 51.26 10.79 16.9 29.84 29.84 32.67 49.27 2.84 19.51-10.21 35.51-17.85 52.51-7.62 16.97-11.64 37.63-26.96 47.26Z" class="cls-4_mobile"/>
    <path d="M59.43 54.33c16.97-1.52 35.05 2.2 48.7 13.46 13.25 10.92 15.51 31.26 24.32 46.74 9.24 16.23 28.14 27.52 28.86 46.7.72 19.12-15.71 33.06-25.26 49-8.97 14.97-16.45 30.87-29.21 41.96-13.97 12.14-29.66 24.32-47.41 24.62-17.81.3-33.27-12.34-48.26-22.99-14.45-10.26-27.93-21.95-37.37-37.83-9.78-16.47-17.25-35.05-17.64-54.76-.39-19.9 4.51-40.36 15.45-56.16C-17.93 89.95-.18 84.93 15.07 76.12c14.59-8.43 27.96-20.32 44.36-21.79Z" class="cls-4_mobile"/>
    <path fill="#efeee9" fill-rule="evenodd" d="M365.33.53c37.07-3.32 76.57 4.82 106.41 29.42 28.95 23.87 33.89 68.32 53.13 102.14 20.19 35.48 61.47 60.15 63.05 102.05 1.57 41.78-34.32 72.24-55.18 107.09-19.59 32.72-35.94 67.46-63.82 91.69-30.52 26.53-64.8 53.14-103.59 53.8-38.92.66-72.68-26.96-105.45-50.24-31.57-22.43-61.02-47.96-81.64-82.67-21.38-35.99-37.69-76.6-38.54-119.67-.86-43.5 9.86-88.2 33.76-122.73 22.86-33.03 61.64-44 94.95-63.25C300.29 29.74 329.49 3.74 365.33.53Z"/>
    <path id="secondary-color_mobile" fill="#ffc229" fill-rule="evenodd" d="M520.43-19.42c-13.6 0-24.62 11.02-24.62 24.62s11.02 24.62 24.62 24.62h67.53c47.07 0 85.22 38.16 85.22 85.22s-38.16 85.22-85.22 85.22h-875.64c-11.22 0-20.32-9.1-20.32-20.32s9.1-20.32 20.32-20.32h875.64c24.63 0 44.59-19.96 44.59-44.59s-19.96-44.59-44.59-44.59h-67.53c-36.04 0-65.25-29.21-65.25-65.25s29.21-65.25 65.25-65.25h189.54c11.22 0 20.32 9.1 20.32 20.32s-9.1 20.32-20.32 20.32H520.43Z"/>
    <g mask="url(#mask)">
      <path d="M253.53 283.25c-5.87-16.43 2.76-34.9 3.85-52.8 1.06-17.4-3.89-34.48 2.49-51.29 7.08-18.64 17.01-39.22 35.51-48.79 18.47-9.56 39.73-2.55 59.59-.42 17.07 1.83 33.04 5.62 48.42 12.02 16.3 6.78 33.22 13.22 44.06 26.42 11.58 14.1 18.75 31.73 19 50.38.26 19.05-6.21 38.53-17.57 55.29-11.14 16.43-27.24 30.06-45.77 38.18-17.47 7.65-36.28 4.11-54.9 5.92-19.56 1.9-40.08 11.51-57.7 5.01-17.94-6.61-30.77-22.56-36.98-39.93Zm-350.2-62.47c-4.88-13.66 2.29-29.01 3.2-43.89.88-14.47-3.24-28.67 2.07-42.64 5.89-15.5 14.14-32.6 29.52-40.56 15.36-7.95 33.03-2.12 49.54-.35 14.19 1.52 27.47 4.67 40.25 9.99 13.55 5.63 27.62 10.99 36.63 21.97 9.63 11.72 15.59 26.38 15.8 41.89.21 15.84-5.16 32.03-14.61 45.97-9.26 13.66-22.64 24.99-38.05 31.74-14.52 6.36-30.16 3.42-45.65 4.92-16.26 1.58-33.32 9.57-47.97 4.17-14.91-5.5-25.59-18.76-30.74-33.19Z" style="fill:#adb5bd;opacity:.2;fill-rule:evenodd"/>
      <path d="M189.22 121.55c8.3 14.31 5.16 32.93 1.72 49.91-3.09 15.23-12.44 28.43-20.42 42.36-8.2 14.31-13.85 30.3-27.19 40.69-14.05 10.94-31.65 18.33-48.98 18.63-17.05.3-31.97-8-45.3-16.98-12.25-8.25-21.6-19.47-28.1-32.46-6.19-12.39-5.89-26.6-8.33-40.4-3.01-17.03-16.22-34.16-7.75-50.5 8.36-16.12 31.91-17.7 48.04-27.2 15.85-9.34 28.34-26.38 46.26-28.34 17.99-1.97 32.23 10.51 47.58 18.05 15.31 7.53 34.13 11.89 42.46 26.24Zm208.97 53.94c-11.08 12.29-29.77 15-46.99 16.92-15.44 1.72-30.87-3.13-46.58-6.47-16.13-3.43-33.09-3.91-47.06-13.43-14.72-10.03-27.14-24.52-32.73-40.92-5.5-16.14-2.17-32.89 2.29-48.32 4.1-14.19 11.92-26.52 22.3-36.69 9.9-9.69 23.52-13.75 35.91-20.3 15.29-8.08 27.55-25.9 45.7-22.83 17.91 3.02 26.62 24.96 40.61 37.41 13.74 12.23 33.79 18.9 41.15 35.36 7.39 16.52-.13 33.9-2.62 50.82-2.48 16.88-.86 36.13-11.98 48.46Z" style="fill-rule:evenodd;fill:#fff;opacity:.15"/>
    </g>
    <path d="M205.84 175.8c.43 1.21.99 2.15 1.8 3 1.62 1.71 3.34 3.29 5.37 4.52 1.24.75 2.53 1.42 3.8 2.12.35.19.72.35 1.1.51 1.78.75 2.68 2.1 2.86 3.96.04.39.12.78.15 1.16.06.68-.43 1.04-.95 1.47.23.09.42.16.59.25.3.16.63.29.88.51.83.72.71 1.64-.27 2.16-.79.42-1.67.52-2.53.53-4.28.06-8.22-1.09-11.85-3.29-.19-.11-.41-.22-.51-.39-.51-.84-1.41-1.03-2.23-1.35-.43-.17-.88-.34-1.33-.41-.7-.11-1.08-.52-1.37-1.1a38.69 38.69 0 0 1-2.52-6.68c-.47-1.76-1.1-3.5-1.64-5.25-.1-.32-.25-.52-.6-.61-.36-.09-.7-.25-1.04-.4-.93-.43-1.59-1.06-1.89-2.1-1.4-4.75-2.86-9.48-4.31-14.21-1.55-5.02-3.1-10.05-4.69-15.06-.4-1.25-.88-2.48-1.4-3.69-.52-1.21-1.11-2.39-1.74-3.54-1.32-2.42-2.64-4.85-4.04-7.22-1.24-2.08-2.65-4.07-3.91-6.14-3.54-5.78-7.18-11.51-10.07-17.66-.86-1.83-1.66-3.69-1.88-5.73-.19-1.86-.25-3.71.26-5.55.17-.63.44-1.32-.14-1.98-.16-.18-.02-.62-.02-1.01-.34.12-.67.26-1.02.35-.28.06-.59.04-.88.05-.15 0-.34-.09-.46-.03-.77.43-1.48.08-2.13-.21-3.05-1.35-5.27-3.52-5.88-6.84-.35-1.88-.35-3.83-.35-5.75 0-2.45.56-4.84 1.17-7.22.66-2.61 1.16-5.25 1.9-7.84 1.21-4.24 2.65-8.41 4.77-12.3.65-1.2 1.52-2.3 2.35-3.41.65-.86 1.49-1.56 2.44-2.11 1.34-.77 2.55-1.78 4.04-2.27.94-.31 1.9-.58 2.85-.85 1.4-.41 2.81-.79 4.2-1.21.24-.07.51-.25.64-.46 1.08-1.71 1.8-3.55 2.1-5.6-1.62-.72-2.25-2.04-2.06-3.71.19-1.58.75-2.98 2.42-3.58 1.87-4.6 4.79-6.18 8.72-6.58 3.91-.39 6.77 1.28 9.11 4.16.84 1.04 1.23 2.25 1.34 3.55.02.28.05.55.08.82.25 1.79.16 3.51-.65 5.2-.62 1.29-1.02 2.69-1.59 4.01-1.26 2.94-3.4 4.91-6.62 5.65-.21.05-.41.12-.77.22.42.19.72.32 1.02.45 1.14.49 2.28.98 3.42 1.46 1.83.77 3.09 2.12 3.95 3.85.98 1.97 1.53 4.07 1.87 6.21.41 2.58.39 5.18.25 7.78-.03.55-.05 1.09-.08 1.67.18.1.34.18.49.27.7.45.78.68.44 1.44-.57 1.29-1.15 2.57-1.71 3.86-.1.24-.16.53-.14.79.1 1.4.2 2.8.36 4.19.42 3.71.38 7.44.44 11.17.07 3.76.05 7.51.06 11.27 0 .57.11 1.06.58 1.47.98.88 1.59 2.02 2.28 3.11.51.79 1.17 1.5 1.77 2.24.23.29.51.54.72.84.31.45.12.85-.43.92-.3.04-.62 0-.9 0-.05.07-.11.12-.1.16.56 2.09.07 4.19.02 6.29 0 .21-.07.42-.14.62-.26.78-1.12.95-1.83.52-1.14-.69-1.75-1.76-2.37-2.85-.28-.5-.57-.99-.95-1.64-.08.56-.1.94-.2 1.3-.15.51-.55.59-.89.19-.17-.21-.29-.46-.39-.72-.92-2.41-1.64-4.87-2.07-7.4-.22-1.32-.2-2.7-.54-3.99-.51-1.91-1.27-3.76-1.88-5.65-.99-3.11-1.94-6.24-2.9-9.36-.07-.22-.14-.45-.26-.81-.23 1.17-.42 2.17-.27 3.21.2 1.4-.18 2.73-.64 4.04-.3.86-.96 1.46-1.82 1.72-.75.23-1.07.65-1.13 1.36-.05.51-.16 1.02-.19 1.54-.19 3.23-.35 6.47-.53 9.7 0 .05-.06.09-.16.22-1.01-1.61-1.53-3.42-2.7-4.91.06.16.11.32.18.48 1.42 3.32 2.91 6.62 4.24 9.97 2.29 5.75 4.99 11.32 7.48 16.98 1.83 4.15 3.47 8.36 4.46 12.8.78 3.49 2.01 6.86 3.2 10.23 1.45 4.09 2.92 8.18 4.26 12.31.73 2.24 1.21 4.55 1.81 6.82.17.65.36 1.3.62 1.92.2.48.15.81-.34 1.07h-.01ZM195.61 36.73c.55-.75.56-1.65.71-2.52.2-1.19-.07-2.23-.74-3.21-.73-1.08-1.05-1.09-1.72 0-.67 1.1-2.07 1.18-2.88.16-.18-.24-.34-.51-.5-.77-1.29-2.21-4.58-2.37-6.25-.53-.92 1.01-1.67 2.11-2.01 3.46-.15.59-.41 1.15-.69 1.69-.18.35-.43.68-.73.94-.65.59-1.41.42-1.67-.42-.14-.45-.18-.96-.14-1.44.07-.72.22-1.45.39-2.16.14-.58-.14-.94-.55-1.25-.37-.28-.84-.24-1.28.12-.25.21-.47.49-.63.78-.91 1.66-.66 3.39.77 4.77.41.39.54.79.54 1.29 0 .28-.02.55-.05.82-.26 2.19-1.27 4.07-2.53 5.84-.26.38-.53.75-.82 1.11-.3.37-.29.69.02 1.05.43.49.79 1.02 1.2 1.51 1.08 1.3 2.47 2.14 4.14 2.45.88.16 1.78.18 2.67.31.96.13 1.54-.18 1.89-1.07.17-.45.2-.81-.24-1.21-.87-.78-1.62-1.67-2.11-2.75-.2-.45-.64-.8-.98-1.19-.23-.27-.46-.54-.71-.81.54-.33.56-.35.87-.15.42.26.8.58 1.22.84 1.42.91 2.98 1.45 4.67 1.2 2.85-.42 4.88-2.08 6.24-4.49.78-1.38 1.27-2.91 1.89-4.37h-.01Zm-21.3 7.47c-.32.08-.44.11-.55.14-1.64.46-3.28.96-4.92 1.38-2.77.71-5.01 2.2-6.88 4.31-2.43 2.75-3.98 5.99-5.21 9.35-.86 2.34-1.34 4.82-1.98 7.24-.64 2.45-1.17 4.94-1.91 7.35-1.07 3.51-1.35 7.06-.89 10.69.27 2.09 1.28 3.81 2.69 5.32 1.08 1.17 2.49 1.81 4.07 2.03.35.05.82.07 1.07-.11.82-.6 1.66-1.22 2.3-1.98 1.34-1.58 2.26-3.42 3.02-5.35.38-.98.57-1.98.35-3.07-.56-.04-1.11-.08-1.62-.12-.28.76-.59 1.18-.95 1.25-.13-.53-.01-2.47.22-3.13.92-2.59 1.84-5.18 2.79-7.76.75-2.04 1.55-4.05 2.34-6.08.04-.11.1-.22.15-.34.12-.28.31-.51.64-.39.39.14.32.47.2.77-.13.31-.29.61-.44.91-.39.85-.77 1.71-1.16 2.56.49-.35.79-.79 1.16-1.19.34-.38.56-.92 1.3-1-.07.24-.07.39-.14.5-1.05 1.51-2.1 3.02-3.16 4.53-.14.2-.32.38-.4.61-.58 1.68-1.13 3.36-1.7 5.04-.17.52-.37 1.04-.55 1.55-.15.4-.31.8-.11 1.22.51.12 1.08.12 1.45.38.65.46 1.32.43 2.03.41.53-.01 1.06 0 1.59.02 1.18.04 2.36.1 3.54.12.96.02 1.93-.07 2.89 0 1.79.12 3.37-.29 4.74-1.47 1.73-1.5 3.56-2.86 5.51-4.06.29-.18.56-.48.71-.79.76-1.47 1.52-2.94 2.19-4.45.29-.65.71-1.12 1.28-1.51.29-.2.46-.44.56-.79.2-.67.5-1.31.8-1.95.06-.13.25-.2.38-.3.08.15.22.3.21.45-.01.3-.09.6-.17.89-.11.42-.23.84-.35 1.28 1.87-.15 3.62-.28 5.4-.42.03-.28.07-.49.07-.7-.02-2.41.02-4.82-.07-7.24-.1-2.27-.71-4.46-1.52-6.58-.77-2.03-2.08-3.57-4.19-4.42-1.69-.69-3.32-1.51-4.99-2.27-.1-.05-.23-.04-.41-.08-.11.77-.2 1.49-.31 2.21-.18 1.15-.77 2.15-2.39 2.21-1.23.05-2.44-.09-3.59-.44-2.86-.85-5.25-2.25-5.89-5.45.23-.36.46-.72.8-1.28v-.02Zm-11.68 46.72c.15.02.22.05.27.04.15-.04.29-.09.44-.14 5.59-1.75 11.15-3.61 16.88-4.87.87-.19 1.77-.29 2.66-.39 1.08-.12 2.16-.22 3.25-.26 1.53-.06 2.62-.98 3.96-1.79-.86-.09-1.4.59-2.28.41 1.27-.76 2.47-1.3 3.46-2.17-1.15.26-2.13.98-3.34 1.06.32-.25.68-.43 1.02-.62 1.17-.63 2.35-1.25 3.5-1.91.4-.24.74-.58 1.1-.88-.04-.06-.08-.12-.12-.19-.51.2-1.01.41-1.53.6-.46.18-.92.44-1.4.48-1.48.13-2.97.18-4.46.23-.33.01-.68-.1-.99-.21-.59-.21-.79-.52-.66-1.14.11-.54.33-1.05.51-1.57.06-.17.14-.34.29-.67-.49.31-.81.49-1.1.72-1.37 1.11-2.73 2.21-4.06 3.36-.86.74-1.86 1.1-2.96 1.18-1.3.09-2.6.15-3.9.13-1.46-.03-2.92-.18-4.37-.25-.76-.04-1.52 0-2.23 0 .08 3.55-1.74 6.24-3.94 8.85Zm36.1 88.62c.56 1.95 1.07 3.83 1.66 5.68.09.28.5.57.82.66 1.61.44 2.99 1.29 4.38 2.17 2.86 1.8 6.08 2.41 9.45 2.22.86-.05 1.72-.25 2.54-.48.83-.23 1.48-.75 1.78-1.64-.56-.91-1.52-1.28-2.45-1.69-3.92-1.71-7.41-3.98-10.1-7.31-.41-.51-.91-.96-1.38-1.45-1.93 1.75-4.22 1.97-6.71 1.84Zm-1.58-69.6.18-.09c.1.07.21.11.27.2.62.98 1.34 1.95 1.46 3.13.12 1.23.62 2.32 1.09 3.44-.29-2.48.04-5.05-1.23-7.48.54.06.7.37.86.64.43.77.51 1.61.57 2.47.12 1.42.35 2.83.53 4.25h.2c.11-1.87.57-3.72.32-5.6-.12-.91-.39-1.78-1.35-2.23a.388.388 0 0 1-.15-.11c-.54-.55-1.2-.83-1.96-.95-.45-.08-.89-.27-1.3-.48-.32-.16-.63-.38-.62-.89.59.25 1.1.56 1.65.69 1.29.3 2.49.72 3.52 1.58.21.18.47.37.75.22-.66-1.05-1.31-2.05-1.92-3.07-.59-.98-1.22-1.93-2.11-2.66-.51-.42-.65-.95-.71-1.52-.04-.37-.03-.73-.03-1.1-.01-2.29-.01-4.58-.02-6.87 0-.33-.04-.66-.05-1.05-2.42-.18-4.47.69-6.52 1.68.07.32.1.56.17.79.46 1.39.88 2.79 1.39 4.17.64 1.73 1.18 3.48 1.29 5.32.18 2.89 1.08 5.62 1.89 8.37.05.16.17.31.27.46.06-.02.12-.05.18-.06l-.63-3.06c.84.88 1.51 1.85 2.14 2.85.62.98 1.04 2.09 1.89 2.95-.24-1.05-.52-2.07-.87-3.07-.35-.98-.76-1.94-1.14-2.91h-.01Zm-11.04-22.78c-.3.08-.59.11-.83.24-1.1.59-2.29.73-3.5.81-.8.05-1.61.14-2.4.29-3.13.62-6.26 1.26-9.39 1.94-2.18.47-4.37.96-6.46 1.77-.35.14-.64.24-.57.78.36.12.76.29 1.17.36 1.95.35 3.9.75 5.86.99 2.28.29 4.57.48 6.86.65 2.79.21 5.4-.64 8-1.46.36-.11.6-.34.69-.68.2-.74.47-1.46.53-2.21.09-1.12.02-2.25.02-3.48Zm8.34-8.97c.43.36.41.76.1 1.14-.31.38-.62.76-.96 1.12-.6.65-1.3 1.24-1.83 1.94-1.04 1.39-2.08 2.74-3.77 3.45.56 2.46 1.41 4.75 2.19 7.15 2.16-1.28 4.37-2.01 6.83-2.05-.18-5.37-.14-10.63-.64-16.1-.7 1.21-1.29 2.23-1.93 3.34Zm6.44 108.68c.46.96.8 1.74 1.21 2.49.11.21.38.39.61.47 1.1.39 2.23.74 3.33 1.13 1.14.41 2.26.83 3.39 1.27 2.07.81 4.23.91 6.41.74 1.58-.12 2.89-.88 4.06-1.88.16-.13.29-.41.28-.62-.02-.38-.16-.75-.23-1.07-.65.4-1.2.9-1.85 1.11-.93.31-1.92.49-2.9.57-2.45.21-4.82-.27-7.15-.99-1.62-.5-3.05-1.35-4.5-2.18-.77-.44-1.56-.84-2.67-1.06Zm-2.55-8.24c1.92.19 3.65 0 5.28-.78.63-.3 1.14-.77 1.33-1.63-.33.09-.56.15-.78.21-.63.14-1.26.31-1.9.38-1.38.15-2.75.25-4.22.39.1.5.19.93.29 1.44Zm-7.63-108.55c-.88.41-1.77 1.67-1.93 2.7.64-.89 1.28-1.78 1.93-2.7Z" class="cls-11"/>
    <path d="M166.23 113.41c.23.3.37.45.47.62 1.14 1.86 2.26 3.72 3.4 5.58 1.77 2.87 3.56 5.73 5.32 8.61.98 1.6 1.89 3.23 2.83 4.84.2.35.28.69.25 1.12-.12 2.33-.8 4.49-1.82 6.58-2.04 4.15-4.07 8.31-6.05 12.49-1.29 2.74-2.51 5.52-3.71 8.3-.93 2.14-1.78 4.29-2.67 6.44-.28.67-.79.98-1.54.92-.09 0-.18.02-.34.03-.06.85.06 1.59.77 2.2 1.5 1.29 3.09 2.45 4.95 3.23.57.24 1.11.56 1.62.91 1.56 1.05 3.11 2.13 4.65 3.22 1.18.83 1.57 2.1 1.72 3.41.14 1.21-.44 2.09-1.61 2.51-.84.3-1.73.51-2.62.59-2.41.2-4.79-.09-7.06-.93-2.28-.84-4.58-1.56-6.93-2.12-1.2-.28-2.03-.91-2.47-2.11-.71-1.92-1.07-3.89-1.1-5.92-.03-2.2 0-4.4 0-6.71-.44-.19-.97-.43-1.6-.71.1-.32.17-.64.28-.94 2.14-6.1 4.77-11.99 7.49-17.85 1.72-3.72 3.37-7.48 5.03-11.23.14-.33.22-.7.25-1.06.17-1.98.34-3.95.47-5.94.05-.82.01-1.65.01-2.47-.01-2.2-.03-4.4-.04-6.6v-6.23c0-.2.02-.4.05-.78Zm-11.16 57.57c-.04 1.92-.18 3.76.25 5.6.23 1.02.75 1.58 1.86 1.7 2.02.22 3.95.78 5.74 1.75.25.13.5.24.76.34 1.97.81 4 1.36 6.14 1.32 1.2-.02 2.41-.21 3.61-.34.24-.03.48-.14.69-.25.88-.45.98-.96.28-1.64-.4-.38-.86-.69-1.32-1-2.05-1.37-4.12-2.72-6.33-3.86-1.79-.92-3.39-2.13-4.81-3.54-2.29.98-4.52.78-6.88-.09h.01Zm.78 7.85c.25 1.72.88 2.24 2.4 2.48 2.25.37 4.4 1.04 6.52 1.84 2.02.76 4.13 1.11 6.29 1.09.99 0 1.98-.1 2.92-.47 1.15-.45 1.52-1.19 1.23-2.46-.51.2-1.01.45-1.54.58-.72.18-1.46.31-2.2.37-.95.08-1.92.15-2.88.08-2.26-.16-4.39-.84-6.4-1.82-2.01-.98-4.2-1.21-6.34-1.7Zm5.88-8.64c-.07-.54-.13-.98-.19-1.39-2.16-.43-4.23-.85-6.37-1.29v2.69c2.16.78 4.29 1.06 6.56-.02Z" class="cls-11"/>
    <path d="M174.32 44.19c-.34.55-.57.91-.8 1.28.63 3.21 3.03 4.6 5.89 5.45 1.15.35 2.36.49 3.59.44 1.63-.07 2.21-1.06 2.39-2.21.11-.72.2-1.44.31-2.21.19.03.31.03.41.08 1.66.76 3.29 1.58 4.99 2.27 2.1.86 3.41 2.39 4.19 4.42.81 2.12 1.43 4.31 1.52 6.58.1 2.41.06 4.82.07 7.24 0 .21-.04.42-.07.7-1.78.14-3.53.28-5.4.42.12-.44.24-.85.35-1.28.07-.29.15-.59.17-.89 0-.15-.14-.3-.21-.45-.13.1-.32.17-.38.3-.29.64-.6 1.28-.8 1.95-.11.35-.27.59-.56.79-.56.39-.99.86-1.28 1.51-.67 1.51-1.43 2.98-2.19 4.45-.16.31-.42.61-.71.79-1.96 1.2-3.79 2.56-5.51 4.06-1.36 1.19-2.95 1.59-4.74 1.47-.96-.06-1.92.02-2.89 0-1.18-.02-2.36-.09-3.54-.12-.53-.02-1.06-.03-1.59-.02-.71.02-1.38.05-2.03-.41-.37-.26-.94-.26-1.45-.38-.19-.42-.04-.82.11-1.22.19-.51.38-1.03.55-1.55.56-1.68 1.12-3.36 1.69-5.04.08-.22.26-.41.4-.61 1.06-1.51 2.12-3.02 3.16-4.53.08-.11.08-.26.14-.5-.73.07-.96.62-1.3 1-.37.4-.67.84-1.16 1.19.38-.85.77-1.71 1.16-2.56.14-.31.3-.61.44-.91.13-.3.19-.63-.2-.77-.32-.12-.51.11-.63.39-.05.11-.1.22-.15.34-.78 2.02-1.58 4.04-2.34 6.08-.95 2.58-1.87 5.17-2.79 7.76-.23.66-.35 2.6-.22 3.13.35-.07.67-.49.95-1.25.51.04 1.05.08 1.62.12.22 1.09.03 2.09-.35 3.07-.75 1.92-1.68 3.76-3.02 5.35-.65.76-1.48 1.38-2.3 1.98-.25.18-.72.16-1.07.11-1.59-.22-2.99-.86-4.07-2.03-1.41-1.51-2.42-3.24-2.69-5.32-.47-3.62-.19-7.17.89-10.69.74-2.42 1.27-4.91 1.91-7.35.63-2.42 1.11-4.9 1.98-7.24 1.24-3.36 2.78-6.6 5.21-9.35 1.87-2.11 4.1-3.61 6.88-4.31 1.65-.42 3.28-.92 4.92-1.38.11-.03.23-.05.55-.14v.02Z" class="cls-2_mobile"/>
    <path d="M195.63 36.71c-.62 1.46-1.11 2.99-1.89 4.37-1.35 2.4-3.39 4.07-6.23 4.49-1.7.25-3.25-.29-4.67-1.2-.41-.26-.8-.58-1.22-.84-.32-.2-.34-.18-.87.15.24.28.48.54.71.81.34.39.77.75.98 1.19.5 1.09 1.25 1.97 2.11 2.75.44.4.42.76.24 1.21-.35.89-.93 1.2-1.89 1.07-.89-.12-1.8-.14-2.67-.31-1.67-.32-3.06-1.15-4.14-2.45-.41-.49-.78-1.03-1.2-1.51-.32-.36-.32-.68-.02-1.05.29-.35.55-.74.81-1.11 1.26-1.77 2.26-3.65 2.53-5.84.04-.27.05-.55.05-.82 0-.5-.13-.89-.54-1.29-1.43-1.37-1.68-3.1-.77-4.77.15-.29.38-.56.63-.78.44-.36.92-.4 1.28-.12.41.31.69.68.55 1.25-.17.71-.32 1.43-.4 2.16-.04.48 0 .99.14 1.44.26.84 1.02 1.01 1.67.42.29-.26.54-.59.72-.94.28-.54.54-1.11.69-1.69.34-1.35 1.09-2.45 2.01-3.46 1.67-1.84 4.97-1.68 6.25.53.16.26.31.53.5.77.8 1.03 2.2.95 2.88-.16.66-1.09.99-1.08 1.72 0 .66.99.94 2.02.74 3.21-.15.87-.16 1.77-.72 2.52-.53-.85-1.39-.98-2.29-.97-.3 0-.62.05-.89.18-.16.07-.35.32-.34.48.01.15.25.36.42.41.48.12 1.01.09 1.46.26.67.24 1.2.16 1.66-.36Zm-7.13 3.85c.12.57.51.55.83.55.36 0 .72-.06 1.08-.11.05 0 .09-.08.13-.12.41-.52.32-1.77-.18-2.37-.35.27-.22.66-.28 1.01-.11.67-.16.72-.85.84-.25.04-.49.14-.74.21Zm-1.26-5.08s.01-.05.02-.07c.22 0 .44.04.65-.01.19-.05.33-.19.5-.3-.11-.16-.2-.45-.33-.47-.69-.11-1.4-.17-2.1-.21-.12 0-.35.21-.36.33-.01.13.15.36.28.41.43.14.89.22 1.34.32Zm-3.46 4.85c.34.95.81 1.58 1.49 2.07.09.06.22.12.33.12.11 0 .28-.03.32-.11.06-.11.08-.3.03-.41-.08-.15-.24-.26-.38-.38-.53-.39-1.07-.78-1.79-1.31Zm3.17-2.81c-.13-.09-.32-.35-.55-.4-.35-.08-.8.52-.79.95.02.35.2.57.56.59.38.02.78-.49.77-1.15Zm5.72 1.85c-.01.25.01.56.43.6.32.04.59-.29.65-.74.04-.35-.08-.6-.44-.68-.29-.06-.58.31-.63.82Zm-30.03 51.54c2.2-2.61 4.02-5.3 3.94-8.85.71 0 1.47-.03 2.23 0 1.46.06 2.92.22 4.37.25 1.3.02 2.61-.04 3.9-.13 1.1-.08 2.1-.44 2.96-1.18 1.33-1.15 2.7-2.25 4.06-3.36.28-.23.61-.41 1.1-.72-.15.34-.23.5-.29.67-.18.52-.4 1.03-.51 1.57-.13.61.07.93.66 1.14.32.11.67.22.99.21 1.49-.05 2.98-.1 4.46-.23.48-.04.93-.31 1.4-.48.51-.19 1.02-.4 1.53-.6.04.06.08.12.12.19-.37.29-.7.65-1.1.88-1.15.66-2.33 1.28-3.5 1.91-.35.19-.71.36-1.02.62 1.2-.08 2.19-.8 3.34-1.06-.98.86-2.19 1.4-3.46 2.17.89.19 1.43-.49 2.28-.41-1.35.82-2.43 1.74-3.96 1.79-1.08.04-2.17.15-3.25.26-.89.1-1.79.2-2.66.39-5.74 1.25-11.3 3.11-16.88 4.87-.15.05-.29.1-.44.14-.05.01-.12-.01-.27-.04Zm36.1 88.61c2.49.12 4.78-.09 6.71-1.84.46.48.96.93 1.38 1.45 2.7 3.34 6.19 5.61 10.1 7.31.93.41 1.89.78 2.46 1.7-.31.88-.95 1.4-1.79 1.64-.83.23-1.69.43-2.54.48-3.37.18-6.58-.42-9.45-2.22-1.39-.88-2.77-1.72-4.38-2.17-.32-.09-.72-.38-.81-.66-.59-1.85-1.1-3.72-1.67-5.68Zm-1.59-69.61c.38.97.8 1.93 1.14 2.91.35 1 .63 2.02.87 3.07-.85-.85-1.27-1.96-1.89-2.95-.64-1-1.31-1.96-2.14-2.85l.63 3.06c-.06.02-.12.05-.18.07-.09-.15-.22-.3-.27-.46-.82-2.75-1.71-5.48-1.89-8.37-.11-1.85-.66-3.6-1.29-5.33-.5-1.38-.93-2.78-1.39-4.17-.07-.23-.1-.47-.17-.79 2.05-.98 4.09-1.85 6.52-1.68.02.4.05.72.05 1.05.01 2.29.02 4.58.02 6.87 0 .36-.01.74.03 1.1.07.58.2 1.11.71 1.52.89.73 1.52 1.68 2.11 2.66.62 1.02 1.26 2.02 1.92 3.06-.28.15-.54-.05-.75-.22-1.02-.86-2.23-1.28-3.52-1.58-.55-.13-1.06-.43-1.65-.69 0 .51.31.73.62.89.41.21.85.4 1.3.48.77.12 1.42.41 1.96.95.04.04.1.08.15.11.96.45 1.23 1.32 1.35 2.23.25 1.89-.2 3.74-.32 5.6h-.2c-.18-1.41-.41-2.82-.53-4.25-.07-.86-.14-1.7-.57-2.47-.15-.28-.31-.58-.86-.64 1.26 2.42.93 5 1.23 7.48-.47-1.12-.96-2.21-1.09-3.44-.12-1.18-.84-2.15-1.46-3.13-.05-.09-.18-.14-.28-.2l-.18.1h.01Zm-11.04-22.76c0 1.22.07 2.36-.02 3.48-.06.75-.33 1.48-.53 2.21-.1.34-.33.56-.69.68-2.6.82-5.21 1.67-8 1.46-2.29-.17-4.58-.36-6.86-.65-1.96-.25-3.91-.64-5.86-.99-.41-.08-.81-.25-1.17-.36-.08-.54.21-.64.57-.78 2.09-.81 4.27-1.29 6.46-1.77 3.12-.68 6.25-1.31 9.39-1.94.79-.16 1.6-.24 2.4-.29 1.22-.08 2.41-.21 3.5-.81.23-.13.53-.15.83-.24Z" class="cls-2_mobile"/>
    <path d="M194.45 78.17c.64-1.11 1.23-2.13 1.93-3.34.5 5.47.46 10.73.64 16.1-2.46.05-4.67.77-6.83 2.05-.78-2.4-1.64-4.7-2.19-7.15 1.69-.72 2.73-2.07 3.77-3.45.53-.71 1.22-1.29 1.83-1.94.34-.36.65-.73.96-1.12.31-.38.32-.78-.1-1.14Zm6.44 108.68c1.1.22 1.9.62 2.67 1.06 1.45.83 2.89 1.68 4.5 2.18 2.33.72 4.7 1.2 7.15.99.98-.08 1.98-.26 2.9-.57.65-.21 1.2-.71 1.84-1.11.08.32.22.7.23 1.07.01.21-.12.48-.28.62-1.17 1-2.47 1.76-4.05 1.88-2.18.16-4.34.07-6.41-.74-1.13-.44-2.25-.87-3.39-1.27-1.11-.39-2.23-.74-3.33-1.13-.23-.08-.5-.27-.61-.47-.41-.75-.75-1.54-1.21-2.49Zm-2.54-8.25c-.1-.51-.19-.94-.29-1.44 1.46-.13 2.85-.23 4.22-.39.64-.07 1.27-.25 1.9-.38.23-.05.45-.12.78-.21-.18.86-.69 1.33-1.33 1.63-1.63.78-3.37.97-5.28.78Zm-43.28-7.62c2.35.86 4.58 1.07 6.88.09 1.42 1.41 3.03 2.61 4.81 3.54 2.21 1.14 4.27 2.49 6.33 3.86.46.31.93.62 1.32 1 .71.67.6 1.18-.28 1.64-.21.11-.46.22-.69.25-1.2.13-2.41.32-3.61.34-2.14.04-4.17-.51-6.14-1.32-.26-.11-.51-.21-.76-.34-1.8-.96-3.73-1.53-5.74-1.75-1.11-.12-1.62-.68-1.86-1.7-.42-1.84-.28-3.67-.24-5.6h-.01Z" class="cls-2_mobile"/>
    <path d="M155.85 178.83c2.15.5 4.34.72 6.34 1.7 2.01.98 4.15 1.66 6.4 1.82.95.06 1.92 0 2.88-.08.74-.06 1.48-.19 2.2-.37.53-.13 1.03-.38 1.54-.58.29 1.26-.08 2-1.23 2.46-.94.37-1.93.46-2.92.47-2.16.02-4.26-.33-6.29-1.09-2.12-.79-4.27-1.46-6.52-1.84-1.51-.25-2.15-.76-2.4-2.48Zm5.88-8.65c-2.26 1.08-4.4.8-6.56.02v-2.69c2.14.43 4.21.85 6.37 1.29.05.41.12.85.19 1.39Z" class="cls-2_mobile"/>
    <path d="M195.63 36.71c-.46.52-.99.61-1.66.36-.46-.16-.98-.14-1.46-.26-.17-.04-.41-.25-.42-.41-.01-.16.17-.41.34-.48.27-.12.59-.17.89-.18.9 0 1.76.12 2.29.97v-.02h.02Zm-7.14 3.84c.24-.07.49-.16.74-.21.68-.12.73-.16.85-.84.06-.34-.07-.74.27-1.01.5.59.59 1.84.18 2.37-.04.05-.08.12-.13.12-.36.05-.72.12-1.08.11-.32 0-.71.02-.83-.55Zm-1.27-5.07c-.45-.1-.9-.18-1.33-.32-.13-.04-.29-.28-.28-.41.01-.13.24-.34.36-.33.7.03 1.4.09 2.1.21.13.02.22.31.33.47-.17.11-.32.25-.5.3-.2.05-.43.01-.65.01 0 .02-.01.05-.02.07Zm-3.45 4.85c.72.52 1.26.91 1.79 1.31.14.11.3.22.38.38.05.11.03.29-.03.41-.04.07-.21.11-.32.11-.11 0-.24-.05-.34-.12-.68-.48-1.15-1.11-1.49-2.07Zm3.17-2.82c0 .65-.4 1.17-.77 1.15-.36-.02-.54-.25-.56-.59-.02-.44.43-1.03.78-.95.23.05.43.31.55.4Zm5.72 1.85c.05-.51.34-.88.63-.82.35.08.49.33.44.68-.05.45-.33.78-.65.74-.41-.04-.44-.35-.43-.6Z" class="cls-11"/>
    <path id="primary-color" fill="#73a62e" d="M184.93 79.92c.12-.47.16-.83.31-1.15.98-2.15 1.96-4.28 2.96-6.42.19-.41.4-.84.68-1.19.77-.96 1.51-1.88 2.97-1.92 1.45-.04 2.89-.31 4.34-.47.28-.03.56-.03.84-.01.77.04 1.1.46.79 1.16-1.11 2.45-2.28 4.88-3.43 7.31-.76 1.6-2.14 2.26-3.82 2.58-1.51.29-3.02.38-4.55.27-.3-.02-.6-.09-1.1-.16Z"/>
    <path d="M294.68 122.02c.05 4.46.07 7.93.13 11.4.03 1.77.04 3.55.24 5.31.26 2.36-1.14 3.83-2.68 4.59-7.57 3.72-15.16 7.4-22.72 11.11-6.71 3.29-13.41 6.62-20.12 9.92-1.29.63-2.57 1.28-3.9 1.84-1.55.66-2.66.14-3.24-1.43-.12-.33-.24-.69-.27-1.04-.17-1.94-.36-3.89-.45-5.83-.17-3.87-.29-7.75-.41-11.62-.1-3.03-.12-6.06-.23-9.09-.08-2.36-.27-4.72-.37-7.07-.09-2.08-.16-4.15.07-6.23.21-1.87 1.2-3.12 2.85-3.92 2.56-1.25 5.13-2.48 7.69-3.74 3.05-1.49 6.12-2.92 9.23-4.29 3.5-1.54 6.95-3.22 10.41-4.85 2.39-1.13 4.79-2.25 7.17-3.42 2.65-1.31 5.27-2.68 7.91-3.99.99-.49 2.02-.9 3.03-1.34.79-.34 1.61-.35 2.42-.11 1.17.35 1.73 1.24 1.96 2.36.14.7.25 1.42.29 2.14.23 4.15.45 8.31.66 12.46l.34 6.85h-.01Zm-53.15 4.87c0 .38-.01.81 0 1.24.06 1.3.22 2.6.21 3.9-.01 1.71.22 3.43.3 5.15.2 4.34.38 8.67.54 13 .16 4.15.21 8.31.64 12.45.05.48.1.97.23 1.44.27.9.72 1.18 1.63.92.94-.26 1.89-.53 2.76-.95 4.4-2.11 8.78-4.26 13.15-6.44 9.94-4.95 19.86-9.94 29.79-14.89 2.14-1.07 3.18-2.73 3.02-5.14-.07-1.1-.09-2.21-.12-3.31-.09-4.39-.14-8.78-.26-13.17-.05-2.08-.28-4.15-.3-6.23-.03-3.73-.45-7.43-.69-11.14 0-.09-.05-.18-.1-.35-.52.22-.99.39-1.45.61-7.36 3.43-14.72 6.87-22.07 10.3-8.34 3.89-16.67 7.78-25.01 11.67-.69.32-1.42.58-2.28.94Zm.16-.74c.94-.46 1.8-.91 2.68-1.32 11.75-5.5 23.51-10.99 35.26-16.49 3.82-1.79 7.63-3.58 11.44-5.39.35-.16.68-.36.98-.6.15-.12.29-.38.27-.57-.12-1.7-.69-2.58-2.62-2.37-.2.02-.41.05-.6.13-.74.28-1.51.52-2.22.87-8.35 4.04-16.68 8.11-25.03 12.15-3.22 1.55-6.46 3.05-9.69 4.56-2.18 1.02-4.38 2.02-6.58 3.03-.74.35-1.48.71-2.22 1.06-.91.43-1.3 1.2-1.41 2.14-.09.77-.17 1.53-.25 2.29-.01.14 0 .29 0 .5Z" class="cls-11"/>
    <path d="M241.53 126.9c.87-.36 1.59-.61 2.29-.94 8.34-3.88 16.68-7.78 25.01-11.67 7.36-3.44 14.72-6.87 22.07-10.3.46-.21.93-.39 1.45-.61.05.17.1.26.1.35.25 3.71.66 7.41.69 11.14.01 2.08.25 4.15.3 6.23.11 4.39.17 8.78.26 13.17.02 1.1.04 2.21.12 3.31.16 2.41-.88 4.07-3.02 5.14-9.93 4.96-19.86 9.94-29.79 14.9-4.37 2.18-8.76 4.32-13.16 6.44-.87.42-1.83.69-2.76.94-.91.25-1.36-.01-1.63-.92-.13-.46-.18-.95-.23-1.44-.44-4.14-.49-8.29-.64-12.45-.16-4.34-.35-8.67-.54-13-.08-1.72-.31-3.43-.3-5.15.01-1.32-.15-2.61-.21-3.91-.02-.43 0-.86 0-1.24Zm51.61 7.5c.07-1.94-.95-4.01-1.68-5.04a4.11 4.11 0 0 0-.99-.96c-2.97-2.11-6.98-1.31-9.13.85-2.1 2.1-2.78 4.58-2.36 7.51.67 4.65 6.19 7.47 10.64 4.39 2.33-1.62 3.44-3.94 3.52-6.76Zm-2.82-24.06c.02-.37.05-.64.06-.92.02-.39-.16-.54-.51-.41-1.43.57-2.88 1.09-4.27 1.75-2.95 1.38-5.87 2.84-8.81 4.25-.36.17-.46.36-.42.77.31 2.88.59 5.76.89 8.65.06.64.09 1.28.2 1.91.09.55.29.63.81.42.53-.21 1.05-.42 1.57-.65 2.4-1.08 4.81-2.16 7.21-3.26 1.14-.52 2.25-1.1 3.38-1.64.42-.2.62-.51.61-.97-.02-.64-.02-1.29-.07-1.92-.21-2.69-.44-5.37-.65-7.97h-.01Zm-48.63 15.83c0-.21-.01-.36 0-.5.08-.77.16-1.53.25-2.29.11-.95.5-1.72 1.41-2.14.74-.35 1.48-.72 2.23-1.06 2.19-1.01 4.39-2.01 6.57-3.03 3.24-1.51 6.48-3 9.69-4.56 8.35-4.04 16.68-8.11 25.03-12.15.71-.35 1.48-.59 2.22-.87.19-.07.4-.1.6-.13 1.93-.21 2.5.67 2.62 2.37.01.19-.12.44-.27.57-.29.24-.64.44-.98.6-3.81 1.8-7.62 3.6-11.44 5.39-11.75 5.5-23.51 10.99-35.26 16.49-.88.41-1.74.86-2.68 1.32Zm3.27-3.36c-.01-.53-.4-.92-.92-.91-.57 0-1.11.6-1.12 1.24 0 .51.31.78.92.77.65 0 1.14-.49 1.12-1.1Zm1.98-.22c.55 0 1.01-.48 1.02-1.04.01-.5-.41-.96-.9-.98-.53-.03-1.06.53-1.06 1.11 0 .5.43.92.94.92Zm3.87-2.41c0-.51-.41-.9-.94-.88-.56.01-1.07.54-1.06 1.1 0 .48.33.77.86.77.65 0 1.14-.43 1.15-.98Z" class="cls-2_mobile"/>
    <path d="M293.13 134.4c-.08 2.82-1.19 5.14-3.52 6.76-4.45 3.08-9.96.26-10.64-4.39-.43-2.93.26-5.41 2.36-7.51 2.15-2.16 6.16-2.96 9.13-.85.37.26.72.59.99.96.73 1.02 1.74 3.1 1.68 5.04Zm-5.75 1.16c-.05-.58-.09-1.07-.14-1.55-.1-.99-.2-1.98-.31-2.98-.01-.13-.02-.26-.06-.38-.13-.39-.4-.46-.69-.18-.09.09-.17.19-.23.31-.46.94-.92 1.89-1.34 2.84-.12.26-.27.66.09.83.37.17.52-.22.66-.48.24-.41.45-.85.67-1.27.04 0 .09.01.13.02l.27 3.31c-.31.18-.62.33-.87.54-.14.13-.29.39-.25.56.06.27.37.28.58.18.87-.42 1.74-.87 2.59-1.33.1-.05.16-.35.11-.46-.05-.11-.29-.18-.44-.17-.22 0-.44.11-.76.19Zm-4.15.96c.3-.15.55-.27.8-.4.23-.12.38-.33.26-.56-.07-.13-.32-.22-.49-.24-.24-.02-.5.05-.77.08-.05-.17-.07-.35-.16-.45-.12-.13-.31-.25-.47-.26-.09 0-.23.24-.27.39-.05.21-.01.44-.01.66-.25.14-.48.25-.7.38-.2.12-.41.31-.25.55.08.13.33.19.51.2.21.01.44-.06.65-.1.09.29.14.54.26.76.07.13.26.19.39.28.09-.14.25-.27.27-.41.03-.27-.01-.56-.02-.9Zm7.08-26.17c.21 2.61.44 5.29.65 7.97.05.64.04 1.28.07 1.92.01.46-.19.77-.61.97-1.13.54-2.24 1.11-3.38 1.64-2.39 1.1-4.8 2.18-7.21 3.26-.51.23-1.04.44-1.57.65-.52.21-.72.13-.81-.42-.11-.63-.14-1.28-.2-1.91-.29-2.88-.57-5.76-.89-8.65-.05-.41.06-.6.42-.77 2.94-1.41 5.86-2.87 8.81-4.25 1.39-.65 2.84-1.18 4.27-1.75.35-.14.52.02.51.41 0 .28-.04.56-.06.92h.01Zm-8.93 6.93c.13 1.36.26 2.62.4 4.02 1.65-.77 3.2-1.49 4.76-2.21-.13-1.32-.07-2.58-.39-3.9l-4.77 2.09Zm4.56-6.34c-1.73.84-3.31 1.6-4.91 2.38.04 1.25.13 2.42.33 3.66 1.67-.76 3.24-1.46 4.79-2.17-.07-1.28-.13-2.48-.21-3.88Zm-8.28 12.24c1.35-.58 2.6-1.15 3.81-1.77-.14-1.35-.28-2.62-.42-3.98-1.32.62-2.55 1.19-3.82 1.79.14 1.31.28 2.57.43 3.96Zm8.95-3.82c-1.67.78-3.23 1.5-4.75 2.21-.07 1.08.11 2.51.38 3.01 1.55-.72 3.11-1.43 4.7-2.17-.11-1.02-.21-1.98-.32-3.06Zm-9.83-3.84c.15 1.17.3 2.26.46 3.43 1.28-.62 2.51-1.22 3.77-1.83-.07-1.19-.13-2.35-.21-3.64-1.4.71-2.69 1.37-4.01 2.04Zm13.28-2.52v-3.61c-1.36.52-2.64 1.01-3.91 1.49.11 1.28.21 2.49.33 3.81 1.3-.61 2.48-1.16 3.59-1.69Zm.12.4c-1.3.59-2.46 1.12-3.64 1.66.17 1.28.18 2.52.38 3.84 1.12-.58 2.12-1.11 3.12-1.63.22-.12.36-.27.34-.54-.07-1.07-.13-2.15-.2-3.33Zm-8.68 8.32c-1.36.63-2.58 1.2-3.86 1.79.23.96.06 1.97.39 2.92 1.31-.57 2.55-1.12 3.8-1.67-.11-1.02-.21-1.98-.33-3.04Zm5.67.61c1.17-.54 2.22-1.02 3.25-1.49.2-.93.15-2.5-.1-3.32-1.13.55-2.25 1.1-3.39 1.65.08 1.04.16 2.03.25 3.16Zm-42.22.48c.01.61-.48 1.09-1.12 1.1-.6.01-.92-.26-.92-.77 0-.64.54-1.24 1.12-1.24.52 0 .91.39.92.91Zm1.98-.22c-.51 0-.94-.42-.94-.92 0-.58.53-1.13 1.06-1.11.49.02.9.48.9.98 0 .57-.47 1.04-1.02 1.04Zm3.87-2.41c0 .55-.5.98-1.15.98-.52 0-.85-.29-.86-.77 0-.56.5-1.09 1.06-1.1.54-.01.95.37.94.88Z" class="cls-11"/>
    <path d="M287.39 135.56c.32-.09.54-.18.76-.19.15 0 .39.06.44.17.05.11-.01.4-.11.46-.85.47-1.71.91-2.59 1.33-.21.1-.52.09-.58-.18-.03-.16.11-.43.25-.56.25-.21.56-.36.87-.54l-.27-3.31c-.04 0-.09-.01-.13-.02-.22.43-.43.86-.67 1.27-.14.25-.28.65-.66.48-.36-.17-.21-.56-.09-.83.43-.96.89-1.9 1.34-2.84.05-.11.14-.22.23-.31.29-.28.55-.21.69.18.04.12.05.25.06.38.1.99.21 1.98.31 2.98.05.48.08.96.14 1.55Zm-4.16.97c.01.34.06.62.02.9-.02.15-.18.28-.27.41-.13-.09-.32-.15-.39-.28-.12-.22-.17-.47-.26-.76-.22.04-.44.11-.65.1-.18 0-.43-.07-.52-.2-.16-.24.05-.43.25-.55.22-.13.45-.25.7-.39 0-.22-.03-.45.01-.66.03-.15.17-.39.27-.39.16 0 .35.13.47.26.09.1.1.28.16.45.28-.04.52-.1.77-.08.17.01.42.1.49.24.12.23-.03.44-.26.56-.25.13-.5.25-.8.4Zm-1.85-19.26c1.6-.7 3.14-1.38 4.77-2.09.32 1.32.26 2.58.39 3.9l-4.76 2.21c-.14-1.4-.27-2.67-.4-4.02Zm4.56-6.34c.08 1.4.14 2.6.21 3.88-1.56.7-3.12 1.41-4.79 2.17a30.16 30.16 0 0 1-.33-3.66c1.6-.78 3.18-1.54 4.9-2.38Zm-8.28 12.24c-.15-1.38-.29-2.65-.43-3.96 1.28-.6 2.5-1.17 3.83-1.79.14 1.36.28 2.62.42 3.98-1.21.62-2.46 1.2-3.81 1.77Zm8.95-3.81c.11 1.07.22 2.04.32 3.06-1.59.74-3.15 1.45-4.7 2.17-.27-.5-.44-1.93-.38-3.01 1.53-.71 3.08-1.43 4.75-2.21Zm-9.83-3.85c1.32-.67 2.62-1.33 4.01-2.04.07 1.29.14 2.46.21 3.64-1.25.61-2.49 1.21-3.77 1.83-.16-1.18-.3-2.26-.46-3.44Zm13.28-2.51c-1.12.52-2.29 1.07-3.59 1.69-.11-1.32-.21-2.52-.33-3.81 1.28-.49 2.55-.97 3.91-1.49V113Zm.13.4c.07 1.18.13 2.26.2 3.33.02.27-.11.42-.34.54-1 .52-2 1.04-3.12 1.63-.19-1.32-.21-2.56-.38-3.84 1.18-.54 2.34-1.07 3.64-1.66Zm-8.68 8.32c.11 1.06.22 2.03.33 3.04-1.25.55-2.49 1.09-3.8 1.67-.32-.95-.16-1.96-.39-2.92 1.28-.59 2.5-1.16 3.86-1.79Zm5.67.62c-.09-1.14-.16-2.13-.25-3.16 1.14-.55 2.26-1.1 3.39-1.65.25.82.3 2.39.1 3.32-1.02.47-2.07.95-3.24 1.49Z" class="cls-2_mobile"/>
    <path d="M245.63 141.91c.04-4.34 1.61-7.83 4.3-10.89 1.56-1.78 3.4-3.2 5.49-4.31 2.08-1.1 4.29-1.79 6.65-2.04 2.34-.24 4.59 0 6.82.75 2.06.7 3.68 1.98 5.12 3.55 2.21 2.4 3.05 5.27 2.93 8.47-.11 2.98-1.11 5.67-2.76 8.12-2.29 3.42-5.41 5.79-9.22 7.27-3.35 1.3-6.82 1.59-10.28.61-4.57-1.3-7.56-4.29-8.77-8.93-.1-.37-.15-.76-.18-1.14-.05-.56-.06-1.13-.08-1.47Z" class="cls-12_mobile"/>
    <path d="M272.18 133.08c-.28-.21-.56-.43-.88-.66-.3.17-.58.33-.85.47 0 .1-.02.18 0 .19.18.12.5.2.39.48-.08.21-.3.38-.5.51-.2.14-.45.19-.67.31-.42.22-.71.16-1-.24-.1-.14-.16-.33-.28-.46-.26-.32-.22-.6.03-.9.08-.1.16-.2.3-.39-.94.18-1.72.41-2.12 1.28-.17.37-.43.7-.62 1.07-.2.4-.36.82-.61 1.38.93-.48 1.67-.89 2.44-1.25.29-.13.64-.19.97-.17.65.03 1.27-.04 1.86-.36.79-.42 1.69-.11 1.95.82.13.48.45.92.73 1.35.28.43.42.87.25 1.38-.05.15-.04.37.03.5.24.46.23.94.11 1.42-.14.56-.17 1.12-.04 1.68.2.89-.04 1.68-.56 2.39-.39.53-.65 1.09-.81 1.72-.1.42-.29.83-.53 1.18-.35.51-.76.52-1.25.14-.22-.17-.44-.36-.69-.48-.53-.26-.91-.59-1.14-1.17-.15-.36-.57-.64-.91-.89-.31-.22-.68-.35-1.08-.55-.02-.46-.05-.95-.07-1.56-.52-.18-1.06-.4-1.62-.57-1.09-.34-1.45-1.17-.87-2.13.32-.54.57-1.07.58-1.72.01-.38.15-.75.24-1.12-.54.09-1.1.17-1.65.28-.14.03-.26.14-.38.24-.45.35-.6.29-.69-.24-.1-.6-.29-1.19.09-1.77.08-.12-.05-.39-.08-.58-.04-.41-.13-.82-.11-1.22.03-.54.31-.97.82-1.22.51-.24 1.02-.47 1.56-.72-.14-.61-.1-1.21.28-1.73-.34-.39-.68-.73-.97-1.12-.34-.45-.08-.99.49-1.06.69-.08 1.39-.15 2.09-.22.42-.04.73-.28.76-.73.03-.4.11-.69.54-.82.46-.13.84-.01 1.1.34.37.49.83.56 1.37.46.68-.14 1.25.07 1.78.51 1.06.86 2.17 1.66 2.97 2.78.07.1.15.21.23.31.25.32.21.61-.05.9-.23.26-.48.19-.77.06-.39-.17-.8-.27-1.21-.4-.03.05-.06.11-.09.17.23.22.45.46.7.67.26.21.57.36.8.6.18.19.31.46.4.71.1.3-.11.45-.36.59-.11.06-.14.26-.24.38-.14.18-.29.37-.47.5-.57.41-.91.27-.97-.43-.04-.44-.11-.82-.6-.95-.05 0-.1.01-.15.01h.02l.01.01Zm-22.55 10.49c.46.11.79.2 1.14.26 1.01.2 1.42.7 1.28 1.73-.11.81.17 1.4.76 1.9.7.58 1.07 1.36 1.36 2.2.35 1.01.73 2.02 1.11 3.02.1.25.25.52 0 .7-.18.12-.49.16-.71.1-1.1-.29-2.12-.8-3.06-1.42-1.76-1.16-3.24-2.59-4.27-4.47-1.58-2.89-1.89-5.92-1.14-9.09.16-.67.4-1.32.6-1.99.43-1.46 1.22-2.7 2.15-3.88.35-.45.7-.89 1.04-1.35.34-.48.8-.69 1.38-.71.28 0 .57-.04.82-.12.64-.22.7-.81.67-1.33-.03-.55.2-.88.61-1.13.76-.48 1.51-.98 2.3-1.39.61-.32.98-.04.82.64-.14.59-.39 1.17-.67 1.71-.22.43-.28.78 0 1.21.16.24.22.58.22.88-.01.49.22.77.62.96.25.12.52.22.77.35.58.29.84.84.72 1.45-.33 1.79-1.3 3.15-2.82 4.13-.59.38-1.08.84-1.56 1.35-.68.72-1.49 1.32-2.22 2-.51.46-1.01.94-1.48 1.45-.19.21-.25.52-.42.88h-.02Zm16.11 1.64c.07-.27.1-.47.18-.66.15-.36.43-.5.73-.4.34.12.52.42.43.72-.11.33-.39.61-.67 1.02.13.29.3.72.52 1.11.39.68.36 1.32-.14 1.92-.23.28-.45.58-.73.79-1.42 1.01-2.84 2.03-4.56 2.52-.17.05-.34.12-.52.14-.45.06-.72-.16-.67-.6.1-.81.13-1.64.6-2.36.13-.2.15-.48.22-.72.09-.35.17-.7.27-1.04.23-.76.69-1.23 1.56-1.22.53 0 .9-.35 1.27-.66.43-.36.88-.63 1.5-.57Zm-4.06-16.88c-.11-.43-.19-.88-.34-1.3-.33-.98.42-2.25 1.45-2.35.71-.06 1.43-.06 2.15-.05.47 0 .64.28.47.72-.02.05-.04.1-.07.13-.47.53-.93 1.07-1.42 1.58-.32.33-.73.56-1.03.9-.35.4-.71.56-1.21.36Zm.29 2.31c.13.63.05 1-.31 1.29-.06.05-.14.09-.16.15-.34.85-1.05.63-1.69.6-.34-.01-.5-.26-.42-.59.05-.19.12-.41.26-.53.65-.58 1.49-.65 2.32-.91Z" class="cls-15_mobile"/>
    <path d="M261.68 128.33c.46.36.91.37 1.3-.08.31.21.31.47.06.56-.61.21-.81.79-1.2 1.19-.17.17-.26.54-.56.36-.14-.08-.21-.47-.15-.66.15-.46.08-1.03.55-1.36Zm13.77 3.61c-.23.14-.35.28-.47.27-.23-.02-.48-.15-.44-.43.02-.11.26-.3.34-.27.19.07.34.25.57.43Zm-3.29 1.13c-.24.39-.6.22-.98.1.11-.07.23-.2.34-.2.22 0 .44.07.65.11h-.01Zm15.59-19.45s.05-.08.07-.13c.2-.47-.37-1.05-.78-.6-.27.3-.6.5-.96.66-.41.13-.8.28-1.2.43-.49.15-.98.32-1.4.58-.55.35-.07 1.11.5.86.7-.32 1.43-.59 2.16-.84-.27.45-.55.9-.82 1.34-.57.9-1.14 1.81-1.75 2.68-1.22 1.76-2.62 3.45-4.33 4.76-.5.38 0 1.24.5.85 1.76-1.35 3.21-3.02 4.48-4.82.63-.89 1.23-1.82 1.81-2.75.4-.64.81-1.28 1.17-1.93.36.8.59 1.65.67 2.53.06.63 1.05.63.99 0a9.156 9.156 0 0 0-1.11-3.61Z" class="cls-15_mobile"/>
    <path d="M256.55 135.63c.14-.78.23-1.57.44-2.32.15-.54.57-.95 1.14-1.02.59-.07 1.02.24 1.31.77.87 1.57 1.03 3.24.7 4.96-.08.42-.37.86-.68 1.17-.69.7-1.79.39-2.11-.27-.23-.47-.37-1-.52-1.51-.08-.29-.12-.6-.15-.91-.02-.28 0-.56 0-.84-.04 0-.08-.01-.12-.02Zm8.49-2.22c.07-.53.13-1.06.21-1.59.11-.7.65-.96 1.24-1.08.56-.12 1.01.14 1.29.63.19.33.37.68.46 1.04.32 1.29.69 2.57.34 3.91-.16.64-.59 1.06-1.18 1.19-.58.13-1.06-.19-1.44-.68-.66-.83-.78-1.81-.87-2.81-.02-.2 0-.41 0-.61-.02 0-.03 0-.05-.01Zm-7.63 11.1c5.08 2.48 9.3 1.58 12.62-3.09.04.04.08.09.12.14-.08.25-.13.5-.24.74-.63 1.29-1.55 2.32-2.74 3.12-2.48 1.66-5.14 1.89-7.91.99-.88-.29-1.45-1.03-1.85-1.9Z" class="cls-2_mobile"/>
    <path d="M288.71 36.01c.17 10.09.34 20.18.52 30.27.02 1.46.09 2.93.16 4.38.1 1.88-.73 3.22-2.27 4.25-1.78 1.19-3.73 2.07-5.64 3.02-9.11 4.53-18.24 9.04-27.36 13.55-7.69 3.81-15.38 7.64-23.07 11.45-1.98.98-3.98 1.9-5.99 2.85-.97.46-2 .47-3.03.31-1.34-.21-2.18-1.24-2.33-2.78-.07-.79-.12-1.59-.14-2.38-.12-8.03-.28-16.07-.31-24.11-.01-4.11.23-8.21.35-12.32.14-4.67.29-9.35.06-14.01-.21-4.43-.45-8.87-1.02-13.28-.2-1.53-.27-3.06-.07-4.61.15-1.15.69-2.09 1.46-2.9.18-.2.46-.32.72-.44 2.56-1.14 5.1-2.32 7.69-3.39 17.49-7.21 34.98-14.4 52.47-21.58 1.42-.58 2.88-1.09 4.33-1.62.29-.1.6-.17.9-.21.95-.13 1.73.48 1.83 1.44.05.48.09.97.07 1.46-.17 3.37.07 6.72.18 10.08.18 5.49.27 10.98.39 16.48.03 1.36 0 2.72 0 4.08h.08Zm-1.98-27.89c-.56.21-1.05.36-1.51.56-15.06 6.48-30.12 12.97-45.19 19.43-6.07 2.6-12.17 5.13-18.26 7.68-.61.26-1.24.46-1.88.71.09.91.21 1.77.27 2.64.19 2.46.35 4.92.52 7.38.23 3.23.27 6.47.19 9.7-.14 6.09-.3 12.17-.4 18.26-.06 3.98.01 7.96-.01 11.94-.03 5.06.25 10.11.5 15.17.04.76.22 1.52.45 2.25.23.75.77 1.06 1.56.95.55-.08 1.12-.21 1.63-.44 1.54-.66 3.07-1.33 4.56-2.07 8.39-4.14 16.78-8.29 25.16-12.45 8.22-4.08 16.45-8.15 24.65-12.25 2.37-1.18 4.7-2.44 7.04-3.68 1.31-.7 1.91-1.82 1.79-3.31-.05-.74-.16-1.48-.17-2.22-.08-4.57-.14-9.14-.21-13.71-.11-7.24-.21-14.48-.31-21.73-.09-6.83-.16-13.66-.24-20.49-.02-1.38-.08-2.77-.14-4.32h.01Zm-66.94 27.46c.65-.32 1.16-.57 1.68-.8 5.39-2.37 10.76-4.77 16.16-7.1 8.96-3.87 17.95-7.69 26.93-11.53 7.06-3.02 14.13-6.04 21.19-9.07.21-.09.42-.19.63-.28.27-.11.4-.3.4-.59-.01-.51 0-1.03-.03-1.54-.03-.55-.19-.67-.76-.53-.62.16-1.25.32-1.84.56-9.55 3.88-19.08 7.81-28.63 11.66-10.82 4.36-21.68 8.64-32.5 12.98-.77.31-1.47.83-2.17 1.3-.44.29-.72.76-.81 1.28-.14.81-.22 1.62-.29 2.44-.03.37.03.75.04 1.24Z" class="cls-11"/>
    <path d="M286.74 8.12c.05 1.55.12 2.94.14 4.32.09 6.83.16 13.66.24 20.49.1 7.24.2 14.48.31 21.73.06 4.57.13 9.14.21 13.71.02.74.12 1.48.17 2.22.11 1.49-.48 2.61-1.79 3.31-2.33 1.25-4.67 2.5-7.04 3.68-8.21 4.1-16.43 8.18-24.65 12.25-8.38 4.16-16.77 8.31-25.16 12.45-1.5.74-3.03 1.41-4.56 2.07-.51.22-1.08.36-1.63.43-.78.11-1.33-.21-1.56-.95-.22-.73-.41-1.49-.45-2.25-.25-5.05-.53-10.1-.5-15.17.03-3.98-.04-7.96.01-11.94.09-6.09.25-12.17.4-18.26.08-3.24.04-6.47-.19-9.7-.17-2.46-.34-4.92-.52-7.38-.06-.87-.18-1.73-.27-2.64.64-.24 1.27-.45 1.88-.71 6.09-2.55 12.19-5.08 18.26-7.68 15.07-6.46 30.13-12.95 45.19-19.43.47-.2.95-.36 1.51-.56h-.02Zm-33.88 55.71c.06-.01.13-.03.19-.05.38.72.71 1.47 1.14 2.16.62 1 1.29 1.98 1.97 2.94.35.49.87.59 1.28.36.39-.22.57-.66.39-1.22-.18-.56-.38-1.13-.66-1.64-1.1-2.03-2.17-4.08-3.4-6.04-.55-.88-.63-1.62-.24-2.5.08-.19.15-.38.24-.57.27-.62.78-.87 1.41-.9.84-.04 1.62.49 1.92 1.28.46 1.21.64 2.48.76 3.76.18 1.94.33 3.89.52 5.83.03.38.16.75.31 1.11.18.44.54.69 1.02.67.33-.01.67-.03.99-.12.76-.22 1.53-.45 2.27-.75 3.46-1.38 6.89-2.85 10.2-4.56 1.21-.62 2.43-1.23 3.63-1.87.66-.35.99-.88.73-1.67-.05-.14-.04-.31-.05-.46-.1-1.51-.16-3.03-.32-4.53-.25-2.35-.56-4.7-1.54-6.88-.51-1.12-1.06-2.23-1.69-3.28-1.39-2.31-3.19-4.24-5.68-5.38-2.2-1-4.42-1.95-6.66-2.84-.73-.29-1.54-.41-2.33-.48-1.91-.17-3.8.13-5.66.55-1.86.42-3.63 1.13-5.39 1.85-2.65 1.08-5.04 2.53-7.15 4.47-2.98 2.74-5.49 5.83-7.19 9.54-1.1 2.39-1.88 4.88-2.56 7.42-.73 2.74-1.07 5.53-1.1 8.37-.04 3.57.27 7.13.52 10.69.09 1.3.34 2.6.56 3.89.11.67.39.89 1.06.86.35-.02.72-.09 1.04-.24.95-.44 1.89-.92 2.82-1.41 1.88-1 3.77-2 5.62-3.05 2.74-1.54 5.45-3.11 8.17-4.67.81-.46 1.53-1.04 2.12-1.76.45-.55.8-1.15.83-1.87.04-1.13.06-2.25.05-3.38-.01-1.2-.09-2.41-.13-3.61h-.02Zm19.3-40.55c.14-.17.33-.32.44-.51.31-.6.84-.95 1.38-1.31 1.02-.65 2.04-1.29 3.04-1.98.48-.34.91-.75 1.32-1.17.21-.21.37-.5.48-.78.26-.73-.16-1.34-.94-1.41-.54-.05-1.01.13-1.46.42-.62.4-1.03.98-1.44 1.58-.52.79-1.12 1.53-1.7 2.28-.09.12-.25.19-.39.29-.05-.34-.02-.67-.16-.88-.41-.6-.49-1.28-.64-1.95a2.69 2.69 0 0 0-.24-.65c-.32-.58-.87-.69-1.32-.2-.32.35-.56.79-.79 1.21-.28.51-.55.96-1.24 1-.46.03-.64.33-.47.77.18.49.48.95.75 1.41.15.25.38.46.55.68-.25.4-.47.28-.73.1-.68-.44-1.43-.7-2.26-.63-.25.02-.49.15-.86.27.72.71 1.71.32 2.36.95-.28.18-.51.33-.74.47-.57.34-1.16.67-1.72 1.02-.27.17-.6.33-.51.76.37.15.68.05.98-.11.51-.29 1.03-.59 1.54-.88.16-.09.31-.18.47-.27-.08.39-.24.68-.41.96-.29.48-.6.96-.9 1.44-.39.64-.55 1.32-.43 2.07.17 1.07 0 2.09-.33 3.11-.18.53-.33 1.08-.44 1.63-.25 1.29.18 2.06 1.41 2.56.17.07.34.13.51.17 1.57.34 3.14.55 4.75.37 1.57-.18 2.7-.95 3.35-2.37.36-.78.79-1.48 1.38-2.11.49-.53.84-1.16.73-2-.24.09-.46.16-.66.25-.75.32-1.49.56-2.28.08-.16-.1-.4-.07-.61-.09-.72-.1-1.31-.43-1.73-1.04-.07-.1-.15-.19-.23-.29-.27.21.11.77-.39.72-.38-.03-.29-.48-.4-.75-.02-.04-.01-.1-.02-.15-.1-1.38-.21-2.76-.32-4.14 0-.14-.03-.28-.04-.42-.05-.01-.1-.02-.16-.04-.23.49-.46.99-.69 1.48-.23.48-.32 1.04-.83 1.37-.03-.29-.03-.57.06-.83.2-.61.38-1.23.67-1.8.45-.87.69-1.7.15-2.61-.14-.25-.22-.56.08-.97.26.47.47.86.7 1.27.46-.64.19-1.46.58-2.23.13.23.24.34.24.43-.03.53-.03 1.08-.15 1.59-.2.89-.11 1.23.71 1.86Zm-.37 49.17c-.14 1.34.93 2.56 2.58 2.46 1.36-.08 2.62-1.13 2.91-2.46.26-1.16-.35-2.32-1.45-2.75-1.83-.71-4.04.8-4.04 2.75Zm-8.62 6.26c0-1.41-1.07-2.28-2.46-2.02-1.34.25-2.75 1.86-2.8 3.22-.05 1.26.94 2.21 2.2 2.12 1.62-.11 3.07-1.69 3.06-3.32Zm-15.15 7.4c-.01-.13-.01-.34-.07-.54-.2-.84-.69-1.43-1.53-1.69-.77-.24-1.52-.08-2.08.48-.61.63-1.07 1.38-1.15 2.29-.08.91.23 1.69 1.04 2.17.81.47 1.63.4 2.4-.11.9-.6 1.35-1.45 1.36-2.61Zm-15.24 7.02c-.07-.26-.14-.7-.33-1.08-.57-1.13-2.02-1.5-2.94-.74-.57.47-1.04 1.06-1.22 1.82-.12.52-.1 1.02.08 1.51.45 1.22 1.83 1.75 2.97 1.13.98-.53 1.37-1.41 1.43-2.64Zm50.73-36.32c.27.34.45.62.67.86.25.27.55.47.96.35.42-.13.61-.46.66-.87.15-1.08-.05-2.09-.63-3.02-.23-.38-.55-.63-1.02-.51-.44.11-.65.46-.71.9-.04.25-.05.49-.08.87-.23-.39-.36-.69-.56-.94-.52-.64-1.37-.49-1.62.29-.08.24-.12.51-.09.75.08.63.21 1.26.35 1.88.07.32.16.65.31.94.33.63.93.67 1.33.08.14-.2.21-.46.27-.71.07-.27.1-.55.15-.87Zm-9.82-31c-.7.23-.66-.62-1.11-.72-.56 1-.17 2.49.88 3.33.93.75 2.41.64 3.49-.33-1.22-1.46-2.48-2.93-3.26-4.85l-.85.95c.34.56.87.93.85 1.63Zm-25.15 6.56c.12-.41.38-.41.57-.5.46-.24.92-.45 1.36-.71.23-.13.38-.36.28-.65-.11-.34-.41-.37-.7-.33-.2.02-.41.07-.59.16-.33.14-.65.31-.96.49-.86.51-.93.69-.69 1.69.04.2.07.41.13.6.15.56.29.59.81.33.39-.19.8-.34 1.22-.45.32-.08.83.18.92.43.13.37-.12.59-.37.77-.28.2-.61.34-.93.5-.17-.22-.28-.36-.39-.5-.2-.27-.45-.44-.79-.26-.29.15-.36.51-.21.88.24.59.84.92 1.51.81 1-.17 1.68-.74 2.01-1.7.34-.98-.18-1.92-1.21-2.05-.39-.05-.8.08-1.2.16-.23.05-.44.18-.77.32Zm7.07-.37c-.1-1.02-.64-2.17-1.33-2.74-.64-.54-1.77-.45-2.06.51a5.508 5.508 0 0 0-.05 3.09c.06.24.18.48.32.69.7 1.09 2.08 1.04 2.67-.1.23-.44.31-.96.45-1.44Zm23.01 10.82c-.43.5-.47.74-.2 1.12.36.51.88.7 1.48.62.82-.11 1.42-.56 1.85-1.24.36-.58.5-1.2.15-1.82-.36-.65-.98-.88-1.69-.86-.24 0-.49.02-.73.03-.02-.05-.04-.1-.07-.14.14-.11.27-.24.43-.32.25-.13.53-.19.77-.34.1-.06.21-.26.19-.37-.03-.11-.21-.26-.32-.25-.38.02-.77.06-1.13.16-.95.26-1.15.59-1.02 1.56.02.15.03.31.06.46.12.76.49.94 1.18.61.25-.12.52-.23.79-.24.46-.02.64.29.5.71-.24.69-1.05.99-1.68.63-.17-.1-.35-.21-.56-.33Zm-53.97 19.79c-.78-.13-.94-.25-.91-.74.04-.61.32-1.14.79-1.53.48-.4.89-.22.95.4.02.2 0 .41-.02.61-.08.71-.4 1.32-.79 1.9-.37.55-.78 1.08-1.18 1.61-.18.24-.49.44-.27.8.2.34.51.25.82.16.27-.07.56-.09.84-.11.36-.02.72 0 1.08-.04.44-.05.69-.3.68-.6-.01-.31-.28-.51-.73-.52-.37 0-.73.03-1.15.04.4-.7.78-1.31 1.08-1.95.35-.72.58-1.49.39-2.31-.19-.84-.8-1.18-1.62-.93-1.06.32-1.94 1.85-1.62 2.91.09.29.34.58.6.76.43.29.82.1 1.07-.46Zm51.53-19.26c.03.31.03.59.09.86.09.42.19.85.38 1.24.07.14.39.26.57.23.14-.02.3-.27.35-.44.05-.18-.02-.4-.05-.6-.1-.62-.2-1.25-.29-1.83.29-.18.52-.27.66-.44.13-.16.22-.42.18-.6-.02-.14-.27-.26-.44-.34-.15-.06-.33-.04-.5-.06-.02-.2-.05-.36-.05-.5.02-.53.05-1.07.09-1.61.01-.27.02-.53-.28-.65-.31-.12-.48.07-.63.29-.1.15-.19.3-.31.43-.5.55-1.02 1.08-1.78 1.29-.15.04-.25.27-.38.41.17.13.33.35.51.37.24.02.51-.07.73-.18.34-.17.64-.39 1.04-.63v1.57c-.31.2-.64.36-.9.6-.12.11-.18.37-.15.53.02.1.28.2.44.21.22 0 .45-.07.72-.12ZM228.5 82.28c-.15-.69-.22-1.36-.45-1.97-.39-1-1.15-1.06-1.78-.2-.04.06-.08.13-.11.2-.52 1.31-.62 2.62-.14 3.96.16.45.47.82 1 .82.49 0 .83-.33.97-.76.22-.67.35-1.37.51-2.06Zm-.99-21.29c.39-.27.64-.43.88-.61.19-.14.37-.32.24-.58-.14-.27-.38-.18-.6-.09-1.01.37-1.43.96-1.43 2.11 0 .22.11.52.27.66.21.18.48.06.69-.14.24-.23.5-.44.88-.37.17.6.13.85-.15 1.13-.3.3-.64.27-.99.1-.07-.03-.15-.09-.21-.07-.21.05-.47.07-.6.21-.21.22-.1.51.11.67.21.17.48.31.74.37.75.16 1.36-.1 1.83-.71.49-.62.57-1.31.28-2.03-.19-.48-.57-.71-1.09-.7-.22 0-.44.02-.84.04Zm21.87 23.74c.1-.04.27-.1.42-.18 1.36-.7 2.72-1.41 4.09-2.11.25-.13.51-.25.75-.39.46-.27.63-.66.44-1-.2-.36-.55-.38-1.06-.07-.57.34-1.15.67-1.72 1.01-.84.5-1.68.98-2.5 1.51-.29.19-.55.46-.75.74-.16.23 0 .48.33.5Zm29.75-14.44c.34-.15.67-.29.99-.44 1.28-.65 2.56-1.31 3.83-1.97.04-.02.09-.05.13-.07.31-.17.45-.42.35-.77-.08-.3-.36-.43-.75-.36-.15.03-.29.1-.44.15-1.49.55-2.79 1.42-4.03 2.38-.16.12-.32.27-.43.44-.07.11-.1.31-.05.42.05.1.24.14.39.23h.01Zm.42-13.58c.05.44.07.72.11.98.07.45.14.91.25 1.36.06.26.25.47.56.43.31-.04.39-.29.41-.57v-.15c-.11-1.23-.2-2.46-.34-3.68-.02-.19-.2-.43-.37-.52-.25-.14-.52 0-.66.23-.38.64-.73 1.29-1.1 1.94-.02.04-.05.1-.04.15.04.16.05.39.16.46.1.07.35.03.48-.04.17-.1.29-.28.56-.58Zm-14.96 20.71c.18-.04.31-.06.43-.11 1.44-.62 2.87-1.25 4.3-1.88.09-.04.18-.1.26-.17.35-.28.46-.64.27-.93-.18-.29-.54-.34-.96-.11-.38.21-.76.43-1.15.63-.85.44-1.7.84-2.54 1.29-.31.17-.61.38-.87.62-.1.09-.12.34-.07.47.04.1.24.14.33.19Zm-30.68 13.95.06.24c.18.02.38.1.55.06.32-.07.65-.18.94-.33 1.31-.65 2.61-1.32 3.91-1.99.07-.03.14-.07.2-.12.25-.21.3-.47.17-.76-.12-.28-.47-.4-.79-.27-.12.04-.23.12-.34.18-1.34.81-2.68 1.61-4.02 2.43-.25.15-.46.37-.69.55Zm37.58-67.4v.75c.15-.32.33-.5 0-.75ZM219.8 35.58c-.02-.49-.08-.87-.04-1.24.07-.82.15-1.63.29-2.44.09-.51.37-.98.81-1.28.7-.46 1.39-.99 2.17-1.3 10.83-4.34 21.68-8.62 32.5-12.98 9.56-3.85 19.09-7.78 28.63-11.66.59-.24 1.22-.4 1.84-.56.56-.14.72-.02.76.53.03.51.02 1.03.03 1.54 0 .29-.13.48-.4.59-.21.09-.42.19-.63.28-7.06 3.02-14.13 6.04-21.19 9.07-8.98 3.84-17.96 7.67-26.93 11.53-5.4 2.33-10.78 4.73-16.16 7.1-.51.23-1.02.48-1.68.8Zm5.51-3.85c.58 0 1.14-.49 1.15-1.03 0-.5-.48-.97-1-.98-.58 0-1.12.49-1.13 1.04 0 .53.43.96.99.97Zm-4.04.47c0 .54.45.99.97.97.51-.01.98-.48.99-.99.01-.54-.49-1.08-.99-1.07-.51 0-.98.53-.97 1.09Zm6.61-2.75c-.02.44.17.73.49.83.36.11 1.06-.31 1.3-.78.16-.31.09-.66-.17-.9-.04-.03-.08-.07-.12-.09-.28-.17-.56-.23-.87-.06-.42.23-.59.61-.64 1.01Z" class="cls-2_mobile"/>
    <path d="M252.85 63.82c.04 1.2.11 2.4.13 3.61.01 1.13 0 2.25-.05 3.38-.03.72-.38 1.32-.83 1.87-.59.73-1.31 1.3-2.13 1.76-2.72 1.56-5.43 3.13-8.17 4.67-1.86 1.04-3.75 2.04-5.62 3.05-.93.49-1.87.97-2.82 1.41-.32.15-.69.22-1.04.24-.67.03-.94-.19-1.06-.86-.21-1.29-.47-2.58-.56-3.89-.25-3.56-.56-7.11-.52-10.69.03-2.84.37-5.63 1.1-8.37.68-2.53 1.47-5.02 2.56-7.42 1.69-3.71 4.21-6.79 7.19-9.54 2.11-1.94 4.5-3.4 7.15-4.47 1.76-.72 3.52-1.43 5.39-1.85s3.75-.72 5.66-.55c.79.07 1.6.19 2.33.48 2.24.89 4.47 1.83 6.66 2.84 2.49 1.14 4.29 3.07 5.68 5.38a30.77 30.77 0 0 1 1.69 3.28c.98 2.19 1.29 4.53 1.54 6.88.16 1.5.22 3.02.32 4.53.01.15 0 .32.05.46.25.78-.07 1.31-.73 1.67-1.2.64-2.42 1.25-3.63 1.87-3.32 1.72-6.74 3.18-10.2 4.56-.74.3-1.5.52-2.27.75-.32.09-.66.11-.99.12-.5.02-.85-.23-1.03-.67-.14-.35-.27-.73-.31-1.11-.19-1.94-.34-3.89-.52-5.83-.12-1.28-.3-2.55-.76-3.76-.3-.79-1.08-1.31-1.92-1.28-.63.03-1.14.28-1.41.9-.08.19-.15.38-.24.57-.39.88-.31 1.63.24 2.5 1.23 1.95 2.29 4.01 3.39 6.04.28.51.48 1.08.66 1.64.17.56 0 1-.39 1.22-.41.23-.93.13-1.28-.36-.69-.96-1.35-1.94-1.97-2.94-.43-.69-.76-1.43-1.13-2.16-.06.01-.13.03-.19.05h.02Zm.02-25.49c-5.46 1.4-9.92 4.29-13.64 8.43-3.66 4.08-5.62 8.92-6.88 14.25 6.53.46 12.98.91 19.42 1.37.09-.79.1-.79-.2-1.31-1.51-2.72-2.79-5.55-4.04-8.39-.17-.4-.31-.82-.39-1.25-.03-.18.09-.49.24-.56.15-.07.46.02.6.16.26.24.46.55.65.86 1.1 1.79 2.19 3.59 3.29 5.39.13.21.27.42.44.66.07-.14.11-.2.14-.27.28-.75.58-1.47 1.3-1.95.14-.09.19-.41.18-.61-.1-1.51-.23-3.02-.34-4.53-.19-2.69-.38-5.37-.55-8.06-.09-1.38-.14-2.76-.21-4.19Zm-20.84 44.63c.35-.08.55-.09.74-.17.81-.33 1.64-.62 2.4-1.04 2.03-1.1 4.04-2.23 6.04-3.39 2.85-1.65 5.68-3.32 8.52-4.97 1.46-.85 2.21-2.06 2.15-3.79-.07-2-.05-4-.07-6.01 0-.07-.04-.14-.08-.28h-.74c-1-.03-2.01-.05-3.01-.1-1.87-.11-3.75-.2-5.62-.37-3.05-.28-6.08-.61-9.13-.91-.37-.03-.73-.03-1.19-.05-.21 1.52-.46 2.93-.59 4.36-.36 3.95-.07 7.9.06 11.85.04 1.08.14 2.15.25 3.22.05.53.17 1.05.27 1.67Zm21.73-44.91c.43 5.83.84 11.55 1.26 17.29.28.04.51.06.73.11 1.15.24 2.05.78 2.46 1.97.28.82.72 1.59.82 2.47.01.13.08.26.15.46.26-.24.45-.41.63-.59 3.48-3.4 6.64-7.08 9.89-10.69.88-.97 1.71-1.98 2.58-2.97.29-.33.36-.66.09-1.04-.9-1.26-1.8-2.52-3.16-3.34-1.08-.65-2.18-1.27-3.32-1.79-1.49-.69-3.03-1.28-4.55-1.89-.38-.15-.78-.26-1.18-.34-2.17-.43-4.29-.08-6.41.36Zm2.7 28.72c-.12.15-.26.27-.31.42-.11.31.41 1.02.74.98.11-.01.31-.26.29-.34-.1-.31-.26-.6-.43-.88-.04-.07-.16-.09-.3-.17Zm15.7-43.5c-.83-.63-.92-.97-.71-1.86.12-.51.12-1.06.15-1.59 0-.1-.1-.2-.24-.43-.39.77-.13 1.59-.58 2.23-.22-.41-.44-.8-.7-1.27-.3.41-.23.72-.08.97.54.91.29 1.75-.15 2.61-.29.56-.47 1.19-.67 1.8-.08.26-.08.54-.06.83.51-.33.61-.89.83-1.37.23-.49.46-.99.69-1.48.06.01.1.02.16.04.02.14.04.28.04.42.11 1.38.21 2.76.32 4.14 0 .05 0 .11.02.15.1.27.02.72.4.75.5.05.11-.5.39-.72.08.1.16.19.23.29.42.61 1.01.94 1.73 1.04.2.03.44 0 .61.09.79.47 1.53.24 2.28-.08.2-.09.42-.16.66-.25.1.84-.24 1.47-.73 2-.59.63-1.02 1.33-1.38 2.11-.65 1.42-1.78 2.19-3.35 2.37-1.61.18-3.18-.03-4.75-.37-.17-.04-.35-.1-.51-.17-1.22-.49-1.66-1.27-1.41-2.56.11-.55.27-1.1.44-1.63.34-1.01.5-2.04.33-3.11-.11-.74.04-1.43.43-2.07.3-.48.6-.95.9-1.44.17-.28.33-.57.41-.96-.16.09-.31.18-.47.27-.51.3-1.02.59-1.54.88-.3.17-.62.27-.98.11-.09-.43.24-.59.51-.76.57-.36 1.15-.68 1.72-1.02.24-.14.47-.3.74-.47-.64-.64-1.64-.25-2.36-.95.36-.12.61-.25.86-.27.83-.08 1.58.18 2.26.63.27.17.49.3.73-.1-.18-.21-.4-.43-.55-.68-.28-.45-.57-.91-.75-1.41-.16-.44.02-.74.47-.77.68-.05.96-.49 1.24-1 .23-.43.47-.87.79-1.21.45-.49 1-.38 1.32.2.11.2.19.43.24.65.16.67.24 1.35.64 1.95.14.21.11.54.16.88.14-.1.3-.17.39-.29.58-.75 1.17-1.49 1.7-2.28.41-.6.81-1.19 1.44-1.58.44-.28.91-.46 1.46-.42.78.07 1.2.68.94 1.41-.1.28-.27.57-.48.78-.41.42-.84.84-1.32 1.17-.99.69-2.02 1.32-3.04 1.98-.54.35-1.07.71-1.38 1.31-.1.19-.29.34-.44.51h-.01Zm5.94-6.18c-.61-.17-.87-.11-1.36.26-.89.67-1.31 1.69-1.85 2.61 1.23-.76 2.54-1.41 3.21-2.87Zm-9.46 11.63c.57-.39.61-.68.17-1.13-.54.48-.56.64-.17 1.13Zm3.15 43.72c0-1.95 2.21-3.46 4.04-2.75 1.1.43 1.71 1.58 1.45 2.75-.29 1.32-1.56 2.38-2.91 2.46-1.65.1-2.72-1.11-2.58-2.46Zm-8.62 6.26c.01 1.63-1.44 3.21-3.06 3.32-1.26.09-2.25-.86-2.2-2.12.06-1.36 1.46-2.97 2.8-3.22 1.39-.26 2.44.61 2.46 2.02Zm-1.53.1c.01-.52-.3-.83-.8-.8-.92.06-1.7.98-1.61 1.89.05.49.34.73.83.67.75-.09 1.56-.99 1.58-1.76Zm-13.62 7.29c-.01 1.15-.46 2.01-1.36 2.61-.77.51-1.6.59-2.4.11-.81-.48-1.11-1.26-1.04-2.17.07-.91.54-1.67 1.15-2.29.55-.57 1.3-.72 2.08-.48.83.25 1.33.85 1.53 1.69.04.2.05.41.06.54Zm-3.51.5c.02.37.1.74.52.91.31.13.73-.02 1.01-.37s.45-.75.38-1.21c-.08-.48-.41-.7-.89-.61-.66.13-1.03.57-1.03 1.26Zm-11.72 6.53c-.06 1.24-.45 2.12-1.43 2.64-1.14.62-2.52.09-2.97-1.13-.18-.49-.21-.99-.08-1.51.18-.76.65-1.35 1.22-1.82.91-.77 2.36-.39 2.94.74.19.38.26.82.33 1.08Zm-3.17.33c-.01.58.29 1 .72.99.47 0 .92-.57.92-1.15 0-.51-.32-.88-.75-.88-.53.01-.87.41-.89 1.03Zm53.9-36.66c-.06.32-.08.6-.15.87-.06.24-.13.5-.27.71-.41.59-1.01.55-1.33-.08-.15-.29-.24-.62-.31-.94-.14-.62-.26-1.25-.35-1.88-.03-.24.01-.51.09-.75.26-.78 1.1-.93 1.62-.29.2.25.34.55.56.94.04-.37.05-.62.08-.87.06-.44.27-.79.71-.9.47-.12.79.14 1.02.51.58.93.78 1.94.63 3.02-.05.4-.25.73-.66.87-.4.13-.7-.08-.96-.35-.23-.24-.41-.51-.67-.86Zm1.43.42c.33-1.21 0-2.43-.74-2.78-.28 1.45-.06 2.34.74 2.78Zm-3.06-2.41c-.21 1.01.02 2.41.49 3.03.5-1.19.28-2.69-.49-3.03Z" class="cls-11"/>
    <path d="M273.7 25.81c.02-.69-.51-1.06-.85-1.63l.85-.95c.78 1.93 2.03 3.39 3.26 4.85-1.08.96-2.56 1.08-3.49.33-1.05-.85-1.44-2.33-.88-3.33.44.1.4.95 1.11.72Zm-25.15 6.55c.33-.14.54-.27.77-.32.4-.08.81-.21 1.2-.16 1.03.13 1.55 1.07 1.21 2.05-.34.96-1.02 1.53-2.01 1.7-.67.11-1.27-.22-1.51-.81-.15-.38-.07-.74.21-.88.34-.18.58 0 .79.26.11.14.21.28.39.5.32-.17.65-.3.93-.5.24-.18.49-.41.37-.77-.09-.25-.6-.52-.92-.44-.42.11-.83.26-1.22.45-.52.26-.65.23-.81-.33-.05-.2-.08-.4-.13-.6-.23-1-.17-1.18.69-1.69.31-.18.63-.35.96-.49.18-.08.39-.13.59-.16.29-.04.58 0 .7.33.1.29-.05.52-.28.65-.45.25-.91.47-1.36.71-.18.09-.44.1-.56.5Zm7.08-.37c-.15.48-.22 1-.45 1.44-.6 1.15-1.97 1.19-2.67.1a2.28 2.28 0 0 1-.32-.69 5.6 5.6 0 0 1 .05-3.09c.29-.96 1.41-1.05 2.06-.51.68.58 1.23 1.72 1.33 2.74Zm-1.91 1.04c.57-.67.46-1.3.23-1.9-.17-.46-.37-.95-1.09-1.08 0 1.09.09 2.07.86 2.98Zm24.92 9.79c.21.12.38.23.56.33.63.37 1.45.06 1.68-.63.14-.43-.04-.73-.5-.71-.27 0-.54.12-.79.24-.69.33-1.05.15-1.18-.61-.03-.15-.04-.31-.05-.46-.13-.97.07-1.3 1.02-1.56.37-.1.75-.14 1.13-.16.11 0 .3.14.32.25.02.11-.08.3-.19.37-.24.14-.52.21-.77.34-.16.08-.29.21-.43.32.02.05.04.1.07.14.24 0 .49-.02.73-.03.72-.02 1.33.2 1.69.86.35.62.21 1.25-.15 1.82-.43.69-1.04 1.14-1.85 1.24-.6.08-1.12-.11-1.48-.62-.27-.39-.23-.63.2-1.12Zm-53.98 19.79c-.26.56-.65.75-1.07.46-.26-.17-.51-.47-.59-.76-.32-1.05.56-2.59 1.62-2.91.82-.25 1.43.1 1.62.93.18.82-.04 1.59-.39 2.31-.31.64-.69 1.25-1.08 1.95.42-.02.79-.05 1.15-.04.45 0 .72.22.73.52.01.3-.24.54-.68.6-.36.04-.72.02-1.08.04-.28.02-.57.03-.84.11-.32.09-.62.17-.82-.16-.21-.35.1-.56.27-.8.4-.53.82-1.06 1.18-1.61.39-.58.7-1.2.79-1.9.02-.2.05-.41.02-.61-.07-.61-.47-.79-.95-.4-.47.39-.74.92-.79 1.53-.03.48.13.6.91.74Zm51.53-19.27c-.27.05-.5.13-.72.12-.15 0-.41-.1-.44-.21-.03-.16.02-.42.15-.53.26-.24.59-.4.9-.6v-1.57c-.4.25-.7.47-1.04.63-.22.11-.49.21-.73.18-.18-.02-.34-.24-.5-.37.12-.14.23-.36.38-.41.76-.21 1.28-.74 1.78-1.29.12-.13.21-.29.31-.44.15-.22.32-.42.63-.29.3.12.29.39.28.65-.04.53-.07 1.07-.09 1.61 0 .15.03.31.05.5.17.01.35 0 .5.06.17.07.42.2.44.34.03.19-.06.44-.18.6-.13.17-.37.26-.66.44.1.58.19 1.21.29 1.83.03.2.1.42.05.6-.04.17-.21.42-.35.44-.18.02-.51-.08-.57-.23-.18-.39-.28-.82-.38-1.24-.06-.27-.06-.55-.09-.86Zm-47.68 38.94c-.17.68-.3 1.38-.51 2.06-.14.43-.47.75-.97.76-.54 0-.84-.36-1-.82-.48-1.33-.38-2.66.14-3.96.03-.07.07-.14.11-.2.63-.86 1.39-.8 1.78.2.23.61.3 1.28.45 1.97Zm-1.55 1.69c.65-1.04.66-2.69.03-3.56-.5 1.19-.47 2.33-.03 3.56Z" class="cls-11"/>
    <path d="m227.52 60.98.84-.04c.51 0 .9.22 1.09.7.29.72.21 1.4-.28 2.03-.47.6-1.08.87-1.83.71-.26-.06-.52-.2-.74-.37-.21-.16-.33-.45-.11-.67.13-.14.39-.16.6-.21.07-.01.15.04.21.07.35.17.69.2.99-.1.28-.28.32-.53.15-1.13-.38-.08-.63.13-.88.37-.2.2-.48.32-.69.14-.16-.14-.27-.43-.27-.66 0-1.15.43-1.74 1.43-2.11.23-.08.47-.18.6.09.13.26-.05.44-.24.58-.24.18-.49.34-.88.61Zm21.87 23.74c-.33-.02-.49-.27-.33-.5.2-.28.46-.55.75-.74.82-.53 1.66-1.01 2.5-1.51.57-.34 1.15-.67 1.72-1.01.51-.31.86-.29 1.06.07.19.34.03.73-.44 1-.24.14-.5.26-.75.39-1.36.7-2.72 1.41-4.09 2.11-.15.08-.32.14-.42.18Zm29.74-14.43c-.15-.08-.34-.12-.39-.23-.06-.11-.03-.31.05-.42.11-.17.27-.31.43-.43 1.24-.96 2.54-1.83 4.03-2.38.14-.05.29-.12.44-.15.39-.07.66.05.75.36.1.35-.04.6-.35.77-.04.02-.09.05-.13.07-1.28.66-2.55 1.32-3.83 1.97-.32.16-.65.3-.99.44h-.01Zm.42-13.58c-.28.29-.39.48-.56.58-.13.07-.37.11-.47.04-.11-.07-.12-.3-.16-.46 0-.04.02-.1.04-.15.36-.65.72-1.3 1.1-1.94.14-.24.42-.37.66-.23.17.09.35.33.37.52.14 1.23.23 2.45.34 3.68v.15c-.01.28-.1.52-.41.57s-.49-.17-.56-.43c-.11-.44-.18-.9-.25-1.36-.04-.27-.06-.54-.11-.98Zm-14.96 20.7c-.09-.05-.3-.09-.33-.19-.04-.14-.02-.39.07-.47.26-.24.56-.45.87-.62.84-.44 1.69-.86 2.54-1.29.39-.2.76-.43 1.15-.63.42-.23.77-.18.96.11.18.29.08.65-.27.93-.08.06-.16.13-.26.17-1.43.63-2.86 1.26-4.3 1.88-.11.05-.25.06-.43.11Zm-30.67 13.96c.23-.19.44-.41.69-.55 1.33-.82 2.68-1.62 4.02-2.43.11-.06.22-.14.34-.18.32-.12.66 0 .79.27.13.29.08.55-.17.76-.06.05-.13.08-.2.12-1.3.67-2.6 1.34-3.91 1.99-.3.15-.62.26-.94.33-.17.04-.37-.03-.55-.06-.02-.08-.04-.16-.07-.24Zm37.58-67.4c.33.25.15.43 0 .75v-.75Zm-46.19 7.77c-.55 0-.99-.44-.99-.97s.55-1.05 1.13-1.04c.53 0 1.01.48 1 .98 0 .54-.56 1.04-1.14 1.03Zm-4.04.47c0-.56.47-1.08.97-1.09.51 0 1.01.53.99 1.07-.01.51-.48.97-.99.99-.52.02-.97-.43-.97-.97Zm6.61-2.75c.05-.4.22-.78.64-1.01.31-.17.59-.1.87.06.05.02.08.06.12.09.26.24.33.59.17.9-.25.46-.95.88-1.3.78-.32-.1-.51-.39-.49-.83Z" class="cls-11"/>
    <path d="M256.46 66.79c.13.07.25.1.3.17.16.29.33.58.43.88.02.08-.17.33-.29.34-.33.04-.86-.67-.74-.98.06-.15.19-.27.31-.42Zm21.64-49.7c-.67 1.46-1.98 2.12-3.21 2.87.54-.93.96-1.94 1.85-2.61.49-.37.74-.43 1.36-.26Zm-9.46 11.63c-.4-.49-.37-.65.17-1.13.45.46.4.75-.17 1.13Zm-7 50.07c-.03.77-.83 1.67-1.58 1.76-.48.06-.78-.17-.83-.67-.09-.92.69-1.83 1.61-1.89.5-.03.81.28.8.8Zm23.3-21.58c-.8-.44-1.02-1.33-.74-2.78.73.36 1.07 1.57.74 2.78Zm-3.05-2.42c.77.34.99 1.84.49 3.03-.46-.62-.7-2.02-.49-3.03Zm-28.17-21.76c-.76-.91-.85-1.89-.86-2.98.71.12.91.62 1.09 1.08.22.61.34 1.24-.23 1.9Zm-26.76 50.96c-.43-1.24-.47-2.37.04-3.56.62.87.61 2.52-.04 3.56Z" class="cls-2_mobile"/>
    <path d="M232.03 82.96c-.1-.63-.22-1.15-.27-1.67-.1-1.07-.21-2.15-.25-3.22-.14-3.95-.42-7.9-.07-11.85.13-1.42.38-2.84.59-4.36.46.02.83.02 1.19.05 3.04.31 6.09.64 9.13.91 1.87.17 3.75.26 5.62.37 1 .06 2.01.07 3.01.1h.74c.04.14.08.21.08.28.02 2 0 4 .07 6.01.06 1.73-.68 2.94-2.14 3.79-2.84 1.65-5.67 3.33-8.52 4.97-2 1.16-4.01 2.29-6.04 3.39-.76.42-1.6.71-2.4 1.04-.18.07-.39.09-.74.17Zm-2.41 10.5c.01-.62.36-1.01.89-1.03.44 0 .76.37.75.88 0 .58-.46 1.14-.92 1.15-.43 0-.73-.41-.72-.99Z" class="cls-12_mobile"/>
    <path d="M252.87 38.33c.07 1.43.12 2.81.21 4.19.17 2.69.36 5.38.55 8.06.11 1.51.24 3.02.34 4.53.01.2-.04.52-.18.61-.71.48-1.02 1.2-1.3 1.95-.03.07-.07.13-.14.27-.16-.25-.31-.45-.44-.66-1.1-1.8-2.18-3.6-3.29-5.39-.19-.31-.39-.61-.65-.86-.14-.13-.45-.23-.6-.16-.14.07-.27.39-.24.56.07.43.22.85.39 1.25 1.25 2.84 2.53 5.67 4.04 8.39.29.53.29.53.2 1.31-6.44-.45-12.88-.91-19.42-1.37 1.26-5.33 3.23-10.17 6.88-14.25 3.72-4.15 8.18-7.04 13.64-8.43Zm-7.36 49.23c1.6 0 1.6-2.47 0-2.47s-1.6 2.47 0 2.47Z" style="fill:#757b9b"/>
    <path d="M253.76 38.05c2.12-.44 4.24-.79 6.41-.36.4.08.8.19 1.18.34 1.53.61 3.06 1.2 4.55 1.89 1.14.52 2.24 1.15 3.32 1.79 1.35.82 2.26 2.08 3.16 3.34.27.38.2.71-.09 1.04-.86.99-1.7 1.99-2.58 2.97-3.25 3.61-6.42 7.3-9.89 10.69-.18.18-.37.35-.63.59-.07-.21-.14-.33-.15-.46-.1-.88-.54-1.65-.82-2.47-.41-1.19-1.31-1.72-2.46-1.97-.22-.05-.46-.07-.73-.11-.42-5.74-.84-11.46-1.26-17.29Zm7.82 40.64-.25-.22v1.75s.04-.04.07-.06l-.25.19s.07-.04.1-.06l-.3.12s.08-.03.13-.03l-.33.04h.12l-.33-.04h.03V78c-.06.02-.12.03-.18.04l.33-.04-.48.06c-.05 0-.1.01-.15.03-.13.04-.28.09-.4.17-.03.02-.21.14-.29.22-.08.08-.15.19-.22.29-.01.01-.02.03-.03.04-.06.11-.1.22-.14.34 0 .01-.01.03-.02.05-.02.12-.05.25-.05.37 0 .27.07.47.18.7.11.21.31.38.51.51.14.09.3.14.46.15.16.03.33.03.49-.02.16-.04.3-.11.42-.22.13-.09.24-.2.32-.35l.12-.3c.06-.22.06-.44 0-.66l-.12-.3c-.11-.19-.26-.33-.45-.44l-.02-.01.25.19-.02-.02.19.25s-.01-.02-.02-.03l.12.3v-.04l.04.33v-.05l-.04.33s0-.05.02-.08l-.12.3s.03-.05.04-.08l-.19.25.06-.06-.25.19.06-.03-.3.12c.07-.02.13-.04.2-.05l-.33.04.49-.06c.05 0 .11-.02.16-.04l.3-.12c.14-.08.26-.18.35-.32.07-.08.13-.17.16-.27.08-.15.11-.31.11-.47l-.04-.33-.12-.3a.975.975 0 0 0-.32-.35.945.945 0 0 0-.42-.22c-.13-.03-.26-.04-.39-.05h-.07c-.13 0-.26.02-.39.05-.02 0-.04 0-.06.01-.12.04-.23.09-.35.14-.02 0-.04.02-.06.03-.1.07-.2.15-.3.23a.12.12 0 0 0-.05.05c-.12.11-.21.24-.26.4-.08.15-.11.31-.11.47l.04.33c.06.21.16.39.32.54l.25.22c.11.12.24.21.4.26.15.08.31.11.48.11.17 0 .33-.03.48-.11a.87.87 0 0 0 .4-.26l.19-.25c.11-.19.17-.4.17-.62l-.04-.33c-.06-.21-.16-.39-.32-.54h.02Z" class="cls-15_mobile"/>
    <path d="M190.98 77.19c-1.23.01-1.85-.65-2.11-1.66-.22-.8-.02-1.56.66-2.07.86-.65 1.7-.32 2.5.27.34-.23.68-.45 1.01-.67 6.45-4.27 12.89-8.54 19.33-12.81.26-.17.51-.35.77-.52.31-.19.49-.4.51-.8.03-.58.44-.94.95-1.14.77-.31 1.46.03 1.69.79.23.75-.1 1.3-.91 1.51-.18.05-.39.11-.55.05-.66-.24-1.13.12-1.62.45-6.85 4.51-13.7 9.01-20.54 13.51-.08.05-.14.12-.26.21.06.94-.08 1.85-1 2.52.25.62.46 1.22.71 1.81 6.2 14.52 12.41 29.04 18.57 43.57.44 1.03 1.04 1.66 2.04 2.18 7.05 3.68 14.08 7.41 21.12 11.12.3.16.6.31.92.46.12-.09.22-.15.31-.22 1.01-.76 1.89-.51 2.31.67.23.64.11 1.09-.4 1.45-.57.41-1.21.41-1.71-.03-.16-.13-.37-.31-.4-.49-.14-.72-.72-.93-1.27-1.22-7.08-3.76-14.16-7.54-21.24-11.3-.57-.31-1.16-.59-1.65-.84-.4-.98-.74-1.89-1.11-2.78-5.85-13.81-11.69-27.61-17.54-41.42-.36-.84-.71-1.69-1.1-2.61Zm87.54-49.62c-.13.33-.22.56-.32.8-.86 2.12-3.63 2.46-5.06 1.35-1.02-.79-1.64-1.75-1.83-3-.05-.33-.13-.66-.14-.99-.15-2.57 2.36-4.21 4.42-3.88.77.12 1.36.59 1.85 1.18.58.7.96 1.51 1.14 2.41.05.25.11.5.17.81 1.35.38 2.71.76 4.06 1.13.2.05.41.09.58.18.42.2.58.59.43.94-.14.33-.45.47-.91.35-.79-.2-1.58-.42-2.37-.65-.66-.19-1.31-.41-2.03-.63Zm-3.36 1.2c.94 0 1.28-.18 1.64-.82.71-1.23.45-3.08-.58-4.06-.13-.12-.28-.22-.45-.3-1.26-.59-2.79.13-3.09 1.49-.21.93-.02 1.84.41 2.68.2.4.53.71.98.82.42.1.86.15 1.09.19Z" class="cls-10_mobile" data-name="secondary-color_mobile"/>
    <path d="M113.8 83.84c1.66.46 2.06 1.03 1.79 2.6-.4 2.26-1.2 4.39-2.19 6.45-.26.53-.64.88-1.19 1.11-1 .42-1.96.92-2.92 1.38.26 1.9-.05 3.74-.24 5.58-.34 3.49-.7 6.97-.98 10.47-.42 5.35-.87 10.69-1.62 16-.66 4.69-1.18 9.39-1.79 14.08-.43 3.37-.91 6.74-1.34 10.11-.28 2.23-.48 4.46-.76 6.68-.23 1.8-.37 3.62-.93 5.37-.22.69-.53 1.29-1.1 1.75-.97.81-1.96 1.57-3.19 2.01-.72.26-1.38.7-2.07 1.03-2.77 1.36-5.54 2.71-8.31 4.08-.2.1-.38.29-.48.49-.38.7-.94 1.2-1.62 1.61-1.38.84-2.75 1.69-4.11 2.57-1.43.93-2.94 1.19-4.62.88-3.56-.67-7.01-1.71-10.5-2.67-4.53-1.24-9.07-2.44-13.62-3.65-.1-.03-.21-.03-.35-.05-.53.52-1.05 1.09-1.62 1.59-2.9 2.59-7.63 1.91-9.81-1.53-1.9-2.98-1.84-6.09-.43-9.23.37-.82.62-1.71 1.37-2.33.18-.14.18-.58.15-.87-.36-2.75-.74-5.49-1.12-8.23-.6-4.41-1.2-8.82-1.78-13.23-.55-4.13-1.07-8.27-1.6-12.41-.6-4.69-1.19-9.39-1.78-14.08-.53-4.21-1.08-8.41-1.56-12.62-.26-2.3-.41-4.6-.6-6.91-.02-.27.03-.55.06-.9.3-.02.58-.09.83-.05 3.79.7 7.62 1.24 11.36 2.16 4.53 1.11 8.95 2.64 13.46 3.78 5.3 1.34 10.65 2.47 15.98 3.67.39.09.85.05 1.24-.07.97-.29 1.94-.61 2.88-1.01 7.42-3.15 14.84-6.31 22.26-9.48 1.42-.61 2.82-1.26 4.25-1.83 2.05-.81 4.13-1.56 6.18-2.35 1-.38 1.94-.84 2.4-1.99h.01Zm-77.04 30.08c1.45-.21 2.61.28 3.75.85 1.13.57 2.25 1.14 3.38 1.72 5.86 3.01 9.38 7.74 10.6 14.21.76 4.04.92 8.14 1.18 12.23.24 3.6.43 7.2.75 10.8.35 4.01.78 8.02 1.25 12.03.25 2.11.66 4.21.99 6.33.41.12.7.22 1 .3 3.22.86 6.43 1.73 9.66 2.55 2.41.61 4.84 1.16 7.26 1.74.97.23 1.91.13 2.75-.36 1.71-.97 3.39-1.99 5.05-3.04.55-.35 1.02-.86 1.04-1.62.02-.8.06-1.61.09-2.41.13-4.59.23-9.18.38-13.77.27-8.34.62-16.68.85-25.02.23-8.17.37-16.34.53-24.51 0-.24-.03-.47-.05-.8-.37.14-.65.25-.93.36-2.09.9-4.18 1.82-6.28 2.71-2.18.92-4.39.94-6.71.49-4.01-.79-7.92-1.88-11.82-3.05-4.68-1.4-9.35-2.82-14.04-4.14-4.23-1.19-8.4-2.52-12.53-4-.08-.03-.19.03-.44.07.76 5.41 1.52 10.81 2.29 16.33Zm50.42 57.31c.64-.35 1.13-.6 1.62-.86 2.29-1.22 4.57-2.47 6.88-3.66.54-.28.77-.61.79-1.21.03-1.09.15-2.17.21-3.25.14-2.42.25-4.83.4-7.24.14-2.21.37-4.4.43-6.61.13-4.1.12-8.2.26-12.3.15-4.73.39-9.46.6-14.18.27-6.06.55-12.12.83-18.17.03-.68 0-1.36 0-2.19-3.59 1.42-7.04 2.78-10.58 4.17 0 1.13.02 2.22 0 3.3-.21 8.38-.42 16.76-.64 25.14-.14 4.91-.32 9.82-.45 14.72-.19 7.08-.36 14.16-.53 21.25 0 .32.11.64.19 1.12v-.02Zm-29.7.58c-.4-3.06-.83-5.99-1.16-8.95-.44-3.94-.85-7.88-1.17-11.82-.36-4.43-.57-8.88-.89-13.33-.2-2.73-.56-5.44-1.26-8.1-.96-3.65-2.61-6.88-5.7-9.21-.7-.53-1.37-1.09-2.08-1.61-1.4-1.01-2.88-1.88-4.49-2.51-.95-.37-1.94-.65-2.97-.59-.61.04-.7.18-.62.8.11.8.2 1.6.31 2.4.85 6 1.71 12 2.53 18.01.86 6.32 1.67 12.65 2.51 18.97.14 1.07.3 2.13.47 3.23.7-.2 1.29-.43 1.9-.54 1.71-.31 3.4-.26 4.82.88 2.77 2.25 4.11 5.11 3.38 8.72-.17.84-.45 1.67-.68 2.55 1.72.36 3.42.72 5.12 1.08ZM34.15 95.85c.85.28 1.61.54 2.38.76 4.01 1.16 8.01 2.3 12.02 3.47 8.51 2.48 16.97 5.13 25.57 7.27.72.18 1.56.18 2.27-.02 1.31-.37 2.58-.89 3.83-1.43 1.9-.82 3.75-1.76 5.66-2.53 5.69-2.3 11.4-4.52 17.11-6.79 2.57-1.02 5.14-2.07 7.72-3.07.97-.37 1.54-1.05 1.95-1.94.83-1.8 1.31-3.69 1.65-5.63.04-.22-.03-.45-.04-.64-.82.45-1.54.95-2.33 1.27-3.63 1.48-7.32 2.85-10.94 4.37-7.21 3.02-14.38 6.13-21.58 9.17-1.22.51-2.52.85-3.79 1.24-.26.08-.56.09-.83.05-.97-.13-1.95-.24-2.9-.46-5.02-1.15-10.05-2.27-15.05-3.5-6.33-1.56-12.48-3.8-18.95-4.77-1.41-.21-2.82-.47-4.4-.73.22 1.36.43 2.58.64 3.9h.01Zm67.61 3.47c-.05.18-.07.25-.08.32-.39 6.82-.77 13.65-1.14 20.46-.2 3.57-.36 7.14-.53 10.71-.27 5.6-.53 11.2-.81 16.8-.13 2.45-.31 4.89-.49 7.35-.24 3.32-.49 6.64-.72 9.96-.01.22.07.44.12.8.45-.34.76-.61 1.1-.85.99-.69 1.51-1.63 1.62-2.82.09-.98.2-1.95.3-2.93.26-2.58.47-5.16.77-7.74.41-3.48.89-6.95 1.32-10.42.53-4.24 1.06-8.48 1.55-12.73.56-4.88 1.1-9.75 1.6-14.62.51-4.92.97-9.83 1.43-14.75.05-.53 0-1.07 0-1.74-2.09.76-4.05 1.48-6.04 2.2Zm-53.75 67.89c.01-1.44-.74-2.5-1.86-2.88-1.41-.48-2.57.49-2.33 1.96.14.85.53 1.59 1.14 2.2.91.92 2.17.74 2.78-.41.18-.33.23-.72.27-.86Z" class="cls-11"/>
    <path d="M110.31 81.67c-.39.2-.77.43-1.17.59-3.6 1.47-7.2 2.94-10.81 4.4-5.26 2.13-10.53 4.26-15.8 6.37-1.79.72-3.6 1.32-5.49 1.78-1.62.39-3.09.24-4.66 0-5.58-.88-11-2.5-16.5-3.73-2.9-.65-5.84-1.19-8.75-1.81-2.67-.57-5.33-1.22-8.01-1.77-1.99-.41-4.01-.68-6.01-1.03-.34-.05-.67-.14-1.08-.24.64-.52 1.31-.51 1.96-.46 2.24.16 4.49.27 6.71.56 1.94.26 3.86.69 5.77 1.12 2.94.66 5.84 1.52 8.8 2.05 4.97.9 9.82 2.31 14.7 3.58.78.2 1.55.42 2.32.64 2.13.6 4.15.16 6.16-.59 4.26-1.61 8.54-3.19 12.82-4.76 5.52-2.03 11.05-4.05 16.58-6.08.77-.28 1.53-.61 2.29-.92.05.1.11.2.16.3h-.01Z" class="cls-11"/>
    <path d="M43.4 80.69c.07-.2.09-.34.16-.38 1.25-.61 2.47-1.3 3.97-1.14 1.01.11 2.03.17 3.05.16 3.56-.01 7.07.43 10.58.96 2.39.36 4.78.76 7.17 1.15.62.1 1.23.26 1.84.43 6.14 1.68 12.29 3.37 18.43 5.06.62.18 1.23.42 1.85.63-.02.08-.05.16-.07.24-.57-.13-1.14-.24-1.71-.38-3.66-.96-7.29-2.03-10.98-2.86-4.41-.99-8.83-1.94-13.29-2.62-3.57-.54-7.19-.7-10.8-.9-3.26-.18-6.53-.19-9.8-.28-.1 0-.2-.03-.39-.07Zm12.81-4.09c.77-1.28 2.04-1.34 3.19-1.62.16-.04.34.02.5.07.53.15 1.04.4 1.58.45 1.99.2 3.99.29 5.98.49 1.92.2 3.84.42 5.74.72 8.75 1.42 17.39 3.33 25.88 5.89.68.2 1.45.22 1.94.97-.58-.12-1.18-.22-1.75-.37-3-.82-5.98-1.76-9.01-2.46-3.92-.91-7.86-1.69-11.82-2.44-3.93-.74-7.9-1.16-11.9-1.32-3.15-.13-6.31-.25-9.47-.36h-.85Z" class="cls-11"/>
    <path d="M36.76 113.92c-.78-5.52-1.54-10.92-2.29-16.33.25-.04.36-.1.44-.07 4.13 1.48 8.3 2.82 12.53 4 4.7 1.32 9.37 2.74 14.04 4.14 3.9 1.18 7.82 2.27 11.82 3.05 2.32.46 4.53.43 6.71-.49 2.1-.88 4.19-1.8 6.28-2.71.28-.12.56-.22.93-.36.03.33.06.57.05.8-.18 8.17-.3 16.34-.53 24.51-.24 8.35-.58 16.68-.85 25.02-.15 4.59-.25 9.18-.38 13.77-.02.8-.07 1.61-.09 2.41-.01.75-.48 1.27-1.04 1.62-1.66 1.05-3.34 2.07-5.05 3.04-.85.49-1.79.59-2.75.36-2.42-.58-4.85-1.13-7.26-1.74-3.23-.82-6.44-1.7-9.66-2.55-.3-.08-.6-.18-1-.3-.34-2.11-.74-4.21-.99-6.33-.47-4-.9-8.01-1.25-12.02-.32-3.59-.51-7.2-.75-10.8-.26-4.09-.42-8.19-1.18-12.23-1.22-6.46-4.74-11.2-10.6-14.21-1.12-.57-2.25-1.15-3.38-1.72-1.14-.57-2.29-1.06-3.75-.85Zm41.31 60.65c.64-.19.55-.64.57-.99.05-1.01.07-2.03.07-3.05v-53.22c0-.14.01-.28 0-.42-.05-.57-.39-.95-.82-.89-.5.07-.69.42-.7.9v.32c.01 2.42.02 4.84.04 7.26.14 16.09.29 32.18.44 48.27 0 .38 0 .78.05 1.15.04.24.22.46.32.68h.02Zm9.11-3.34c-.09-.48-.2-.8-.19-1.12.16-7.08.33-14.16.53-21.25.14-4.91.32-9.82.45-14.72.23-8.38.43-16.76.64-25.14.03-1.08 0-2.17 0-3.3 3.53-1.39 6.98-2.75 10.58-4.17 0 .82.03 1.51 0 2.19-.27 6.06-.56 12.12-.83 18.17-.21 4.73-.45 9.46-.6 14.18-.13 4.1-.13 8.2-.26 12.3-.07 2.21-.3 4.41-.43 6.61-.15 2.42-.26 4.83-.4 7.24-.06 1.09-.18 2.17-.21 3.25-.01.6-.24.93-.78 1.21-2.31 1.19-4.59 2.44-6.88 3.66-.49.26-.97.51-1.62.86v.02Z" class="cls-2_mobile"/>
    <path d="M57.48 171.81c-1.71-.36-3.4-.72-5.12-1.08.24-.88.51-1.7.68-2.55.72-3.61-.6-6.47-3.38-8.72-1.41-1.15-3.11-1.2-4.82-.89-.62.12-1.2.34-1.9.54-.16-1.1-.32-2.16-.47-3.23-.84-6.33-1.65-12.65-2.51-18.97-.82-6.01-1.69-12.01-2.53-18.01-.12-.8-.2-1.6-.31-2.4-.08-.62 0-.76.62-.8 1.04-.07 2.02.22 2.97.59 1.62.63 3.09 1.5 4.49 2.51.71.51 1.39 1.08 2.08 1.61 3.1 2.33 4.74 5.56 5.7 9.21.7 2.65 1.06 5.37 1.26 8.09.33 4.44.54 8.89.89 13.33.32 3.95.73 7.88 1.17 11.82.32 2.95.76 5.89 1.16 8.95ZM34.15 95.85c-.22-1.31-.42-2.54-.64-3.9 1.58.26 2.98.51 4.4.73 6.48.97 12.63 3.21 18.95 4.77 5 1.23 10.03 2.35 15.05 3.5.95.22 1.93.33 2.9.46.27.03.58.03.83-.05 1.27-.39 2.56-.73 3.79-1.24 7.2-3.04 14.37-6.14 21.58-9.17 3.62-1.52 7.3-2.89 10.94-4.37.79-.32 1.52-.82 2.33-1.27.01.2.07.43.04.64-.35 1.94-.82 3.83-1.65 5.63-.41.89-.98 1.57-1.95 1.94-2.58.99-5.14 2.05-7.72 3.07-5.7 2.26-11.42 4.5-17.11 6.78-1.92.77-3.76 1.72-5.66 2.53-1.25.53-2.52 1.06-3.83 1.42-.71.2-1.55.2-2.27.02-8.61-2.14-17.07-4.79-25.57-7.27-4-1.17-8.01-2.31-12.02-3.47-.77-.22-1.53-.49-2.38-.76h-.01Zm40.88 9.73c.51-.78.51-1.01-.03-1.49-.45.67-.45.76.03 1.49Zm26.72-6.26c1.98-.72 3.94-1.44 6.04-2.2 0 .66.04 1.2 0 1.74-.47 4.91-.93 9.84-1.44 14.75-.5 4.87-1.04 9.76-1.6 14.62-.49 4.25-1.02 8.49-1.55 12.73-.43 3.48-.91 6.95-1.32 10.42-.31 2.57-.51 5.16-.77 7.74-.09.98-.21 1.95-.3 2.93-.1 1.19-.63 2.13-1.62 2.82-.34.24-.66.51-1.1.85-.06-.36-.14-.59-.12-.8.24-3.32.49-6.64.72-9.96.18-2.44.36-4.89.49-7.35.29-5.6.54-11.2.81-16.8.18-3.57.34-7.14.53-10.71.37-6.83.76-13.64 1.14-20.46 0-.07.03-.14.08-.32Zm-53.74 67.9c-.04.15-.09.54-.27.86-.62 1.15-1.87 1.33-2.78.41-.61-.61-.99-1.35-1.14-2.2-.24-1.47.92-2.44 2.33-1.96 1.12.38 1.87 1.45 1.86 2.88Z" class="cls-2_mobile"/>
    <path d="M78.08 174.57c-.11-.22-.28-.43-.32-.68-.07-.38-.05-.77-.05-1.15-.15-16.09-.3-32.18-.44-48.27-.02-2.42-.03-4.84-.04-7.26v-.32c.01-.47.2-.82.7-.9.43-.06.77.32.82.89.01.14 0 .28 0 .42v53.22c0 1.02-.03 2.03-.07 3.05-.02.35.06.8-.57.99h-.02Z" class="cls-11"/>
    <path d="M78.28 84.19c-2.31-.56-4.62-1.15-6.94-1.66-2.33-.51-4.66-.97-7.01-1.37-1.55-.26-3.13-.38-4.7-.55-1.88-.2-3.77-.4-5.65-.58-1.85-.18-3.7-.34-5.55-.5-.77-.07-1.54-.12-2.3-.22-.17-.02-.4-.2-.44-.34-.05-.16.06-.4.17-.55.09-.13.28-.22.44-.27 2.4-.79 4.77-1.66 7.2-2.3 1.01-.26 2.17-.06 3.25 0 1.89.11 3.78.28 5.67.4 2.98.19 5.94.45 8.89.94 2.14.36 4.31.55 6.45.9 2.25.36 4.48.8 6.72 1.2.24.04.47.05.72 0-9.07-2.04-18.23-3.5-27.49-3.92-.22-.61.11-.75.47-.84 1.35-.35 2.71-.68 4.07-1.03 2.84-.72 5.71-.48 8.58-.27 3.67.27 7.36.55 11.02.9 2.48.24 4.95.59 7.42.91 5.26.7 10.35 2.2 15.52 3.32 2.6.56 5.23.97 7.86 1.44.72.13 1 .26 1.04.95.08 1.29.05 2.59 0 3.88-.01.28-.34.59-.6.8-.27.21-.62.31-.95.44-2.57 1.01-5.16 2.01-7.72 3.04-3.94 1.57-7.87 3.17-11.81 4.75-.23.09-.47.15-.68.26-3.67 1.92-7.62 3.21-11.41 4.85-.64.28-1.3.55-1.9.9-2.15 1.26-4.45 1.46-6.81.86-5.91-1.5-11.82-2.96-17.68-4.63-5.75-1.64-11.52-3.25-17.43-4.29-1.69-.3-3.39-.49-5.1-.68-.89-.1-1.52-.49-1.82-1.34-.3-.82-.62-1.63-.88-2.46-.2-.61.1-1.09.56-1.47 1.25-1.03 2.63-1.88 4.14-2.46 2.42-.94 4.87-1.8 7.3-2.69 1.35-.49 2.72-.63 4.15-.38.55.09 1.12.05 1.69.08 2.8.18 5.6.36 8.4.57 1.79.14 3.57.3 5.35.48 4.68.47 9.28 1.4 13.87 2.42 1.29.28 2.6.5 3.9.75 0-.07.02-.15.03-.22l-.02-.02Zm21.12-1.26c.26.27.58.32.95.1-.32-.03-.64-.05-.97-.08-.33-.4-.78-.38-1.26-.27.43.08.85.17 1.28.25Zm8.01-.24c-1.79.61-3.59 1.19-5.36 1.83-3.99 1.44-7.94 2.94-11.94 4.34-3.11 1.09-6.24 2.08-9.25 3.43-1.47.66-3.02 1.11-4.55 1.65-.71.25-1.43.3-2.18.14-.68-.16-1.37-.33-2.06-.44-2.43-.38-4.82-.94-7.19-1.59-6.94-1.9-13.92-3.64-21.01-4.87-2.49-.43-4.99-.77-7.5-1.12-.8-.11-1.61-.15-2.42-.16-.35 0-.69.13-1.04.2 0 .08.01.16.01.24.37.05.74.11 1.11.14.56.05 1.13.01 1.68.11 2.83.51 5.66 1.04 8.49 1.59 2.48.48 4.97.92 7.42 1.51 2.21.53 4.36 1.32 6.56 1.86 4.32 1.07 8.66 2.06 13 3.04 2.77.62 5.52.52 8.18-.53 1.17-.46 2.3-1.04 3.47-1.51 2.08-.82 4.2-1.59 6.28-2.41 2.12-.83 4.23-1.69 6.34-2.55 1.72-.7 3.42-1.42 5.16-2.1 1.92-.75 3.87-1.44 5.8-2.18.35-.14.64-.43.97-.64.92.03 1.67-.38 2.44-.76-.03-.09-.07-.18-.1-.26-.77.34-1.55.7-2.32 1.04Zm-11.3-.84c-.01.05-.03.11-.04.16.34.09.68.19 1.01.29l.05-.17c-.34-.09-.68-.18-1.02-.28Z" class="cls-10_mobile"/>
  </g>
</svg>
