<svg xmlns="http://www.w3.org/2000/svg" id="hero-tablette_compteur-dechets" viewBox="0 0 768 280">
  <defs>
    <clipPath id="clippath">
      <path fill="none" d="M0 1.82h768V280H0z"/>
    </clipPath>
    <style>
      .cls-1_tablet{opacity:.15}.cls-1_tablet,.cls-2_tablet{fill:#fff}.cls-1_tablet,.cls-4_tablet,.cls-6_tablet{fill-rule:evenodd}.cls-4_tablet{opacity:.5;fill:#efeee9}.cls-10_tablet{fill:#fac01a}.cls-11_tablet{fill:#030f40}.cls-6_tablet{fill:#adb5bd;opacity:.2}.cls-12_tablet{fill:#abafc2}.cls-15_tablet{fill:#3b4670}
    </style>
    <mask id="mask" width="1444.14" height="656.64" x="-396.56" y="-178.55" maskUnits="userSpaceOnUse">
      <path id="mask0_9576_52679" fill="#fff" fill-rule="evenodd" d="M755.7-25.19c-18.91 0-34.24 15.33-34.24 34.24s15.33 34.24 34.24 34.24h93.92c65.47 0 118.54 53.07 118.54 118.54s-53.07 118.54-118.54 118.54H-368.3c-15.61 0-28.26-12.65-28.26-28.26s12.65-28.26 28.26-28.26H849.62c34.25 0 62.02-27.77 62.02-62.02s-27.77-62.02-62.02-62.02H755.7c-50.12 0-90.76-40.63-90.76-90.76s40.63-90.76 90.76-90.76h263.63c15.61 0 28.26 12.65 28.26 28.26s-12.65 28.26-28.26 28.26H755.7Z" data-name="mask0 9576 52679"/>
    </mask>
  </defs>
  <g clip-path="url(#clippath)">
    <path d="M139.43 261.2c-8.16-22.85 3.84-48.54 5.36-73.43 1.48-24.21-5.41-47.96 3.47-71.35 9.85-25.93 23.66-54.55 49.39-67.86 25.69-13.29 55.26-3.55 82.88-.58 23.74 2.55 45.95 7.82 67.35 16.71 22.68 9.43 46.21 18.39 61.28 36.75 16.11 19.62 26.08 44.13 26.43 70.08.36 26.5-8.64 53.6-24.44 76.91-15.49 22.86-37.88 41.8-63.67 53.1-24.3 10.64-50.47 5.72-76.37 8.23-27.21 2.64-55.74 16.01-80.25 6.97-24.95-9.2-42.81-31.38-51.43-55.53Zm560.44 83.56c-21.25 13.35-49.65 9.59-75.57 5.3-23.25-3.85-43.76-17.3-65.31-28.64-22.13-11.65-46.67-19.34-63.14-38.99-17.34-20.69-29.47-46.95-30.86-73.17-1.36-25.81 10.42-48.86 23.32-69.53 11.85-19 28.35-33.77 47.71-44.31 18.45-10.05 40.01-10.35 60.8-14.8 25.66-5.48 50.92-26.41 76.13-14.46 24.88 11.79 28.54 47.38 43.8 71.3 15 23.5 41.5 41.5 45.44 68.53 3.95 27.14-14.21 49.39-24.83 73.04-10.6 23.6-16.19 52.34-37.5 65.73Z" class="cls-4_tablet"/>
    <path d="M114.48 77.39c23.6-2.11 48.75 3.07 67.74 18.72 18.43 15.19 21.58 43.48 33.83 65.01 12.85 22.58 39.14 38.28 40.14 64.95 1 26.59-21.85 45.98-35.13 68.16-12.47 20.83-22.88 42.93-40.63 58.36-19.43 16.89-41.25 33.82-65.95 34.24-24.78.42-46.27-17.16-67.13-31.97-20.1-14.28-38.85-30.52-51.98-52.62-13.61-22.91-23.99-48.75-24.53-76.17-.55-27.68 6.28-56.14 21.49-78.11 14.55-21.02 39.24-28.01 60.45-40.26 20.29-11.72 38.89-28.27 61.7-30.31Z" class="cls-4_tablet"/>
    <path fill="#efeee9" fill-rule="evenodd" d="M539.97 2.57c51.56-4.62 106.5 6.7 148 40.92 40.26 33.2 47.14 95.03 73.9 142.07 28.08 49.34 85.5 83.66 87.7 141.94 2.19 58.11-47.73 100.48-76.75 148.95-27.25 45.51-49.99 93.83-88.77 127.53-42.46 36.9-90.12 73.91-144.08 74.83-54.13.92-101.09-37.49-146.66-69.87-43.92-31.2-84.88-66.71-113.56-114.99-29.73-50.06-52.42-106.54-53.6-166.45-1.19-60.5 13.72-122.68 46.95-170.71 31.8-45.95 85.73-61.2 132.07-87.98 44.34-25.62 84.96-61.78 134.8-66.24Z"/>
    <path id="secondary-color" fill="#ffc229" fill-rule="evenodd" d="M885.7-25.19c-18.91 0-34.24 15.33-34.24 34.24s15.33 34.24 34.24 34.24h93.92c65.47 0 118.54 53.07 118.54 118.54s-53.07 118.54-118.54 118.54H-238.3c-15.61 0-28.26-12.65-28.26-28.26s12.65-28.26 28.26-28.26H979.62c34.25 0 62.02-27.77 62.02-62.02s-27.77-62.02-62.02-62.02H885.7c-50.12 0-90.76-40.63-90.76-90.76s40.63-90.76 90.76-90.76h263.63c15.61 0 28.26 12.65 28.26 28.26s-12.65 28.26-28.26 28.26H885.7Z"/>
    <g mask="url(#mask)">
      <path d="M384.46 395.79c-8.16-22.85 3.84-48.54 5.36-73.43 1.48-24.21-5.41-47.96 3.47-71.35 9.85-25.93 23.66-54.55 49.39-67.86 25.69-13.29 55.26-3.55 82.88-.58 23.74 2.55 45.95 7.82 67.35 16.71 22.68 9.43 46.21 18.39 61.28 36.75 16.11 19.62 26.08 44.13 26.43 70.08.36 26.5-8.64 53.6-24.44 76.91-15.49 22.86-37.88 41.81-63.67 53.1-24.29 10.64-50.47 5.72-76.37 8.23-27.21 2.64-55.74 16.01-80.25 6.97-24.95-9.2-42.8-31.38-51.44-55.53Z" class="cls-6_tablet"/>
      <path d="M878.03 242.75c4.06 28.42-15.92 55.37-23.57 83.87-7.43 27.71-5.06 56.88-20.89 81.9-17.55 27.74-40.32 57.65-73.3 67-32.93 9.34-64.9-8.95-96.23-18.92-26.92-8.57-51.43-19.93-74.13-35.3-24.06-16.29-49.22-32.24-62.36-57.09-14.04-26.55-19.8-57.33-14.08-87.49 5.85-30.81 22.68-60.09 46.51-83.39 23.36-22.84 53.8-39.51 86.36-46.51 30.68-6.59 59.86 5.3 90.48 8.51 32.17 3.37 68.41-5.38 94.68 10.89 26.75 16.56 42.21 46.5 46.5 76.54Zm-980.66 66.15c-6.79-19 3.19-40.35 4.45-61.05 1.23-20.12-4.5-39.87 2.88-59.31 8.19-21.56 19.67-45.35 41.06-56.42 21.36-11.05 45.94-2.95 68.9-.48 19.73 2.12 38.2 6.5 55.99 13.89 18.85 7.84 38.41 15.29 50.94 30.55 13.39 16.31 21.68 36.69 21.97 58.26.3 22.03-7.18 44.56-20.32 63.94-12.88 19-31.49 34.75-52.93 44.14-20.2 8.85-41.95 4.75-63.49 6.84-22.62 2.2-46.34 13.31-66.71 5.8-20.74-7.65-35.59-26.09-42.76-46.17Z" class="cls-6_tablet"/>
      <path d="M295.01 170.88c11.55 19.91 7.17 45.81 2.39 69.42-4.29 21.18-17.3 39.54-28.41 58.92-11.41 19.9-19.26 42.15-37.82 56.6-19.54 15.22-44.02 25.49-68.12 25.91-23.71.42-44.47-11.13-63.01-23.61C83 346.65 70 331.05 60.96 312.97c-8.61-17.23-8.19-37-11.58-56.2-4.19-23.69-22.56-47.51-10.77-70.23 11.63-22.42 44.38-24.62 66.82-37.84 22.05-12.99 39.42-36.69 64.34-39.42 25.02-2.74 44.83 14.61 66.18 25.11 21.3 10.48 47.48 16.53 59.06 36.49Zm290.66 75.03c-15.42 17.09-41.41 20.86-65.35 23.53-21.48 2.4-42.94-4.36-64.79-9-22.44-4.77-46.02-5.43-65.46-18.68-20.47-13.95-37.74-34.1-45.52-56.92-7.66-22.45-3.02-45.74 3.19-67.21 5.71-19.73 16.58-36.89 31.02-51.03 13.76-13.47 32.72-19.12 49.95-28.23 21.27-11.24 38.32-36.02 63.56-31.76 24.91 4.21 37.03 34.72 56.48 52.03 19.11 17.01 47 26.29 57.23 49.18 10.27 22.98-.18 47.15-3.65 70.69-3.45 23.49-1.2 50.26-16.66 67.4Z" class="cls-1_tablet"/>
      <path d="M499.2 18.79c-7.34-20.55 3.45-43.65 4.82-66.04 1.33-21.77-4.87-43.13 3.12-64.16 8.86-23.32 21.28-49.05 44.42-61.02 23.1-11.95 49.69-3.19 74.53-.52 21.34 2.29 41.32 7.03 60.56 15.03 20.39 8.48 41.55 16.54 55.11 33.05 14.48 17.64 23.45 39.69 23.77 63.02.32 23.83-7.77 48.19-21.98 69.16-13.93 20.55-34.07 37.59-57.25 47.75-21.85 9.57-45.38 5.14-68.67 7.4-24.47 2.38-50.13 14.4-72.16 6.27-22.44-8.27-38.49-28.22-46.25-49.94Z" class="cls-1_tablet"/>
    </g>
    <path d="M448.65 248.56c.55 1.54 1.27 2.76 2.3 3.84 2.08 2.18 4.27 4.22 6.87 5.79 1.59.96 3.24 1.82 4.87 2.72.45.25.93.45 1.4.65 2.28.96 3.44 2.69 3.67 5.08.05.5.15 1 .2 1.49.08.87-.54 1.33-1.22 1.88.29.12.54.2.76.32.38.2.81.38 1.13.65 1.07.92.91 2.1-.34 2.77-1.01.54-2.13.66-3.25.68-5.48.08-10.52-1.4-15.18-4.22-.24-.14-.52-.29-.65-.5-.65-1.08-1.81-1.32-2.86-1.73-.55-.22-1.12-.44-1.7-.53-.9-.14-1.39-.66-1.75-1.41-1.33-2.76-2.42-5.6-3.22-8.56-.61-2.26-1.4-4.48-2.1-6.72-.13-.41-.32-.67-.77-.78-.46-.11-.9-.32-1.33-.51-1.2-.55-2.03-1.36-2.42-2.69-1.79-6.08-3.66-12.15-5.52-18.21-1.98-6.43-3.97-12.87-6.01-19.29-.51-1.6-1.12-3.18-1.8-4.72-.67-1.54-1.42-3.06-2.22-4.54-1.69-3.1-3.37-6.21-5.18-9.25-1.59-2.67-3.39-5.21-5.01-7.86-4.53-7.41-9.19-14.75-12.9-22.61-1.11-2.34-2.12-4.73-2.4-7.34-.25-2.38-.32-4.75.33-7.11.22-.81.57-1.7-.18-2.53-.21-.23-.03-.8-.03-1.3-.43.15-.85.34-1.3.44-.36.08-.75.05-1.13.06-.2 0-.44-.11-.58-.04-.98.55-1.89.1-2.72-.26-3.91-1.73-6.75-4.51-7.53-8.76-.44-2.4-.45-4.91-.44-7.36 0-3.14.72-6.2 1.5-9.25.85-3.34 1.49-6.73 2.44-10.04 1.56-5.43 3.39-10.77 6.11-15.76.84-1.54 1.95-2.95 3.01-4.36.84-1.11 1.91-2 3.13-2.7 1.72-.99 3.26-2.28 5.17-2.9 1.2-.4 2.43-.74 3.65-1.09 1.79-.52 3.6-1.01 5.38-1.54.31-.09.65-.32.82-.6 1.38-2.19 2.3-4.54 2.69-7.17-2.08-.92-2.88-2.61-2.63-4.75.24-2.02.96-3.82 3.1-4.59 2.39-5.89 6.13-7.92 11.17-8.42 5.01-.5 8.68 1.64 11.67 5.33 1.08 1.33 1.57 2.88 1.72 4.54.03.35.06.7.11 1.05.32 2.29.2 4.5-.83 6.65-.79 1.66-1.3 3.44-2.03 5.14-1.62 3.77-4.36 6.29-8.48 7.23-.27.06-.53.15-.98.29.54.24.92.41 1.31.58 1.46.63 2.92 1.25 4.38 1.87 2.35.99 3.96 2.72 5.06 4.94 1.25 2.52 1.96 5.21 2.39 7.96.52 3.3.5 6.63.32 9.96-.04.7-.07 1.4-.1 2.14.23.13.43.23.62.35.9.58 1 .87.57 1.85-.73 1.65-1.47 3.29-2.19 4.94-.13.31-.2.68-.18 1.01.13 1.79.26 3.59.46 5.37.54 4.75.49 9.53.57 14.31.08 4.82.07 9.62.08 14.44 0 .73.15 1.36.74 1.88 1.26 1.12 2.03 2.58 2.92 3.98.65 1.02 1.5 1.91 2.27 2.86.3.37.65.69.92 1.08.39.58.15 1.09-.54 1.18-.39.05-.79 0-1.16 0-.06.09-.15.16-.13.2.71 2.68.09 5.37.03 8.06 0 .27-.09.54-.18.8-.34 1-1.43 1.22-2.35.67-1.47-.89-2.25-2.25-3.04-3.65-.36-.64-.74-1.27-1.22-2.1-.11.72-.12 1.21-.26 1.67-.19.65-.71.75-1.14.24-.22-.26-.38-.6-.5-.92-1.18-3.08-2.09-6.23-2.65-9.48-.28-1.7-.26-3.46-.7-5.11-.65-2.45-1.63-4.82-2.4-7.23-1.27-3.99-2.48-8-3.72-11.99-.09-.29-.18-.58-.33-1.04-.29 1.49-.54 2.78-.35 4.11.25 1.79-.23 3.5-.81 5.17-.38 1.11-1.23 1.87-2.33 2.2-.96.29-1.37.84-1.45 1.75-.06.66-.2 1.31-.24 1.97-.24 4.14-.45 8.28-.68 12.42 0 .06-.08.11-.2.29-1.29-2.06-1.96-4.39-3.45-6.29.08.2.14.41.23.62 1.82 4.26 3.73 8.48 5.43 12.77 2.93 7.36 6.39 14.5 9.57 21.75 2.34 5.32 4.44 10.71 5.71 16.39 1 4.48 2.57 8.79 4.1 13.1 1.86 5.24 3.74 10.47 5.46 15.77.94 2.86 1.55 5.82 2.32 8.73.22.83.46 1.66.79 2.46.25.61.19 1.04-.44 1.37h-.02Zm-13.1-178.12c.71-.96.72-2.11.91-3.23.26-1.52-.09-2.86-.94-4.11-.93-1.39-1.34-1.4-2.2 0-.86 1.41-2.65 1.51-3.68.2-.24-.31-.44-.65-.64-.99-1.65-2.83-5.86-3.03-8.01-.68-1.18 1.29-2.14 2.71-2.58 4.43-.19.75-.53 1.48-.88 2.17-.23.44-.55.87-.93 1.21-.84.76-1.8.53-2.14-.54-.18-.58-.24-1.24-.18-1.85.08-.93.28-1.85.51-2.77.18-.74-.18-1.21-.71-1.61-.47-.36-1.08-.31-1.64.16-.32.27-.61.63-.81.99-1.17 2.13-.84 4.35.98 6.1.52.5.69 1.01.69 1.65 0 .35-.03.7-.07 1.05-.34 2.8-1.63 5.21-3.24 7.48-.34.48-.67.96-1.04 1.42-.39.47-.38.88.03 1.35.54.63 1.01 1.3 1.54 1.94 1.38 1.67 3.16 2.74 5.3 3.14 1.13.21 2.28.23 3.42.39 1.23.17 1.97-.23 2.42-1.37.22-.58.26-1.04-.31-1.55-1.11-1-2.08-2.13-2.71-3.53-.26-.58-.82-1.02-1.25-1.53-.29-.35-.59-.69-.9-1.04.69-.42.71-.44 1.12-.19.54.34 1.03.74 1.56 1.08 1.82 1.17 3.81 1.86 5.98 1.54 3.64-.54 6.25-2.67 7.99-5.75 1-1.76 1.63-3.72 2.42-5.6l-.02.02ZM408.27 80c-.41.1-.56.14-.71.17-2.1.6-4.2 1.23-6.31 1.77-3.55.91-6.41 2.82-8.81 5.52-3.11 3.52-5.09 7.67-6.67 11.97-1.11 3-1.72 6.17-2.53 9.28-.82 3.14-1.5 6.32-2.45 9.42-1.37 4.5-1.73 9.04-1.14 13.69.35 2.68 1.64 4.88 3.45 6.82 1.39 1.5 3.19 2.31 5.22 2.6.45.06 1.05.09 1.37-.14 1.04-.77 2.12-1.56 2.95-2.53 1.72-2.03 2.9-4.39 3.87-6.85.49-1.25.74-2.53.45-3.93-.72-.05-1.42-.11-2.07-.15-.35.97-.76 1.51-1.21 1.61-.17-.68-.02-3.16.28-4.01 1.18-3.32 2.36-6.64 3.57-9.94.97-2.61 1.99-5.19 2.99-7.78.05-.14.13-.29.19-.43.15-.36.4-.65.81-.5.5.18.41.6.25.99-.17.39-.38.78-.56 1.17-.5 1.09-.99 2.19-1.48 3.28.62-.44 1.01-1.01 1.48-1.52.44-.48.72-1.18 1.67-1.28-.08.3-.08.5-.18.64-1.34 1.94-2.69 3.87-4.04 5.8-.18.26-.41.49-.51.78-.74 2.15-1.45 4.3-2.17 6.45-.22.66-.47 1.33-.71 1.98-.19.51-.39 1.02-.14 1.56.65.16 1.38.15 1.86.49.83.6 1.7.55 2.6.53.67-.02 1.36 0 2.03.02 1.51.05 3.02.13 4.53.16 1.23.02 2.47-.09 3.7 0 2.29.16 4.32-.37 6.07-1.88a53.71 53.71 0 0 1 7.06-5.2c.38-.23.71-.62.91-1.01.97-1.88 1.95-3.77 2.81-5.7.38-.84.91-1.44 1.64-1.94.37-.26.58-.56.72-1.01.25-.86.64-1.68 1.02-2.49.08-.17.32-.26.49-.38.1.19.28.38.28.57-.01.38-.12.77-.22 1.15-.14.54-.29 1.08-.45 1.64 2.39-.19 4.63-.36 6.91-.54.04-.36.08-.63.08-.9-.02-3.09.03-6.18-.09-9.27-.12-2.91-.91-5.71-1.95-8.43-.99-2.6-2.67-4.57-5.36-5.67-2.16-.89-4.26-1.94-6.39-2.91-.13-.06-.29-.05-.53-.1-.14.99-.25 1.91-.4 2.83-.23 1.47-.98 2.75-3.06 2.83-1.57.07-3.12-.12-4.6-.57-3.66-1.09-6.72-2.88-7.54-6.99.29-.47.58-.93 1.02-1.64v-.02Zm-14.97 59.83c.19.03.28.07.35.05.19-.05.38-.11.57-.17 7.16-2.25 14.28-4.63 21.62-6.23 1.12-.24 2.27-.38 3.41-.5 1.38-.15 2.77-.29 4.16-.34 1.96-.08 3.35-1.25 5.07-2.3-1.11-.11-1.8.75-2.92.52 1.63-.98 3.16-1.67 4.43-2.77-1.47.33-2.72 1.26-4.27 1.36.41-.32.87-.55 1.31-.79 1.5-.81 3.01-1.6 4.48-2.45.51-.3.94-.75 1.41-1.13-.05-.08-.11-.16-.15-.24-.65.26-1.3.52-1.96.77-.59.23-1.18.57-1.79.62-1.89.17-3.81.23-5.71.29-.42.02-.87-.13-1.27-.27-.75-.26-1.01-.67-.84-1.45.15-.69.42-1.34.65-2 .08-.22.18-.43.38-.86-.62.4-1.04.63-1.4.92-1.75 1.42-3.5 2.83-5.2 4.3-1.11.95-2.39 1.41-3.8 1.51-1.66.11-3.34.2-5 .17-1.87-.04-3.74-.23-5.6-.32-.97-.05-1.95 0-2.85 0 .1 4.55-2.23 8-5.05 11.34Zm46.23 113.5c.72 2.5 1.37 4.91 2.13 7.27.12.36.64.73 1.04.84 2.06.57 3.83 1.65 5.61 2.77 3.67 2.31 7.79 3.08 12.1 2.85 1.1-.06 2.2-.32 3.26-.62 1.07-.29 1.9-.96 2.29-2.1-.72-1.17-1.95-1.64-3.14-2.17-5.02-2.18-9.49-5.09-12.94-9.37-.53-.66-1.17-1.24-1.76-1.85-2.47 2.25-5.4 2.52-8.59 2.36Zm-2.02-89.15.23-.12c.12.08.28.14.35.26.8 1.26 1.72 2.5 1.87 4.01.16 1.58.8 2.98 1.4 4.41-.38-3.18.05-6.47-1.57-9.58.7.08.9.47 1.1.82.55.99.65 2.06.74 3.16.15 1.82.45 3.62.67 5.44h.26c.14-2.4.73-4.76.41-7.17-.15-1.16-.5-2.28-1.73-2.86a.522.522 0 0 1-.19-.14c-.69-.7-1.53-1.06-2.52-1.22-.58-.1-1.14-.35-1.67-.61-.41-.2-.81-.49-.8-1.14.76.32 1.41.72 2.12.88 1.65.38 3.19.93 4.5 2.03.27.23.6.48.96.29-.84-1.34-1.68-2.62-2.46-3.93-.76-1.25-1.57-2.47-2.7-3.41-.65-.54-.84-1.21-.91-1.95-.05-.47-.04-.93-.04-1.41-.02-2.93-.02-5.87-.03-8.8 0-.42-.05-.84-.07-1.35-3.1-.23-5.72.89-8.35 2.15.08.41.12.72.22 1.01.58 1.79 1.13 3.58 1.78 5.34.81 2.22 1.51 4.45 1.66 6.82.23 3.7 1.38 7.2 2.42 10.72.06.21.22.4.35.59.08-.03.15-.06.23-.08-.27-1.3-.54-2.61-.81-3.92 1.07 1.12 1.93 2.37 2.75 3.65.8 1.26 1.33 2.68 2.42 3.77-.31-1.34-.67-2.65-1.11-3.93-.44-1.26-.97-2.49-1.47-3.73l-.02-.02Zm-14.14-29.15c-.38.11-.76.14-1.06.31-1.4.76-2.93.93-4.49 1.03-1.03.07-2.06.17-3.08.38-4.01.8-8.02 1.62-12.03 2.49-2.79.6-5.59 1.24-8.27 2.26-.45.17-.82.31-.73.99.46.15.97.37 1.5.47 2.5.45 4.99.96 7.51 1.27 2.92.37 5.85.61 8.79.83 3.57.27 6.91-.82 10.25-1.88.46-.14.77-.43.88-.87.25-.94.61-1.88.68-2.83.12-1.44.03-2.89.03-4.45Zm10.68-11.49c.54.47.52.97.13 1.46s-.8.97-1.23 1.43c-.77.83-1.67 1.58-2.34 2.49-1.33 1.78-2.66 3.51-4.82 4.42.71 3.15 1.81 6.09 2.81 9.16 2.76-1.64 5.59-2.57 8.74-2.63-.23-6.87-.18-13.62-.82-20.62-.9 1.55-1.66 2.86-2.48 4.28Zm8.25 139.2c.59 1.23 1.03 2.23 1.55 3.19.15.26.48.5.78.6 1.41.5 2.85.95 4.26 1.45 1.46.52 2.9 1.06 4.34 1.63 2.65 1.04 5.42 1.16 8.21.95 2.03-.15 3.7-1.13 5.19-2.41.21-.17.38-.53.36-.79-.03-.48-.21-.96-.3-1.37-.83.51-1.53 1.15-2.36 1.42-1.19.39-2.46.63-3.72.73-3.14.27-6.17-.35-9.15-1.27-2.07-.64-3.91-1.73-5.76-2.79-.99-.56-2-1.08-3.41-1.36v.02Zm-3.26-10.57c2.46.24 4.67 0 6.77-1 .81-.39 1.47-.99 1.7-2.09-.42.11-.71.2-1.01.26-.81.17-1.62.4-2.44.49-1.76.2-3.53.32-5.41.5.13.64.24 1.19.38 1.85Zm-9.77-139.02c-1.12.53-2.26 2.13-2.48 3.46.82-1.15 1.64-2.28 2.48-3.46Z" class="cls-11_tablet"/>
    <path d="M397.9 168.66c.3.38.48.57.61.79 1.46 2.38 2.9 4.77 4.36 7.14 2.27 3.68 4.56 7.34 6.82 11.03 1.25 2.05 2.42 4.14 3.63 6.2.26.44.35.89.32 1.44-.16 2.98-1.02 5.75-2.33 8.42-2.61 5.32-5.22 10.64-7.75 15.99-1.66 3.51-3.21 7.07-4.76 10.63-1.19 2.74-2.28 5.5-3.42 8.25-.36.86-1.02 1.25-1.98 1.18-.12 0-.23.02-.43.04-.08 1.08.08 2.04.98 2.82 1.92 1.66 3.96 3.14 6.34 4.14.73.31 1.42.72 2.07 1.16 2 1.35 3.98 2.73 5.95 4.12 1.51 1.06 2.01 2.68 2.2 4.36.18 1.55-.57 2.67-2.06 3.21-1.07.38-2.22.66-3.35.75-3.09.26-6.14-.12-9.04-1.19-2.92-1.07-5.86-2-8.88-2.71-1.54-.36-2.6-1.17-3.17-2.7a22.4 22.4 0 0 1-1.4-7.58c-.04-2.82 0-5.63 0-8.59-.56-.25-1.24-.55-2.06-.91.12-.41.22-.81.35-1.21 2.75-7.81 6.11-15.36 9.6-22.86 2.21-4.76 4.31-9.58 6.44-14.38.18-.42.28-.9.32-1.36.22-2.53.44-5.06.61-7.6.07-1.05.02-2.11.02-3.17-.02-2.82-.04-5.64-.05-8.45v-7.98c0-.26.03-.51.06-1Zm-14.29 73.74c-.05 2.46-.23 4.81.31 7.17.3 1.31.96 2.02 2.38 2.18 2.58.29 5.06 1 7.36 2.24.32.17.65.3.97.44 2.52 1.04 5.12 1.75 7.86 1.7 1.54-.03 3.09-.26 4.63-.44.31-.04.61-.18.89-.32 1.13-.58 1.26-1.23.35-2.1-.51-.48-1.11-.89-1.7-1.28-2.63-1.76-5.28-3.48-8.11-4.94-2.29-1.18-4.34-2.73-6.16-4.53-2.94 1.25-5.79 1-8.81-.11h.02Zm1 10.05c.32 2.21 1.12 2.86 3.07 3.18 2.88.48 5.63 1.33 8.35 2.35 2.59.97 5.29 1.42 8.05 1.39 1.27 0 2.54-.13 3.74-.6 1.47-.58 1.95-1.53 1.58-3.15-.66.26-1.3.58-1.97.75-.92.23-1.87.4-2.82.48-1.22.1-2.46.19-3.68.11-2.89-.2-5.62-1.07-8.2-2.33-2.57-1.25-5.38-1.54-8.12-2.18Zm7.53-11.07c-.09-.69-.17-1.25-.25-1.78-2.77-.56-5.42-1.09-8.15-1.65v3.45c2.77 1 5.5 1.36 8.4-.02Z" class="cls-11_tablet"/>
    <path d="M408.27 80c-.44.7-.73 1.17-1.02 1.64.81 4.11 3.88 5.89 7.54 6.99 1.47.44 3.02.63 4.59.57 2.09-.09 2.83-1.36 3.06-2.83.15-.92.26-1.84.4-2.83.24.04.4.04.53.1 2.13.97 4.22 2.03 6.39 2.91 2.69 1.1 4.37 3.07 5.36 5.67 1.04 2.72 1.83 5.52 1.95 8.43.13 3.08.08 6.18.09 9.27 0 .26-.05.54-.08.9-2.28.18-4.53.35-6.91.54.15-.56.31-1.09.45-1.64.09-.38.2-.76.22-1.15 0-.19-.18-.38-.28-.57-.17.13-.41.22-.49.38-.38.82-.77 1.64-1.02 2.49-.14.45-.35.75-.72 1.01-.72.5-1.27 1.1-1.64 1.94-.86 1.93-1.83 3.81-2.81 5.7-.2.39-.54.78-.91 1.01a52.414 52.414 0 0 0-7.06 5.2c-1.75 1.52-3.77 2.04-6.07 1.88-1.23-.08-2.46.03-3.7 0-1.51-.03-3.02-.11-4.53-.16-.67-.02-1.36-.04-2.03-.02-.91.02-1.77.07-2.6-.53-.48-.34-1.2-.33-1.86-.49-.24-.54-.05-1.05.15-1.56.25-.66.48-1.32.71-1.98.72-2.15 1.43-4.3 2.17-6.45.1-.29.34-.52.51-.78 1.35-1.93 2.71-3.87 4.04-5.8.1-.14.1-.34.18-.64-.94.09-1.23.8-1.67 1.28-.47.51-.86 1.08-1.48 1.52.49-1.09.98-2.19 1.48-3.28.18-.39.38-.78.56-1.17.17-.38.25-.81-.25-.99-.41-.15-.66.14-.81.5-.06.14-.13.29-.19.43-1 2.59-2.02 5.18-2.99 7.78-1.22 3.3-2.39 6.62-3.57 9.94-.3.85-.45 3.33-.28 4.01.45-.1.85-.63 1.21-1.61.65.05 1.35.1 2.07.15.28 1.4.04 2.68-.45 3.93-.96 2.46-2.15 4.82-3.87 6.85-.83.98-1.9 1.76-2.95 2.53-.32.23-.92.2-1.37.14-2.03-.29-3.83-1.11-5.22-2.6-1.8-1.94-3.1-4.15-3.44-6.82-.6-4.64-.24-9.19 1.14-13.69.94-3.1 1.63-6.28 2.45-9.42.81-3.1 1.43-6.28 2.53-9.28 1.59-4.3 3.56-8.45 6.67-11.97 2.39-2.71 5.26-4.62 8.81-5.52 2.12-.54 4.2-1.18 6.31-1.77.15-.04.29-.07.71-.17v.02Z" class="cls-2_tablet"/>
    <path d="M435.56 70.42c-.8 1.87-1.43 3.84-2.42 5.6-1.73 3.07-4.34 5.21-7.98 5.75-2.17.32-4.17-.37-5.98-1.54-.53-.34-1.03-.74-1.56-1.08-.41-.26-.43-.23-1.12.19.31.35.61.69.9 1.04.43.5.99.96 1.25 1.53.64 1.39 1.6 2.52 2.71 3.53.57.51.54.97.31 1.55-.45 1.14-1.19 1.54-2.42 1.37-1.14-.15-2.3-.17-3.42-.39-2.14-.41-3.92-1.48-5.3-3.14-.53-.63-1-1.32-1.54-1.94-.41-.47-.41-.87-.03-1.35.37-.45.71-.94 1.04-1.42 1.61-2.27 2.9-4.67 3.24-7.48.05-.35.07-.7.07-1.05 0-.64-.17-1.15-.69-1.65-1.83-1.76-2.15-3.97-.98-6.1.2-.37.48-.72.8-.99.56-.47 1.18-.51 1.64-.16.52.4.88.87.71 1.61-.22.91-.41 1.83-.51 2.77-.05.61 0 1.27.18 1.85.34 1.07 1.3 1.3 2.14.54.37-.34.7-.76.93-1.21.35-.69.69-1.42.88-2.17.44-1.73 1.4-3.14 2.58-4.43 2.14-2.35 6.36-2.15 8.01.68.2.34.4.68.64.99 1.03 1.32 2.82 1.21 3.68-.2.85-1.39 1.27-1.39 2.2 0 .84 1.27 1.2 2.59.94 4.11-.19 1.12-.21 2.26-.92 3.23-.68-1.09-1.78-1.25-2.94-1.24-.38 0-.8.07-1.14.23-.21.09-.45.41-.43.61.02.19.32.46.54.52.61.15 1.29.12 1.87.33.85.31 1.53.21 2.12-.47Zm-9.14 4.93c.15.73.65.7 1.06.71.46 0 .92-.08 1.38-.14.06 0 .12-.1.17-.16.52-.67.41-2.27-.23-3.03-.44.35-.28.85-.35 1.29-.15.86-.21.93-1.08 1.08-.32.05-.63.17-.94.26Zm-1.62-6.5s.02-.06.02-.09c.28 0 .57.05.83-.02.24-.06.43-.25.64-.38-.14-.21-.25-.58-.42-.6-.88-.14-1.79-.22-2.69-.26-.16 0-.44.26-.46.42-.02.17.19.47.36.52.55.18 1.14.28 1.71.41Zm-4.43 6.21c.44 1.22 1.04 2.03 1.91 2.64.12.08.28.15.43.16.14 0 .36-.04.41-.14.08-.14.11-.38.04-.52-.11-.19-.31-.34-.49-.48-.68-.5-1.37-1-2.29-1.67Zm4.06-3.6c-.16-.12-.41-.45-.71-.51-.45-.1-1.03.66-1.01 1.22.02.44.25.73.72.76.48.03 1-.63.99-1.47Zm7.32 2.37c-.02.32.02.72.55.77.41.05.75-.38.83-.95.05-.44-.11-.77-.56-.87-.38-.08-.74.39-.81 1.05Zm-38.44 66c2.82-3.35 5.15-6.79 5.05-11.34.91 0 1.88-.04 2.85 0 1.87.08 3.74.28 5.6.32 1.67.03 3.34-.05 5-.17 1.41-.1 2.69-.57 3.8-1.51 1.7-1.47 3.46-2.88 5.2-4.3.36-.29.78-.52 1.4-.92-.19.43-.3.64-.38.86-.23.66-.51 1.32-.65 2-.17.78.09 1.19.84 1.45.41.14.85.28 1.27.27 1.9-.06 3.81-.13 5.71-.29.61-.05 1.2-.39 1.79-.62.65-.25 1.3-.51 1.96-.77.05.08.11.16.15.24-.47.38-.9.83-1.41 1.13-1.47.85-2.98 1.64-4.48 2.45-.45.24-.91.46-1.31.79 1.54-.1 2.8-1.02 4.27-1.36-1.26 1.11-2.8 1.79-4.43 2.77 1.13.24 1.83-.63 2.92-.52-1.73 1.05-3.11 2.23-5.07 2.3-1.39.05-2.78.19-4.16.34-1.14.13-2.29.26-3.41.5-7.35 1.61-14.47 3.99-21.62 6.23-.19.06-.38.13-.57.17-.07.02-.15-.02-.35-.05Zm46.23 113.5c3.19.16 6.12-.11 8.59-2.36.59.62 1.23 1.2 1.76 1.85 3.45 4.27 7.92 7.18 12.94 9.37 1.2.52 2.42 1 3.14 2.17-.39 1.13-1.22 1.79-2.29 2.1-1.07.29-2.16.56-3.26.62-4.31.23-8.43-.54-12.1-2.85-1.79-1.12-3.55-2.21-5.61-2.77-.41-.11-.93-.48-1.04-.84-.75-2.37-1.41-4.77-2.13-7.27Zm-2.03-89.16c.49 1.24 1.02 2.47 1.47 3.73.45 1.28.81 2.59 1.11 3.93-1.09-1.09-1.63-2.52-2.42-3.78-.81-1.28-1.67-2.52-2.75-3.65.27 1.3.54 2.61.81 3.92-.08.03-.15.06-.23.08-.12-.2-.28-.38-.34-.6-1.04-3.53-2.19-7.02-2.42-10.72-.15-2.37-.84-4.6-1.66-6.82-.64-1.76-1.2-3.56-1.78-5.34-.09-.29-.13-.6-.22-1.01 2.62-1.26 5.24-2.37 8.35-2.15.03.51.07.93.07 1.35.02 2.93.02 5.87.03 8.8 0 .47-.02.94.04 1.41.08.75.26 1.42.91 1.95 1.14.93 1.95 2.15 2.7 3.41.79 1.3 1.62 2.58 2.46 3.93-.36.19-.69-.06-.96-.29-1.3-1.1-2.85-1.64-4.5-2.03-.71-.17-1.36-.56-2.12-.88 0 .65.39.93.8 1.14.53.26 1.09.51 1.67.61.98.16 1.82.53 2.52 1.22.05.05.12.11.19.14 1.23.57 1.57 1.7 1.73 2.86.32 2.42-.26 4.78-.41 7.17h-.26c-.23-1.81-.52-3.62-.68-5.44-.09-1.11-.18-2.18-.74-3.16-.2-.35-.4-.75-1.1-.82 1.62 3.1 1.19 6.4 1.57 9.58-.6-1.44-1.23-2.83-1.4-4.41-.15-1.51-1.07-2.75-1.87-4.01-.07-.11-.23-.17-.35-.26l-.23.12h.02Zm-14.14-29.15c0 1.57.08 3.02-.03 4.45-.08.96-.43 1.9-.68 2.83-.12.44-.42.72-.88.87-3.34 1.05-6.67 2.14-10.25 1.88-2.94-.22-5.87-.46-8.79-.83-2.52-.32-5.01-.82-7.51-1.27-.53-.1-1.04-.32-1.5-.47-.1-.69.28-.82.73-.99 2.68-1.03 5.47-1.66 8.27-2.26 4-.87 8.01-1.68 12.03-2.49 1.01-.2 2.05-.31 3.08-.38 1.56-.11 3.09-.27 4.49-1.03.3-.17.67-.2 1.06-.31Z" class="cls-2_tablet"/>
    <path d="M434.05 123.52c.82-1.42 1.58-2.73 2.48-4.28.64 7 .59 13.74.82 20.62-3.15.07-5.98.99-8.75 2.63-1-3.07-2.1-6.01-2.81-9.16 2.17-.92 3.5-2.65 4.82-4.42.67-.9 1.57-1.65 2.34-2.49.43-.46.84-.93 1.23-1.43.39-.49.41-.99-.13-1.46Zm8.25 139.2c1.41.29 2.43.79 3.41 1.36 1.86 1.06 3.7 2.15 5.76 2.79 2.98.92 6.01 1.54 9.15 1.27 1.26-.11 2.53-.34 3.72-.73.83-.27 1.53-.91 2.36-1.42.1.41.28.89.3 1.37.02.26-.15.62-.36.79-1.49 1.28-3.16 2.26-5.19 2.41-2.79.21-5.56.09-8.22-.95-1.44-.56-2.88-1.11-4.34-1.63-1.42-.5-2.85-.94-4.26-1.45-.3-.11-.64-.34-.78-.6-.52-.96-.97-1.97-1.55-3.19Zm-3.26-10.57c-.13-.65-.24-1.21-.38-1.85 1.87-.17 3.64-.29 5.41-.5.82-.09 1.63-.32 2.44-.49.29-.06.58-.15 1-.26-.24 1.1-.89 1.7-1.7 2.09-2.09 1-4.31 1.24-6.77 1Zm-55.43-9.76c3.01 1.11 5.87 1.36 8.81.11 1.82 1.8 3.87 3.35 6.16 4.53 2.83 1.46 5.47 3.19 8.11 4.94.59.39 1.19.8 1.7 1.28.91.86.77 1.51-.35 2.1-.28.14-.58.29-.89.32-1.54.17-3.08.41-4.63.44-2.75.05-5.35-.66-7.86-1.7-.33-.14-.66-.27-.97-.44-2.3-1.24-4.77-1.96-7.36-2.24-1.43-.16-2.08-.87-2.38-2.18-.54-2.35-.36-4.7-.31-7.17h-.02Z" class="cls-2_tablet"/>
    <path d="M384.61 252.45c2.75.64 5.55.93 8.12 2.18 2.58 1.26 5.31 2.13 8.2 2.33 1.22.08 2.46 0 3.68-.11.94-.08 1.89-.25 2.82-.48.67-.17 1.32-.49 1.97-.75.38 1.62-.11 2.56-1.58 3.15-1.2.48-2.47.6-3.74.6-2.77.02-5.46-.42-8.05-1.39-2.72-1.02-5.47-1.88-8.35-2.35-1.94-.32-2.75-.97-3.07-3.18Zm7.53-11.08c-2.9 1.39-5.63 1.02-8.4.02v-3.45c2.74.55 5.39 1.09 8.15 1.65.07.53.15 1.08.25 1.78Z" class="cls-2_tablet"/>
    <path d="M435.56 70.42c-.59.67-1.27.78-2.12.47-.58-.21-1.26-.17-1.87-.33-.22-.05-.52-.32-.54-.52-.02-.2.22-.52.43-.61.34-.15.76-.22 1.14-.23 1.16 0 2.26.15 2.94 1.24l.02-.02Zm-9.14 4.93c.31-.09.62-.2.94-.26.87-.15.94-.21 1.08-1.08.08-.43-.09-.94.35-1.29.65.76.75 2.36.23 3.03-.05.06-.1.15-.17.16-.46.06-.92.15-1.38.14-.41 0-.9.02-1.06-.71Zm-1.62-6.5c-.58-.13-1.16-.23-1.71-.41-.17-.05-.38-.35-.36-.52.02-.17.31-.43.46-.42.9.04 1.8.12 2.69.26.17.03.28.39.42.6-.22.14-.41.32-.64.38-.26.07-.55.02-.83.02 0 .03-.02.06-.02.09Zm-4.43 6.21c.92.67 1.61 1.16 2.29 1.67.18.14.38.29.49.48.07.14.04.38-.04.52-.05.09-.27.14-.41.14-.15 0-.31-.07-.43-.16-.87-.62-1.47-1.42-1.91-2.64Zm4.06-3.62c0 .84-.51 1.5-.99 1.47-.46-.03-.7-.32-.72-.76-.02-.57.55-1.32 1-1.22.3.07.54.39.71.51Zm7.32 2.38c.06-.66.44-1.13.81-1.05.45.1.62.42.56.87-.07.57-.42.99-.83.95-.53-.05-.56-.44-.54-.77Z" class="cls-11_tablet"/>
    <path id="primary-color" fill="#73a62e" d="M421.86 125.77c.15-.6.21-1.06.39-1.47 1.25-2.75 2.52-5.49 3.8-8.22.25-.53.51-1.08.87-1.53.98-1.23 1.93-2.4 3.81-2.46 1.86-.05 3.7-.4 5.56-.6.35-.04.72-.04 1.07-.02.98.05 1.41.6 1.01 1.48-1.43 3.14-2.92 6.25-4.39 9.37-.97 2.05-2.75 2.89-4.89 3.31-1.93.38-3.87.49-5.82.35-.39-.03-.77-.11-1.4-.2Z"/>
    <path d="M562.43 179.68c.06 5.72.09 10.16.17 14.6.04 2.27.06 4.55.3 6.8.33 3.03-1.45 4.9-3.43 5.88-9.7 4.76-19.41 9.47-29.1 14.23-8.6 4.22-17.18 8.48-25.77 12.71-1.65.81-3.29 1.64-4.99 2.36-1.98.84-3.4.18-4.15-1.83-.16-.42-.3-.88-.34-1.33-.22-2.49-.46-4.98-.57-7.46-.22-4.96-.37-9.92-.53-14.89-.12-3.88-.16-7.76-.3-11.64-.11-3.02-.34-6.04-.47-9.06-.11-2.66-.21-5.32.09-7.98.27-2.39 1.54-3.99 3.64-5.02 3.28-1.6 6.57-3.18 9.86-4.79 3.9-1.91 7.84-3.74 11.82-5.49 4.49-1.97 8.9-4.13 13.33-6.22 3.06-1.44 6.14-2.88 9.18-4.38 3.4-1.67 6.75-3.43 10.13-5.12 1.26-.63 2.58-1.15 3.88-1.72 1.01-.44 2.06-.45 3.1-.15 1.5.44 2.21 1.59 2.51 3.03.18.9.32 1.82.37 2.73.3 5.32.57 10.64.85 15.96.17 3.35.34 6.7.44 8.77h-.01Zm-68.08 6.24c0 .48-.02 1.03 0 1.59.08 1.67.28 3.32.27 5-.02 2.2.28 4.39.38 6.59.25 5.55.49 11.1.7 16.65.2 5.32.27 10.64.82 15.94.06.62.13 1.25.3 1.84.34 1.16.92 1.51 2.09 1.18 1.2-.34 2.42-.68 3.54-1.21 5.64-2.71 11.25-5.46 16.85-8.25 12.73-6.34 25.44-12.73 38.16-19.08 2.74-1.37 4.07-3.5 3.87-6.58-.09-1.41-.12-2.82-.15-4.24-.11-5.62-.18-11.24-.33-16.87-.07-2.66-.36-5.32-.38-7.98-.04-4.77-.57-9.52-.89-14.27 0-.11-.07-.23-.13-.44-.66.28-1.27.51-1.85.78-9.42 4.39-18.85 8.79-28.27 13.19-10.68 4.98-21.35 9.97-32.04 14.94-.89.41-1.81.75-2.93 1.2Zm.2-.94c1.2-.59 2.31-1.16 3.43-1.69 15.05-7.04 30.11-14.07 45.17-21.11 4.89-2.29 9.77-4.59 14.65-6.9.44-.21.88-.46 1.25-.77.19-.16.37-.49.35-.73-.16-2.18-.88-3.3-3.36-3.03-.26.03-.53.07-.77.16-.95.35-1.93.66-2.84 1.11-10.69 5.18-21.37 10.39-32.06 15.56-4.12 1.99-8.27 3.91-12.41 5.84-2.8 1.3-5.62 2.58-8.42 3.87-.95.44-1.9.91-2.85 1.36-1.17.55-1.66 1.53-1.8 2.74-.11.98-.22 1.96-.32 2.94-.02.18 0 .37 0 .64Z" class="cls-11_tablet"/>
    <path d="M494.35 185.94c1.11-.45 2.03-.78 2.93-1.2 10.68-4.98 21.36-9.96 32.03-14.94 9.42-4.4 18.85-8.8 28.27-13.19.59-.27 1.19-.5 1.85-.78.07.22.13.33.13.44.32 4.75.85 9.49.89 14.27.02 2.66.32 5.32.38 7.98.15 5.62.22 11.24.33 16.87.03 1.41.06 2.83.15 4.24.2 3.08-1.12 5.22-3.87 6.58-12.72 6.35-25.43 12.73-38.16 19.08-5.6 2.79-11.21 5.54-16.85 8.25-1.12.54-2.34.88-3.54 1.21-1.17.32-1.75-.02-2.09-1.18-.17-.6-.24-1.22-.3-1.84-.56-5.3-.62-10.62-.82-15.94-.21-5.55-.45-11.11-.7-16.65-.1-2.2-.39-4.39-.38-6.59.01-1.68-.2-3.34-.27-5-.02-.55 0-1.11 0-1.59Zm66.1 9.61c.08-2.48-1.22-5.14-2.15-6.45-.34-.47-.79-.89-1.26-1.23-3.8-2.7-8.94-1.68-11.7 1.09-2.68 2.7-3.57 5.87-3.03 9.62.86 5.95 7.93 9.57 13.62 5.62 2.99-2.07 4.4-5.05 4.51-8.65Zm-3.62-30.81c.03-.47.07-.82.08-1.18.02-.49-.21-.7-.65-.52-1.83.73-3.69 1.4-5.47 2.23-3.78 1.77-7.52 3.63-11.28 5.45-.46.22-.59.47-.53.99.4 3.69.76 7.38 1.14 11.07.08.82.12 1.64.26 2.45.12.71.37.81 1.04.54s1.35-.54 2.01-.84c3.08-1.39 6.16-2.77 9.23-4.17 1.46-.67 2.89-1.41 4.33-2.1.54-.25.8-.65.78-1.24-.03-.82-.03-1.65-.09-2.46-.27-3.44-.56-6.88-.83-10.21h-.01ZM494.55 185c0-.27-.02-.46 0-.64.1-.98.21-1.96.32-2.94.14-1.22.64-2.2 1.8-2.74.95-.45 1.89-.92 2.85-1.36 2.8-1.3 5.62-2.57 8.42-3.88 4.14-1.93 8.29-3.85 12.41-5.84 10.69-5.17 21.37-10.38 32.06-15.56.91-.44 1.89-.75 2.84-1.11.24-.09.51-.13.77-.16 2.47-.27 3.2.85 3.36 3.03.02.24-.16.57-.35.73-.38.31-.81.56-1.25.77-4.88 2.31-9.76 4.61-14.65 6.9-15.05 7.04-30.11 14.07-45.17 21.11-1.13.53-2.23 1.1-3.43 1.69Zm4.18-4.31c-.01-.68-.51-1.18-1.18-1.17-.73 0-1.42.77-1.43 1.59 0 .66.4 1 1.17.99.83-.01 1.46-.63 1.44-1.41Zm2.53-.28c.7 0 1.29-.61 1.31-1.34.01-.65-.53-1.23-1.15-1.25-.68-.03-1.36.68-1.36 1.42 0 .64.55 1.18 1.2 1.18Zm4.96-3.08c0-.66-.52-1.15-1.21-1.13-.72.02-1.36.69-1.36 1.41 0 .61.43.99 1.1.98.84 0 1.47-.55 1.47-1.26Z" class="cls-2_tablet"/>
    <path d="M560.44 195.54c-.11 3.61-1.52 6.58-4.51 8.66-5.7 3.95-12.76.33-13.62-5.62-.55-3.75.34-6.93 3.03-9.62 2.75-2.77 7.89-3.79 11.7-1.09.48.34.93.75 1.26 1.23.93 1.31 2.23 3.98 2.15 6.45Zm-7.36 1.49c-.06-.75-.11-1.37-.18-1.98-.13-1.27-.26-2.54-.4-3.81-.02-.17-.03-.33-.08-.48-.17-.5-.51-.59-.88-.23-.11.11-.22.25-.29.39-.58 1.21-1.17 2.42-1.72 3.64-.15.34-.35.84.12 1.06.48.22.66-.29.84-.61.3-.53.57-1.08.86-1.63.06 0 .11.02.16.02.12 1.41.23 2.83.35 4.24-.39.23-.79.42-1.11.69-.18.17-.38.5-.32.72.08.35.48.36.74.23 1.12-.54 2.23-1.11 3.32-1.71.13-.07.21-.44.14-.58-.07-.14-.37-.23-.56-.22-.29.01-.56.14-.98.25Zm-5.32 1.23c.38-.19.7-.34 1.02-.51.29-.15.49-.43.33-.72-.09-.17-.41-.28-.63-.3-.31-.03-.64.06-.98.11-.07-.22-.08-.45-.2-.58-.16-.17-.4-.32-.6-.33-.12 0-.3.3-.34.49-.06.27-.01.57-.01.85-.32.18-.62.32-.9.49-.26.16-.53.4-.32.71.11.17.43.25.66.26.27.01.56-.08.84-.13.12.37.18.7.33.97.09.17.33.25.5.36.12-.18.32-.34.35-.53.04-.35-.01-.72-.03-1.15Zm9.07-33.52c.27 3.34.56 6.77.83 10.21.06.82.06 1.64.09 2.46.02.59-.24.99-.78 1.24-1.45.69-2.88 1.42-4.33 2.1-3.07 1.41-6.15 2.79-9.23 4.17-.66.3-1.33.56-2.01.84-.67.27-.92.17-1.04-.54-.14-.8-.18-1.63-.26-2.45-.38-3.69-.73-7.38-1.14-11.07-.06-.52.08-.77.53-.99 3.76-1.8 7.5-3.67 11.28-5.45 1.78-.84 3.64-1.51 5.47-2.23.44-.18.67.03.65.52-.01.36-.05.71-.08 1.18h.01Zm-11.44 8.88c.17 1.74.34 3.36.51 5.15 2.12-.99 4.1-1.91 6.09-2.83-.17-1.7-.09-3.3-.5-5-2.07.91-4.05 1.78-6.11 2.67Zm5.85-8.12c-2.21 1.07-4.24 2.05-6.28 3.05.04 1.6.17 3.1.42 4.69 2.15-.97 4.14-1.87 6.14-2.77-.09-1.63-.17-3.17-.27-4.96Zm-10.6 15.68c1.73-.74 3.33-1.47 4.88-2.27l-.53-5.1c-1.69.79-3.26 1.53-4.9 2.29.18 1.67.36 3.3.55 5.08Zm11.46-4.89c-2.14.99-4.13 1.92-6.09 2.83-.08 1.39.14 3.22.48 3.86 1.99-.92 3.98-1.84 6.02-2.78-.14-1.3-.27-2.53-.41-3.91Zm-12.58-4.92c.2 1.5.39 2.89.58 4.4 1.64-.8 3.22-1.56 4.82-2.34-.09-1.52-.17-3.01-.27-4.67-1.79.91-3.45 1.75-5.14 2.62Zm17.01-3.22v-4.63c-1.74.66-3.38 1.29-5.01 1.91.14 1.65.27 3.19.42 4.87 1.66-.78 3.17-1.49 4.59-2.16Zm.16.51c-1.66.76-3.15 1.44-4.66 2.13.22 1.63.23 3.22.48 4.91 1.43-.75 2.72-1.42 4-2.08.29-.15.46-.34.44-.69-.09-1.37-.17-2.75-.25-4.27Zm-11.11 10.66-4.94 2.3c.3 1.23.08 2.52.49 3.74 1.68-.74 3.26-1.43 4.87-2.13-.14-1.3-.27-2.53-.42-3.9Zm7.26.79c1.5-.69 2.84-1.31 4.16-1.91.25-1.18.2-3.2-.13-4.25-1.45.7-2.89 1.4-4.35 2.11.1 1.33.2 2.6.32 4.05Zm-54.1.59c.02.79-.61 1.39-1.44 1.41-.77.01-1.18-.33-1.17-.99 0-.82.7-1.59 1.43-1.59.67 0 1.17.49 1.18 1.17Zm2.53-.29c-.65 0-1.21-.54-1.2-1.18 0-.74.68-1.45 1.36-1.42.62.03 1.15.61 1.15 1.25-.01.73-.6 1.34-1.31 1.34Zm4.96-3.08c0 .71-.64 1.25-1.47 1.26-.67 0-1.09-.37-1.1-.98 0-.72.64-1.4 1.36-1.41.69-.02 1.21.48 1.21 1.13Z" class="cls-11_tablet"/>
    <path d="M553.08 197.03c.41-.11.69-.23.98-.25.2-.01.5.08.56.22.07.14-.01.51-.14.58-1.09.6-2.2 1.17-3.32 1.71-.27.13-.67.11-.74-.23-.04-.21.14-.55.32-.71.32-.27.72-.46 1.11-.69-.11-1.42-.23-2.83-.35-4.24-.06 0-.11-.02-.16-.03-.29.54-.55 1.1-.86 1.63-.18.32-.36.83-.84.61-.46-.22-.27-.72-.11-1.06.55-1.23 1.13-2.43 1.72-3.64.07-.15.18-.28.29-.39.37-.36.71-.27.88.23.05.15.06.32.08.48.13 1.27.27 2.54.4 3.81.06.61.11 1.23.18 1.98Zm-5.32 1.24c.02.43.08.8.03 1.15-.03.19-.23.35-.35.53-.17-.12-.41-.2-.5-.36-.15-.28-.22-.61-.33-.97-.28.05-.56.15-.84.13-.23-.01-.55-.09-.66-.26-.2-.31.06-.54.32-.71.28-.17.57-.32.9-.49 0-.28-.04-.58.01-.85.04-.19.22-.5.34-.49.21 0 .45.17.6.33.12.13.13.35.2.58.35-.04.67-.13.98-.11.22.02.53.13.63.3.16.29-.04.56-.33.72-.32.17-.64.32-1.02.51Zm-2.37-24.66c2.04-.9 4.02-1.77 6.11-2.67.41 1.7.33 3.3.5 5-1.99.92-3.97 1.85-6.09 2.83-.18-1.8-.34-3.42-.51-5.15Zm5.85-8.13c.1 1.79.18 3.33.27 4.96-2 .9-3.99 1.8-6.14 2.77-.24-1.59-.37-3.1-.42-4.69 2.04-.99 4.07-1.97 6.28-3.04Zm-10.61 15.68c-.19-1.77-.37-3.4-.55-5.08 1.64-.77 3.21-1.5 4.9-2.29l.53 5.1c-1.55.8-3.15 1.53-4.88 2.27Zm11.46-4.89c.15 1.37.28 2.61.41 3.91-2.04.94-4.03 1.86-6.02 2.78-.34-.65-.56-2.48-.48-3.86 1.95-.91 3.94-1.83 6.08-2.83Zm-12.59-4.92c1.69-.86 3.35-1.7 5.14-2.61.09 1.66.18 3.15.27 4.67-1.6.78-3.19 1.54-4.82 2.34-.2-1.51-.39-2.9-.58-4.4Zm17.01-3.22c-1.43.67-2.93 1.37-4.59 2.16-.15-1.68-.27-3.22-.42-4.87 1.64-.63 3.27-1.25 5.01-1.91v4.63Zm.16.51c.09 1.51.17 2.89.25 4.27.02.35-.15.54-.44.69-1.28.66-2.56 1.34-4 2.08-.25-1.69-.27-3.28-.48-4.91 1.52-.69 3-1.37 4.66-2.13Zm-11.11 10.66c.15 1.36.28 2.6.42 3.9-1.6.7-3.19 1.4-4.87 2.13-.41-1.22-.2-2.51-.5-3.73 1.64-.76 3.21-1.49 4.94-2.3Zm7.26.79c-.11-1.46-.21-2.72-.32-4.05 1.45-.71 2.89-1.41 4.35-2.11.32 1.06.38 3.06.13 4.25-1.31.61-2.65 1.22-4.16 1.91Z" class="cls-2_tablet"/>
    <path d="M499.6 205.15c.05-5.56 2.07-10.03 5.51-13.95 2-2.28 4.36-4.1 7.03-5.52 2.66-1.41 5.49-2.29 8.51-2.61 2.99-.31 5.88 0 8.73.96 2.63.9 4.71 2.54 6.56 4.55 2.82 3.08 3.9 6.76 3.75 10.85-.15 3.82-1.43 7.26-3.53 10.4-2.93 4.38-6.92 7.42-11.81 9.31-4.3 1.66-8.74 2.04-13.17.78-5.86-1.66-9.68-5.49-11.24-11.44-.13-.47-.19-.97-.24-1.46-.06-.72-.08-1.44-.11-1.88Z" class="cls-12_tablet"/>
    <path d="M533.61 193.85c-.36-.27-.72-.55-1.12-.85-.39.22-.75.42-1.08.6 0 .13-.03.23 0 .25.23.16.63.26.5.61-.1.27-.39.49-.64.66-.26.18-.58.25-.86.39-.54.28-.91.2-1.28-.31-.13-.18-.21-.42-.35-.59-.34-.4-.29-.77.04-1.15.11-.13.2-.26.39-.5-1.21.23-2.2.53-2.72 1.65-.22.48-.55.9-.79 1.37-.26.51-.46 1.05-.78 1.77 1.19-.61 2.14-1.14 3.13-1.6.37-.17.82-.24 1.24-.22.84.03 1.62-.06 2.39-.46 1.02-.53 2.16-.14 2.5 1.05.17.61.58 1.18.93 1.73.35.56.53 1.11.32 1.77-.06.2-.06.47.04.65.31.6.3 1.21.14 1.82-.18.71-.22 1.43-.05 2.15.26 1.14-.06 2.16-.72 3.06-.5.68-.83 1.4-1.04 2.21-.13.53-.37 1.06-.68 1.51-.45.65-.97.66-1.61.18-.29-.22-.56-.46-.88-.61-.68-.33-1.17-.75-1.47-1.5-.19-.46-.72-.82-1.17-1.14-.39-.28-.87-.45-1.39-.71-.03-.58-.06-1.22-.09-1.99-.66-.23-1.36-.51-2.07-.73-1.4-.44-1.85-1.49-1.11-2.73.41-.69.72-1.37.75-2.2.01-.48.2-.96.3-1.43-.7.11-1.42.22-2.12.36-.18.04-.34.18-.48.3-.57.44-.77.37-.89-.3-.13-.77-.38-1.52.11-2.27.1-.16-.06-.49-.1-.75-.06-.52-.16-1.05-.14-1.56.04-.7.39-1.25 1.05-1.56.65-.3 1.31-.6 1.99-.92-.18-.79-.13-1.55.36-2.21-.43-.49-.87-.94-1.24-1.43-.43-.58-.11-1.27.62-1.36.89-.11 1.78-.2 2.67-.28.53-.05.93-.36.97-.93.04-.51.14-.89.69-1.05.58-.17 1.08-.01 1.42.44.47.63 1.06.72 1.75.58.88-.18 1.6.09 2.28.65 1.35 1.1 2.77 2.13 3.81 3.56.09.13.19.27.3.39.32.41.27.79-.06 1.15-.3.34-.62.24-.98.08-.49-.22-1.03-.35-1.55-.51-.04.07-.08.14-.12.22.3.29.58.59.9.85.33.27.73.46 1.02.77.23.25.4.59.51.91.13.38-.14.58-.46.76-.15.08-.18.34-.3.49-.18.23-.37.47-.6.64-.73.53-1.17.34-1.24-.55-.05-.57-.15-1.04-.77-1.22-.06-.01-.13.01-.19.02l.02.02h.02Zm-28.88 13.43c.58.14 1.02.25 1.46.34 1.29.25 1.81.89 1.64 2.22-.14 1.03.22 1.8.98 2.43.9.75 1.36 1.74 1.74 2.81.45 1.3.94 2.58 1.43 3.87.12.32.32.67 0 .89-.23.15-.63.2-.91.13-1.41-.37-2.71-1.03-3.92-1.82-2.26-1.48-4.15-3.32-5.46-5.72-2.02-3.7-2.42-7.58-1.47-11.64.2-.86.51-1.7.76-2.54.55-1.87 1.57-3.46 2.75-4.97.45-.57.9-1.13 1.33-1.72.44-.61 1.03-.89 1.77-.91.35-.01.72-.04 1.05-.16.82-.28.9-1.04.86-1.71-.04-.71.25-1.12.78-1.45.97-.61 1.94-1.25 2.95-1.79.79-.41 1.25-.06 1.05.82-.18.75-.5 1.49-.86 2.18-.29.55-.36.99.01 1.54.2.3.29.75.28 1.12-.02.63.29.98.8 1.23.32.15.67.28.99.44.74.37 1.07 1.07.93 1.86-.43 2.3-1.67 4.04-3.62 5.29-.76.48-1.38 1.08-2 1.73-.88.92-1.91 1.7-2.85 2.56-.65.6-1.3 1.2-1.9 1.85-.24.27-.32.67-.54 1.13h-.03Zm20.63 2.11c.09-.34.13-.61.23-.84.2-.46.55-.64.93-.51.44.15.67.54.55.92-.14.42-.5.78-.86 1.31.17.37.38.92.67 1.42.5.87.46 1.69-.18 2.46-.29.35-.57.75-.93 1.01-1.82 1.3-3.64 2.6-5.84 3.23-.22.06-.44.15-.67.18-.57.08-.93-.2-.86-.77.13-1.04.17-2.1.77-3.02.17-.26.2-.61.28-.92.12-.44.22-.89.35-1.33.3-.97.89-1.58 1.99-1.56.68 0 1.15-.45 1.63-.84.55-.46 1.12-.8 1.92-.73Zm-5.19-21.63c-.14-.56-.25-1.13-.43-1.67-.43-1.25.54-2.89 1.85-3.01.91-.08 1.83-.08 2.75-.06.6 0 .82.36.61.92a.46.46 0 0 1-.09.17c-.6.68-1.19 1.37-1.82 2.02-.41.42-.94.72-1.32 1.16-.44.51-.91.71-1.55.46Zm.36 2.97c.17.8.06 1.28-.39 1.65-.08.06-.18.11-.21.2-.43 1.08-1.35.81-2.16.77-.44-.02-.64-.34-.53-.75.06-.25.15-.53.33-.68.83-.75 1.9-.84 2.98-1.17Z" class="cls-15_tablet"/>
    <path d="M520.16 187.76c.59.46 1.17.47 1.67-.11.39.27.39.6.08.71-.78.27-1.03 1.01-1.54 1.53-.22.22-.34.7-.72.46-.18-.11-.27-.6-.19-.85.19-.6.1-1.32.7-1.74Zm17.63 4.63c-.29.18-.45.35-.6.34-.3-.03-.61-.19-.56-.55.02-.14.34-.39.43-.35.24.09.43.32.73.56Zm-4.21 1.45c-.3.5-.76.28-1.25.13.15-.09.29-.25.43-.25.28 0 .56.09.84.14l-.02-.02Zm19.97-24.91c.03-.06.06-.11.08-.17.26-.6-.47-1.35-1-.77-.34.38-.77.64-1.23.85-.52.17-1.03.35-1.54.55-.63.2-1.26.4-1.8.74-.7.44-.09 1.43.64 1.1.9-.41 1.83-.76 2.76-1.08-.34.58-.7 1.15-1.05 1.72-.72 1.16-1.46 2.32-2.24 3.44-1.57 2.26-3.35 4.41-5.55 6.1-.64.49 0 1.59.64 1.1 2.26-1.73 4.11-3.86 5.74-6.17a76.66 76.66 0 0 0 2.32-3.53c.51-.82 1.03-1.63 1.5-2.47.46 1.03.76 2.11.86 3.24.08.8 1.34.81 1.27 0-.16-1.64-.63-3.19-1.42-4.63Z" class="cls-15_tablet"/>
    <path d="M513.58 197.11c.18-.99.29-2.01.56-2.98.19-.69.72-1.22 1.47-1.31.75-.09 1.3.31 1.68.98 1.11 2.01 1.32 4.15.9 6.35-.1.54-.48 1.1-.88 1.49-.89.89-2.3.5-2.7-.34-.29-.61-.48-1.28-.67-1.94-.11-.37-.15-.77-.19-1.17-.03-.36 0-.72 0-1.08-.05 0-.1-.01-.15-.02Zm10.88-2.83c.09-.68.17-1.36.27-2.03.14-.9.84-1.22 1.59-1.39.72-.16 1.29.18 1.65.8.24.42.47.87.58 1.34.41 1.65.88 3.29.44 5.01-.21.82-.76 1.36-1.51 1.52-.74.17-1.35-.25-1.84-.87-.84-1.06-1-2.32-1.11-3.6-.02-.26 0-.53 0-.79-.02 0-.04 0-.07-.01Zm-9.77 14.21c6.51 3.17 11.91 2.03 16.17-3.96l.15.18c-.1.32-.17.65-.3.94-.81 1.65-1.98 2.98-3.51 4-3.17 2.13-6.58 2.42-10.13 1.27-1.12-.37-1.85-1.32-2.37-2.43Z" class="cls-2_tablet"/>
    <path d="M554.78 69.52c.22 12.92.44 25.84.67 38.77.03 1.87.11 3.75.21 5.62.12 2.41-.93 4.12-2.91 5.44-2.28 1.53-4.78 2.65-7.22 3.86-11.67 5.8-23.36 11.57-35.04 17.36-9.85 4.88-19.69 9.79-29.55 14.66-2.54 1.25-5.1 2.44-7.67 3.65-1.24.58-2.56.6-3.88.4-1.71-.27-2.8-1.59-2.98-3.56-.1-1.01-.16-2.03-.18-3.05-.15-10.29-.36-20.58-.39-30.88-.02-5.26.29-10.52.45-15.78.18-5.98.37-11.97.08-17.95-.27-5.68-.58-11.36-1.3-17.01-.25-1.96-.35-3.93-.09-5.9.19-1.47.88-2.67 1.87-3.72.23-.25.6-.41.92-.56 3.28-1.46 6.53-2.97 9.85-4.34 22.4-9.23 44.8-18.44 67.21-27.64 1.82-.75 3.69-1.4 5.54-2.08.37-.13.76-.22 1.15-.27 1.22-.17 2.22.62 2.34 1.84.06.62.12 1.25.09 1.87-.22 4.31.09 8.61.23 12.92.23 7.03.35 14.07.49 21.11.04 1.74 0 3.48 0 5.23h.1Zm-2.53-35.72c-.72.27-1.34.46-1.94.72-19.29 8.29-38.58 16.61-57.88 24.88-7.77 3.33-15.59 6.57-23.39 9.83-.78.33-1.59.6-2.41.91.12 1.17.27 2.27.35 3.39.24 3.15.45 6.3.67 9.45.29 4.14.34 8.28.25 12.43-.18 7.79-.39 15.59-.51 23.38-.08 5.1.01 10.2-.02 15.3-.04 6.48.32 12.95.64 19.42.05.97.29 1.95.57 2.88.29.96.99 1.36 1.99 1.22.71-.1 1.43-.27 2.09-.56 1.97-.84 3.93-1.7 5.84-2.65 10.75-5.3 21.49-10.62 32.22-15.94 10.53-5.22 21.06-10.44 31.57-15.7 3.03-1.51 6.02-3.12 9.01-4.71 1.68-.89 2.44-2.33 2.3-4.24-.07-.95-.21-1.9-.22-2.85-.1-5.86-.18-11.71-.27-17.56-.13-9.28-.27-18.55-.39-27.83-.11-8.75-.2-17.5-.31-26.24-.03-1.77-.11-3.55-.18-5.53h.02Zm-85.73 35.17c.84-.41 1.49-.73 2.15-1.03 6.9-3.04 13.78-6.11 20.7-9.1 11.48-4.95 22.99-9.85 34.49-14.77 9.04-3.87 18.09-7.74 27.14-11.61.27-.11.54-.25.81-.36.34-.14.51-.39.51-.76-.01-.66 0-1.32-.04-1.98-.04-.71-.25-.86-.97-.68-.79.2-1.6.41-2.35.72-12.23 4.97-24.43 10-36.67 14.93-13.86 5.58-27.76 11.06-41.63 16.62-.99.4-1.88 1.06-2.77 1.67-.56.37-.92.98-1.03 1.63-.18 1.03-.29 2.08-.38 3.12-.04.47.03.96.06 1.59Z" class="cls-11_tablet"/>
    <path d="M552.25 33.8c.06 1.99.15 3.76.18 5.53.11 8.75.2 17.5.31 26.24.12 9.28.26 18.55.39 27.83.08 5.86.16 11.71.27 17.56.02.95.15 1.9.22 2.85.15 1.91-.61 3.34-2.3 4.24-2.99 1.6-5.98 3.2-9.01 4.71-10.52 5.25-21.04 10.47-31.57 15.7-10.74 5.32-21.47 10.64-32.22 15.94-1.92.94-3.88 1.8-5.84 2.65-.65.28-1.38.46-2.09.56-1 .14-1.7-.27-1.99-1.22-.29-.94-.52-1.91-.57-2.88-.32-6.47-.67-12.94-.64-19.42.03-5.1-.06-10.2.02-15.3.11-7.79.32-15.59.51-23.38.1-4.15.05-8.29-.25-12.43-.22-3.15-.44-6.3-.67-9.45-.08-1.11-.23-2.22-.35-3.39.82-.3 1.63-.58 2.41-.91 7.8-3.27 15.62-6.5 23.39-9.83 19.31-8.27 38.58-16.59 57.88-24.88.6-.25 1.22-.46 1.94-.72h-.02Zm-43.4 71.35.25-.06c.48.92.91 1.88 1.45 2.76.79 1.29 1.65 2.54 2.53 3.77.45.63 1.12.76 1.64.46.5-.28.72-.84.5-1.56-.23-.72-.48-1.44-.84-2.1-1.41-2.6-2.77-5.23-4.35-7.73-.7-1.12-.81-2.08-.3-3.2.11-.24.2-.49.3-.73.34-.79 1-1.11 1.81-1.15 1.07-.05 2.07.63 2.46 1.63.58 1.55.82 3.18.97 4.82.23 2.49.42 4.98.67 7.46.04.48.21.96.39 1.42.23.56.69.89 1.31.85.43-.02.86-.04 1.26-.16.98-.28 1.96-.58 2.91-.96 4.44-1.77 8.82-3.65 13.07-5.84 1.55-.8 3.11-1.58 4.65-2.4.84-.45 1.26-1.13.94-2.13-.06-.18-.05-.39-.07-.59-.13-1.94-.2-3.87-.41-5.81-.32-3.01-.72-6.02-1.97-8.81-.65-1.44-1.36-2.86-2.16-4.2-1.78-2.96-4.09-5.43-7.27-6.89-2.81-1.29-5.66-2.49-8.53-3.63-.93-.37-1.97-.53-2.98-.61-2.45-.22-4.86.17-7.25.7-2.39.54-4.65 1.45-6.9 2.37-3.39 1.38-6.46 3.24-9.16 5.73-3.81 3.51-7.04 7.46-9.21 12.21-1.4 3.06-2.41 6.26-3.28 9.5-.94 3.51-1.37 7.08-1.41 10.72-.05 4.58.35 9.13.67 13.69.11 1.67.44 3.32.72 4.98.14.86.49 1.15 1.35 1.1.45-.03.93-.12 1.33-.3 1.22-.57 2.42-1.18 3.61-1.81 2.41-1.29 4.82-2.56 7.2-3.9 3.5-1.97 6.98-3.98 10.46-5.98 1.03-.6 1.96-1.33 2.72-2.26.58-.7 1.02-1.48 1.06-2.39.06-1.44.08-2.89.06-4.33-.02-1.54-.11-3.08-.17-4.62h-.03Zm24.72-51.94c.18-.22.43-.41.56-.65.4-.77 1.07-1.22 1.77-1.67 1.3-.84 2.61-1.65 3.89-2.53.62-.43 1.17-.96 1.69-1.49.27-.27.48-.64.61-1 .34-.94-.21-1.72-1.21-1.8-.69-.06-1.29.17-1.86.53-.8.51-1.32 1.25-1.84 2.03-.67 1.01-1.43 1.96-2.17 2.92-.11.15-.32.24-.49.37-.07-.44-.03-.86-.21-1.13-.52-.77-.62-1.64-.82-2.49a3.62 3.62 0 0 0-.31-.83c-.41-.75-1.11-.89-1.69-.26-.41.45-.72 1.01-1.02 1.55-.35.66-.71 1.23-1.59 1.29-.58.04-.81.42-.6.98.23.63.61 1.22.96 1.8.2.32.48.6.7.87-.32.51-.6.35-.94.13-.88-.57-1.83-.9-2.89-.8-.32.03-.63.2-1.1.35.92.91 2.2.41 3.02 1.22-.36.23-.65.42-.95.61-.74.44-1.48.85-2.21 1.3-.34.22-.76.42-.65.97.47.2.87.07 1.25-.15.66-.37 1.31-.75 1.97-1.13.2-.11.4-.23.6-.35-.11.49-.3.87-.53 1.23-.37.62-.77 1.23-1.15 1.84-.5.82-.7 1.7-.55 2.65.22 1.37 0 2.68-.43 3.98-.23.68-.43 1.39-.56 2.09-.32 1.65.24 2.63 1.8 3.27.22.09.43.17.65.22 2.01.43 4.02.71 6.08.47 2.01-.23 3.46-1.22 4.3-3.04.46-1 1.01-1.89 1.76-2.7.63-.68 1.07-1.49.94-2.56-.31.12-.58.21-.85.32-.96.41-1.91.72-2.92.11-.21-.13-.51-.09-.77-.12-.93-.13-1.68-.55-2.22-1.33-.09-.13-.19-.24-.3-.37-.35.27.15.98-.5.92-.48-.04-.37-.62-.51-.96-.02-.06-.02-.13-.02-.2-.13-1.77-.27-3.53-.41-5.31-.01-.18-.04-.35-.06-.53-.07-.02-.13-.03-.2-.05-.29.63-.58 1.27-.88 1.89-.29.61-.41 1.34-1.07 1.76-.03-.37-.03-.73.08-1.06.25-.78.49-1.58.86-2.3.57-1.11.89-2.17.2-3.34-.18-.32-.28-.72.11-1.24.34.61.6 1.1.9 1.63.58-.82.24-1.87.74-2.86.17.3.31.43.3.55-.04.68-.04 1.38-.19 2.04-.26 1.14-.15 1.57.91 2.38h.01Zm-.47 62.98c-.18 1.72 1.19 3.27 3.3 3.15 1.74-.1 3.36-1.45 3.73-3.15.33-1.49-.45-2.98-1.85-3.52-2.34-.91-5.17 1.02-5.17 3.52Zm-11.04 8.02c-.01-1.81-1.36-2.93-3.15-2.59-1.72.32-3.52 2.38-3.59 4.13-.07 1.61 1.2 2.83 2.82 2.72 2.07-.15 3.93-2.17 3.92-4.25Zm-19.4 9.47c-.02-.17-.02-.44-.08-.69-.25-1.07-.89-1.84-1.95-2.16-.99-.3-1.95-.11-2.66.62-.78.8-1.38 1.77-1.47 2.94-.1 1.16.3 2.16 1.34 2.77 1.03.61 2.09.51 3.08-.15 1.16-.77 1.73-1.86 1.75-3.34Zm-19.52 8.99c-.09-.33-.18-.9-.43-1.39-.73-1.44-2.59-1.92-3.76-.94-.72.61-1.33 1.36-1.56 2.34-.16.66-.13 1.3.11 1.93.58 1.56 2.34 2.24 3.81 1.44 1.25-.68 1.75-1.8 1.83-3.39Zm64.97-46.52c.34.44.58.79.86 1.1.32.34.71.61 1.22.44.53-.17.78-.59.85-1.11.19-1.38-.07-2.68-.81-3.86-.3-.48-.71-.81-1.31-.66-.56.15-.84.6-.91 1.16-.04.32-.06.63-.11 1.11-.29-.49-.46-.89-.72-1.2-.67-.82-1.75-.63-2.08.37-.1.3-.15.65-.11.96.11.81.27 1.61.44 2.41.09.41.21.84.4 1.21.42.81 1.19.85 1.71.1.18-.26.27-.6.35-.91.09-.34.13-.7.2-1.11h.01Zm-12.57-39.7c-.9.3-.85-.79-1.42-.92-.72 1.29-.22 3.18 1.12 4.27 1.19.96 3.09.82 4.47-.42-1.57-1.87-3.17-3.75-4.17-6.22-.44.49-.77.86-1.09 1.22.44.72 1.11 1.2 1.08 2.08Zm-32.21 8.4c.16-.52.49-.53.72-.65.58-.3 1.17-.58 1.74-.91.3-.17.49-.46.36-.84-.15-.43-.52-.47-.9-.42-.26.03-.52.1-.75.2-.42.18-.84.39-1.23.63-1.1.66-1.19.88-.89 2.17.06.25.09.52.16.77.2.72.37.75 1.04.42.5-.25 1.03-.44 1.56-.58.41-.11 1.07.23 1.18.56.16.47-.16.76-.47.99-.36.26-.78.43-1.19.65-.22-.28-.35-.46-.49-.64-.26-.34-.57-.56-1.02-.34-.37.2-.46.66-.27 1.13.3.75 1.07 1.18 1.93 1.03 1.28-.22 2.15-.94 2.58-2.17.44-1.26-.23-2.46-1.55-2.63-.49-.06-1.03.1-1.54.21-.29.06-.56.23-.98.41Zm9.06-.47c-.13-1.31-.82-2.78-1.7-3.51-.82-.7-2.27-.58-2.64.65-.4 1.34-.42 2.64-.07 3.96.08.31.23.61.41.89.9 1.39 2.66 1.34 3.42-.13.29-.56.39-1.23.58-1.85Zm29.47 13.86c-.55.64-.6.95-.25 1.44.46.65 1.13.89 1.9.79 1.05-.14 1.82-.72 2.37-1.59.46-.74.64-1.53.19-2.33-.46-.84-1.25-1.12-2.16-1.1-.31 0-.62.03-.93.04-.03-.06-.06-.13-.09-.18.18-.14.35-.31.55-.41.32-.16.68-.25.99-.43.13-.08.27-.33.24-.47-.03-.14-.27-.33-.41-.32-.49.03-.98.08-1.45.21-1.22.33-1.48.75-1.31 1.99.03.2.04.39.07.59.16.98.63 1.2 1.51.78.32-.15.67-.29 1.02-.3.58-.03.82.37.64.91-.3.89-1.34 1.27-2.16.8-.22-.13-.44-.27-.72-.42Zm-69.13 25.35c-1-.16-1.21-.32-1.16-.94.06-.78.41-1.46 1.01-1.96.62-.51 1.14-.28 1.22.51.02.26 0 .53-.03.78-.11.91-.51 1.7-1.01 2.44-.48.71-1 1.38-1.52 2.06-.23.3-.62.57-.35 1.02.26.43.65.32 1.05.21.34-.09.71-.11 1.07-.14.46-.03.93 0 1.38-.06.56-.07.89-.39.87-.77-.01-.39-.36-.66-.94-.67-.47 0-.94.04-1.48.06.51-.9 1-1.67 1.39-2.49.44-.92.74-1.91.5-2.96-.24-1.07-1.02-1.51-2.07-1.2-1.36.41-2.49 2.37-2.08 3.72.11.37.43.75.76.98.55.37 1.05.13 1.38-.59Zm65.99-24.67c.04.4.04.76.11 1.1.12.54.25 1.09.48 1.58.09.18.49.33.73.29.18-.03.39-.34.44-.56.06-.23-.03-.51-.06-.77-.12-.8-.25-1.6-.37-2.34.37-.23.67-.35.85-.56.17-.2.29-.53.24-.77-.03-.18-.35-.34-.56-.43-.19-.08-.42-.06-.64-.08-.03-.26-.07-.46-.06-.65.02-.68.07-1.37.11-2.06.02-.34.03-.68-.36-.83-.39-.16-.61.09-.81.37-.13.19-.25.39-.4.56-.64.71-1.31 1.38-2.28 1.65-.2.06-.32.34-.48.52.22.16.42.44.65.47.3.03.65-.09.93-.23.43-.22.82-.5 1.33-.81v2.01c-.39.25-.81.46-1.15.77-.15.14-.23.47-.19.68.03.13.36.25.56.27.29.01.57-.09.92-.15Zm-61.07 49.86c-.2-.89-.28-1.75-.58-2.53-.49-1.28-1.47-1.35-2.28-.25-.06.08-.11.16-.15.25-.67 1.67-.79 3.36-.18 5.07.21.58.6 1.04 1.28 1.04.63 0 1.06-.42 1.24-.97.28-.86.45-1.75.66-2.63Zm-1.27-27.26c.5-.35.82-.55 1.13-.78.25-.18.48-.41.31-.74-.18-.35-.49-.23-.77-.12-1.29.47-1.83 1.23-1.83 2.7 0 .28.13.66.34.84.27.23.62.08.88-.18.31-.3.64-.57 1.12-.47.22.77.17 1.09-.19 1.45-.39.39-.82.35-1.27.13-.09-.04-.2-.11-.27-.09-.27.06-.6.09-.77.27-.27.28-.12.65.14.86.27.22.61.4.95.47.96.21 1.74-.13 2.34-.91.62-.8.73-1.67.36-2.6-.25-.61-.73-.91-1.4-.9-.28 0-.56.03-1.07.05Zm28.01 30.41c.13-.06.34-.13.54-.23 1.74-.9 3.49-1.8 5.23-2.7.32-.16.65-.32.96-.49.6-.35.81-.84.56-1.29-.26-.46-.7-.49-1.36-.1-.73.44-1.47.86-2.2 1.3-1.07.64-2.15 1.25-3.2 1.93-.38.24-.7.59-.97.95-.21.29 0 .61.42.64h.01Zm38.1-18.49c.43-.2.86-.37 1.26-.57 1.64-.84 3.27-1.68 4.91-2.52.06-.03.11-.06.17-.1.39-.22.57-.54.44-.98-.11-.39-.46-.55-.96-.46-.19.04-.38.13-.56.19-1.9.7-3.57 1.82-5.16 3.05-.2.16-.41.34-.55.56-.09.14-.13.4-.06.54.07.13.3.18.5.29h.01Zm.53-17.4c.06.56.08.92.14 1.26.09.58.18 1.17.32 1.74.08.34.32.61.72.55.4-.06.5-.37.52-.73v-.2c-.14-1.57-.26-3.15-.44-4.71-.02-.25-.25-.55-.48-.67-.32-.18-.67-.01-.85.29-.49.82-.94 1.65-1.4 2.48-.03.06-.07.13-.05.19.05.21.06.49.2.59.13.09.44.04.61-.06.22-.13.37-.36.72-.74Zm-19.16 26.52c.24-.06.4-.08.55-.15 1.84-.8 3.67-1.6 5.51-2.41.12-.05.23-.13.33-.22.45-.36.58-.82.35-1.2-.23-.37-.69-.43-1.22-.14-.49.27-.97.56-1.47.81-1.08.56-2.18 1.08-3.25 1.65-.4.22-.79.49-1.12.8-.13.11-.16.43-.1.61.04.13.3.18.42.25Zm-39.29 17.87c.03.1.05.21.08.31.24.03.49.13.7.08.41-.09.83-.23 1.21-.42 1.68-.84 3.34-1.7 5.01-2.55.09-.04.18-.09.25-.15.32-.27.39-.61.22-.98-.16-.35-.6-.51-1.01-.35-.15.06-.29.15-.43.23-1.72 1.03-3.44 2.06-5.15 3.11-.32.2-.59.47-.88.71Zm48.14-86.32v.96c.2-.41.43-.64 0-.96Zm-66.19 14.87c-.02-.63-.1-1.11-.06-1.59.09-1.04.19-2.09.37-3.12.11-.66.47-1.26 1.03-1.63.9-.6 1.78-1.27 2.77-1.67 13.87-5.56 27.77-11.04 41.63-16.62 12.25-4.93 24.45-9.96 36.67-14.93.76-.31 1.56-.51 2.36-.72.72-.18.93-.03.97.68.04.66.03 1.32.04 1.98 0 .37-.16.62-.51.76-.27.11-.54.25-.81.36-9.04 3.87-18.09 7.74-27.14 11.61-11.5 4.92-23 9.82-34.49 14.77-6.92 2.99-13.8 6.06-20.7 9.1-.66.29-1.31.62-2.15 1.03Zm7.05-4.93c.74.01 1.46-.63 1.47-1.32 0-.65-.61-1.25-1.28-1.26-.74-.01-1.44.63-1.45 1.34 0 .68.55 1.23 1.26 1.25Zm-5.17.6c0 .7.58 1.27 1.24 1.24.65-.02 1.25-.61 1.27-1.27.02-.69-.62-1.38-1.27-1.37-.65.01-1.25.68-1.24 1.4Zm8.47-3.53c-.02.56.22.93.63 1.06.46.14 1.36-.39 1.67-.99.21-.39.12-.85-.22-1.15-.05-.04-.1-.09-.15-.12-.35-.22-.72-.3-1.11-.08-.54.3-.76.78-.82 1.29Z" class="cls-2_tablet"/>
    <path d="M508.85 105.14c.06 1.54.15 3.08.17 4.62.02 1.44 0 2.89-.06 4.33-.04.92-.48 1.69-1.06 2.39-.76.93-1.68 1.67-2.72 2.26-3.48 2-6.95 4.01-10.46 5.98-2.38 1.34-4.8 2.61-7.2 3.9-1.19.63-2.39 1.24-3.61 1.81-.41.19-.88.28-1.33.3-.86.04-1.21-.24-1.35-1.1-.27-1.65-.6-3.31-.72-4.98-.32-4.56-.72-9.11-.67-13.69.04-3.64.47-7.21 1.41-10.72.87-3.24 1.88-6.43 3.28-9.5 2.17-4.75 5.39-8.69 9.21-12.21 2.7-2.49 5.77-4.35 9.16-5.73 2.26-.92 4.51-1.84 6.9-2.37s4.8-.92 7.25-.7c1.01.09 2.05.25 2.98.61 2.87 1.15 5.72 2.35 8.53 3.63 3.19 1.46 5.5 3.93 7.27 6.89.81 1.35 1.52 2.77 2.16 4.2 1.26 2.8 1.65 5.81 1.97 8.81.21 1.92.28 3.87.41 5.81.01.2 0 .41.07.59.32.99-.09 1.68-.94 2.13-1.54.82-3.1 1.6-4.65 2.4-4.25 2.2-8.63 4.07-13.07 5.84-.95.38-1.92.67-2.91.96-.41.12-.84.14-1.26.16-.63.03-1.08-.29-1.31-.85-.18-.45-.35-.94-.39-1.42-.24-2.49-.44-4.98-.67-7.46-.15-1.64-.39-3.27-.97-4.82a2.523 2.523 0 0 0-2.46-1.63c-.81.04-1.47.36-1.81 1.15-.1.24-.2.49-.3.73-.5 1.13-.4 2.08.3 3.2 1.57 2.5 2.94 5.13 4.35 7.73.36.66.62 1.38.84 2.1.22.72 0 1.28-.5 1.56-.53.3-1.19.16-1.64-.46-.88-1.23-1.73-2.48-2.53-3.77-.55-.88-.97-1.84-1.45-2.76l-.25.06h.02Zm.03-32.64c-7 1.79-12.71 5.49-17.47 10.8-4.68 5.22-7.2 11.43-8.81 18.25 8.37.59 16.63 1.17 24.88 1.75.12-1.01.13-1.01-.25-1.68-1.94-3.48-3.57-7.1-5.18-10.74a7.43 7.43 0 0 1-.5-1.6c-.04-.23.12-.63.3-.72.19-.09.59.03.77.2.33.31.59.71.83 1.1 1.41 2.3 2.8 4.6 4.21 6.91.17.27.35.53.56.85.09-.18.15-.26.18-.35.35-.96.74-1.89 1.66-2.5.18-.11.24-.52.23-.78-.13-1.94-.29-3.87-.43-5.8-.24-3.44-.48-6.88-.7-10.33-.11-1.77-.18-3.53-.27-5.36Zm-26.69 57.16c.44-.1.71-.12.95-.22 1.03-.42 2.1-.8 3.08-1.33 2.6-1.41 5.18-2.86 7.74-4.34 3.65-2.11 7.27-4.25 10.91-6.37 1.87-1.09 2.83-2.64 2.75-4.86-.09-2.56-.06-5.13-.09-7.69 0-.09-.05-.18-.1-.36h-.95c-1.28-.04-2.57-.06-3.85-.13-2.4-.14-4.8-.25-7.2-.47-3.9-.35-7.79-.79-11.69-1.17-.47-.04-.94-.04-1.53-.07-.27 1.94-.59 3.75-.76 5.58-.46 5.06-.09 10.12.08 15.18.05 1.38.18 2.75.32 4.13.06.68.22 1.34.34 2.14Zm27.83-57.52c.55 7.46 1.08 14.8 1.62 22.15.35.05.65.08.93.14 1.47.31 2.62.99 3.15 2.52.36 1.05.92 2.03 1.05 3.17.02.17.11.33.2.6.34-.31.58-.53.81-.75 4.45-4.35 8.51-9.07 12.67-13.69 1.12-1.25 2.2-2.54 3.3-3.8.37-.42.46-.84.11-1.33-1.15-1.61-2.31-3.23-4.04-4.27-1.38-.83-2.79-1.63-4.25-2.3-1.91-.88-3.88-1.63-5.83-2.42-.48-.2-1-.34-1.51-.44-2.77-.55-5.5-.11-8.21.46v-.02Zm3.45 36.8c-.15.2-.33.34-.4.54-.15.4.53 1.3.95 1.25.15-.02.4-.34.37-.44-.13-.4-.34-.77-.55-1.13-.05-.09-.21-.12-.38-.22Zm20.11-55.73c-1.06-.81-1.17-1.24-.91-2.38.15-.66.15-1.35.19-2.04 0-.13-.13-.26-.3-.55-.5.98-.17 2.03-.74 2.86-.29-.53-.56-1.02-.9-1.63-.39.53-.3.92-.11 1.24.69 1.17.37 2.24-.2 3.34-.38.72-.6 1.53-.86 2.3-.11.33-.11.69-.08 1.06.65-.42.77-1.15 1.07-1.76.3-.63.59-1.27.88-1.89.07.02.13.03.2.05l.06.53c.13 1.77.27 3.53.41 5.31 0 .06 0 .14.02.2.13.35.03.92.51.96.64.06.15-.65.5-.92.11.13.21.25.3.37.54.78 1.29 1.2 2.22 1.33.26.04.56 0 .77.12 1.01.61 1.96.3 2.92-.11.26-.11.53-.2.85-.32.13 1.07-.31 1.88-.94 2.56-.76.81-1.31 1.7-1.76 2.7-.83 1.82-2.28 2.81-4.3 3.04-2.06.23-4.07-.04-6.08-.47-.22-.05-.44-.13-.65-.22-1.57-.63-2.13-1.63-1.8-3.27.14-.71.34-1.41.56-2.09.43-1.3.64-2.61.43-3.98-.15-.95.05-1.83.55-2.65.38-.61.77-1.22 1.15-1.84.22-.36.42-.73.53-1.23-.2.11-.4.23-.6.35-.65.38-1.31.76-1.97 1.13-.38.22-.79.34-1.25.15-.12-.54.31-.75.65-.97.72-.46 1.47-.87 2.21-1.3.3-.18.6-.38.95-.61-.83-.82-2.1-.32-3.02-1.22.46-.15.77-.32 1.1-.35 1.06-.1 2.02.23 2.89.8.34.22.62.39.94-.13-.23-.27-.51-.54-.7-.87-.35-.58-.72-1.17-.96-1.8-.21-.56.02-.94.6-.98.87-.06 1.23-.63 1.59-1.29.29-.54.6-1.11 1.02-1.55.58-.63 1.28-.49 1.69.26.14.25.24.54.31.83.2.85.3 1.73.82 2.49.18.27.14.69.21 1.13.18-.13.38-.22.49-.37.74-.96 1.5-1.91 2.17-2.92.52-.77 1.04-1.52 1.84-2.03.56-.36 1.17-.6 1.86-.53 1 .09 1.54.87 1.21 1.8-.13.36-.34.73-.61 1-.53.54-1.08 1.07-1.69 1.49-1.27.88-2.59 1.7-3.89 2.53-.69.45-1.37.91-1.77 1.67-.13.25-.37.44-.56.65h-.01Zm7.61-7.92c-.79-.22-1.11-.15-1.74.33-1.14.86-1.68 2.16-2.37 3.35 1.57-.97 3.25-1.8 4.11-3.68Zm-12.12 14.89c.73-.49.79-.87.22-1.45-.69.62-.72.82-.22 1.45Zm4.04 56c0-2.5 2.84-4.43 5.17-3.52 1.4.54 2.18 2.03 1.85 3.52-.37 1.7-1.99 3.05-3.73 3.15-2.11.13-3.48-1.42-3.3-3.15Zm-11.04 8.02c.02 2.08-1.85 4.11-3.92 4.25-1.62.11-2.89-1.11-2.82-2.72.08-1.74 1.87-3.81 3.59-4.13 1.78-.33 3.13.79 3.15 2.59Zm-1.96.13c.02-.66-.38-1.06-1.02-1.03-1.18.08-2.18 1.25-2.06 2.42.06.63.44.93 1.06.85.96-.12 1.99-1.27 2.02-2.25Zm-17.44 9.34c-.02 1.48-.59 2.57-1.75 3.34-.98.65-2.04.75-3.08.15-1.04-.61-1.43-1.61-1.34-2.77.09-1.16.69-2.13 1.47-2.94.71-.73 1.67-.92 2.66-.62 1.07.32 1.7 1.09 1.96 2.16.06.25.06.52.08.69Zm-4.49.64c.03.47.13.94.67 1.17.39.16.93-.03 1.29-.47.36-.44.58-.96.48-1.54-.1-.61-.53-.89-1.14-.78-.84.16-1.31.73-1.31 1.61Zm-15.03 8.36c-.08 1.58-.58 2.71-1.83 3.39-1.47.79-3.23.11-3.81-1.44-.23-.63-.27-1.27-.11-1.93.23-.98.84-1.73 1.56-2.34 1.17-.98 3.03-.5 3.76.94.25.49.33 1.05.43 1.39Zm-4.06.42c-.02.75.37 1.28.92 1.27.6 0 1.17-.73 1.18-1.47 0-.65-.41-1.13-.96-1.12-.68.02-1.12.53-1.14 1.32Zm69.03-46.94c-.07.41-.11.77-.2 1.11-.08.31-.17.65-.35.91-.52.75-1.29.71-1.71-.1-.19-.37-.31-.79-.4-1.21-.18-.8-.33-1.6-.44-2.41-.04-.31.01-.66.11-.96.33-1 1.42-1.19 2.07-.37.26.32.43.71.72 1.2.04-.47.06-.79.11-1.11.08-.56.34-1.01.91-1.16.6-.15 1.01.18 1.31.66.74 1.19 1 2.48.81 3.86-.07.51-.32.94-.85 1.11-.51.16-.9-.1-1.22-.44-.29-.3-.53-.66-.86-1.1h-.01Zm1.83.53c.43-1.55 0-3.11-.95-3.56-.36 1.86-.08 2.99.95 3.56Zm-3.92-3.09c-.27 1.29.03 3.08.63 3.87.64-1.52.36-3.44-.63-3.87Z" class="cls-11_tablet"/>
    <path d="M535.55 56.46c.02-.89-.65-1.36-1.09-2.08.32-.36.65-.73 1.09-1.22 1 2.47 2.6 4.34 4.17 6.22-1.38 1.23-3.27 1.38-4.47.42-1.35-1.08-1.84-2.98-1.12-4.27.56.13.51 1.22 1.42.92Zm-32.21 8.39c.42-.18.69-.34.98-.41.51-.11 1.04-.27 1.54-.21 1.32.16 1.99 1.37 1.55 2.63-.43 1.23-1.3 1.96-2.58 2.17-.86.15-1.63-.28-1.93-1.03-.2-.48-.1-.94.27-1.13.44-.23.75 0 1.01.34.14.18.27.35.5.64.41-.22.83-.39 1.19-.65.31-.23.63-.52.47-.99-.11-.32-.77-.66-1.18-.56-.53.15-1.07.33-1.56.58-.67.34-.84.29-1.04-.42-.07-.25-.11-.51-.17-.77-.3-1.28-.22-1.51.89-2.17.39-.23.81-.44 1.23-.63.23-.11.5-.17.76-.2.37-.05.75-.01.89.42.13.37-.06.66-.36.84-.57.32-1.16.61-1.75.91-.23.12-.56.13-.72.65Zm9.07-.47c-.19.62-.29 1.29-.58 1.85-.76 1.48-2.53 1.53-3.42.13-.18-.27-.33-.58-.41-.89-.35-1.32-.33-2.63.07-3.96.37-1.23 1.81-1.35 2.64-.65.88.74 1.58 2.2 1.7 3.51Zm-2.45 1.34c.73-.85.58-1.66.29-2.44-.22-.59-.48-1.22-1.39-1.38 0 1.4.12 2.65 1.1 3.82Zm31.92 12.53c.27.16.49.3.72.42.81.47 1.85.08 2.16-.8.18-.54-.05-.93-.64-.91-.34.01-.7.15-1.02.3-.88.42-1.35.2-1.51-.78-.03-.2-.04-.39-.07-.59-.17-1.24.09-1.67 1.31-1.99.47-.13.96-.18 1.45-.21.14 0 .38.18.41.32.03.14-.11.39-.24.47-.31.18-.67.27-.99.43-.2.1-.37.27-.55.41.03.06.06.13.09.18.31-.01.62-.03.93-.04.92-.03 1.7.26 2.16 1.1.44.8.27 1.6-.19 2.33-.55.88-1.33 1.46-2.37 1.59-.77.1-1.43-.14-1.9-.79-.35-.49-.29-.8.25-1.44Zm-69.13 25.34c-.33.72-.83.96-1.38.59-.33-.22-.65-.6-.76-.98-.41-1.35.72-3.31 2.07-3.72 1.05-.32 1.83.13 2.07 1.2.23 1.05-.06 2.03-.5 2.96-.39.82-.89 1.6-1.39 2.49.54-.03 1.01-.07 1.48-.06.57.01.92.28.94.67.01.39-.3.7-.87.77-.46.06-.92.03-1.38.06-.36.03-.73.04-1.07.14-.41.11-.79.22-1.05-.21-.27-.45.12-.72.35-1.02.51-.68 1.05-1.35 1.52-2.06.5-.74.9-1.54 1.01-2.44.03-.26.06-.53.03-.79-.09-.79-.6-1.01-1.22-.51-.61.5-.95 1.18-1.01 1.96-.04.62.16.77 1.16.94Zm65.99-24.67c-.35.06-.64.16-.92.15-.2 0-.53-.13-.56-.27-.04-.21.03-.54.19-.68.34-.3.76-.51 1.15-.77v-2.01c-.51.32-.9.6-1.33.81-.29.14-.63.27-.93.23-.23-.03-.43-.3-.65-.47.16-.18.29-.46.48-.52.97-.27 1.64-.95 2.28-1.65.15-.17.27-.37.4-.56.2-.28.41-.54.81-.37.38.16.38.49.36.83-.04.68-.09 1.37-.11 2.06 0 .2.04.39.06.65.22.02.45 0 .64.08.22.09.53.25.56.43.04.24-.08.57-.24.77-.17.22-.48.33-.85.56.12.75.25 1.54.37 2.34.04.26.13.54.06.77-.06.22-.27.54-.44.56-.24.03-.65-.11-.73-.29-.24-.49-.36-1.04-.48-1.58-.08-.34-.08-.7-.11-1.1Zm-61.07 49.86c-.22.87-.39 1.77-.66 2.63-.18.55-.6.96-1.24.97-.69 0-1.07-.46-1.28-1.04-.62-1.71-.48-3.41.18-5.07.04-.09.09-.18.15-.25.81-1.1 1.78-1.03 2.28.25.3.78.39 1.64.58 2.53Zm-1.99 2.17c.83-1.33.84-3.44.04-4.56-.64 1.53-.6 2.98-.04 4.56Z" class="cls-11_tablet"/>
    <path d="M476.41 101.51c.51-.03.79-.04 1.07-.05.66-.01 1.15.28 1.4.9.37.92.27 1.79-.36 2.6-.6.77-1.38 1.11-2.34.91-.34-.08-.67-.26-.95-.47-.27-.21-.42-.58-.15-.86.17-.18.5-.2.77-.27.08-.02.19.05.27.1.45.22.88.26 1.27-.13.36-.36.41-.68.19-1.45-.48-.1-.81.17-1.12.47-.26.25-.61.41-.88.18-.21-.18-.34-.55-.34-.84 0-1.47.55-2.22 1.83-2.7.29-.11.6-.23.77.12.17.33-.06.56-.31.74-.3.23-.62.43-1.13.78Zm28.01 30.4c-.42-.03-.63-.35-.42-.64.26-.36.59-.71.96-.95 1.05-.68 2.13-1.29 3.2-1.93.73-.44 1.47-.85 2.2-1.3.65-.39 1.1-.37 1.36.09.25.44.04.93-.56 1.29-.31.18-.64.33-.96.49-1.75.9-3.49 1.8-5.24 2.7-.2.1-.41.18-.54.23h-.01Zm38.09-18.49c-.2-.11-.43-.15-.5-.29-.07-.14-.03-.39.06-.54.14-.22.35-.39.55-.56 1.59-1.23 3.26-2.34 5.16-3.05.18-.07.37-.16.56-.19.5-.1.85.07.96.46.13.44-.05.77-.44.98-.06.03-.11.06-.17.09-1.64.84-3.27 1.69-4.91 2.52-.41.21-.83.38-1.26.57h-.01Zm.54-17.39c-.35.37-.5.61-.72.74-.16.1-.48.15-.61.06-.14-.09-.15-.39-.2-.59-.01-.06.02-.13.05-.19.46-.83.92-1.67 1.4-2.48.18-.31.53-.47.85-.29.22.12.44.42.48.67.18 1.57.3 3.14.44 4.71v.2c-.02.35-.13.67-.52.73s-.63-.22-.72-.55c-.14-.57-.23-1.16-.32-1.74-.06-.35-.08-.7-.14-1.26Zm-19.16 26.53c-.11-.06-.38-.12-.42-.25-.06-.18-.03-.49.09-.61.34-.31.72-.58 1.12-.8 1.07-.57 2.17-1.1 3.25-1.65.5-.25.98-.54 1.47-.81.54-.29.99-.23 1.22.14.24.37.1.84-.35 1.2-.1.08-.21.16-.33.22-1.83.8-3.67 1.61-5.51 2.41-.15.06-.32.08-.55.15Zm-39.29 17.87c.29-.24.56-.52.88-.71 1.71-1.05 3.43-2.08 5.15-3.11.14-.08.28-.18.43-.23.41-.15.85 0 1.01.35.17.37.1.71-.22.98-.08.06-.17.11-.25.15-1.67.85-3.33 1.72-5.01 2.55-.38.19-.79.33-1.21.42-.22.05-.47-.04-.7-.08-.03-.1-.05-.21-.08-.31Zm48.13-86.33c.43.32.2.55 0 .96v-.96Zm-59.15 9.95c-.7-.01-1.26-.57-1.26-1.25s.7-1.35 1.45-1.34c.67.01 1.29.61 1.28 1.26 0 .69-.72 1.34-1.47 1.32Zm-5.18.61c0-.72.6-1.39 1.24-1.4.65-.01 1.29.68 1.27 1.37-.02.65-.61 1.25-1.27 1.27-.67.03-1.24-.55-1.24-1.24Zm8.46-3.53c.06-.51.29-.99.82-1.29.39-.22.76-.13 1.11.08.06.03.11.08.15.12.34.3.43.76.22 1.15-.32.6-1.21 1.13-1.67.99-.41-.13-.65-.49-.63-1.06Z" class="cls-11_tablet"/>
    <path d="M513.47 108.94c.17.09.32.13.38.22.21.37.42.74.55 1.13.03.11-.22.42-.37.44-.43.05-1.1-.85-.95-1.25.07-.19.25-.34.4-.54Zm27.72-63.65c-.86 1.87-2.54 2.71-4.11 3.68.7-1.19 1.22-2.48 2.37-3.35.63-.47.95-.54 1.74-.33Zm-12.12 14.89c-.51-.63-.48-.84.22-1.45.57.59.51.96-.22 1.45Zm-8.96 64.14c-.03.98-1.07 2.13-2.02 2.25-.62.08-1-.22-1.06-.85-.11-1.18.88-2.35 2.06-2.42.64-.04 1.04.36 1.02 1.03Zm29.84-27.65c-1.02-.57-1.3-1.71-.95-3.56.94.46 1.37 2.01.95 3.56Zm-3.91-3.09c.99.43 1.26 2.36.63 3.87-.6-.79-.9-2.58-.63-3.87Zm-36.08-27.87c-.98-1.17-1.08-2.42-1.1-3.82.91.16 1.17.79 1.39 1.38.29.78.44 1.58-.29 2.44Zm-34.27 65.26c-.55-1.58-.6-3.03.04-4.56.8 1.11.79 3.23-.04 4.56Z" class="cls-2_tablet"/>
    <path d="M482.19 129.65c-.13-.8-.28-1.47-.34-2.14-.13-1.37-.27-2.75-.32-4.13-.18-5.06-.54-10.12-.08-15.18.17-1.82.49-3.63.76-5.58.59.03 1.06.03 1.53.07 3.9.39 7.79.82 11.69 1.17 2.39.22 4.8.34 7.2.47 1.28.08 2.57.09 3.85.13.32.01.64 0 .95 0 .05.18.1.27.1.36.03 2.56 0 5.13.09 7.69.08 2.22-.87 3.77-2.75 4.86-3.64 2.11-7.27 4.27-10.91 6.37-2.56 1.48-5.14 2.94-7.74 4.34-.98.53-2.04.91-3.08 1.33-.23.09-.5.12-.95.22Zm-3.09 13.45c.02-.79.46-1.3 1.14-1.32.56-.01.98.47.96 1.12 0 .74-.59 1.46-1.18 1.47-.55 0-.94-.53-.92-1.27Z" class="cls-12_tablet"/>
    <path d="M508.88 72.5c.09 1.83.15 3.6.27 5.36.22 3.44.46 6.89.7 10.33.14 1.93.3 3.87.43 5.8.02.26-.05.66-.23.78-.91.61-1.31 1.54-1.66 2.5-.03.09-.09.17-.18.35-.21-.32-.4-.58-.56-.85-1.4-2.3-2.8-4.61-4.21-6.91-.24-.39-.5-.78-.83-1.1-.18-.16-.58-.29-.77-.2-.18.09-.35.49-.3.72.09.54.28 1.08.5 1.6 1.6 3.64 3.24 7.26 5.18 10.74.38.68.38.68.25 1.68l-24.88-1.75c1.62-6.83 4.13-13.02 8.82-18.25 4.77-5.32 10.47-9.02 17.47-10.8Zm-9.43 63.05c2.04 0 2.04-3.17 0-3.17s-2.04 3.17 0 3.17Z" style="fill:#757b9b"/>
    <path d="M510.01 72.14c2.71-.56 5.43-1.01 8.21-.46.51.1 1.03.24 1.51.44 1.95.79 3.92 1.54 5.83 2.42 1.46.67 2.87 1.47 4.25 2.3 1.73 1.04 2.89 2.66 4.04 4.27.35.49.26.91-.11 1.33-1.1 1.27-2.18 2.55-3.3 3.8-4.16 4.62-8.22 9.35-12.67 13.69-.23.23-.48.44-.81.75-.09-.27-.18-.42-.2-.6-.13-1.13-.69-2.11-1.05-3.17-.53-1.52-1.68-2.2-3.15-2.52-.29-.06-.58-.09-.93-.14-.54-7.35-1.07-14.68-1.62-22.15v.02Zm10.02 52.05-.32-.28v2.24s.06-.06.09-.08l-.32.25s.09-.06.13-.08l-.38.16c.05-.02.11-.04.17-.04l-.42.06h.16l-.42-.06h.04v-3.05c-.08.03-.15.04-.23.06l.42-.06c-.2.03-.41.05-.62.08-.07.01-.13.02-.2.04-.17.06-.36.11-.51.22-.04.03-.27.18-.37.28-.11.11-.2.24-.29.37-.01.02-.03.04-.04.06-.08.14-.13.28-.18.43 0 .02-.01.04-.02.06-.03.16-.06.32-.06.47 0 .34.08.6.24.9.14.27.39.49.65.65.18.11.38.18.59.19.21.04.42.04.63-.03.21-.05.39-.15.54-.28.17-.11.31-.26.41-.44l.16-.38a1.5 1.5 0 0 0 0-.84l-.16-.38c-.14-.24-.33-.42-.57-.57 0 0-.01-.01-.03-.02l.32.25-.03-.03.25.32s-.02-.03-.03-.04l.16.38s-.01-.04-.01-.06l.06.42v-.07l-.06.42s.01-.07.03-.1l-.16.38s.04-.07.06-.1l-.25.32s.05-.06.08-.08l-.32.25s.05-.03.08-.04l-.38.16c.08-.03.17-.05.26-.06l-.42.06c.21-.03.42-.05.63-.08.07-.01.15-.03.21-.05l.38-.16c.18-.1.34-.23.44-.41.09-.1.17-.22.2-.35.1-.19.15-.39.14-.61l-.06-.42-.16-.38c-.1-.18-.24-.34-.41-.44-.15-.14-.33-.23-.54-.28-.16-.04-.33-.06-.5-.07H519c-.17.01-.33.03-.5.06-.03 0-.06.01-.08.02-.15.05-.3.12-.44.18-.03.01-.05.03-.08.04-.13.09-.26.19-.38.29-.03.02-.04.04-.07.07-.15.15-.27.31-.33.51-.1.19-.15.39-.14.61l.06.42c.08.27.21.5.41.7l.32.28c.15.15.31.27.51.33.19.1.39.15.61.14.22 0 .43-.04.61-.14.2-.06.37-.17.51-.33l.25-.32c.15-.25.22-.51.22-.8l-.06-.42c-.08-.27-.21-.5-.41-.7h.03Z" class="cls-15_tablet"/>
    <path d="M429.61 122.27c-1.58.02-2.37-.84-2.71-2.13-.28-1.02-.02-2 .84-2.65 1.1-.83 2.17-.41 3.21.35.44-.29.87-.58 1.29-.86 8.25-5.47 16.51-10.94 24.76-16.4.33-.22.65-.45.99-.66.39-.24.63-.51.65-1.02.04-.74.57-1.2 1.22-1.46.98-.4 1.87.04 2.17 1.02.3.96-.12 1.67-1.17 1.94-.23.06-.5.14-.71.07-.84-.3-1.44.16-2.07.57-8.77 5.77-17.54 11.54-26.31 17.3-.1.07-.18.15-.34.27.08 1.2-.11 2.37-1.27 3.23.32.8.59 1.57.91 2.31 7.94 18.6 15.89 37.19 23.79 55.8.56 1.32 1.33 2.12 2.61 2.79 9.04 4.71 18.03 9.49 27.05 14.25.38.2.77.39 1.18.6.15-.11.28-.2.4-.29 1.3-.97 2.42-.65 2.95.86.29.82.14 1.39-.51 1.86-.74.52-1.55.52-2.19-.04-.21-.17-.47-.39-.51-.63-.18-.92-.93-1.2-1.63-1.57-9.07-4.82-18.13-9.65-27.2-14.48-.74-.39-1.48-.75-2.11-1.07-.51-1.26-.94-2.42-1.43-3.56-7.49-17.68-14.97-35.36-22.46-53.05-.46-1.08-.9-2.16-1.4-3.35Zm112.12-63.55c-.17.42-.29.72-.41 1.02-1.1 2.72-4.65 3.15-6.49 1.73-1.3-1.01-2.1-2.23-2.34-3.84-.06-.42-.17-.84-.18-1.27-.19-3.29 3.03-5.39 5.65-4.96.98.16 1.74.76 2.37 1.51.75.9 1.23 1.93 1.47 3.08.06.32.14.64.22 1.03 1.73.48 3.47.97 5.2 1.45.25.07.52.11.75.23.53.26.74.75.55 1.21-.18.42-.58.6-1.16.45-1.02-.26-2.02-.54-3.03-.84-.84-.25-1.68-.52-2.59-.8Zm-4.3 1.54c1.2.01 1.64-.23 2.1-1.05.91-1.58.57-3.94-.75-5.2-.16-.16-.36-.28-.57-.38-1.61-.75-3.57.17-3.96 1.91-.27 1.2-.03 2.36.53 3.43.26.51.68.91 1.26 1.04.54.13 1.1.2 1.39.25Z" class="cls-10_tablet" id="secondary-color-2" data-name="secondary-color"/>
    <path d="M330.76 130.79c2.13.59 2.64 1.31 2.29 3.33-.51 2.9-1.53 5.62-2.8 8.26-.33.68-.81 1.12-1.53 1.43-1.27.54-2.51 1.18-3.74 1.77.34 2.44-.07 4.79-.3 7.15-.43 4.47-.9 8.93-1.25 13.41-.54 6.85-1.12 13.69-2.08 20.49-.84 6-1.52 12.03-2.29 18.04-.55 4.31-1.17 8.63-1.71 12.95-.37 2.85-.62 5.72-.98 8.56-.29 2.31-.48 4.64-1.2 6.88-.29.89-.69 1.65-1.4 2.25-1.25 1.04-2.51 2.01-4.08 2.57-.93.33-1.77.89-2.65 1.32-3.54 1.75-7.1 3.48-10.64 5.23-.25.12-.49.37-.62.62-.49.9-1.2 1.54-2.07 2.07-1.77 1.07-3.53 2.16-5.26 3.29-1.83 1.19-3.76 1.53-5.92 1.12-4.56-.86-8.98-2.2-13.44-3.42-5.81-1.58-11.62-3.12-17.44-4.67-.13-.03-.27-.04-.45-.07-.68.67-1.34 1.39-2.07 2.04-3.71 3.31-9.77 2.45-12.57-1.95-2.44-3.82-2.36-7.8-.55-11.82.47-1.05.79-2.19 1.76-2.98.23-.18.23-.74.19-1.11-.46-3.52-.95-7.03-1.43-10.54-.76-5.65-1.53-11.29-2.28-16.95-.7-5.29-1.37-10.59-2.05-15.89-.76-6.01-1.53-12.02-2.28-18.04-.68-5.39-1.39-10.77-2-16.17-.34-2.94-.53-5.9-.77-8.85-.03-.35.04-.7.08-1.16.38-.03.74-.12 1.06-.06 4.85.89 9.76 1.59 14.55 2.77 5.8 1.42 11.46 3.38 17.24 4.84 6.79 1.72 13.64 3.16 20.47 4.7.5.11 1.09.06 1.59-.09 1.25-.37 2.49-.78 3.68-1.29 9.51-4.03 19.01-8.08 28.51-12.14 1.82-.78 3.61-1.62 5.44-2.34 2.63-1.04 5.29-2 7.92-3.01 1.27-.49 2.49-1.07 3.07-2.55h.02Zm-98.67 38.53c1.86-.27 3.35.36 4.8 1.09 1.45.73 2.89 1.46 4.33 2.2 7.51 3.86 12.01 9.92 13.58 18.2.98 5.18 1.18 10.43 1.52 15.67.3 4.61.55 9.23.96 13.83.45 5.14 1 10.27 1.6 15.4.32 2.71.84 5.4 1.27 8.1.52.15.9.28 1.28.38 4.13 1.1 8.23 2.21 12.37 3.27 3.09.79 6.2 1.49 9.3 2.23 1.24.29 2.44.16 3.53-.46 2.18-1.24 4.34-2.54 6.47-3.9.71-.45 1.3-1.11 1.33-2.07.03-1.03.08-2.06.11-3.09.16-5.88.29-11.76.49-17.64.35-10.68.79-21.37 1.08-32.05.29-10.46.47-20.93.68-31.39 0-.3-.04-.6-.07-1.03-.47.18-.83.32-1.19.47-2.68 1.15-5.36 2.33-8.04 3.47-2.79 1.18-5.62 1.2-8.59.62-5.13-1.01-10.15-2.41-15.14-3.91-5.99-1.8-11.97-3.61-17.98-5.3a241.41 241.41 0 0 1-16.05-5.12c-.1-.03-.24.03-.56.1.98 6.93 1.95 13.84 2.94 20.92Zm64.58 73.4c.82-.44 1.45-.77 2.07-1.1 2.93-1.57 5.85-3.16 8.81-4.69.69-.35.99-.78 1.01-1.55.03-1.39.19-2.78.27-4.16.17-3.1.32-6.19.51-9.28.17-2.83.47-5.64.55-8.47.16-5.25.16-10.51.33-15.75.19-6.06.49-12.11.76-18.17.35-7.76.71-15.52 1.07-23.28.04-.87 0-1.75 0-2.8-4.6 1.82-9.02 3.55-13.55 5.34 0 1.45.03 2.84 0 4.23-.27 10.73-.54 21.46-.82 32.19-.17 6.29-.41 12.57-.57 18.86-.24 9.07-.46 18.14-.68 27.21 0 .41.14.82.24 1.44v-.03Zm-38.04.74c-.51-3.92-1.07-7.68-1.48-11.47-.56-5.04-1.09-10.09-1.5-15.14-.46-5.68-.73-11.38-1.14-17.07-.26-3.49-.72-6.97-1.61-10.37-1.23-4.67-3.34-8.81-7.31-11.79-.9-.67-1.76-1.4-2.67-2.06-1.79-1.3-3.69-2.41-5.76-3.22-1.22-.48-2.48-.84-3.8-.75-.78.05-.89.23-.79 1.03.14 1.02.26 2.05.4 3.07 1.08 7.69 2.19 15.37 3.24 23.07 1.1 8.09 2.14 16.2 3.22 24.3.18 1.37.39 2.72.6 4.13.89-.26 1.65-.55 2.44-.69 2.19-.4 4.36-.33 6.17 1.13 3.55 2.88 5.26 6.55 4.32 11.17-.22 1.08-.57 2.14-.88 3.26 2.2.47 4.38.92 6.56 1.38Zm-29.88-97.29c1.09.35 2.06.69 3.05.98 5.13 1.49 10.26 2.95 15.39 4.44 10.89 3.18 21.74 6.57 32.75 9.31.92.23 2 .23 2.9-.03 1.67-.47 3.3-1.14 4.91-1.83 2.44-1.05 4.8-2.26 7.25-3.24 7.29-2.94 14.6-5.79 21.91-8.69 3.29-1.31 6.58-2.65 9.89-3.93 1.24-.48 1.97-1.35 2.5-2.49 1.07-2.3 1.68-4.73 2.11-7.21.05-.28-.03-.57-.05-.82-1.05.58-1.98 1.21-2.99 1.63-4.65 1.89-9.37 3.65-14.01 5.59-9.23 3.87-18.42 7.85-27.64 11.74-1.56.66-3.22 1.09-4.85 1.59-.33.1-.72.11-1.07.07-1.24-.17-2.5-.31-3.72-.59-6.43-1.47-12.87-2.91-19.28-4.48-8.1-2-15.98-4.87-24.28-6.1-1.8-.27-3.61-.6-5.63-.93.29 1.74.55 3.3.82 4.99h.02Zm86.59 4.44c-.06.23-.09.32-.1.41-.49 8.73-.99 17.48-1.47 26.21-.25 4.57-.46 9.15-.68 13.71-.35 7.18-.68 14.35-1.04 21.52-.16 3.14-.4 6.27-.62 9.41-.3 4.25-.62 8.5-.93 12.75-.02.28.09.56.16 1.03.57-.44.98-.79 1.41-1.09 1.26-.88 1.93-2.08 2.07-3.61.11-1.25.25-2.5.38-3.75.33-3.3.61-6.61.99-9.91.52-4.45 1.13-8.9 1.69-13.35.67-5.43 1.36-10.86 1.98-16.3.72-6.24 1.4-12.49 2.05-18.73.65-6.29 1.24-12.59 1.84-18.89.06-.68 0-1.37 0-2.22-2.68.98-5.19 1.89-7.73 2.82Zm-68.84 86.95c.02-1.84-.94-3.2-2.38-3.69-1.8-.61-3.29.63-2.98 2.51.18 1.09.68 2.03 1.46 2.82 1.16 1.18 2.77.95 3.56-.53.23-.42.29-.92.35-1.11Z" class="cls-11_tablet"/>
    <path d="M326.29 128.01c-.5.26-.99.55-1.5.76-4.61 1.89-9.22 3.76-13.84 5.63-6.74 2.72-13.49 5.46-20.24 8.15-2.29.92-4.61 1.69-7.03 2.27-2.07.5-3.96.3-5.96 0-7.15-1.13-14.08-3.2-21.13-4.77-3.72-.83-7.48-1.52-11.21-2.32-3.42-.74-6.82-1.57-10.25-2.27-2.55-.52-5.13-.87-7.7-1.31-.43-.07-.86-.18-1.39-.3.81-.67 1.67-.65 2.51-.59 2.87.21 5.75.35 8.6.72 2.49.33 4.95.88 7.39 1.44 3.76.85 7.48 1.95 11.27 2.63 6.37 1.16 12.58 2.96 18.83 4.58 1 .26 1.98.54 2.97.82 2.73.77 5.31.21 7.89-.76 5.46-2.06 10.94-4.08 16.42-6.1 7.07-2.6 14.15-5.19 21.23-7.79.99-.36 1.96-.79 2.94-1.18l.21.39h-.02Z" class="cls-11_tablet"/>
    <path d="M240.59 126.75c.1-.25.11-.44.2-.48 1.6-.79 3.16-1.67 5.08-1.46 1.29.14 2.6.22 3.9.21 4.56-.02 9.06.54 13.56 1.23 3.06.47 6.12.97 9.18 1.48.8.13 1.58.34 2.36.54 7.87 2.15 15.74 4.31 23.61 6.49.8.22 1.58.54 2.37.8l-.09.3c-.73-.16-1.46-.3-2.19-.49-4.69-1.23-9.33-2.59-14.06-3.66-5.64-1.27-11.31-2.49-17.02-3.35-4.57-.69-9.21-.9-13.83-1.16-4.18-.23-8.36-.24-12.55-.35-.13 0-.25-.04-.49-.1Zm16.4-5.23c.99-1.63 2.61-1.72 4.08-2.08.2-.05.43.03.64.09.68.19 1.33.51 2.02.58 2.55.25 5.11.37 7.66.63 2.45.25 4.91.54 7.35.93 11.21 1.82 22.27 4.26 33.15 7.54.87.26 1.86.28 2.48 1.24-.75-.16-1.51-.28-2.25-.48-3.85-1.05-7.66-2.25-11.54-3.16-5.02-1.17-10.07-2.17-15.14-3.12-5.04-.94-10.12-1.49-15.25-1.69-4.04-.16-8.09-.32-12.13-.47h-1.09Z" class="cls-11_tablet"/>
    <path d="M232.09 169.32c-1-7.07-1.97-13.98-2.94-20.92.32-.05.46-.13.56-.1 5.29 1.89 10.63 3.61 16.05 5.12 6.02 1.69 12 3.5 17.98 5.3 5 1.5 10.01 2.9 15.14 3.91 2.97.59 5.8.55 8.59-.62 2.69-1.13 5.37-2.31 8.04-3.47.36-.15.72-.29 1.19-.47.03.42.08.73.07 1.03-.23 10.46-.39 20.93-.68 31.39-.3 10.69-.74 21.37-1.08 32.05-.19 5.88-.32 11.76-.49 17.64-.03 1.03-.09 2.06-.11 3.09-.02.96-.62 1.63-1.33 2.07-2.12 1.35-4.28 2.65-6.47 3.9-1.08.62-2.29.75-3.53.46-3.1-.74-6.21-1.44-9.3-2.23-4.13-1.06-8.25-2.18-12.37-3.27-.38-.1-.76-.22-1.28-.38-.43-2.71-.95-5.39-1.27-8.1-.6-5.13-1.15-10.26-1.6-15.4-.41-4.6-.66-9.22-.96-13.83-.34-5.24-.54-10.49-1.52-15.67-1.57-8.28-6.08-14.34-13.58-18.2-1.44-.74-2.88-1.48-4.32-2.21-1.46-.73-2.94-1.36-4.8-1.09ZM285 247c.81-.24.71-.82.73-1.27.07-1.3.1-2.6.1-3.91v-68.16c0-.18.02-.36 0-.54-.07-.73-.5-1.22-1.05-1.14-.64.09-.88.54-.9 1.15v.41c.02 3.1.03 6.2.05 9.3.18 20.61.37 41.22.56 61.83 0 .49 0 1 .07 1.48.05.31.28.59.41.86h.03Zm11.67-4.29c-.11-.61-.25-1.02-.24-1.43.21-9.07.42-18.14.68-27.21.17-6.29.41-12.57.57-18.86.29-10.73.55-21.46.82-32.19.03-1.38 0-2.78 0-4.23 4.52-1.78 8.94-3.52 13.55-5.34 0 1.06.03 1.93 0 2.8-.35 7.76-.72 15.52-1.07 23.28-.27 6.05-.57 12.11-.76 18.17-.16 5.25-.16 10.51-.33 15.75-.09 2.83-.39 5.65-.55 8.46-.19 3.1-.33 6.19-.51 9.28-.08 1.39-.23 2.78-.27 4.16-.02.77-.31 1.19-1.01 1.55-2.96 1.52-5.88 3.12-8.81 4.69-.62.33-1.25.66-2.07 1.1v.03Z" class="cls-2_tablet"/>
    <path d="M258.63 243.46c-2.18-.46-4.36-.92-6.56-1.38.3-1.12.66-2.18.88-3.26.93-4.63-.77-8.29-4.32-11.17-1.81-1.47-3.98-1.53-6.17-1.13-.79.15-1.54.43-2.44.69-.21-1.41-.42-2.77-.6-4.13-1.07-8.1-2.11-16.2-3.22-24.3-1.05-7.7-2.16-15.38-3.24-23.07-.15-1.02-.26-2.05-.4-3.07-.1-.8 0-.98.79-1.03 1.33-.09 2.58.28 3.8.75 2.07.8 3.96 1.92 5.76 3.22.91.66 1.78 1.38 2.67 2.06 3.97 2.98 6.08 7.12 7.31 11.79.9 3.4 1.35 6.87 1.61 10.37.42 5.69.69 11.38 1.14 17.07.41 5.06.94 10.1 1.5 15.14.42 3.78.97 7.55 1.48 11.47Zm-29.89-97.3c-.28-1.68-.54-3.25-.82-4.99 2.03.34 3.82.66 5.63.93 8.29 1.25 16.17 4.12 24.28 6.1 6.41 1.57 12.84 3.01 19.28 4.48 1.22.28 2.47.42 3.72.59.35.04.74.03 1.07-.07 1.63-.5 3.28-.93 4.85-1.59 9.22-3.89 18.41-7.87 27.64-11.74 4.64-1.95 9.35-3.7 14.01-5.59 1.01-.41 1.94-1.05 2.99-1.63.02.25.09.55.05.82-.44 2.48-1.05 4.91-2.11 7.21-.53 1.14-1.26 2.01-2.5 2.49-3.31 1.27-6.59 2.62-9.89 3.93-7.31 2.9-14.62 5.76-21.91 8.69-2.45.99-4.82 2.21-7.25 3.24-1.6.68-3.23 1.36-4.91 1.83-.91.25-1.98.25-2.9.03-11.02-2.74-21.86-6.13-32.75-9.31-5.12-1.5-10.26-2.96-15.39-4.44-.99-.29-1.96-.63-3.05-.98h-.02Zm52.36 12.46c.65-.99.65-1.29-.03-1.9-.58.86-.57.98.03 1.9Zm34.23-8.01c2.54-.93 5.05-1.84 7.73-2.82 0 .85.05 1.54 0 2.22-.6 6.29-1.19 12.6-1.84 18.89-.64 6.24-1.33 12.5-2.05 18.73-.62 5.44-1.31 10.87-1.99 16.3-.55 4.45-1.17 8.9-1.69 13.35-.39 3.29-.66 6.61-.99 9.91-.12 1.25-.27 2.5-.38 3.75-.13 1.52-.81 2.72-2.07 3.61-.43.3-.84.65-1.41 1.09-.08-.47-.18-.75-.16-1.03.3-4.25.62-8.5.93-12.76.23-3.13.46-6.27.62-9.41.37-7.17.69-14.35 1.04-21.52.23-4.57.43-9.15.68-13.71.48-8.74.97-17.47 1.47-26.21 0-.09.04-.17.1-.41Zm-68.83 86.96c-.05.19-.12.69-.35 1.11-.79 1.48-2.4 1.7-3.56.53a5.203 5.203 0 0 1-1.46-2.82c-.31-1.88 1.18-3.13 2.98-2.51 1.44.49 2.4 1.85 2.38 3.69Z" class="cls-2_tablet"/>
    <path d="M285 246.99c-.14-.28-.36-.55-.41-.86-.09-.48-.07-.99-.07-1.48-.19-20.61-.38-41.22-.56-61.83-.03-3.1-.03-6.2-.05-9.3v-.41c.02-.61.25-1.06.9-1.15.55-.08.99.41 1.05 1.14.02.18 0 .36 0 .54v68.16c0 1.31-.03 2.6-.1 3.91-.03.45.08 1.03-.73 1.27H285Z" class="cls-11_tablet"/>
    <path d="M285.27 131.23c-2.96-.72-5.91-1.48-8.89-2.13-2.98-.65-5.97-1.25-8.98-1.76-1.98-.34-4.01-.48-6.02-.7-2.41-.26-4.83-.51-7.24-.74-2.37-.22-4.74-.43-7.11-.64-.99-.09-1.97-.16-2.95-.28-.22-.03-.51-.25-.56-.44-.06-.2.08-.51.22-.7.12-.16.36-.29.56-.35 3.07-1.01 6.11-2.13 9.22-2.95 1.3-.34 2.77-.08 4.17 0 2.42.14 4.84.35 7.26.51 3.81.24 7.61.58 11.39 1.2 2.74.46 5.52.71 8.26 1.15 2.88.46 5.74 1.03 8.61 1.54.3.05.61.06.93 0-11.62-2.61-23.35-4.49-35.21-5.02-.29-.78.14-.96.6-1.08 1.73-.45 3.48-.87 5.22-1.31 3.64-.93 7.32-.61 10.99-.35 4.71.35 9.42.71 14.12 1.16 3.17.3 6.34.75 9.5 1.17 6.73.89 13.25 2.82 19.87 4.25 3.33.72 6.7 1.25 10.06 1.84.92.16 1.28.33 1.33 1.22.1 1.65.07 3.31 0 4.96-.02.35-.43.76-.76 1.02-.35.27-.8.4-1.22.56-3.29 1.3-6.6 2.58-9.89 3.89-5.04 2.01-10.08 4.06-15.12 6.09-.29.12-.61.19-.88.34-4.71 2.46-9.76 4.11-14.61 6.22-.82.35-1.66.7-2.44 1.15-2.76 1.61-5.69 1.87-8.73 1.11-7.57-1.92-15.13-3.8-22.64-5.93-7.37-2.1-14.76-4.17-22.33-5.49-2.16-.38-4.34-.62-6.53-.86-1.14-.13-1.94-.63-2.33-1.72-.38-1.05-.79-2.09-1.13-3.15-.25-.79.13-1.39.72-1.89 1.6-1.32 3.37-2.4 5.3-3.16 3.09-1.2 6.23-2.31 9.35-3.44 1.72-.62 3.48-.8 5.31-.49.7.12 1.44.06 2.16.1 3.59.23 7.18.47 10.76.74 2.29.17 4.57.38 6.85.61 6 .61 11.89 1.8 17.77 3.1 1.66.36 3.33.64 5 .96 0-.1.03-.19.03-.28l-.03-.03Zm27.05-1.61c.34.35.75.41 1.21.13-.42-.03-.82-.07-1.24-.1-.42-.51-1.01-.49-1.61-.35.55.1 1.09.22 1.64.32Zm10.25-.31c-2.29.78-4.59 1.52-6.86 2.34-5.1 1.84-10.17 3.77-15.3 5.56-3.98 1.39-7.99 2.66-11.85 4.39-1.88.85-3.87 1.42-5.82 2.11-.91.32-1.84.39-2.79.18-.88-.2-1.75-.42-2.63-.56-3.11-.49-6.17-1.2-9.2-2.04-8.88-2.43-17.83-4.66-26.91-6.24-3.19-.55-6.4-.99-9.6-1.44-1.02-.14-2.06-.19-3.09-.21-.44 0-.88.16-1.33.26 0 .1.02.21.02.31.48.06.94.14 1.42.18.72.06 1.45.02 2.15.15 3.62.66 7.25 1.33 10.87 2.03 3.17.61 6.36 1.18 9.51 1.94 2.83.68 5.58 1.69 8.41 2.39 5.53 1.37 11.09 2.64 16.65 3.89 3.54.8 7.06.67 10.48-.68 1.5-.59 2.95-1.33 4.45-1.93 2.67-1.05 5.37-2.03 8.04-3.09 2.71-1.06 5.42-2.17 8.12-3.26 2.2-.89 4.39-1.82 6.6-2.69 2.46-.96 4.96-1.84 7.43-2.79.45-.17.82-.54 1.24-.82 1.18.03 2.14-.49 3.13-.97-.04-.11-.09-.22-.13-.34-.99.44-1.99.89-2.97 1.33Zm-14.47-1.08c-.02.07-.03.14-.05.2.43.12.87.24 1.3.37l.06-.22c-.43-.12-.88-.23-1.31-.35Z" class="cls-10_tablet"/>
  </g>
</svg>
