<svg xmlns="http://www.w3.org/2000/svg" id="ID-bac" viewBox="0 0 500 500">
  <defs>
    <style>
      .cls-1{fill:#fff}.cls-3{fill:#030f40}
    </style>
  </defs>
  <path id="secondary-color" fill="#f9bc13" d="M430.26 273.92c.11 23.66-2.02 47.09-7.39 70.15a172.17 172.17 0 0 1-5.41 18.48c-5.94 16.79-16.06 30.86-28.78 43.18-11.34 10.99-24.41 19.45-38.41 26.58-20.23 10.31-40.95 19.54-61.8 28.48a408.67 408.67 0 0 1-39.24 14.58 281.05 281.05 0 0 1-76.26 12.89c-22.57.65-44.65-2.29-65.87-10.35-9.34-3.55-18.04-8.21-25.61-14.83-10.04-8.79-16.75-19.81-21.34-32.19-4.91-13.21-7.27-26.93-7.62-40.99-.39-15.69 1.38-31.19 3.97-46.64 3.73-22.23 8.95-44.15 13.86-66.14a531.92 531.92 0 0 0 7.58-39.97 166.83 166.83 0 0 0 .06-47.91 462.12 462.12 0 0 1-3.06-24.55c-1.95-22.02 1.58-43.32 9.04-64.05 9.27-25.75 24.93-47.03 45.77-64.43 12.72-10.62 26.89-18.98 42.84-24.23 9.88-3.25 19.72-6.56 29.88-8.79a131.35 131.35 0 0 1 46.61-1.62 301.74 301.74 0 0 1 32.9 6.5c11.37 2.9 22.17 7.17 32.19 13.34 10.88 6.7 21.68 13.53 31.18 22.18 2.4 2.19 4.76 4.45 6.96 6.84 6.4 6.94 12.73 13.95 19.06 20.95 8.38 9.25 14.95 19.68 20.15 31.01 7.57 16.47 13.54 33.53 18.51 50.94 2.59 9.08 5.44 18.09 7.78 27.23 1.87 7.29 3.21 14.72 4.7 22.09 1.33 6.61 2.52 13.24 3.81 19.85a171.48 171.48 0 0 1 2.87 24.32c.45 9.03.72 18.07 1.07 27.1Z" opacity=".1"/>
  <g id="invariable">
    <path d="M440.46 115.93c-1.04 1.16-1.93 2.54-3.17 3.42-2.02 1.44-4.35 1.62-6.47.17-1.15-.79-2.24-.86-3.55-.81-2.36.08-4.73-.1-7.38-.19-.66 1.55-1.5 3.25-2.11 5.03-1.48 4.35-2.9 8.73-4.26 13.12a130.17 130.17 0 0 1-9.14 21.93c-2.57 4.92-4.83 9.99-7.4 14.91a49.94 49.94 0 0 1-4.86 7.86c-2.3 2.92-5.46 4.6-9.34 4.29a10.76 10.76 0 0 1-3.46-.79c-3.03-1.36-6.08-2.71-8.96-4.35-11.65-6.65-21.89-15.16-31.62-24.31-1.61-1.51-3.33-2.9-5.09-4.41-.33.5-.62.86-.84 1.27-4.05 7.37-8.12 14.73-12.13 22.11-1.63 3-3.11 6.08-3.66 9.5-.2 1.25-.43 2.52-.38 3.78.32 8.17.62 16.33 1.16 24.48.15 2.24 1.04 4.45 1.73 6.64.71 2.26 1.88 4.37 1.86 6.84 0 .6.33 1.22.59 1.79 1.45 3.26 2.92 6.51 4.38 9.77 8.68 19.25 16.4 38.87 22.42 59.12 1.31 4.4 2.26 8.92 3.15 13.43 1.07 5.43.77 10.89 0 16.34-1.76 12.24-3.21 24.54-5.25 36.74-1.75 10.47-4.12 20.84-6.24 31.25a18.16 18.16 0 0 1-1 3.42 29.57 29.57 0 0 0-2.14 9.22c-.2 2.24-.71 2.6-2.95 2.93-1.23.18-2.42.58-3.62.87l-1.17 13.74c-.08.95.25 1.67.95 2.31 6.4 5.93 12.75 11.9 19.17 17.81 2.3 2.12 5.07 3.52 7.93 4.73a19.03 19.03 0 0 1 7.12 5.04 4.4 4.4 0 0 1 1.2 3.48 31.53 31.53 0 0 1-.62 3.75 3.65 3.65 0 0 1-2.2 2.59c-10.72 4.96-21.36 4.51-31.95-.36-3.03-1.39-6.05-2.78-9.1-4.12a9.32 9.32 0 0 0-5.81-.59 7.87 7.87 0 0 1-3.27-.17 19.55 19.55 0 0 1-7.1-3.23 5.26 5.26 0 0 1-2.16-5.65c.89-4.14.92-8.33 1.14-12.53.28-5.3.96-10.58 1.54-15.85.51-4.57 1.15-9.13 1.65-13.7.07-.61-.14-1.52-.57-1.86-2.17-1.71-2.48-3.93-2.07-6.42 1.64-9.69 3.19-19.41 4.95-29.08 2.45-13.42 5.11-26.8 7.58-40.21.88-4.76 1.51-9.57 1.28-14.43-.04-.93-.2-1.9-.51-2.77-3.31-9.38-7.94-18.16-12.34-27.04l-3.93-7.89c-.14.55-.34 1.05-.38 1.57-1.31 14.22-2.73 28.43-3.88 42.65a741.53 741.53 0 0 1-4.48 40.44c-1.24 9.12-2.31 18.26-3.48 27.38-1.54 11.96-3.14 23.91-4.64 35.87-1.07 8.58-1.95 17.18-3.07 25.75a52.3 52.3 0 0 1-1.85 7.85 6.03 6.03 0 0 1-1.67 2.82c-2.3 1.93-4.76 3.66-7.18 5.45-.83.61-1.69.43-2.42-.15a34.62 34.62 0 0 1-2.48-2.21c-.65-.64-1.24-.79-2.11-.35-7.2 3.68-14.41 7.34-21.64 10.96-.91.45-1.33 1.05-1.36 2.01-.02.55-.2 1.15-.05 1.65.92 3.04-.5 5.05-2.84 6.65a108.7 108.7 0 0 1-4.97 3.25 424.62 424.62 0 0 1-9.59 5.71 49.66 49.66 0 0 1-5.47 2.83c-2.82 1.19-5.79.92-8.67.22-8.24-2.01-16.47-4.06-24.67-6.24-13.41-3.55-26.79-7.21-40.19-10.82-.83-.22-1.69-.35-2.13-.44-1.77 1.6-3.29 2.98-4.83 4.35-8.11 7.24-21.06 5.15-27.13-4.24-3.8-5.88-4.55-12.25-3.32-18.96.9-4.89 2.28-9.62 6.02-13.2 1.53-1.47 3.27-2.72 5.12-4.23l-1.45-11.09-9.48-71.47c-.59-4.4-1.24-8.8-1.69-13.22-.34-3.38-.28-6.81-.62-10.2a42.03 42.03 0 0 0-2.92-12.22c-.54-1.3-1.24-2.23-2.77-2.11-1.45.12-1.9-.61-2.06-1.95-.86-7.09-1.8-14.17-2.68-21.25-1.03-8.27-2.03-16.53-3-24.81-.14-1.22-.52-2.02-1.74-2.52a7.48 7.48 0 0 1-4.06-4.15c-1.39-3.27-2.83-6.54-4.1-9.86-.37-.97-.26-2.12-.39-3.43-1.65-.12-2.29-1.45-2.53-3.14-.21-1.49-.51-2.97-.74-4.46a4.88 4.88 0 0 1 2.21-5.14 78.77 78.77 0 0 1 15.02-8.15c4.41-1.76 8.82-3.52 13.25-5.25a407.6 407.6 0 0 1 8.23-3.09c1.21-.45 2.44-.76 3.59.23.21.18.61.27.89.21 4.05-.81 8.06.13 12.1.26 4.68.15 9.36.38 14.02.8 8.69.79 17.37 1.65 26.04 2.63 11.67 1.32 23.09 4.02 34.57 6.42 12.98 2.72 25.61 6.65 38.46 9.79.82.2 1.66.32 2.5.48l.16-.51c-.98-.36-1.95-.77-2.94-1.07-12.99-3.86-25.99-7.67-39.22-10.68-4.79-1.09-9.39-2.95-14.18-4a298.83 298.83 0 0 0-20.58-3.76 390.65 390.65 0 0 0-23.61-2.82c-6.39-.55-12.83-.56-19.25-.82a1.61 1.61 0 0 1-1.05-.35c.6-.26 1.19-.57 1.81-.76 7.48-2.37 14.97-4.73 22.47-7.04.73-.22 1.6-.33 2.33-.15 5.62 1.35 11.35 1.09 17.05 1.31 10.86.42 21.69 1.18 32.47 2.58a398.16 398.16 0 0 1 64.05 13.94c3.32 1 6.71 1.76 10.33 2.7-.93-1.48-.94-1.51-2.62-1.99-2.97-.84-5.97-1.62-8.93-2.5-15.96-4.79-32.2-8.42-48.57-11.48-4.13-.77-8.19-1.96-12.34-2.52-9.66-1.28-19.3-2.85-29.07-3.26-4.66-.2-9.3-.86-14.06-1.62.5-.21 1-.46 1.52-.62 3.96-1.17 7.96-2.19 11.86-3.49 5-1.67 10.09-1.96 15.26-1.55 4.11.33 8.21.78 12.32 1.14.84.07 1.69 0 2.56 0 .08-.34.19-.57.18-.79-.56-12.65 1.78-24.95 4.53-37.2 5.05-22.51 13.53-43.75 23.8-64.33.99-1.98 2.14-3.89 3.27-5.8 6.43-10.86 16.17-17.44 27.9-21.35 8.27-2.76 16.59-5.37 24.92-7.94 1.37-.42 1.91-1.19 2.21-2.43a31.67 31.67 0 0 0-1.09-18.72c-.32-.87-.91-1.15-1.65-1.5-3.89-1.85-5.36-5.1-4.22-9.24.57-2.05 1.71-3.55 4.1-3.69.17-1.03.38-1.95.47-2.89.87-9.11 5.74-15.36 13.74-19.46 6.97-3.58 14.22-4.48 21.67-2.04 8.65 2.83 14.27 8.9 16.47 17.63a98.27 98.27 0 0 1 2.44 16.67c.58 7.85-2.69 14.31-8.25 19.75-3.88 3.8-8.54 5.62-13.94 5.92-1.22 1.66-.98 3.59-1.2 5.61 3.26.05 6.23 1.11 9.2 2.13 9.72 3.35 17.27 9.36 21.93 18.59 3 5.94 5.74 12.03 8.38 18.14a99.75 99.75 0 0 0 9.48 17.29c1.85 2.68 3.57 5.44 5.36 8.16.34.52.72 1 .96 1.32 2.17-2.81 4.26-5.58 6.41-8.31 4.58-5.78 9.16-11.56 13.82-17.28 2.7-3.32 5.47-6.59 8.36-9.75 3.38-3.69 6.64-7.44 9.27-11.75a64.23 64.23 0 0 1 5-6.94 22.14 22.14 0 0 0 4.28-8.66c.37-1.45.93-2.86 1.55-4.23.35-.78.9-1.51 1.52-2.1 1.59-1.52 3.38-1 3.56 1.18.33 4.09.87 8.2-.41 12.27-.49 1.57-.7 3.26-.81 4.91-.15 2.4.33 3.09 2.58 3.87 1.79.62 3.63 1.13 5.48 1.59a18.1 18.1 0 0 1 6.41 3.03c3.06 2.26 3.15 3.93.38 6.44.68 2.98.53 3.01-1.81 4.92-1.18.97-2.72 1.79-3.25 3.48-.46-.03-.96-.17-1.39-.06-2.57.65-5.13 1.37-7.69 2.07.3.16.68.45 1.11.57 2.16.61 4.03-.14 5.8-1.32.69-.47 1.45-.84 2.18-1.26ZM213.34 306.87c-.38-.07-.75-.15-1.13-.21-2.82-.42-5.69-.62-8.45-1.29-10.24-2.49-20.46-5.1-30.67-7.73-12.29-3.17-24.52-6.51-36.49-10.75-5.97-2.12-11.94-4.31-18.03-6.07-6.31-1.83-12.76-3.18-19.16-4.71-3.73-.89-4.38-.25-3.83 3.63l4.14 29.21 1.79 12.48c.55.12 1 .26 1.46.32 4.38.61 8.46 2.09 12.21 4.43 2.35 1.47 4.62 3.07 6.91 4.62a71.8 71.8 0 0 1 13.65 11.79c3.97 4.46 7.56 9.19 9.34 15.03a168.2 168.2 0 0 1 7.45 43.96c.14 4.27.45 8.55.79 12.82.47 6.01 1.04 12 1.57 18.01.52 5.93 1.04 11.84 2.35 17.67.69 3.08.99 6.25 1.46 9.39 1.07 7.13 2.17 14.26 3.17 21.4.23 1.62 1.04 2.21 2.54 2.59 9.36 2.42 18.68 4.99 28.05 7.41 5.99 1.55 12.03 2.86 18.03 4.36 4.3 1.07 8.11.14 11.73-2.31 2.69-1.81 5.58-3.33 8.32-5.08a126.2 126.2 0 0 0 6.63-4.6 4.95 4.95 0 0 0 2.05-4.31c-.01-4.2.15-8.4.23-12.6.24-12.85.45-25.69.72-38.53.08-4.04.26-8.08.41-12.13l1.38-35.9c.22-5.71.43-11.41.7-17.12.34-7.05.75-14.1 1.11-21.14.38-7.28.79-14.57 1.1-21.85.31-7.13.51-14.26.75-21.38.02-.47-.05-.96-.16-1.41-.35-1.5-1.09-2.1-2.55-1.75-1.61.39-3.22.91-4.72 1.6-5.46 2.52-10.83 5.23-16.31 7.69-2.14.96-4.49 1.45-6.67 2.14-.1.15-.17.21-.17.28-.28 7.04-.45 14.07.2 21.12.5 5.44.7 10.92.8 16.39.16 8.56.21 17.13.15 25.69a7136.1 7136.1 0 0 1-.59 50.68c-.19 13.16-.49 26.32-.75 39.48h-.37l-1.15-153.29Zm27.31-119.18c-.98-1.79-.28-3.31.14-4.79 2.07-7.46 5.35-14.4 9.22-21.09 3.29-5.7 6.48-11.46 9.72-17.19 1.33-2.34 2.65-4.7 4.05-7 .49-.81 1.21-1.48 1.83-2.22l.44.3c-.2.56-.36 1.14-.61 1.68-2.67 5.67-5.42 11.29-8 16.99a647.87 647.87 0 0 0-8.04 18.54c-.63 1.51-.83 3.21-1.11 4.85a41.57 41.57 0 0 0-.54 4.72c-.06 1.08.11 2.17.17 3.25.04.69.23 1.41.1 2.08-.29 1.6-.73 3.17-1.13 4.84 2.61 1.59 5 3.15 7.48 4.55 4.2 2.38 8.5 4.61 12.69 7.03 7.55 4.35 14.9 9.08 22.84 12.73.97.45 2.11.68 3.17.68 5.26 0 10.44-.77 15.51-2.17 2.34-.65 4.62-1.56 6.97-2.37 0-.79.02-1.34 0-1.88-.34-7.37-.69-14.73-1.01-22.1-.03-.79.05-1.58.11-2.37.36-4.53 2.2-8.57 4.27-12.51 6.2-11.79 12.42-23.57 18.56-35.4 1.76-3.38 3.27-6.87 4.9-10.31.31-.66.46-1.56 1.82-1.39-.07.66-.05 1.26-.19 1.83-1.52 6.24-3.06 12.47-4.61 18.7-1.04 4.18-1.17 4.3 1.98 7.21 8.29 7.65 17.03 14.74 26.75 20.54.22.13.51.14.76.21-1.9-10.95.85-20.55 7.34-29.16-.08-.2-.12-.36-.21-.48a74.5 74.5 0 0 0-1.11-1.55c-6.39-8.75-11.91-17.94-15.68-28.18-2.16-5.87-4.9-11.52-7.44-17.25-1.6-3.61-4.14-6.5-7.03-9.19-5.9-5.48-13.17-8.09-20.66-10.3-.44-.13-.93-.1-1.57-.17-.2 1.95-.27 3.86-.62 5.71-.21 1.11-.58 2.44-1.35 3.17a12.93 12.93 0 0 1-7.59 3.62c-6.4.71-11.99-1.57-17.33-4.72-.74-.44-1.35-1.1-2.07-1.6a5.46 5.46 0 0 1-2.43-4.66c0-1.34.19-2.68.41-4 .18-1.14.52-2.27.84-3.65-2 .91-3.68 1.79-5.44 2.46-5.92 2.27-11.87 4.48-17.82 6.67-5.83 2.15-11.41 4.76-16.39 8.54-6.03 4.57-10.2 10.62-13.59 17.23-11.6 22.61-20.64 46.16-25.94 71.08-1.82 8.55-3.06 17.17-3.01 25.94 0 1.12.22 2.23.38 3.84a29.3 29.3 0 0 1 12.22-13.03c4.97-2.82 9.95-5.61 15.44-7.33.75-.22 1.46-.55 2.41-.92Zm1 286.75c.58-.17.89-.21 1.15-.35 7.72-4.06 15.42-8.15 23.16-12.17 1.03-.53 1.28-1.26 1.33-2.27.13-2.93.28-5.86.44-8.79.26-5.15.48-10.3.8-15.44.47-7.52 1.24-15.03 1.48-22.55.48-14.51.65-29.02 1-43.53.15-6.58.29-13.17.6-19.74.49-10.37 1.17-20.74 1.69-31.11.42-8.48.75-16.95 1.08-25.43.07-1.95.01-3.9.01-6.1-.97.33-1.72.54-2.44.83-6.46 2.63-12.85 5.45-19.4 7.84-3.05 1.11-4.14 3.05-4.32 5.96l-.04.71-.98 24.72c-.08 1.9-.16 3.8-.28 5.7-.31 5.14-.69 10.28-.96 15.43-.31 5.78-.51 11.56-.8 17.34-.52 10.62-1.26 21.22-1.57 31.84-.39 13.39-.27 26.79-1.08 40.18-.58 9.49-.73 19.01-1 28.52-.08 2.74.08 5.48.14 8.41Zm-82.26 7.62c-.19-1.13-.31-1.9-.45-2.66-.56-3.2-1.29-6.38-1.67-9.61-1.29-11.02-2.6-22.05-3.63-33.1-1.05-11.28-1.81-22.6-2.66-33.9-.26-3.4-.22-6.83-.62-10.21a259.13 259.13 0 0 0-5.45-30.17c-2.14-8.96-6.87-16.11-14.86-20.9a81.87 81.87 0 0 0-6.91-3.71c-3.81-1.79-7.75-3.27-11.94-3.91-.9-.14-1.83-.1-2.87-.15l14.96 110.51c3.21-.72 6.06.37 8.97 1.06 2.21.52 4.15 1.54 5.84 3.05 8.62 7.7 11.21 17.36 6.94 28.66-.24.62-.43 1.26-.63 1.87l14.96 3.17ZM84.31 259.65c1.17 3.06 2.32 5.75 3.23 8.51 1 3.04 3.34 4.35 6.12 5.02 3.93.94 7.91 1.64 11.86 2.48 4.88 1.03 9.84 1.83 14.63 3.19 13.41 3.83 26.75 7.92 40.13 11.86 14.37 4.24 28.75 8.41 43.11 12.64a13 13 0 0 0 8.18-.12c3.51-1.23 7-2.55 10.4-4.04 4.94-2.16 9.71-4.71 14.7-6.72 17.49-7.06 35.05-13.96 52.58-20.92 1.53-.61 3.08-1.2 4.87-1.89l-3.42-16.91c-2.6 1.09-4.87 2.01-7.12 2.97-21.95 9.35-43.88 18.74-65.86 28.02-2.83 1.19-5.89 1.84-8.86 2.67-.67.19-1.43.2-2.12.1-2.27-.33-4.54-.66-6.78-1.14-8.14-1.71-16.26-3.53-24.41-5.21-12.13-2.49-23.95-6.15-35.86-9.43-8.86-2.44-17.61-5.33-26.69-6.9-9.04-1.57-18.13-2.87-27.19-4.28-.29-.05-.6.03-1.51.1Zm157.23-69.32c-1.85.68-3.66 1.25-5.41 2-8.65 3.7-17.03 7.74-22.92 15.6-2.58 3.46-2.7 3.84 1.34 5.35a302.03 302.03 0 0 0 34.08 10.48c5.69 1.38 11.47 2.41 17.02 4.41 4.39 1.58 8.94 2.71 13.43 3.99 3.91 1.12 7.13 3.22 8.98 6.88a52.25 52.25 0 0 1 3.62 8.77c1.28 4.33 2.29 8.75 3.13 13.18.95 5.06 1.58 10.18 2.36 15.27.12.8.15 1.66 1.07 2.38 1.42-7.59-.27-15.03.73-22.4.39.73.56 1.47.68 2.22a81.8 81.8 0 0 0 5.67 19.6c.28.65.55 1.37 1.03 1.86.37.38 1.1.63 1.6.55.31-.05.67-.83.7-1.31.04-.69-.15-1.41-.33-2.1-1.14-4.29-2.32-8.57-3.46-12.86a366 366 0 0 1-2.03-8.07c-.09-.36.09-.79.16-1.29.33.22.53.28.57.38.17.52.33 1.05.43 1.59 1.32 6.96 4.41 13.2 7.81 19.32.6 1.09 1.49 2.04 2.35 2.95.6.64 1.54.74 2.15.13.42-.42.63-1.23.63-1.86 0-.59-.39-1.19-.63-1.77-3.03-7.41-6.08-14.82-9.1-22.23-.34-.84-.57-1.73-.86-2.59l.45-.2c.29.41.65.79.85 1.24 2.99 6.58 7.47 12.13 12.13 17.55a9.25 9.25 0 0 0 2.21 1.77c.3.18 1.09.09 1.25-.15.25-.37.19-.97.17-1.48 0-.2-.24-.4-.4-.58-3.44-4.01-5.82-8.69-8.4-13.23-2.66-4.7-4.1-9.84-5.29-15.48 1.84.4 3.37.72 4.89 1.07 2.17.48 4.31 1.07 6.49 1.45 1.25.21 2.63.46 3.93-.63-.52-.46-.87-.91-1.32-1.17-2.55-1.45-5.12-2.84-7.69-4.26-1.59-.88-3.33-1.57-4.75-2.67-9.02-6.96-18.98-12.39-28.82-18-7.64-4.36-15.6-8.16-22.92-13.09-1.97-1.33-4.03-2.52-6.04-3.8-4.01-2.58-7.93-5.26-11.57-8.76Zm29.51 274.31c.4.02.59.09.7.03 4.13-2.61 7.35-5.82 7.31-11.16 0-.31.03-.63.07-.95.88-9 1.64-18.01 2.68-26.99 1.42-12.29 3.06-24.54 4.59-36.82 1.13-9.05 2.17-18.11 3.38-27.15a647.21 647.21 0 0 0 4.21-38.06c.62-8.3 1.37-16.6 2.14-24.88.56-6.07 1.26-12.13 1.82-17.52l-2.75-5.45-14.02 5.13c-.19 3.9-.36 7.62-.56 11.34-.52 9.82-1.03 19.64-1.6 29.45-.7 12.11-1.54 24.21-2.15 36.33-.88 17.34-1.54 34.7-2.42 52.04-.48 9.42-1.26 18.83-1.9 28.24-.55 8.23-1.1 16.45-1.63 24.68-.04.59.09 1.18.14 1.73Zm64.27-444.66c-1.26 1.07-2.77 2.2-4.1 3.52-2.86 2.84-6.16 3.37-9.86 2.08-.67-.24-1.33-.53-1.98-.81a13.13 13.13 0 0 0-6.29-.97 8.03 8.03 0 0 0-7.28 5.88c-.73 2.49-.63 5.02-.3 7.55.31 2.36.64 4.72.89 7.08.24 2.22-.81 4.14-2.57 4.91-1.51.66-3.04.24-4.57-1.59a28.54 28.54 0 0 1-2.86-4.34c-.57-1.03-.85-2.22-1.31-3.31-.65-1.54-1.31-2-2.64-1.95-1.39.06-2.29.76-2.8 2.17-.97 2.67-.32 5.06 1.96 6.76 1 .75 2.14 1.31 3.07 1.87.05.67 0 1.36.16 1.99.34 1.3.84 2.56 1.18 3.86 1.73 6.56 1.56 13-1.21 19.3a17.16 17.16 0 0 0-.96 3.42 7.02 7.02 0 0 0 3.51 7.92c2.01 1.2 4.31 1.95 6.55 2.72 1.41.49 2.97.52 4.41.96 3.27 1 6.27.18 9.21-1.15 1.34-.61 2-1.61 2.08-3.16.09-1.73.51-3.45.78-5.17l.67-4.1c-8.16-2.8-17.25-10.3-17.03-13.98 1.11-.24 1.47.76 2.07 1.3 5.05 4.53 10.61 7.8 17.74 7.18 3.09-.27 6.2-.56 8.88-2.33 8.37-5.49 12.26-13.22 11.45-23.23-.15-1.9-.56-3.79-.55-5.68.04-5.79-2.48-10.75-4.89-15.75a5 5 0 0 0-3.4-2.96Zm94.71 57.16-.66-.19c-.71 1.64-1.38 3.29-2.13 4.91-1.3 2.79-2.29 5.82-4.05 8.31-4.54 6.4-9.37 12.58-14.18 18.78-5.24 6.76-11.1 13.03-15.93 20.13a56.62 56.62 0 0 1-5.11 6.25c-3.53 3.85-6.96 7.73-9.84 12.16-4.48 6.9-7.03 14.3-7.19 22.54-.06 3.17 1.76 5.71 2.51 8.6 1.82.94 3.63 1.91 5.48 2.81.71.35 1.48.55 2.22.84 2.4.95 4.48.24 6.46-1.17a19.99 19.99 0 0 0 6.15-7.41c2-3.87 3.94-7.79 6.18-11.51 7.94-13.19 12.7-27.57 16.36-42.4.21-.84.54-1.66.93-2.43.84-1.65 1.11-1.69 3-1.41 2.23.33 4.44.99 6.95.6-.36-.7-.52-1.59-.93-1.71-1.69-.52-2.69-1.86-3.94-2.91-1.37-1.14-1.6-2-.52-3.38a8.04 8.04 0 0 1 2.31-2c1.72-.96 3.55-1.73 5.4-2.61-1.24-.86-1.27-2.2-1.27-3.57 0-1.66.07-3.34-.14-4.97a21.3 21.3 0 0 1 .7-9.15 29.74 29.74 0 0 0 1.22-9.08ZM89.13 244.3l-.06.3c.97.14 1.94.31 2.92.4 5.28.47 10.65.46 15.84 1.45 9.95 1.9 19.83 4.2 29.67 6.64 13.07 3.24 26.02 6.95 39.11 10.14 8.46 2.07 17.06 3.59 25.61 5.3 3.52.7 7.05 1.22 10.49-.44.28-.13.63-.09.93-.17 2.3-.58 4.65-1.01 6.89-1.78 3.37-1.16 6.66-2.54 9.97-3.86l54.06-21.71c.62-.25 1.21-.57 1.79-.85-.39-1.17-1.02-1.43-1.93-1.09l-2.01.74c-13.24 4.88-26.48 9.73-39.71 14.64-8.69 3.23-17.37 6.51-26.03 9.82-5.37 2.05-10.79 3.03-16.51 1.64-2.46-.6-4.99-.89-7.5-1.28-15.91-2.5-31.55-6.31-47.13-10.24-11.14-2.8-22.21-5.86-33.54-7.79-5.14-.88-10.36-1.34-15.55-1.82-2.41-.22-4.86-.03-7.29-.03ZM310.5 408.68l-1.56 15.72c2.96 3.09 6.51 4.49 10.59 4 2.47-.3 4.86-1.17 7.16-1.76.97-5.07 1.61-12.64 1.23-14.83-6 1.31-11.54-.39-17.41-3.13Zm-4.87 41.94c.38 1.11.41 2.03.87 2.41 2.56 2.1 5.62 3.14 8.82 3.84.22.05.48-.03.7-.08 2.25-.52 4.44-.18 6.53.64 2.43.95 4.84 1.98 7.19 3.1 5.86 2.8 11.95 4.6 18.48 4.84a31 31 0 0 0 12.33-2.07c2.06-.79 2.45-1.69 2.09-3.8-2.69.6-5.35 1.38-8.08 1.76-5.17.74-10.31.2-15.29-1.28-4.63-1.37-9.17-3.02-13.73-4.6-3.58-1.24-7.07-2.69-11.04-2.36-2.37.19-4.72-.44-6.86-1.63-.45-.25-.98-.38-2.01-.77Zm-180.05 10.07c-2.73 0-4.63 1.97-4.61 4.93.02 2.76 1.26 5.04 3.09 7 2.69 2.88 6.65 2.14 8.27-1.51 2.02-4.56-1.76-10.41-6.74-10.42Zm298.19-350.83.09.62c.99-.06 2-.01 2.95-.21a162.68 162.68 0 0 0 16.58-4.14c.82-.25 1.51-.91 2.58-1.58-4.29-4.1-9.61-4.7-14.47-6.6l-.31 5.73 4.84-.4c.27-.67.33-1.34.66-1.53.65-.38 1.96.37 2.37 1.16.41.81.12 1.72-.84 2.16-.64.29-1.36.42-2.06.55-1.25.22-2.51.37-3.76.58a21.94 21.94 0 0 0-8.64 3.65Zm3.21 2.51c.49.66 1.35.49 2.04.41 4.38-.52 8.75-1.1 13.13-1.69a3.8 3.8 0 0 0 1.13-.35c.64-.32 1.42-.74.93-1.57-.22-.37-1.09-.64-1.56-.53-5.21 1.19-10.41 2.47-15.67 3.73Zm9.59 2.33-.04-.48-4.08.68.04.31 4.08-.51Z" class="cls-3"/>
    <path d="m213.34 306.87 1.15 153.29h.37c.25-13.16.55-26.32.75-39.48.25-16.89.46-33.78.59-50.68.07-8.56 0-17.13-.15-25.69-.1-5.47-.3-10.95-.8-16.39-.65-7.05-.48-14.07-.2-21.12 0-.07.08-.13.17-.28 2.18-.68 4.53-1.17 6.67-2.14 5.48-2.46 10.86-5.17 16.31-7.69 1.5-.69 3.11-1.21 4.72-1.6 1.46-.36 2.2.24 2.55 1.75.11.46.17.94.16 1.41-.24 7.13-.44 14.26-.75 21.38-.31 7.29-.72 14.57-1.1 21.85-.37 7.05-.77 14.1-1.11 21.14-.28 5.7-.48 11.41-.7 17.12-.47 11.96-.93 23.93-1.38 35.9-.15 4.04-.33 8.08-.41 12.13-.26 12.85-.48 25.69-.72 38.53-.08 4.2-.24 8.4-.23 12.6 0 1.85-.63 3.27-2.05 4.31a130.53 130.53 0 0 1-6.63 4.6c-2.74 1.75-5.63 3.27-8.32 5.08-3.62 2.44-7.43 3.38-11.73 2.31-6-1.5-12.04-2.82-18.03-4.36-9.37-2.41-18.69-4.99-28.05-7.41-1.5-.39-2.31-.97-2.54-2.59-1-7.14-2.1-14.27-3.17-21.4-.47-3.13-.77-6.31-1.46-9.39-1.31-5.83-1.83-11.75-2.35-17.67-.53-6-1.1-12-1.57-18.01-.34-4.27-.64-8.54-.79-12.82a169.1 169.1 0 0 0-7.45-43.96c-1.79-5.84-5.38-10.57-9.34-15.03a72.1 72.1 0 0 0-13.65-11.79c-2.3-1.55-4.56-3.16-6.91-4.62a30.78 30.78 0 0 0-12.21-4.43c-.46-.07-.91-.2-1.46-.32l-1.79-12.48-4.14-29.21c-.55-3.87.1-4.52 3.83-3.63 6.4 1.53 12.85 2.89 19.16 4.71 6.08 1.76 12.05 3.95 18.03 6.07 11.97 4.24 24.21 7.58 36.49 10.75 10.21 2.63 20.42 5.24 30.67 7.73 2.76.67 5.63.87 8.45 1.29.38.06.75.14 1.13.21ZM241.66 474.44c-.06-2.92-.22-5.66-.14-8.4.27-9.51.43-19.03 1-28.52.81-13.39.69-26.79 1.08-40.18.31-10.62 1.04-21.23 1.57-31.84.28-5.78.49-11.57.8-17.34.28-5.14.65-10.28.96-15.43.11-1.9.2-3.8.28-5.7l.98-24.72c0-.24.03-.48.04-.71.18-2.9 1.28-4.84 4.32-5.96 6.55-2.39 12.94-5.21 19.4-7.84.72-.29 1.46-.5 2.44-.83 0 2.2.07 4.16-.01 6.1-.33 8.48-.65 16.96-1.08 25.43-.52 10.37-1.2 20.74-1.69 31.11-.31 6.57-.45 13.16-.6 19.74-.34 14.51-.52 29.02-1 43.53-.24 7.52-1.01 15.03-1.48 22.55-.32 5.14-.54 10.29-.8 15.44-.15 2.93-.31 5.86-.44 8.79-.04 1.01-.3 1.74-1.33 2.27-7.74 4.02-15.44 8.11-23.16 12.17-.26.13-.57.17-1.15.34Z" class="cls-1"/>
    <path d="m159.4 482.06-14.96-3.17c.21-.61.4-1.24.63-1.87 4.26-11.3 1.68-20.96-6.94-28.66a13.15 13.15 0 0 0-5.84-3.05c-2.92-.69-5.77-1.78-8.97-1.06l-14.96-110.51c1.04.05 1.97.02 2.87.15 4.19.63 8.13 2.11 11.94 3.91a76.5 76.5 0 0 1 6.91 3.71c7.99 4.79 12.72 11.94 14.86 20.9a262.02 262.02 0 0 1 5.45 30.17c.4 3.38.36 6.81.62 10.21.85 11.3 1.6 22.61 2.66 33.9 1.03 11.05 2.34 22.07 3.63 33.1.38 3.22 1.1 6.41 1.67 9.61.14.76.26 1.53.45 2.65ZM84.32 259.65c.9-.07 1.21-.14 1.51-.1 9.07 1.41 18.15 2.72 27.19 4.28 9.07 1.57 17.83 4.46 26.69 6.9 11.92 3.27 23.74 6.93 35.86 9.43 8.15 1.68 16.27 3.5 24.41 5.21 2.24.47 4.51.81 6.78 1.14.69.1 1.45.09 2.12-.1 2.97-.83 6.03-1.48 8.86-2.67 21.98-9.28 43.91-18.67 65.86-28.02 2.25-.96 4.52-1.89 7.12-2.97l3.42 16.91c-1.79.69-3.34 1.28-4.87 1.89-17.53 6.96-35.09 13.86-52.58 20.92-4.99 2.01-9.77 4.56-14.7 6.72a149 149 0 0 1-10.4 4.04c-2.67.93-5.42.93-8.18.12-14.37-4.24-28.75-8.41-43.11-12.64-13.38-3.94-26.71-8.03-40.13-11.86-4.79-1.37-9.74-2.16-14.63-3.19-3.95-.83-7.93-1.54-11.86-2.48-2.78-.66-5.12-1.98-6.12-5.02-.9-2.76-2.05-5.45-3.23-8.51Zm123.24 38.62c.76-1.26 1.05-2.3.76-3.41-.08-.3-.49-.7-.77-.71s-.73.36-.82.65a3.31 3.31 0 0 0 .83 3.48Z" class="cls-1"/>
    <path d="M241.55 190.33c3.63 3.51 7.56 6.18 11.57 8.74 2 1.28 4.07 2.48 6.04 3.8 7.32 4.93 15.27 8.73 22.92 13.09 9.85 5.61 19.81 11.04 28.82 18 1.42 1.1 3.16 1.79 4.75 2.67 2.57 1.41 5.14 2.82 7.69 4.26.45.26.8.7 1.32 1.17-1.31 1.09-2.68.84-3.93.63-2.18-.37-4.33-.96-6.49-1.45l-4.89-1.07c1.19 5.64 2.63 10.78 5.29 15.48 2.58 4.55 4.96 9.23 8.4 13.23.15.18.39.38.4.58.02.5.08 1.1-.17 1.48-.16.24-.95.33-1.25.15a9.25 9.25 0 0 1-2.21-1.77c-4.66-5.42-9.15-10.96-12.13-17.55-.21-.45-.56-.83-.85-1.24l-.45.2c.28.86.51 1.75.86 2.59 3.02 7.41 6.07 14.82 9.1 22.23.24.59.63 1.18.63 1.77 0 .63-.21 1.44-.63 1.86-.61.61-1.55.51-2.15-.13a15.09 15.09 0 0 1-2.35-2.95c-3.39-6.11-6.48-12.36-7.81-19.32-.1-.54-.26-1.07-.43-1.59-.03-.11-.24-.17-.57-.38-.07.5-.24.93-.16 1.29.65 2.7 1.31 5.39 2.03 8.07 1.14 4.29 2.32 8.57 3.46 12.86.18.69.37 1.41.33 2.1-.03.47-.39 1.25-.7 1.31a2.08 2.08 0 0 1-1.6-.55c-.48-.48-.74-1.21-1.03-1.86a81.99 81.99 0 0 1-5.67-19.6 6.85 6.85 0 0 0-.68-2.22c-1 7.37.69 14.82-.73 22.4-.93-.72-.95-1.58-1.07-2.38-.78-5.09-1.41-10.21-2.36-15.27-.83-4.44-1.85-8.86-3.13-13.18a53.1 53.1 0 0 0-3.62-8.77c-1.86-3.66-5.07-5.76-8.98-6.88-4.49-1.28-9.04-2.41-13.43-3.99-5.55-2-11.33-3.02-17.02-4.41a297.98 297.98 0 0 1-34.08-10.48c-4.04-1.51-3.93-1.89-1.34-5.35 5.88-7.86 14.27-11.9 22.92-15.6 1.74-.73 3.55-1.3 5.4-1.98Z" class="cls-1"/>
    <path d="M271.06 464.64c-.05-.55-.18-1.15-.14-1.73.53-8.23 1.08-16.45 1.63-24.68.64-9.41 1.41-18.82 1.9-28.24.89-17.34 1.55-34.7 2.42-52.04.61-12.11 1.45-24.22 2.15-36.33.57-9.82 1.07-19.64 1.6-29.45.2-3.72.37-7.44.56-11.34l14.02-5.13 2.75 5.45c-.56 5.39-1.26 11.45-1.82 17.52-.77 8.29-1.52 16.58-2.14 24.88a656.8 656.8 0 0 1-4.21 38.06c-1.21 9.04-2.25 18.1-3.38 27.15-1.53 12.27-3.17 24.53-4.59 36.82-1.04 8.98-1.79 17.99-2.68 26.99-.03.31-.07.63-.07.95.03 5.34-3.18 8.55-7.31 11.16-.1.06-.3-.01-.69-.03ZM335.32 19.98a4.93 4.93 0 0 1 3.4 2.97c2.41 5 4.94 9.96 4.89 15.75-.01 1.89.4 3.78.55 5.68.8 10.02-3.09 17.75-11.45 23.23-2.69 1.76-5.79 2.06-8.88 2.33-7.13.62-12.68-2.65-17.74-7.18-.6-.54-.96-1.55-2.07-1.3-.21 3.68 8.88 11.17 17.03 13.98l-.67 4.1c-.28 1.72-.69 3.44-.78 5.17-.08 1.55-.73 2.55-2.08 3.16-2.95 1.34-5.94 2.15-9.21 1.15-1.43-.44-3-.48-4.41-.96-2.24-.77-4.53-1.52-6.55-2.72a7.04 7.04 0 0 1-3.51-7.92c.23-1.16.48-2.34.96-3.42 2.77-6.3 2.94-12.74 1.21-19.3-.34-1.3-.84-2.56-1.18-3.86-.16-.63-.11-1.31-.16-1.99-.93-.56-2.06-1.13-3.07-1.87-2.28-1.7-2.93-4.1-1.96-6.76.52-1.41 1.42-2.11 2.8-2.17 1.32-.06 1.98.4 2.64 1.95.46 1.1.74 2.29 1.31 3.31a28.06 28.06 0 0 0 2.86 4.34c1.52 1.84 3.06 2.26 4.57 1.59 1.76-.77 2.8-2.69 2.57-4.91-.25-2.37-.58-4.72-.89-7.08-.34-2.54-.43-5.06.3-7.55a8.03 8.03 0 0 1 7.28-5.88c2.17-.17 4.27.1 6.29.97.65.28 1.31.58 1.98.81 3.7 1.29 6.99.76 9.86-2.08 1.32-1.33 2.84-2.46 4.1-3.53Zm-11.76 25.57c-.22-.67-.41-1.7-.9-2.55-.24-.41-1.07-.68-1.59-.63-.35.03-.93.74-.91 1.13.05 1.3.21 2.62.56 3.86.1.37 1 .72 1.52.7.39-.02.83-.61 1.1-1.03.19-.3.13-.76.22-1.48Zm-2.43-9.54c-2.65-1.41-5.54-.57-7.22 1.9-.24.36-.14.96-.2 1.45.5-.02 1.07.11 1.49-.09 1.54-.74 3.03-1.59 4.53-2.4.38-.21.76-.46 1.4-.85Zm5.43 19.71a4.56 4.56 0 0 0 5.13 2.62c1.57-.38 2.03-.94 2-2.64l-3.62.57c-1.21.18-2.19-1.3-3.52-.55Zm7.88-22.32c.07.25.07.5.16.53 1.75.64 3.49 1.32 5.27 1.83.69.2 1.17-.62.83-1.27-.66-1.23-1.9-1.63-3.14-1.9-1.16-.25-2.36-.41-3.12.8Zm.73 9.67c1.23-.42 1.87-.69 2.54-.85.76-.17 1.56-.16 2.31-.37.38-.1 1.01-.61.97-.76-.14-.45-.48-.99-.88-1.17-1.34-.61-3.68.03-4.5 1.21-.26.37-.23.94-.44 1.93Zm-2.26 6.27c1.86-.13 3.39-1.31 3.44-2.51.01-.35-.14-.92-.38-1.03-1.3-.61-2.57-1.55-4.27-.93.11 1.84 1.82 1.42 2.78 2.05l-1.57 2.41ZM430.02 77.13c.02 3.07-.31 6.12-1.22 9.07a21.3 21.3 0 0 0-.7 9.15c.21 1.64.14 3.31.14 4.97 0 1.38.04 2.72 1.27 3.57-1.86.89-3.68 1.65-5.4 2.61a7.91 7.91 0 0 0-2.31 2c-1.08 1.38-.85 2.24.52 3.38 1.26 1.04 2.25 2.39 3.94 2.91.4.12.57 1.01.93 1.71-2.51.39-4.72-.28-6.95-.6-1.89-.28-2.17-.23-3 1.41-.39.77-.72 1.59-.93 2.43-3.66 14.82-8.42 29.21-16.36 42.4-2.24 3.73-4.19 7.65-6.18 11.51a20.18 20.18 0 0 1-6.15 7.41c-1.99 1.41-4.06 2.12-6.46 1.17-.74-.29-1.52-.49-2.22-.84-1.84-.9-3.65-1.87-5.48-2.81-.74-2.89-2.57-5.43-2.51-8.6.15-8.25 2.7-15.64 7.19-22.54 2.87-4.42 6.31-8.31 9.84-12.16a56.42 56.42 0 0 0 5.11-6.25c4.83-7.09 10.69-13.37 15.93-20.13 4.81-6.2 9.65-12.39 14.18-18.78 1.76-2.48 2.75-5.51 4.05-8.31.75-1.62 1.42-3.27 2.13-4.91l.66.2ZM89.13 244.3c2.43 0 4.87-.18 7.28.04 5.2.48 10.41.94 15.55 1.82 11.33 1.93 22.4 4.98 33.54 7.79 15.59 3.93 31.23 7.74 47.13 10.24 2.51.39 5.04.69 7.5 1.28 5.72 1.39 11.14.41 16.51-1.64 8.66-3.31 17.34-6.59 26.03-9.82 13.23-4.91 26.47-9.76 39.71-14.64l2.01-.74c.91-.34 1.54-.08 1.93 1.09-.59.28-1.17.6-1.79.85l-54.06 21.71c-3.31 1.33-6.61 2.7-9.97 3.86-2.24.77-4.58 1.21-6.89 1.78-.31.08-.66.03-.93.17-3.44 1.65-6.98 1.14-10.49.44-8.55-1.71-17.14-3.24-25.61-5.3-13.08-3.19-26.04-6.89-39.11-10.14a554.94 554.94 0 0 0-29.67-6.64c-5.18-.99-10.55-.99-15.84-1.45-.98-.09-1.95-.26-2.92-.4l.07-.3ZM310.51 408.68c5.87 2.73 11.41 4.44 17.42 3.13.38 2.2-.26 9.77-1.23 14.83-2.3.58-4.69 1.46-7.16 1.76-4.08.49-7.63-.91-10.59-4l1.55-15.72ZM305.64 450.62c1.03.39 1.55.52 2.01.77a12.03 12.03 0 0 0 6.86 1.63c3.97-.32 7.46 1.12 11.04 2.36 4.56 1.58 9.1 3.23 13.73 4.6a35.95 35.95 0 0 0 15.29 1.28c2.72-.39 5.39-1.17 8.08-1.76.36 2.11-.03 3.01-2.09 3.8a30.82 30.82 0 0 1-12.33 2.07c-6.54-.24-12.63-2.03-18.48-4.84a103.79 103.79 0 0 0-7.19-3.1 10.81 10.81 0 0 0-6.53-.64c-.23.05-.48.13-.7.08-3.19-.69-6.26-1.74-8.82-3.84-.46-.38-.49-1.29-.87-2.4ZM125.59 460.69c4.98.02 8.76 5.87 6.74 10.42-1.62 3.65-5.58 4.39-8.27 1.51-1.83-1.96-3.07-4.24-3.09-7-.02-2.95 1.88-4.93 4.61-4.93Z" class="cls-1"/>
    <path d="M423.77 109.86a21.73 21.73 0 0 1 8.64-3.65c1.25-.21 2.51-.36 3.76-.58.7-.13 1.42-.25 2.06-.55.96-.44 1.25-1.35.84-2.16-.4-.79-1.72-1.54-2.37-1.16-.33.2-.39.86-.66 1.53l-4.84.4.31-5.73c4.86 1.9 10.17 2.49 14.47 6.6-1.07.67-1.76 1.33-2.58 1.58a162.68 162.68 0 0 1-16.58 4.14c-.96.19-1.97.14-2.95.21l-.09-.62ZM426.98 112.37c5.25-1.27 10.45-2.54 15.66-3.73.48-.11 1.34.16 1.56.53.49.83-.29 1.25-.93 1.57-.34.17-.74.3-1.13.35-4.38.58-8.75 1.17-13.13 1.69-.69.08-1.55.26-2.04-.41ZM440.46 115.93c-.73.41-1.48.79-2.18 1.26-1.77 1.19-3.64 1.93-5.8 1.32-.43-.12-.81-.41-1.11-.57 2.56-.69 5.12-1.41 7.69-2.07.43-.11.93.03 1.39.06ZM436.57 114.7l-4.08.51-.04-.31 4.08-.68.04.48Z" class="cls-1"/>
    <path d="M207.55 298.27a3.3 3.3 0 0 1-.84-3.48c.09-.29.55-.65.82-.65s.69.41.77.71c.3 1.12 0 2.16-.75 3.41ZM323.56 45.54c-.09.72-.03 1.18-.22 1.48-.27.43-.71 1.01-1.1 1.03-.52.03-1.41-.33-1.52-.7a16.21 16.21 0 0 1-.56-3.86c-.01-.39.56-1.1.91-1.13.53-.04 1.36.23 1.59.63.49.85.67 1.87.9 2.55ZM321.13 36c-.65.39-1.01.64-1.4.85-1.5.82-2.99 1.66-4.53 2.4-.41.2-.99.07-1.49.09.06-.49-.04-1.09.2-1.45 1.69-2.47 4.57-3.31 7.22-1.89ZM326.56 55.72c1.33-.75 2.31.73 3.52.55l3.62-.57c.02 1.7-.44 2.26-2 2.64a4.57 4.57 0 0 1-5.13-2.62ZM334.44 33.39c.76-1.22 1.96-1.05 3.12-.8 1.25.27 2.48.67 3.14 1.9.35.65-.14 1.46-.83 1.27-1.79-.51-3.53-1.19-5.27-1.83-.08-.03-.09-.28-.16-.53ZM335.17 43.07c.21-.99.18-1.56.44-1.93.82-1.18 3.16-1.82 4.5-1.21.41.18.74.72.88 1.17.05.15-.58.65-.97.76-.75.21-1.55.19-2.31.37-.67.15-1.31.43-2.54.85ZM332.91 49.34l1.57-2.41c-.96-.63-2.67-.21-2.78-2.05 1.71-.62 2.97.32 4.27.93.24.11.39.68.38 1.03-.05 1.19-1.59 2.38-3.44 2.51Z" class="cls-3"/>
  </g>
  <path id="primary-color" fill="#71a52e" d="M240.65 187.69c-.95.37-1.66.7-2.41.93-5.49 1.72-10.47 4.51-15.44 7.33a29.3 29.3 0 0 0-12.22 13.03c-.17-1.61-.38-2.73-.38-3.84-.05-8.77 1.19-17.39 3.01-25.94 5.3-24.92 14.34-48.47 25.94-71.08 3.39-6.61 7.55-12.67 13.59-17.23 4.99-3.78 10.56-6.39 16.39-8.54 5.95-2.2 11.89-4.41 17.82-6.67 1.76-.67 3.44-1.55 5.44-2.46-.32 1.38-.65 2.5-.84 3.65a25.71 25.71 0 0 0-.41 4c0 1.92.8 3.52 2.43 4.66.71.5 1.32 1.16 2.07 1.6 5.34 3.14 10.93 5.42 17.33 4.72 2.95-.33 5.5-1.64 7.59-3.62.77-.73 1.14-2.05 1.35-3.17.35-1.85.42-3.76.62-5.71.64.07 1.13.04 1.57.17 7.5 2.21 14.76 4.82 20.66 10.3 2.89 2.69 5.43 5.58 7.03 9.19 2.54 5.72 5.28 11.38 7.44 17.25 3.76 10.24 9.29 19.44 15.68 28.18.38.51.75 1.03 1.11 1.55.09.13.13.29.21.48-6.48 8.61-9.24 18.2-7.34 29.16-.25-.07-.54-.08-.76-.21-9.72-5.8-18.46-12.89-26.75-20.54-3.16-2.91-3.03-3.03-1.98-7.21 1.55-6.23 3.09-12.46 4.61-18.7.14-.56.13-1.16.19-1.83-1.36-.17-1.51.73-1.82 1.39-1.64 3.44-3.15 6.93-4.9 10.31-6.14 11.82-12.37 23.61-18.56 35.4-2.07 3.95-3.91 7.98-4.27 12.51-.06.79-.15 1.59-.11 2.37.32 7.37.67 14.73 1.01 22.1.03.54 0 1.08 0 1.88-2.35.81-4.62 1.72-6.97 2.37a58.48 58.48 0 0 1-15.51 2.17 7.69 7.69 0 0 1-3.17-.68c-7.94-3.65-15.28-8.38-22.84-12.73-4.19-2.41-8.48-4.64-12.69-7.03-2.48-1.41-4.87-2.96-7.48-4.55.4-1.66.83-3.24 1.13-4.84.12-.66-.06-1.38-.1-2.08-.07-1.08-.24-2.17-.17-3.25.09-1.58.28-3.16.54-4.72.28-1.63.48-3.34 1.11-4.85 2.59-6.22 5.27-12.4 8.04-18.54 2.58-5.7 5.34-11.33 8-16.99.25-.54.41-1.12.61-1.68l-.44-.3c-.62.74-1.34 1.41-1.83 2.22-1.4 2.31-2.72 4.66-4.05 7-3.24 5.73-6.43 11.49-9.72 17.19-3.86 6.69-7.15 13.62-9.22 21.09-.41 1.47-1.11 2.98-.13 4.78Z"/>
</svg>