<svg xmlns="http://www.w3.org/2000/svg" width="141" height="30" fill="none">
  <path fill="#030F40" d="M15.293 22.1v-7.675c0-1.356-.183-1.944-.608-2.47-.527-.628-1.114-.911-2.187-.911-.263 0-.77.101-1.073.263-.405.202-.79.527-1.094.85a2.603 2.603 0 0 0-2.166-1.113c-.345 0-.73.101-1.033.263-.304.162-.567.425-.79.688v-.79H3.75V22.1h2.713v-7.634c0-.668.365-.992.851-.992s.85.324.85.992V22.1h2.714v-7.634c0-.668.364-.992.85-.992s.851.324.851.992V22.1h2.713Zm8.771-5.447c0-1.458-.06-3.28-.75-4.313-.708-1.053-1.72-1.296-2.875-1.296-1.154 0-2.167.243-2.875 1.296-.689 1.033-.75 2.855-.75 4.313 0 1.458.061 3.28.75 4.313.708 1.053 1.72 1.296 2.875 1.296 1.154 0 2.167-.243 2.876-1.296.688-1.033.749-2.855.749-4.313Zm-2.714 0c0 1.235 0 2.309-.202 2.754-.142.304-.446.425-.709.425-.263 0-.567-.121-.709-.425-.202-.445-.202-1.519-.202-2.754s0-2.308.202-2.754c.142-.304.446-.425.71-.425.262 0 .566.121.708.425.202.446.202 1.519.202 2.754Zm11.4 5.447v-7.675c0-1.356-.183-1.944-.608-2.47-.526-.628-1.114-.911-2.106-.911-.344 0-.729.101-1.033.263-.303.162-.567.425-.79.688v-.79h-2.591V22.1h2.713v-7.634c0-.668.365-.992.85-.992.487 0 .851.324.851.992V22.1h2.714Zm8.593-3.341c0-.81-.202-1.397-.486-1.782-.364-.506-.87-.85-1.64-1.154l-1.498-.567c-.324-.122-.567-.284-.689-.486a.768.768 0 0 1-.142-.486c0-.264.061-.466.223-.608a.878.878 0 0 1 1.235.02c.142.162.223.405.223.689h2.653c0-1.114-.425-1.883-1.013-2.45-.607-.567-1.518-.891-2.47-.891-.972 0-1.924.324-2.572.992-.607.628-.992 1.337-.992 2.511 0 .628.121 1.114.364 1.519.345.547.912.951 1.681 1.255l1.519.587c.304.122.547.264.709.466a.973.973 0 0 1 .182.608c0 .223-.081.486-.223.607-.202.183-.364.223-.648.223a.918.918 0 0 1-.668-.284c-.162-.162-.263-.404-.284-.708h-2.673c.02 1.093.405 1.822 1.033 2.49.608.628 1.62.952 2.592.952s1.843-.202 2.552-.911c.567-.587 1.032-1.397 1.032-2.592Zm8.409-1.235c0-2.511-.101-4.516-1.093-5.549-.77-.79-1.58-.931-2.532-.931-.91 0-1.782.141-2.551.931-.992 1.033-1.073 3.038-1.073 4.678 0 1.64.08 3.645 1.073 4.658.77.79 1.519.951 2.551.951 1.134 0 1.965-.263 2.572-.931.709-.77.952-1.681.992-2.592h-2.713c0 .182-.04.506-.142.688-.142.264-.364.405-.709.405a.764.764 0 0 1-.708-.425c-.162-.304-.203-1.154-.203-1.883h4.536Zm-2.713-1.965h-1.823c0-.931.081-1.457.203-1.68.141-.263.344-.405.708-.405.365 0 .567.142.71.405.12.223.202.749.202 1.68Zm9.637-1.842v-2.673c-.587 0-1.134.141-1.6.364a3.555 3.555 0 0 0-1.194.972v-1.174H51.29V22.1h2.714v-6.642c0-1.093.769-1.741 1.68-1.741h.992Zm8.971-2.511h-2.998l-1.215 6.581-1.215-6.581h-2.997L59.997 22.1h2.875l2.775-10.894ZM69.369 22.1V11.631h-2.713v10.47h2.713Zm.081-11.664V7.561h-2.876v2.875h2.876Zm8.638 8.303h-2.693c-.02.243-.04.486-.182.729a.75.75 0 0 1-.668.364c-.264 0-.567-.121-.71-.425-.202-.445-.202-1.519-.202-2.754s0-2.308.203-2.754c.142-.304.445-.425.709-.425.324 0 .526.142.648.344.141.223.182.506.202.75h2.693c-.06-1.013-.364-2.005-1.073-2.674-.709-.668-1.498-.85-2.47-.85-1.155 0-2.167.243-2.876 1.296-.688 1.033-.75 2.855-.75 4.313 0 1.458.062 3.28.75 4.313.709 1.053 1.721 1.296 2.876 1.296 1.053 0 1.923-.263 2.51-.85.628-.628.973-1.66 1.033-2.673Zm8.367-1.215c0-2.511-.101-4.516-1.093-5.549-.77-.79-1.58-.931-2.531-.931-.912 0-1.782.141-2.552.931-.992 1.033-1.073 3.038-1.073 4.678 0 1.64.08 3.645 1.073 4.658.77.79 1.519.951 2.552.951 1.133 0 1.964-.263 2.571-.931.709-.77.952-1.681.992-2.592h-2.713c0 .182-.04.506-.142.688-.142.264-.364.405-.709.405a.764.764 0 0 1-.708-.425c-.162-.304-.203-1.154-.203-1.883h4.536Zm-2.713-1.965h-1.823c0-.931.081-1.457.203-1.68.141-.263.344-.405.709-.405.364 0 .566.142.708.405.122.223.203.749.203 1.68ZM93.744 22.1V7.682h-1.64v4.658c-.162-.223-.385-.466-.587-.588a2.162 2.162 0 0 0-1.134-.303c-.77 0-1.317.263-1.742.77-.668.789-.77 2.207-.77 4.636 0 2.43.102 3.848.77 4.617.466.547 1.013.79 1.742.79.405 0 .79-.121 1.134-.324.182-.101.526-.445.627-.648v.81h1.6Zm-1.64-2.855c0 .567-.142.952-.405 1.215-.223.223-.506.324-.85.324-.385 0-.69-.162-.892-.425-.364-.446-.425-1.337-.425-3.504 0-2.166.06-3.057.425-3.503.203-.263.507-.425.891-.425.345 0 .628.101.85.324.264.263.406.628.406 1.195v4.799Zm9.572-2.005c0-2.592-.141-4.151-.931-4.981-.547-.588-1.215-.81-2.066-.81-.85 0-1.518.223-2.065.81-.77.83-.911 2.39-.911 4.596 0 2.188.141 3.767.931 4.597.547.587 1.195.81 2.086.81.85 0 1.559-.243 2.065-.77.588-.627.831-1.356.851-2.328h-1.64c0 .506-.081.911-.344 1.215-.264.304-.567.405-.932.405-.425 0-.75-.182-.931-.445-.365-.466-.426-1.438-.426-3.099h4.313Zm-1.66-1.235h-2.653c0-1.519.081-2.268.405-2.653.203-.263.466-.425.912-.425.445 0 .728.162.931.425.324.385.405 1.134.405 2.653Zm.83-8.505h-1.498l-1.377 2.734h1.235l1.64-2.734Zm8.264 11.664h-1.641c0 .486-.06.911-.344 1.235-.202.243-.526.385-.891.385-.385 0-.729-.162-.931-.445-.385-.527-.405-1.6-.405-3.483 0-1.904.02-2.977.405-3.484.202-.283.546-.445.931-.445.405 0 .689.122.911.385.284.344.324.79.324 1.215h1.641c-.041-.891-.203-1.762-.851-2.37-.547-.526-1.195-.708-2.045-.708-.891 0-1.681.263-2.207.972-.648.83-.77 2.308-.77 4.434 0 2.107.122 3.605.77 4.435.526.709 1.316.972 2.207.972.85 0 1.559-.223 2.065-.729.547-.567.79-1.377.831-2.369Zm7.579 2.936v-7.715c0-1.134-.202-1.701-.627-2.167-.446-.506-.993-.77-1.782-.77-.426 0-.81.122-1.134.325a2.026 2.026 0 0 0-.588.587V7.682h-1.64V22.1h1.64v-7.715c0-.972.547-1.458 1.236-1.458.688 0 1.255.486 1.255 1.458V22.1h1.64Zm7.848-4.86c0-2.592-.142-4.151-.932-4.981-.546-.588-1.215-.81-2.065-.81-.851 0-1.519.223-2.066.81-.769.83-.911 2.39-.911 4.596 0 2.188.142 3.767.932 4.597.546.587 1.194.81 2.085.81.851 0 1.56-.243 2.066-.77.587-.627.83-1.356.85-2.328h-1.64c0 .506-.081.911-.344 1.215-.263.304-.567.405-.932.405-.425 0-.749-.182-.931-.445-.365-.466-.425-1.438-.425-3.099h4.313Zm-1.661-1.235h-2.652c0-1.519.081-2.268.405-2.653.202-.263.465-.425.911-.425.445 0 .729.162.931.425.324.385.405 1.134.405 2.653Zm7.271 6.095v-1.478c-1.093 0-1.68-.466-1.68-1.58v-6.156h1.62v-1.275h-1.62V8.735h-1.641v2.876h-1.194v1.275h1.194v6.217c0 1.094.324 1.863.912 2.35.668.566 1.478.647 2.409.647Zm7.043-2.855c0-.668-.162-1.256-.446-1.68-.304-.487-.769-.851-1.478-1.196l-1.336-.668c-.426-.202-.729-.445-.871-.688a1.54 1.54 0 0 1-.183-.77c0-.385.122-.749.385-1.012.223-.223.527-.345.911-.345.324 0 .648.102.891.365.264.284.385.648.385 1.256h1.62c0-1.033-.304-1.782-.85-2.309-.507-.506-1.215-.75-2.046-.75-.81 0-1.539.264-2.065.79-.527.527-.871 1.216-.871 2.127 0 .546.102.992.324 1.377.264.445.749.87 1.438 1.215l1.357.688c.425.223.729.446.931.75.182.283.263.587.263.951 0 .425-.162.81-.404 1.053-.264.264-.568.385-.993.385-.324 0-.688-.121-.931-.364-.304-.325-.446-.73-.446-1.276h-1.62c0 .952.284 1.68.891 2.308.506.527 1.256.81 2.106.81.851 0 1.58-.243 2.147-.83a3.017 3.017 0 0 0 .891-2.187Z"/>
</svg>
