<svg xmlns="http://www.w3.org/2000/svg" id="maison-immeuble" viewBox="0 0 500 500">
  <defs>
    <style>
      .cls-1{fill:#fff}.cls-3{fill:#71a52e}.cls-4{fill:#030f40}
    </style>
  </defs>
  <g id="primary-color">
    <path d="m171.34 227.27.34-.43 22.55 11.83c-.56.44-1.01.84-1.52 1.19-8.43 5.64-17 11.02-26.04 15.67-5.66 2.91-11.12 6.2-16.64 9.35a11.18 11.18 0 0 1-6.97 1.5c-3.23-.38-6.06-1.77-8.74-3.78 2.75-2.68 3.56-5.8 2.17-9.67.68.35 1.12.59 1.57.81 1.53.76 3.04 1.58 4.61 2.25a5.9 5.9 0 0 0 4.98-.11c.87-.4 1.8-.68 2.93-1.11l1.17.91a13.76 13.76 0 0 0 5.95 2.72 4 4 0 0 0 2.81-.32 22.73 22.73 0 0 1-9.59-4.05c.77-1.32.97-2.73.51-4.02-.66-1.87-1.52-3.69-3.14-5.1.16.39.35.78.48 1.18.39 1.2.95 2.39 1.1 3.62a4.9 4.9 0 0 1-6.18 5.38 19.12 19.12 0 0 1-3.8-1.53c-1.56-.79-3.04-1.73-4.57-2.61.53-.71 1.11-1.23 1.35-1.88.3-.8.48-1.71.42-2.55-.11-1.54-1.91-5.24-3.8-6.69.36.67.64 1.1.84 1.58.39.95.85 1.88 1.07 2.87.66 3.05-1.23 5.78-4.32 6.41a7.4 7.4 0 0 1-3.9-.37 28.84 28.84 0 0 1-7.6-4.29c1.43-.98 2.48-2.22 2.41-4.05a6.27 6.27 0 0 0-1.62-4.34c0 .57-.03.93 0 1.28.07.73.22 1.46.25 2.19.07 2.18-.68 3.23-2.73 4-1.64.61-3.28.4-4.91 0a30.12 30.12 0 0 1-10.47-4.92c.58-4.41-.68-8.29-3.41-11.85.36.19.7.4 1.07.58 1.92.97 3.81 2 5.77 2.89 2.13.96 4.33 1.29 6.51.11.62-.34 1.03.04 1.45.35a28.53 28.53 0 0 0 7.22 3.56c2.76.92 5.47 1.17 7.91-.68 1.62 1.16 3.18 2.24 4.71 3.37 3.08 2.26 6.39 3.12 10.1 1.68 1.68 1.14 3.3 2.33 5.01 3.37 1.29.78 2.64 1.51 4.05 2.05 2.45.94 4.71.41 6.7-1.29.3-.25.58-.52.93-.83l1.37.81a23 23 0 0 0 6.88 2.88c2 .44 3.99.36 5.96-.16.33-.09.66-.2.97-.34 3.75-1.72 5.38-4.72 2.54-8.76a12.4 12.4 0 0 0-4.22-3.88c.19.29.37.58.58.85.97 1.23 2.05 2.38 2.92 3.68 2.05 3.04 1.32 5.45-2.02 7-1.83.84-3.78 1.09-5.75.84-3.01-.38-5.71-1.62-8.38-3.25 1.96-2.02 1.62-4.1.36-6.21l-1.39-2.37 1.61.59c2.49.95 5 1.35 7.6.41a5.22 5.22 0 0 0 2.3-8.21c-.07-.08-.24-.07-.36-.11l.02.04Z" class="cls-3"/>
    <path d="M133.55 251.01c1.51.52 1.65 1.85 1.99 3.07.96 3.46-.13 6.26-2.8 8.52-.57.49-1.28.82-2.08 1.33 1.29.32 2.1-.42 2.98-.78 4.15 3.23 6.71 4.14 11.97 4.2-.34.3-.53.55-.78.67-1.27.63-2.56 1.23-3.85 1.82-.57.26-1.16.48-1.78.74-.1-.05-.25-.08-.36-.17-17.98-12.74-36.5-24.68-54.91-37.04.49-2.8-.19-5.47-1.61-8.35.71.3 1.14.44 1.54.65a18.77 18.77 0 0 0 9.18 2.2c1.21-.03 2.43-.26 3.62-.49 1.06-.2 1.09-.18 1.34.95.13.6.44 1.19.76 1.73a17.9 17.9 0 0 1 2.37 6.89c.27 2.08.03 4.02-1.72 5.47-.05.04-.03.17-.04.27q1.03.04 2.63-1.59l1.66 1.12a29.84 29.84 0 0 0 8.74 4.09c1.76.52 3.56.71 5.36.21.68-.19 1.11.14 1.61.45 2.21 1.35 4.41 2.72 6.67 3.98a7.25 7.25 0 0 0 4.98.8c.85-.16 1.67-.49 2.53-.76ZM144.15 240c2.67-2.49 3.21-4.01 2.03-5.69-.19.31-.45.56-.5.84-.59 3.61-4.18 4.92-7.56 3.99a20.57 20.57 0 0 1-4.41-1.93c-1.32-.72-2.52-1.68-3.88-2.6 1.72-1.8 1.67-3.79.8-6.04l1.02.22c1.39.28 2.76.69 4.17.81 1.71.14 3.18-.46 4.09-2.05.09-.15.1-.35.22-.8-.38.26-.56.37-.71.5a4.93 4.93 0 0 1-3.84 1.1 15.87 15.87 0 0 1-8.52-3.35c1.4-1.19 2.58-2.51 3.04-4.35.46-1.84-.16-3.47-1.02-5.36l1.28.65c1.22.6 2.41 1.3 3.68 1.79 1.36.52 2.8.45 4.18-.04 1.5-.53 2.28-1.6 2.36-3.41l-1.2 1.18a4.68 4.68 0 0 1-5.15 1.13c-2.48-.85-4.54-2.43-6.67-3.82.07-.22.09-.38.13-.39.79-.1 1.45-.37 1.89-1.1.56-.94 1.12-1.87 1.02-3-.07-.72-.26-1.43-.42-2.15-.07-.31-.21-.61-.41-1.14.52.22.83.32 1.11.47 2.54 1.38 5.06 2.79 7.61 4.16 1.11.59 2.26 1.09 3.61 1.74-.13 2.31-.27 4.84-.43 7.37-.19 2.98-.45 5.96-.58 8.94-.03.69.18 1.5.55 2.07a9.8 9.8 0 0 0 6.13 4.48c2.35.53 4.45-.23 6.29-1.74.41-.34.79-.72 1.2-1.09a4.33 4.33 0 0 1 2.47 2.37c.48 1.12 1.2 2.13 1.8 3.2.98 1.76 1.15 3.57-.06 5.27a5.44 5.44 0 0 1-5.31 2.48 7.19 7.19 0 0 1-1.58-.34c-2.97-1.04-5.56-2.81-8.45-4.38Z" class="cls-3"/>
    <path d="M81.18 223.77c.12.55.22 1.1.37 1.64.43 1.55.94 3.09 1.31 4.65.18.77.12 1.6.19 2.69l-22.9-14.62c.46-.18.7-.3.96-.37 3.24-.92 6.5-1.81 9.73-2.77 3.38-1 6.73-2.06 10.09-3.12a2.24 2.24 0 0 1 2.08.24c.69.45 1.45.82 2.21 1.14 2.26.96 4.51 1.36 6.64-.31 2.07 1.35 4.09 2.64 6.06 3.99 1.36.93 2.03 3.29 1.5 5.21-.63 2.28-1.75 4.22-5.06 4.52-3.41.31-6.62-.36-9.67-1.86-.62-.3-1.21-.65-1.84-.92-.42-.19-.89-.28-1.33-.42l-.33.31Z" class="cls-3"/>
    <path d="m92.42 212.64.13-1.64c-1.4 1.18-2.61 2.31-4.36 2.15a9.81 9.81 0 0 1-4.73-1.85c.34-.17.55-.34.8-.41 4.2-1.16 8.41-2.3 12.61-3.47a3.07 3.07 0 0 1 2.39.28c1.03.56 2.1 1.06 3.16 1.57 2.71 1.29 5.38 1.31 8-.25.16-.1.34-.17.49-.23 3.32 2.11 4.18 6.42 1.83 9.16-1.48 1.72-3.48 2.09-5.61 1.92-1.78-.14-3.45-.7-5.02-1.54-1.64-.88-3.28-1.76-4.87-2.7-1.61-.94-3.16-1.96-4.81-2.99ZM171.33 227.23c.01.58.02 1.15.05 1.73.03.73.13 1.47.1 2.19a3.05 3.05 0 0 1-2.11 2.9 8.47 8.47 0 0 1-5.18.48c-1.37-.34-2.73-.8-4-1.39-1.49-.7-2.89-1.6-4.43-2.47 1.32-2.01 1.16-4.19 1.17-6.34 0-1.47-.1-2.94-.15-4.4v-1.43c4.09 3.18 8.67 5.05 13.02 7.33.66.35 1.32.65 1.55 1.45l-.01-.04Z" class="cls-3"/>
    <path d="M114.04 211.02c4.28 1.64 8.11 3.83 12.58 2.1a7.48 7.48 0 0 1 2.48 7.17 5.33 5.33 0 0 1-6.84 4.22 24.28 24.28 0 0 1-4.26-1.92c-1.67-.91-3.25-1.96-4.95-3.01.84-1.38 1.97-2.46 2.11-4.06.13-1.52-.28-2.88-1.13-4.5Z" class="cls-3"/>
    <path d="M112.07 208.38c1.66-1.52 2.21-3.17 1.3-5.27.84-.22 1.59-.39 2.32-.61 1.54-.48 3.09-.93 4.6-1.51.58-.22.98-.16 1.49.12 1.03.56 2.07 1.14 3.17 1.54 2.66.97 3.1 3.33 3.53 5.61.23 1.27-.59 2.34-1.62 3.12a5.87 5.87 0 0 1-4.43 1.21 21.88 21.88 0 0 1-10.36-4.19ZM101.65 219.13c3.41 1.75 6.75 2.56 10.31 1.03 1.72 2.14 2.46 4.49 1.98 7.14a4.65 4.65 0 0 1-5.41 3.98c-.77-.09-1.55-.25-2.28-.51a32.01 32.01 0 0 1-7.65-3.87 7.44 7.44 0 0 0 2.73-3.39c.55-1.35.75-2.71.33-4.38ZM126.14 225.48c.89 1.18 1.86 2.23 2.56 3.43 1.43 2.45.07 5.4-2.68 6.11-1.17.3-2.33.23-3.48-.04a27.3 27.3 0 0 1-8.37-3.41c-.19-.12-.37-.29-.48-.38.66-.51 1.45-.86 1.85-1.46a5.34 5.34 0 0 0 .88-3.63c-.15-1.09-.42-2.17-.66-3.31 1.68.82 3.3 1.7 4.99 2.41 1.68.71 3.46 1.07 5.38.29ZM360.28 64.92c6.63 1.48 13.24 3.08 19.87 4.62M333.69 53.58c2.31-.62 4.63-1.25 6.95-1.84.5-.13 1.07-.19 1.58-.1M374.91 63.29c5.18 1.02 10.35 2.14 15.52 3.21M347.68 57.99c9.07 1.82 18.16 3.51 27.23 5.3M368.34 55.85c-7.7-1.65-15.48-2.91-23.22-4.34M399.17 63.08c-2.25-.45-4.49-.92-6.72-1.45-8.04-1.93-16.04-4.05-24.12-5.78M366.31 46.48c6.13 1.27 12.25 2.58 18.37 3.89M370.15 75.41c-3.79-.75-7.59-1.45-11.36-2.29M375.22 44.36c1.75.44 3.47.99 5.23 1.44 1.84.47 3.69.86 5.77 1.33M244.02 418.26l-4.13 2.21c-.21-.46-.48-.97-.68-1.49-.72-1.92-1.41-3.86-2.12-5.79-.17-.46-.27-.98-.56-1.35-.94-1.16-.93-2.5-.95-3.88-.02-.94.04-1.96-.76-2.72-.71.15-.62.68-.66 1.15-.21 3.08-.41 6.15-.64 9.23-.23 3.02-.49 6.05-.75 9.27-5.08 3.66-10.82 3.24-16.71 1.96-.21-1.52-.34-3.03-.66-4.5-.59-2.72-1.28-5.42-1.95-8.13-.4-1.62-.79-3.23-.25-4.9.11-.36.1-.79.03-1.16-.04-.23-.3-.56-.48-.58-.21-.02-.44.27-.66.43-.03.02-.04.09-.05.13-1.64 5.32-5.11 9.67-7.68 14.49-.27.5-.61.97-.85 1.37l-4.55-2.05.56-1.31c3.2-7.46 6.4-14.93 9.62-22.38.42-.98.86-1.98 1.46-2.86a4.61 4.61 0 0 1 4.4-2.13c1.41.1 2.83.27 4.18-.39.26-.13.68-.04 1 .04 2.18.53 4.17.25 5.91-1.36.84.82 1.93.86 2.99 1.01 1.35.19 2.71.39 4.07.52 1.74.17 2.85 1.15 3.61 2.64a30.06 30.06 0 0 1 2.7 7.58 80.28 80.28 0 0 0 4.36 14.3c.09.22.15.46.21.65ZM111.74 203.8l-12.08 3.25 12.08-3.25s.46.61.46 1.5-.66 1.5-.66 1.5a6.93 6.93 0 0 1-6.41 2.5c-1.97-.22-3.72-1.11-5.46-2.25M380.28 70.09c.9.21 1.82.39 2.72.58l.07.27-6.53 2.7c-21.85-5.03-43.71-9.03-65.53-13.22v-.35c.38-.12.76-.26 1.15-.36 2.19-.54 4.37-1.08 6.56-1.57a4.6 4.6 0 0 1 1.73-.1c6.72 1.04 13.46 1.98 20.14 3.22 6.63 1.23 13.22 2.74 19.81 4.21M342.36 52.2c6.05 1.17 12.12 2.28 18.14 3.59 8.41 1.84 16.78 3.87 25.18 5.78 3.86.88 7.74 1.68 11.62 2.51l.91.18c-1.5.97-2.9 1.67-4.37 2.08-.82.23-1.83-.11-2.74-.3-5.37-1.11-10.71-2.31-16.09-3.35-5.96-1.15-11.95-2.12-17.91-3.25-5.1-.97-10.17-2.06-15.26-3.06-2.5-.49-5.01-.91-7.51-1.36-.52-.09-1.03-.23-1.82-.41.62-.22.97-.37 1.33-.47" class="cls-3"/>
    <path d="M390.57 67.06c.27.06.53.15 1.16.33l-2.21 1.04c-.22.1-.45.18-.68.27q-3.75 1.52-7.76.57c-9.38-2.24-18.74-4.52-28.13-6.72a212.14 212.14 0 0 0-21.25-3.71l-9.74-1.27v-.3l2.51-.66c1.85-.48 3.69-.98 5.54-1.42a4.17 4.17 0 0 1 1.72-.1c5.36 1.13 10.7 2.37 16.07 3.45M345.25 52.05l-1.57-.31-.01-.22c1.7-.39 3.42-.72 5.1-1.18 2.79-.77 5.49-.69 8.34-.03 5.86 1.36 11.81 2.29 17.69 3.55 7.7 1.66 15.36 3.47 23.04 5.22l7.38 1.67c-.26.18-.5.39-.76.52-1.39.71-2.8 1.41-4.2 2.1-.3.14-.66.32-.95.26M384.81 50.92c.29.06.56.17.82.25.06.1.16.19.15.26-.25 1.56.44 2.61 1.7 3.45a6.91 6.91 0 0 0 3.45 1.09c1.26.08 1.96-.74 2.51-1.72.26-.46.42-.97.63-1.48l5.11 1.35c.01 1.1.89 1.66 2.01 1.92.85.2 1.72.47 2.57.47 1.99 0 3.37-1.32 3.64-3.31l.16-1.01 11.15 2.33c-4.13 2.32-8.29 3.82-11.94 5.65-1.19-.35-2.09-.7-3.03-.89-1.58-.32-3.2-.44-4.77-.8-6.25-1.41-12.5-2.79-18.71-4.36-7.32-1.85-14.76-2.98-22.15-4.42-.66-.13-1.31-.25-1.99-.63.24-.09.47-.2.71-.25 2.63-.58 5.25-1.16 7.88-1.71a4.4 4.4 0 0 1 1.73-.09m40.67 8.23c1.7 1.14 4.44 1.73 5.53 1.27-1.05-1.02-3.79-1.69-5.53-1.27ZM358.92 73.67c-10.41-2.31-20.79-4.8-31.22-7" class="cls-3"/>
    <path d="m386.34 47.68-.36 2.74c-5.84-1.82-11.79-2.66-17.94-4.01 2.02-.61 3.72-1.18 5.45-1.62a4.06 4.06 0 0 1 1.86.11M304.92 62.7a2.9 2.9 0 0 1-1.36-.57c1.85-.45 3.69-.91 5.54-1.34.21-.05.47.06.7.11 4.34.97 8.66 2.03 13.03 2.9 12.95 2.58 25.95 4.93 38.84 7.83 4.38.99 8.8 1.79 13.54 2.74-1.49.74-2.69 1.36-3.92 1.92-.28.13-.68.05-1-.01M399.23 51.09v2.25l-5.1-1.21.21-2.47 4.89 1.43Z" class="cls-3"/>
  </g>
  <path id="secondary-color" fill="#f9bc13" d="M248.8 463.12c-9.9-.32-21.31-1.28-32.68-2.84a384.5 384.5 0 0 1-56.64-12.41 161.28 161.28 0 0 1-17.73-6.23c-10.65-4.56-20.07-10.86-27.51-19.85a91.1 91.1 0 0 1-7.19-9.84 165.02 165.02 0 0 1-19.06-43.45c-3.91-14.19-4.53-28.57-2.61-43.12 1.73-13.07 5.06-25.73 9.04-38.27 3.33-10.5 6.6-21.03 9.66-31.61a113.18 113.18 0 0 0 4.36-32.22c-.03-5-.06-9.99-.15-14.99-.21-12.48.62-24.86 2.99-37.14a134.22 134.22 0 0 1 13.93-38.7c7.16-13.2 15.72-25.4 26.43-36.01 3.54-3.5 7.44-6.52 12.02-8.58.49-.22.96-.5 1.41-.78a253.88 253.88 0 0 1 40.44-20.19c4.27-1.69 8.72-2.93 13.12-4.29a678.65 678.65 0 0 1 17.02-5.12c10.77-3.05 21.76-3.77 32.9-3.08 12.68.79 24.91 3.52 36.68 8.27a110.03 110.03 0 0 1 24.07 13.7c20.39 15.04 35.12 34.46 44.91 57.75 2.72 6.47 5 13.09 6.98 19.81a186.24 186.24 0 0 0 23.15 49.47 69.5 69.5 0 0 1 6.57 12.45c3.58 9 4.7 18.37 4.26 27.97-.36 7.7-2.32 15.09-4.67 22.38a225.07 225.07 0 0 1-15.33 35.9c-5.51 10.44-11.27 20.74-16.94 31.1-5.18 9.46-9.95 19.12-13.61 29.29-2.71 7.52-4.74 15.25-6.87 22.94a174.66 174.66 0 0 1-6.59 19.63c-8.43 20.57-22.78 35.61-42.47 45.71a110.07 110.07 0 0 1-36.93 11.21 145.25 145.25 0 0 1-22.97 1.15Z" opacity=".1" style="isolation:isolate"/>
  <g id="invariable">
    <path d="M440.24 153.79c.35-11.8.65-23.61 1.03-35.41.35-10.82.77-21.64 1.15-32.46.03-.71 0-1.42 0-2.31l-1.83 1.25a87 87 0 0 1-12.23 6.99c-4.26 1.98-8.54 3.93-12.77 5.99-4.49 2.19-8.92 4.5-13.37 6.76-1.96.99-3.91 2-5.88 3.01 0 .27-.03.46 0 .65.63 3.39.6 6.83.55 10.26l-.56 36.15-.54 34.83c-.27 16.45-.62 32.91-.81 49.36-.08 6.66.07 13.33.25 19.99.26 9.61-.06 19.2-.58 28.79-.38 7.04-.76 14.09-1.37 21.12-1.12 12.95-1.22 25.93-1.49 38.91a30.3 30.3 0 0 1-1.43 8.96c-.07.22-.12.46-.23.85 2.17-.21 3.78-1.32 5.53-2.04.45-.19.89-.42 1.35-.56.54-.16 1.11-.13 1.42.44a.9.9 0 0 1 .12.6l.05-.04c0-.03.03-.07.07-.08l.06-.02c.18-.14.35-.29.54-.42.38-.27.81-.4 1.28-.38l.03-.09c.75-1.93 1.75-2.87 3.86-3.57.08-.8.13-1.62.24-2.44a14.81 14.81 0 0 1 2.52-6.36c1.01-1.48 1.7-1.87 3.67-2.07l.05-1.38c.18-8.08 4.08-13.86 11.12-17.52 3.86-2.01 7.81-2.11 11.54.53.24.17.47.36.7.54l.79.62c.07-.68.14-1.17.16-1.66l.68-22.77 1.67-55.83 1.27-43.78 1.37-45.39Zm-30.04-21.37c.03-.93.15-1.85.19-2.78.05-1.3.64-2.21 1.82-2.75.71-.32 1.41-.69 2.14-.97 1.14-.44 1.73-.07 1.7 1.15-.03 1.66-.18 3.32-.27 4.98-.02.39 0 .78 0 1.17h-.1c0 1.81-.02 3.62 0 5.43.01 1-.22 1.79-1.15 2.34-.88.52-1.64 1.23-2.53 1.72-1.36.75-2.07.34-2.06-1.21.03-3.03.15-6.07.26-9.1Zm1.93 150.2c-.01.85-.21 1.52-1.14 1.83-.35.11-.61.46-.93.69-.55.4-1.08.85-1.68 1.17-.84.44-1.28.18-1.41-.76-.05-.39-.05-.78-.05-1.17v-4.99h-.04v-5.14c0-1.51.51-2.29 1.95-2.87.72-.29 1.44-.64 2.19-.83.88-.22 1.31.15 1.29 1.07l-.18 11.01Zm1.42-45c.17 2.17-1.66 4.88-3.5 5.58-1.48.56-2.03.3-2.08-1.27-.05-1.81-.01-3.62-.01-5.42h.19c.12-2 .28-4 .34-6.01.03-.84.38-1.39 1.04-1.8.75-.46 1.49-.95 2.3-1.29 1.12-.46 1.82.04 1.82 1.27 0 1.52-.11 3.03-.14 4.55-.02 1.46-.09 2.94.03 4.39Zm2.88-58.78c-.05 2.59-.15 5.18-.19 7.77-.02 1.31-.31 2.41-1.7 2.94-.3.11-.5.44-.76.66-.49.41-.94.88-1.48 1.19-.48.27-1.12.55-1.59.43-.66-.16-.36-.91-.36-1.41-.02-1.76 0-3.52 0-5.28h.11c0-1.76.03-3.52-.01-5.28-.03-1.13.33-2.03 1.34-2.57a35.75 35.75 0 0 1 3.29-1.61c.78-.33 1.2-.06 1.31.82.09.78.09 1.57.07 2.35Zm11.86 98.06c0 .88-.14 1.57-1.06 2.02-.91.44-1.67 1.17-2.56 1.67-.83.47-1.31.22-1.35-.76-.07-1.75-.02-3.51-.02-5.27h-.33v-4.54c.01-1.5.25-1.86 1.65-2.41a31.8 31.8 0 0 1 2.06-.75c.99-.32 1.39-.1 1.47.95.11 1.41.14 2.83.16 4.24.02 1.61-.04 3.23-.03 4.83Zm.58-54.15c-.09 3.47-.12 6.95-.88 10.36-.06.28-.12.63-.31.79-.9.75-1.8 1.52-2.78 2.15-.72.47-1.29.07-1.31-.88-.04-1.61-.01-3.23-.01-4.84h.07c0-1.22.07-2.45-.02-3.67a4.53 4.53 0 0 1 1.5-3.66c.62-.62 1.31-1.18 2.05-1.65.87-.54 1.52-.18 1.67.82.03.19.02.39.01.58Zm2.41-51.52c-.17 3.12-.4 6.24-.51 9.35-.05 1.36-1.13 1.71-1.96 2.3-.67.47-1.44.8-2.17 1.17-.76.39-1.23.17-1.25-.72-.05-1.75-.01-3.51-.01-5.26h-.05l.27-4.68c.09-1.65.61-3.02 2.25-3.77.53-.24.98-.64 1.5-.91 1.13-.58 1.74-.23 1.9 1.05.05.48.06.98.04 1.46Zm.53-51.01c-.1 2.3-.27 4.59-.43 6.89-.05.83-.25 1.67-.18 2.49.16 1.98-.94 3.2-2.36 4.26-.55.41-1.14.77-1.73 1.11-.76.44-1.11.32-1.2-.53-.17-1.6-.22-3.21-.29-4.33.11-2.07.11-3.64.31-5.19.15-1.19.53-2.34.83-3.51a.87.87 0 0 1 .32-.47c1.09-.63 2.16-1.35 3.32-1.82 1.04-.42 1.46-.05 1.41 1.1Z" class="cls-1"/>
    <path d="M198.15 281.38c.1 1.17.03 2.43.34 3.57 1.24 4.57 1.59 9.26 2.24 13.91.23 1.65.59 3.28.89 4.91.07.39.13.78.15 1.17.07 1.03-.24 1.72-.92 1.98-.83.32-1.54.03-2.15-.54a5.9 5.9 0 0 1-1.83-3.13c-.53-2.44-1.11-4.88-1.37-7.35-.5-4.82-.8-9.66-1.19-14.5-.01-.19-.05-.38-.08-.6l-3.97-2.35c-.03.46-.06.83-.07 1.2-.12 6.51-.27 13.03-.33 19.54-.02 2.49.12 4.99.25 7.48.07 1.31-.24 2.43-1.25 3.3-.56.48-1.14.93-1.74 1.35a21088.5 21088.5 0 0 1-39.38 27.02c-1.58 1.08-3.15 2.21-4.87 3.01a56.44 56.44 0 0 1-8.15 3.24c-3.12.9-6.42.83-9.64.48a1506.14 1506.14 0 0 1-39.78-5.12c-5.67-.82-11.32-1.81-16.98-2.65-5.57-.83-11.15-1.58-16.73-2.34a36.09 36.09 0 0 1-6.73-1.47c-2-.68-3.05-1.94-3.13-4.09-.23-6.48-1.36-12.85-2.24-19.25a522.5 522.5 0 0 1-3.37-29.78c-.02-.28-.07-.55-.13-.94-.26.12-.44.17-.59.27-1.27.84-2.61.79-3.93.2-.89-.4-1.72-.93-2.57-1.41l-1.5-.85c-.09.52-.18.88-.23 1.25-.52 4.41-.29 8.81.17 13.2.53 5.06 1.05 10.14 1.83 15.17.41 2.64 1.37 5.2 2.1 7.78.29 1.04.71 2.04.91 3.09.23 1.17-.34 1.88-1.48 2.14-2.35.54-3.8-.26-4.51-2.57-1.11-3.62-1.64-7.35-2.15-11.09-1.32-9.81-.99-19.65-.56-29.49.02-.53 0-1.06 0-1.74-.8-.25-1.57-.54-2.37-.72-4.36-.98-7.56-3.57-9.95-7.24-1.98-3.04-2.97-6.49-3.86-9.96a87.76 87.76 0 0 1-2.55-16.83c-.35-6.11-.69-12.23-.91-18.34-.33-9.55.63-18.97 2.68-28.31 1.33-6.03 2.68-12.05 4.87-17.84a69.08 69.08 0 0 1 7.46-14.63 38.1 38.1 0 0 1 3.94-4.92 16.47 16.47 0 0 1 11.75-5.31 8.67 8.67 0 0 0 5.86-2.29c1.38-1.25 2.82-2.43 4.2-3.68 1.9-1.71 3.9-3.26 6.14-4.51 5.29-2.95 12.34-.67 15 4.89a20.19 20.19 0 0 1 1.62 12.89c-.68 3.45-1.76 6.82-2.67 10.22-.63 2.36-1.34 4.71-1.9 7.09-.61 2.59-.33 5.15.55 7.66 1.57 4.48 3.09 8.98 4.65 13.47a38.87 38.87 0 0 1 2.31 10.14c.1 1.55-.03 3.12-.05 4.68v.76c.27-.05.47-.06.65-.12 9.39-3.14 18.99-5.54 28.58-7.95 6.64-1.67 13.34-3.17 19.95-4.95a9 9 0 0 1 5.8.35c5.03 1.86 9.73 4.38 14.4 6.98.89.49 1.8.93 2.91 1.5.39-2.84.84-5.44 1.07-8.06.21-2.4 1.02-3.55 3.45-3.71 1.7-.12 3.42.04 5.12.23a2.9 2.9 0 0 1 2.48 2.05c.44 1.34.97 2.71 1.1 4.09.4 4.14.62 8.3.91 12.45.04.58.06 1.16.09 1.79.47-.12.89-.33 1.28-.29.42.04.82.28 1.22.47l14.72 7.36c.17.08.35.13.65.23.06-.44.15-.8.15-1.17l.38-17.04c.1-4.21.2-8.42.36-12.63.23-6.18 1.99-11.97 4.71-17.47 1.71-3.47 3.63-6.83 5.46-10.25 2.9-5.4 5.81-10.78 7.8-16.6 1-2.92 1.89-5.87 2.89-8.79a44.05 44.05 0 0 1 4.71-10.1 42.22 42.22 0 0 1 3.9-4.95c.84-.93 1.89-1.71 2.94-2.41 4.39-2.93 8.49-2.24 11.73 1.93a16.77 16.77 0 0 1 2.86 6.39 61.83 61.83 0 0 1 1.61 20.99c-.41 4.49-.69 8.99-.93 13.49a90.03 90.03 0 0 0 2.62 27.1 196.2 196.2 0 0 1 4.74 25.56c.59 5.06 1.03 10.14 1.48 15.21a32.6 32.6 0 0 1-2.74 15.91c-2.11 4.88-4.65 9.49-8.25 13.47a22.13 22.13 0 0 1-5.21 4.49 19.87 19.87 0 0 0-6.46 6.31l-.65.98c-2.19 3.58-5.43 5.38-9.58 5.66-.19.01-.39.05-.58.08-.05 0-.09.04-.45.2Zm-26.69-54.13c.12.03.3.03.36.11a5.22 5.22 0 0 1-2.3 8.21c-2.6.94-5.11.54-7.6-.41l-1.61-.59c.57.98.97 1.68 1.39 2.37 1.25 2.11 1.6 4.19-.36 6.21 2.66 1.63 5.37 2.86 8.38 3.25 1.97.25 3.92 0 5.75-.84 3.34-1.55 4.07-3.96 2.02-7-.87-1.29-1.95-2.45-2.92-3.68-.21-.27-.39-.57-.58-.85a12.4 12.4 0 0 1 4.22 3.88c2.85 4.04 1.22 7.04-2.54 8.76-.31.14-.64.25-.97.34-1.97.52-3.97.6-5.96.16a23 23 0 0 1-6.88-2.88l-1.37-.81-.93.83c-1.99 1.7-4.25 2.23-6.7 1.29a24.83 24.83 0 0 1-4.05-2.05c-1.71-1.04-3.33-2.23-5.01-3.37-3.7 1.44-7.01.58-10.1-1.68-1.53-1.12-3.09-2.21-4.71-3.37-2.44 1.86-5.15 1.61-7.91.68a11.7 11.7 0 0 1-.83-.3c-2.23-.9-4.44-1.83-6.39-3.26-.42-.31-.83-.69-1.45-.35-2.18 1.19-4.38.85-6.51-.11-1.96-.88-3.85-1.92-5.77-2.89-.36-.18-.71-.39-1.07-.58 2.73 3.56 4 7.44 3.41 11.85a30.29 30.29 0 0 0 10.47 4.92c1.64.4 3.27.61 4.91 0 2.05-.77 2.8-1.82 2.73-4-.03-.73-.18-1.46-.25-2.19-.03-.35 0-.71 0-1.28a6.32 6.32 0 0 1 1.62 4.34c.07 1.83-.98 3.07-2.41 4.05a29 29 0 0 0 7.6 4.29 7.4 7.4 0 0 0 3.9.37 5.3 5.3 0 0 0 4.32-6.41c-.21-.99-.68-1.93-1.07-2.87-.19-.47-.48-.91-.84-1.58 1.89 1.45 3.69 5.15 3.8 6.69a6.2 6.2 0 0 1-.42 2.55c-.24.64-.82 1.17-1.35 1.88 1.53.89 3.01 1.82 4.57 2.61 1.21.62 2.49 1.19 3.8 1.53a4.9 4.9 0 0 0 6.18-5.38c-.15-1.23-.71-2.42-1.1-3.62-.13-.4-.32-.78-.48-1.18 1.62 1.41 2.48 3.23 3.14 5.1a4.72 4.72 0 0 1-.51 4.02c2.9 2.1 6.03 3.42 9.59 4.05a4 4 0 0 1-2.81.32 13.7 13.7 0 0 1-5.95-2.72l-1.17-.91c-1.13.42-2.06.7-2.93 1.11a5.87 5.87 0 0 1-4.98.11c-1.57-.67-3.08-1.49-4.61-2.25-.45-.22-.89-.46-1.57-.81 1.39 3.87.58 7-2.17 9.67 2.68 2.01 5.51 3.41 8.74 3.78a11.1 11.1 0 0 0 6.97-1.5c5.52-3.16 10.99-6.45 16.64-9.35 9.04-4.65 17.61-10.03 26.04-15.67.51-.34.97-.75 1.52-1.19l-22.55-11.83-.34.42c-.22-.79-.89-1.1-1.54-1.44-4.35-2.28-8.94-4.14-13.02-7.33v1.43c.05 1.47.15 2.94.15 4.4 0 2.14.15 4.32-1.17 6.34 1.54.87 2.94 1.77 4.43 2.47 1.27.6 2.64 1.05 4 1.39a8.4 8.4 0 0 0 5.18-.48 3.1 3.1 0 0 0 2.11-2.9c.03-.73-.07-1.46-.1-2.19-.03-.57-.04-1.15-.05-1.72ZM35.14 244.73c-.15.76-.26 1.27-.34 1.79-.06.42-.15.87-.08 1.28 1.56 8.89 2.29 17.87 2.93 26.87.35 4.93.81 9.86 1.3 14.78.69 6.92 1.47 13.83 2.18 20.75.63 6.14 1.2 12.28 2.29 18.36.25 1.38.93 2.1 2.17 2.41 1.47.37 2.94.75 4.44 1 4.2.69 8.42 1.31 12.63 1.94.31.05.64 0 1.01 0-.06-.64-.13-1.17-.16-1.7-.29-4.35-.64-8.7-.83-13.05-.16-3.52-.15-7.05-.17-10.58 0-1.24.33-1.61 1.56-1.65 1.27-.03 2.55.04 3.82.13 2.15.15 4.29.42 6.44.5 5.6.22 11.11 1.11 16.55 2.36 4.05.93 5.06 2.04 5.49 6.14.67 6.38 1.24 12.77 1.85 19.16l.37 4.13c.72.11 1.34.22 1.96.3 6.13.75 12.25 1.48 18.38 2.25 4.58.57 9.15 1.01 13.77.7 2.08-.14 4.04-.75 5.95-1.53 1.17-.48 1.38-.97 1.32-2.27-.23-4.79-.55-9.59-.63-14.39-.11-6.61-.04-13.23-.05-19.84 0-.93 0-1.86-.07-2.79-.5-6.66-.42-13.31-.13-19.97.05-1.11.18-2.23.27-3.34.22.31.28.62.3.94.12 2.89.22 5.78.35 8.66.22 4.65.56 9.29.67 13.94.29 11.81.75 23.6 1.9 35.36.03.27.11.54.21.99.59-.34 1.06-.58 1.49-.87 5.04-3.38 10.1-6.75 15.12-10.16 8.1-5.51 16.18-11.05 24.28-16.57.89-.61 1.78-1.23 2.71-1.76 1.16-.66 1.84-1.6 1.88-2.94.03-1.32.1-2.64.03-3.96-.14-2.39-.42-4.78-.55-7.18-.2-3.86-.4-7.73-.46-11.6-.08-4.85-.05-9.7-.02-14.55.03-5.14.1-10.29.18-15.43.03-2.05.17-4.1.25-6.16.02-.5 0-.99 0-1.6-.34.18-.52.25-.68.36a144.32 144.32 0 0 1-17.18 9.9c-9.72 4.89-19.03 10.49-28.22 16.29-.45.29-.94.54-1.45.7-.28.09-.69.04-.94-.11-3.38-2.07-6.78-4.11-10.1-6.28-10.37-6.79-20.7-13.63-31.06-20.44-11.51-7.56-23.02-15.09-34.54-22.63-.81-.53-1.66-1-2.37-1.43-8.68 7.83-17.86 14.81-26.04 22.76Zm140.63-18.94 2.92 1.58c5.3 2.85 10.61 5.69 15.91 8.56 1.85 1 2.09 2.3.75 3.93-.43.52-.95.99-1.5 1.4-1.51 1.15-3.06 2.26-4.46 3.29.33 2.09.87 4.06.91 6.03.1 6.07 0 12.14 0 18.21v4.86c.76.81 1.39 1.47 2 2.15.51.57.95 1.23 2.07 1.16v-9c0-2.2-.05-4.41-.07-6.61 0-.24-.01-.52.09-.72.12-.24.35-.54.57-.57.21-.03.58.17.7.38.22.37.36.81.44 1.23.42 2.41.8 4.83 1.19 7.24.06.38.15.76.23 1.13.38-.4.52-.75.64-1.12 1.04-3.16 2.09-6.32 3.09-9.5a8.7 8.7 0 0 1 2.63-4.05c.74 1.62.78 3.19.28 4.79a914.3 914.3 0 0 1-2.35 7.42c-.92 2.89-1.86 5.78-2.77 8.68-.17.53-.23 1.09-.36 1.69a4.31 4.31 0 0 0 2.86-.61c.63-.38 1.24-.82 1.92-1.07a4.64 4.64 0 0 0 2.34-1.91l.99-1.46c1.98-2.97 4.35-5.54 7.48-7.35a19.2 19.2 0 0 0 4.44-3.81c3.39-3.71 5.76-8.02 7.75-12.58 1.99-4.57 3.01-9.32 2.59-14.31-.42-5.03-.86-10.05-1.43-15.06a180.07 180.07 0 0 0-4.42-24.27 101.45 101.45 0 0 1-2.74-32.79c.27-3.86.44-7.73.77-11.58a57.15 57.15 0 0 0-1.66-18.65 13.6 13.6 0 0 0-2.15-4.95c-2.25-3.05-4.69-3.5-7.87-1.45a17.58 17.58 0 0 0-5.69 5.85 56.32 56.32 0 0 0-3.63 7.03c-1.34 3.2-2.44 6.51-3.56 9.8a82.91 82.91 0 0 1-4.84 11.65c-3.02 5.77-6.06 11.53-9.04 17.32a41.13 41.13 0 0 0-4.69 16.86c-.25 4.84-.38 9.69-.58 14.53-.24 5.51.06 11.08-1.74 16.63ZM68.18 213.37c.05-.3.1-.44.1-.58 0-.39 0-.78-.03-1.17a54.05 54.05 0 0 0-3.16-14.75c-1.5-4.3-2.9-8.63-4.37-12.95a15.32 15.32 0 0 1-.55-8.4 127 127 0 0 1 1.96-7.68c1.03-3.53 2.2-7.01 2.64-10.68.43-3.58-.03-7.01-1.59-10.31-1.88-3.95-7.07-5.62-10.77-3.62a25.08 25.08 0 0 0-4.78 3.39c-1.79 1.6-3.59 3.18-5.39 4.77-2.05 1.82-4.39 2.92-7.19 2.85-.39-.01-.78.08-1.17.11a13.92 13.92 0 0 0-8.11 3.45 25.15 25.15 0 0 0-4.49 5.22 67.03 67.03 0 0 0-7.8 15.92c-2.03 5.95-3.28 12.09-4.5 18.24a110.6 110.6 0 0 0-2.12 21.02c-.03 8.29.42 16.55 1.13 24.8.53 6.11 1.48 12.16 3.42 18 .7 2.11 1.6 4.12 2.95 5.88a12.78 12.78 0 0 0 9.51 5.16c.15-2.15.52-4.26.39-6.32a26.01 26.01 0 0 0-1.39-7.49 4.84 4.84 0 0 1-.27-.99c-.1-.57-.33-1.26.37-1.56.72-.3 1.08.33 1.33.84.59 1.23 1.11 2.5 1.64 3.76.14.34.25.68.46 1.28.68-1.27.61-2.7 1.9-3.25.74.56.9 1.31.81 2.12-.23 2.19-.5 4.38-.77 6.56l-.78 6.12c-.06.5-.05.98.47 1.28 2.42 1.42 4.62 3.38 7.88 3.14-.67-9.94-.9-19.95-2.75-29.89-.4.05-.63.07-.86.11l-12.14 2.18c-1.39.25-2.12.02-2.48-.71-.37-.76-.09-1.45 1.02-2.33 7.22-5.72 14.4-11.48 21.67-17.14 5.69-4.42 11.48-8.7 17.22-13.04a5.84 5.84 0 0 1 2.94-1.23c2.64-.3 5.14-1.12 7.65-2.13Zm-1.26 95.38.62 8.09c.2 2.69.45 5.37.6 8.06.15 2.61.2 5.23.3 7.98 9.47.33 18.58 2.18 27.83 3.4-.02-.38-.02-.58-.04-.77l-1.41-13.44c-.26-2.43-.56-4.87-.81-7.3-.14-1.32-.77-2.18-2.08-2.52-.66-.17-1.3-.42-1.97-.58a110.62 110.62 0 0 0-18.75-2.61c-1.36-.07-2.72-.19-4.28-.3Zm66.75-57.73c-.86.26-1.68.59-2.53.76a7.25 7.25 0 0 1-4.98-.8c-2.26-1.26-4.46-2.64-6.67-3.98-.51-.31-.93-.63-1.61-.45-1.8.5-3.6.3-5.36-.21a29.84 29.84 0 0 1-8.74-4.09l-1.66-1.12q-1.6 1.63-2.63 1.59c.01-.09-.01-.22.04-.27 1.75-1.46 1.99-3.39 1.72-5.47a17.62 17.62 0 0 0-2.37-6.89 6.33 6.33 0 0 1-.76-1.73c-.25-1.13-.27-1.15-1.34-.95-1.19.23-2.41.45-3.62.49-3.25.09-6.3-.73-9.18-2.2-.4-.2-.83-.35-1.54-.65 1.41 2.88 2.1 5.54 1.61 8.35 18.4 12.37 36.93 24.3 54.91 37.04.11.08.26.12.36.17.62-.25 1.2-.48 1.78-.74a149.5 149.5 0 0 0 3.85-1.82c.25-.12.44-.38.78-.67-5.26-.06-7.82-.97-11.97-4.2-.88.36-1.69 1.1-2.98.78.8-.51 1.51-.84 2.08-1.33 2.67-2.26 3.76-5.06 2.8-8.52-.34-1.21-.48-2.55-1.99-3.07Zm10.6-11.01c2.89 1.57 5.49 3.34 8.46 4.38.5.18 1.04.28 1.58.34a5.44 5.44 0 0 0 5.31-2.48c1.21-1.7 1.04-3.51.06-5.27-.6-1.07-1.32-2.08-1.8-3.2a4.33 4.33 0 0 0-2.47-2.37c-.41.38-.78.76-1.2 1.09-1.84 1.51-3.95 2.26-6.29 1.74a9.83 9.83 0 0 1-6.13-4.48 3.76 3.76 0 0 1-.55-2.07c.13-2.98.39-5.96.58-8.94.16-2.53.3-5.06.43-7.37-1.35-.65-2.51-1.15-3.61-1.74-2.55-1.36-5.07-2.77-7.61-4.16-.28-.15-.59-.25-1.11-.47.19.53.34.82.41 1.14.17.71.36 1.42.42 2.15.1 1.13-.46 2.07-1.02 3-.44.74-1.11 1-1.89 1.1-.04 0-.06.17-.13.39 2.13 1.39 4.19 2.97 6.67 3.82 1.93.66 3.67.31 5.15-1.13l1.2-1.18c-.08 1.82-.85 2.88-2.36 3.41a6.01 6.01 0 0 1-4.18.04c-1.27-.48-2.46-1.18-3.68-1.79l-1.28-.65c.86 1.89 1.48 3.51 1.02 5.36-.46 1.83-1.64 3.16-3.04 4.35a15.82 15.82 0 0 0 8.52 3.35 4.93 4.93 0 0 0 3.84-1.1c.15-.13.33-.24.71-.5-.12.45-.14.65-.22.8-.9 1.59-2.38 2.19-4.09 2.05-1.4-.11-2.78-.53-4.17-.81l-1.02-.22c.87 2.24.91 4.24-.8 6.04 1.36.93 2.55 1.88 3.88 2.6 1.41.77 2.88 1.51 4.41 1.93 3.38.93 6.97-.39 7.56-3.99.05-.28.31-.53.5-.84 1.17 1.68.63 3.2-2.04 5.69ZM81.3 223.78l.32-.31c.44.13.91.23 1.33.42.63.27 1.22.62 1.84.92a17.86 17.86 0 0 0 9.67 1.86c3.31-.3 4.43-2.24 5.06-4.52.54-1.92-.14-4.28-1.5-5.21-1.98-1.35-4-2.64-6.06-3.99-2.13 1.67-4.38 1.27-6.64.31-.76-.32-1.52-.69-2.21-1.14a2.24 2.24 0 0 0-2.08-.24c-3.36 1.06-6.72 2.12-10.09 3.12-3.23.96-6.48 1.84-9.73 2.77-.25.07-.49.19-.96.37l22.9 14.62c-.07-1.09 0-1.92-.19-2.69-.37-1.57-.87-3.1-1.31-4.65-.15-.54-.24-1.09-.36-1.64Zm73.08-8.12h-.22c0-1.86.05-3.72-.01-5.58-.07-1.91-.24-3.82-.41-5.72-.08-.88-.21-1.76-.42-2.61-.66-2.68-.79-2.78-3.51-3.04-.73-.07-1.47-.13-2.2-.12-.48 0-.97.1-1.44.21-.59.13-.87.53-.94 1.15-.31 3.02-.72 6.03-.95 9.06-.36 4.64-.6 9.28-.89 13.93-.09 1.47-.18 2.93-.3 4.4-.06.75.21 1.33.74 1.83 1.04.98 2.15 1.81 3.52 2.34 1.28.5 2.53.49 3.71-.08 2.21-1.07 3.76-2.69 3.69-5.33-.08-3.48-.23-6.95-.36-10.43Zm-61.83-3.01c1.65 1.03 3.2 2.06 4.81 3s3.24 1.82 4.87 2.7c1.57.84 3.24 1.4 5.02 1.54 2.13.17 4.13-.2 5.61-1.92 2.35-2.74 1.49-7.05-1.83-9.16-.15.07-.33.14-.49.23-2.62 1.56-5.3 1.53-8 .25a66.27 66.27 0 0 1-3.16-1.57 2.99 2.99 0 0 0-2.39-.28c-4.2 1.17-8.4 2.31-12.61 3.47-.24.07-.46.23-.8.41a9.81 9.81 0 0 0 4.73 1.85c1.75.16 2.96-.97 4.36-2.15l-.13 1.63Zm21.61-1.61c.85 1.62 1.26 2.99 1.13 4.5-.14 1.6-1.28 2.67-2.11 4.06 1.7 1.04 3.29 2.1 4.95 3.01 1.37.74 2.78 1.46 4.26 1.92a5.33 5.33 0 0 0 6.84-4.22 7.48 7.48 0 0 0-2.48-7.17c-4.47 1.73-8.3-.46-12.58-2.1Zm-1.97-2.64a21.9 21.9 0 0 0 10.36 4.2 5.83 5.83 0 0 0 4.43-1.21c1.02-.78 1.85-1.85 1.62-3.12-.42-2.28-.87-4.64-3.53-5.61-1.1-.4-2.14-.98-3.17-1.54a1.57 1.57 0 0 0-1.49-.12c-1.51.57-3.06 1.03-4.6 1.51-.73.23-1.48.39-2.32.61.91 2.09.36 3.75-1.3 5.27Zm-10.42 10.75a6.6 6.6 0 0 1-.33 4.38 7.26 7.26 0 0 1-2.73 3.39 32.39 32.39 0 0 0 7.65 3.87c.73.26 1.51.42 2.28.51a4.66 4.66 0 0 0 5.41-3.98 8.5 8.5 0 0 0-1.98-7.14c-3.55 1.53-6.89.73-10.31-1.03Zm24.5 6.34c-1.93.78-3.7.42-5.39-.28-1.69-.7-3.31-1.59-4.99-2.41.23 1.14.5 2.22.66 3.31a5.31 5.31 0 0 1-.88 3.63c-.39.61-1.18.96-1.85 1.46.11.09.28.25.48.38a27.64 27.64 0 0 0 8.37 3.41c1.15.27 2.31.35 3.48.04 2.74-.71 4.1-3.67 2.68-6.11-.7-1.21-1.66-2.26-2.56-3.44Zm-26.62-18.71c1.75 1.14 3.5 2.03 5.46 2.25a6.96 6.96 0 0 0 6.41-2.5c.77-.92.83-1.9.2-3l-12.08 3.25ZM390.14 357.48c2.17-.21 3.78-1.32 5.53-2.04.45-.19.89-.42 1.35-.56.54-.16 1.11-.13 1.42.44.32.58 0 1.07-.44 1.41-.46.36-.98.64-1.49.93-3.47 2-7.22 2.53-11.18 2.36-4.66-.19-9.28-.64-13.9-1.22-6.03-.75-12.08-1.28-18.11-2.02-7.1-.87-14.19-1.81-21.27-2.82-9.02-1.28-18.04-2.55-27.02-4.06-4.04-.68-8-1.87-11.97-2.92a9.2 9.2 0 0 1-2.59-1.32c-.64-.42-.93-1.06-.7-1.92.2-.75.25-1.55.28-2.33l1.29-37.16 1.33-38.34.73-21.74 1.33-39.81c.23-6.76.48-13.51.76-20.27.45-11.06.95-22.12 1.39-33.18.63-16.06 1.22-32.12 1.85-48.17.53-13.41 1.09-26.83 1.64-40.24.09-2.1.32-2.25 2.44-2.78 5.84-1.46 11.66-2.99 17.49-4.51 9-2.35 17.97-4.82 27.01-7.01 4.89-1.19 9.91-1.88 14.86-2.85a345.3 345.3 0 0 0 10.05-2.15 7.81 7.81 0 0 1 3.63 0c1.85.46 3.7.95 5.55 1.4 1.66.41 3.32.79 4.97 1.19.46-3.4.93-6.69 1.36-9.98.21-1.6.4-3.21.58-4.81.17-1.44.62-1.96 2.06-2.25.29-.06.58-.12.87-.13 1.73-.09 2.8.82 2.95 2.55a69 69 0 0 1 .28 4.55c.07 3.23.07 6.46.1 9.69v2.32c1.54.55 3.15.8 4.84.92.33-2.6.64-5.12.97-7.63.33-2.52.67-5.05 1.04-7.57.21-1.48 1.77-2.7 3.37-2.69 1.72 0 3.14 1.11 3.23 2.75.14 2.39.22 4.79.13 7.18-.11 3.03-.41 6.06-.62 9.09-.02.24 0 .48 0 .8l1.03.17c1.83.32 3.67.59 5.48.97 1.92.4 3.81.91 5.72 1.33.41.09.86.06 1.29 0 1.63-.23 2.62.48 2.83 2.15.14 1.17.24 2.34.26 3.51.05 3.43.06 6.86.08 10.29 0 .29.03.58.05.93.25.07.48.17.7.18 3.38.12 6.75.21 10.13.36 2.64.12 5.28.27 7.91.48 1.47.12 1.86.6 1.78 2.11-.15 2.64-.4 5.27-.54 7.91-.05.91.16 1.84.15 2.76-.05 4.56-.09 9.11-.2 13.67-.54 20.47-1.11 40.94-1.66 61.42-.35 12.93-.66 25.86-1.02 38.79l-1.92 67.59c-.49 17.73-.94 35.46-1.39 53.19-.03 1.37 0 2.74 0 4.21.28-.11.59-.18.86-.33a4.58 4.58 0 0 1 5.12.38 9.78 9.78 0 0 1 1.85 1.67 19.3 19.3 0 0 1 3.21 5.56c.44 1.16.16 2.11-.86 2.83-1.12.79-2.25 1.56-3.35 2.38-.85.64-1.59 1.42-2.47 1.99a202.88 202.88 0 0 1-20.95 11.88 157.12 157.12 0 0 0-15.27 8.51 7.78 7.78 0 0 1-2.81 1.17c-2.44.41-3.84-1.44-2.94-3.75.75-1.93 1.75-2.87 3.86-3.57.08-.8.13-1.62.24-2.44a14.81 14.81 0 0 1 2.52-6.36c1.01-1.48 1.7-1.87 3.67-2.07l.05-1.38c.18-8.08 4.08-13.86 11.12-17.52 3.86-2.01 7.81-2.11 11.54.53.24.17.47.36.7.54l.79.62c.07-.68.14-1.17.16-1.66l.68-22.77 1.67-55.83 1.27-43.78 1.37-45.4c.35-11.8.65-23.61 1.03-35.41.35-10.82.77-21.64 1.15-32.46.03-.71 0-1.42 0-2.31l-1.83 1.25a87 87 0 0 1-12.23 6.99c-4.26 1.98-8.54 3.93-12.77 5.99-4.49 2.19-8.92 4.5-13.37 6.76-1.96.99-3.91 2-5.88 3.01 0 .27-.03.46 0 .65.63 3.39.6 6.83.55 10.26l-.56 36.15-.54 34.83c-.27 16.45-.62 32.91-.81 49.36-.08 6.66.07 13.33.25 19.99.26 9.61-.06 19.2-.58 28.79-.38 7.04-.76 14.09-1.37 21.12-1.12 12.95-1.22 25.93-1.49 38.91a30.3 30.3 0 0 1-1.43 8.96l-.23.86Zm-69.68-7.71v-1.7c.06-7.79.09-15.58.19-23.37.07-5.1.19-10.19.38-15.28.05-1.3.38-2.61.72-3.88.32-1.2 1.28-1.85 2.46-2.05 1.3-.23 2.62-.44 3.93-.48 2.05-.05 4.11.01 6.16.09 3.72.14 7.44.28 11.15.49 4.72.27 9.26 1.55 13.85 2.52 2.33.49 2.99 1.18 3.16 3.56.22 3.07.44 6.16.38 9.24-.24 11.95-.59 23.9-.9 35.84v.89c8.4.76 16.66 2.52 25.12 2.21a30.86 30.86 0 0 0 2.05-11.14c.07-7.64 0-15.29.32-22.92.37-8.95 1.06-17.9 1.64-26.84.81-12.62 1.45-25.23 1.14-37.89-.16-6.56-.25-13.13-.16-19.69.28-18.37.68-36.73 1.02-55.1.41-22.09.8-44.18 1.18-66.27.05-3.08-.03-6.17-.07-9.25 0-.42-.08-.85-.12-1.25-.65-.06-1.19-.07-1.71-.17a222.93 222.93 0 0 1-20.35-5.18c-1.36-.41-2.11-1.21-2.2-2.58-.12-1.9-.27-3.81-.26-5.72.03-3.72.18-7.44.25-11.16.03-1.95 0-3.89 0-5.77-11.59-1.94-22.86-4.7-34.21-7.08-11.35-2.38-22.76-4.48-34.24-6.72-.09 2.18-.18 4.32-.25 6.47-.26 8.13-.49 16.26-.77 24.38-.53 15.18-1.09 30.35-1.63 45.53-.3 8.42-.56 16.84-.83 25.26-.4 12.48-.79 24.97-1.21 37.45-.22 6.51-.47 13.02-.73 19.53-.43 10.62-.9 21.24-1.32 31.86-.27 6.85-.47 13.71-.74 20.56-.44 11.21-.92 22.41-1.37 33.63-.37 9.15-.72 18.31-1.06 27.46-.1 2.59-.11 5.19-.19 7.78-.03.81.28 1.31 1.04 1.54 1.08.32 2.15.68 3.23.97 6.4 1.71 12.95 2.65 19.5 3.52 1.74.24 3.49.46 5.45.72Zm73.45-260.74 28.43-11.58-.53-22.39c-.58.22-1.05.36-1.48.56-6.16 2.89-12.38 5.67-18.45 8.72-8.42 4.23-17.15 7.68-25.94 11.01-1.31.5-2.68.86-4.04 1.29l.33 11.91c.58.18 1.04.34 1.51.47 4.06 1.12 8.12 2.23 12.16 3.38.85.24 1.52.07 2.15-.52 0-.2.02-.4 0-.59-.4-3.38-.17-6.75.22-10.11.09-.82.13-1.68.39-2.45.17-.49.63-1.01 1.1-1.25.78-.39 1.66-.59 2.51-.81 1.01-.26 1.44.04 1.63 1.09.08.43.1.88.09 1.32-.01 1.71-.06 3.43-.07 5.14v4.83Zm-33.75 263.18v-1.88c.14-6.95.29-13.9.41-20.85.11-6.61.59-13.21.07-19.82-.14-1.83-.51-2.29-2.31-2.65-.86-.17-1.74-.3-2.59-.49a54.16 54.16 0 0 0-12.24-1.29h-2.05c.33 12.1-.55 24.1.22 36.15.77-.04 1.31-.87 2.22-.36-.61.42-1.16.73-1.61 1.15-.3.27-.62.7-.62 1.07-.02 2.49.04 4.98.08 7.62l18.44 1.34Zm-35.57-47.48c.21 3.14.58 6.11.59 9.09.01 4.35-.23 8.71-.35 13.06-.1 4.06-.16 8.12-.27 12.18-.07 2.59-.22 5.18-.32 7.77-.02.58 0 1.15 0 1.76 5.48-.44 10.51 1.56 15.77 2.01v-6.35c-1.5.98-2.51 2.22-4.2 3.03.86-1.59 2.02-2.43 3.11-3.32a2.89 2.89 0 0 0 1.14-2.51c-.01-6.95.03-13.9.11-20.85.05-4.6.18-9.2.26-13.8.01-.57-.05-1.15-.09-1.92-5.36.29-10.57-1.23-15.75-.16Zm109.6 22.26a7.46 7.46 0 0 0-8.04-4.23c-1.47.28-2.96.78-4.26 1.51-5.95 3.32-9.08 8.44-9.41 15.25a13.3 13.3 0 0 1-.19 1.89c-.11.58-.46 1.04-1.11.91-1.04-.21-1.52.42-1.98 1.16a17.13 17.13 0 0 0-2.68 8.59c0 .19.03.4 0 .59-.11.77-.51 1.06-1.21.74-.56-.26-1.02-.31-1.51.02a4.13 4.13 0 0 0-1.66 2.35c-.2.73.19 1.19.95 1.02a5 5 0 0 0 1.82-.86 84.75 84.75 0 0 1 11.86-7.34c8.31-4.2 16.32-8.93 24.36-13.6a25.23 25.23 0 0 0 4.9-3.43c.95-.91 1.09-1.79.34-2.82-.63-.87-1.24-1.76-1.94-2.58a13.08 13.08 0 0 0-1.9-1.82c-.87-.67-1.83-.61-2.73.01a5.35 5.35 0 0 0-2.08 2.93l1.84 1.39-1.04.16c-1.2.21-2.47.24-3.59.68-1.01.4-1.84 1.24-2.77 1.86-.25.17-.74.39-.86.29-.24-.21-.48-.66-.42-.95.1-.5.34-1.06.69-1.42.77-.8 1.66-1.49 2.6-2.31ZM383.07 70.4l-.07-.27c-.91-.19-1.82-.37-2.72-.58-6.62-1.54-13.23-3.14-19.87-4.62-6.59-1.47-13.17-2.98-19.81-4.21-6.68-1.24-13.42-2.18-20.14-3.22a4.81 4.81 0 0 0-1.73.1c-2.19.5-4.38 1.04-6.56 1.57-.39.09-.77.24-1.15.36v.35c21.82 4.18 43.68 8.19 65.53 13.22l6.53-2.7Zm-50.58-16.33c.79.18 1.3.31 1.82.41 2.5.46 5.02.87 7.51 1.36 5.09 1 10.16 2.1 15.26 3.06 5.96 1.13 11.95 2.1 17.91 3.25 5.38 1.04 10.73 2.25 16.09 3.35.91.19 1.91.52 2.74.3a15.91 15.91 0 0 0 4.37-2.08l-.91-.18c-3.87-.83-7.75-1.63-11.62-2.51-8.39-1.91-16.77-3.94-25.18-5.78-6.02-1.32-12.09-2.43-18.14-3.59a3.7 3.7 0 0 0-1.58.1c-2.33.59-4.64 1.22-6.95 1.84-.37.1-.72.25-1.33.48Zm-10.54 2.67v.3l9.74 1.27c7.14.92 14.24 2.07 21.25 3.71 9.39 2.2 18.75 4.48 28.13 6.72q4.01.96 7.76-.57c.23-.09.46-.17.68-.27.64-.29 1.27-.6 2.21-1.04-.62-.18-.89-.27-1.16-.33-5.17-1.08-10.34-2.19-15.52-3.21-9.07-1.79-18.16-3.49-27.23-5.3-5.37-1.08-10.71-2.32-16.07-3.45a4.18 4.18 0 0 0-1.72.1c-1.86.44-3.7.95-5.54 1.42l-2.52.66Zm21.71-5.75.01.22 1.57.31c7.74 1.43 15.52 2.69 23.22 4.34 8.08 1.73 16.08 3.86 24.12 5.78 2.23.54 4.47 1 6.72 1.45.29.06.66-.12.95-.26 1.41-.68 2.81-1.39 4.2-2.1.27-.13.5-.34.76-.52l-7.38-1.67c-7.68-1.74-15.34-3.56-23.04-5.22-5.88-1.27-11.84-2.19-17.69-3.55a16.48 16.48 0 0 0-8.34.03c-1.68.46-3.39.79-5.1 1.18Zm63.11 8.65c3.65-1.83 7.82-3.33 11.94-5.65l-11.15-2.33-.16 1.01c-.27 1.98-1.65 3.31-3.64 3.31-.86 0-1.72-.27-2.57-.47-1.12-.27-2-.82-2.01-1.92l-5.11-1.35c-.21.5-.37 1.02-.63 1.48-.55.97-1.25 1.8-2.51 1.72a6.91 6.91 0 0 1-3.45-1.09c-1.26-.84-1.95-1.89-1.7-3.45.01-.07-.09-.16-.15-.26-.26-.08-.54-.19-.82-.25-6.12-1.31-12.24-2.62-18.37-3.89a4.6 4.6 0 0 0-1.73.09c-2.63.54-5.26 1.13-7.88 1.71-.24.05-.48.17-.71.25.68.38 1.33.5 1.99.63 7.39 1.44 14.84 2.57 22.15 4.42 6.21 1.57 12.47 2.95 18.71 4.36 1.57.36 3.19.48 4.77.8.94.19 1.84.54 3.03.89ZM375.2 73.53c-4.74-.95-9.16-1.76-13.54-2.74-12.89-2.9-25.89-5.25-38.84-7.83-4.36-.87-8.68-1.93-13.03-2.9-.23-.05-.49-.16-.7-.11-1.85.43-3.69.89-5.54 1.34.45.37.9.49 1.36.57 7.6 1.42 15.23 2.68 22.79 4.28 10.43 2.21 20.81 4.69 31.22 7 3.77.84 7.57 1.54 11.36 2.29.33.07.72.14 1 .01 1.23-.55 2.43-1.18 3.92-1.91Zm14.19-40.74-.34 2.85c-.62 4.85-1.26 9.71-1.86 14.57-.24 1.97.32 2.78 2.19 3.39.32.11.66.18.99.26.84.22 1.51-.08 1.82-.84.36-.84.62-1.75.79-2.65.79-4.37.68-8.78.57-13.19-.05-1.81-.18-3.62-.29-5.43-.04-.67-.23-1.27-.98-1.47-.97-.25-1.85.07-2.67.51-.17.09-.14.57-.23.96.58-.25.98-.52 1.43-.6.65-.12 1.23.34 1.31.9.08.57-.35 1.14-1.07 1.14-.53 0-1.06-.26-1.68-.43Zm16.29 21.28c.08-.88.19-1.71.23-2.54.2-4.01.4-8.02.56-12.03.07-1.81.05-3.62 0-5.43-.01-.44-.17-1.03-.47-1.29-.68-.6-1.54-.53-2.35-.16-.74.34-1.3.74-1.31 1.72-.02 1.52-.21 3.02-.35 4.54-.37 4.24-.76 8.48-1.11 12.73-.05.61.06 1.24.09 1.78 1.55.76 3.03.93 4.71.69Zm18.12 24.84c-1.6.8-2.97 1.56-4.41 2.17a538.66 538.66 0 0 1-11.64 4.86c-5.44 2.2-11.01 4.08-16.23 6.79-.4.21-.78.44-1.41.79l5.1 1.35 30.8-15.06-2.22-.91ZM322.18 349.73l.36.23c.15-.23.38-.44.45-.68.16-.6.33-1.23.36-1.85.13-3.08.23-6.16.32-9.24.1-3.42.21-6.85.27-10.27.07-3.86.03-7.73.16-11.59a75.2 75.2 0 0 0-.58-10.49 6.12 6.12 0 0 0-.46 1.8 63.9 63.9 0 0 0-.12 3.66c-.13 8.8-.22 17.61-.37 26.42-.06 3.62-.25 7.23-.37 10.85v1.16Zm64.16-302.59c-2.07-.48-3.93-.86-5.77-1.33-1.75-.44-3.47-1-5.23-1.44a3.94 3.94 0 0 0-1.86-.11c-1.73.44-3.43 1.01-5.45 1.62 6.16 1.35 12.1 2.19 17.94 4.01l.36-2.74Zm43.49 33.4-.35 8.68 6.02-3.19c-1.09-1.45-.46-3.02-.67-4.62l-5-.87Zm-7.86 12.22.78-9.03-4.09 2.04a55.78 55.78 0 0 0-.19 8.6l3.51-1.6Zm5.76-2.74v-8.73c-.84.4-1.66.82-2.5 1.19-.58.25-.75.65-.79 1.25-.12 2-.31 4-.46 6-.05.62-.06 1.24-.09 2.11l3.86-1.82Zm-39.12 5.04c-.28-.11-.55-.31-.72-.25-1.04.4-2.06.83-3.06 1.31-.15.07-.23.42-.24.64-.09 1.84-.16 3.69-.24 5.69l4.02.95.25-8.34Zm24.77-6.69-.43 8.41 3.83-1.71v-8.36l-3.4 1.66Zm-20.32 7.6-3.02-.7v8.47l3.7.88-.68-8.66Zm18.66-6.77-3.4 1.7-.35 8.29 3.45-1.69.3-8.29Zm-9.96 13.21.52-8.52-3.42 1.59v4.25c-.01 1.38-.36 2.75-.17 4.27l1.33-.65 1.74-.94Zm-59.88 250.35c1.05.64 15.54 2.6 18.52 2.5l-.18-1.73-18.06-1.07c-.09 0-.19.19-.28.3Zm61.81-259.58-.51 8.5c.95-.49 1.66-.89 2.41-1.23.52-.24.67-.6.69-1.15.06-1.76.18-3.52.27-5.28l.1-2.24-2.96 1.41Zm25.04-14.69c1.42-.68 2.61-1.23 3.76-1.83a.97.97 0 0 0 .45-.68c.04-1.15.23-2.3-.03-3.49l-3.72-.4-.46 6.4Zm-4.53-7.29a23.8 23.8 0 0 0 .17 6.5l2.71.55v-6.43l-2.88-.63Zm-27.19 33.78.56-8.88-2.18.93v8.9l1.62-.95Zm-13.97-8.03c-.09-.01-.2-.06-.28-.03-.46.16-.92.33-1.37.51q-2.32.91-2.39 3.45s.04.09.12.26l3.93 1.01v-5.19Zm-42.97 255.4c-.46-.11-.91-.25-1.37-.34l-4.45-.91c-2.35-.47-4.69-.99-7.05-1.37-1.06-.17-2.2-.35-3.29.32 1.17.64 14.64 2.77 16.17 2.31Zm32.08-253.38c.82-.04 1.32-.26 1.39-.99l.68-6.68-1.96-.56c-.29 2.8-.49 5.45-.11 8.23Zm27.07-48.53-4.89-1.43-.21 2.47 5.1 1.21v-2.25Zm-23.41 41.3-.4 5.98c.6-.24 1.11-.39 1.57-.64.22-.12.48-.39.51-.62.21-1.37.37-2.76.55-4.2l-2.23-.52Zm66.34-11.16c-.06-2.2.53-4.19.04-6.34l-1.45.62-.33 5.42 1.74.3Zm-50.22-2.39-.26.15v9.04c0 .72.01 1.45-.68 1.98-.17.13-.1.59-.14.94 1.05-.05 1.34-.52 1.34-1.43 0-2.34.13-4.68.17-7.01.02-1.02-.03-2.05-.09-3.07-.01-.2-.21-.4-.33-.6Zm-8.4 15.55c-1.4-.55-2.63-.82-4.01-1.04v3.47c1.35-.94 2.95-.96 4.01-2.43Zm51.42-18.27c.84-.39 1.55-.66 2.2-1.04.61-.36 1.53-.36 1.77-1.46l-3.97-.29v2.79Zm1.76 9.76 3.45-2.31-.09-.33-3.08-.58-.28 3.22Zm1.86-5.15v-4.17l-1.68.84.24 2.98 1.44.35Zm-61.22 20.72-.09-1.8-2.54.93 2.64.87Zm57.69-23.24c-.64.69-.71 1.21-.33 1.92.65-.57.6-1.11.33-1.92ZM211.53 414.72l-.76 1.37c-2.34 4.13-4.65 8.28-7.04 12.38a25.7 25.7 0 0 1-4.49 5.79c-.17.17-.34.36-.47.56-2.12 3.29-3.8 6.72-3.94 10.75-.04 1.02 0 2.16-.8 3.1-1.22-.19-1.47-1.34-2.2-2.22l-1.07 2.45c-.14.31-.25.65-.46.91-.16.2-.48.43-.68.4-.21-.03-.46-.35-.52-.59-.11-.42-.08-.87-.12-1.38-.92.35-.96 1.84-2.38 1.61l.4-2.14-2.16 1.27c-.75-1.22.45-1.81.54-2.79-.19.02-.37.08-.53.06-.85-.12-1.03-.47-.55-1.16 1.7-2.45 3.39-4.91 5.13-7.33a25.35 25.35 0 0 0 2.76-4.83c3.16-7.33 6.45-14.6 9.58-21.94 1.84-4.32 3.47-8.74 5.22-13.09.44-1.09.91-2.17 1.52-3.17a7.7 7.7 0 0 1 6.55-3.85c1.06-.06 2.13 0 3.18 0 .6-1.56.33-2.96.21-4.35-.81-.35-1.6-.63-2.32-1.02a3.83 3.83 0 0 1-2.22-3.67c.03-1.76.47-3.39 1.31-4.91.46-.84.62-1.63-.15-2.46.29-.26.5-.54.78-.69a15.08 15.08 0 0 0 3.9-3.07 9.61 9.61 0 0 1 7.93-3.11c2.52.13 4.53 1.13 5.78 3.42.28.52.66.98.91 1.51.26.56.53 1.17.59 1.77.2 2.13-.48 4.05-1.55 5.86-1.41 2.37-3.46 4.1-5.71 5.59v4.54c1.32.18 2.57.36 3.82.52.87.11 1.75.19 2.62.3a5.68 5.68 0 0 1 4.38 3.1 25.33 25.33 0 0 1 2.75 7.56c1.97 9.79 5.33 19.13 9.03 28.37.11.27.23.54.32.82a5.11 5.11 0 0 0 2.19 2.98c1.67 1.1 3.22 2.37 4.83 3.57.9.67.78 1.15-.56 1.9.17.28.41.54.5.84.11.39.29.97.11 1.19-.19.23-.78.17-1.19.18-.17 0-.36-.11-.76-.24.25.67.47 1.18.63 1.7.17.56.15 1.05-.55 1.29-.21.07-.4.32-.53.52-.39.67-.76.86-1.4.49-.5-.29-.95-.69-1.33-1.13-.87-.99-1.69-2.02-2.68-3.21-.15.72-.22 1.28-.4 1.8-.22.63-.38 1.48-1.21 1.48-.86 0-.81-.92-.91-1.47-.22-1.2-.53-2.46-.35-3.63.39-2.49-.66-4.39-2.06-6.2a59.86 59.86 0 0 1-8.66-16.26c-.11-.3-.25-.59-.51-1.19-.11.66-.19.98-.21 1.3a80 80 0 0 0 .03 12.19c.64 6.87 1.21 13.76 2 20.62.62 5.4 1.57 10.75 2.33 16.13.6 4.22 1.14 8.44 1.72 12.67.19 1.41.44 2.81.6 4.22.24 2.17-.03 2.55-2.06 3.19l-.88.32.34 4.01c.97.28 1.97.6 3 .87a22.5 22.5 0 0 1 5.89 2.2c.42.25.85.5 1.2.84.92.91.64 2.21-.63 2.51-2.42.57-4.87 1.09-7.32 1.48-2.08.34-4.18.47-6.28.71-1.28.15-1.5.03-1.69-1.19-.59-3.76-1.68-7.47-1.3-11.38-.37-.15-.67-.29-.98-.4a1.5 1.5 0 0 1-1.07-1.27c-.33-1.98-.72-3.95-1.01-5.93-.62-4.31-1.32-8.62-1.74-12.95-.58-5.94-.93-11.91-1.38-17.87-.1-1.35-.22-2.71-.33-3.98-.27-.09-.36-.16-.45-.15-2.9.18-2.56-.16-3.05 2.45a1772.3 1772.3 0 0 0-4.35 23.99c-.87 4.97-1.6 9.96-2.47 14.92-.29 1.67-.39 1.65-1.95 2.45-.1 2.45-.21 4.94-.3 7.43-.12 3.31-.12 3.44-3.35 4-2.7.47-5.45.56-8.19.19-.97-.13-1.95-.21-2.92-.31-.24-.03-.5 0-.73-.06-1.03-.26-2.26-.32-2.49-1.67-.29-1.64-.15-2.99 1.36-3.87 2.54-1.48 5.2-2.7 8.01-3.62.34-.94.52-1.76-.37-2.65-.43-.43-.52-1.37-.47-2.05.5-6.59 1.02-13.17 2.19-19.69.75-4.19 1.13-8.45 1.91-12.63.9-4.86 2.02-9.68 3.12-14.5a157.5 157.5 0 0 1 2.09-7.95c.71-2.48.6-4.96.06-7.41-.57-2.59-1.33-5.12-2.09-7.95Zm32.63 3.55c-.07-.19-.13-.43-.21-.64a81.1 81.1 0 0 1-4.36-14.3 30.06 30.06 0 0 0-2.7-7.58c-.76-1.49-1.88-2.47-3.61-2.64-1.36-.13-2.72-.34-4.07-.52-1.06-.15-2.15-.18-2.99-1.01-1.74 1.61-3.73 1.89-5.91 1.36-.32-.08-.73-.17-1-.04-1.36.66-2.78.49-4.18.39a4.62 4.62 0 0 0-4.4 2.13c-.6.88-1.04 1.88-1.46 2.86-3.22 7.46-6.42 14.92-9.62 22.38l-.56 1.31 4.55 2.05c.25-.39.58-.86.85-1.37 2.57-4.82 6.04-9.17 7.68-14.49.01-.05.02-.11.05-.13.22-.16.46-.44.66-.43.19.02.44.35.48.58.07.38.09.8-.03 1.16-.54 1.68-.15 3.28.25 4.9.67 2.7 1.37 5.41 1.95 8.13.32 1.47.44 2.98.66 4.5 5.88 1.27 11.63 1.69 16.71-1.96.26-3.23.52-6.25.75-9.27.23-3.07.43-6.15.64-9.23.03-.47-.05-1 .66-1.15.8.75.74 1.77.76 2.72.03 1.38.01 2.72.95 3.88.3.36.4.89.56 1.35.71 1.93 1.4 3.86 2.12 5.79.2.53.47 1.03.68 1.49l4.13-2.22Zm-28.18-43.81c.54.68.31 1.48-.1 2.31a9.2 9.2 0 0 0-.82 2.19c-.7 3.55.26 6.06 4.41 6.48.28.03.55.11.83.17.78 2.06.11 4.12.25 6.22 1.31.31 2.55.18 3.69-.46.7-.39 1.39-.91 1.45-1.86l.27-3.55-.31-.19c-1.47-.88-1.79-1.96-.95-3.43.34-.59.8-1.11 1.17-1.68.32-.49.59-1.01.89-1.51.34-.58.08-1.11-.32-1.45-.27-.23-.81-.3-1.19-.22-.56.11-1.08.43-1.63.64-.47.18-.99.32-1.31-.21-.3-.52.03-.93.41-1.28.21-.2.48-.34.7-.53.62-.54 1.25-1.08 1.85-1.65.98-.93 1.12-2.07.91-3.37-.3-1.87-1.48-2.24-3.11-1.6-.9.35-1.76.87-2.54 1.44-1.53 1.11-2.99 2.31-4.56 3.55Zm-22.79 72.22.36-.11v-.71c-.11-3.88.83-7.44 3.04-10.68 1.9-2.79 3.68-5.66 5.5-8.5.25-.4.46-.82.78-1.41-1.01-.62-1.88-1.25-2.83-1.7-1.17-.55-1.59-.32-2.16.88-1.33 2.84-2.66 5.67-3.96 8.52a41.4 41.4 0 0 1-6.76 10.25c-.27.31-.5.66-.92 1.23 1.66-.38 2.08-1.89 3.4-2.58-.41 1.81-1.77 2.9-2.31 4.43.68-.52 1.2-1.16 1.77-1.75.58-.6.55-1.67 1.56-2.08.24 1.27-.58 2.08-1 3.04l.82.54c.14-.25.4-.61.58-1.01.12-.28.26-.64.18-.91-.11-.38-.2-.74.23-.8.23-.03.61.25.77.5.2.32.25.73.37 1.1l.58 1.74Zm60.94-10.14c-.68-.6-1.49-1.24-2.21-1.96-.62-.61-1.29-1.24-1.68-2-.84-1.65-1.52-3.38-2.24-5.09-.93-2.21-1.82-4.43-2.75-6.64-.14-.35-.34-.67-.52-1.01-1.67.1-2.9 1.02-4.31 1.68.63 1.25 1.15 2.47 1.82 3.6 1.67 2.87 3.37 5.73 5.13 8.54.98 1.56 1.55 3.13 1.17 4.99-.12.58-.02 1.19-.02 1.63.72-1.2-.05-2.9.91-4.26.81.4.65.94.59 1.47-.04.37-.12.85.06 1.11.88 1.24 1.84 2.43 2.76 3.63l.25-.17c-.31-.64-.65-1.27-.93-1.93-.26-.6-.85-1.16-.34-2.24l2.53 3.4.28-.2c-.5-.88-1.01-1.75-1.5-2.63-.2-.36-.58-.77.14-1.09l.83.62v-1.45Zm-49.11 54.42-3.86 1.9c-1.05.51-2.13.98-3.16 1.53-.24.13-.46.5-.49.78-.02.19.27.52.5.61.44.19.93.35 1.41.36 3.32.08 6.64.17 9.96.14 1.72-.01 2.06-.54 1.99-2.4-3.27-.22-3.24-.29-5.18-1.19-.74-.34-1.06-.78-1.16-1.72Zm34.73.72c-.15 1.31-1.14 1.62-2.16 1.78-1.04.16-2.09.21-3.23.31l.27 2.38 11.58-1.75.04-.4-6.51-2.32Zm-2.11-5.53h-3.47c-.11 2.1-.1 4.07.18 6.05 1.34.08 2.55.3 3.67-.46l-.38-5.59Zm-31.21 1.95c0 .59.03 1.22 0 1.84-.04.74.31 1.23.92 1.52a5.5 5.5 0 0 0 4.25.36l.49-4.27-5.64.56Z" class="cls-4"/>
    <path d="M477.21 210.19a46.3 46.3 0 0 0 3.75-9.59c.9-3.2 1.73-6.43 2.67-9.63a18.92 18.92 0 0 1 5.51-9.04c.83-.74 1.78-1.41 2.79-1.86 2.47-1.11 4.21.02 4.27 2.72.05 2.56-.19 5.14-1.03 7.54-1.74 5-2.15 10.09-1.85 15.34.34 5.79-.39 11.55-1.03 17.29-.64 5.74-1.33 11.48-1.94 17.23-.5 4.75-.24 9.49.15 14.23.55 6.69 1.12 13.38.77 20.11a83.98 83.98 0 0 1-1.9 15 41.42 41.42 0 0 1-2.3 6.49c-.92 2.18-2.76 3.51-4.84 4.51-.31.15-.64.24-1.03.39-.06.37-.14.75-.17 1.13-.61 7.25-.57 14.48.35 21.71.22 1.7.27 3.42.37 5.13.05.98-.06 1.93-.69 2.92a3.77 3.77 0 0 1-1.28-2.47c-1.05-7.67-2.15-15.34-1.62-23.12.11-1.65.18-3.31.27-4.99-2.48-.56-4.59-1.5-5.69-3.81l-5.63 1.93c-.03.31-.09.79-.09 1.27-.04 5.05-.05 10.09-.12 15.14-.05 3.48-.16 6.95-.31 10.43a32.96 32.96 0 0 1-.51 4.08c-.1.59-.39 1.15-.61 1.76-.77-.21-.92-.66-.99-1.15-.09-.63-.17-1.27-.18-1.9-.11-8.08-.21-16.17-.3-24.25-.02-1.96 0-3.91 0-6-.16-.07-.46-.25-.77-.34-6.48-1.88-10.2-6.35-11.71-12.73-.97-4.1-1.64-8.27-1.37-12.52.16-2.49.33-5 .8-7.44.87-4.53.45-8.94-.4-13.41a330.7 330.7 0 0 1-2.83-16.8c-.75-5.44-.18-10.85 1.05-16.19.34-1.48.67-2.97 1.18-4.4 2.28-6.49 2.84-13.19 2.56-19.99-.19-4.75-.51-9.49-.8-14.23-.25-4.02-.32-8.03.48-12 .17-.86.29-1.82.76-2.5a19.88 19.88 0 0 1 3.06-3.48c1.04-.92 2.47-.99 3.78-.75 1.13.21 2.26.64 3.29 1.17 1.5.77 2.68 1.98 3.63 3.37 2.95 4.26 5.32 8.8 6.46 13.91 1.06 4.78 2.13 9.56 3.1 14.36.93 4.58 1.07 9.24.96 13.9v1.55Zm-10.05 86.16c.71-.13 1.3-.15 1.84-.34 2-.68 3.68-1.81 4.88-3.59a16.11 16.11 0 0 0 2.37-5.5c1.13-4.85.95-9.74.1-14.6-.86-4.92-1.86-9.84-2.02-14.83-.13-4-.85-7.85-1.74-11.73-.5-2.17-.59-4.43-.86-6.65l.37-.08 1.83 5.77c.23-.29.29-.55.3-.81.17-2.98.36-5.97.47-8.95.05-1.31.02-2.65-.16-3.95a84.23 84.23 0 0 1-.5-20.07c.46-4.64.32-9.32-.47-13.92-.72-4.2-1.76-8.33-2.56-12.52a45.1 45.1 0 0 0-5.11-14.16 34.23 34.23 0 0 0-1.8-2.86 8.16 8.16 0 0 0-3.6-2.92c-1.78-.71-3.07-.38-4.3 1.04-.38.44-.79.88-1.26 1.22-.92.65-1.25 1.5-1.35 2.61-.39 4.28.03 8.52.47 12.75.59 5.7 1.19 11.4 1.05 17.14v.96l.21.03.67-1.97.3.03v1.81a27 27 0 0 1-1.39 7.34c-.98 3.13-2.11 6.21-3.09 9.34a46.73 46.73 0 0 0-2.05 18.13c.46 5.38 1.52 10.66 2.56 15.94.93 4.71 1.37 9.37.4 14.13a39.24 39.24 0 0 0 0 15.9c.54 2.64 1.09 5.28 2.36 7.7a13.35 13.35 0 0 0 7.95 6.77c.35.11.72.15 1.23.25v-1.73l-.08-5.14c0-.49.01-.98.09-1.46.09-.56.35-1.07.99-1.11.66-.03.93.46 1.03 1.04.11.63.22 1.25.28 1.89.21 2.29.4 4.57.61 7.11Zm14.1 1.74.36.15c1.47-.87 2.85-1.87 3.45-3.58.56-1.57 1.17-3.14 1.43-4.77.98-6.15 1.88-12.32 1.78-18.56-.08-5.28-.4-10.57-.76-15.85-.36-5.39-.57-10.77.16-16.14.79-5.82 1.66-11.64 2.53-17.45.97-6.44 1.81-12.89 1.96-19.43a54.8 54.8 0 0 1 1.07-8.73c.67-3.52 1.34-7.02 1.24-10.63-.05-1.78-.56-2.12-2.16-1.31-.64.33-1.27.76-1.78 1.27a19.4 19.4 0 0 0-1.97 2.36 22.43 22.43 0 0 0-3.48 8.04c-.56 2.33-1.07 4.68-1.68 7a63.84 63.84 0 0 1-5.21 13.24 13.17 13.17 0 0 0-1.58 7.5c.16 1.61.24 3.23.39 4.83.32 3.51 1 6.99.64 10.54-.19 1.8-.25 3.62-.41 5.42a101.4 101.4 0 0 0 1.28 27.66c.95 5.03 1.37 10.11.66 15.21-.61 4.36-2.09 8.35-5.4 11.47-.06.05-.06.17-.08.26q3.64 2.13 4.92 1.94c.06-.41.14-.84.19-1.27.13-1.07.21-2.15.37-3.21.1-.62.24-1.27.53-1.82.17-.32.7-.66 1.01-.61.3.05.67.58.72.93.1.72 0 1.46-.02 2.2l-.17 3.33ZM187.27 126.72a24.33 24.33 0 0 1-3.68 11.96 57.2 57.2 0 0 1-8.06 10.27 79.64 79.64 0 0 1-6.72 6.14 16.79 16.79 0 0 0-5.33 7.06c-.64 1.64-1.33 3.26-2.01 4.89a15.86 15.86 0 0 1-3.1 4.78c-.7.75-1.33 1.57-2.01 2.34a7.33 7.33 0 0 0-1.81 5.13c0 2.5-.06 5-.16 7.49a7.1 7.1 0 0 1-.43 2.29c-.71 1.84-2.65 2.42-4.19 1.2a7.36 7.36 0 0 1-1.78-2.28c-1.64-3.07-2.31-6.43-2.82-9.83-.5-3.36-.18-6.61.8-9.86 1.75-5.76 3.32-11.58 5.07-17.34a31.07 31.07 0 0 1 4.1-8.91c.74-1.05 1.48-2.06 2.7-2.63.37-.17.66-.57.93-.91a13.83 13.83 0 0 1 4.44-3.79 21.38 21.38 0 0 0 8.3-7.71c1.03-1.61 2.13-3.18 3.22-4.74a9.26 9.26 0 0 1 3.35-3.02 5.06 5.06 0 0 1 4.53-.19 6.99 6.99 0 0 1 4.37 5.32c.15.77.19 1.55.27 2.33Zm-40.46 48.69c.04.59.07 1.17.13 1.76a30.78 30.78 0 0 0 2.54 9.61c.28.62.64 1.23 1.07 1.74.85 1.01 1.74.91 2.27-.27.32-.7.54-1.49.61-2.25a104 104 0 0 0 .3-5.86c.08-2.95.62-5.71 2.58-8.08 2.19-2.64 3.53-5.73 4.54-8.98a21.2 21.2 0 0 1 6.97-10.46c4.96-4.05 9.05-8.93 12.68-14.19a27.3 27.3 0 0 0 3.38-6.66c.72-2.1 1.16-4.25 1.04-6.48a5.3 5.3 0 0 0-1.97-3.95c-1.3-1.09-2.64-1.31-4.06-.38-1 .66-1.91 1.54-2.63 2.49a59.18 59.18 0 0 0-3.23 4.9 19.98 19.98 0 0 1-8.84 7.91c-3.34 1.55-5.66 4.3-8.04 6.94-.88.97-1.39 2.37-1.8 3.65-1.17 3.68-2.21 7.4-3.3 11.11l-3.56 12.11a15.61 15.61 0 0 0-.66 5.35ZM252.5 294.98a21.85 21.85 0 0 1-16.12-7.99 19.18 19.18 0 0 1-1.11-23.24c5.22-7.58 12.72-10.71 21.77-10.37 3.02.11 5.89.96 8.58 2.35 9.1 4.69 14.43 15.44 8.76 26.91-3.77 7.64-11.7 12.34-21.88 12.34Zm1.55-39.46c-.7.08-1.97.16-3.22.37a20.04 20.04 0 0 0-16.48 17.38c-.91 8.32 4.56 16.25 12.91 18.72 8.35 2.47 17.98-.82 23.18-7.82a17.65 17.65 0 0 0-4.46-25.19c-3.43-2.28-7.23-3.4-11.93-3.47ZM404.51 25.87c.17-3.97 1.03-7.32 3.58-10.05.63-.68 1.28-1.35 1.85-2.08.84-1.07 1.7-2.15 2.42-3.3 1.58-2.54 3.32-4.92 5.73-6.75 1.32-1.01 2.68-1.56 4.35-.92 1.44.55 2.21 1.56 2.28 3.09a7.2 7.2 0 0 1-1.67 5.18c-.82.97-1.78 1.82-2.59 2.8-.74.89-1.48 1.82-2.02 2.84a12.91 12.91 0 0 1-4.39 4.63c-1.17.8-2.37 1.56-3.53 2.37a10.92 10.92 0 0 0-3.23 3.56c-.09.17-.16.39-.3.5-.37.27-.77.67-1.18.7-.59.04-.95-.47-1.07-1.03-.14-.62-.2-1.25-.24-1.52Zm2.12-.34c1.99-2.71 4.73-4.55 7.15-6.72a7.8 7.8 0 0 0 2.39-3.48 9.53 9.53 0 0 1 2.74-4.1c.95-.92 1.9-1.86 2.68-2.91.5-.68.84-1.56 1.02-2.39.3-1.37-.71-2.27-2.09-1.98-.33.07-.68.18-.95.37-2.48 1.71-4.73 3.67-6.11 6.41a23.75 23.75 0 0 1-2.99 4.69c-.78.94-1.51 1.93-2.16 2.97-1.33 2.17-1.64 4.61-1.68 7.15ZM390.83 19.52c.13-1.55.21-3.11.42-4.66a8.28 8.28 0 0 1 2.7-4.92 8.06 8.06 0 0 0 2.24-3.38c.87-2.67 2.92-4.2 5.24-5.46 1.11-.6 2.28-.49 3.42-.06.97.37 1.39 1.13.99 2.11-.4.99-.9 1.97-1.54 2.82a11.88 11.88 0 0 0-2.31 5.32c-.47 2.76-1.8 5.1-4.01 6.79a9.17 9.17 0 0 0-3.6 5.99c-.07.43-.23.85-.39 1.26-.19.53-.52 1.08-1.12.97a1.94 1.94 0 0 1-1.22-.86 6 6 0 0 1-.63-2.23c-.1-1.21-.03-2.44-.03-3.66l-.15-.01Zm1.54 5.1.36-.07c.08-.48.21-.95.24-1.43a9.68 9.68 0 0 1 3.08-6.62 8.64 8.64 0 0 0 1.53-1.78c.63-1.04 1.34-2.1 1.62-3.25.7-2.87 1.83-5.46 3.93-7.59.41-.42.64-1.01.95-1.5-.87-.64-1.57-.36-2.25-.09a7.96 7.96 0 0 0-4.71 4.94 6.69 6.69 0 0 1-1.93 3.07c-1.75 1.43-2.31 3.6-3.45 5.4-.12.19-.12.47-.11.71.07 2.1.13 4.2.27 6.3.04.64.32 1.26.49 1.9ZM415.67 133.23c0 1.81-.02 3.62 0 5.43.01 1-.22 1.79-1.15 2.34-.88.52-1.64 1.23-2.53 1.72-1.36.75-2.07.34-2.06-1.21.03-3.03.15-6.06.26-9.09.03-.93.15-1.85.19-2.78.05-1.3.64-2.21 1.82-2.75.71-.32 1.41-.69 2.14-.97 1.14-.44 1.73-.07 1.7 1.15-.03 1.66-.18 3.32-.27 4.98-.02.39 0 .78 0 1.17h-.1Zm-1.74 5.52.24.04.23-9.19c.01-.53-.05-1.07-.08-1.6 0-.03-.07-.06-.12-.07h-.26v10.82Zm-2.72 2.56c.93-.37 1.86-.53 2.38-1.36-.92-.56-1.48.11-2.07.44-.21.11-.21.6-.31.92ZM410.44 185.13c0-1.76.03-3.52-.01-5.28-.03-1.13.33-2.03 1.34-2.57a35.75 35.75 0 0 1 3.29-1.61c.78-.33 1.2-.06 1.31.82.09.77.09 1.56.07 2.34-.05 2.59-.15 5.18-.19 7.77-.02 1.31-.31 2.41-1.7 2.94-.3.11-.5.44-.76.66-.49.41-.94.88-1.48 1.19-.48.27-1.12.55-1.59.43-.66-.16-.36-.91-.36-1.41-.02-1.76 0-3.52 0-5.28h.11Zm4.56-7.79c-.9-.11-.83.38-.83.82 0 2.64.01 5.27.04 7.91 0 .25.11.49.17.74.11 0 .21-.02.32-.03l.3-9.44Zm-.95 11.15c-1.39 0-2.26.71-2.61 1.97l2.61-1.97ZM425.31 178.07l.27-4.68c.09-1.65.61-3.02 2.25-3.77.53-.24.98-.64 1.5-.91 1.13-.58 1.74-.23 1.9 1.05.06.48.07.98.04 1.46-.17 3.12-.4 6.24-.51 9.35-.05 1.36-1.13 1.71-1.96 2.3-.67.47-1.44.8-2.17 1.17-.76.39-1.23.17-1.25-.72-.05-1.75-.01-3.51-.01-5.26h-.05Zm4.55-7.91-.4-.02c-.07.31-.18.62-.19.94-.04.83-.02 1.66-.05 2.49-.06 1.81-.15 3.61-.21 5.42-.02.42-.07.88.66 1.01.33-3.33.64-6.58.19-9.84Zm-.64 11.2c-1.05-.54-1.76-.32-3.03 1.01l3.03-1.01ZM425.62 130.1c.11-2.07.11-3.64.31-5.19.15-1.19.53-2.34.83-3.51a.87.87 0 0 1 .32-.47c1.09-.63 2.16-1.35 3.32-1.82 1.04-.42 1.45-.06 1.41 1.09-.1 2.3-.27 4.6-.43 6.89-.05.83-.25 1.67-.18 2.49.16 1.98-.94 3.2-2.36 4.26-.55.41-1.14.77-1.73 1.11-.76.44-1.11.32-1.2-.53-.17-1.6-.22-3.21-.29-4.33Zm3.86 1.13c.62-1.58 1.03-9.46.65-10.7-.17.1-.48.17-.48.28-.17 2.28-.35 4.57-.43 6.86-.04 1.07-.29 2.18.26 3.57Zm-2.39 2.29 2.47-1.17c-1.63-.53-2.38-.16-2.47 1.17ZM408.16 236.5c.12-2 .28-4 .34-6.01.03-.84.38-1.39 1.04-1.8.75-.46 1.49-.95 2.3-1.29 1.12-.46 1.82.04 1.82 1.27 0 1.52-.11 3.03-.14 4.55-.03 1.46-.09 2.94.02 4.39.17 2.17-1.66 4.88-3.5 5.58-1.48.56-2.03.3-2.08-1.27-.05-1.81-.01-3.62-.01-5.42h.2Zm3.72 2.81c.11-.54.2-.77.2-1.01a802.2 802.2 0 0 0-.28-8.49c0-.13-.17-.26-.36-.53-.1.37-.19.54-.19.72l-.2 7.76c0 .29-.03.61.08.86.09.21.37.35.75.68Zm-2.82 2.6 2.73-1.3-.05-.31c-.3-.05-.7-.24-.88-.12-.58.4-1.47.48-1.8 1.73ZM406.88 279.38v-5.14c0-1.51.51-2.29 1.95-2.87.72-.29 1.44-.64 2.19-.83.88-.22 1.31.15 1.29 1.07l-.18 11.01c-.01.85-.21 1.52-1.14 1.83-.35.11-.61.46-.93.69-.55.4-1.08.85-1.68 1.17-.84.44-1.28.18-1.41-.76-.05-.39-.05-.78-.05-1.17v-4.99h-.04Zm3.99-6.99c-.76-.03-.74.4-.75.78-.02 1.03 0 2.05-.02 3.08a415.2 415.2 0 0 1-.09 4.99c-.01.53 0 1.01.91.94.09-3.26.18-6.53-.05-9.8Zm-2.93 12.82c.81-.82 1.86-.71 2.42-1.64-1.05-.32-1.66.48-2.41.78-.06.02 0 .33 0 .85ZM423.65 230.32c0-1.22.07-2.45-.02-3.67a4.53 4.53 0 0 1 1.5-3.66c.62-.62 1.31-1.18 2.05-1.65.87-.54 1.52-.18 1.67.82.03.19.02.39.02.59-.09 3.47-.12 6.95-.88 10.36-.06.28-.12.63-.31.79-.9.75-1.8 1.52-2.78 2.15-.72.47-1.29.07-1.31-.88-.04-1.61-.01-3.23-.01-4.84h.07Zm3.29 1.18c.68-1.15.77-6.47.06-8.37-.15.46-.3.74-.32 1.03-.26 2.61-.12 6.4.26 7.34Zm.02 1.17c-1.15.12-1.73.62-2.05 1.58l2.05-1.58ZM422.98 274.56v-4.54c.01-1.5.25-1.86 1.65-2.41a31.8 31.8 0 0 1 2.06-.75c.99-.32 1.39-.1 1.47.95.11 1.41.14 2.83.16 4.24.02 1.61-.04 3.22-.03 4.83 0 .88-.14 1.57-1.06 2.02-.91.44-1.67 1.17-2.56 1.67-.83.47-1.31.22-1.35-.76-.07-1.75-.02-3.51-.02-5.27h-.33Zm3 2.11c.69.21 1.09.1 1.12-.59.04-.93.14-1.86.11-2.79-.07-1.69-.22-3.37-.34-5.06l-.35-.1c-.15.22-.41.44-.43.67-.08.97-.1 1.96-.11 2.93v4.93Zm.96 1.6c-.88-.54-1.44-.27-1.81.7l1.81-.7ZM185.19 103.99a9.17 9.17 0 0 1-2.79 6.16c-.95.94-2.2 1.25-3.39 1.65-.8.27-1.48-.16-1.66-1.01a4.82 4.82 0 0 1-.07-1.89c.35-1.82.71-3.65 1.25-5.42a6.4 6.4 0 0 1 1.41-2.36c.87-.95 2.04-1.36 3.34-.89 1.26.46 1.7 1.54 1.87 2.76.04.29.03.59.05 1Zm-6.08 6.52c2.16-.8 3.07-2.25 3.74-3.92a7.1 7.1 0 0 0 .58-3.72c-.19-1.18-1.15-1.54-2-.7a3.63 3.63 0 0 0-.95 1.61c-.5 2.13-.89 4.28-1.37 6.73ZM238.44 371.86c-1.27-.59-1.64-1.51-1.83-2.51a4.67 4.67 0 0 1 2.39-5.01c.12-.07.25-.15.36-.24q2.05-1.83 4.52-2.2a4.55 4.55 0 0 1 2.8-2.75 4.7 4.7 0 0 1 2.41-.33c1.32.27 2.61.25 3.93.22a5.34 5.34 0 0 1 5.35 4.8c.01.38-.03.77-.07 1.3-.8-.4-.84-1.13-1.03-1.72a4.4 4.4 0 0 0-2.33-2.68 4.77 4.77 0 0 0-2.55-.47c-.82.05-1.66.08-2.46-.08-2.4-.48-3.7-.06-5.31 1.93l.48.84c-.13.06-.25.18-.36.16a4.61 4.61 0 0 0-4.58 1.69 1.2 1.2 0 0 1-.72.42c-.79.11-1.16.64-1.48 1.28a4.7 4.7 0 0 0-.14 3.98c.16.39.34.76.62 1.37Z" class="cls-4"/>
    <path d="M247.58 367.28c.03 1.18-.3 1.76-1.02 1.78-.79.02-1.24-.71-1.13-1.85.12-1.27.7-2.24 1.93-2.7 1.29-.48 2.52-.63 3.67.45 2.11 1.98 1.98 4.88-.39 6.68-.61.46-1.35.73-1.58 1.62-.07.27-.69.54-1.06.54-.22 0-.54-.5-.64-.83-.31-.97-.03-1.47.93-2 .6-.33 1.23-.64 1.73-1.08a2.43 2.43 0 0 0-.7-4.1c-1.06-.44-1.79.17-1.75 1.48ZM248.05 381.53c-1.75 2.03-5.41 1.1-7.07-1.79-1.57-.05-2.73-.8-3.16-2.43-.39-1.48.13-3.47 1.15-4.32-.13.79-.28 1.49-.35 2.2-.05.53-.05 1.08.04 1.6.22 1.18.9 1.83 2.09 1.88.77.03 1.25.21 1.56 1 .44 1.12 1.49 1.53 2.57 1.69 1 .15 2.03.11 3.16.17ZM260.38 375.47c.57 1.58.24 2.93-1.06 3.94-1.07.83-2.26 1.46-3.74.72.23-.07.47-.12.7-.21.76-.31 1.58-.52 2.25-.96 1.15-.77 1.34-1.61.76-2.9-.34-.76-.23-1.3.41-1.78.31-.23.62-.47.9-.74.78-.78.79-1.04.25-2.02-.24-.44-.41-.91-.69-1.54 1.37.02 1.9.84 2.21 1.65.73 1.91-.94 2.75-1.98 3.85ZM245.46 383.36c.5.36.73.56.99.72.92.59 1.93.84 2.87.17.9-.64 1.69-.41 2.71-.03-.36.23-.58.44-.83.51-.69.21-1.39.37-2.1.53-1.36.32-2.48-.14-3.41-1.12-.11-.11-.11-.32-.24-.78ZM247.28 376.83c-.07-.77-.18-1.52.63-1.92.18-.09.68.07.74.23.2.52.52 1.21.33 1.6-.36.72-1.07.33-1.7.09ZM260.37 367.08c-.48.39-.78.16-.98-.29-.03-.08.08-.31.16-.34.53-.16.78.09.82.62Z" class="cls-4"/>
    <path d="M35.14 244.73c8.18-7.94 17.35-14.93 26.03-22.76.72.43 1.57.9 2.37 1.43 11.52 7.54 23.04 15.07 34.54 22.63 10.36 6.81 20.69 13.65 31.06 20.44 3.32 2.17 6.72 4.21 10.1 6.28.25.15.66.2.94.11.51-.16 1-.42 1.45-.7 9.19-5.8 18.5-11.4 28.22-16.29a145.11 145.11 0 0 0 17.18-9.9c.15-.11.34-.18.68-.36 0 .61.02 1.11 0 1.6-.08 2.05-.22 4.1-.25 6.16-.09 5.14-.15 10.29-.18 15.43-.03 4.85-.06 9.7.02 14.55.06 3.87.26 7.74.46 11.6.13 2.39.41 4.78.55 7.18.07 1.31 0 2.64-.03 3.96-.04 1.35-.71 2.28-1.88 2.94-.93.53-1.82 1.15-2.71 1.76-8.09 5.52-16.17 11.06-24.28 16.57-5.02 3.41-10.08 6.78-15.12 10.16-.43.29-.9.53-1.49.87-.1-.45-.19-.71-.21-.99a485.37 485.37 0 0 1-1.9-35.36c-.11-4.65-.46-9.29-.67-13.94-.13-2.89-.23-5.77-.35-8.66a1.63 1.63 0 0 0-.3-.94c-.09 1.11-.22 2.23-.27 3.34-.28 6.66-.37 13.32.13 19.97.07.93.07 1.86.07 2.79.01 6.61-.06 13.23.05 19.84.08 4.8.4 9.59.63 14.39.06 1.29-.15 1.79-1.32 2.27a19.12 19.12 0 0 1-5.95 1.53c-4.62.31-9.2-.13-13.77-.7-6.12-.77-12.25-1.5-18.38-2.25-.62-.08-1.25-.19-1.96-.3l-.37-4.13c-.61-6.39-1.18-12.78-1.85-19.16-.43-4.1-1.44-5.21-5.49-6.14a89.7 89.7 0 0 0-16.55-2.36c-2.15-.09-4.29-.36-6.44-.5a37.4 37.4 0 0 0-3.82-.13c-1.23.03-1.56.41-1.56 1.65.03 3.53.01 7.05.17 10.58.19 4.35.54 8.7.83 13.05.03.53.1 1.06.16 1.7-.38 0-.7.04-1.01 0-4.21-.64-8.43-1.26-12.63-1.94-1.5-.24-2.97-.62-4.44-1-1.24-.32-1.92-1.04-2.17-2.41-1.09-6.08-1.66-12.23-2.29-18.36-.71-6.92-1.49-13.83-2.18-20.75a522.9 522.9 0 0 1-1.3-14.78c-.64-8.99-1.37-17.97-2.93-26.87-.07-.41.02-.86.08-1.28.08-.52.2-1.03.34-1.79Zm76.88 44.76v-.06c.58 0 1.17.04 1.76-.01.65-.06 1.11-.36 1-1.14-.04-.29.04-.59 0-.88-.56-4.31-1.13-8.62-1.71-12.92-.08-.61-.29-1.2-.95-1.35-1.66-.4-3.33-.75-5-1.07-.56-.11-.94.23-1 .82-.03.34-.05.69 0 1.02.39 2.51.7 5.04 1.22 7.52.43 2.01.93 3.99.89 6.07-.02 1.01.33 1.42 1.31 1.65.8.19 1.64.24 2.46.36Zm-62.15-17.31h.1c.25 3.12.5 6.23.77 9.35.1 1.19.42 1.52 1.62 1.66.77.09 1.56.14 2.34.12 1.54-.03 1.79-.27 1.74-1.84-.05-1.56-.23-3.12-.34-4.67l-.58-8.48c-.07-1.05-.3-1.4-1.37-1.57a21.9 21.9 0 0 0-3.34-.25c-.75 0-.96.34-.95 1.16v4.54Zm8.86-5.05c-.08.6-.19 1.02-.19 1.45.08 4.5.16 9 .82 13.46.11.75.45 1.03 1.17.94.96-.12 1.93-.19 2.89-.36 1.27-.22 1.45-.42 1.44-1.72 0-1.32-.08-2.64-.16-3.96-.17-2.63-.36-5.27-.56-7.9-.09-1.15-.19-1.25-1.27-1.4-1.3-.18-2.6-.32-4.14-.51Zm93.77 19.6h.01c0 1.42-.04 2.84.01 4.26.04.92.14 1.86.36 2.76.19.79.78 1.06 1.44.82 1.61-.57 3.1-2.54 3.08-4.27-.03-3.13-.15-6.26-.24-9.39a6.46 6.46 0 0 0-.15-1.16c-.22-1.08-.65-1.3-1.67-.82-.53.25-1.03.56-1.54.85a2.35 2.35 0 0 0-1.32 2.27c.03 1.56.01 3.13.01 4.69Zm26.31-10.33h-.14c0-1.13.03-2.25-.01-3.37-.03-.73-.13-1.46-.23-2.19-.09-.63-.46-.93-1.11-.91-1.56.04-3.51 1.76-3.62 3.27a40.8 40.8 0 0 0 .29 9.37c.06.38.14.77.29 1.13.28.7.62.82 1.24.42.66-.42 1.23-.98 1.91-1.35a2.53 2.53 0 0 0 1.39-2.4v-3.96Zm-19.48-4.43c.39-1.66 1.66-2.82 1.7-4.49-.65.73-1.31 1.47-1.7 2.33a5.31 5.31 0 0 1-2.71 2.9c-.56.26-1.03.72-.85 1.41l4.01-1.78-.46-.38Zm-74.65 6.1-.48.13c.23.66.4 1.36.72 1.99.36.72.4 1.36.04 2.08-.37.74-.68 1.51-.97 2.28-.09.25-.01.57-.01.86l.23.04 1.75-3.06.64.98c.07-2.08-1.5-3.46-1.92-5.31Zm45.41 32.59c-1.12-.37-1.76.19-2.48.74l-1.29-3.63a8.87 8.87 0 0 0 .93 4.42c.51.97 1.31 1.37 2.72 1.26l-1.66-1.33 1.78-1.46Zm-46.46-22.78c-1.26.99-1.29 1.08-.77 2.23l.77-2.23Zm79.09 25.03c.42-.45.6-.9.17-1.41-.05-.07-.33-.07-.4 0-.46.51-.27.96.22 1.4Zm10.15-49.03c-.46-.33-.68-.54-.73-.5-.17.12-.32.3-.38.49-.02.07.23.34.35.33.21-.01.41-.16.76-.32Z" class="cls-1"/>
    <path d="M175.77 225.79c1.8-5.54 1.51-11.11 1.74-16.63.2-4.84.33-9.69.58-14.53a41.13 41.13 0 0 1 4.69-16.86c2.98-5.79 6.02-11.55 9.04-17.32a81.74 81.74 0 0 0 4.84-11.65c1.12-3.29 2.22-6.6 3.56-9.8a56.28 56.28 0 0 1 3.63-7.03 17.67 17.67 0 0 1 5.69-5.85c3.18-2.05 5.62-1.59 7.87 1.45a13.75 13.75 0 0 1 2.15 4.95 56.88 56.88 0 0 1 1.66 18.65c-.33 3.86-.49 7.72-.77 11.58-.78 11.07-.04 22 2.74 32.79a177.96 177.96 0 0 1 4.42 24.27c.57 5.01 1.01 10.04 1.43 15.06.42 4.99-.6 9.74-2.59 14.31-1.99 4.56-4.36 8.87-7.75 12.58a18.8 18.8 0 0 1-4.44 3.81 22.75 22.75 0 0 0-7.48 7.35l-.99 1.46a4.51 4.51 0 0 1-2.34 1.91c-.68.24-1.29.69-1.92 1.07-.82.49-1.69.74-2.86.61.12-.61.19-1.17.36-1.69.91-2.9 1.84-5.79 2.77-8.68a914.3 914.3 0 0 0 2.35-7.42c.5-1.59.46-3.16-.28-4.79a8.76 8.76 0 0 0-2.63 4.05c-1.01 3.17-2.06 6.33-3.09 9.5a2.7 2.7 0 0 1-.64 1.12c-.08-.38-.17-.75-.23-1.13-.4-2.41-.78-4.83-1.19-7.24a3.55 3.55 0 0 0-.44-1.23c-.12-.2-.48-.41-.7-.38-.22.03-.45.34-.57.57-.11.2-.1.48-.09.72.02 2.2.06 4.41.07 6.61v9c-1.13.07-1.56-.6-2.07-1.16-.61-.68-1.24-1.34-2-2.15v-4.86c.01-6.07.11-12.14 0-18.21-.03-1.98-.58-3.95-.91-6.03 1.4-1.03 2.94-2.14 4.46-3.29a9.47 9.47 0 0 0 1.5-1.4c1.35-1.63 1.11-2.92-.75-3.93-5.3-2.87-10.61-5.71-15.91-8.56l-2.91-1.58ZM68.19 213.37a29.27 29.27 0 0 1-7.65 2.13 5.97 5.97 0 0 0-2.94 1.23c-5.74 4.35-11.54 8.62-17.22 13.04-7.27 5.65-14.46 11.41-21.67 17.14-1.11.88-1.39 1.57-1.02 2.33.36.73 1.09.96 2.48.71l12.14-2.18c.23-.04.47-.06.86-.11 1.85 9.94 2.09 19.95 2.75 29.89-3.27.24-5.46-1.72-7.88-3.14-.52-.31-.53-.79-.47-1.28l.78-6.12c.27-2.19.54-4.37.77-6.56.09-.8-.07-1.56-.81-2.12-1.29.55-1.22 1.98-1.9 3.25-.21-.59-.31-.94-.46-1.28-.54-1.26-1.06-2.53-1.64-3.76-.25-.52-.61-1.15-1.33-.84-.7.3-.47.99-.37 1.56.06.34.15.67.27.99.9 2.41 1.23 4.96 1.39 7.49.13 2.07-.23 4.17-.39 6.32a12.8 12.8 0 0 1-9.51-5.16 19.93 19.93 0 0 1-2.95-5.88c-1.94-5.85-2.89-11.89-3.42-18a273.68 273.68 0 0 1-1.13-24.8c.03-7.08.75-14.07 2.12-21.02 1.22-6.16 2.47-12.3 4.5-18.24a67.03 67.03 0 0 1 7.8-15.92 24.6 24.6 0 0 1 4.49-5.22 13.92 13.92 0 0 1 8.11-3.45c.39-.03.78-.12 1.17-.11 2.81.07 5.14-1.03 7.19-2.85 1.8-1.59 3.6-3.17 5.39-4.77a24.77 24.77 0 0 1 4.78-3.39c3.7-2 8.9-.33 10.77 3.62a18.4 18.4 0 0 1 1.59 10.31c-.44 3.67-1.61 7.15-2.64 10.68-.74 2.53-1.38 5.1-1.96 7.68-.64 2.84-.38 5.65.55 8.4 1.46 4.31 2.87 8.64 4.37 12.95a54.05 54.05 0 0 1 3.16 14.75l.03 1.17c0 .14-.04.28-.09.58ZM66.93 308.75c1.57.11 2.92.23 4.28.3 6.32.34 12.57 1.21 18.75 2.61.66.15 1.31.4 1.97.58 1.31.34 1.94 1.2 2.08 2.52.26 2.43.56 4.87.81 7.3l1.41 13.44c.02.19.02.38.04.77-9.25-1.22-18.35-3.07-27.83-3.4-.1-2.74-.15-5.36-.3-7.98-.15-2.69-.4-5.37-.6-8.06l-.62-8.09Zm4.46 10.86-.5-.06c-.24.4-.65.78-.7 1.2a70.2 70.2 0 0 0-.34 4.81c-.02.47.27.87.82.82.53-.05.71-.46.74-.94.09-1.51.21-3.02.25-4.54.01-.42-.18-.86-.28-1.29ZM154.39 215.66c.12 3.47.27 6.95.36 10.43.07 2.65-1.48 4.26-3.69 5.33a4.48 4.48 0 0 1-3.71.08 10.9 10.9 0 0 1-3.52-2.34c-.53-.5-.8-1.08-.74-1.83.12-1.46.21-2.93.3-4.4.29-4.64.53-9.29.89-13.93.23-3.02.65-6.03.95-9.06.06-.62.34-1.02.94-1.15.47-.11.96-.2 1.44-.21.73 0 1.47.05 2.2.12 2.71.26 2.84.36 3.51 3.04.21.85.34 1.73.42 2.61.17 1.9.34 3.81.41 5.72.07 1.86.01 3.72.01 5.58h.22Zm-6.05-16.25c-1.32-.07-1.91.27-2.01.97-.11.76.45 1.31 1.48 1.4.48.05.99.11 1.44 0 .36-.1.79-.4.95-.72.23-.48-.04-.98-.52-1.2-.52-.24-1.09-.36-1.33-.44ZM320.46 349.77c-1.96-.26-3.71-.48-5.45-.72-6.56-.87-13.1-1.81-19.5-3.52-1.09-.29-2.16-.64-3.23-.97-.76-.23-1.07-.72-1.04-1.54.09-2.59.1-5.19.19-7.78.34-9.15.69-18.31 1.06-27.46.45-11.21.93-22.41 1.37-33.63.27-6.85.47-13.71.74-20.56.42-10.62.89-21.24 1.32-31.86.26-6.51.51-13.02.73-19.53.42-12.48.8-24.97 1.21-37.45.27-8.42.54-16.84.83-25.26.53-15.18 1.1-30.35 1.63-45.53.28-8.13.51-16.26.77-24.38.07-2.15.17-4.29.25-6.47 11.48 2.24 22.89 4.34 34.24 6.72 11.35 2.38 22.62 5.13 34.21 7.08 0 1.88.03 3.83 0 5.77-.07 3.72-.22 7.44-.25 11.16-.01 1.9.13 3.82.26 5.72.09 1.38.84 2.17 2.2 2.58a218.9 218.9 0 0 0 20.35 5.18c.52.11 1.06.11 1.71.17.04.4.12.83.12 1.25.03 3.08.12 6.17.07 9.25-.38 22.09-.77 44.18-1.18 66.27-.34 18.37-.74 36.73-1.02 55.1-.1 6.56 0 13.13.16 19.69.31 12.65-.32 25.27-1.14 37.89-.58 8.94-1.27 17.89-1.64 26.84-.31 7.63-.25 15.28-.32 22.92-.03 3.81-.61 7.5-2.05 11.14-8.46.32-16.73-1.45-25.12-2.21v-.89c.31-11.95.66-23.9.9-35.84a98.3 98.3 0 0 0-.38-9.24c-.17-2.38-.84-3.07-3.16-3.56-4.59-.97-9.14-2.25-13.85-2.52-3.71-.21-7.43-.36-11.15-.49a90.4 90.4 0 0 0-6.16-.09 26.2 26.2 0 0 0-3.93.48c-1.18.21-2.14.85-2.46 2.05a17.8 17.8 0 0 0-.72 3.88c-.19 5.09-.31 10.18-.38 15.28-.1 7.79-.13 15.58-.19 23.37v1.7Zm-13.35-85.23h-.26v5.56c0 .76.23 1.38.98 1.62 1.07.34 2.14.7 3.24.88 1.38.23 1.96-.25 1.96-1.64.03-3.61-.03-7.22-.04-10.83 0-.9-.43-1.49-1.24-1.79a36.5 36.5 0 0 0-2.49-.85c-1.36-.4-2.1.09-2.14 1.48-.05 1.85-.01 3.71-.01 5.56Zm28.83-126.1h-.01c.11-1.8.24-3.61.34-5.41.06-1.17-.15-1.48-1.29-1.74-.9-.21-1.82-.38-2.74-.46-1.6-.15-2 .2-2.06 1.85-.12 3.66-.2 7.32-.25 10.98-.03 1.8.19 1.99 1.95 2.21.63.07 1.26.2 1.89.19 1.59-.02 1.74-.17 1.84-1.76l.33-5.85Zm-20.24-10.92c-.14.64-.25.95-.27 1.27a63.48 63.48 0 0 0-.15 3.08l-.13 10.27c0 .57.02 1.22.66 1.31 1.14.16 2.31.18 3.47.19.78 0 1.13-.52 1.15-1.25.12-3.96.25-7.91.31-11.87 0-.4-.34-.99-.68-1.16-1.35-.66-2.76-1.18-4.35-1.84Zm3.63 52.84h-.06c0-1.76-.03-3.52.01-5.28.02-.98-.43-1.57-1.3-1.89-.73-.27-1.47-.53-2.22-.76-1.6-.49-2.31.02-2.37 1.7-.11 2.98-.2 5.97-.29 8.95-.02.68.02 1.37.05 2.06.03.84.48 1.4 1.28 1.58 1.08.25 2.12.63 3.29.58 1.4-.07 1.56 0 1.6-1.35.07-1.86.02-3.72.02-5.58Zm6.02 47.07h-.08c-.03.49-.07.98-.08 1.46-.03 1.51-.07 3.03-.08 4.54 0 .7.22 1.29 1.02 1.37 1.06.12 2.13.26 3.2.24 1.21-.02 1.32-.19 1.39-1.37l.7-11.7c.06-1-.15-1.33-1.12-1.58a20.2 20.2 0 0 0-2.88-.51c-1.66-.16-2.01.15-2.05 1.82-.04 1.9 0 3.81 0 5.71Zm-.05 39.87h-.17c-.1 1.66-.23 3.31-.31 4.97-.08 1.67.17 1.97 1.74 2.33.66.15 1.32.34 1.98.51 1.21.31 2.15-.23 2.41-1.44.13-.62.16-1.26.18-1.89.05-2.78.07-5.57.13-8.35.02-.85-.31-1.41-1.09-1.7-.87-.32-1.75-.61-2.61-.95-1.64-.64-2.22-.26-2.25 1.55-.03 1.66 0 3.31 0 4.98Zm-14.53-50.62c-.11.77-.27 1.38-.29 1.99-.08 3.86-.16 7.72-.16 11.59 0 2.16.07 2.17 2.15 2.48.48.07.98.16 1.45.11 1.32-.15 1.65-.42 1.7-1.74.15-3.76.25-7.52.31-11.28 0-.43-.22-1.07-.54-1.26a20.67 20.67 0 0 0-4.61-1.88Zm21.94-32.4c0-2.06-.05-3.52.02-4.98.05-1.01-.39-1.56-1.27-1.88l-2.75-1c-1.2-.44-1.86-.03-1.93 1.28-.07 1.46-.07 2.93-.14 4.39-.1 2.1-.27 4.19-.35 6.29-.05 1.33.23 1.62 1.49 1.92.62.15 1.23.29 1.84.47 1.81.51 2.71-.06 2.87-1.96.14-1.7.17-3.41.21-4.53Zm18.8-49.5c-.13.66-.3 1.11-.3 1.56-.01 3.47 0 6.95.01 10.42 0 .99.2 1.29 1.09 1.45 1.1.2 2.21.35 3.32.39.31 0 .76-.42.91-.76.2-.48.2-1.05.24-1.58.13-1.95.27-3.9.37-5.86.05-1.03.03-2.05.01-3.08-.02-.74-.3-1.35-1.1-1.53-1.43-.33-2.86-.63-4.54-1.01Zm-5.2 95.79h.03v4.99c0 1.34.21 1.6 1.56 1.81.91.14 1.83.3 2.74.31.34 0 .79-.33 1-.64.2-.29.19-.74.22-1.13.17-2.35.35-4.69.48-7.04.05-.88-.01-1.76-.06-2.64-.05-.77-.46-1.26-1.24-1.43-1.05-.23-2.09-.5-3.14-.71-1.27-.24-1.57.02-1.58 1.33-.02 1.72 0 3.43 0 5.14Zm1.92 40.88h.08v-5.42c0-.59-.1-1.12-.71-1.29-.98-.28-1.98-.55-2.99-.68-.91-.11-1.25.19-1.44 1.08-.1.47-.11.97-.15 1.45-.08 1.27-.17 2.53-.22 3.8-.07 1.81-.16 3.61-.15 5.42 0 1.69.32 1.93 1.97 2 .57.03 1.15.14 1.7.3 1.14.34 1.44.19 1.53-.97.14-1.9.25-3.8.37-5.71Zm1.51-84.92v-3.15q.03-2.86-2.82-3.44c-1.8-.37-2.27 0-2.4 1.88-.09 1.41-.18 2.83-.23 4.24-.07 1.95-.16 3.91-.14 5.86.02 1.36.34 1.56 1.69 1.64.67.04 1.35.16 1.99.35 1.11.32 1.41.17 1.5-1.01.15-2.1.27-4.2.41-6.37Zm22.03-43.64h-.14c0-1.13.03-2.25 0-3.38-.03-1.17-.17-1.35-1.28-1.63-.95-.24-1.91-.44-2.87-.61-1.3-.23-1.64.11-1.65 1.48 0 1.47-.03 2.94-.09 4.4-.07 1.71-.24 3.42-.26 5.13-.01 1.12.21 1.38 1.33 1.57 1.05.18 2.13.17 3.2.25.97.08 1.14 0 1.23-.93.2-2.09.36-4.19.53-6.29Zm-4.82 88.63h-.15v-3.08c0-.79-.35-1.29-1.16-1.45-1.06-.21-2.1-.48-3.16-.66-1.1-.19-1.47.19-1.52 1.35l-.29 7.19c-.03.88-.02 1.76-.04 2.64-.02.82.35 1.32 1.17 1.4 1.07.1 2.13.16 3.2.24 1.21.09 1.27.1 1.39-1.04.22-2.19.37-4.39.55-6.58ZM364 280.59c1.34.18 2.58.39 3.84.49.79.07 1.13-.24 1.19-1.12.23-3.36.43-6.72.62-10.08.03-.59-.19-1.07-.8-1.25-1.16-.36-2.33-.69-3.5-1.01-.58-.15-.95.14-1.06.71-.07.33-.06.68-.08 1.02-.07 1.7-.17 3.41-.2 5.12-.03 2 0 3.99 0 6.13Zm6.2-83.36c.04-.05.15-.13.15-.21.26-3.84.52-7.68.76-11.52.03-.53-.25-.94-.79-1.1-1.17-.34-2.33-.68-3.5-1-.6-.17-.95.15-1.06.7-.08.38-.06.77-.07 1.16l-.18 4.67c-.07 1.85-.14 3.71-.17 5.56-.01.91.24 1.22 1.14 1.42.52.11 1.06.1 1.6.14l2.13.16Z" class="cls-1"/>
    <path d="M393.91 89.03V84.2c.01-1.71.06-3.43.07-5.14 0-.44-.02-.89-.09-1.32-.19-1.05-.62-1.35-1.63-1.09-.85.22-1.73.42-2.51.81-.47.23-.93.75-1.1 1.25-.26.77-.3 1.63-.39 2.45a43.28 43.28 0 0 0-.22 10.11c.02.19 0 .38 0 .59-.63.59-1.3.76-2.15.52-4.05-1.15-8.11-2.25-12.16-3.38-.47-.13-.93-.29-1.51-.47l-.33-11.91c1.36-.43 2.73-.79 4.04-1.29 8.79-3.33 17.52-6.78 25.94-11.01 6.08-3.05 12.3-5.83 18.45-8.72.43-.2.9-.34 1.48-.56l.53 22.39-28.43 11.58Zm12.58-13.64c-.04-.66-.11-1.44-.14-2.23-.1-2.47-.43-2.66-2.7-1.8-1.23.47-1.77 1.27-1.78 2.55-.02 2.05-.11 4.11-.11 6.16 0 .69-.3 1.58.5 2.01.81.44 1.48-.2 2.16-.56.25-.14.45-.4.71-.51.99-.45 1.28-1.32 1.34-2.27.06-1.07.01-2.15.01-3.34Zm3.37-1.57v3.46c0 .6.2 1.07.93 1.04a3.56 3.56 0 0 0 3.44-3.5c.03-1.71-.03-3.42-.07-5.14 0-.33-.05-.72-.23-.98-.2-.29-.55-.6-.88-.66-1.38-.25-3.4 1.52-3.38 2.92.01.98.12 1.95.18 2.84ZM360.16 352.21l-18.44-1.35c-.04-2.64-.1-5.13-.08-7.62 0-.36.33-.79.62-1.07.45-.42 1-.72 1.61-1.15-.91-.51-1.45.32-2.22.36-.77-12.04.11-24.05-.22-36.15h2.05c4.13-.05 8.21.4 12.24 1.29.86.19 1.73.32 2.59.49 1.8.36 2.17.82 2.31 2.65.52 6.61.05 13.22-.07 19.82-.12 6.95-.27 13.9-.41 20.85v1.88Zm-10.34-20h.22c0-1.37.02-2.73 0-4.1-.02-1.3-.29-1.63-1.51-1.97l-1.7-.46c-1.49-.42-2.35-.27-2.79 1.78-.2.94-.15 1.95-.08 2.92.16 2.24.4 4.47.6 6.7.1 1.07.39 1.35 1.45 1.45.72.07 1.45.07 2.17.17.97.14 1.2.02 1.43-.95.1-.43.18-.86.19-1.3.03-1.41.01-2.83.01-4.24Zm-5.45-11.02a9.13 9.13 0 0 0 3.74-1.95c1.71-1.37 2.07-2.54 1.46-4.64-.46-1.59-.35-2.02.98-3 .82-.61 1.72-1.11 2.59-1.64.4-.24.81-.46 1.21-.68a8.21 8.21 0 0 0-5.14 2.76c-.6.67-.71 1.51-.34 2.34.88 1.96.16 3.39-1.44 4.56l-3.06 2.25Zm13.79 1.53c-1.14.07-1.88.61-3.33 2.41 1.33-.65 2.47-1.22 3.33-2.41ZM324.59 304.73c5.18-1.07 10.39.45 15.75.16.04.77.1 1.34.09 1.92-.08 4.6-.21 9.2-.26 13.8-.07 6.95-.12 13.9-.11 20.85a2.9 2.9 0 0 1-1.14 2.51c-1.09.89-2.25 1.73-3.11 3.32 1.68-.81 2.7-2.05 4.2-3.03v6.35c-5.26-.45-10.29-2.46-15.77-2.01 0-.61-.02-1.19 0-1.76.1-2.59.25-5.18.32-7.77.11-4.06.16-8.12.27-12.18.11-4.35.36-8.71.35-13.06-.01-2.97-.37-5.94-.59-9.09Zm11.35 25.73h.05c.08-1.76.15-3.52.26-5.27.06-.91-.26-1.54-1.14-1.8-.93-.28-1.86-.62-2.82-.74-1.41-.18-1.79.29-1.69 1.74l.01.58-.02 9.38c0 .68-.04 1.37.01 2.05.07.94.32 1.15 1.27 1.27.78.09 1.55.2 2.33.3.99.13 1.31-.07 1.54-1.07.11-.47.18-.97.19-1.45.02-1.66 0-3.32 0-4.98Zm-4.95 12.42.21.13c1.98-1.58 3.98-3.14 5.94-4.75a7.26 7.26 0 0 0 1.4-1.48 4.87 4.87 0 0 0 1.05-2.95c-.33.44-.52.6-.58.8-.51 1.52-1.63 2.49-2.86 3.42a57.24 57.24 0 0 0-3.69 3.11c-.56.5-.99 1.14-1.47 1.72ZM434.19 326.99c-.95.82-1.83 1.51-2.61 2.3-.36.36-.59.91-.69 1.42-.06.29.17.74.42.95.12.1.6-.12.86-.29.93-.62 1.76-1.46 2.77-1.86 1.11-.44 2.38-.47 3.59-.68l1.04-.16-1.84-1.39a5.35 5.35 0 0 1 2.08-2.93c.9-.62 1.86-.69 2.73-.01.69.53 1.33 1.15 1.9 1.82.7.82 1.31 1.71 1.94 2.58.75 1.03.62 1.91-.34 2.82a24.93 24.93 0 0 1-4.9 3.43c-8.04 4.67-16.05 9.4-24.36 13.6a83.82 83.82 0 0 0-11.86 7.34c-.54.39-1.18.71-1.82.86-.76.17-1.15-.29-.95-1.02.27-.97.81-1.78 1.66-2.35.49-.33.95-.28 1.51-.02.7.33 1.09.03 1.21-.74.03-.19 0-.39 0-.59.1-3.11 1.04-5.96 2.68-8.59.46-.73.94-1.37 1.98-1.16.66.13 1.01-.33 1.11-.91.11-.62.16-1.26.19-1.89.33-6.82 3.46-11.93 9.41-15.25 1.3-.72 2.79-1.22 4.26-1.51a7.46 7.46 0 0 1 8.04 4.24ZM389.39 32.78c.62.17 1.15.43 1.68.43.71 0 1.15-.57 1.07-1.14a1.12 1.12 0 0 0-1.31-.9c-.44.08-.85.35-1.43.6.08-.39.05-.87.23-.96.82-.44 1.7-.77 2.67-.51.75.2.94.79.98 1.47.11 1.81.24 3.62.29 5.43.11 4.41.22 8.82-.57 13.19-.16.9-.43 1.8-.79 2.65-.32.76-.99 1.05-1.82.84-.33-.09-.67-.16-.99-.26-1.87-.62-2.43-1.42-2.19-3.39.6-4.86 1.24-9.71 1.86-14.57l.34-2.85ZM405.68 54.06a7.6 7.6 0 0 1-4.71-.69c-.03-.54-.14-1.17-.09-1.78.35-4.24.74-8.48 1.11-12.73.13-1.51.32-3.02.35-4.54.01-.99.58-1.39 1.31-1.72.81-.37 1.67-.43 2.35.16.31.27.46.85.47 1.29.05 1.81.06 3.63 0 5.43-.15 4.01-.36 8.02-.56 12.03-.04.83-.15 1.66-.23 2.54Zm-1.22-21.09c-.68 0-1.38.66-1.31 1.28.07.62.51.92 1.1.97.65.06 1.22-.48 1.27-1.13a1.03 1.03 0 0 0-1.06-1.12ZM423.8 78.9l2.22.91-30.8 15.06-5.1-1.35c.62-.35 1.01-.59 1.41-.79 5.22-2.71 10.79-4.59 16.23-6.79 3.9-1.58 7.77-3.2 11.64-4.86 1.43-.62 2.8-1.38 4.41-2.17ZM322.18 349.73v-1.15c.13-3.62.31-7.23.37-10.85.15-8.8.25-17.61.37-26.42.02-1.22.04-2.45.12-3.66.04-.61.23-1.21.46-1.8.38 3.5.7 6.97.58 10.49-.13 3.86-.09 7.73-.16 11.59-.06 3.42-.17 6.85-.27 10.27-.09 3.08-.19 6.16-.32 9.24a8.52 8.52 0 0 1-.36 1.85c-.07.25-.3.46-.45.68a7.22 7.22 0 0 0-.36-.23ZM429.84 80.55l5 .87c.21 1.6-.42 3.16.67 4.62l-6.02 3.19.35-8.68ZM421.97 92.77l-3.51 1.6c-.16-3-.08-5.73.19-8.6l4.09-2.04-.78 9.03ZM427.73 90.03l-3.86 1.82c.04-.86.05-1.49.09-2.11.15-2 .34-4 .46-6 .04-.6.22-1 .79-1.25.84-.37 1.66-.79 2.5-1.19v8.73ZM388.61 95.07l-.25 8.34-4.02-.95c.08-2.01.15-3.85.24-5.69.01-.22.09-.57.24-.64 1-.48 2.02-.91 3.06-1.31.17-.06.44.14.72.25ZM413.39 88.38l3.4-1.66v8.36l-3.83 1.71.43-8.41ZM393.06 95.99l.68 8.66-3.7-.88V95.3l3.02.7ZM411.72 89.21l-.3 8.29-3.45 1.69.35-8.29 3.4-1.7ZM401.76 102.42l-1.74.94c-.38.2-.78.38-1.33.65-.19-1.52.15-2.9.17-4.27v-4.25l3.42-1.59-.52 8.52ZM341.88 352.77c.1-.11.19-.3.28-.29 5.98.34 11.97.7 18.06 1.07l.18 1.73c-2.97.1-17.46-1.86-18.52-2.5ZM403.69 93.19l2.96-1.41-.1 2.24c-.09 1.76-.21 3.51-.27 5.28-.02.56-.17.91-.69 1.15-.74.35-1.46.74-2.41 1.23l.51-8.5ZM428.74 78.49l.46-6.4 3.72.4c.26 1.19.07 2.35.03 3.49 0 .24-.23.57-.45.68-1.15.6-2.34 1.15-3.76 1.83ZM424.21 71.2l2.88.63v6.43l-2.71-.55a24.22 24.22 0 0 1-.17-6.5ZM397.02 104.98l-1.62.95v-8.9l2.18-.93-.56 8.88ZM383.04 96.95v5.19l-3.93-1.01c-.08-.18-.12-.22-.12-.26q.08-2.54 2.39-3.45a38 38 0 0 1 1.37-.51c.08-.03.19.02.28.04ZM340.08 352.35c-1.53.46-15-1.66-16.17-2.31 1.08-.66 2.22-.49 3.29-.32 2.36.39 4.71.91 7.05 1.37l4.45.91c.46.1.92.23 1.38.35ZM372.16 98.97c-.38-2.78-.18-5.43.11-8.23l1.96.56-.68 6.68c-.07.73-.58.95-1.39.99ZM375.82 91.75l2.23.52c-.18 1.45-.34 2.83-.55 4.2-.04.23-.29.5-.51.62-.46.25-.97.4-1.57.64l.4-5.98ZM442.16 80.59l-1.74-.3.33-5.42 1.45-.62c.49 2.15-.09 4.14-.03 6.34Z" class="cls-1"/>
    <path d="M391.94 78.2c.11.2.32.39.33.6.06 1.02.11 2.05.09 3.07-.04 2.34-.16 4.68-.17 7.01 0 .91-.28 1.38-1.34 1.43.04-.35-.03-.8.14-.94.69-.53.68-1.26.68-1.98v-9.04l.26-.15ZM383.54 93.75c-1.06 1.47-2.66 1.48-4.01 2.43v-3.47c1.38.22 2.61.49 4.01 1.04ZM434.96 75.48v-2.79l3.97.29c-.24 1.11-1.16 1.1-1.77 1.46-.65.38-1.36.65-2.2 1.04ZM436.72 85.23l.28-3.22 3.08.58.09.33-3.45 2.31ZM438.58 80.08l-1.44-.35-.24-2.98 1.68-.84v4.17ZM377.37 100.81l-2.64-.87 2.54-.93.09 1.8ZM435.06 77.57c.28.82.33 1.35-.33 1.92-.39-.71-.32-1.23.33-1.92ZM215.98 374.46c1.58-1.23 3.03-2.43 4.56-3.55.78-.57 1.64-1.09 2.54-1.44 1.64-.64 2.82-.27 3.11 1.6.21 1.3.07 2.44-.91 3.37-.6.57-1.23 1.11-1.85 1.65-.22.19-.48.33-.7.53-.38.34-.71.76-.41 1.28.31.53.83.4 1.31.21.54-.21 1.07-.52 1.63-.64.38-.08.91 0 1.19.22.4.34.65.87.32 1.45-.3.5-.57 1.02-.89 1.51-.38.57-.84 1.09-1.17 1.68-.84 1.47-.52 2.55.95 3.43l.31.19-.27 3.55c-.07.95-.76 1.47-1.45 1.86a4.96 4.96 0 0 1-3.69.46c-.14-2.11.54-4.16-.25-6.22-.28-.06-.55-.14-.83-.17-4.14-.42-5.11-2.92-4.41-6.48a9.2 9.2 0 0 1 .82-2.19c.41-.83.64-1.62.1-2.31Zm4.5-1.92c-.76.39-1.31.78-1.38 1.6 1.31.19 1.8-.34 1.38-1.6Zm1.95.21q.07-.76-.46-.85c.07.19.11.38.19.54.05.11.16.19.27.31ZM193.19 446.68l-.58-1.73c-.12-.37-.17-.78-.37-1.1-.16-.24-.53-.53-.77-.5-.44.06-.35.42-.23.8.08.26-.06.62-.18.91-.18.4-.43.76-.58 1.01l-.82-.54c.42-.96 1.24-1.77 1-3.04-1.02.41-.98 1.48-1.56 2.08-.57.59-1.09 1.22-1.77 1.75.54-1.52 1.9-2.61 2.31-4.43-1.32.7-1.74 2.2-3.4 2.58.42-.57.65-.92.92-1.23a41.69 41.69 0 0 0 6.76-10.25c1.3-2.85 2.64-5.68 3.96-8.52.56-1.21.99-1.43 2.16-.88.95.45 1.82 1.09 2.83 1.7-.32.59-.53 1.01-.78 1.41-1.82 2.84-3.6 5.71-5.5 8.5a17.6 17.6 0 0 0-3.04 10.68v.71l-.36.1ZM254.13 436.54v1.45l-.83-.62c-.72.32-.34.73-.14 1.09.49.88 1 1.75 1.5 2.63l-.28.2-2.53-3.4c-.52 1.07.08 1.63.34 2.24.28.66.62 1.29.93 1.93l-.25.17c-.93-1.2-1.89-2.39-2.76-3.63-.18-.26-.11-.74-.06-1.11.06-.54.22-1.07-.59-1.47-.96 1.36-.19 3.06-.91 4.26 0-.44-.1-1.05.02-1.63.38-1.86-.19-3.43-1.17-4.99a283.7 283.7 0 0 1-5.13-8.54c-.66-1.13-1.19-2.35-1.82-3.6 1.42-.66 2.65-1.58 4.31-1.68.18.34.38.66.52 1.01.92 2.21 1.82 4.43 2.75 6.64.72 1.71 1.4 3.44 2.24 5.09.38.76 1.06 1.39 1.68 2 .72.72 1.53 1.36 2.21 1.96ZM205.02 490.96c.11.94.43 1.37 1.16 1.72 1.94.9 1.91.97 5.18 1.19.07 1.86-.28 2.39-1.99 2.4-3.32.03-6.64-.06-9.96-.14a3.86 3.86 0 0 1-1.41-.36c-.22-.09-.51-.42-.5-.61.03-.28.25-.65.49-.78 1.03-.55 2.11-1.02 3.16-1.53 1.23-.59 2.44-1.2 3.87-1.9ZM239.74 491.68a2140 2140 0 0 0 6.5 2.32l-.04.4-11.58 1.75-.27-2.38c1.13-.1 2.19-.14 3.23-.31 1.02-.17 2-.48 2.16-1.78ZM237.63 486.15l.38 5.59c-1.12.75-2.33.54-3.67.46a31.92 31.92 0 0 1-.18-6.05h3.47ZM206.42 488.11l5.64-.56-.49 4.27c-1.5.5-2.9.28-4.25-.36a1.48 1.48 0 0 1-.92-1.52c.04-.62 0-1.25 0-1.84ZM467.15 296.35c-.22-2.53-.41-4.82-.62-7.11-.06-.63-.17-1.26-.28-1.89-.1-.58-.36-1.07-1.03-1.04-.64.03-.91.54-.99 1.11-.08.48-.09.98-.09 1.46.01 1.71.05 3.43.08 5.14v1.73c-.5-.1-.88-.14-1.23-.25a13.37 13.37 0 0 1-7.95-6.77c-1.27-2.41-1.82-5.05-2.36-7.7a39.6 39.6 0 0 1 0-15.9c.97-4.76.53-9.43-.4-14.13-1.05-5.28-2.11-10.56-2.56-15.94a46.57 46.57 0 0 1 2.05-18.13c.99-3.13 2.12-6.21 3.09-9.34a27.38 27.38 0 0 0 1.39-7.34c.02-.6 0-1.21 0-1.81l-.3-.03-.67 1.97-.21-.03v-.96c.14-5.75-.46-11.45-1.05-17.14-.44-4.24-.86-8.48-.47-12.75.1-1.11.44-1.96 1.35-2.61.47-.34.88-.78 1.26-1.22 1.23-1.42 2.53-1.75 4.3-1.04 1.5.6 2.68 1.64 3.6 2.92.66.91 1.24 1.88 1.8 2.86a44.8 44.8 0 0 1 5.11 14.16c.8 4.18 1.84 8.32 2.56 12.52.78 4.6.93 9.28.47 13.92-.68 6.72-.43 13.4.5 20.07.18 1.3.21 2.64.16 3.95-.11 2.98-.31 5.97-.47 8.95-.01.26-.07.53-.3.81l-1.83-5.77-.37.08c.27 2.22.36 4.49.86 6.65.89 3.87 1.6 7.73 1.74 11.73.17 5 1.16 9.91 2.02 14.83.85 4.85 1.03 9.74-.1 14.6a16.51 16.51 0 0 1-2.37 5.5 9.29 9.29 0 0 1-4.88 3.59c-.54.19-1.13.21-1.84.34Zm-9.57-90.97a37.36 37.36 0 0 0-2.93 7.44c-.05.19-.13.39-.1.57.05.21.16.5.33.58.16.07.46-.05.62-.18.18-.15.3-.39.39-.61a22 22 0 0 0 1.69-7.8Z" class="cls-1"/>
    <path d="m481.26 298.08.17-3.33c.03-.73.12-1.48.02-2.2-.05-.36-.42-.88-.72-.93-.3-.05-.84.3-1.01.61a5.63 5.63 0 0 0-.53 1.82c-.17 1.06-.25 2.14-.37 3.21-.05.43-.13.86-.19 1.27q-1.29.19-4.92-1.94c.03-.09.02-.21.08-.26 3.31-3.11 4.79-7.1 5.4-11.47.71-5.1.29-10.18-.66-15.21a101.4 101.4 0 0 1-1.28-27.66c.15-1.81.22-3.62.41-5.42.37-3.55-.32-7.03-.64-10.54-.15-1.61-.23-3.23-.39-4.83-.26-2.67.34-5.13 1.58-7.5 2.2-4.22 4-8.62 5.21-13.24.61-2.32 1.12-4.67 1.68-7a22.43 22.43 0 0 1 3.48-8.04 19.4 19.4 0 0 1 1.97-2.36 7.22 7.22 0 0 1 1.78-1.27c1.6-.81 2.11-.47 2.16 1.31.1 3.6-.58 7.1-1.24 10.63a52.58 52.58 0 0 0-1.07 8.73c-.15 6.54-.99 12.98-1.96 19.43-.87 5.81-1.75 11.63-2.53 17.45-.72 5.36-.52 10.75-.16 16.14.36 5.28.68 10.56.76 15.85.1 6.24-.8 12.41-1.78 18.56-.26 1.63-.88 3.2-1.43 4.77-.6 1.71-1.98 2.71-3.45 3.58l-.36-.15ZM146.81 175.41c-.1-1.82.14-3.61.66-5.36 1.2-4.03 2.38-8.07 3.56-12.11 1.09-3.71 2.13-7.43 3.3-11.11.41-1.29.93-2.68 1.8-3.65 2.37-2.64 4.7-5.39 8.04-6.94a19.93 19.93 0 0 0 8.84-7.91 57.55 57.55 0 0 1 3.23-4.9c.72-.95 1.64-1.84 2.63-2.49 1.41-.93 2.75-.72 4.06.38a5.33 5.33 0 0 1 1.97 3.95c.11 2.24-.33 4.38-1.04 6.48a26.95 26.95 0 0 1-3.38 6.66c-3.62 5.27-7.72 10.14-12.68 14.19a21.25 21.25 0 0 0-6.97 10.46c-1.01 3.25-2.35 6.35-4.54 8.98-1.96 2.37-2.5 5.13-2.58 8.08-.05 1.95-.14 3.91-.3 5.86a7.1 7.1 0 0 1-.61 2.25c-.53 1.19-1.42 1.29-2.27.27a7.98 7.98 0 0 1-1.07-1.74 30.78 30.78 0 0 1-2.54-9.61c-.06-.57-.08-1.16-.12-1.75Zm23.05-40.48c-2.8 1.29-4.17 2.29-4.36 3.12 1.51.26 3.33-1 4.36-3.12Zm-3.54 5.4c-.49.44-1.01.86-1.46 1.35-.15.16-.1.5-.14.76.3-.03.67.03.87-.12.57-.44.93-1.05.73-1.98ZM254.05 255.52c4.69.07 8.49 1.19 11.93 3.47a17.65 17.65 0 0 1 4.46 25.19c-5.2 7-14.82 10.29-23.18 7.82-8.35-2.47-13.82-10.4-12.91-18.72a20.02 20.02 0 0 1 16.48-17.38c1.25-.21 2.52-.29 3.22-.37Zm-1.11 16.14c-.1-.65-.17-1.94-.53-3.14-.74-2.52-2.11-4.57-4.95-5-2.37-.36-4.82 1.19-6.25 3.8-.07.13-.15.25-.2.39-.48 1.48-1.06 2.95-1.38 4.46a15.44 15.44 0 0 0-.29 3.78 8.64 8.64 0 0 0 1.99 5.4 4.87 4.87 0 0 0 6.09 1.3 7.9 7.9 0 0 0 2.98-2.55c1.73-2.32 2.41-4.98 2.53-8.45Zm2.94-.47.11-.01c0-1.32.04-2.64-.03-3.96-.01-.29-.42-.56-.65-.84-.28.24-.61.44-.81.72-.15.22-.17.56-.19.84-.09 1.07-.21 2.15-.22 3.22-.02 2.2.08 4.39.8 6.52.72 2.09 2 3.55 4.16 4.18 1.39.4 2.65.18 3.58-.98a9.2 9.2 0 0 0 1.31-2.11c1.54-3.58 1-7.29.58-10.99-.05-.48-.39-.88-.89-.75-.3.08-.6.45-.74.76-.13.29-.05.67-.06 1.01-.04 1.52-.06 3.03-.11 4.55a11.02 11.02 0 0 1-1.65 5.41c-.51.84-.89.95-1.84.71-1.68-.42-2.57-1.66-2.86-3.21-.32-1.67-.34-3.39-.49-5.09ZM406.64 25.53c.05-2.54.34-4.98 1.69-7.15a25 25 0 0 1 2.16-2.97 24.7 24.7 0 0 0 2.99-4.69c1.38-2.73 3.63-4.7 6.11-6.41.27-.19.62-.3.95-.37 1.38-.29 2.38.61 2.09 1.98a6.37 6.37 0 0 1-1.02 2.39c-.78 1.05-1.73 2-2.68 2.91a9.56 9.56 0 0 0-2.74 4.1 7.8 7.8 0 0 1-2.39 3.48c-2.43 2.17-5.16 4.01-7.15 6.72Zm7.54-9.16c1.01-1.02 2-2.05 2.26-3.53-1.15.92-2 2.04-2.26 3.53ZM392.37 24.62c-.17-.64-.46-1.26-.5-1.9-.14-2.1-.19-4.2-.27-6.3 0-.24 0-.52.11-.71 1.15-1.8 1.7-3.97 3.45-5.4a6.69 6.69 0 0 0 1.93-3.07c.83-2.35 2.4-4 4.71-4.94.68-.27 1.38-.55 2.25.09-.31.5-.54 1.09-.95 1.5-2.1 2.13-3.23 4.71-3.93 7.59-.28 1.15-.99 2.22-1.62 3.25a8.9 8.9 0 0 1-1.53 1.78 9.68 9.68 0 0 0-3.08 6.62c-.03.48-.16.96-.24 1.43l-.35.07Zm5.7-14.21c1.09-1.21 1.21-1.6.72-2.52a3.78 3.78 0 0 0-.72 2.52ZM413.94 138.75v-10.83h.26c.05.01.12.05.12.07.03.53.09 1.07.08 1.6l-.23 9.19-.24-.04ZM411.22 141.31c.1-.32.1-.8.31-.92.59-.32 1.15-1 2.07-.44-.53.83-1.45.99-2.38 1.36ZM415 177.34l-.3 9.43c-.11 0-.21.02-.32.03-.06-.24-.17-.49-.17-.74l-.04-7.91c0-.44-.07-.93.83-.82ZM414.05 188.49l-2.61 1.97c.35-1.26 1.23-1.97 2.61-1.97ZM429.86 170.15c.44 3.26.13 6.51-.19 9.83-.74-.13-.68-.58-.66-1.01.07-1.81.15-3.61.21-5.42.03-.83 0-1.66.05-2.49.01-.32.13-.62.19-.94l.4.02ZM429.22 181.36l-3.03 1.01c1.27-1.33 1.98-1.56 3.03-1.01ZM429.48 131.24c-.55-1.39-.3-2.5-.26-3.57.08-2.29.26-4.57.43-6.86 0-.1.31-.18.48-.28.38 1.25-.04 9.13-.65 10.71ZM427.09 133.53c.09-1.33.84-1.7 2.47-1.17l-2.47 1.17ZM411.88 239.31c-.38-.34-.66-.47-.75-.68-.11-.25-.09-.58-.08-.86l.2-7.76c0-.17.09-.35.19-.72.19.27.36.4.36.53.11 2.83.2 5.66.28 8.49 0 .23-.09.46-.2 1.01ZM409.06 241.91c.33-1.25 1.21-1.33 1.8-1.73.18-.12.58.07.88.12l.05.31-2.73 1.3ZM410.87 272.39c.23 3.27.13 6.54.05 9.8-.9.07-.92-.42-.91-.94l.09-4.99c.01-1.03 0-2.05.02-3.08 0-.38-.02-.82.74-.78ZM407.94 285.21c0-.52-.05-.83 0-.85.76-.3 1.36-1.11 2.41-.78-.56.93-1.61.82-2.42 1.64ZM426.94 231.5c-.38-.94-.52-4.73-.26-7.34.03-.29.17-.57.32-1.03.71 1.89.62 7.21-.06 8.37ZM426.96 232.66l-2.05 1.58c.31-.97.89-1.46 2.05-1.58ZM425.98 276.67v-4.93c0-.98.03-1.96.11-2.93.02-.23.28-.45.43-.67l.35.1c.11 1.69.27 3.37.34 5.06.04.93-.07 1.86-.11 2.79-.03.69-.43.79-1.12.59ZM426.94 278.28l-1.81.7c.37-.97.93-1.24 1.81-.7ZM179.11 110.5c.49-2.45.87-4.61 1.37-6.73.14-.58.52-1.18.95-1.61.84-.84 1.81-.48 2 .7a7 7 0 0 1-.58 3.72c-.66 1.67-1.58 3.12-3.74 3.92Z" class="cls-1"/>
    <path d="M112.02 289.48c-.82-.11-1.66-.16-2.46-.35-.98-.23-1.33-.64-1.31-1.65.04-2.08-.47-4.06-.89-6.07-.53-2.48-.84-5.01-1.22-7.52a4.35 4.35 0 0 1 0-1.02c.06-.58.44-.93 1-.82 1.68.32 3.35.67 5 1.07.66.16.86.74.95 1.35.57 4.31 1.15 8.61 1.71 12.92.04.29-.04.59 0 .88.11.78-.35 1.08-1 1.14-.58.05-1.17.01-1.76.01v.05Zm-2.6-2.88c.71-.31.86-.76.79-1.36l-.72-6.69-.47-4.7-1.74-.38 2.14 13.12Zm3.94.66c-.82-.11-1.65-.24-2.47-.34-.49-.05-.56.21-.41.61q2.37.17 2.88-.27ZM49.87 272.18v-4.54c0-.82.21-1.17.95-1.16a22 22 0 0 1 3.34.25c1.07.18 1.29.52 1.37 1.57l.58 8.48c.11 1.56.29 3.11.34 4.67.05 1.58-.2 1.81-1.74 1.84-.78.02-1.56-.03-2.34-.12-1.21-.14-1.52-.46-1.62-1.66-.27-3.11-.52-6.23-.77-9.35h-.1Zm1.8 8.88q.69-.88.63-1.7c-.26-3.78-.88-7.54-.62-11.43l-.88-.1c.05 2.24.02 4.38.15 6.51.14 2.17.07 4.37.71 6.73Zm3.19.72c-1.58-1.08-1.71-1.08-2.42-.18l2.42.18ZM58.72 267.12c1.54.19 2.84.33 4.14.51 1.08.15 1.18.25 1.27 1.4.2 2.63.39 5.27.56 7.9.09 1.32.16 2.64.16 3.96 0 1.3-.17 1.5-1.44 1.72-.95.17-1.92.23-2.89.36-.72.09-1.06-.18-1.17-.94-.66-4.47-.74-8.96-.82-13.46 0-.42.11-.85.19-1.45Zm1.22 14.15c.76-.83 1-1.66.84-2.71-.25-1.68-.24-3.41-.35-5.11l-.29-4.67c-.03-.53-.32-.65-.78-.5-.04.1-.1.19-.1.28l.67 12.71Zm1.15.62q2.07.16 2.25-.82l-1.75-.17-.5.99ZM152.5 286.73c0-1.57.02-3.13 0-4.7a2.35 2.35 0 0 1 1.32-2.27c.51-.28 1.01-.6 1.54-.85 1.01-.47 1.44-.25 1.67.82.08.38.13.77.15 1.16.09 3.13.2 6.26.24 9.39.02 1.73-1.47 3.7-3.08 4.27-.66.23-1.25-.03-1.44-.82a15 15 0 0 1-.36-2.76c-.06-1.42-.01-2.84-.01-4.26h-.01Zm3.26-6.38c-.7.14-.94.4-.81.96.08.38.15.76.15 1.15 0 2.28-.03 4.57-.02 6.85 0 .23.28.45.43.67l.25-.11v-9.51Zm-1.48 12.35c1.67-.76 1.73-.87 1.33-2.34l-1.58 1.02.25 1.32ZM178.81 276.4v3.96c0 1.07-.42 1.86-1.39 2.4-.68.38-1.26.93-1.91 1.35-.62.4-.96.28-1.24-.42a5.52 5.52 0 0 1-.29-1.13 40.25 40.25 0 0 1-.29-9.37c.11-1.51 2.07-3.23 3.62-3.27.65-.01 1.02.29 1.11.91.1.72.21 1.45.23 2.19.04 1.12.01 2.25.01 3.37h.14Zm-1.59-5.06c-.83.15-.89.54-.81 1.11.15 1.01.23 2.03.32 3.05l.44 5.02-1.9.82.11 1.25c.64-.41 1.1-.78 1.62-1.01.6-.27.73-.71.71-1.29-.09-2.49-.15-4.97-.25-7.46-.02-.48-.15-.95-.24-1.49ZM159.33 271.97l.46.38-4.01 1.78c-.17-.7.29-1.15.85-1.41a5.38 5.38 0 0 0 2.71-2.9 9.21 9.21 0 0 1 1.7-2.33c-.05 1.66-1.31 2.83-1.7 4.49ZM84.67 278.07c.42 1.85 2 3.23 1.92 5.31l-.64-.98-1.75 3.06-.23-.04c0-.29-.08-.61.01-.86.28-.78.6-1.54.97-2.28.36-.72.33-1.36-.04-2.08-.32-.62-.49-1.32-.72-1.99l.48-.13ZM130.09 310.67l-1.78 1.46 1.66 1.33c-1.41.11-2.2-.29-2.72-1.26a8.77 8.77 0 0 1-.93-4.42l1.29 3.63c.72-.55 1.37-1.12 2.48-.74ZM83.62 287.89l-.77 2.23c-.52-1.15-.49-1.24.77-2.23ZM162.71 312.91c-.49-.44-.68-.89-.22-1.4.06-.07.34-.07.4 0 .42.51.24.96-.17 1.41ZM172.86 263.88c-.35.15-.55.3-.76.32-.12 0-.37-.25-.35-.33.06-.19.22-.38.38-.49.05-.03.27.17.73.5ZM71.39 319.61c.1.43.3.86.28 1.29-.05 1.51-.16 3.02-.25 4.54-.03.48-.21.89-.74.94-.56.05-.84-.35-.82-.82.07-1.61.15-3.22.34-4.81.05-.42.46-.8.7-1.2l.5.05ZM148.34 199.41c.24.08.82.2 1.34.44.49.22.76.72.52 1.2-.16.33-.58.63-.95.72-.45.12-.96.05-1.44 0-1.03-.09-1.59-.64-1.48-1.4.1-.69.69-1.04 2.01-.97ZM307.12 264.54c0-1.85-.04-3.71.01-5.56.04-1.39.78-1.88 2.14-1.48.84.25 1.67.54 2.49.85.81.31 1.23.89 1.24 1.79 0 3.61.06 7.22.04 10.83 0 1.39-.58 1.86-1.96 1.64-1.1-.18-2.17-.54-3.24-.88-.75-.24-.99-.87-.98-1.62v-5.56h.27Zm.83 4.81.44.09c.66-.76.05-1.7.19-2.54.15-.91.07-1.86.1-2.79.03-.93.1-1.86.1-2.79 0-.86.38-1.78-.34-2.89l-.49 10.91Zm1.14 1.1 2.32 1.1.11-1.18q-1.96-.65-2.43.08ZM335.95 138.45c-.11 1.95-.21 3.9-.34 5.85-.1 1.59-.25 1.74-1.84 1.76-.63 0-1.26-.12-1.89-.19-1.76-.21-1.97-.4-1.95-2.21.05-3.66.13-7.32.25-10.98.05-1.65.46-2 2.06-1.85.92.08 1.84.26 2.74.46 1.13.26 1.35.57 1.29 1.74-.09 1.8-.22 3.61-.34 5.41h.01Zm-4.57 5.42.17.07c.14-.38.35-.74.4-1.13.45-3.82.23-9.49-.57-10.61v11.66Zm3.16.37h-2.02c.6.34 1.2.86 2.02 0ZM315.71 127.53c1.59.66 3 1.19 4.35 1.84.35.17.69.76.68 1.16-.06 3.96-.19 7.91-.31 11.87-.02.72-.38 1.25-1.15 1.25-1.16 0-2.32-.03-3.47-.19-.64-.09-.66-.74-.66-1.31l.13-10.27c.02-1.03.08-2.05.15-3.08.03-.33.13-.64.27-1.28Zm.52 13.7c.98-.18.93-.77.89-1.37a52.5 52.5 0 0 1 .04-9.79c.02-.19-.2-.4-.31-.6l-.23.07-.4 11.69Zm2.81 1.65c-.13-.53-.18-.97-.25-.97-.41-.02-.82.07-1.23.12v.3l1.48.56ZM319.35 180.37c0 1.86.05 3.72-.02 5.58-.05 1.34-.21 1.28-1.6 1.35-1.17.06-2.21-.32-3.29-.58-.8-.19-1.25-.74-1.28-1.58-.02-.68-.07-1.37-.05-2.06.09-2.98.18-5.97.29-8.95.06-1.68.77-2.18 2.37-1.7.75.23 1.49.49 2.22.76.87.32 1.32.91 1.3 1.89-.04 1.76-.01 3.52-.01 5.28h.06Zm-4.61-6.64-.47 10.45c.83-.41 1.01-.82.99-1.5-.05-1.21 0-2.43.07-3.65.09-1.8.08-3.58-.58-5.3Zm3.03 12.72.17-1.91c-1.16.1-2.27-.67-3.05.62l2.88 1.29ZM325.36 227.44c0-1.9-.03-3.81.01-5.71.04-1.67.39-1.98 2.05-1.82.97.09 1.93.28 2.88.51.98.24 1.18.58 1.12 1.58l-.7 11.7c-.07 1.19-.18 1.35-1.39 1.37-1.06.02-2.13-.12-3.2-.24-.79-.09-1.02-.68-1.02-1.37.01-1.52.05-3.03.08-4.54.01-.49.05-.98.08-1.46h.08Zm1.6-6.21-.42.04v11.25c.75.15.91-.25.9-.91-.02-1.75.03-3.5 0-5.25-.03-1.56-.15-3.11-.25-4.67 0-.16-.14-.31-.22-.46Zm2.4 12.6.03-.32c-.9-.19-1.78-.71-3.1-.05l3.06.37ZM325.31 267.32c0-1.66-.02-3.32 0-4.98.03-1.8.62-2.19 2.25-1.55.86.34 1.75.62 2.61.95.78.29 1.11.84 1.09 1.7-.07 2.78-.08 5.57-.13 8.35a9.92 9.92 0 0 1-.18 1.89c-.25 1.22-1.19 1.76-2.41 1.44-.66-.17-1.32-.36-1.98-.51-1.56-.36-1.82-.66-1.74-2.33.08-1.66.2-3.31.31-4.97h.17Zm1.06-5.7-.27 10.52c.66-.33.82-.78.84-1.35.07-2.78.15-5.57.25-8.35.02-.61-.28-.76-.82-.82Zm.69 11.08-.05.32 2.68 1.07.35-1.39h-2.97ZM310.79 216.69c1.74.5 3.22 1.09 4.61 1.88.32.18.55.83.54 1.26-.06 3.76-.15 7.52-.31 11.28-.05 1.32-.39 1.59-1.7 1.74a5.5 5.5 0 0 1-1.45-.11c-2.08-.32-2.15-.33-2.15-2.48 0-3.86.09-7.72.16-11.59.01-.61.17-1.22.29-1.99Zm.59 13.49.37.08c.8-.61.59-1.56.62-2.36.09-2.34.08-4.69.11-7.03 0-.59 0-1.18-.06-1.76-.02-.21-.23-.39-.36-.59l-.3.07-.38 11.58Zm.52.72c1.43.98 1.78 1.01 2.22.3l-2.22-.3ZM332.73 184.3c-.05 1.12-.07 2.83-.21 4.53-.16 1.9-1.06 2.47-2.87 1.96-.61-.17-1.23-.32-1.84-.47-1.26-.3-1.54-.59-1.49-1.92.08-2.1.25-4.19.35-6.29.07-1.46.07-2.93.14-4.39.07-1.31.73-1.73 1.93-1.28l2.75 1c.88.32 1.31.88 1.27 1.88-.07 1.46-.02 2.93-.02 4.98Zm-5.13 3.33c.7-.04 1.04-.34 1.04-1.01l-.04-8.48c0-.48-.21-.73-.74-.7l-.25 10.18Zm3.9.89c-1.17.12-2.21-.86-3.35.19l2.99 1.12.36-1.31ZM351.53 134.8l4.54 1c.8.18 1.09.79 1.1 1.53.02 1.03.04 2.06-.01 3.08-.09 1.95-.23 3.91-.37 5.86-.04.54-.04 1.11-.24 1.58-.14.34-.6.77-.91.76a21.8 21.8 0 0 1-3.32-.39c-.89-.16-1.08-.46-1.09-1.45-.02-3.47-.03-6.95-.01-10.42 0-.45.17-.9.31-1.56Zm.48 11.4h.54c0-1.16-.03-2.31 0-3.47.06-2.05.17-4.1.24-6.15 0-.21-.16-.43-.24-.65l-.24.05-.3 10.21Zm1.29.66-.01.29c.5.16.99.37 1.5.46.56.1.6-.26.49-.74h-1.98ZM346.33 230.59v-5.14c.01-1.32.31-1.58 1.58-1.33 1.05.2 2.1.48 3.14.71.78.17 1.19.66 1.24 1.43.05.88.11 1.76.06 2.64-.13 2.35-.31 4.69-.48 7.04-.03.39-.01.84-.22 1.13-.21.31-.66.64-1 .64-.92 0-1.83-.17-2.74-.31-1.35-.2-1.56-.46-1.56-1.81v-4.99h-.02Zm.8 4.43.38.1c.15-.3.44-.6.44-.91.06-2.93.08-5.86.09-8.78 0-.15-.25-.3-.55-.64l-.36 10.22Zm3.41.98q-1.84-.36-2.38.1 1.96.73 2.38-.1ZM348.25 271.47c-.12 1.9-.22 3.8-.37 5.71-.09 1.16-.39 1.31-1.53.97a7.58 7.58 0 0 0-1.7-.3c-1.65-.08-1.96-.31-1.97-2 0-1.81.08-3.61.15-5.42.05-1.27.14-2.53.22-3.8.03-.49.05-.98.15-1.45.19-.89.53-1.2 1.44-1.08 1.01.13 2.01.4 2.99.68.61.17.72.7.71 1.29-.02 1.81 0 3.61 0 5.42h-.08Zm-3.28-5.81c-.88-.34-.86.23-.88.79l-.36 7.47c-.02.36 0 .73 0 1.12.25-.06.42-.07.42-.1l.82-9.29Zm-.59 10.71 2.23.3c-.07-.36-.08-.73-.17-.75-.64-.16-1.3-.24-2.06.46ZM349.76 186.56c-.14 2.17-.25 4.27-.41 6.37-.09 1.18-.39 1.33-1.5 1.01a9.54 9.54 0 0 0-1.99-.35c-1.35-.09-1.67-.28-1.69-1.64-.03-1.95.07-3.91.14-5.86.05-1.41.14-2.83.23-4.24.12-1.88.59-2.25 2.4-1.88q2.86.58 2.82 3.44v3.16Zm-4.53 4.8.33.02c.03-.04.08-.08.08-.12.23-3.2.46-6.41.65-9.61 0-.13-.27-.27-.7-.66 0 3.68-.45 7.02-.36 10.38Zm2.85.91-.07-1.04c-.96.09-1.84.17-2.7 1.04h2.77ZM371.8 142.91c-.17 2.1-.33 4.2-.53 6.29-.09.92-.26 1-1.23.93-1.07-.09-2.15-.07-3.2-.25-1.12-.19-1.34-.45-1.33-1.57.02-1.71.19-3.42.26-5.13.06-1.47.08-2.93.09-4.4 0-1.36.35-1.71 1.65-1.48.96.17 1.92.37 2.87.61 1.11.28 1.24.45 1.28 1.63.03 1.13 0 2.25 0 3.38h.14Zm-4.96 5.04c.7-3.12.94-6.32.89-9.6l-.89-.09v9.69Zm3.33-.04c-.87.26-1.78-.19-2.38.8l2.26.54.12-1.34ZM366.98 231.55c-.18 2.19-.33 4.39-.55 6.58-.11 1.13-.17 1.13-1.39 1.04-1.07-.08-2.14-.13-3.2-.24-.82-.08-1.19-.58-1.17-1.4.02-.88 0-1.76.04-2.64l.29-7.19c.04-1.17.41-1.54 1.52-1.35 1.06.18 2.11.45 3.16.66.81.16 1.16.66 1.16 1.45v3.08l.15.01Zm-4.94-4.18c-.02 3.2-.24 6.31-.1 9.54.86-.5.77-1.15.79-1.79.04-1.41.11-2.83.18-4.24.04-.88.12-1.76.18-2.64.04-.59-.18-.95-1.04-.87Zm3.21 11.05-.05-1.05-2.03.4 2.09.65ZM364.02 280.62c0-2.14-.03-4.14 0-6.13.03-1.71.13-3.41.2-5.12.01-.34.01-.69.08-1.02.11-.57.48-.86 1.06-.71 1.17.31 2.34.65 3.5 1.01.6.18.83.66.8 1.25-.2 3.36-.39 6.72-.62 10.08-.06.87-.4 1.18-1.19 1.12-1.25-.11-2.5-.32-3.84-.49Zm.99-1.46c.77-.27.63-.77.66-1.17.1-1.31.21-2.62.28-3.93.08-1.41.13-2.82.2-4.24.03-.53-.11-.85-.84-.64.12 3.3-.69 6.58-.31 9.98Zm2.94.67q-1.11-.58-2.33 0h2.33ZM370.22 197.26l-2.13-.17c-.53-.04-1.08-.03-1.6-.14-.9-.2-1.15-.51-1.14-1.42.03-1.85.11-3.71.17-5.56.05-1.56.12-3.12.18-4.67.01-.39 0-.78.07-1.16.11-.55.46-.87 1.06-.7 1.17.32 2.34.66 3.5 1 .54.16.82.57.79 1.1-.24 3.84-.5 7.68-.76 11.52 0 .08-.11.15-.15.21Zm-3.84-2.79.48.13c.17-.48.46-.95.48-1.43.1-2.59.14-5.18.16-7.76 0-.21-.25-.43-.38-.65l-.28.06c-.05 3.22-.57 6.42-.47 9.65Zm3.05.56c-.71.13-1.5-.19-2.14.57.25.11.37.19.5.21.52.06 1.05.11 1.59.15.06-.19.13-.32.13-.45s-.05-.27-.08-.49ZM406.49 75.39c0 1.19.05 2.27-.01 3.34-.05.95-.35 1.82-1.34 2.27-.26.12-.46.38-.71.51-.68.36-1.35 1-2.16.56-.8-.43-.5-1.31-.5-2.01 0-2.05.09-4.11.11-6.16.01-1.28.55-2.08 1.78-2.55 2.27-.86 2.6-.67 2.7 1.8.03.78.1 1.56.14 2.23Zm-1.5 3.3c.57-2.11.32-5.23-.39-5.87-.2 2.49-.08 4.86.39 5.87ZM409.86 73.82c-.06-.89-.17-1.86-.18-2.84-.02-1.41 2-3.17 3.38-2.92.33.06.67.37.88.66.18.26.22.64.23.98.04 1.71.09 3.42.07 5.14a3.56 3.56 0 0 1-3.44 3.5c-.72.03-.92-.44-.93-1.04v-3.47Zm2.98 1.35c.36-1.44.06-4.37-.48-5.33-.22 1.22.02 4.4.48 5.33Zm.25.97-.09-.3-1.87.58.1.31 1.87-.6ZM349.82 332.21v4.24c0 .44-.09.88-.19 1.3-.23.97-.46 1.09-1.43.95-.72-.1-1.45-.11-2.17-.17-1.07-.09-1.35-.38-1.45-1.45-.21-2.23-.44-4.47-.6-6.7-.07-.97-.12-1.98.08-2.92.44-2.05 1.3-2.2 2.79-1.78l1.7.46c1.22.34 1.48.67 1.51 1.97.02 1.37 0 2.73 0 4.1h-.22Zm-1.26-4.25-3.35-.95.47 6.16c.6-.28 1.17-.84 1.6-.17.19.3.21.9.04 1.21-.4.73-.99.15-1.65-.09l.35 2.82h2.29l.25-8.98ZM344.37 321.19l3.06-2.25c1.6-1.17 2.32-2.6 1.44-4.56a2.08 2.08 0 0 1 .34-2.34 8.21 8.21 0 0 1 5.14-2.76c-.4.23-.82.44-1.21.68-.87.54-1.77 1.04-2.59 1.64-1.33.98-1.44 1.41-.98 3 .61 2.09.25 3.27-1.46 4.64a8.95 8.95 0 0 1-3.74 1.95ZM358.16 322.72c-.86 1.18-2 1.75-3.33 2.41 1.46-1.79 2.19-2.33 3.33-2.41ZM335.94 330.45v4.99c0 .48-.08.98-.19 1.45-.23 1-.55 1.2-1.54 1.07l-2.33-.3c-.96-.12-1.2-.32-1.27-1.27-.05-.68-.02-1.37-.01-2.05l.02-9.38-.01-.58c-.1-1.46.29-1.92 1.69-1.74.96.12 1.89.46 2.82.74.88.26 1.2.89 1.14 1.8-.11 1.76-.18 3.51-.26 5.27h-.05Zm-3.79 5.55 2.24.36v-11.28l-2.58-.83c-.31 1 0 10.3.35 11.75ZM330.99 342.87c.48-.58.91-1.22 1.47-1.72a54.65 54.65 0 0 1 3.69-3.11c1.23-.93 2.35-1.9 2.86-3.42.07-.2.25-.36.58-.8a4.9 4.9 0 0 1-1.05 2.95 7.28 7.28 0 0 1-1.4 1.48c-1.96 1.6-3.96 3.17-5.94 4.75l-.21-.13ZM407.11 54.72c1.74-.42 4.47.25 5.53 1.27-1.09.46-3.83-.13-5.53-1.27ZM404.46 32.97c.64 0 1.1.49 1.06 1.12a1.2 1.2 0 0 1-1.27 1.13c-.58-.05-1.02-.35-1.1-.97-.07-.63.63-1.29 1.31-1.28ZM220.48 372.53c.42 1.26-.07 1.78-1.38 1.6.07-.82.61-1.21 1.38-1.6ZM222.43 372.74c-.11-.12-.21-.2-.27-.31-.08-.16-.12-.34-.19-.54q.53.09.46.85ZM457.59 205.38a21.9 21.9 0 0 1-1.69 7.79c-.09.22-.21.46-.39.61-.16.13-.46.25-.62.18-.17-.07-.28-.36-.33-.58-.04-.17.05-.38.1-.57a37.84 37.84 0 0 1 2.93-7.44ZM169.87 134.93c-1.03 2.13-2.86 3.38-4.36 3.12.19-.84 1.56-1.84 4.36-3.12ZM166.33 140.33c.2.93-.16 1.54-.73 1.99-.2.16-.58.09-.87.12.04-.26 0-.6.14-.76.45-.49.97-.91 1.46-1.35ZM252.94 271.66c-.12 3.47-.8 6.13-2.53 8.45a7.99 7.99 0 0 1-2.98 2.55 4.87 4.87 0 0 1-6.09-1.3 8.58 8.58 0 0 1-1.99-5.4c-.05-1.26.02-2.55.29-3.78.33-1.52.91-2.98 1.38-4.46.04-.14.13-.26.2-.39 1.43-2.61 3.88-4.16 6.25-3.8 2.85.43 4.21 2.48 4.95 5 .35 1.2.42 2.49.53 3.14Zm-2.4.54c-.17-1.01-.25-2.04-.54-3.01-.43-1.43-1.1-2.81-2.76-3.12-1.63-.31-2.83.62-3.76 1.81-2.32 2.96-3.06 6.27-1.87 9.91.49 1.49 1.25 2.84 2.97 3.11 1.73.27 2.86-.8 3.76-2.07a12.32 12.32 0 0 0 2.2-6.62ZM255.88 271.19c.15 1.7.17 3.42.48 5.08.29 1.55 1.17 2.79 2.86 3.21.95.24 1.33.13 1.84-.71a10.82 10.82 0 0 0 1.65-5.41c.05-1.52.07-3.03.11-4.55 0-.34-.07-.72.06-1.01.14-.31.44-.68.74-.76.51-.13.84.27.89.75.42 3.69.95 7.41-.58 10.99a9.06 9.06 0 0 1-1.31 2.11c-.93 1.16-2.19 1.39-3.58.98-2.15-.63-3.44-2.09-4.16-4.18-.73-2.12-.82-4.31-.8-6.52 0-1.07.13-2.15.22-3.22.02-.29.04-.62.19-.84.2-.29.54-.49.81-.72.23.28.64.55.65.84.07 1.31.03 2.64.03 3.96l-.11.01ZM414.17 16.37a5.71 5.71 0 0 1 2.26-3.53c-.26 1.48-1.26 2.51-2.26 3.53ZM398.07 10.41c0-.95.14-1.77.72-2.52.48.91.37 1.31-.72 2.52Z" class="cls-4"/>
    <path d="m109.42 286.61-2.13-13.12 1.74.38c.16 1.6.3 3.15.47 4.7l.72 6.69c.06.6-.09 1.05-.8 1.36ZM113.36 287.26q-.52.44-2.88.27c-.16-.4-.08-.66.41-.61.83.09 1.65.22 2.47.34ZM51.66 281.05c-.64-2.35-.57-4.56-.71-6.73-.13-2.13-.11-4.26-.15-6.51l.88.1c-.27 3.9.35 7.65.62 11.43q.05.83-.64 1.7ZM54.85 281.77l-2.42-.18c.71-.9.84-.9 2.42.18ZM59.94 281.28c-.22-4.24-.45-8.47-.66-12.71 0-.09.06-.18.1-.28.46-.15.75-.03.78.5l.29 4.67c.1 1.7.09 3.43.35 5.11a3.05 3.05 0 0 1-.85 2.71ZM61.09 281.9l.5-.99 1.75.17q-.18.98-2.25.82ZM155.76 280.35v9.51l-.25.11c-.15-.22-.43-.45-.43-.67-.02-2.28.02-4.57.02-6.85 0-.38-.07-.77-.15-1.15-.12-.55.12-.81.82-.96ZM154.28 292.7l-.25-1.32 1.58-1.02c.4 1.47.34 1.58-1.33 2.34ZM177.22 271.34c.09.54.22 1.01.23 1.49.1 2.48.17 4.97.25 7.46.02.58-.11 1.02-.71 1.29-.52.23-.98.6-1.62 1.01l-.11-1.25 1.9-.82-.44-5.02c-.09-1.02-.17-2.04-.32-3.05-.08-.57-.02-.96.81-1.11ZM307.95 269.35l.48-10.91c.72 1.11.34 2.02.34 2.89 0 .93-.07 1.86-.1 2.79s.04 1.88-.1 2.79c-.13.84.48 1.78-.19 2.54l-.43-.09ZM309.09 270.45q.47-.73 2.43-.08l-.11 1.18-2.32-1.1ZM331.38 143.87v-11.66c.8 1.11 1.02 6.79.57 10.61-.05.39-.26.75-.4 1.13a1.22 1.22 0 0 0-.17-.07ZM334.53 144.24c-.82.86-1.42.34-2.02 0h2.02ZM316.23 141.23l.4-11.69.23-.07c.11.2.33.42.31.6a51.64 51.64 0 0 0-.04 9.79c.04.6.09 1.19-.89 1.37ZM319.04 142.89l-1.49-.56v-.3c.41-.05.82-.13 1.23-.12.07 0 .12.44.25.97ZM314.73 173.73c.66 1.72.67 3.5.58 5.3a44.54 44.54 0 0 0-.07 3.65c.03.67-.16 1.09-.99 1.5l.47-10.45ZM317.76 186.45l-2.88-1.29c.78-1.29 1.88-.52 3.05-.62l-.17 1.91ZM326.96 221.24c.08.15.21.31.22.46.1 1.56.21 3.11.25 4.67.04 1.75-.01 3.5 0 5.25 0 .66-.15 1.06-.9.91v-11.25l.42-.04ZM329.36 233.84l-3.06-.37c1.32-.66 2.19-.15 3.1.05l-.03.32ZM326.38 261.62c.54.06.85.21.82.82-.11 2.78-.18 5.57-.25 8.35-.01.57-.18 1.03-.84 1.35l.27-10.52ZM327.06 272.69h2.97l-.35 1.39-2.68-1.07.05-.32ZM311.38 230.18l.38-11.58.3-.07c.13.19.34.38.36.59.06.58.07 1.17.06 1.76-.02 2.35-.01 4.69-.11 7.03-.03.8.17 1.76-.62 2.36l-.37-.08ZM311.9 230.9l2.22.3c-.44.72-.78.68-2.22-.3ZM327.6 187.62l.25-10.18c.54-.03.74.22.74.7l.04 8.48c0 .66-.34.96-1.04 1.01ZM331.5 188.51l-.36 1.31-2.99-1.12c1.14-1.04 2.17-.07 3.35-.19ZM352 146.2l.3-10.21.24-.05c.09.22.25.44.24.65-.07 2.05-.18 4.1-.24 6.15-.03 1.15 0 2.31 0 3.47H352ZM353.29 146.86h1.98c.11.48.07.84-.49.74-.51-.09-1-.3-1.5-.46l.01-.29ZM347.13 235.02l.36-10.22c.3.34.55.49.55.64 0 2.93-.03 5.86-.09 8.78 0 .31-.29.6-.44.91l-.38-.1ZM350.54 236q-.42.83-2.38.1.55-.46 2.38-.1ZM344.97 265.66l-.82 9.29c0 .03-.17.04-.42.1 0-.39-.01-.76 0-1.12l.36-7.47c.03-.56 0-1.13.88-.79ZM344.38 276.37c.76-.69 1.42-.62 2.07-.46.09.02.09.4.17.75l-2.24-.3ZM345.23 191.36c-.09-3.36.36-6.7.36-10.38.42.4.71.54.7.66-.2 3.2-.43 6.41-.65 9.61 0 .04-.05.08-.08.12l-.33-.02ZM348.08 192.27h-2.77c.86-.88 1.73-.95 2.7-1.04l.07 1.04ZM366.84 147.95v-9.69l.89.09a40.3 40.3 0 0 1-.89 9.6ZM370.16 147.91l-.12 1.34-2.26-.54c.6-.99 1.52-.54 2.39-.8ZM362.04 227.36c.86-.08 1.08.28 1.04.87l-.18 2.64c-.07 1.41-.13 2.83-.18 4.24-.02.63.07 1.29-.79 1.79-.14-3.23.08-6.35.1-9.54ZM365.25 238.41l-2.08-.65 2.03-.4.05 1.05ZM365.02 279.16c-.38-3.4.43-6.68.31-9.98.72-.22.86.1.84.64-.07 1.41-.12 2.82-.2 4.24-.08 1.31-.18 2.62-.28 3.93-.03.4.11.9-.66 1.17ZM367.96 279.83h-2.33q1.21-.58 2.33 0ZM366.39 194.46c-.1-3.23.42-6.43.47-9.65l.28-.06c.13.21.38.43.38.65-.03 2.59-.07 5.18-.16 7.76-.02.48-.32.95-.48 1.43l-.48-.13ZM369.43 195.03c.04.21.09.36.08.49 0 .13-.07.27-.13.45-.54-.05-1.07-.09-1.59-.15-.13-.02-.25-.1-.5-.21.64-.77 1.43-.45 2.14-.58ZM404.99 78.69c-.47-1.01-.6-3.38-.39-5.87.71.64.96 3.77.39 5.87ZM412.84 75.17c-.46-.93-.7-4.12-.48-5.33.54.96.84 3.89.48 5.33ZM413.1 76.14l-1.87.6-.1-.31 1.87-.58.09.3ZM348.56 327.95l-.25 8.98h-2.29l-.35-2.82c.66.23 1.25.82 1.65.09.17-.31.15-.91-.04-1.21-.44-.67-1.01-.1-1.6.17l-.47-6.16 3.35.95Zm-2.04 3.95c.75 0 1.24-.51 1.26-1.06a.92.92 0 0 0-.99-1c-.53.04-1.07.58-.92 1.09.11.4.48.72.65.97ZM332.15 336.01c-.34-1.45-.66-10.75-.35-11.75l2.58.83v11.28l-2.24-.36Zm.77-7.89c-.55.09-.76.48-.75 1.02.01.55.3.93.88.92.52 0 .77-.35.8-.84.04-.56-.42-1.11-.93-1.1Zm1.33 4.58c-.5-.44-.76-.8-1.1-.93-.42-.15-.94.38-.95.87-.01.51.28.93.75.87.38-.05.72-.43 1.3-.82ZM250.54 272.2a12.4 12.4 0 0 1-2.2 6.62c-.91 1.27-2.03 2.35-3.76 2.07-1.72-.27-2.48-1.62-2.97-3.11-1.19-3.63-.45-6.95 1.87-9.91.93-1.19 2.13-2.11 3.76-1.81 1.66.31 2.33 1.69 2.76 3.12.29.97.37 2 .54 3.01Z" class="cls-1"/>
    <path d="M346.52 331.91c-.17-.24-.54-.57-.65-.96-.14-.52.39-1.05.92-1.09.57-.04 1.02.4.99 1-.03.55-.51 1.06-1.26 1.06ZM332.92 328.12c.51-.01.97.54.93 1.1-.03.49-.29.83-.8.84-.58 0-.86-.37-.88-.92-.01-.54.19-.94.75-1.02ZM334.25 332.7c-.58.38-.92.77-1.3.82-.47.06-.77-.36-.75-.87.01-.49.54-1.02.95-.87.34.13.6.49 1.1.93Z" class="cls-4"/>
  </g>
</svg>