<svg xmlns="http://www.w3.org/2000/svg" id="membre-foyer" viewBox="0 0 500 500">
  <defs>
    <style>
      .cls-1{fill:#fff}.cls-2{fill:#71a52e}.cls-3{fill:#030f40}
    </style>
  </defs>
  <path id="secondary-color" fill="#f9bc13" d="M487.47 323.76c.1 11.26.44 22.52-.37 33.76-.96 13.42-2.87 26.68-6.88 39.59-7.32 23.56-21.6 42.02-41.14 56.68-11.53 8.65-24.33 14.93-37.67 20.22a197.9 197.9 0 0 1-49.61 12.36 695.31 695.31 0 0 1-44.22 3.7c-19.8 1.12-39.57 2.53-59.28 4.7-16.62 1.83-33.26 3.49-49.96 4.39-9.32.51-18.64.7-27.95-.16a84.57 84.57 0 0 1-20.57-4.3c-10.94-3.87-19.92-10.53-27.49-19.24-6.27-7.21-11.45-15.17-16.09-23.51a293.61 293.61 0 0 1-13.68-28.58 1553.52 1553.52 0 0 0-30.53-67.64c-5-10.42-9.88-20.91-13.79-31.81-2.84-7.93-4.95-16.03-5.79-24.44-1.21-12.19.27-24.07 3.94-35.71 4.52-14.3 11.53-27.36 20.07-39.61 11.43-16.39 25.26-30.52 40.87-42.95 12.33-9.81 25.45-18.47 38.86-26.7 4.45-2.73 8.95-5.38 13.38-8.14a40.24 40.24 0 0 0 4.81-3.51 282.93 282.93 0 0 1 18.28-14.46c7.59-5.52 15.15-11.08 22.7-16.66 6.12-4.51 11.8-9.53 17.07-15a256.84 256.84 0 0 0 17.82-20.33c4.44-5.7 9.29-11.04 14.54-15.99 10.01-9.45 21.73-15.69 35.39-17.93a75.01 75.01 0 0 1 24.88.24c8.4 1.45 16.7 3.34 24.72 6.29a178.97 178.97 0 0 1 22.3 9.92c6.24 3.31 11.71 7.74 17.42 11.83 11.46 8.21 20.44 18.62 27.37 30.87 5.39 9.54 10 19.45 14.6 29.38a9757.91 9757.91 0 0 0 15.28 32.79 320.28 320.28 0 0 0 11.46 21.78c5.34 9.4 10.66 18.83 15.77 28.36 7.04 13.13 12.85 26.78 16.53 41.27a169.02 169.02 0 0 1 4.65 29.81c.92 12.89 1.54 25.81 2.28 38.72Z" opacity=".1" style="isolation:isolate"/>
  <g id="primary-color">
    <path d="M227.18 205.88c-1.04 2.25-1.91 4.1-2.75 5.96-.62 1.36-1.29 2.7-1.77 4.11-.33.97-.41 2.04-.5 3.07-.07.75.44 1.11 1.15 1.19 1.1.13 2.14-.09 2.98-.8.99-.84 1.99-1.71 2.78-2.72 1.72-2.2 3.31-4.5 4.97-6.76.17-.23.38-.43.75-.84.41.9.76 1.61 1.06 2.34 1.52 3.74 2.99 7.5 4.56 11.23a24.62 24.62 0 0 0 4.04 6.89c.78.88 1.65 1.69 2.57 2.42.8.65 1.73 1.02 2.57 0q1.77 2.09 2.95 2.56c.83-.6.55-1.48.41-2.21-.59-3.05-1.22-6.09-1.93-9.11-.58-2.47-1.3-4.9-1.69-7.46.27.58.52 1.17.8 1.73 1.49 3 2.98 6.01 4.52 8.98.32.62.73 1.56 1.62 1.19.88-.37.44-1.29.32-2-.1-.61-.22-1.22-.35-1.91 1.79-.69 1.92-2.07 1.52-3.67-.46-1.8-.9-3.6-1.09-5.51.26.44.64.84.75 1.32.57 2.51 2.37 4.19 4.04 5.9a26.82 26.82 0 0 0 15.88 7.93c5.93.85 11.63.38 17.04-2.47a21.15 21.15 0 0 0 8.59-8.31c1.19-2.05 1.57-4.31 1.83-6.6.23-2.08-.52-2.77-2.84-2.67l-.96-2.01 16.16.96c.16.19.28.28.31.39l3.99 11.43c2.11 6.09 2.11 12.31 1.2 18.61-.51 3.5-.99 7.02-1.29 10.55-.65 7.68.73 15.11 3.05 22.4.89 2.78 1.66 5.6 2.5 8.4.24.78.25 1.48.05 2.33-2.11 8.93-6.54 16.74-11.66 24.2-.79 1.15-1.09 2.07.06 3.24-1.89 2.21-3.64 4.45-5.75 6.37-.83.75-1.65 1.52-2.53 2.2-.53.4-1.14.74-1.77.94-1.86.59-1.91.6-2.03 2.65-.76.41-1.58.84-2.39 1.3-.65.37-1.3.74-1.91 1.16-.56.39-1.18.84-1.01 1.64.21.94 1.08.97 1.8.99 2.25.08 4.46-.19 6.61-.9.58-.19 1.16-.4 2.02-.7-.21.56-.28.95-.48 1.26-1.12 1.65-2.22 3.3-3.42 4.89a6.6 6.6 0 0 1-1.68 1.42c-4.1 2.7-8.37 5.13-12.06 8.43-4.51 4.03-8.77 8.27-12.36 13.16-.91 1.25-1.87 2.45-3.01 3.93-.43-1.6-.42-2.84.42-3.91 1.46-1.85 2.89-3.74 4.54-5.41a47.99 47.99 0 0 0 7.28-9.17c.59-.99 1.22-2.02.97-3.35-1.02-.39-1.91-.06-2.73.31-3.68 1.66-7.42 3.18-10.81 5.43-2.47 1.63-5.16 2.72-8.2 2.67a6.3 6.3 0 0 1-4.61-1.98c-4.35-4.29-8.16-9.03-12.04-13.73a176.26 176.26 0 0 0-17.76-18.59c-1.33-1.2-2.03-2.48-1.84-4.21.42-3.89.81-7.79 1.34-11.66.97-7.08 2.1-14.14 3.04-21.23.27-2.01.14-4.09.1-6.14-.01-.69-.32-1.37-.5-2.05h-.41c-.15.35-.44.69-.44 1.04 0 4.41-1.43 8.57-2.11 12.86-1.24 7.73-2.6 15.45-3.8 23.18-.28 1.83-.2 3.72-.23 5.58a5.96 5.96 0 0 0 1.97 4.46c3.6 3.61 7.2 7.22 10.68 10.94 4.92 5.26 9.74 10.63 14.6 15.96.28.31.51.66.77 1.01-6.51 3.03-10.94 8.18-14.91 13.79-1.02 1.45-1.76 3.11-2.68 4.77-3.37-2.39-7.23-3.79-10.9-5.57a54.66 54.66 0 0 1-5.63-3.28c-4.82-3.08-9.77-5.99-14.01-9.87-3.98-3.65-8.07-7.21-11.23-11.66-3.17-4.46-5.76-9.23-6.41-14.72a69.29 69.29 0 0 1-.31-11.16c.22-4.96.76-9.91 1.24-14.86.8-8.17 2.06-16.28 4.1-24.24 1.46-5.72 3.29-11.35 4.58-17.1 2-8.87 5.28-17.23 9.41-25.26a82.63 82.63 0 0 1 5.51-8.85c2.48-3.59 6.12-5.56 10.24-6.71.69-.2 1.44-.17 2.53-.28ZM296.36 384.57c.66-.53 1.35-1.04 1.99-1.6 1.08-.94 2.07-1.95 2.46-3.42.12-.44.5-.83.8-1.21.34-.44.76-.82 1.09-1.27.43-.57.65-1.23.26-1.91-.41-.71-1.12-.69-1.82-.59-.42.06-.83.16-1.29.25.06-.18.06-.34.14-.41 3.57-3.88 7.09-7.82 10.73-11.63a19.03 19.03 0 0 1 13.19-6.07l4.93-.24c-.11 1.34-.24 2.49-.29 3.65-.14 3.1-.32 6.21-.34 9.31-.02 2.95-1.29 4.97-4.03 6.05-3.7 1.45-7.38 2.94-11.1 4.3-3.14 1.15-6.36 2.11-9.52 3.22a25.72 25.72 0 0 1-7.2 1.56ZM229.38 359.03c11.27 5.09 19.91 12.84 27.64 22.22-.66-.14-1.05-.21-1.43-.3l-7.4-1.89c-.84-.22-1.72-.35-2.51-.68a54.12 54.12 0 0 1-11.94-6.81 7.77 7.77 0 0 1-3.13-5.3c-.34-2.32-.78-4.62-1.23-7.25Z" class="cls-2"/>
  </g>
  <g id="invariable">
    <path d="m327.38 437.1-39.9.42c-.24-2.2-.4-4.24-.68-6.25-.59-4.18-1.2-8.36-1.9-12.53a10.2 10.2 0 0 0-1.05-2.76c-1.01-2.05-4.43-2.63-5.97-.45a13.07 13.07 0 0 0-1.85 3.6 59.95 59.95 0 0 0-2.31 14.89c-.05 1.11 0 2.22 0 3.54-4.54.36-8.86.21-13.18.28-4.41.08-8.83.18-13.24.22-4.34.04-8.69 0-13.17 0-.05-.53-.14-1.07-.14-1.62-.12-10.38-.47-20.77.22-31.14.37-5.58.87-11.16 1.25-16.74.21-2.98.29-5.96.44-8.94.07-1.44-.24-2.69-1.45-3.64-1.12-.87-2.13-1.9-3.29-2.71a7.62 7.62 0 0 1-2.63-3.51c-.97-2.35-1-4.85-1.38-7.3a3.43 3.43 0 0 1-.05-.56c0-1.84-.71-3.04-2.37-4.18-5.01-3.45-9.79-7.22-14.67-10.86-1.37-1.02-2.75-2.01-4.34-3.17-.04.64-.12.99-.09 1.33.35 3.27.77 6.54 1.06 9.82.17 1.91.1 3.85.25 5.77.25 3.28.31 6.6.93 9.81 2.61 13.74 2.38 27.58 1.9 41.45-.24 6.84-.6 13.66-.92 20.49-.08 1.74-.3 3.47-.36 5.21-.03.83-.39 1.32-1.11 1.5-1.02.26-2.06.53-3.1.58-4.47.2-8.94.39-13.41.45-6.65.1-13.3.16-19.95.12-2.4-.02-4.85.1-7.36-.86-.15-1.85-.4-3.75-.46-5.66-.23-6.85-1.4-13.59-2.11-20.39-.39-3.77-.57-7.56-.98-11.33a230.3 230.3 0 0 0-1.59-12c-.44-2.65-1.13-3.61-2.74-4.94-.18.32-.39.63-.54.95-2.35 5.32-4.06 10.8-4.5 16.65-.56 7.5-1.71 14.93-2.72 22.38-.59 4.37-.96 8.77-1.4 13.16-.22 2.28-.47 2.65-2.78 2.86-2.54.23-5.08.41-7.63.47-6.71.14-13.42.2-20.14.29-3.04.04-6.09.09-9.14.09-1.3 0-2.62-.01-3.82-.84-.28-3.75-.67-7.53-.83-11.31-.47-11.12-1.01-22.24-1.21-33.36-.11-5.96.28-11.93.65-17.88.44-7.07 1.09-14.13 1.7-21.19.1-1.2-.1-2.04-1.15-2.86-2.23-1.74-2.54-3.37-1.66-6.1.73-2.24 1.42-4.5 2.05-6.77a123.63 123.63 0 0 1 6.12-16.6l.47-1.04c-7.03-5.49-13.97-11.03-21.04-16.39A53.88 53.88 0 0 1 77.3 296.3c-1.69-2.3-3.45-4.56-4.99-6.95-.64-1-.89-2.27-1.17-3.46-1.18-4.89-1.54-9.81-.44-14.78.41-1.85 1.05-3.6 2.19-5.1 1.87-2.48 3.74-4.97 5.76-7.32 9.3-10.77 18.66-21.5 28-32.24.16-.18.29-.39.51-.68-.73-1.14-1.32-2.4-2.22-3.38-1.81-1.98-2.12-4.28-1.86-6.77.11-.99.23-1.98.41-2.96.61-3.28.51-6.55-.02-9.84-.2-1.23-.36-2.46-.52-3.69a24.89 24.89 0 0 1 3.6-16.63 96.67 96.67 0 0 1 6.17-8.86c2.41-3.08 5.11-5.93 7.61-8.95a180.1 180.1 0 0 0 5.36-6.93c1.73-2.3 3.19-4.72 3.74-7.63.22-1.15.67-2.27 1.16-3.34 4.54-9.84 10.9-18.2 19.87-24.44 5.75-4.01 12.19-6.11 19.12-6.76 1.97-.19 3.96-.12 5.94-.22 1.05-.05 2.14-.07 3.14-.36 5.07-1.46 10.1-.94 15.12.17a75.38 75.38 0 0 1 13.66 4.35c7.2 3.11 12.87 7.93 16.7 14.82l3.87 7.02a13.9 13.9 0 0 0 4.21 4.9c1.12.78 2.1 1.75 3.11 2.67a8.75 8.75 0 0 1 2.89 8.25 12.3 12.3 0 0 0 .86 7.29c.39.84.88 1.63 1.3 2.46.93 1.82 2.06 3.57 2.72 5.49 1.54 4.45.48 8.55-2.27 12.53a16.47 16.47 0 0 1 .84 9.35c7.17.77 11.14 5.09 13.17 11.97.39-.62.69-.97.85-1.38a29.64 29.64 0 0 0 1.83-10.78c0-8.24-.73-16.39-3.45-24.26-.49-1.41-.79-2.87-1.2-4.31-.18-.65-.41-1.28-.67-2.07-.41.18-.67.28-.92.41-2.81 1.45-5.65 1.05-7.84-1.2a8.84 8.84 0 0 1-1.64-2.25 21.3 21.3 0 0 1-2.09-11.22c.06-.74.21-1.5.51-2.17.42-.92.38-1.69.02-2.64-.46-1.2-.76-2.5-.89-3.79-1.31-13.63 3.28-25.13 12.58-34.96 4.67-4.94 10.3-8.39 16.53-10.9a29.34 29.34 0 0 1 17.02-1.47c10.81 2.14 19.01 8.02 25.4 16.9 5.3 7.37 8.01 15.56 8.61 24.46.45 6.69.49 13.42.45 20.13a39.52 39.52 0 0 1-3.62 15.71c-1.82 4.13-4.78 7.4-8.07 10.38a33.02 33.02 0 0 1-8.17 5.5c-.33.15-.64.36-1.09.61.5 6.15.34 12.36 1.47 18.6h16.32c-.1-1.34-.17-2.68-.3-4.02-.32-3.37-.09-6.69.48-10.03 1.32-7.8 3.28-15.43 5.8-22.93a22.64 22.64 0 0 1 5.05-8.61 7.22 7.22 0 0 0 1.73-3.04c.22-.71.53-1.39.75-2.11 1.25-4.08 4.1-6.62 7.97-8.01a23.08 23.08 0 0 1 5.8-1.29c9.01-.74 17.74.33 25.91 4.51a33.68 33.68 0 0 1 9.9 7.5c1.45 1.62 2.85 3.29 4.31 4.9 3.5 3.88 7.04 7.71 10.51 11.61 2.6 2.93 5.16 5.89 7.62 8.93a22.01 22.01 0 0 1 4.67 11.8c.83 7.66-.45 15.01-3.27 22.1-1.84 4.63-5.07 8.37-8.37 12.03l-1.14 1.24c6.02 9.68 10.41 19.88 12.78 30.92.44 2.06.71 4.16.97 6.26.11.86.33 1.48 1.11 1.99 3.55 2.32 6.3 5.49 8.61 8.94 6.12 9.14 6.17 19.14-.15 28.66a30.67 30.67 0 0 1-6.06 6.8c-.69.57-.98 1.2-1.22 2.1a18.07 18.07 0 0 1-2.09 4.74 23.1 23.1 0 0 0-3.03 6.93 36.25 36.25 0 0 1-7.43 14.68 19.87 19.87 0 0 1-5.44 4.78 75.08 75.08 0 0 1-13.32 6.22c-4.12 1.4-8.43 1.55-12.7 1.75-8.13.38-16.27.62-24.4.87-3.1.1-6.2.06-9.43.1-.16.76-.35 1.34-.4 1.93-.41 4.4-.82 8.79-1.16 13.19-.17 2.34-.46 4.57-2.26 6.33-.35.34-.49 1-.53 1.52-.25 3.16-.62 6.32-.63 9.49-.08 15.48-.06 30.96-.08 46.44v2.31ZM227.36 205.7c-1.08.11-1.84.08-2.53.27-4.12 1.15-7.77 3.12-10.24 6.71a80.12 80.12 0 0 0-5.51 8.85 105.38 105.38 0 0 0-9.41 25.26c-1.3 5.75-3.12 11.38-4.58 17.1a160.42 160.42 0 0 0-4.1 24.24c-.49 4.95-1.02 9.9-1.24 14.86-.16 3.71-.12 7.48.31 11.16.65 5.49 3.23 10.26 6.41 14.72 3.16 4.45 7.26 8.01 11.23 11.66 4.23 3.88 9.19 6.8 14.01 9.87a54.66 54.66 0 0 0 5.63 3.28c3.67 1.78 7.53 3.17 10.9 5.57.92-1.66 1.66-3.31 2.68-4.77 3.96-5.61 8.39-10.76 14.91-13.79-.27-.35-.5-.7-.77-1.01-4.86-5.33-9.68-10.69-14.6-15.96-3.48-3.72-7.08-7.33-10.68-10.94a5.93 5.93 0 0 1-1.97-4.46c.04-1.86-.05-3.75.23-5.58 1.21-7.74 2.57-15.45 3.8-23.18.69-4.29 2.12-8.45 2.11-12.86 0-.35.29-.69.44-1.04h.41c.17.68.49 1.36.5 2.05.04 2.05.17 4.12-.1 6.14-.94 7.08-2.07 14.15-3.04 21.23-.53 3.88-.92 7.77-1.34 11.66-.19 1.74.51 3.01 1.84 4.21a176.21 176.21 0 0 1 17.76 18.59c3.89 4.7 7.69 9.44 12.04 13.73a6.33 6.33 0 0 0 4.61 1.98c3.04.05 5.74-1.04 8.2-2.67 3.39-2.25 7.14-3.77 10.81-5.43.82-.37 1.72-.7 2.73-.31.25 1.32-.38 2.35-.97 3.35a47.68 47.68 0 0 1-7.28 9.17c-1.65 1.67-3.08 3.56-4.54 5.41-.84 1.06-.86 2.31-.42 3.91 1.13-1.48 2.09-2.69 3.01-3.93 3.59-4.89 7.85-9.13 12.36-13.16 3.69-3.29 7.96-5.73 12.06-8.43a6.6 6.6 0 0 0 1.68-1.42c1.2-1.58 2.31-3.24 3.42-4.89.21-.3.27-.7.48-1.26-.86.3-1.44.51-2.02.7-2.15.72-4.36.99-6.61.9-.72-.03-1.59-.06-1.8-.99-.17-.79.44-1.25 1.01-1.64.61-.42 1.26-.79 1.91-1.16.8-.45 1.62-.88 2.39-1.3.12-2.05.16-2.06 2.03-2.65a5.9 5.9 0 0 0 1.77-.94c.89-.68 1.71-1.44 2.53-2.2 2.11-1.92 3.87-4.16 5.75-6.37-1.15-1.17-.86-2.08-.06-3.24 5.11-7.47 9.54-15.27 11.66-24.2.2-.85.18-1.55-.05-2.33-.85-2.79-1.62-5.61-2.5-8.4-2.32-7.29-3.7-14.72-3.05-22.4.3-3.53.78-7.04 1.29-10.55.91-6.29.91-12.52-1.2-18.61-1.32-3.81-2.65-7.63-3.99-11.43-.04-.11-.15-.19-.31-.39l-16.16-.96.96 2.01c2.32-.1 3.07.59 2.84 2.67-.26 2.29-.64 4.56-1.83 6.6a21.21 21.21 0 0 1-8.59 8.31c-5.41 2.86-11.11 3.32-17.04 2.47a26.82 26.82 0 0 1-15.88-7.93c-1.67-1.71-3.47-3.39-4.04-5.9-.11-.47-.49-.88-.75-1.32.18 1.91.63 3.71 1.09 5.51.41 1.59.28 2.98-1.52 3.67.13.69.26 1.3.35 1.91.11.71.55 1.63-.32 2-.89.38-1.3-.57-1.62-1.19-1.54-2.97-3.02-5.98-4.52-8.98-.28-.57-.53-1.16-.8-1.73.39 2.56 1.11 4.99 1.69 7.46.71 3.02 1.34 6.07 1.93 9.11.14.74.43 1.61-.41 2.21q-1.18-.46-2.95-2.56c-.84 1.02-1.76.64-2.57 0a22.64 22.64 0 0 1-2.57-2.42c-1.79-2.03-3-4.42-4.04-6.89-1.56-3.73-3.03-7.49-4.56-11.23-.3-.73-.65-1.44-1.06-2.34-.37.41-.58.61-.75.84-1.65 2.25-3.24 4.56-4.97 6.76a19.87 19.87 0 0 1-2.78 2.72 3.8 3.8 0 0 1-2.98.8c-.71-.08-1.22-.44-1.15-1.19.09-1.03.17-2.1.5-3.07.48-1.41 1.15-2.75 1.77-4.11l2.75-5.95Zm140.54 48.86c1.38-4.78 2.52-7.27 5.15-10.58a49.39 49.39 0 0 1 14.47-12.45 35.54 35.54 0 0 0 11.3-10.38 25.22 25.22 0 0 0 4.31-10.04 45.24 45.24 0 0 0 .11-16.69 19.72 19.72 0 0 0-3.96-9.14 377.97 377.97 0 0 0-7.52-9.02c-2.3-2.69-4.72-5.28-7.01-7.99a258.05 258.05 0 0 1-6.44-7.98c-3.74-4.8-8.56-8.06-14.21-10.18a36.6 36.6 0 0 0-8.88-2.05c-5.04-.56-10.04-.62-14.96.94-4.68 1.49-7.88 4.39-8.99 9.29a7.4 7.4 0 0 1-1.83 3.61c-1.95 2.03-3.04 4.51-3.9 7.13a205.55 205.55 0 0 0-5.95 22.52c-1.36 6.51-.77 12.85 1.25 19.09.71 2.18 1.69 4.28 2.62 6.38 2.7 6.14 3.36 12.58 2.61 19.17-.48 4.2-1.3 8.36-1.73 12.55-.64 6.16-.37 12.28 1.49 18.27 1.3 4.21 2.38 8.5 3.61 12.73a38.3 38.3 0 0 1 1.12 16.42c-.21 1.39-.34 2.79-.5 4.21 2.05.64 3.89.28 5.71-.08 1.95-.38 3.86-.95 5.82-1.31a4.4 4.4 0 0 0 2.56-1.36c2.2-2.36 4.5-4.65 6.62-7.08 5.39-6.21 10.39-12.7 14.1-20.1a23.5 23.5 0 0 0 2.47-7.19c.17-1.22.54-2.43.93-3.6.34-1.05.28-1.9-.6-2.67-.4-.35-.74-.85-.96-1.34-1.23-2.77-2.42-5.57-3.62-8.35a2.06 2.06 0 0 1-.12-.35c-1.05-4.69-1.89-9.39-1.31-14.22.18-1.53.41-3.05.62-4.57-.22-.03-.36-.1-.45-.06-4.2 1.82-8.27 1.14-12.26-.68-4.39-1.99-7.88-5.17-11.18-8.57a27.9 27.9 0 0 1-6.74-10.84 352.34 352.34 0 0 1-4.14-13.54c-1.1-3.98-1.19-8.09-1.36-12.2a34.56 34.56 0 0 1 3.95-17.43c.19-.38.47-.74.78-1.03.14-.13.55-.21.66-.11.19.17.37.53.32.76-.12.47-.42.9-.61 1.35-.74 1.78-1.64 3.51-2.15 5.35a44.48 44.48 0 0 0 .78 26.07c.96 2.95 2.08 5.86 3.21 8.75 1.06 2.72 2.2 5.42 4.03 7.75a47.19 47.19 0 0 0 8.78 8.57c4.57 3.46 9.63 5.04 15.38 4.21 1.18-.17 1.86-.57 2.31-1.72a20.65 20.65 0 0 1 6.33-8.62 78.54 78.54 0 0 0 4.37-3.79 29.35 29.35 0 0 0 3.07-3.24c3.07-3.97 3.67-8.17 1.05-12.66a3.78 3.78 0 0 0-1.99-1.77 28.85 28.85 0 0 1-12.69-9.48 88.68 88.68 0 0 0-17-17.18c-3.08-2.36-6.4-4.28-10.4-4.65-.42-.04-.83-.22-1.25-.33 3.25-.14 8.27 1.29 11.58 3.12 6.91 3.83 13.05 8.61 18.1 14.75a52.36 52.36 0 0 0 4.08 4.35 26.12 26.12 0 0 0 15.5 7.47c2.37.26 4.75.42 7.26.64-3.06 3.7-7.24 2.74-11.19 2.75 2.73 5.88 1.95 10.44-2.53 15.07-.78.8-1.69 1.47-2.5 2.23-1.94 1.83-3.99 3.57-5.77 5.55a19.19 19.19 0 0 0-4.72 9.58c-.56 3.14-.65 6.3-.25 9.47.38 2.96.82 5.91 1.02 8.89.18 2.62 1.23 4.89 2.27 7.62Zm-128.26-72.13c.19-.29.33-.43.38-.59 1.26-4.18.94-8.22-1.13-12.1-.88-1.65-1.7-3.31-2.55-4.98a9.83 9.83 0 0 1-.81-7.08c.91-3.45.04-6.01-2.92-8.06-3.6-2.47-6.2-5.87-8.36-9.64a128.01 128.01 0 0 0-4.44-7.12 28.79 28.79 0 0 0-11.94-10.14 74.75 74.75 0 0 0-22.23-6.67 7.15 7.15 0 0 0-3.98.55 15.52 15.52 0 0 1-9.82 1.22 8.2 8.2 0 0 0-2.96-.12c-7.32 1.17-13.95 3.9-19.71 8.68-6.73 5.59-11.23 12.71-14.53 20.69-.76 1.84-1.38 3.73-2.17 5.56a40.13 40.13 0 0 1-6.93 10.98 407.16 407.16 0 0 0-10.73 12.4 44.38 44.38 0 0 0-6.93 11.44 20.7 20.7 0 0 0-1.45 10.05 46 46 0 0 0 .49 3.69c.89 4.83.98 9.64-.11 14.45a4.65 4.65 0 0 0 .6 3.75c.77 1.18 1.63 2.3 2.52 3.55.58-.48 1.01-.81 1.42-1.17 1.72-1.51 3.32-3.21 5.19-4.51a39.23 39.23 0 0 1 6.92-3.95 23.4 23.4 0 0 1 6.65-1.69c3.26-.35 6.57-.28 9.86-.38 2.7-.09 5.3-.65 7.77-1.76 2.03-.92 3.81-2.21 4.73-4.3.79-1.8 1.33-3.7 1.98-5.56-1.27 1.38-2.21 2.9-3.22 4.38-1.03 1.5-2.19 2.89-3.85 3.75.16-.5.46-.88.71-1.29 1.69-2.82 3.52-5.57 4.99-8.5a15.22 15.22 0 0 0 1.26-9.64c-.59-3.3-1.21-6.59-1.7-9.9-1.29-8.69 1.03-16.38 6.63-23.1a100.1 100.1 0 0 1 4.37-4.85c1.84-1.94 3.76-3.8 5.6-5.74a46.32 46.32 0 0 0 7.39-10.03c1.02-1.89 1.77-3.85 1.33-6.07-.05-.27.08-.57.13-.93 1.94.2 1.65 2.02 2.38 2.98.08.03.14.08.19.08l1.3-.05c2.84-.13 5.42.6 7.68 2.33a52.7 52.7 0 0 1 2.3 1.9c2.98 2.56 5.04 5.81 6.84 9.24a30.62 30.62 0 0 0 7.69 9.5 15.83 15.83 0 0 0 12.32 3.7c3-.33 5.98-.87 8.97-1.32-.87 1.42-2.3 2.3-3.84 2.92-4.54 1.85-9.19 1.83-13.94.52-.04.35-.11.58-.09.82.57 6.25-.02 12.4-1.4 18.51-1.2 5.31-3.13 10.18-7.14 14.08a29.99 29.99 0 0 1-15.51 7.98c-1.57.31-3.15.53-4.77.8-.15 1.12-.29 2.1-.41 3.08a26.75 26.75 0 0 0 1.15 12.33c.34.95.86 1.6 1.73 2.06 2.89 1.54 6 2.07 9.21 1.7 3.19-.36 6.32-.2 9.45.43 1.98.4 2.93-.16 3.96-1.86 1.76-2.92 3.54-5.84 5.48-8.65a18.6 18.6 0 0 1 6-5.5 17.84 17.84 0 0 0 3.3-2.42c4.41-4.22 9.71-6.6 15.6-7.84.71-.15 1.43-.25 2.29-.39.12-1.02.3-1.93.33-2.85.09-3.14-.9-5.99-2.42-8.69-1.49-2.65-3.05-5.28-4.45-7.98-.8-1.54-1.35-3.2-1.97-4.82-.1-.27.03-.63.06-.95l.39-.15c1.75 1.98 2.9 4.39 4.39 6.55 1.49 2.2 2.96 4.42 4.49 6.7ZM107.83 358.2c-2.58 27.12-3.65 53.94-1.4 80.93l36.65-.56c.37-2.96.67-5.72 1.06-8.48.55-3.94 1.34-7.85 1.71-11.8.53-5.69.92-11.39 1.83-17.04.91-5.72 1.86-11.41 4.06-16.8.32-.8.71-1.6 1.2-2.3.72-1.02 1.75-1.46 3.06-1.45 1.91.02 3.09 1.08 4.09 2.52 1.86 2.7 2.58 5.79 2.86 8.96.62 7 1.09 14.01 1.61 21.01.17 2.29.23 4.6.52 6.88.55 4.25 1.23 8.48 1.85 12.73.23 1.58.41 3.18.63 4.89 4.09 0 8.06.04 12.02-.02 2.36-.03 4.71-.28 7.07-.34 5.28-.13 10.56-.2 15.85-.31.78-.02 1.56-.14 2.33-.21.09-.5.18-.8.2-1.1.24-4.41.61-8.81.68-13.22.29-16.23-.06-32.45-1.37-48.64-.12-1.48-.39-2.95-.63-4.42l-2.01-11.94c-.1-.58-.23-1.17-.39-2l-1.05 1.11a24.74 24.74 0 0 1-7.63 5.88c-9.05 4.57-18.62 7.38-28.76 7.76-11.29.43-22.46-.57-33.44-3.47-6.44-1.7-12.84-3.45-18.77-6.6-1.15-.61-2.31-1.19-3.83-1.97Zm160.64-177.06.29-.43c.38.17.76.33 1.13.51 3.05 1.53 6.08 3.12 9.17 4.57a16.13 16.13 0 0 0 8.18 1.35c4.49-.32 8.68-1.6 12.57-3.79 7.53-4.22 13.22-10.03 15.72-18.56a36.7 36.7 0 0 0 1.73-10.83c-.11-6.96-.23-13.93-.73-20.87-.51-7.04-2.5-13.66-7.08-19.31a13.81 13.81 0 0 0-5.67-4.35c-3.03-1.21-6.18-.43-7.52 3.2-1.47 3.98-4.07 5.43-8.3 4.91-2.36-.29-4.59-1-6.81-1.85-2.3-.89-4.69-1.8-7.12-2.07-6.06-.66-12.06 3.79-14.02 8.63a19.87 19.87 0 0 0-1.51 5.17c-.35 3.2-.42 6.44-.48 9.66-.05 3.41.21 6.84.04 10.24-.1 2.02-.6 4.07-1.25 5.99-.78 2.33-2.64 2.86-4.78 1.63a8.06 8.06 0 0 1-3.33-3.91c-.42-.97-.73-1.99-1.18-2.94-.42-.89-.88-1.79-1.48-2.57-.79-1.03-1.61-1.1-2.52-.17a5.41 5.41 0 0 0-1.46 2.32 16.39 16.39 0 0 0-.42 4.41c.13 2.77.91 5.4 2.52 7.69 1.47 2.09 3.31 2.6 5.7 1.72l.87-.34c.69-.27 1.22-.1 1.88.31a6.37 6.37 0 0 1 2.47 3.17 73.54 73.54 0 0 1 5.51 30.97c-.13 4.15-.92 8.16-3.64 11.54a1.6 1.6 0 0 0-.2 1.35c2.06 5.23 4.89 9.88 9.72 13.11 4.85 3.24 10.22 4.31 15.92 4.45a20.7 20.7 0 0 0 11.54-3.11c3.96-2.41 6.5-5.87 7.29-10.59-1.95-1.74-2.84-4.03-3.26-6.53-.26-1.53-.5-3.08-.54-4.62-.13-4.16-.16-8.33-.23-12.49 0-.27-.07-.54-.12-.9-5.18 1.58-10.28 2.97-15.51 1.56-5.17-1.39-9.72-3.98-13.09-8.24Zm-92.82-32.41c-.11 1.09-.8 1.05-1.4 1.15-1.53.26-3.07.48-4.58.82-.63.14-1.31.45-1.75.9-2.18 2.22-4.36 4.44-6.38 6.79a25.06 25.06 0 0 0-5.96 12.86 45.22 45.22 0 0 0 .91 17.04c1.29 5.42.85 10.56-.79 15.77-1.46 4.63-4.54 7.43-9.07 8.83-.63.19-1.26.41-2.18.7 1.66 3.19 3.01 6.34 4.84 9.19a316.57 316.57 0 0 0 10.26 14.88 63.8 63.8 0 0 0 9.94 10.83c.74.64 1.53 1.21 2.24 1.77 6.91-4.48 14.51-19.54 14.88-27.86-.04-.04-.07-.11-.12-.13-.45-.19-.93-.36-1.37-.58-3.39-1.67-5.92-3.99-6.57-7.98a23.7 23.7 0 0 1-.1-7.23l.66-4.64h-1.93c-3.58-.04-7.06-.56-10.3-2.18-.73-.37-1.64-.63-1.83-1.62.54-.76 1.14-.37 1.72-.25 1.64.36 3.26.84 4.91 1.03 7.9.89 15.49-.06 22.57-3.92a22.15 22.15 0 0 0 11.2-14.21c2-7.27 2.56-14.67 2.1-22.31a27.82 27.82 0 0 1-8.69-7.61c-.17-.23-.47-.4-.74-.52-1.31-.55-2.64-1.05-3.94-1.62-.29-.13-.48-.47-.72-.71.31-.25.6-.67.93-.71.69-.09 1.41.03 2.36.08-.98-1.95-1.82-3.74-2.76-5.48a26 26 0 0 0-6.55-7.57c-1.99-1.64-4.35-2.16-6.95-2.32-.61 6.95-4.98 11.54-9.28 16.37 1.6.29 3.07-.36 4.42.45Zm119.04 191.49c-1.46 1.31-2.98 2.59-4.4 3.97-4.63 4.52-9.29 8.99-13.07 14.29-1.97 2.76-2 3.21-.17 6.11l.3.47a46.45 46.45 0 0 0 7.69 8.34 10.17 10.17 0 0 0 6.3 2.45c.81.03 1.62 0 2.42.1 1.27.14 2.25-.06 2.93-1.34.36-.68 1.14-1.13 1.71-1.69 2.3-2.27 4.57-4.56 6.88-6.81 2.49-2.43 4.94-4.9 7.55-7.19a15.57 15.57 0 0 1 9.32-3.86c3.27-.24 6.54-.52 9.81-.62 4.91-.15 9.81-.31 14.72-.22 7.21.14 14.4.08 21.55-1.1 4-.66 7.98-1.32 11.71-2.95 3.36-1.47 6.67-3.03 9.97-4.63.82-.4 1.63-.95 2.24-1.62 1.85-2.01 3.67-4.05 5.39-6.18a33.06 33.06 0 0 0 4.42-7.68c-.29.03-.5.12-.65.27-4.05 3.99-9.12 5.4-14.6 5.68-7.14.36-13.95-1-20.49-3.91a22.5 22.5 0 0 1-10.5-9.41l-.99-1.66-1.85 1.07c-4.09 2.35-8.18 4.7-12.29 7.03-1.48.84-3.04 1.41-4.65.65-1.19 1.03-2.23 2.01-3.35 2.9a93.93 93.93 0 0 1-14.02 9.18 47.36 47.36 0 0 1-7.73 3.17 9.4 9.4 0 0 1-4.4.34 8.14 8.14 0 0 0-2.87 0c-.31.05-.64.07-1.26.14 1.33-2.68 3.97-3.48 5.97-5.32-3.09.64-5.87 1.24-8.67 1.77-.66.13-1.36.02-2.21.02l1.02-1.4q-2.33.55-3.76-.34Zm-36.01 3.09c-6.69 2.77-15.77 12.74-16.8 18.43.15.14.31.34.51.47 6.48 4.12 11.61 9.71 16.63 15.4a67.32 67.32 0 0 0 14.88 12.89c.9.56 2.05.9 3.12 1.01 2.97.3 5.11-1.92 7.75-2.67-2.21-.1-4.39.57-6.69-.11.58-1.19 1.56-1.29 2.42-1.54 3.22-.95 6.45-1.85 9.66-2.8.6-.17 1.15-.49 2.05-.89-.55-.08-.68-.13-.79-.11-4.84.93-9.07-.67-13.07-3.17a5.57 5.57 0 0 1-1.4-1.2c-.17-.22-.15-.73-.02-1.01.09-.18.55-.31.81-.27.48.08.95.28 1.4.47 1.37.58 2.71 1.27 4.11 1.77 5.3 1.93 10.25 1.11 14.87-2.02.31-.21.54-.55 1.08-1.11l-2.78.3c-1.73.18-3.45.39-5.18.53-2.59.22-4.89-.61-7.04-1.98a32.73 32.73 0 0 1-8.77-8.27c-3.89-5.26-3.43-10.79-.72-16.32.61-1.26 1.65-2.33 2.61-3.38 2.13-2.34 4.34-4.62 6.51-6.93.26-.28.45-.61.67-.92-.68.11-1.16.36-1.6.69-1.94 1.45-3.91 2.86-5.79 4.4a16.14 16.14 0 0 1-7.01 3.33c-3.78.79-7.17-.05-9.87-2.95-.58-.62-1.04-1.36-1.54-2.03ZM93.95 275.7c-.91.15-1.73.18-2.48.43a40.2 40.2 0 0 0-4.16 1.61 36.45 36.45 0 0 0-12 9c-.56.64-.93 1.2-.42 2.13 3.03 5.5 6.57 10.56 11.88 14.15l5.71 3.88a95.72 95.72 0 0 1 15.79 13.32 16.91 16.91 0 0 0 4.75 3.56c3.98 1.99 7.87 1.53 11.72-.23l-.04-.39-4.74.91-.12-.4 6.55-2.79c-2.52.07-4.87 1.37-7.84.84 2.36-1.87 4.94-2.35 7.35-3.19s4.84-1.59 7.28-2.32c2.46-.74 4.94-1.39 7.41-2.08a23.8 23.8 0 0 0-4.96-.26 37.8 37.8 0 0 1-10.91-1.08c-3.67-.92-4.99-3.44-3.89-7.1.12-.41.26-.82.45-1.41-.95-.09-1.79-.16-2.63-.25-1.48-.14-3.03-.04-4.42-.47-7.29-2.29-12.35-6.9-14.74-14.33-1.06-3.31-2.41-6.53-3.69-9.76-.49-1.26-1.18-2.44-1.83-3.75Zm2.19.41c2.22 3.36 3.71 6.91 5.05 10.52a62.28 62.28 0 0 0 2.09 4.98 14.4 14.4 0 0 0 6.09 6.61c1.84 1.03 3.65 2.12 5.54 3.07.74.37 1.64.5 2.48.58 1.52.14 3.05.15 4.84.23 1.65-3.09 4.05-6.01 6.6-8.81.72-.79.86-1.76.9-2.77.18-5.7-.61-11.28-2.21-16.74-.91-3.1-1.94-6.16-3.06-9.19a26.7 26.7 0 0 1-1.8-9.46c0-.15-.14-.3-.25-.53-9.22 6.63-18.83 12.64-26.28 21.52Zm292.02 51.99c1.81.08 2.88-.68 3.86-1.51 6-5.04 12.04-10.02 17.93-15.18a29.55 29.55 0 0 0 8.96-14.58c.58-2.06.79-4.16.47-6.28-1.03-6.89-4.01-12.73-9.4-17.26-.36-.3-.76-.54-1.28-.9-.1.5-.3.87-.19 1.07.62 1.1 1.3 2.17 1.97 3.25-.38.79-1.03.67-1.57.36-.85-.49-1.75-1-2.41-1.7-1.31-1.41-2.47-2.95-3.69-4.44-1.19-1.43-2.37-2.88-3.6-4.28-.42-.48-.97-.83-1.47-1.25l-.34.28a35.42 35.42 0 0 0 3.52 7.28c.53.83 1.04 1.7 1.4 2.61a44.18 44.18 0 0 1 1.7 4.93c.38 1.43.71 2.92.68 4.39-.05 2.16-.38 4.32-.7 6.47a10.99 10.99 0 0 1-3.98 6.98c-1.77 1.47-3.65 2.8-5.52 4.13-3.55 2.51-7.17 4.93-10.7 7.47-1.81 1.31-3.5 2.79-5.23 4.21-.38.31-.75.66-1.07 1.03-.44.49-.75 1.08-.31 1.68.5.68 1.2.51 1.85.18.39-.19.76-.43 1.11-.69 4.16-3.15 8.34-6.27 12.46-9.48a56.55 56.55 0 0 1 10.77-6.64c.51-.24 1.09-.34 1.65-.5l.27.43c-.51.56-.95 1.22-1.55 1.68-3.02 2.29-6.02 4.61-9.14 6.76-5.58 3.85-11.24 7.57-16.84 11.37a21.7 21.7 0 0 0-2.74 2.23c-.29.28-.53 1.11-.36 1.28.32.33.93.48 1.43.5.4.01.83-.24 1.2-.45.76-.43 1.51-.88 2.22-1.37 5.37-3.71 10.69-7.5 16.1-11.14 2.94-1.97 6.02-3.73 9.06-5.54.6-.36 1.24-.8 2.26-.56-.3.35-.44.62-.66.76-3.54 2.19-7.06 4.4-10.64 6.53a13.4 13.4 0 0 0-3.89 3.31c.65-.21 1-.28 1.32-.42l9.05-3.94c1.42-.62 2.84-1.26 4.28-1.83.32-.13.74-.02 1.12-.02l.14.35c-.74.52-1.48 1.02-2.2 1.57a7.6 7.6 0 0 0-1.17 1.1c-.42.51-.68 1.17-1.17 1.59-2.67 2.33-5.4 4.59-8.08 6.91-1.55 1.34-3.11 2.68-4.55 4.14-.84.84-1.44 1.93-2.33 3.16Zm-91.61 56.28c2.52-.14 4.88-.75 7.2-1.56 3.16-1.12 6.37-2.07 9.52-3.22 3.73-1.36 7.41-2.86 11.1-4.3 2.75-1.07 4.01-3.1 4.03-6.05.03-3.1.21-6.21.34-9.31.05-1.16.18-2.32.29-3.65l-4.93.24a19 19 0 0 0-13.19 6.07c-3.65 3.81-7.17 7.74-10.73 11.63-.08.08-.08.23-.14.41.45-.09.87-.19 1.29-.25.69-.1 1.4-.13 1.82.59.39.68.17 1.33-.26 1.91-.34.44-.75.83-1.09 1.27-.3.38-.68.77-.8 1.21-.39 1.47-1.38 2.48-2.46 3.42-.64.55-1.32 1.07-1.98 1.6Zm21.79-44.55c5.97-3.51 11.82-6.77 16.98-10.99-.66-3.16-5.86-11.71-8.23-13.55-3.63 2.3-7.7 3.62-11.92 4.45-2.62.52-5.28.83-7.91 1.25-.38.06-.75.24-1.33.43 3.23 2.33 6.63 2.51 10.03 1.94.71 1.62.78 2.26-.38 3.37a30.03 30.03 0 0 1-4.91 3.95c-3.75 2.32-7.64 4.41-11.45 6.63-.78.45-1.46 1.07-2.18 1.62 1.84.02 3.24-.92 4.77-1.55 1.61-.66 3.2-1.37 4.79-2.08 1.53-.69 3.04-1.42 4.57-2.11 1.51-.68 2.84-1.79 4.61-1.91a8.51 8.51 0 0 1-2.35 2.07c-3.14 1.75-6.34 3.43-9.5 5.15-.53.29-1.2.43-1.71 1.38 1.77-.44 3.22-.75 4.63-1.17 2.56-.76 5.1-1.59 7.65-2.37.59-.18 1.26-.68 1.87.38-2.79 2.99-6.54 4.53-9.93 6.64.97-.18 1.9-.47 2.78-.85 2.51-1.08 5.01-2.19 7.5-3.31.7-.33 1.3-.51 1.63.65Zm-88.71-139.09.56.25c0 .61.02 1.21 0 1.82a16.6 16.6 0 0 1-2.5 7.91c-.97 1.66-1.87 3.36-2.76 5.07-.27.51-.39 1.1-.69 1.97a7.01 7.01 0 0 0 3.37-2.51c1.69-2.14 3.33-4.33 5.01-6.49.7-.91 1.28-2.04 2.75-1.87 1.89 2.52 3.13 5.36 4.42 8.19 1.47 3.22 2.91 6.46 4.48 9.62.76 1.53 1.8 2.91 2.71 4.36l.37-.19c-.14-.51-.26-1.03-.43-1.53-.81-2.48-1.78-4.92-2.42-7.44-.87-3.36-1.52-6.78-2.2-10.18-.15-.74-.28-1.6.82-2.31.27.64.56 1.16.69 1.71.23.9.36 1.83.52 2.75a59.37 59.37 0 0 0 5.67 17.09c.34.64.71 1.27 1.06 1.9.21-.41.18-.71.11-1-.72-2.96-1.52-5.89-2.16-8.87-.79-3.7-1.47-7.42-2.14-11.15-.12-.66-.45-1.46.34-2.01.93.73.88.75 1.38 1.88 1.85 4.2 3.73 8.39 5.61 12.59.07.16.22.28.34.41-.1-1.15-.41-2.15-.73-3.15-.86-2.72-1.74-5.44-2.58-8.17-.24-.79-.48-1.64.23-2.71.38.58.71.93.86 1.35.35.93.63 1.88.91 2.84.75 2.5 1.46 5.01 2.23 7.5.18.58.2 1.36 1.32 1.6-.11-.99-.09-1.86-.31-2.66-1.3-4.66-2.63-9.32-4-13.96a12.33 12.33 0 0 0-3.62-5.77 8.94 8.94 0 0 0-6.96-2.48c-5.88.42-11.29 2.27-16.46 4.97-.43.22-.81.52-1.41.92 1.23-.1 2.21-.18 3.18-.24.65-.04 1.17-.17 1.45-.91.17-.43.66-.74.99-1.1Zm-.05 158.11c.45 2.62.89 4.93 1.23 7.25a7.77 7.77 0 0 0 3.13 5.3 53.9 53.9 0 0 0 11.94 6.81c.79.33 1.67.46 2.51.68 2.46.63 4.93 1.27 7.4 1.89.38.1.77.16 1.43.3-7.73-9.38-16.38-17.13-27.64-22.22Zm13.01 31.88-.26.56c.47.44.91.91 1.41 1.3a63.43 63.43 0 0 0 11.1 6.81c3.39 1.7 6.75 3.45 10.14 5.15 1 .5 2.03.94 3.08 1.33.37.14.97.21 1.22.01 1.48-1.25 3.1-2.38 4.17-4.13-6.37-1.46-9.91-3.89-13.33-9.21-2.84-.08-5.82 0-8.77-.31-2.95-.3-5.84-1-8.76-1.52Zm113.72-72.7.39.41c.77-.57 1.62-1.06 2.31-1.72 5.67-5.49 11.44-10.88 16.89-16.57 3.25-3.4 6-7.28 8.94-10.96.38-.48.96-.99.67-1.8-.92-.13-1.28.55-1.7 1.03-2.19 2.46-4.27 5.02-6.54 7.4-6.45 6.73-12.97 13.38-19.46 20.06-.62.64-1.42 1.18-1.49 2.17Zm-94.98 67.18c-.39 1.61.36 2.34 1.1 3.05a69.98 69.98 0 0 0 10.1 7.89 15.2 15.2 0 0 0 6.21 2.37c.48.07 1.25-.03 1.49-.35a36.88 36.88 0 0 0 3.43-5.42c-2.36.96-4.74 1.09-7.15 1.3-1.64.15-3.12.05-4.44-.87-3.05-2.12-6.04-4.32-9.04-6.51-.49-.36-.92-.79-1.7-1.47Zm47.06-66.33c4.89-.14 14.76-2.83 16.38-4.42-1.47-.36-3.04-.55-4.46-1.14-1.46-.61-2.76-1.59-3.96-2.32a5729.2 5729.2 0 0 0-7.95 7.88Zm-152-26.39c1.77-.27 3.55-.5 5.31-.83.84-.16 1.67-.45 2.47-.78.64-.26 1.3-.68 1.15-1.49-.16-.92-1.02-1.04-1.75-1.03-.73 0-1.47.16-2.2.33-3.36.78-6.72 1.08-10.13.28-.96-.23-1.96-.31-2.94-.4-.54-.04-1.3-.07-1.3.65 0 .4.59.8.92 1.2.03.04.11.05.17.08 2.66 1.02 5.34 2 8.3 1.99ZM262 390.74c-.83 1.38-.9 1.44.08 2.52a21.73 21.73 0 0 0 12.07 6.8c.24.05.51 0 .74 0-2.3-1.47-4.58-2.8-6.72-4.34-2.14-1.55-4.12-3.32-6.17-4.99Zm48.23-65.79c-.32 1.06-.51 1.91-.84 2.69-.32.76-.8 1.44-1.3 2.3 3.33-1.01 6.08-3.15 6.55-4.99h-4.42Zm-10.06.48c1.45.52 5.86-.09 7.64-1.03l-3.15-1.53-4.49 2.56Zm39.92-23.62c-1.71.46-9.46 7-10.4 8.63 3.9-2.36 6.91-5.8 10.4-8.63Zm-30.77 41.99.07.33 2.76-1.13-.12-.3-2.71 1.1ZM86.49 102.93l-3.32-26.6c-.59-.05-1.08-.18-1.53-.1-3.73.66-7.45 1.34-11.17 2.04-.88.16-1.39.65-1.51 1.61-.44 3.45-1.09 6.88-1.39 10.34-.62 7.37-1.06 14.75-1.6 22.13-.06.8-.22 1.6-.46 2.36-.08.26-.64.63-.82.56-.33-.13-.74-.54-.77-.86-.06-.73.15-1.48.14-2.22-.02-5.43.71-10.79 1.3-16.16.58-5.31 1.19-10.62 1.79-15.93l.17-1.29c.14-1.17.71-1.97 1.9-2.25 2.84-.68 5.65-1.43 8.51-2.03 1.51-.32 3.08-.42 4.63-.56 2.23-.2 2.77.11 3.27 2.33.42 1.87.61 3.8.85 5.71.81 6.4 1.6 12.81 2.42 19.47.6-.33 1.17-.63 1.73-.95 9.15-5.42 18.22-10.96 27.46-16.21 7.62-4.32 15.46-8.25 23.16-12.43 5.57-3.02 11.06-6.19 16.6-9.27 2.88-1.6 5.78-3.15 8.67-4.73 1.37-.75 2.7-.65 4.09.04 14.69 7.3 29.64 14.09 43.98 22.11 6.4 3.58 13 6.8 19.49 10.21.99.52 1.93 1.15 2.79 1.84.31.25.6.94.47 1.23-.14.31-.84.58-1.22.51-1.39-.28-2.83-.55-4.12-1.12-4.21-1.85-8.43-3.7-12.52-5.79-6.92-3.54-13.68-7.38-20.62-10.87-9.72-4.89-19.54-9.56-29.31-14.35a2.05 2.05 0 0 0-2.1.02c-2.5 1.39-5.03 2.72-7.52 4.13-5.03 2.84-9.94 5.92-15.09 8.52a532.17 532.17 0 0 0-35.28 19.41c-10.79 6.53-21.81 12.7-32.55 19.32-10.79 6.65-21.3 13.78-32.06 20.47-7.75 4.82-15.7 9.35-23.63 13.88-2.14 1.22-4.54 2.01-6.81 3-.23.1-.5.25-.7.2-.49-.13-1.1-.25-1.38-.61-.15-.19.17-.89.42-1.26.19-.28.58-.46.91-.62 9.93-4.83 18.91-11.22 28.17-17.16 9.16-5.87 18.24-11.85 27.43-17.68 5.09-3.23 10.32-6.24 15.48-9.35l1.65-1.01ZM33.88 186.07v-16.39c0-1.33.3-1.69 1.58-1.73 3.04-.09 6.08-.15 9.11-.22.56-.01 1.12 0 1.67.08 2 .31 2.84 1.18 2.89 3.23.13 6.09.12 12.17-.48 18.24-.28 2.84-.62 5.68-.88 8.52-.16 1.74-.17 3.49-.42 5.24-.13.91-.48 1.36-1.29 1.53-3.43.71-6.87 1.04-10.35.36-1.51-.3-1.75-.52-1.78-2.1-.12-5.59-.2-11.17-.3-16.76h.26Zm5.88 13.59c3.5.63 4.52.61 6.63-.1.23-1.34.32-2.7.19-4.49l-3.93 2.96c.22-.62.25-1.02.46-1.25.67-.71 1.36-1.45 2.15-2.02 1.08-.78 1.77-1.65 1.79-3.05.04-5.22.15-10.43.22-15.65 0-.07-.15-.14-.31-.29a4.68 4.68 0 0 0-.89 4.67c1.66 5.17-1.34 8.77-4.15 12.44.2-1.03.56-2 1.02-2.93.55-1.11 1.18-2.19 1.77-3.28a6.95 6.95 0 0 0 .38-6.12 5.46 5.46 0 0 1 1.13-6.06c1.08-1.17.9-2.33.76-3.61-.08-.67-.51-1.01-1.13-1.01-2.34-.02-4.67-.01-7.06-.01l.96 29.79Zm-1.96-29.72-2.31-.38c0 10.88-.93 21.57.19 32.28 1.91-.97 1.91-.97 1.96-2.69.06-2.17.15-4.34.15-6.52.02-7.51 0-15.01 0-22.7Zm-1.43 33.17c3.2.43 6.08.23 8.96-.18.47-.06.99-.25.74-.86-1.66-.08-3.29.08-4.81-.28-1.82-.43-3.25-.06-4.88 1.32ZM68.46 180.83l-1.05 20.85c-.02.5-.08 1-.19 1.47-.19.82-.57 1.39-1.57 1.03a1.25 1.25 0 0 0-.71-.08c-3.66.94-7.28-.01-10.92-.15-.81-.03-1.31-.45-1.23-1.3.79-7.81-.34-15.64.22-23.46.22-3.04.25-6.09.39-9.13.08-1.73.36-2.18 2.06-2.21 2.42-.03 4.84.13 7.25.31 1.1.09 2.19.43 3.28.65 1.64.33 2.28 1.05 2.31 2.86.05 3.04.01 6.09.01 9.14h.15Zm-2.85 17.59c.06-3 .58-5.97.46-9.19l-2.41 2.3-.36-.35 2.85-3.69c0-1.59.02-3.39 0-5.18-.03-1.81-.1-3.61-.17-5.8a3.76 3.76 0 0 0-1.15 3.04c.08 2.99-2.06 4.68-3.82 6.61.04-.77.23-1.47.58-2.08.44-.75 1.07-1.38 1.51-2.12.33-.56.75-1.26.68-1.85-.25-2.21.54-3.99 1.9-5.64.79-.97.5-2.18.17-3.2-.13-.4-1.1-.55-1.71-.76-.59-.19-1.19-.35-1.8-.45-1.38-.22-2.76-.5-4.29-.19 1.4 9.34.87 18.64.9 28.07l6.66.49Zm-11.62 3.1c1-.93 1.86-1.8 2.79-2.58.72-.6 1.13-1.3 1.15-2.22.06-2.85.24-5.7.14-8.55-.14-4.28-.49-8.55-.74-12.83l-.33-5.75h-2l-1.02 31.92Zm1.83.77 9.63.43.12-2.19c-.88.11-1.54.24-2.21.25-1.29.02-2.64.19-3.86-.12-1.58-.4-2.62 0-3.68 1.62ZM73.16 68.3c-.45-5.51-.88-10.97.12-16.39.3-1.63.89-3.24 1.56-4.76a14.74 14.74 0 0 0 1.3-6.89 40.06 40.06 0 0 1-.06-4.1c.21-4.58 2.35-7.89 6.6-9.75a13.76 13.76 0 0 1 5.78-1.25c1.56.03 2.26.71 2.39 2.26.04.43 0 .87-.05 1.3-.34 2.84-.68 5.68-1.04 8.51a24.05 24.05 0 0 1-3.88 10.59 24.6 24.6 0 0 0-4.21 11.79c-.15 1.66-.59 3.3-1.09 4.9a6.97 6.97 0 0 1-1.49 2.53c-1.57 1.75-3.37 2.1-5.93 1.26Zm1.1-1.54c2.87-1.14 3.69-2.01 4.32-4.61.32-1.33.64-2.67.79-4.02a22.35 22.35 0 0 1 3.44-9.95 37.68 37.68 0 0 0 5.48-14.55c.29-1.78.68-3.54.97-5.32.29-1.74-.08-2.11-1.87-1.96-.62.05-1.23.17-1.83.32-4.93 1.2-8.97 5.01-8.87 10.93.01.87 0 1.74.06 2.61a16.5 16.5 0 0 1-1.18 7.11c-.61 1.62-1.1 3.3-1.41 5-.87 4.77-.23 9.53.1 14.45ZM99.62 10.79c-.1.32-.24 1.07-.56 1.72a17.12 17.12 0 0 1-4.95 5.94c-.25.19-.51.36-.78.51-1.35.76-2.44.76-3.28.03a3.02 3.02 0 0 1-.69-3.43c1.19-2.36 2.27-4.86 4.56-6.43a8.03 8.03 0 0 1 2.83-1.27c1.7-.35 2.87.78 2.87 2.93Zm-7 5.16c1.9-1.4 3.32-2.97 3.95-5.2-1.97.56-3.22 2.04-4.64 3.2l.69 2Z" class="cls-3"/>
    <path d="M74.49 82.67c-1.78 0-2.65-.62-2.82-1.65-.15-.94.38-1.8 1.56-2.25.92-.36 1.89-.67 2.86-.79.63-.08 1.36.11 1.94.4a1.89 1.89 0 0 1 1.04 2.02c-.1.83-.62 1.39-1.39 1.59-1.19.32-2.42.52-3.19.68ZM107.25.41c.56.73 1.07 1.13 1.19 1.61.15.62-.35 1.04-.99 1.02-.68-.03-1.23-.44-1.16-1.14.04-.42.5-.79.96-1.49Z" class="cls-3"/>
    <path d="M367.9 254.57c-1.04-2.73-2.09-5-2.26-7.62-.19-2.97-.64-5.93-1.02-8.89-.4-3.17-.31-6.34.25-9.47a19.19 19.19 0 0 1 4.72-9.58c1.78-1.98 3.82-3.72 5.77-5.55.81-.77 1.72-1.43 2.5-2.23 4.48-4.63 5.26-9.19 2.53-15.07 3.95 0 8.13.96 11.19-2.75-2.51-.22-4.89-.37-7.26-.64a26 26 0 0 1-15.5-7.47 52.36 52.36 0 0 1-4.08-4.35c-5.05-6.14-11.19-10.92-18.1-14.75-3.31-1.84-8.33-3.26-11.58-3.12.42.11.82.29 1.25.33 4 .37 7.32 2.29 10.4 4.65a88.4 88.4 0 0 1 17 17.18 28.85 28.85 0 0 0 12.69 9.48c.92.37 1.48.91 1.99 1.77 2.62 4.5 2.02 8.69-1.05 12.66a27.63 27.63 0 0 1-3.07 3.24 82.94 82.94 0 0 1-4.37 3.79 20.5 20.5 0 0 0-6.33 8.62c-.45 1.15-1.13 1.55-2.31 1.72-5.76.82-10.81-.75-15.38-4.21a47.82 47.82 0 0 1-8.78-8.57c-1.83-2.33-2.96-5.03-4.03-7.75-1.13-2.89-2.24-5.8-3.21-8.75a44.48 44.48 0 0 1-.78-26.07c.51-1.84 1.41-3.57 2.15-5.35.19-.46.49-.88.61-1.35.06-.22-.13-.58-.32-.76-.11-.1-.52-.03-.66.11-.31.29-.58.65-.78 1.03a34.56 34.56 0 0 0-3.95 17.43c.17 4.11.26 8.23 1.36 12.2 1.26 4.55 2.68 9.05 4.14 13.54a27.93 27.93 0 0 0 6.74 10.84c3.3 3.4 6.79 6.58 11.18 8.57 4 1.81 8.06 2.49 12.26.68.09-.04.23.03.45.06-.21 1.52-.43 3.04-.62 4.57-.57 4.83.26 9.54 1.31 14.22.03.12.07.24.12.35 1.2 2.79 2.39 5.58 3.62 8.35.22.5.55.99.96 1.34.88.77.94 1.62.6 2.67a22.67 22.67 0 0 0-.93 3.6 23.4 23.4 0 0 1-2.47 7.19c-3.71 7.4-8.71 13.89-14.1 20.1-2.12 2.44-4.41 4.72-6.62 7.08a4.3 4.3 0 0 1-2.56 1.36c-1.95.36-3.87.93-5.82 1.31-1.82.36-3.66.71-5.71.08.17-1.41.29-2.82.5-4.21.83-5.56.45-11.02-1.12-16.42-1.23-4.24-2.31-8.52-3.61-12.73-1.85-6-2.13-12.11-1.49-18.27.44-4.2 1.26-8.36 1.73-12.55.75-6.6.09-13.03-2.61-19.17-.93-2.1-1.91-4.2-2.62-6.38-2.03-6.24-2.61-12.59-1.25-19.09a207.83 207.83 0 0 1 5.95-22.52c.86-2.62 1.95-5.1 3.9-7.13a7.4 7.4 0 0 0 1.83-3.61c1.12-4.91 4.31-7.8 8.99-9.29 4.92-1.56 9.92-1.5 14.96-.94 3.04.34 6 .96 8.88 2.05 5.65 2.13 10.47 5.39 14.21 10.18 2.1 2.7 4.24 5.37 6.44 7.98 2.29 2.71 4.71 5.3 7.01 7.99 2.55 2.97 5.07 5.97 7.52 9.02a19.77 19.77 0 0 1 3.96 9.14c.99 5.58.97 11.13-.11 16.69a25.22 25.22 0 0 1-4.31 10.04 35.54 35.54 0 0 1-11.3 10.38A49.54 49.54 0 0 0 373.03 244c-2.63 3.3-3.78 5.8-5.16 10.57Zm-16.23-40.63c.51.03.96.18 1.3.05a12.78 12.78 0 0 0 7.5-7.49c.06-.17.15-.39.1-.54-.11-.34-.31-.66-.61-1.26-.58 1.06-.98 1.81-1.4 2.54-1.17 2.06-3.03 3.38-4.96 4.64-.75.49-1.64.87-1.94 2.05Zm8.41-28.07c-.8 1.44-1.45 2.89-2.35 4.16-.9 1.26-2.05 2.33-3.18 3.59 2.08.48 3.86-.62 5.37-3.07 1.19-1.93 1.29-3.32.16-4.68Zm-11.13 16.42-3.6 1.06c.47-1.29.83-2.19 1.12-3.11.28-.88.82-1.78.12-2.71-.25.09-.44.11-.47.18-.72 1.77-1.47 3.53-2.1 5.33-.33.95.22 1.56 1.28 1.49 1.53-.1 2.86-.65 3.65-2.25Zm-14.67-.99c2.31 2.18 6.87 1.26 7.71-1.47-1.45-.44-2.38.9-3.61 1.04l-4.09.44Zm20.16-20.84c-1.55-1.26-3.32-1.32-4.68-.35-.66.48-1.04 1.04-.34 1.96 1.48-.91 3.38-.44 5.02-1.61Zm-17.16 13.32c-2.62-.66-5.43 1.46-5.24 4l5.24-4Zm25.22 10.03q-1.06-1.49-2.32-1.05c.46.85 1.25.86 2.32 1.05ZM239.63 182.43c-1.53-2.28-3-4.5-4.5-6.69-1.49-2.17-2.64-4.58-4.39-6.55l-.39.15c-.02.32-.16.68-.06.95.62 1.62 1.18 3.28 1.97 4.82 1.4 2.7 2.96 5.32 4.45 7.98 1.52 2.7 2.51 5.55 2.42 8.69-.03.91-.21 1.83-.33 2.85-.85.14-1.57.24-2.29.39-5.89 1.25-11.19 3.62-15.6 7.84-.98.94-2.12 1.73-3.3 2.42a18.61 18.61 0 0 0-6 5.5 165.74 165.74 0 0 0-5.48 8.65c-1.03 1.71-1.98 2.27-3.96 1.86-3.13-.64-6.26-.8-9.45-.43-3.21.36-6.32-.16-9.21-1.7a3.45 3.45 0 0 1-1.73-2.06 26.88 26.88 0 0 1-1.15-12.33c.12-.98.26-1.96.41-3.08 1.61-.27 3.2-.49 4.77-.8a29.91 29.91 0 0 0 15.51-7.98c4.01-3.9 5.94-8.77 7.14-14.08a58.53 58.53 0 0 0 1.4-18.51c-.02-.23.05-.47.09-.82 4.75 1.31 9.4 1.34 13.94-.52 1.54-.63 2.98-1.51 3.84-2.92-2.98.44-5.96.99-8.97 1.32-4.6.51-8.72-.72-12.32-3.7a30.85 30.85 0 0 1-7.69-9.5c-1.8-3.43-3.86-6.68-6.84-9.24a59.4 59.4 0 0 0-2.3-1.9 11.35 11.35 0 0 0-7.68-2.33l-1.3.05c-.05 0-.11-.04-.19-.08-.74-.96-.44-2.78-2.38-2.98-.06.36-.19.66-.13.93.43 2.22-.32 4.17-1.33 6.07-1.98 3.69-4.51 7-7.39 10.03-1.84 1.94-3.76 3.8-5.6 5.74a105.62 105.62 0 0 0-4.37 4.85c-5.59 6.72-7.91 14.41-6.63 23.1.49 3.31 1.11 6.61 1.7 9.9.6 3.35.25 6.64-1.26 9.64-1.47 2.93-3.31 5.68-4.99 8.5-.25.41-.55.79-.71 1.29a10.73 10.73 0 0 0 3.85-3.75c1.01-1.47 1.95-2.99 3.22-4.38-.65 1.86-1.2 3.76-1.98 5.56-.92 2.09-2.7 3.38-4.73 4.3a20.39 20.39 0 0 1-7.77 1.76c-3.29.11-6.6.03-9.86.38-2.26.24-4.56.8-6.65 1.69a38.27 38.27 0 0 0-6.92 3.95c-1.87 1.3-3.47 2.99-5.19 4.51-.41.36-.84.69-1.42 1.17-.89-1.25-1.74-2.37-2.52-3.55a4.7 4.7 0 0 1-.6-3.75c1.09-4.8 1-9.62.11-14.45a41.87 41.87 0 0 1-.49-3.69c-.34-3.47.12-6.82 1.45-10.05a44.49 44.49 0 0 1 6.93-11.44c3.48-4.21 7.08-8.33 10.73-12.4a40.04 40.04 0 0 0 6.93-10.98c.79-1.82 1.41-3.72 2.17-5.56 3.29-7.98 7.79-15.1 14.53-20.69 5.76-4.78 12.39-7.51 19.71-8.68.96-.15 2-.09 2.96.12 3.43.75 6.68.18 9.82-1.22a7.06 7.06 0 0 1 3.98-.55 75.05 75.05 0 0 1 22.23 6.67 28.79 28.79 0 0 1 11.94 10.14c1.55 2.32 3.04 4.69 4.44 7.12 2.17 3.77 4.77 7.17 8.36 9.64 2.97 2.05 3.83 4.61 2.92 8.06a9.83 9.83 0 0 0 .81 7.08c.84 1.66 1.67 3.34 2.55 4.98a15.4 15.4 0 0 1 1.13 12.1c-.04.16-.18.29-.37.58ZM107.82 358.21c1.53.78 2.69 1.36 3.83 1.97 5.93 3.15 12.33 4.9 18.77 6.6a113.96 113.96 0 0 0 33.44 3.47c10.14-.38 19.71-3.19 28.76-7.76a24.74 24.74 0 0 0 7.63-5.88c.27-.31.57-.61 1.05-1.11.16.84.29 1.42.39 2l2.01 11.94c.24 1.47.51 2.94.63 4.42a490.37 490.37 0 0 1 1.37 48.64c-.08 4.41-.44 8.81-.68 13.22-.02.3-.11.6-.2 1.1-.77.07-1.55.2-2.33.21-5.28.11-10.56.18-15.85.31-2.36.06-4.71.3-7.07.34-3.96.06-7.93.02-12.02.02-.22-1.72-.4-3.31-.63-4.89-.61-4.24-1.3-8.48-1.85-12.73-.29-2.28-.35-4.58-.52-6.88-.53-7-1-14.01-1.61-21.01-.28-3.17-1-6.26-2.86-8.96-1-1.45-2.18-2.5-4.09-2.52a3.43 3.43 0 0 0-3.06 1.45c-.5.7-.88 1.5-1.2 2.3-2.2 5.39-3.15 11.09-4.06 16.8-.9 5.65-1.29 11.35-1.83 17.04-.37 3.95-1.16 7.86-1.71 11.8-.39 2.76-.69 5.52-1.06 8.48l-36.65.56c-2.25-26.99-1.18-53.81 1.4-80.94ZM268.46 181.15c3.38 4.26 7.92 6.85 13.1 8.24 5.23 1.41 10.33.02 15.51-1.56.05.36.12.63.12.9.08 4.16.1 8.33.23 12.49.05 1.55.29 3.09.54 4.62.42 2.5 1.31 4.8 3.26 6.53-.79 4.72-3.33 8.18-7.29 10.59a20.73 20.73 0 0 1-11.54 3.11c-5.7-.14-11.07-1.21-15.92-4.45-4.83-3.23-7.66-7.87-9.72-13.11a1.6 1.6 0 0 1 .2-1.35c2.72-3.38 3.51-7.38 3.64-11.54a73.51 73.51 0 0 0-5.51-30.97 6.41 6.41 0 0 0-2.47-3.17c-.66-.42-1.19-.58-1.88-.31l-.87.34c-2.39.89-4.23.38-5.7-1.72a14.3 14.3 0 0 1-2.52-7.69c-.07-1.46.09-2.98.42-4.41.2-.84.83-1.67 1.46-2.32.91-.93 1.72-.86 2.52.17.6.78 1.06 1.68 1.48 2.57.45.95.76 1.97 1.18 2.94a7.95 7.95 0 0 0 3.33 3.91c2.14 1.23 4 .7 4.78-1.63a22.6 22.6 0 0 0 1.25-5.99c.17-3.4-.09-6.83-.04-10.24.05-3.23.13-6.46.48-9.66.19-1.76.84-3.51 1.51-5.17 1.96-4.84 7.96-9.3 14.02-8.63 2.42.27 4.81 1.18 7.12 2.07a28.4 28.4 0 0 0 6.81 1.85c4.23.52 6.82-.93 8.3-4.91 1.34-3.63 4.49-4.42 7.52-3.2 2.32.93 4.09 2.4 5.67 4.35 4.58 5.65 6.57 12.26 7.08 19.31.51 6.94.62 13.91.73 20.87.06 3.68-.68 7.28-1.73 10.83-2.5 8.52-8.19 14.33-15.72 18.56a29.67 29.67 0 0 1-12.57 3.79 16.1 16.1 0 0 1-8.18-1.35c-3.09-1.45-6.12-3.04-9.17-4.57-.37-.18-.75-.34-1.13-.51l-.29.43Zm25.9-39.02-.21.47c2.4 3.69 4.69 7.43 5.71 11.86-1.5 1.02-3.48 1.26-4.7 3.27 1.85-.62 3.34-1.05 4.77-1.61 1.6-.62 1.88-1.15 1.44-2.88a26.72 26.72 0 0 0-4.67-9.87 3.7 3.7 0 0 0-1.07-1.02c-.36-.19-.85-.15-1.28-.22Zm13.78-14.06h-.48c-.86.02-1.64.23-1.9 1.15-.28 1.02.46 1.37 1.23 1.75.82.4 1.58.95 2.37 1.42s1.57 1 2.42 1.34c.95.39 1.82.05 2.27-.68.46-.74.38-1.66-.41-2.34a11.5 11.5 0 0 0-5.51-2.64Zm2.62 17.42c-.07-.6-.13-1.22-.22-1.83-.05-.3-.13-.61-.25-.89-.4-.92-1.15-1.39-2.03-1.29-.85.1-1.68.78-1.64 1.73.05 1.27.32 2.55.68 3.77.22.75.97 1.1 1.8 1 .91-.11 1.41-.7 1.59-1.57.06-.29.04-.61.07-.93Zm-35.15-12.23c-1.79-.02-4.23 1.16-4.93 2.49a2.59 2.59 0 0 0-.16 1.89c.27.74 1.18.81 1.78.5a34.22 34.22 0 0 0 4.57-2.79c.91-.68.47-1.76-.69-2.03-.24-.05-.49-.05-.57-.06Zm3.76 14.83.1-.02c-.17-.72-.26-1.47-.54-2.14-.33-.8-1-1.31-1.91-1.18-.82.11-1.42.7-1.47 1.48-.06 1.03-.01 2.11.25 3.1.29 1.1 1.23 1.68 2.05 1.58.92-.11 1.45-.9 1.52-2.25.01-.19 0-.37 0-.56Zm13.21 20.6c-2.32-.27-4.26-.26-6.05-.77-1.84-.52-3.53-1.56-5.32-2.38.04 1.52.7 2.45 2.56 3.2 2.77 1.12 5.6 1.99 8.82-.04Zm-15.04-1.33c1.09-1.02 1.56-1.76 2.34-3.84.13-.35.03-.79.03-1.19-.45 0-1-.15-1.35.05-1.47.8-1.97 3.2-1.02 4.98Z" class="cls-1"/>
    <path d="M175.64 148.74c-1.34-.8-2.81-.16-4.41-.45 4.3-4.83 8.68-9.41 9.28-16.37 2.6.16 4.96.69 6.95 2.32a26 26 0 0 1 6.55 7.57c.94 1.73 1.79 3.53 2.76 5.48-.95-.04-1.67-.16-2.36-.08-.34.04-.62.47-.93.71.24.24.43.58.72.71 1.3.57 2.63 1.07 3.94 1.62.27.12.56.29.74.52a27.82 27.82 0 0 0 8.69 7.61 68.4 68.4 0 0 1-2.1 22.31 22.15 22.15 0 0 1-11.2 14.21c-7.09 3.86-14.68 4.81-22.57 3.92-1.66-.19-3.27-.68-4.91-1.03-.58-.13-1.18-.51-1.72.25.19.99 1.1 1.26 1.83 1.62 3.24 1.62 6.72 2.13 10.3 2.18h1.93l-.66 4.64a23.7 23.7 0 0 0 .1 7.23c.64 3.99 3.18 6.31 6.57 7.98.44.22.92.38 1.37.58.05.02.08.09.12.13-.38 8.32-7.97 23.38-14.88 27.86-.71-.56-1.51-1.13-2.24-1.77a64.57 64.57 0 0 1-9.94-10.83c-3.54-4.87-7-9.82-10.26-14.88-1.83-2.84-3.18-6-4.84-9.19.92-.29 1.55-.51 2.18-.7 4.53-1.39 7.61-4.2 9.07-8.83 1.64-5.21 2.07-10.35.79-15.77a45.22 45.22 0 0 1-.91-17.04 24.97 24.97 0 0 1 5.96-12.86c2.03-2.35 4.21-4.57 6.38-6.79a3.67 3.67 0 0 1 1.75-.9c1.51-.35 3.05-.56 4.58-.82.59-.1 1.28-.06 1.39-1.15Zm-4.28 28.04c.44 1.23 1.6 1.2 2.39 1.7 4.16 2.61 8.73 2.97 13.44 2.35 1.33-.17 2.64-.62 3.93-1.01.35-.1.62-.46.93-.71-1.47-.52-2.87-.85-4.12-1.49-1.46-.75-2.82-1.29-4.34-.01-.84-1.45-2.01-1.39-3.41-1.15-2.73.48-5.48 1.12-8.25.17-.09-.03-.23.05-.57.15Zm28.21-18.52c.71-.75 1.29-1.31 1.8-1.93.36-.44.69-1.05.09-1.44-.27-.17-.96.03-1.28.28-.75.59-1.41 1.06-2.48.9-1.01-.15-1.64.63-1.77 1.55-.26 1.96-.4 3.94-.55 5.91-.05.69.32 1.33.99 1.36a2.3 2.3 0 0 0 1.56-.66c.36-.36.47-.99.62-1.52.25-.89.44-1.8.64-2.63l2.16-1.11-1.79-.71Zm-30.25-1.14v4.01c-.01.81.17 1.49 1.02 1.79.76.26 1.58-.08 1.96-1 .77-1.86 1.11-3.81.79-5.83-.12-.79-.62-1.52-1.43-1.49-1.09.03-1.87-.52-2.73-.99-.18-.1-.45-.01-.77-.01v1.26l-1.44.97 2.62 1.3Zm15.79 11.41c1.93.7 3.91-.08 4.28-1.49.15-.58.07-1.45-.29-1.87-.86-1.02-1.93-1.88-2.96-2.75-.16-.14-.64-.13-.8 0-.18.15-.32.62-.21.79a13 13 0 0 0 1.4 1.91c.38.43.87.76 1.36 1.17l-2.77 2.24Zm.07 15.41c-1.58-.2-2.91-.23-4.16-.55-1.19-.31-2.3-.93-3.51-1.45.54 2.78 4.83 3.96 7.67 2ZM294.67 340.23q1.42.89 3.75.33l-1.02 1.4c.85 0 1.55.11 2.21-.02 2.8-.53 5.58-1.14 8.67-1.77-2 1.84-4.64 2.65-5.97 5.32.62-.06.94-.09 1.26-.14a8.14 8.14 0 0 1 2.87 0 9.4 9.4 0 0 0 4.4-.34 48.26 48.26 0 0 0 7.73-3.17 93.93 93.93 0 0 0 14.02-9.18c1.12-.89 2.16-1.87 3.35-2.9 1.61.76 3.17.19 4.65-.65 4.11-2.33 8.19-4.68 12.29-7.03l1.85-1.07.99 1.66a22.5 22.5 0 0 0 10.5 9.41 44.28 44.28 0 0 0 20.49 3.91c5.47-.28 10.54-1.69 14.6-5.68.15-.15.36-.24.65-.27a33.27 33.27 0 0 1-4.42 7.68 116.83 116.83 0 0 1-5.39 6.18 7.64 7.64 0 0 1-2.24 1.62c-3.3 1.59-6.62 3.16-9.97 4.63-3.73 1.63-7.71 2.29-11.71 2.95-7.15 1.18-14.33 1.23-21.55 1.1-4.9-.09-9.81.06-14.72.22-3.27.1-6.54.38-9.81.62a15.56 15.56 0 0 0-9.32 3.86c-2.61 2.29-5.06 4.77-7.55 7.19-2.31 2.25-4.59 4.54-6.88 6.81-.57.57-1.35 1.02-1.71 1.69-.68 1.28-1.66 1.49-2.93 1.34-.8-.09-1.61-.06-2.42-.1-2.38-.1-4.48-.9-6.3-2.45a46.45 46.45 0 0 1-7.69-8.34 4.66 4.66 0 0 1-.3-.47c-1.83-2.9-1.8-3.35.17-6.11 3.78-5.29 8.44-9.77 13.07-14.29 1.42-1.38 2.95-2.65 4.41-3.96Z" class="cls-1"/>
    <path d="M258.66 343.32c.5.67.96 1.41 1.54 2.03 2.71 2.9 6.1 3.75 9.87 2.95a16.2 16.2 0 0 0 7.01-3.33c1.87-1.53 3.85-2.95 5.79-4.4.43-.32.91-.58 1.6-.69-.22.31-.41.65-.67.92-2.17 2.31-4.38 4.58-6.51 6.93-.96 1.05-1.99 2.13-2.61 3.38-2.71 5.54-3.17 11.06.72 16.32a32.9 32.9 0 0 0 8.77 8.27c2.16 1.38 4.46 2.2 7.04 1.98 1.73-.14 3.46-.35 5.18-.53l2.78-.3c-.54.56-.77.9-1.08 1.11-4.62 3.13-9.58 3.94-14.87 2.02-1.4-.51-2.73-1.19-4.11-1.77-.45-.19-.92-.39-1.4-.47-.26-.04-.73.09-.81.27-.13.28-.15.79.02 1.01.38.47.88.88 1.4 1.2 4 2.5 8.23 4.11 13.07 3.17.11-.02.24.03.79.11-.9.39-1.45.71-2.05.89-3.22.95-6.45 1.85-9.66 2.8-.86.25-1.84.35-2.42 1.54 2.3.68 4.48 0 6.69.11-2.64.75-4.77 2.97-7.75 2.67a7.4 7.4 0 0 1-3.12-1.01 67.32 67.32 0 0 1-14.88-12.89c-5.02-5.7-10.15-11.29-16.63-15.4-.2-.13-.36-.33-.51-.47 1.03-5.7 10.11-15.66 16.8-18.43ZM93.94 275.71c.65 1.31 1.34 2.49 1.84 3.74 1.29 3.23 2.63 6.45 3.69 9.76 2.38 7.43 7.45 12.04 14.74 14.33 1.39.43 2.94.33 4.42.47l2.63.25-.45 1.41c-1.1 3.66.21 6.17 3.89 7.1 3.57.9 7.21 1.25 10.91 1.08 1.64-.08 3.28-.01 4.96.26-2.47.69-4.95 1.35-7.41 2.08-2.44.73-4.87 1.48-7.28 2.32-2.4.84-4.99 1.31-7.35 3.19 2.98.53 5.32-.77 7.84-.84l-6.55 2.79.12.4 4.74-.91.04.39c-3.85 1.76-7.75 2.23-11.72.23-1.8-.9-3.37-2.09-4.75-3.56a95.31 95.31 0 0 0-15.79-13.32L86.75 303c-5.31-3.59-8.84-8.65-11.88-14.15-.51-.93-.14-1.49.42-2.13a36.35 36.35 0 0 1 16.16-10.61c.74-.24 1.55-.27 2.47-.42Z" class="cls-1"/>
    <path d="M96.13 276.13c7.45-8.88 17.06-14.89 26.27-21.52.11.23.25.38.25.53a26.7 26.7 0 0 0 1.8 9.46c1.13 3.02 2.15 6.09 3.06 9.19a53.25 53.25 0 0 1 2.21 16.74c-.03 1.01-.17 1.98-.9 2.77-2.55 2.8-4.95 5.72-6.6 8.81-1.8-.08-3.33-.09-4.84-.23a7.14 7.14 0 0 1-2.48-.58c-1.88-.94-3.69-2.04-5.54-3.07a14.45 14.45 0 0 1-6.09-6.61 62.28 62.28 0 0 1-2.09-4.98c-1.34-3.61-2.82-7.16-5.05-10.52ZM388.15 328.12c.89-1.23 1.48-2.32 2.32-3.17 1.44-1.46 3-2.8 4.55-4.14 2.68-2.32 5.41-4.58 8.08-6.91.48-.42.75-1.09 1.17-1.59.34-.41.74-.78 1.17-1.1.71-.55 1.46-1.05 2.2-1.57l-.14-.35c-.37 0-.79-.11-1.12.02-1.44.57-2.86 1.21-4.28 1.83l-9.05 3.94c-.32.14-.67.22-1.32.42a13.15 13.15 0 0 1 3.89-3.31c3.57-2.13 7.1-4.34 10.64-6.53.22-.14.37-.41.66-.76-1.02-.24-1.66.21-2.26.56-3.04 1.81-6.12 3.57-9.06 5.54-5.42 3.64-10.73 7.42-16.1 11.14-.71.49-1.46.94-2.22 1.37-.37.21-.8.47-1.2.45-.5-.02-1.11-.17-1.43-.5-.16-.17.07-1 .36-1.28a21 21 0 0 1 2.74-2.23c5.61-3.8 11.27-7.52 16.84-11.37 3.12-2.15 6.12-4.47 9.14-6.76.6-.45 1.04-1.11 1.55-1.68l-.27-.43c-.55.16-1.13.26-1.65.5a57.37 57.37 0 0 0-10.77 6.64c-4.11 3.21-8.3 6.33-12.46 9.48-.35.26-.72.49-1.11.69-.64.32-1.35.5-1.85-.18-.44-.6-.13-1.19.31-1.68.33-.37.69-.71 1.07-1.03 1.73-1.42 3.41-2.9 5.23-4.21 3.53-2.54 7.15-4.96 10.7-7.47 1.88-1.33 3.76-2.66 5.52-4.13a11.07 11.07 0 0 0 3.98-6.98c.32-2.14.65-4.3.7-6.47.03-1.46-.3-2.96-.68-4.39a43.49 43.49 0 0 0-1.7-4.93c-.36-.91-.86-1.79-1.4-2.61a34.66 34.66 0 0 1-3.52-7.28l.34-.28c.5.41 1.05.77 1.47 1.25 1.23 1.4 2.4 2.85 3.6 4.28 1.23 1.48 2.38 3.03 3.69 4.44.66.7 1.56 1.21 2.41 1.7.55.32 1.2.43 1.57-.36-.67-1.08-1.35-2.14-1.97-3.25-.11-.19.09-.56.19-1.07.52.36.93.6 1.28.9 5.38 4.52 8.37 10.36 9.4 17.26a15 15 0 0 1-.47 6.28 29.67 29.67 0 0 1-8.96 14.58c-5.89 5.16-11.93 10.14-17.93 15.18-.98.83-2.04 1.59-3.86 1.52ZM318.33 339.85c-.33-1.16-.93-.97-1.63-.65a416.26 416.26 0 0 1-7.5 3.31c-.89.38-1.81.67-2.78.85 3.39-2.12 7.14-3.65 9.93-6.64-.61-1.06-1.28-.55-1.87-.38-2.55.78-5.09 1.61-7.65 2.37-1.42.42-2.87.73-4.63 1.17.51-.95 1.17-1.09 1.71-1.38 3.17-1.72 6.36-3.39 9.5-5.15a8.35 8.35 0 0 0 2.35-2.07c-1.77.13-3.1 1.23-4.61 1.91-1.53.69-3.04 1.42-4.57 2.11-1.59.71-3.18 1.42-4.79 2.08-1.52.63-2.92 1.57-4.77 1.55.73-.54 1.4-1.17 2.18-1.62 3.81-2.22 7.7-4.31 11.45-6.63 1.78-1.1 3.4-2.49 4.91-3.95 1.15-1.11 1.09-1.74.38-3.37-3.41.56-6.81.38-10.03-1.94.58-.19.95-.37 1.33-.43 2.64-.42 5.3-.74 7.91-1.25 4.22-.83 8.29-2.15 11.92-4.45 2.37 1.84 7.58 10.4 8.23 13.55-5.16 4.22-11.01 7.49-16.98 10.99ZM229.61 200.75c-.34.36-.82.67-.99 1.1-.28.74-.8.87-1.45.91-.98.06-1.95.15-3.18.24.6-.39.99-.69 1.41-.92 5.17-2.7 10.57-4.56 16.46-4.97 2.77-.19 4.98.7 6.96 2.48a12.33 12.33 0 0 1 3.62 5.77c1.37 4.65 2.7 9.3 4 13.96.22.8.21 1.68.31 2.66-1.12-.24-1.14-1.02-1.32-1.6-.77-2.49-1.48-5-2.23-7.5-.28-.95-.56-1.91-.91-2.84-.16-.41-.48-.76-.86-1.35-.71 1.07-.47 1.92-.23 2.71.83 2.73 1.71 5.45 2.58 8.17.31 1 .63 2 .73 3.15-.11-.14-.26-.26-.34-.41a1781.7 1781.7 0 0 1-5.61-12.59c-.5-1.13-.45-1.15-1.38-1.88-.79.55-.46 1.36-.34 2.01.67 3.73 1.35 7.45 2.14 11.15.64 2.97 1.44 5.91 2.16 8.87.07.29.1.59-.11 1-.36-.63-.73-1.26-1.06-1.9a59.47 59.47 0 0 1-5.67-17.09c-.16-.92-.29-1.84-.52-2.75-.14-.55-.42-1.06-.69-1.71-1.1.7-.97 1.57-.82 2.31.68 3.4 1.33 6.82 2.2 10.18.65 2.52 1.61 4.96 2.42 7.44.16.5.29 1.02.43 1.53l-.37.19c-.91-1.45-1.95-2.84-2.71-4.36-1.57-3.17-3.02-6.4-4.48-9.62-1.29-2.82-2.53-5.66-4.42-8.19-1.47-.17-2.05.96-2.75 1.87-1.68 2.16-3.31 4.34-5.01 6.49a6.98 6.98 0 0 1-3.37 2.51c.3-.87.42-1.46.69-1.97.89-1.71 1.8-3.41 2.76-5.07a16.74 16.74 0 0 0 2.5-7.91c.02-.61 0-1.21 0-1.82a14.1 14.1 0 0 1-.57-.25ZM242.57 390.74c2.92.53 5.82 1.22 8.75 1.53 2.95.31 5.94.22 8.77.31 3.42 5.32 6.96 7.75 13.33 9.21-1.07 1.74-2.69 2.88-4.17 4.13-.24.2-.85.13-1.22-.01a31.08 31.08 0 0 1-3.08-1.33c-3.39-1.7-6.75-3.44-10.14-5.15a63.43 63.43 0 0 1-11.1-6.81c-.5-.4-.94-.87-1.41-1.3l.26-.57ZM356.29 318.03c.07-.99.87-1.53 1.49-2.17 6.49-6.68 13.02-13.33 19.46-20.06 2.27-2.37 4.35-4.94 6.54-7.4.42-.47.78-1.15 1.7-1.03.3.82-.28 1.32-.67 1.8-2.95 3.69-5.69 7.57-8.94 10.96-5.45 5.7-11.22 11.08-16.89 16.57-.68.66-1.54 1.15-2.31 1.72l-.39-.41ZM261.31 385.21c.78.68 1.21 1.12 1.7 1.47 3 2.19 6 4.39 9.04 6.51 1.31.91 2.79 1.01 4.44.87 2.4-.22 4.79-.34 7.15-1.3-1 1.96-2.17 3.73-3.43 5.42-.24.32-1.01.42-1.49.35a15.49 15.49 0 0 1-6.21-2.37 71.4 71.4 0 0 1-10.1-7.89c-.75-.71-1.5-1.43-1.1-3.05ZM308.37 318.88l7.95-7.88c1.21.73 2.51 1.72 3.96 2.32 1.41.59 2.99.78 4.46 1.14-1.61 1.59-11.49 4.28-16.38 4.41ZM156.37 292.49c-2.96.01-5.63-.97-8.3-2-.06-.02-.13-.03-.17-.08-.33-.4-.92-.8-.92-1.2 0-.72.76-.69 1.3-.65.99.09 1.98.17 2.94.4 3.41.79 6.77.49 10.13-.28.72-.17 1.46-.32 2.2-.33.74 0 1.59.11 1.75 1.03.14.81-.51 1.23-1.15 1.49-.8.32-1.63.62-2.47.78-1.75.34-3.53.56-5.31.84Z" class="cls-1"/>
    <path d="M261.98 390.74c2.05 1.67 4.04 3.43 6.18 4.98 2.13 1.54 4.42 2.87 6.72 4.34-.24 0-.5.04-.74 0a21.8 21.8 0 0 1-12.07-6.8c-.99-1.07-.92-1.13-.08-2.51ZM310.21 324.95h4.42c-.48 1.83-3.23 3.98-6.55 4.99.49-.86.97-1.54 1.3-2.3.34-.78.52-1.62.84-2.69ZM300.15 325.43l4.49-2.56 3.15 1.53c-1.78.94-6.19 1.55-7.64 1.03ZM340.07 301.81c-3.49 2.83-6.5 6.27-10.4 8.63.94-1.64 8.69-8.18 10.4-8.63ZM309.3 343.8l2.71-1.1.12.3-2.76 1.13-.07-.34ZM39.76 199.66l-.96-29.79c2.39 0 4.73-.01 7.06.01.62 0 1.06.34 1.13 1.01.14 1.28.32 2.44-.76 3.61a5.44 5.44 0 0 0-1.13 6.06 6.98 6.98 0 0 1-.38 6.12c-.59 1.09-1.22 2.17-1.77 3.28-.46.93-.82 1.9-1.02 2.93 2.8-3.66 5.81-7.27 4.15-12.44a4.67 4.67 0 0 1 .89-4.67c.16.14.31.22.31.29-.07 5.22-.17 10.43-.22 15.65-.01 1.41-.71 2.28-1.79 3.05-.79.57-1.47 1.3-2.15 2.02-.21.23-.24.63-.46 1.25l3.93-2.96c.13 1.79.04 3.15-.19 4.49-2.11.71-3.13.72-6.63.1ZM37.8 169.94v22.7c0 2.17-.09 4.34-.15 6.52-.05 1.72-.05 1.72-1.96 2.69-1.12-10.71-.18-21.4-.19-32.28l2.31.38ZM36.37 203.1c1.63-1.38 3.06-1.75 4.88-1.32 1.52.36 3.16.21 4.81.28.25.61-.27.79-.74.86-2.87.4-5.75.61-8.96.17ZM65.61 198.42l-6.66-.49c-.04-9.42.5-18.73-.9-28.07 1.53-.3 2.91-.02 4.29.19.61.1 1.22.26 1.8.45.61.2 1.58.36 1.71.76.33 1.02.63 2.23-.17 3.2-1.35 1.66-2.14 3.43-1.9 5.64.06.59-.35 1.29-.68 1.85-.44.75-1.07 1.37-1.51 2.12a4.49 4.49 0 0 0-.58 2.08c1.76-1.94 3.9-3.63 3.82-6.61a3.73 3.73 0 0 1 1.15-3.04c.06 2.18.14 3.99.17 5.8.03 1.8 0 3.59 0 5.18l-2.85 3.69.36.35 2.41-2.3c.12 3.23-.4 6.2-.46 9.2ZM53.98 201.52 55 169.6h2l.33 5.75c.25 4.28.6 8.55.74 12.83.1 2.85-.08 5.7-.14 8.55a2.85 2.85 0 0 1-1.15 2.22c-.93.78-1.79 1.64-2.79 2.58ZM55.82 202.29c1.06-1.61 2.1-2.02 3.68-1.62 1.22.31 2.57.13 3.86.12.66-.01 1.32-.15 2.21-.25l-.12 2.19-9.63-.43ZM74.27 66.76c-.33-4.91-.97-9.68-.1-14.45.31-1.7.8-3.38 1.41-5a16.5 16.5 0 0 0 1.18-7.11c-.06-.87-.04-1.74-.06-2.61-.1-5.92 3.94-9.72 8.87-10.93.6-.15 1.22-.26 1.83-.32 1.79-.15 2.16.22 1.87 1.96-.29 1.78-.68 3.54-.97 5.32a37.74 37.74 0 0 1-5.48 14.55 22.35 22.35 0 0 0-3.44 9.95c-.14 1.35-.47 2.7-.79 4.02-.63 2.6-1.45 3.47-4.32 4.61ZM92.62 15.95l-.68-2c1.41-1.16 2.66-2.64 4.64-3.2-.63 2.23-2.05 3.8-3.95 5.2Z" class="cls-1"/>
    <path d="M351.66 213.93c.3-1.18 1.19-1.56 1.94-2.05 1.92-1.26 3.78-2.59 4.96-4.64.42-.74.82-1.48 1.4-2.54.3.6.49.92.61 1.26.05.15-.03.37-.1.54a12.75 12.75 0 0 1-7.5 7.49c-.34.13-.79-.02-1.3-.05ZM360.07 185.87c1.13 1.35 1.03 2.74-.16 4.68-1.52 2.45-3.29 3.54-5.37 3.07 1.13-1.25 2.28-2.33 3.18-3.59.9-1.27 1.56-2.72 2.35-4.16ZM348.94 202.29c-.79 1.6-2.12 2.15-3.65 2.25-1.06.07-1.61-.54-1.28-1.49.62-1.8 1.38-3.56 2.1-5.33.03-.08.21-.09.47-.18.7.93.16 1.83-.12 2.71-.29.92-.65 1.81-1.12 3.11l3.61-1.06ZM334.27 201.3l4.09-.44c1.23-.14 2.16-1.48 3.61-1.04-.84 2.73-5.39 3.65-7.71 1.47ZM354.43 180.46c-1.64 1.16-3.53.7-5.02 1.61-.7-.92-.33-1.48.34-1.96 1.35-.97 3.12-.91 4.68.35ZM337.28 193.79l-5.24 4c-.19-2.53 2.62-4.66 5.24-4ZM362.49 203.82c-1.08-.19-1.87-.2-2.32-1.05q1.27-.44 2.32 1.05ZM294.36 142.13c.43.06.92.02 1.28.22.42.23.77.63 1.07 1.02a26.72 26.72 0 0 1 4.67 9.87c.44 1.73.16 2.26-1.44 2.88-1.44.55-2.92.99-4.77 1.61 1.22-2.01 3.2-2.25 4.7-3.27-1.03-4.42-3.32-8.17-5.71-11.86l.2-.47ZM308.14 128.07a11.5 11.5 0 0 1 5.51 2.64c.79.68.87 1.6.41 2.34a1.77 1.77 0 0 1-2.27.68c-.85-.35-1.62-.88-2.42-1.34s-1.55-1.02-2.37-1.42c-.77-.38-1.51-.73-1.23-1.75.25-.93 1.04-1.13 1.9-1.15h.48ZM310.77 145.49c-.02.32 0 .64-.07.93-.18.87-.67 1.46-1.59 1.57-.83.1-1.57-.25-1.8-1-.36-1.22-.63-2.5-.68-3.77-.04-.95.78-1.63 1.64-1.73.88-.11 1.63.36 2.03 1.29.12.28.21.58.25.89.09.61.15 1.22.22 1.82ZM275.61 133.26c.08 0 .33.01.57.06 1.16.26 1.59 1.34.69 2.03a33.21 33.21 0 0 1-4.57 2.79c-.6.31-1.5.24-1.78-.5-.2-.55-.12-1.36.16-1.89.7-1.33 3.14-2.51 4.93-2.49ZM279.38 148.09v.56c-.07 1.35-.61 2.13-1.52 2.25-.81.1-1.75-.48-2.05-1.58a9.77 9.77 0 0 1-.25-3.1c.05-.78.65-1.37 1.47-1.48.92-.13 1.58.38 1.91 1.18.28.67.37 1.43.54 2.14l-.1.03ZM292.58 168.69c-3.21 2.04-6.04 1.16-8.82.04-1.86-.75-2.51-1.69-2.56-3.2 1.79.82 3.48 1.86 5.32 2.38 1.79.51 3.73.5 6.05.77ZM277.55 167.35c-.95-1.79-.45-4.18 1.02-4.98.35-.19.89-.04 1.35-.05 0 .4.1.84-.03 1.19-.78 2.08-1.25 2.83-2.34 3.84ZM171.35 176.78c.34-.1.48-.18.57-.15 2.77.95 5.53.31 8.25-.17 1.4-.25 2.56-.31 3.41 1.15 1.52-1.27 2.88-.74 4.34.01 1.25.64 2.65.97 4.12 1.49-.31.25-.58.61-.93.71-1.3.39-2.6.84-3.93 1.01-4.71.61-9.28.26-13.44-2.35-.79-.5-1.95-.47-2.39-1.7ZM199.56 158.26l1.79.71-2.16 1.11c-.2.83-.39 1.74-.64 2.63-.15.53-.26 1.17-.62 1.52a2.3 2.3 0 0 1-1.56.66c-.66-.04-1.04-.67-.99-1.36.15-1.97.29-3.95.55-5.91.12-.93.75-1.71 1.77-1.55 1.07.16 1.73-.31 2.48-.9.32-.25 1.01-.45 1.28-.28.61.39.27 1.01-.09 1.44-.51.62-1.09 1.18-1.8 1.93ZM169.31 157.12l-2.62-1.3 1.44-.97v-1.26c.32 0 .6-.08.77.01.86.47 1.64 1.02 2.73.99.81-.02 1.31.7 1.43 1.49a10.7 10.7 0 0 1-.79 5.83c-.38.92-1.2 1.26-1.96 1-.85-.29-1.03-.97-1.02-1.79.02-1.35 0-2.71 0-4.01ZM185.1 168.52l2.77-2.25c-.49-.41-.98-.74-1.36-1.17a13.2 13.2 0 0 1-1.4-1.91c-.1-.17.03-.64.21-.79.16-.14.64-.14.8 0 1.03.87 2.1 1.73 2.96 2.75.36.42.43 1.3.29 1.87-.37 1.42-2.36 2.2-4.28 1.5ZM185.17 183.94c-2.84 1.96-7.12.78-7.67-2 1.21.52 2.32 1.14 3.51 1.45 1.25.32 2.57.36 4.16.55Z" class="cls-3"/>
  </g>
</svg>