<svg width="320" height="210" viewBox="0 0 320 210" fill="none" xmlns="http://www.w3.org/2000/svg"><g clip-path="url(#a)"><path opacity=".1" d="M320-19H118c0 75.11 60.889 136 136 136h66V-19Z" fill="#9BCD41"/><mask id="b" style="mask-type:alpha" maskUnits="userSpaceOnUse" x="-100" y="-262" width="2249" height="463"><path fill-rule="evenodd" clip-rule="evenodd" d="M480.878-202c28.957 0 52.432 23.475 52.432 52.432s-23.475 52.432-52.432 52.432H174.361c-82.328 0-149.068 66.74-149.068 149.068C25.293 134.26 92.033 201 174.361 201H2118.86c16.56 0 30-13.431 30-30 0-16.569-13.44-30-30-30H174.361c-49.191 0-89.068-39.877-89.068-89.068 0-49.191 39.877-89.068 89.068-89.068h306.517c62.095 0 112.432-50.338 112.432-112.432C593.31-211.663 542.973-262 480.878-262H-70c-16.568 0-30 13.431-30 30 0 16.569 13.432 30 30 30h550.878Z" fill="#BBDBFD"/></mask><g mask="url(#b)"><path fill-rule="evenodd" clip-rule="evenodd" d="M480.878-202c28.957 0 52.432 23.475 52.432 52.432s-23.475 52.432-52.432 52.432H174.361c-82.328 0-149.068 66.74-149.068 149.068C25.293 134.26 92.033 201 174.361 201H2118.86c16.56 0 30-13.431 30-30 0-16.569-13.44-30-30-30H174.361c-49.191 0-89.068-39.877-89.068-89.068 0-49.191 39.877-89.068 89.068-89.068h306.517c62.095 0 112.432-50.338 112.432-112.432C593.31-211.663 542.973-262 480.878-262H-70c-16.568 0-30 13.431-30 30 0 16.569 13.432 30 30 30h550.878Z" fill="#FFC229"/><g opacity=".06" clip-path="url(#c)"><path fill-rule="evenodd" clip-rule="evenodd" d="M152.897 134.525c-6.409 37.48 25.12 73.023 37.177 110.614 11.724 36.552 7.983 75.018 32.945 108.01 27.678 36.581 63.608 76.026 115.632 88.362 51.939 12.315 102.376-11.803 151.791-24.952 42.457-11.297 81.12-26.283 116.93-46.55 37.956-21.482 77.643-42.526 98.362-75.296 22.139-35.016 31.234-75.611 22.203-115.392-9.226-40.634-35.782-79.254-73.371-109.978-36.849-30.12-84.865-52.111-136.229-61.34C469.938-.694 423.915 14.99 375.61 19.22c-50.75 4.443-107.911-7.102-149.357 14.355-42.195 21.846-66.58 61.328-73.356 100.95Z" fill="#343A40"/></g><g opacity=".15" clip-path="url(#d)"><path fill-rule="evenodd" clip-rule="evenodd" d="M298.298-147.405c-28.401-13.952-65.504-8.894-99.326-3.328-30.347 4.994-56.72 20.425-84.534 33.583-28.57 13.515-60.459 22.756-81.285 44.86C11.224-49.012-3.654-19.8-4.439 9.029c-.773 28.365 15.59 53.274 33.32 75.534 16.295 20.458 38.52 36.124 64.321 47.057 24.591 10.419 52.893 10.046 80.337 14.236 33.874 5.172 67.828 27.307 100.432 13.364 32.175-13.759 35.566-52.929 54.65-79.684 18.751-26.287 52.804-46.91 56.902-76.704 4.113-29.91-20.576-53.73-35.442-79.336-14.836-25.552-23.303-56.91-51.783-70.9Z" fill="#fff"/></g></g></g><defs><clipPath id="a"><path fill="#fff" d="M0 0h320v210H0z"/></clipPath><clipPath id="c"><path fill="#fff" d="M236.152-75.53 55.747 359.717l558.747 161.894L794.899 86.364z"/></clipPath><clipPath id="d"><path fill="#fff" d="m-3.035 173.989 396.597-9.95L381.73-165.7l-396.597 9.95z"/></clipPath></defs></svg>