<svg xmlns="http://www.w3.org/2000/svg" fill="none" viewBox="0 0 235 184"><g id="mobile_astuces-section_bottom-right-angle" clip-path="url(#clip0_3180_146059)"><g id="shape"><mask id="mask0_3180_146059" width="1326" height="321" x="-66" y="74" maskUnits="userSpaceOnUse" style="mask-type:alpha"><path id="mask" fill="#F67536" fill-rule="evenodd" d="M266.95 359a40.44 40.44 0 1 0 0-80.88H109.52c-56.14 0-101.65-45.5-101.65-101.65 0-56.14 45.51-101.65 101.65-101.65h1132.71a17.69 17.69 0 0 1 0 35.38H109.53a66.28 66.28 0 0 0 0 132.55h157.42a75.82 75.82 0 0 1 0 151.63H-48.3a17.69 17.69 0 1 1 0-35.37h315.26Z" clip-rule="evenodd"/></mask><g mask="url(#mask0_3180_146059)"><g id="shape_2"><path id="secondary-color" fill="#FFC229" fill-rule="evenodd" d="M266.95 351.93a33.37 33.37 0 0 0 0-66.73H109.52C49.47 285.2.8 236.52.8 176.47c0-60.05 48.67-108.73 108.72-108.73h1132.71a24.76 24.76 0 0 1 0 49.53H109.53a59.2 59.2 0 1 0 0 118.4h157.42a82.9 82.9 0 1 1 0 165.79H-48.3a24.76 24.76 0 0 1 0-49.53h315.26Z" clip-rule="evenodd"/><g id="BlobCorner" clip-path="url(#clip1_3180_146059)" opacity=".06"><path id="Vector" fill="#343A40" fill-rule="evenodd" d="M83.1 101.3c-3.77-26.43 14.82-51.49 21.92-78 6.92-25.77 4.71-52.9 19.43-76.16 16.32-25.8 37.5-53.61 68.17-62.31 30.63-8.69 60.36 8.32 89.5 17.6 25.03 7.96 47.83 18.53 68.94 32.82 22.38 15.15 45.78 29.99 58 53.1 13.05 24.69 18.41 53.31 13.09 81.37-5.44 28.65-21.1 55.88-43.26 77.55a166.1 166.1 0 0 1-80.32 43.26c-28.54 6.13-55.67-4.93-84.15-7.91-29.93-3.14-63.63 5-88.06-10.13-24.88-15.4-39.26-43.24-43.26-71.18Z" clip-rule="evenodd"/></g><g id="BlobCorner_2" clip-path="url(#clip2_3180_146059)" opacity=".06"><path id="Vector_2" fill="#343A40" fill-rule="evenodd" d="M168.83 300.12c-16.74 9.83-38.62 6.27-58.56 2.34-17.9-3.52-33.44-14.4-49.84-23.68-16.84-9.53-35.65-16.05-47.92-31.63C-.42 230.73-9.2 210.13-9.66 189.8c-.45-20 9.2-37.56 19.65-53.26 9.6-14.43 22.7-25.48 37.92-33.19 14.5-7.34 31.19-7.08 47.37-10.03 19.97-3.65 39.99-19.26 59.21-9.43 18.97 9.7 20.97 37.33 32.22 56.2 11.06 18.53 31.14 33.07 33.55 54.08 2.43 21.1-12.13 37.9-20.9 55.95-8.74 18.02-13.73 40.13-30.53 50Z" clip-rule="evenodd"/></g></g></g></g><g id="peep-60"><g id="BODY" fill-rule="evenodd" clip-rule="evenodd"><path id="🎨 Background" fill="#fff" d="M183.36 77.88c-9.16-.66-21.73 1.16-24.38 11.58-.82 3.8-2.44 5.46-5.16 7.94-17.26 22.05 42.98 25.76 46.08 4.25 6.53 2.37 13.63 2.88 20.16 5.27 3.54 1.3 6.75 3.37 9.83 5.52 12.54 8.9 24.91 18.04 37.41 27-4.83 2.22-14.03 10.7-10.28 16.4.87 1.12 2.17 1.88 3.31 2.7l.6.43 4.7 3.37.23.17.28.2a208.23 208.23 0 0 1-30.29 34.98c-.96.89-.57 2.9.83 3.13l1.66.24c5.38.78 10.85 1.48 16.27 1.06 5.27-.57 8.45-5.23 12.05-8.6 7.2-7.35 13.9-15.18 20-23.45l.13-.18c1.9-2.59 4.43-5.23 4.6-8.58.35-1-.54-2.45-1.4-3.13l-.28-.42c-4.57-6.55-9.73-12.87-16.2-17.61a2.3 2.3 0 0 0-.96-1.92l-27.04-19.53c-6.98-4.8-13.47-10.43-21.03-14.3-7.74-3.71-16.47-3.86-24.4-6.96-.16-2.23-4.87-2.8-4.73-2.46-4.96-3-7.52-6.55-8.31-9.83-.8-3.27.19-6.25-3.68-7.27ZM116.46 148c-8.35-12.55-16.33 1.34-19.81 9.71-4.11 11.46 4.4 25.56 9.91 35.44 2.03 2.74 4.7 8.53 8.27 8.95 9-.04 18.01-.67 27.02-.86 5.82-1.44-2.34-10.16-7.98-6.98-1.7.64-2.56 2.58-4.23 3.2-.6.13-.64-.14-.9-.75l-.03-.08-1.3-3.14c-3.66-9.01-7.54-17.94-11.4-26.87-.82-1.94.34-3.54 1.84-4.69 1.15-.94 6.09-3.25 1.43-2.23 1.8-4.16-.36-8.37-2.81-11.7Zm20.77-17.19c-.8-.1-1.84.71-1.96 1.5-1.03 6.5.12 12.93 1.49 19.29l.25 1.16c.5 2.32 1.07 4.69 2.34 6.72a11.83 11.83 0 0 0 5.47 4.6c7.18 2.85 16.1.02 21.38-5.31 3.38-4.62.4-10.41-.16-15.47.54-1.37.73-2.94 1.04-4.35l.04-.17 1.2-5.24c.27-1.15-.57-2.74-1.96-2.58a122.61 122.61 0 0 1-29.13-.15Z"/><path id="🖍 Ink" fill="#030F40" d="M103.44 146.36c.03-.13-.13-.23-.23-.13-1.7 1.64-2.9 3.73-4.22 5.67-1.26 1.84-2.63 3.62-3.57 5.66a17.24 17.24 0 0 0-1.6 5.9c-.16 2.06.05 4.13.42 6.17.72 4.01 2.25 7.8 3.94 11.5a133.6 133.6 0 0 0 5.45 10.49l.7 1.22c.86 1.49 1.72 2.97 2.65 4.41 1.15 1.8 2.2 3.64 3.72 5.14 1.08 1.06 3.12 0 2.63-1.52-.22-.67-.38-1.29-.72-1.9-.25-.47-.53-.93-.8-1.39l-1.6-2.77c-1.1-1.94-2.29-3.85-3.4-5.8a126.92 126.92 0 0 1-5.34-10.35l-.19-.42c-1.47-3.28-2.87-6.68-3.52-10.22-.69-3.74-.07-7.26 1.26-10.77.68-1.82 1.46-3.6 2.26-5.36l.16-.34c.77-1.69 1.6-3.37 2-5.2Zm82.67-64.63c-.02-.07-.13-.07-.14 0-.48 3.17.59 6.53 2.32 9.17a15.26 15.26 0 0 0 3.49 3.79l.1.08c1.4 1.05 3.3 2.06 5.05 1.38l.15-.07c-.2.3-.38.62-.56.94-.55.95-1.04 1.93-1.58 2.89a18.44 18.44 0 0 1-3.53 4.58c-5.76 5.36-13.84 6.64-21.43 6.58h-.54c-3.33-.03-7.69.14-10.26-2.27-1.39-1.3-2.15-3.13-2.84-4.86-.67-1.69-1.14-3.44-1.7-5.16a11.88 11.88 0 0 0 5.03-6.9l.05-.2c.3-1.15.6-2.66.12-3.74-.05-.12-.26-.12-.32 0-.25.52-.3 1.1-.46 1.65a13.7 13.7 0 0 1-2.74 5.17c-.7.81-1.45 1.56-2.31 2.19-.5-.88-1.69-1-2.67-.7-1.32.38-2.62.87-3.9 1.4l-.25.1c-1.26.52-2.68 1-3.86 1.71l-2.05.99c-3.21 1.5-6.38 3.1-9.54 4.73l-.67.35a20.57 20.57 0 0 0-3.78 2.34 17.1 17.1 0 0 0-2.94 3.56c-1.95 2.85-3.79 5.8-5.72 8.66-3.9 5.8-7.79 11.59-11.7 17.37-.96 1.4-2.02 2.76-2.87 4.22-.82 1.4-.8 2.82-.64 4.38l.03.28c.3 2.86.83 5.6 2.43 8.05 2.53 3.84 6.5 6.24 10.72 7.89-.52.38-1 .8-1.61 1.05a9.5 9.5 0 0 1-2.97.7c-1.09.08-2.31-.19-3.2.55-.35.3-.36 1 0 1.3.85.69 1.95.5 2.98.38l.06-.01a10.97 10.97 0 0 0 3.46-.93c0 .02-.01.05 0 .07.15 1.17.48 2.28.83 3.4l.22.72 1.39 4.34c.9 2.76 1.87 5.5 2.85 8.22l.85 2.35a176.7 176.7 0 0 0 2.72 7.2l1.8 4.4c.6 1.43 1.09 2.97 1.82 4.33.6 1.12 2.24.32 1.97-.83-.34-1.51-1-3.01-1.49-4.48l-1.51-4.48c-.9-2.59-1.89-5.14-2.88-7.69l-.99-2.53a251.7 251.7 0 0 0-2.99-7.4l-.11-.26c-1.1-2.56-2.21-5.43-4.19-7.41a.14.14 0 0 0-.1-.05c.49-.26.94-.58 1.34-.96l.02-.02a7.5 7.5 0 0 0 1.02-1.48c.28.1.55.2.82.28.48.16.87.05 1.15-.2l.53.32c.57.35 1.18.68 1.8.7.8.01 1.41-.42 1.83-1.06.38-.57.61-1.2 1.09-1.7a10.5 10.5 0 0 1 1.57-1.34l.66-.48a18.3 18.3 0 0 0 3.35-2.93c.49-.58 1.14-1.28 1.44-1.98.06-.14.1-.26.1-.39l.2 1.32c.93 6.19 1.68 12.42 1.92 18.67.12 3.09.17 6.18.04 9.26a82.07 82.07 0 0 1-.6 6.93l-.01.18c-.03.23-.05.46-.03.67-.75.37-1.18 1.3-1.48 2.04-.23.55-.05 1.1.32 1.48-.44.4-.84.87-1.17 1.41-.06.11.08.2.17.13a8.12 8.12 0 0 1 1.73-1.06c.32.13.66.16.99.07.34-.1.64-.33.86-.62a6.85 6.85 0 0 1 5.97 1.9l.15.16-.34.13a5.55 5.55 0 0 1-1.2.22l-.45.04c-1.73.14-3.45.2-5.06.91-.34.16-.22.68.1.76 1.17.32 2.34.3 3.53.21l.26-.02c1.11-.08 2.3-.08 3.39-.39-.26.71.1 1.64 1.18 1.78 3.25.44 6.53.23 9.79-.05 3.3-.3 6.58-.57 9.88-.74 10.68-.56 21.37-.45 32.06-.3l6.04.09c4.81.06 9.63.12 14.45.08l2.25-.02c.95-.01 1.9-.02 2.86-.05l.57-.02c1.13-.04 2.63.13 3.62-.54.81-.55 1-1.56.5-2.38a3.57 3.57 0 0 0-.54-.65c-.41-3.55-.65-7.12-.89-10.69-.83-12.48-.34-24.9 1.57-37.26a146.7 146.7 0 0 1 15.12 5.64 208.9 208.9 0 0 1 7.94 3.56c2.4 1.13 4.8 2.55 7.35 3.28.24.2.56.3.85.21h.04c.26.05.55.02.84-.16l.17-.1.1-.06a8.8 8.8 0 0 0 2.43-2.11c.78.71 1.6 1.37 2.43 2.03l2.65 2.18c.34.3.73.57 1.04.9l.04.06.02.02c-1.33.86-2.5 2.16-3.54 3.3-1.12 1.21-2.2 2.47-3.27 3.73l-1.04 1.22c-7.34 8.65-14.76 17.62-24.27 23.98-1.5 1-.07 3.45 1.42 2.42 2.83-1.94 5.5-4.1 8.07-6.36 4.5-3.97 8.54-8.43 12.33-13.07 1.92-2.35 3.78-4.76 5.6-7.18l.62-.82c.83-1.1 1.65-2.2 2.43-3.32l.17-.24a16.3 16.3 0 0 0 1.86-3.25c.17.18.37.32.65.43.48.19 1.07-.2 1.19-.68.28-1.13-.7-1.8-1.51-2.41-.98-.73-1.98-1.43-2.98-2.13l-.35-.26c-1.25-.88-2.5-1.79-3.87-2.49a.8.8 0 0 0-.15-.15l-.19-.15a65.79 65.79 0 0 1 10.16-12.68l.76-.73a40.23 40.23 0 0 1 3.6-3.17l.39.45c.53.6 1.06 1.19 1.63 1.75a223.35 223.35 0 0 1 8.62 9.1l.87.96c1.82 2.02 3.77 4 5.43 6.15l.08.1c.72.97 1.24 2.04.9 3.27-.32 1.18-1.1 2.23-1.76 3.26l-.06.1a153.89 153.89 0 0 1-8.72 12.24c-6.23 7.87-13.33 15.32-21.81 20.8-1.18.75-.08 2.64 1.1 1.87a86.4 86.4 0 0 0 13.68-11.27c3.84-3.82 7.32-8.03 10.58-12.35a131.6 131.6 0 0 0 4.57-6.46c1.42-2.13 3.06-4.33 4.08-6.68.54-1.24.74-2.58.3-3.89-.4-1.2-1.2-2.2-2.04-3.13l-.07-.09a360.14 360.14 0 0 0-5.82-6.35c-1.97-2.1-4.03-4.13-6.13-6.1a43.75 43.75 0 0 0-5.21-4.18l.5-.34c.51-.33.64-1.05.19-1.5-1.23-1.24-2.65-2.32-3.99-3.45a10630.56 10630.56 0 0 1-11.42-9.67c-4.6-3.88-9.16-7.8-13.73-11.7-1.9-1.62-3.83-3.22-5.75-4.83l-3.4-2.87-1.68-1.4a18.06 18.06 0 0 0-2.7-1.96c-2.28-1.28-5.03-1.84-7.55-2.52l-.17-.04a201.2 201.2 0 0 0-17.14-3.92 50 50 0 0 0-7.89-.95 3.03 3.03 0 0 0-2.12-.07c-.27.11-.55.27-.8.48-1.29-.46-2.56-.67-3.77-1.44a13.37 13.37 0 0 1-3.17-2.88c-1.86-2.29-2.83-5-3.48-7.83Zm-29.72 77.66a5.64 5.64 0 0 1 2.87.8l-1.55.66-3.43 1.46c-1.14.49-2.34.9-3.41 1.5a.6.6 0 0 0-.19.15c-1.12-.71-2.3-1.35-3.44-2.03l-.78-.47c1.35.46 2.74.68 4.2.26 1.97-.57 3.67-2.19 5.74-2.33Zm-2.8-3.43.18-.13c1-.68 2.18-1.55 3.39-.94.57.29 1.03.76 1.6 1.07.56.3 1.18.55 1.8.7a8.3 8.3 0 0 0 3.37.04l-.02 1.51c-.85.35-1.7.7-2.54 1.07-.54-.19-1.07-.41-1.63-.66l-.37-.17a6.08 6.08 0 0 0-3.32-.64c-2.23.28-3.9 1.93-6.03 2.48-2.6.67-4.95-1.27-7.41-1.74-.4-.08-.83-.13-1.24-.14h-.14l-.06-.04c-.53-.3-1.32-.6-1.7-1.12-.4-.57-.43-1.52-.56-2.18a7.93 7.93 0 0 1-.04-.2c.23 0 .47.01.7.05.76.14 1.47.4 2.17.7 1.32.57 2.61 1.2 4 1.58 1.37.36 2.8.54 4.2.33a8.74 8.74 0 0 0 3.65-1.57Zm-.21-5.32.2-.13c.54-.35 1.17-.7 1.83-.58.6.12 1.1.59 1.62.88a9.07 9.07 0 0 0 6.95.7l-.03 3.35a5.65 5.65 0 0 1-4.74-.66l-.53-.36c-.92-.6-1.78-1.07-2.99-.86-1.2.22-2.2.99-3.18 1.66l-.16.1a6.53 6.53 0 0 1-3.65 1.23c-1.5.02-2.96-.4-4.35-.9-1.38-.51-2.7-1.12-4.16-1.3-.45-.06-1-.07-1.52.01a75.14 75.14 0 0 1-.54-3.58c2.61-.7 5.03 1.57 7.45 2.27 1.41.4 2.95.4 4.35 0 1.3-.36 2.33-1.1 3.45-1.83Zm-.01-5.64c.56-.1 1.1.15 1.58.41 1.21.67 2.26 1.6 3.63 1.96 1.76.45 3.7.06 5.44-.68l-.02 3.1a7.46 7.46 0 0 1-4.75.2c-1.23-.36-2.17-1.33-3.4-1.64-1.27-.3-2.46.3-3.47.99l-.31.2c-1.16.8-2.3 1.48-3.75 1.6-1.53.15-2.87-.33-4.25-.97l-.32-.14c-1.74-.8-4-1.71-5.73-.8a71.68 71.68 0 0 1-.3-3.87c.23-.09.48-.15.77-.15.68 0 1.4.2 2.03.43 1.39.49 2.68 1.22 4.05 1.74 1.3.5 2.75.76 4.14.54a5.5 5.5 0 0 0 3.14-1.8l.13-.14c.4-.41.81-.87 1.39-.98Zm-1.02-4.78a3.81 3.81 0 0 1 2.17-.56c.71.1 1.18.58 1.62 1.09l.24.28a5.9 5.9 0 0 0 2.76 2.08c1.25.4 2.57.24 3.74-.33.4-.2.8-.46 1.18-.71l-.02 2.71c-.77.39-1.56.73-2.42.94a5.2 5.2 0 0 1-4.3-.77l-.15-.1c-1.02-.67-2.07-1.47-3.34-1.54-1.24-.07-2.16.6-2.98 1.45l-.1.1c-1.02 1.07-2.06 1.6-3.58 1.48-1.48-.12-2.87-.78-4.22-1.34l-.13-.05c-1.24-.5-2.67-1.03-4.03-.84-.32.05-.74.15-1.12.33a99.11 99.11 0 0 1-.09-3.82c.78-.67 1.98-.78 2.95-.5 1.52.42 2.76 1.53 4.2 2.13 1.29.53 2.63.65 3.94.15 1.35-.52 2.41-1.52 3.68-2.18Zm-14.68-5.36c2.27.08 4.48 1.55 6.65 2.11 2.41.63 4.39-.22 6.54-1.17l.28-.12c1.1-.49 2.29-.92 3.51-.72 1.2.19 2.25.85 3.28 1.45l.2.1c1.86 1.07 3.77 1.8 5.95 1.62v2.03c-.37.2-.71.43-1.04.65l-.12.07c-1.04.65-2.11 1.08-3.35.68-1.2-.4-1.76-1.43-2.59-2.29a3.71 3.71 0 0 0-2.85-1.22 6.7 6.7 0 0 0-3.3 1.2c-.98.65-1.93 1.47-3.08 1.8-2.58.71-4.8-2.01-7.24-2.44a3.77 3.77 0 0 0-2.93.67c.01-1.47.05-2.94.1-4.42Zm19.5-.61a150.28 150.28 0 0 1 4.5.21c.83.05 1.83.3 2.63.05.02.08.05.16.09.23-.12.6-.2 1.23-.25 1.86a7.2 7.2 0 0 1-2.22-.1c-1.75-.36-3.18-1.46-4.75-2.25Zm-19.46-.5c4.31.29 8.66.19 12.98.28l.52.01h.06c-.5.2-.99.41-1.48.64l-.49.22a7.38 7.38 0 0 1-3.63.87c-1.39-.1-2.7-.66-4-1.12a8.64 8.64 0 0 0-3.98-.54l.02-.37Z"/></g><g id="HEAD" fill-rule="evenodd" clip-rule="evenodd"><path id="🎨 Background_2" fill="#fff" d="M203.2 22.11a6.03 6.03 0 0 0-3.26-1.88c1.13.57 2.24 1.16 3.26 1.88Zm1.73 8.18c.16-.72.26-1.45.3-2.18-.2.3-.52.5-.87.6.22.52.42 1.04.57 1.58Zm-59.26 11.33c1.03-4.25 5.8-12.41 6.92-13.98 1.23-3.9-5.45-7.02-1.82-10.06 1.65-1.37 3.82-1.86 5.86-2.35a64.47 64.47 0 0 1 42.35 4.55c2-.42 4.06.4 5.51 1.83 6.8 6.82-2.46 19.12-4.5 26.81-3.47 8.58 3.7 10.02 2.93 17.27-.6 3.75-4.4 4.74-7.61 5.3-.52.13-1.2.14-1.37.69a14.14 14.14 0 0 1-4.7 8.23c.2.62.05 1.37-.69 1.92a36.4 36.4 0 0 1-23.46 6.99c-9.94-.53-15.08-6.22-16.32-7.68-6.86-9.24-6.04-21.44-4.64-32.45.97-7.68-.27.45 1.55-7.07Z"/><path id="🖍 Ink_2" fill="#030F40" d="M176.33 6.3a2.03 2.03 0 0 0-2.21-1.45c-.9.11-1.86 1-1.75 1.98l.08.53.02.07c.06.3.15.59.29.85l.5 1.53c-.23-.02-.48 0-.72.04l-.77-1.96c-.28-.7-.47-1.6-1.01-2.14-.7-.7-1.9-.83-2.75-.34-.9.52-1.22 1.45-1.02 2.44.1.5.44.86.86 1.08l.04.02.33.77a2.7 2.7 0 0 0-.83-.21c-.46-.84-.97-1.65-1.5-2.44-.6-.91-1.77-1.3-2.76-.72-.89.51-1.36 1.87-.73 2.76.48.68.94 1.37 1.39 2.06l-.23.06-.1-.14c-.5-.6-1.07-1.06-1.65-1.57-.55-.47-.8-1.22-1.52-1.58-.91-.45-2-.23-2.54.67-1.16 1.93.78 3.33 2.03 4.5a30.62 30.62 0 0 0-5.34-2.65c-1-.37-1.8-.25-2.61.43-.37.3-.55.98-.38 1.42a2.4 2.4 0 0 0 1.74 1.63c.63.17 1.28.29 1.9.47 1.07.3 2.1.67 3.1 1.13l-.21.15a28.3 28.3 0 0 0-6.1-1.25l-.44-.04c-1.54-.14-3.4-.42-4.35 1.06-.32.49-.35 1.3 0 1.78.66.92 1.32 1.1 2.41 1.12a68.71 68.71 0 0 0-5.44.8l-.37.08c-.9.18-1.9.28-2.67.8-1.68 1.13-.89 3.33.97 3.57.9.11 1.9-.27 2.79-.45a57.56 57.56 0 0 1 3.92-.64c-.91.13-1.82.32-2.7.58l-.25.07c-1.7.52-4 1.35-4.54 3.17-.32 1.1.56 2.07 1.63 2.13 1 .06 1.82-.53 2.67-.97.61-.31 1.24-.55 1.9-.75.68-.21 1.38-.39 2.08-.53-.59.33-1.17.69-1.72 1.1l-.26.18c-1.48 1.1-3.73 2.8-3.2 4.86.15.65.88 1.27 1.58 1.2 1.81-.17 2.81-2.1 4.18-3.13.35-.27.75-.53 1.16-.8a32.92 32.92 0 0 0-4.98 8.27c-2.76 6.48-3.6 12.48-3.63 19.45v.22c0 3.84.09 7.76.46 11.58.35 3.54.99 7.03 2.6 10.23a22.25 22.25 0 0 0 13.72 11.14 21.83 21.83 0 0 0 18.91-3.7c1.35-1.04-.43-3.3-1.8-2.35-5.5 3.85-12.6 5.06-18.9 2.46a19.4 19.4 0 0 1-10.73-11.6c-1.08-3.25-1.4-6.71-1.79-10.1l-.02-.22c-.41-3.54-.65-7.1-.65-10.67 0-6.62.96-12.07 3.88-18.08a31.8 31.8 0 0 1 5.28-7.73c.65.13 1.33-.06 1.98-.13l1-.1-1 .68-.43.31c-1.34.97-3.05 2.06-2.7 3.92.09.5.6.96 1.08 1.08 1.76.42 2.97-1.3 4.17-2.3a48.39 48.39 0 0 1 3.98-3c-.24.27-.47.55-.7.84l-.33.42c-1.02 1.27-2.48 2.91-1.58 4.56.26.46.8.77 1.33.76 1.82-.04 2.55-2.1 3.4-3.4a47.86 47.86 0 0 1 3.05-4.08 71.64 71.64 0 0 1 18.98 3.56l.21.07c1.36.43 2.76 1 3.74 1.95a5 5 0 0 1-.1 2.01l-.1.5a20.59 20.59 0 0 0-.51 6.35c.23 2.24.9 4.25 1.72 6.32.4.98.8.8.93 1.85.11.8.05 1.63-.03 2.43l-.06.69c-.15 1.79-.23 3.74.95 5.21.18.23.57.14.7-.09l.17-.26a3.64 3.64 0 0 1 2.43-1.46c.13-.03.08-.2-.03-.2a3.5 3.5 0 0 0-2.31.54c.32-1.11 2.8-.57 3.62-.36l.03.01c1.01.27 1.98.72 2.82 1.34a6.43 6.43 0 0 1 2.65 5.35 5.76 5.76 0 0 1-5.9 5.7c-1.05 0-2-.47-3.05-.4-.61.03-1.08.69-.72 1.26.23.38.54.68.9.9-.87 2-1.98 3.9-3.25 5.65-.7.98-1.5 1.87-2.38 2.7-.7.63-2.18 1.37-2.1 2.44.03.39.23.62.59.77 1.09.44 2.42-1.1 3.15-1.83l.06-.06a20.7 20.7 0 0 0 2.47-2.97 14.92 14.92 0 0 0 2.4-6.26c1.76.53 4.08.04 5.51-.6 4.5-2.04 5.97-8.08 3.24-12.1a7.89 7.89 0 0 0-1.95-1.99c.17-.09.32-.2.46-.35.77-.81 1.3-1.87 1.84-2.84l.07-.12c.48-.86.92-1.73 1.35-2.62l.15-.33c.94-2.02 1.77-2.9 2.44-5.03a42.52 42.52 0 0 0 1.48-6.25l.1-.56c.18-1.24.36-2.55.22-3.8.96.3 1.92.5 2.87.03.63-.3.97-1.2.76-1.85a2.56 2.56 0 0 0-.75-1.14c.2-.1.38-.23.55-.37l.14-.12c.57-.5.61-1.44.26-2.07l-.1-.18a1.96 1.96 0 0 0-1.69-.97h-.33c.32-.07.63-.17.92-.35 1.33-.82 1.16-3.02-.44-3.4a4.72 4.72 0 0 0-2.16.07l.08-.05c.56-.34 1.03-1.01.98-1.7-.06-.76-.3-1.3-.98-1.7a1.97 1.97 0 0 0-1.99 0c-.5.33-1 .7-1.47 1.08.47-.58.89-1.21 1.05-1.89a2 2 0 0 0-.9-2.2 1.87 1.87 0 0 0-1.8-.04 1.9 1.9 0 0 0-.38-1.29c-.6-.82-1.69-1.29-2.64-.69-.13.08-.3.21-.46.38.32-1 .04-2.06-1.04-2.51a2.16 2.16 0 0 0-2.12.34c.36-1.95-2.53-3.4-3.65-1.37-.26.46-.5.94-.73 1.43l-.09.18.05-.13.06-.14c.31-.72.71-1.48.82-2.26.16-1.16-.36-2.27-1.63-2.44a2.11 2.11 0 0 0-1.82.73c.24-1.8-1.78-3.11-3.23-1.77-.69.64-1.06 1.57-1.5 2.39l-.74 1.38a4.36 4.36 0 0 0-.2-.22c.36-1.1.65-2.22.89-3.35.23-1.07-.3-2.18-1.4-2.48-1.01-.27-2.27.34-2.49 1.4-.16.76-.34 1.5-.55 2.24a3.7 3.7 0 0 0-.41-.08l-.04-.41-.06-.5c-.12-1.12-.24-2.4-.83-3.37-1-1.63-3.58-.95-3.6.98-.02 1 .39 2 .53 2.98.06.43.1.87.11 1.3a38.8 38.8 0 0 0-1.08-4.28l-.16-.5Zm22.24 55.84c-2.26-.35-4.33.91-5.67 2.67-.24.33-.08.78.14 1.05.16.2.37.22.61.26.28.03.63-.2.75-.43a7.33 7.33 0 0 1 4.17-3.47c.04-.01.05-.07 0-.08Zm-3.13-30.77-.07-.07c-.46-.48.26-1.2.72-.73.49.5.8 1.11 1.12 1.73.29.58-.6 1.1-.89.51l-.13-.27a5.24 5.24 0 0 0-.75-1.17Zm6.35-.97c-.65-.11-.37-1.1.27-.99l2.51.44c.65.11.38 1.1-.27.99l-2.5-.44Zm-38.65-6.73c.63-.2.9.78.27.99-.86.28-1.72.58-2.53.97-.6.3-1.11-.59-.52-.88.9-.44 1.83-.77 2.78-1.08Zm38.8-1.32c.61-.25.88.74.27.98l-2.21.88c-.61.25-.88-.74-.27-.98l2.2-.88Zm-46.53-2.4.08-.06c.56-.35 1.07.53.52.89-.33.2-.72.35-1.02.6l-.06.05c-.48.45-1.2-.27-.72-.72.35-.33.8-.52 1.2-.77Z"/></g><g id="FACE" fill="#030F40" fill-rule="evenodd" clip-rule="evenodd"><path id="🖍 Ink_3" d="M156.62 65.5c-1.39-1.94.58-3.76 1.87-4.54.33-.25.07-1.05-.66-.92-6.55 1.12-3.15 12.39 5.22 6.2 1-.8-.21-2.56-1.29-1.88-.05.04-.1.09-.17.13-1.2.94-3.41 2.64-4.97 1.01Zm10.28 8.17c-.32.12-2.99.24-4.56.17-1.08-.05-3.87-.7-3.87-.98 0-.27.12-.53.22-.52.42.05 3.72.08 6.05.11a330.54 330.54 0 0 1 2.66.02c.1.35-.18 1.07-.5 1.2Zm-5.35-2.03c-1.24-.01-2.75-.03-3.82.04-.38.02-.57.56-.6.82-.25 2.41 1.68 4.34 3.8 5.08 1.98.7 4.6.82 6.36-.47a5.38 5.38 0 0 0 1.72-2.2c.2-.47.35-.95.44-1.45l.02-.15c.07-.36.14-.8.02-1.13-.18-.47-.65-.48-1.09-.48h-.1l-.53-.01a136.05 136.05 0 0 0-4.35-.04h-1.04l-.83-.01Z"/><path id="Path" d="m173.22 47.95-.34-.17-.35-.17-.24-.12c-1.63-.79-3.45-1.56-5.2-1.7-.63-.06-1.2.19-1.42.82-.19.54.03 1.31.61 1.53 1.94.72 4.02 1.03 5.96 1.76.97.36 1.93.77 2.89 1.15.73.3 1.5.5 2.25.77l-.18-.01c-.07 0-.07.1-.01.1.26.03.51.08.76.15l.1.03c.17.05.3-.12.18-.25-.81-.82-1.46-1.66-2.42-2.34a19.9 19.9 0 0 0-2.59-1.55Z"/><path id="Path_2" d="M157.06 46.76c-1.35-1.37-4.22-.84-5.82-.22-.92.36-1.79.8-2.51 1.48l-.07.06-.11.1c-.5.49-1.04 1.14-.96 1.83.01.1.07.23.19.25.64.11 1.27-.22 1.86-.43l.4-.13a18 18 0 0 1 1.8-.53 9.86 9.86 0 0 1 2.3-.27c.78.02 1.63.24 2.37-.07.84-.35 1.27-1.35.55-2.07Z"/><path id="Path_3" d="M171.06 53.92c-.15-1.77-2.84-2.17-3.1-.42a7 7 0 0 0 .74 4.4c.68 1.35 2.37.73 2.5-.5.17-1.64-.06-2.38-.14-3.48Z"/><path id="Path_4" d="M153.37 53.06c-.38-.49-.92-.82-1.57-.63-2.03.59-1.43 3.46-.72 4.86.39.76 1.64.96 2.2.29.93-1.1 1.37-3.27.2-4.35a1.43 1.43 0 0 0-.11-.17Z"/></g><g id="ACCESORIES"><path id="🖍 Ink_4" fill="#030F40" fill-rule="evenodd" d="M140.34 56.51c1.63 10.99 13 12.2 15.01 1.3-.32-.15-.56-.42-.5-.97 0-2.37-.74-4.89-2.89-6.2-2.22-1.37-4.82-1.5-7.39-1.47-4.9-.12-4.8 3.97-4.23 7.34m16.79-4.78c1.54-.06 3.49 0 4.87.93a5.81 5.81 0 0 1 2.35-2.69c-3.7.1-7.5-.26-11.23-.54.9.61 1.72 1.52 2.26 2.58.5-.27 1.22-.25 1.75-.28m6.78 5.95c4.27 14.65 14.93 8.27 16.09 6.39 2.1-3.11 2.49-10.67.66-12.69-2.61-1.83-6.3-1.36-9.4-1.4-5.67.08-9.7 1.77-7.35 7.7m-28.61-6.75a6.23 6.23 0 0 1 3.48.33 4.64 4.64 0 0 1 2.55-3.1c.14-.18.12-.28.6-.25 3-.9 6.33-.42 9.2.5 4.54.38 9.3.68 13.87 1.2 4.28-1.91 17.2-2.2 18 2.53 1.02-.15 2.74-.94 3.59.14 6.23-1.06 12.66.4 18.92 1.06 1.57.29 2.38 3.4.6 3.36-1.01-.27.02-1.94-1.33-2.06-6.03-.66-11.94-1.6-18.03-1.7.21 1.05-4.03 1.12-4.1.5l-.02.01c1.04 3.9.1 9.52-1.8 11.93-2.65 3.17-9.32 4.08-12.28 2.04-3.81-1.88-7.78-11.32-6.66-14.45-2.03-.64-4.02-.45-6.12-.12.48 1.35 1.3 4.68.11 4.97.22 6.62-5.82 10.75-11.38 8.04-4.82-2.26-6.5-9.4-5.91-13.74-.6 1.16-5.64-.1-3.3-1.19" clip-rule="evenodd"/></g></g></g><defs><clipPath id="clip0_3180_146059"><path fill="#fff" d="M0 0h235v184H0z"/></clipPath><clipPath id="clip1_3180_146059"><path fill="#fff" d="M132.2 249.43 25.81-57.49l329.44-114.17 106.36 306.92z"/></clipPath><clipPath id="clip2_3180_146059"><path fill="#fff" d="M-8.83 73.48 225 80.49l-6.98 232.53L-15.8 306z"/></clipPath></defs></svg>