<svg xmlns="http://www.w3.org/2000/svg" width="320" height="317" viewBox="0 0 320 353" preserveAspectRatio="none" fill="none"><g id="mobile_actuhero" clip-path="url(#clip0_3180_146293)"><mask id="mask0_3180_146293" width="714" height="632" x="-164" y="-36" maskUnits="userSpaceOnUse" style="mask-type:alpha"><path id="mask" fill="#BBDBFD" fill-rule="evenodd" d="M519.999 536H10.28c-62.734 0-113.591-50.856-113.591-113.591 0-62.734 50.857-113.591 113.591-113.591h162.946c119.559 0 216.48-96.921 216.48-216.48V-6c0-16.569-13.431-30-30-30-16.568 0-30 13.431-30 30v98.338c0 86.422-70.058 156.48-156.48 156.48H10.28c-95.871 0-173.591 77.72-173.591 173.591C-163.311 518.281-85.591 596 10.28 596H520c16.569 0 30-13.431 30-30 0-16.569-13.431-30-30-30Z" clip-rule="evenodd"/></mask><g mask="url(#mask0_3180_146293)"><g id="shape"><path id="secondary-color" fill="#FFC229" fill-rule="evenodd" d="M10.28 521c-54.45 0-98.59-44.141-98.59-98.591 0-54.45 44.14-98.591 98.59-98.591h152.946c127.843 0 231.48-103.637 231.48-231.48V-6c0-24.853-20.147-45-45-45-24.852 0-45 20.147-45 45v98.338c0 78.137-63.342 141.48-141.48 141.48H10.28c-104.156 0-188.591 84.435-188.591 188.591S-93.875 611 10.28 611H520c24.853 0 45-20.147 45-45s-20.147-45-45-45H10.28Z" clip-rule="evenodd"/><g id="BlobCorner" clip-path="url(#clip1_3180_146293)" opacity=".06"><path id="Vector" fill="#343A40" fill-rule="evenodd" d="M359.637 571.602c15.699-42.475-6.179-90.668-8.506-137.158-2.262-45.205 11.076-89.395-5.024-133.224-17.852-48.595-43.051-102.278-90.805-127.648-47.677-25.33-103.054-7.742-154.672-2.766-44.35 4.275-85.919 13.662-126.027 29.824-42.512 17.13-86.607 33.385-115.11 67.342-30.456 36.284-49.564 81.836-50.746 130.25-1.208 49.452 15.034 100.198 44.049 144.031 28.444 42.971 69.85 78.789 117.74 100.388 45.127 20.353 94.067 11.698 142.355 16.917 50.732 5.484 103.708 31.012 149.626 14.644 46.749-16.665 80.524-57.698 97.12-102.6Z" clip-rule="evenodd"/></g><g id="BlobCorner_2" clip-path="url(#clip2_3180_146293)" opacity=".06"><path id="Vector_2" fill="#343A40" fill-rule="evenodd" d="M151.7 346.116c28.401 16.687 65.504 10.637 99.326 3.98 30.347-5.972 56.72-24.429 84.534-40.166 28.57-16.165 60.459-27.217 81.285-53.655 21.929-27.839 36.807-62.778 37.592-97.258.773-33.925-15.59-63.717-33.32-90.34-16.295-24.47-38.52-43.207-64.321-56.282C332.205-.067 303.903.38 276.459-4.632c-33.874-6.186-67.828-32.66-100.432-15.984-32.175 16.456-35.566 63.305-54.65 95.305-18.751 31.44-52.804 56.106-56.902 91.74-4.113 35.774 20.576 64.263 35.442 94.888 14.836 30.561 23.303 68.066 51.783 84.799Z" clip-rule="evenodd"/></g></g></g></g><defs><clipPath id="clip0_3180_146293"><path fill="#fff" d="M0 0h320v317H0z"/></clipPath><clipPath id="clip1_3180_146293"><path fill="#fff" d="m225.381 799.689 285.907-470.95L5.802 21.866l-285.907 470.95z"/></clipPath><clipPath id="clip2_3180_146293"><path fill="#fff" d="M453.033-38.281 56.439-26.383l11.832 394.38 396.594-11.899z"/></clipPath></defs></svg>
