<svg width="320" height="203" viewBox="0 0 320 203" fill="none" xmlns="http://www.w3.org/2000/svg"><g clip-path="url(#a)"><path fill="transparent" d="M0 0h320v203H0z"/><mask id="b" style="mask-type:alpha" maskUnits="userSpaceOnUse" x="-1381" y="54" width="2249" height="542"><path fill-rule="evenodd" clip-rule="evenodd" d="M303.136 114c-37.881 0-68.59 30.709-68.59 68.591 0 37.882 30.709 68.591 68.59 68.591h267.017c95.219 0 172.409 77.19 172.409 172.409S665.372 596 570.153 596H-1351c-16.57 0-30-13.431-30-30 0-16.569 13.43-30 30-30H570.153c62.082 0 112.409-50.327 112.409-112.409 0-62.082-50.327-112.409-112.409-112.409H303.136c-71.018 0-128.59-57.572-128.59-128.591S232.118 54 303.136 54h534.719c16.569 0 30 13.431 30 30 0 16.569-13.431 30-30 30H303.136Z" fill="#FFC229"/></mask><g mask="url(#b)"><path fill-rule="evenodd" clip-rule="evenodd" d="M303.136 126c-31.254 0-56.59 25.337-56.59 56.591s25.336 56.591 56.59 56.591h267.017c101.847 0 184.409 82.562 184.409 184.409C754.562 525.437 672 608 570.153 608H-1351c-23.2 0-42-18.804-42-42s18.8-42 42-42H570.153c55.455 0 100.409-44.955 100.409-100.409 0-55.454-44.954-100.409-100.409-100.409H303.136c-77.646 0-140.59-62.945-140.59-140.591C162.546 104.945 225.49 42 303.136 42h534.719c23.196 0 42 18.804 42 42s-18.804 42-42 42H303.136Z" fill="#FFC229"/><g opacity=".06" clip-path="url(#c)"><path fill-rule="evenodd" clip-rule="evenodd" d="M707.494-11.602c15.699 42.475-6.179 90.667-8.505 137.158-2.263 45.205 11.075 89.395-5.025 133.223-17.851 48.596-43.05 102.279-90.805 127.649-47.676 25.329-103.053 7.741-154.672 2.766-44.35-4.275-85.918-13.663-126.026-29.824-42.513-17.131-86.608-33.386-115.11-67.342-30.457-36.284-49.565-81.836-50.747-130.25-1.208-49.453 15.034-100.198 44.049-144.031 28.444-42.972 69.85-78.79 117.741-100.388 45.127-20.353 94.067-11.698 142.355-16.918 50.732-5.483 103.707-31.011 149.625-14.643 46.749 16.664 80.525 57.698 97.12 102.6Z" fill="#343A40"/></g></g></g><defs><clipPath id="a"><path fill="transparent" d="M0 0h320v203H0z"/></clipPath><clipPath id="c"><path fill="#fff" d="m573.242-239.69 285.904 470.952-505.488 306.871L67.754 67.181z"/></clipPath></defs></svg>