<svg width="67" height="75" viewBox="0 0 67 75" fill="none" xmlns="http://www.w3.org/2000/svg">
<g id="mobile_page_top-right-angle" clip-path="url(#clip0_3180_146214)">
<mask id="mask0_3180_146214" style="mask-type:alpha" maskUnits="userSpaceOnUse" x="-142" y="-246" width="2249" height="542">
<path id="mask" fill-rule="evenodd" clip-rule="evenodd" d="M422.864 236C460.745 236 491.454 205.291 491.454 167.409C491.454 129.527 460.745 98.8182 422.864 98.8182L155.847 98.8182C60.6278 98.8182 -16.5625 21.6281 -16.5625 -73.5909C-16.5625 -168.81 60.6276 -246 155.847 -246L2077 -246C2093.57 -246 2107 -232.569 2107 -216C2107 -199.431 2093.57 -186 2077 -186L155.847 -186C93.7646 -186 43.4375 -135.673 43.4375 -73.5909C43.4375 -11.5091 93.7648 38.8182 155.847 38.8182L422.864 38.8182C493.882 38.8182 551.454 96.3903 551.454 167.409C551.454 238.428 493.882 296 422.864 296L-111.855 296C-128.424 296 -141.855 282.569 -141.855 266C-141.855 249.431 -128.424 236 -111.855 236L422.864 236Z" fill="#BBDBFD"/>
</mask>
<g mask="url(#mask0_3180_146214)">
<g id="shape">
<path id="secondary-color" fill-rule="evenodd" clip-rule="evenodd" d="M422.864 224C454.118 224 479.454 198.663 479.454 167.409C479.454 136.155 454.118 110.818 422.864 110.818L155.847 110.818C54.0004 110.818 -28.5625 28.2555 -28.5625 -73.5909C-28.5625 -175.437 54.0002 -258 155.847 -258L2077 -258C2100.2 -258 2119 -239.196 2119 -216C2119 -192.804 2100.2 -174 2077 -174L155.847 -174C100.392 -174 55.4375 -129.045 55.4375 -73.5909C55.4375 -18.1365 100.392 26.8182 155.847 26.8182L422.864 26.8182C500.51 26.8182 563.454 89.7629 563.454 167.409C563.454 245.055 500.51 308 422.864 308L-111.855 308C-135.051 308 -153.855 289.196 -153.855 266C-153.855 242.804 -135.051 224 -111.855 224L422.864 224Z" fill="#FFC229"/>
<g id="BlobCorner" opacity="0.06" clip-path="url(#clip1_3180_146214)">
<path id="Vector" fill-rule="evenodd" clip-rule="evenodd" d="M-11.4944 361.602C-27.1933 319.127 -5.31503 270.935 -2.98861 224.444C-0.726473 179.239 -14.0642 135.049 2.03582 91.2209C19.8871 42.6249 45.0862 -11.0575 92.8406 -36.428C140.517 -61.7572 195.894 -44.1695 247.513 -39.1937C291.863 -34.9185 333.431 -25.5313 373.539 -9.36971C416.052 7.7607 460.147 24.0158 488.649 57.9722C519.106 94.256 538.214 139.808 539.396 188.222C540.604 237.675 524.362 288.42 495.347 332.253C466.903 375.225 425.497 411.042 377.606 432.641C332.479 452.994 283.539 444.339 235.251 449.559C184.519 455.042 131.544 480.57 85.6256 464.202C38.877 447.538 5.10129 406.504 -11.4944 361.602Z" fill="#343A40"/>
</g>
<g id="BlobCorner_2" opacity="0.15" clip-path="url(#clip2_3180_146214)">
<path id="Vector_2" fill-rule="evenodd" clip-rule="evenodd" d="M256.443 136.117C228.041 152.804 190.939 146.754 157.116 140.097C126.769 134.124 100.396 115.668 72.5823 99.931C44.0128 83.7662 12.1237 72.7141 -8.70209 46.2761C-30.6314 18.4371 -45.5095 -16.5023 -46.2948 -50.9817C-47.0674 -84.9067 -30.7042 -114.699 -12.9744 -141.322C3.32043 -165.791 25.5457 -184.529 51.3468 -197.604C75.9375 -210.066 104.24 -209.619 131.684 -214.631C165.557 -220.817 199.512 -247.291 232.116 -230.615C264.29 -214.159 267.682 -167.31 286.766 -135.31C305.517 -103.87 339.57 -79.2045 343.667 -43.5701C347.781 -7.79559 323.091 20.693 308.225 51.3179C293.39 81.8793 284.923 119.384 256.443 136.117Z" fill="white"/>
</g>
</g>
</g>
</g>
<defs>
<clipPath id="clip0_3180_146214">
<rect width="67" height="75" fill="white" transform="translate(67 75) rotate(-180)"/>
</clipPath>
<clipPath id="clip1_3180_146214">
<rect width="550.942" height="591.344" fill="white" transform="translate(122.762 589.69) rotate(-121.261)"/>
</clipPath>
<clipPath id="clip2_3180_146214">
<rect width="396.773" height="394.557" fill="white" transform="translate(-44.8906 -248.28) rotate(1.71845)"/>
</clipPath>
</defs>
</svg>
