<svg width="48" height="48" viewBox="0 0 48 48" fill="none" xmlns="http://www.w3.org/2000/svg">
<rect width="48" height="48" rx="24" fill="#9BCD41" fill-opacity="0.1"/>
<g clip-path="url(#clip0_7920_77074)">
<path d="M18.75 23.25V33.735C18.7505 33.9326 18.7022 34.1273 18.6094 34.3017C18.5166 34.4762 18.3822 34.625 18.218 34.735V34.735C17.7091 35.0738 17.1114 35.2546 16.5 35.2546C15.8886 35.2546 15.2909 35.0738 14.782 34.735V34.735C14.6178 34.625 14.4834 34.4762 14.3906 34.3017C14.2978 34.1273 14.2495 33.9326 14.25 33.735V23.25" stroke="#699C00" stroke-width="1.5" stroke-linecap="round" stroke-linejoin="round"/>
<path d="M14.25 23.25C14.25 23.6478 14.4871 24.0294 14.909 24.3107C15.331 24.592 15.9033 24.75 16.5 24.75C17.0967 24.75 17.669 24.592 18.091 24.3107C18.5129 24.0294 18.75 23.6478 18.75 23.25C18.75 22.8522 18.5129 22.4706 18.091 22.1893C17.669 21.908 17.0967 21.75 16.5 21.75C15.9033 21.75 15.331 21.908 14.909 22.1893C14.4871 22.4706 14.25 22.8522 14.25 23.25V23.25Z" stroke="#699C00" stroke-width="1.5" stroke-linecap="round" stroke-linejoin="round"/>
<path d="M26.25 18.75V33.735C26.2505 33.9326 26.2022 34.1273 26.1094 34.3017C26.0166 34.4762 25.8822 34.625 25.718 34.735V34.735C25.2091 35.0738 24.6114 35.2546 24 35.2546C23.3886 35.2546 22.7909 35.0738 22.282 34.735V34.735C22.1178 34.625 21.9834 34.4762 21.8906 34.3017C21.7978 34.1273 21.7495 33.9326 21.75 33.735V18.75" stroke="#699C00" stroke-width="1.5" stroke-linecap="round" stroke-linejoin="round"/>
<path d="M21.75 18.75C21.75 19.1478 21.9871 19.5294 22.409 19.8107C22.831 20.092 23.4033 20.25 24 20.25C24.5967 20.25 25.169 20.092 25.591 19.8107C26.0129 19.5294 26.25 19.1478 26.25 18.75C26.25 18.3522 26.0129 17.9706 25.591 17.6893C25.169 17.408 24.5967 17.25 24 17.25C23.4033 17.25 22.831 17.408 22.409 17.6893C21.9871 17.9706 21.75 18.3522 21.75 18.75Z" stroke="#699C00" stroke-width="1.5" stroke-linecap="round" stroke-linejoin="round"/>
<path d="M33.75 14.25V33.735C33.7505 33.9326 33.7022 34.1273 33.6094 34.3017C33.5166 34.4762 33.3822 34.625 33.218 34.735V34.735C32.7091 35.0738 32.1114 35.2546 31.5 35.2546C30.8886 35.2546 30.2909 35.0738 29.782 34.735V34.735C29.6178 34.625 29.4834 34.4762 29.3906 34.3017C29.2978 34.1273 29.2495 33.9326 29.25 33.735V14.25" stroke="#699C00" stroke-width="1.5" stroke-linecap="round" stroke-linejoin="round"/>
<path d="M29.25 14.25C29.25 14.6478 29.4871 15.0294 29.909 15.3107C30.331 15.592 30.9033 15.75 31.5 15.75C32.0967 15.75 32.669 15.592 33.091 15.3107C33.5129 15.0294 33.75 14.6478 33.75 14.25C33.75 13.8522 33.5129 13.4706 33.091 13.1893C32.669 12.908 32.0967 12.75 31.5 12.75C30.9033 12.75 30.331 12.908 29.909 13.1893C29.4871 13.4706 29.25 13.8522 29.25 14.25V14.25Z" stroke="#699C00" stroke-width="1.5" stroke-linecap="round" stroke-linejoin="round"/>
</g>
<defs>
<clipPath id="clip0_7920_77074">
<rect width="24" height="24" fill="white" transform="translate(12 12)"/>
</clipPath>
</defs>
</svg>
