<?xml version="1.0" encoding="UTF-8"?>
<svg id="non-eligible" xmlns="http://www.w3.org/2000/svg" viewBox="0 0 500 500">
  <defs>
    <style>
      .cls-1 {
        fill: #fff;
      }

      .cls-2 {
        fill: #71a52e;
      }

      .cls-3 {
        fill: #030f40;
      }

      .cls-4 {
        fill: #f9bc13;
      }

      .cls-5 {
        opacity: .1;
      }
    </style>
  </defs>
  <g id="secondary-color">
    <g class="cls-5">
      <path class="cls-4" d="m118.46,340.77c-.29-7.37-.59-14.74-.88-22.11-.02-.65-.03-1.3.01-1.94.67-9.84-1.35-19.2-5.28-28.15-5.45-12.38-10.36-24.96-14.81-37.73-2.33-6.69-3.64-13.62-5.03-20.53-1.58-7.88-1.7-15.81-1.17-23.8.51-7.58,1.95-14.95,4.44-22.1,1.93-5.54,3.97-11.04,6.09-16.51.61-1.59,1.54-3.09,2.53-4.48,5.59-7.76,11.87-14.91,19.11-21.19,2.97-2.58,5.84-5.26,8.76-7.9,6.37-5.76,12.08-12.14,17.44-18.83,6.06-7.56,11.99-15.23,18.01-22.83,5.08-6.41,10.08-12.9,15.36-19.15,8.89-10.52,19.34-19.35,30.82-26.9,13.64-8.97,28.51-15.08,44.59-18.18,9.81-1.89,19.68-1.99,29.61-1.47,11.45.6,22.4,3.56,33.33,6.72,7.37,2.13,14.5,4.86,21.5,7.94,6.57,2.9,12.79,6.43,18.58,10.7,1.82,1.34,3.7,2.62,5.44,4.06,2.07,1.71,4.13,3.46,6.01,5.38,3.05,3.12,5.94,6.39,8.91,9.58,1.31,1.41,2.15,3.05,2.78,4.86,2.8,8.04,5,16.26,7.07,24.51,1.33,5.31,3.3,10.31,5.75,15.2,7.56,15.12,13.42,30.9,17.69,47.26,3.94,15.1,4.72,30.4,2.71,45.84-2.03,15.53-6.91,30.07-15.37,43.34-8.21,12.88-17.37,25.04-27.41,36.54-4.53,5.19-9.01,10.44-13.63,15.55-13.99,15.51-23.53,33.51-29.76,53.33-2.02,6.42-3.74,12.93-5.45,19.43-.93,3.55-2.06,7.01-3.47,10.4-3.1,7.45-6.14,14.93-9.16,22.42-.87,2.16-1.96,4.18-3.33,6.07-3.62,4.96-7.2,9.95-10.85,14.88-4.44,5.99-9.53,11.4-15.11,16.34-5.53,4.9-11.25,9.56-17.51,13.49-1.53.96-3.22,1.76-4.94,2.31-10.04,3.22-20.33,5.18-30.83,6.11-19.16,1.69-37.79-1.07-56.12-6.57-4.14-1.24-7.85-3.05-11.32-5.64-6.76-5.05-13.11-10.52-18.57-16.95-2.4-2.82-4.68-5.78-6.71-8.88-5.89-9-10.87-18.46-13.92-28.85-2.04-6.95-3.21-14.06-4.07-21.23-1-8.35-1.45-16.74-1.62-25.14-.1-5.06-.21-10.12-.31-15.18.04,0,.08,0,.12,0Z"/>
    </g>
  </g>
  <g id="invariable">
    <path class="cls-3" d="m166.71,136.22c.2-.73.32-1.19.44-1.65,2.45-9.48,4.85-18.98,7.37-28.45,1.18-4.42,2.48-8.81,3.91-13.15,1.36-4.15,3.24-8.09,5.46-11.87,3.53-6,7.87-7.81,14.57-5.96,1.91.53,3.76,1.3,5.61,2.04,1.93.77,3.89,1.3,5.97,1.11.57-.05,1.2-.15,1.7-.42,3.32-1.8,6.14-4.19,8.13-7.44,1.06-1.72,1.55-3.66,1.31-5.71-.41-3.45-1.62-6.69-2.82-9.91-.51-1.36-1.06-2.71-1.66-4.03-.35-.76-.84-1.46-1.36-2.36-.79.44-1.49.71-2.04,1.16-.82.67-1.63.68-2.56.33-3.69-1.37-6.01-6-4.91-9.79.29-.99.82-1.73,1.71-2.15-.6-1.85-1.28-3.6-1.75-5.41-2.11-8-.32-15.24,4.45-21.84,1.62-2.24,3.49-4.26,5.77-5.83,1.27-.88,2.7-1.54,4.07-2.28.42-.23.92-.33,1.33-.57,3.85-2.28,7.97-2.36,12.21-1.56,4.34.81,8.37,2.45,12.11,4.75,5.47,3.36,10.36,7.33,13.79,12.9,2.28,3.7,3.52,7.73,4.12,11.97.58,4.13.74,8.26-.17,12.37-.55,2.51-1.61,4.79-3.17,6.83-3.43,4.49-7.79,7.69-13.16,9.5-.5.17-1,.35-1.61.56.64,3.65,1.21,7.26,2.56,10.68.63,1.59,1.3,3.21,2.23,4.64,1.66,2.54,4.1,3.78,7.18,3.41,1.49-.18,2.95-.6,4.42-.91,1.89-.4,3.78-.83,5.68-1.17,3.68-.66,7.04.34,10.21,2.15,3.22,1.84,5.87,4.36,8.28,7.14,2.81,3.23,5.07,6.83,7.1,10.58,2.9,5.35,5.76,10.72,8.58,16.11,1.51,2.88,3.31,5.55,5.35,8.06,1.99,2.45,3.99,4.9,6.07,7.46.15-.36.29-.63.39-.92,1.59-4.62,3.83-8.89,6.69-12.85,4.26-5.89,8.6-11.73,12.68-17.74,2.78-4.09,5.21-8.42,7.77-12.66,2.45-4.05,4.85-8.14,7.31-12.19,1.76-2.9,3.97-5.34,7.13-6.83,1.85-.87,3.6-1.96,5.45-2.8,2.42-1.09,4.72-2.35,6.85-3.93,2.17-1.62,4.54-2.88,7.04-3.92,1.16-.48,1.83-.08,1.66,1.19-.15,1.05-.43,2.15-.95,3.05-1.11,1.9-2.41,3.68-3.65,5.51-.2.29-.45.55-.94,1.13,2.56-.26,4.74-.41,6.9-.73,4.1-.6,8.19-1.31,12.29-1.92,2.02-.3,4.06-.54,6.1-.68,1-.07,2.04.11,3.04.3.35.07.82.47.87.77.05.31-.28.84-.59,1.01-.94.52-1.94.93-2.93,1.33-.68.28-1.4.46-2.06.9,1.85.12,3.7.22,5.54.39,1.07.1,2.13.28,3.18.51.63.14,1.31.38,1.36,1.18.05.77-.54,1.18-1.14,1.41-1.1.42-2.24.75-3.37,1.09-.76.23-1.53.39-2.51.64.41.34.62.49.81.67,1.06,1.02.98,1.87-.39,2.46-1.18.5-2.45.8-3.7,1.11-1.35.33-2.71.57-4.35.9.49.43.79.68,1.08.94.89.78.95,1.56,0,2.27-.67.51-1.47.95-2.28,1.14-2.25.52-4.51,1.04-6.8,1.28-6.21.64-12.44,1.16-18.66,1.67-1.49.12-3,.02-4.75.02-.79,1.81-1.74,3.68-2.45,5.63-2.93,8.1-5.64,16.28-8.73,24.32-2.89,7.53-6.02,14.99-9.31,22.36-2.81,6.29-6.67,11.92-11.81,16.61-1.8,1.65-3.78,3.03-5.94,4.15-1.08.56-2.14.74-3.41.53-3.96-.66-7.77-1.84-11.39-3.51-3.81-1.76-7.53-3.7-11.21-5.72-4.68-2.57-9.06-5.61-13.25-8.92-.59-.47-1.21-.88-1.88-1.38-.61.86-.69,1.76-.67,2.72.23,10.61.23,21.22-.54,31.81-.61,8.49-1.37,16.96-2.11,25.43-.31,3.59-.75,7.18-1.15,10.76-.09.82.11,1.49.41,2.28.58,1.54,1.03,3.22,1.08,4.85.2,5.63,1.36,11.11,2.2,16.64,1.81,11.93,3.57,23.86,4.71,35.87,1.2,12.65,2.49,25.29,3.72,37.94.41,4.23.54,8.5,1.16,12.71,1.3,8.82,1.27,17.72,1.97,26.57,1.45,18.39,1.36,36.8,1.04,55.22-.14,8.18-.34,16.37-.42,24.55-.03,3.28.13,6.57.33,9.85.09,1.49.45,2.97.74,4.45.22,1.1.25,2.1-.58,3.03-.28.31-.39.87-.41,1.33-.06,1.35-.04,2.69-.04,4.04,0,2.58.08,5.17-.02,7.75-.1,2.68.78,5,2.41,7.01,1.04,1.29,2.25,2.47,3.54,3.51,3.37,2.71,7.12,4.83,10.94,6.83,3.96,2.07,7.85,4.27,11.81,6.35,2.24,1.18,4.56,2.18,6.81,3.34,1.9.99,3.83,1.97,5.59,3.18,1.95,1.34,3.22,3.32,4.03,5.54.74,2.02.36,3.38-1.32,4.72-3.02,2.41-6.32,4.01-10.34,3.94-2.36-.04-4.72.25-7.08.4-4.02.27-7.95-.3-11.86-1.12-7.12-1.49-14.15-3.32-21.08-5.54-.77-.25-1.56-.41-2.35-.59-1.08-.26-2.12-.2-3.14.3-1.72.84-3.53.93-5.35.38-1.24-.37-2.5-.71-3.66-1.24-2.81-1.31-4.47-3.46-4.52-6.68-.1-5.81-.25-11.62-.31-17.44-.02-2.53.19-5.06.22-7.59.04-3.61.01-7.21.01-10.82v-7.32c-.43-.15-.83-.28-1.23-.41-1.94-.62-2.68-1.69-2.54-3.75.09-1.29.27-2.57.32-3.86.2-5.76.28-11.52.55-17.28.2-4.3.63-8.59.92-12.88.11-1.61.15-3.22.18-4.84.06-4.25.03-8.51.15-12.76.2-6.62.15-13.23-.39-19.85-.67-8.22-1.89-16.36-2.93-24.53-.6-4.7-.92-9.43-1.36-14.15-.68-7.25-1.98-14.39-3.5-21.51-1.36-6.37-2.4-12.8-3.68-19.19-1.89-9.39-3.93-18.76-6.43-28.01-.29-1.09-.64-2.18-1.09-3.21-.9-2.05-2.26-2.55-4.32-1.75-1.37.54-2.31,1.44-2.98,2.78-5.47,10.92-9.89,22.18-12.71,34.12-2.99,12.7-5.45,25.47-7.39,38.37-.83,5.48-2.06,10.9-2.93,16.37-1.77,11.06-3.4,22.14-5.12,33.2-.85,5.48-1.85,10.94-2.65,16.43-.4,2.76-.64,5.57-.72,8.36-.25,9.64-.34,19.28-1.13,28.89-.2,2.36-.43,4.72-.61,7.08-.15,1.96-.69,3.62-2.93,4.08-.02.42-.05.74-.05,1.05.12,5.6.27,11.19.37,16.79.04,2.15.09,4.3-.07,6.44-.2,2.68-.55,5.36-.97,8.01-.29,1.91-.63,3.84-1.23,5.67-.86,2.59-2.74,4.39-5.3,5.29-2.42.85-4.66,2.03-6.71,3.5-5.23,3.75-11.22,5.38-17.4,6.46-5.43.95-10.93,1.14-16.42.96-3.1-.1-6.22-.46-9.21-1.5-1.47-.51-2.5-1.42-3.2-2.77-.82-1.59-.87-3.33-.78-5.04.03-.58.44-1.23.84-1.69.88-1.01,1.78-2.04,2.83-2.87,4.38-3.48,8.8-6.93,13.25-10.32,2.61-1.99,5.33-3.85,7.97-5.8,3.79-2.79,7.04-6.17,10.3-9.54.52-.54.79-1.15.75-1.89-.08-1.77-.16-3.55-.25-5.32-.11-2.04-.22-4.08-.34-6.13-.02-.42-.07-.84-.12-1.42-.55.06-1,.11-1.46.15-1.49.14-2.25-.51-2.34-1.96-.57-9.64-.21-19.26.81-28.86.41-3.91.49-7.85.9-11.75.69-6.53,1.27-13.09,2.34-19.56,2.57-15.51,5.43-30.97,8.11-46.46.97-5.62,1.64-11.3,2.67-16.91,1.55-8.47,3.3-16.91,4.97-25.36,2.15-10.93,4.19-21.89,6.5-32.8,1.91-9.06,4.2-18.04,6.21-27.08,1.15-5.15,2.07-10.34,3.12-15.51.26-1.27.59-2.52.95-3.76.23-.77.39-1.65.89-2.23,1.05-1.24,1.01-2.66,1.08-4.1.21-4.57.39-9.15.63-13.72.54-9.96-.35-19.78-2.37-29.54-1.55-7.5-3.32-14.92-5.56-22.24-.63-2.04-1.11-4.13-1.76-6.55-.41.72-.69,1.19-.96,1.67-5.47,9.67-11.33,19.08-18.47,27.63-1.72,2.07-3.46,4.13-5.28,6.11-.94,1.03-2,1.96-3.12,2.8-2.2,1.65-4.56,1.7-6.99.47-2.22-1.13-4.24-2.54-6.08-4.22-5.18-4.73-9.03-10.43-11.88-16.76-3.93-8.74-7.69-17.56-10.86-26.61-2.44-6.96-4.93-13.9-7.42-20.84-.32-.9-.72-1.77-1.08-2.67-6.66,2.87-13.2,5.64-19.69,8.52-2.33,1.04-4.74,1.77-7.21,2.3-.67.15-1.4.17-2.08.11-1.5-.15-1.9-.92-1.3-2.34.08-.2.17-.39.24-.59.02-.05,0-.11.02-.31-.43.07-.83.11-1.22.21-1.76.48-3.52.99-5.28,1.48-.31.09-.63.14-.95.18-1.92.21-2.49-.52-1.83-2.31.04-.1.06-.2.15-.49-.45.06-.84.08-1.22.16-1.42.3-2.83.67-4.26.9-.78.13-1.73.21-2.1-.73-.34-.86.34-1.45.95-1.87,1.89-1.33,3.83-2.6,5.75-3.88.44-.29.9-.56,1.28-.98-1.26.2-2.53.42-3.79.58-.58.07-1.19.1-1.77,0-.37-.06-.9-.33-.99-.61-.09-.3.18-.83.45-1.08.55-.51,1.17-.98,1.83-1.31,1.35-.67,2.71-1.32,4.12-1.84,3.64-1.33,7.31-2.56,10.95-3.89,3.07-1.12,6.12-2.33,9.52-3.63-.75-.32-1.13-.46-1.48-.64-1.99-1.06-4.02-2.07-5.95-3.23-.8-.49-1.49-1.25-2.05-2.02-.9-1.25-.39-2.55,1.11-2.76,1.15-.16,2.37-.13,3.51.08,4.45.82,8.88,1.5,13.46,1.02,5.21-.55,10.29.53,15.28,2.01,1.36.4,2.47,1.24,3.42,2.34,4.99,5.84,9.03,12.32,12.69,19.05,4.79,8.79,9.45,17.66,15.32,25.82.61.85,1.17,1.75,1.89,2.84Zm145.66-6.87c-1.25-1.45-2.36-2.83-3.58-4.11-2.95-3.08-5.68-6.32-7.79-10.06-3.01-5.35-6.12-10.64-9.15-15.98-2.66-4.7-5.57-9.21-9.16-13.27-2.01-2.27-4.28-4.25-6.87-5.84-2.44-1.49-5.1-2.43-7.98-2.05-2.34.31-4.62.98-6.93,1.51-1.57.36-3.13.79-4.7,1.14-1.65.37-3.21.07-4.64-.83-.58-.37-1.17-.74-1.74-1.09-2.24,2.33-3.08,3.01-6.27,4.24-2.25.87-4.56,1.72-6.92,2.14-8.13,1.46-15.55.15-21.48-6.17-.03-.04-.09-.04-.23-.11-.22.13-.5.27-.77.44-1.67,1.1-3.51,1.55-5.51,1.52-1.87-.03-3.6-.55-5.31-1.23-1.9-.75-3.79-1.56-5.75-2.12-5.51-1.59-8.6-.37-11.63,4.47-2.18,3.48-3.89,7.19-5.27,11.06-2.87,8.02-4.94,16.26-7.03,24.51-1.59,6.31-3.29,12.6-4.96,18.89-.19.71-.28,1.27.27,1.92,3.67,4.35,5.15,9.47,5.27,15.08.12,5.65-.61,11.17-2.16,16.59-.16.56-.29,1.12-.47,1.79.3-.1.47-.12.57-.21.47-.44.97-.86,1.38-1.35,4.5-5.42,9.43-10.48,13.44-16.32,5.47-7.95,10.85-15.92,14.47-24.94.55-1.37,1.55-2.56,2.39-3.8.16-.24.56-.32.84-.47.09.08.17.15.26.23-.79,2.88-2.69,5.29-3.64,7.82.7,1.34,1.42,2.42,1.85,3.61,3.28,9.19,5.88,18.57,7.46,28.22,1.31,8,2.04,16.01,1.51,24.12-.41,6.23-.67,12.47-1.09,18.7-.1,1.45.25,2.37,1.68,2.82.51.16.97.46,1.46.68,8.77,3.98,17.89,6.46,27.57,6.8,7.62.27,15.17.2,22.56-2.12,2.54-.8,4.71-2.09,6.7-3.75.28-.23.49-.7.51-1.07.36-4.99.53-10,1.05-14.97,1.76-17.05,2.91-34.13,2.64-51.27-.16-9.82.73-19.58,1.22-29.36.02-.48.24-.96.4-1.54,1.09.49,1.03,1.3,1.06,2,.14,2.63.28,5.27.32,7.9.04,3.39.03,6.78-.06,10.17-.03,1.11.34,1.76,1.27,2.35,3.82,2.42,7.59,4.91,11.38,7.38,6.54,4.25,13.57,7.47,21,9.83.29.09.6.12,1.02.2-1.03-1.61-2-3.09-2.94-4.58-2.02-3.19-2.3-6.66-1.59-10.27.64-3.32,1.97-6.36,4.06-9.31Zm-96.84-82.65c1.03,1.52,2.14,2.79,2.84,4.26,1.3,2.71,2.42,5.52,3.49,8.33.63,1.65,1.06,3.38,1.48,5.11.85,3.46-.34,6.34-2.7,8.84-1.32,1.4-2.62,2.82-4.04,4.34.76.51,1.44,1.02,2.18,1.44.89.51,1.79,1,2.73,1.39,8.04,3.3,15.79,2.35,23.32-1.66,1.16-.62,2.04-1.54,2.78-2.57-1.36-2.54-2.54-5.08-2.96-7.88-.42-2.79-.7-5.61-1.03-8.37-1.07,0-2.19.05-3.31-.01-1.11-.07-2.31,0-3.33-1.34.84-.03,1.4-.02,1.96-.07,1.55-.12,3.13-.09,4.64-.42,5.97-1.3,10.68-4.65,14.6-9.24,1.64-1.92,2.74-4.1,3.36-6.54,1-3.93.88-7.91.48-11.88-.44-4.33-1.8-8.38-4.24-12.06-3.58-5.39-8.52-9.2-14-12.42-1.07-.63-1.74-.51-2.61.33-.75.72-1.08,1.56-.76,2.63.32,1.08.68,2.17.83,3.28.32,2.38-.66,3.88-2.99,4.41-1.51.35-3.08.52-4.63.57-2.37.08-4.74-.01-7.1-.03-2.31-.01-4.45.66-6.51,1.65-.81.39-1.38.98-1.77,1.8-.8,1.72-.64,5.16.47,7.17.55-1.35,1.03-2.58,1.57-3.79.13-.29.47-.58.76-.66.16-.04.55.32.65.57.95,2.28,2,4.52,2.74,6.87.84,2.63-.17,4.49-2.64,5.51-.06.63-.07,1.28-.19,1.91-.37,1.9-1.81,2.71-3.6,2-.69-.27-1.35-.68-1.94-1.14-2.5-1.98-5.03-1.52-7.5-.07-.57.34-1.06,1.12-1.24,1.79-.68,2.48.83,5.98,3.03,7.34,1.38.85,2.44.81,3.72-.17.41-.33.81-.68,1.49-1.24Zm96.56,87.67c-.33.77-.59,1.29-.78,1.83-.77,2.15-1.12,4.37-1.12,6.66,0,5.01,2.3,8.73,6.38,11.48.98.66,1.95.71,3.03.14,1.99-1.04,3.7-2.4,5.23-4.01,3.58-3.77,6.77-7.86,8.97-12.58,2.53-5.41,4.94-10.88,7.16-16.43,4.85-12.09,9.13-24.41,14.41-36.33.32-.72.54-1.48.81-2.25-1.64-.78-3.51-.74-4.75-2.26,1.48-.39,2.75-.09,3.94.33,3.78,1.31,7.64,1.07,11.51.67,2.52-.26,5.03-.59,7.54-.9,3.15-.39,6.31-.73,9.45-1.2,1.85-.28,3.61-.92,5.65-1.94-.81-.26-1.29-.51-1.78-.55-1.6-.12-3.22-.3-4.82-.21-2.58.13-5.15.48-7.72.68-.6.05-1.21-.1-1.82-.17-.02-.14-.05-.28-.07-.42.51-.21,1-.54,1.53-.62,2.5-.37,5.02-.65,7.52-1.02,4.21-.62,8.41-1.27,12.6-1.94.71-.11,1.38-.42,2.07-.64-1.85-.88-3.72-.95-5.59-.82-2.9.2-5.79.52-8.69.73-2.95.21-5.91.36-8.86.5-.5.02-1-.11-1.56-.18.18-.94.8-.84,1.29-.89,4.87-.54,9.73-1.19,14.61-1.56,4.26-.32,8.45-.92,12.58-1.97.58-.15,1.28-.14,1.72-.85-.46-.09-.82-.18-1.18-.23-4.47-.62-8.91-.26-13.36.27-4.7.57-9.43.96-14.14,1.39-.59.05-1.29.28-1.88-.43.32-.16.57-.37.85-.41,2.18-.35,4.36-.71,6.54-1,6.16-.8,12.15-2.34,18.05-4.24.3-.1.57-.32.85-.48-.64-.32-1.22-.47-1.79-.42-2.3.21-4.63.32-6.89.75-6.5,1.24-12.95,2.82-19.59,3.18-.76.04-1.33.37-1.75.99-1.06,1.55-2.11,3.12-3.2,4.64-.21.3-.62.46-.94.68-.18-.36-.48-.7-.52-1.07-.04-.4.15-.84.28-1.24.66-1.99,1.94-3.58,3.3-5.13,1.6-1.82,3.28-3.57,4.8-5.46,1-1.25,1.79-2.67,2.63-4.04.16-.27.12-.66.23-1.35-.88.5-1.51.77-2.04,1.18-.69.52-1.26,1.19-1.95,1.69-2.22,1.61-4.35,3.38-6.73,4.71-3.28,1.83-6.93,2.9-10.13,4.97-1,.65-2,1.23-2.68,2.16-.98,1.34-1.86,2.76-2.67,4.22-2.47,4.48-4.78,9.05-7.34,13.47-5.77,9.98-12.12,19.6-18.87,28.95-2.65,3.68-5.01,7.54-6.8,11.71-1.19,2.79-2.09,5.66-2.12,8.73,0,.13-.11.26-.17.38-.16-.04-.32-.03-.35-.09-.26-.47-.49-.95-.89-1.77Zm-182.72-32.22c.02.17,0,.28.04.37,3.39,7.1,6.1,14.48,8.96,21.8,3.48,8.92,7.01,17.84,10.66,26.69,2.65,6.42,6.34,12.21,11.17,17.26,2.27,2.38,4.89,4.17,8.09,5.29.15-.42.32-.81.42-1.21.45-1.83.87-3.67,1.32-5.5,1.32-5.3,1.43-10.71.77-16.05-.66-5.29-2.98-10.09-6.09-14.43-2.6-3.63-5.39-7.12-7.53-11.08-2.53-4.69-5.12-9.34-7.71-14-.6-1.08-1.29-2.11-1.96-3.16-.84-1.31-1.78-2.57-2.55-3.92-2.77-4.82-6.29-9.13-9.37-13.73-1.73-2.58-4.24-3.81-7.07-4.39-2.67-.55-5.4-.91-8.17-.56-5.44.68-10.84.68-16.18-.83-.97-.28-2.01-.37-3.18.14.42.39.71.79,1.11,1,1.32.72,2.63,1.47,4.02,2.04,2.29.93,4.64,1.72,6.96,2.59,1.82.68,3.58,1.51,5.01,2.87.31.29.68.6.81.98.12.34-.05.78-.1,1.18-.34-.06-.72-.04-1.02-.2-1.58-.8-3.14-1.64-4.7-2.47-.92-.49-1.78-.45-2.76-.03-2.42,1.04-4.86,2.05-7.36,2.89-3.41,1.15-6.91,2.07-10.32,3.22-2.39.81-4.71,1.81-7.04,2.79-.59.25-1.07.73-1.61,1.1.46.23.79.24,1.09.18,6.24-1.2,12.41-2.67,18.35-4.99,1.9-.74,3.85-1.38,5.78-2.04.29-.1.63-.05.95-.07.04.13.09.25.13.38-.53.31-1.03.67-1.58.9-4.71,1.98-9.41,3.98-14.16,5.88-3.86,1.54-7.61,3.28-10.96,5.78-.27.2-.48.47-.94.93.64-.08.97-.07,1.26-.17,3.24-1,6.53-1.83,9.69-3.05,4.97-1.92,9.83-4.1,14.75-6.16.89-.37,1.8-.7,2.73-.99.21-.07.5.14,1.06.32-.68.47-1.08.83-1.54,1.05-2.58,1.22-5.16,2.42-7.75,3.6-3.33,1.51-6.68,2.98-10,4.52-1.1.51-2.07,1.24-2.85,2.29.67.04,1.3,0,1.88-.2,3.52-1.18,7.04-2.35,10.53-3.61,2.93-1.06,5.82-2.24,8.74-3.35.57-.22,1.19-.5,2.04.11-.58.39-1,.77-1.5.99-2.11.94-4.24,1.86-6.38,2.73-1.8.74-3.53,1.61-5.02,2.87-.39.33-.72.71-1.33,1.32.69,0,1,.05,1.28,0,1.94-.42,3.97-.64,5.81-1.33,5.74-2.16,11.43-4.45,17.09-6.81,2.79-1.16,5.39-2.7,7.44-5.01.43-.48.94-.9,1.46-1.27.55-.39,1.16-.68,1.74-1.01-.67,2.59-2.86,3.83-4.42,5.53Zm160.03,357.81c-.32.43-.48.57-.55.75-.93,2.5-2.91,3.61-5.38,4.1-4.18.84-8.36.88-12.48-.28-1.16-.33-2.18-1.1-3.27-1.67-.24-.13-.47-.3-.89-.57,0,.76,0,1.3,0,1.82.04,3.88.08,7.75.14,11.63.03,1.67.17,3.34.16,5,0,1.05.47,1.52,1.42,1.82,1.84.58,3.71.72,5.59.48,2.95-.38,5.8.07,8.6.92,2.01.61,3.98,1.35,6.01,1.88,8.24,2.11,16.48,4.19,24.74,6.22,3.57.87,7.19,1.3,10.89.77,2.56-.37,4.74-1.51,7.16-2.83-.91-.9-1.57-1.79-2.44-2.35-1.48-.96-3.07-1.76-4.66-2.55-2.16-1.09-4.39-2.04-6.53-3.17-3.8-2.02-7.55-4.15-11.33-6.21-3.51-1.91-6.9-3.98-10.03-6.46-3.08-2.45-5.8-5.15-7.14-9.31Zm-112.44-.09c-.31.36-.56.64-.79.93-3.24,4-6.84,7.6-11.08,10.54-3.23,2.24-6.54,4.37-9.7,6.69-3.77,2.77-7.42,5.7-11.11,8.58-.52.41-.93.95-1.59,1.62,1.2.16,2.05.29,2.89.39,6.91.76,13.76.4,20.55-1.06,7.6-1.64,15.12-3.49,21.59-8.15,1.08-.78,2.36-1.04,3.67-1.06.7-.01,1.4,0,2.1.05,1.25.07,2.08-.5,2.47-1.65,1.6-4.61,1.7-9.34,1.05-14.11-.19-.02-.31-.07-.4-.04-4.39,1.27-8.85,1.06-13.3.48-2.39-.31-4.57-1.2-6.35-3.22Zm90.66.38c1.42.39,2.65.74,3.89,1.08,4.03,1.09,8.09,1.01,12.14.15.51-.11,1.15-.25,1.46-.61,1.4-1.6,2.83-3.12,2.81-5.55-.03-3.81.23-7.63.37-11.44.01-.41,0-.83,0-1.35-6.91-.42-13.71.36-20.62.04-.46,5.92-.11,11.76-.05,17.67Zm-70.88-15.44c-2.72,1.02-5.29.77-7.85.47-1.76-.21-3.51-.52-5.26-.81-2-.33-4-.7-6.15-1.08.11,5.12.22,10.09.33,15.18,5,1.57,10.15,1.99,15.39,1.38.85-.1,1.69-.32,2.5-.6,1.35-.46,1.5-.67,1.48-2.1-.04-3.17-.12-6.34-.2-9.51-.02-.85-.13-1.7-.23-2.94Zm-1.08,36.87c-1.05,0-1.97.08-2.87-.02-1.64-.17-3.04.25-4.4,1.18-2.63,1.8-5.41,3.32-8.44,4.37-4.84,1.68-9.8,2.91-14.83,3.89-7.22,1.39-14.43,1.64-21.66.19-.76-.15-1.54-.21-2.67-.35.49,1.3.83,2.24,1.22,3.16.26.63.79.97,1.45,1.17,3.39,1,6.86,1.27,10.37,1.26,1.4,0,2.79-.16,4.19-.23,4.69-.25,9.31-.92,13.89-1.96,5.8-1.31,11.14-3.6,15.85-7.3.99-.78,2.28-1.16,3.42-1.75,1.33-.69,2.66-1.38,3.97-2.1.6-.33.79-.84.5-1.51Zm137,10.59c-.46-.15-.53-.19-.56-.17-.23.12-.46.25-.68.4-2.86,1.89-5.98,2.92-9.44,2.79-3.45-.12-6.87-.46-10.22-1.31-2.81-.71-5.61-1.51-8.46-2.08-7.22-1.45-14.48-2.72-21.49-5.07-2.18-.73-4.45-1.35-6.81-1.06-2.45.29-4.83.12-7.15-.75-.07-.02-.17.08-.31.14-.13,1.72.83,2.89,2.23,3.57,1.39.68,2.92,1.06,4.39,1.54.96.31,1.94.26,2.85-.14,2.41-1.05,4.82-.87,7.26-.15,3.25.96,6.46,2.08,9.75,2.85,6.86,1.61,13.77,2.97,20.63,4.56,2.1.49,4.13.52,6.21.1.42-.09.85-.13,1.28-.18,3.45-.43,6.49-1.86,9.29-3.85.4-.28.71-.7,1.21-1.19ZM221.19,24.98c-.66,1.78-1.35,3.36-1.82,4.99-.27.95-.32,2.04-.17,3.02.11.73.57,1.52,1.11,2.04.93.89,2.16.62,2.58-.58.35-.98.52-2.09.47-3.13-.09-2.23-1.17-4.18-2.18-6.35Z"/>
    <path class="cls-1" d="m215.53,46.69c-.68.56-1.08.91-1.5,1.23-1.28.98-2.34,1.03-3.72.17-2.2-1.36-3.7-4.86-3.03-7.34.18-.67.67-1.45,1.24-1.79,2.47-1.46,5.01-1.91,7.5.07.58.46,1.25.87,1.94,1.14,1.79.71,3.23-.1,3.6-2,.12-.63.13-1.28.19-1.91,2.47-1.02,3.48-2.88,2.64-5.51-.74-2.34-1.79-4.59-2.74-6.87-.11-.25-.49-.61-.65-.57-.3.08-.63.37-.76.66-.55,1.2-1.02,2.44-1.57,3.79-1.11-2.01-1.27-5.45-.47-7.17.38-.82.95-1.41,1.77-1.8,2.06-.99,4.2-1.66,6.51-1.65,2.37.01,4.74.11,7.1.03,1.55-.05,3.12-.23,4.63-.57,2.33-.53,3.31-2.03,2.99-4.41-.15-1.11-.5-2.2-.83-3.28-.32-1.06.01-1.91.76-2.63.88-.84,1.55-.96,2.61-.33,5.48,3.22,10.42,7.03,14,12.42,2.45,3.68,3.8,7.72,4.24,12.06.41,3.97.52,7.95-.48,11.88-.62,2.45-1.72,4.63-3.36,6.54-3.92,4.58-8.62,7.94-14.6,9.24-1.51.33-3.09.3-4.64.42-.56.04-1.12.04-1.96.07,1.02,1.34,2.23,1.27,3.33,1.34,1.12.07,2.24.01,3.31.01.33,2.76.61,5.58,1.03,8.37.42,2.8,1.59,5.34,2.96,7.88-.74,1.03-1.62,1.95-2.78,2.57-7.53,4.02-15.28,4.96-23.32,1.66-.94-.39-1.84-.88-2.73-1.39-.74-.42-1.41-.93-2.18-1.44,1.42-1.52,2.72-2.94,4.04-4.34,2.36-2.5,3.55-5.38,2.7-8.84-.42-1.72-.86-3.45-1.48-5.11-1.07-2.82-2.19-5.62-3.49-8.33-.69-1.46-1.8-2.73-2.83-4.25Zm23.85.31c.53-.49.91-.72,1.61-.56,2.01.46,3.7-.13,4.81-2,.96.06,1.92.18,2.88.15,1.69-.04,3.13-.72,4.3-1.94.59-.62.93-1.36.66-2.21-.1-.3-.47-.52-.72-.77-.24.25-.66.46-.71.74-.28,1.87-1.68,2.38-3.22,2.65-.67.12-1.39.01-2.08-.07-1.17-.14-2.34-.4-3.51-.5-1.51-.12-2.92.18-3.88,1.49-.63.87-.96,1.79-.13,3.01Zm12.13-13.44c1.22-.52,1.85-1.04,2.39-1.93.6-.99.55-1.6-.48-2.13-1.37-.7-2.84-1.23-4.28-1.77-.25-.09-.62.11-.93.17-.02.13-.05.26-.07.39,1.56.7,3.13,1.4,4.72,2.11-.48,1.11-1.49,1.8-1.35,3.16Zm-16.79-1.43c1.03.04,1.72-.54,1.73-1.45.02-1.13-1.13-2.46-2.11-2.45-.82.01-1.36.66-1.38,1.63-.03,1.25.73,2.23,1.76,2.26Zm-6.54-1.39c.53-.14.91-.12,1.1-.31,1.43-1.43,2.15-3.19,2.17-5.2,0-.25-.29-.51-.45-.77-.27.21-.66.36-.8.63-.63,1.3-1.23,2.62-1.77,3.97-.18.45-.16.99-.25,1.67Zm24-6.79c.68-.03,1.17-.53,1.22-1.24.06-.9-.83-2.11-1.68-2.29-.68-.15-1.32.19-1.55.82-.4,1.09.85,2.77,2.02,2.72Zm-5.74-8.66c.48.59.65.98.92,1.09,1.17.46,2.38.57,3.6.15.48-.17.88-.47.78-1.05-.1-.59-.61-.74-1.1-.69-1.26.12-2.51.29-4.19.49Z"/>
    <path class="cls-1" d="m312.09,134.36c.4.82.63,1.3.88,1.76.03.06.19.05.35.09.06-.12.17-.25.17-.38.03-3.08.92-5.95,2.12-8.73,1.79-4.18,4.14-8.04,6.8-11.71,6.75-9.35,13.09-18.97,18.87-28.95,2.56-4.43,4.87-9,7.34-13.47.8-1.46,1.69-2.87,2.67-4.22.68-.93,1.68-1.52,2.68-2.16,3.2-2.07,6.85-3.14,10.13-4.97,2.38-1.33,4.51-3.1,6.73-4.71.69-.5,1.27-1.17,1.95-1.69.54-.4,1.16-.68,2.04-1.18-.11.69-.06,1.08-.23,1.35-.84,1.37-1.63,2.79-2.63,4.04-1.51,1.89-3.2,3.64-4.8,5.46-1.36,1.54-2.63,3.14-3.3,5.13-.14.41-.32.84-.28,1.24.03.37.33.71.52,1.07.32-.22.73-.38.94-.68,1.09-1.53,2.14-3.09,3.2-4.64.42-.61.98-.95,1.75-.99,6.64-.37,13.09-1.94,19.59-3.18,2.26-.43,4.59-.55,6.89-.75.57-.05,1.15.11,1.79.42-.28.16-.55.38-.85.48-5.9,1.9-11.89,3.44-18.05,4.24-2.19.28-4.37.64-6.54,1-.28.04-.53.25-.85.41.59.7,1.28.48,1.88.43,4.72-.43,9.44-.83,14.14-1.39,4.45-.54,8.89-.9,13.36-.27.36.05.72.14,1.18.23-.44.72-1.14.71-1.72.85-4.13,1.05-8.32,1.65-12.58,1.97-4.88.37-9.74,1.02-14.61,1.56-.48.05-1.11-.05-1.29.89.56.07,1.06.21,1.56.18,2.95-.14,5.91-.29,8.86-.5,2.9-.21,5.79-.53,8.69-.73,1.87-.13,3.74-.07,5.59.82-.69.22-1.36.53-2.07.64-4.2.68-8.4,1.32-12.6,1.94-2.5.37-5.02.64-7.52,1.02-.53.08-1.02.41-1.53.62.02.14.05.28.07.42.61.06,1.22.21,1.82.17,2.58-.2,5.14-.55,7.72-.68,1.6-.08,3.22.09,4.82.21.49.04.97.29,1.78.55-2.03,1.02-3.8,1.66-5.65,1.94-3.14.47-6.3.81-9.45,1.2-2.51.31-5.02.64-7.54.9-3.87.39-7.73.64-11.51-.67-1.2-.41-2.47-.72-3.94-.33,1.24,1.53,3.11,1.48,4.75,2.26-.28.77-.49,1.53-.81,2.25-5.28,11.92-9.56,24.24-14.41,36.33-2.23,5.54-4.64,11.01-7.16,16.43-2.2,4.72-5.39,8.81-8.97,12.58-1.53,1.61-3.25,2.98-5.23,4.01-1.08.56-2.05.52-3.03-.14-4.08-2.74-6.38-6.47-6.38-11.48,0-2.28.35-4.51,1.12-6.66.2-.54.46-1.06.79-1.82Z"/>
    <path class="cls-1" d="m129.37,102.14c1.56-1.7,3.75-2.93,4.43-5.53-.58.33-1.19.63-1.74,1.01-.52.37-1.03.79-1.46,1.27-2.05,2.31-4.65,3.85-7.44,5.01-5.66,2.36-11.35,4.64-17.09,6.81-1.84.69-3.86.92-5.81,1.33-.28.06-.59,0-1.28,0,.61-.61.94-1,1.33-1.32,1.5-1.26,3.22-2.13,5.02-2.87,2.14-.88,4.27-1.79,6.38-2.73.49-.22.92-.6,1.5-.99-.85-.61-1.47-.32-2.04-.11-2.92,1.1-5.81,2.29-8.74,3.35-3.49,1.26-7.01,2.43-10.53,3.61-.58.2-1.21.24-1.88.2.77-1.04,1.74-1.78,2.85-2.29,3.32-1.54,6.67-3,10-4.52,2.59-1.18,5.18-2.38,7.75-3.6.46-.22.86-.58,1.54-1.05-.55-.18-.85-.38-1.06-.32-.92.28-1.84.61-2.73.99-4.91,2.06-9.78,4.24-14.75,6.16-3.15,1.22-6.45,2.06-9.69,3.05-.3.09-.62.09-1.26.17.46-.46.67-.73.94-.93,3.35-2.5,7.1-4.23,10.96-5.78,4.75-1.9,9.45-3.9,14.16-5.88.56-.23,1.06-.6,1.58-.9-.04-.13-.09-.25-.13-.38-.32.02-.66-.03-.95.07-1.94.66-3.88,1.3-5.78,2.04-5.94,2.32-12.11,3.79-18.35,4.99-.31.06-.63.05-1.09-.18.53-.37,1.02-.86,1.61-1.1,2.33-.98,4.65-1.99,7.04-2.79,3.41-1.15,6.91-2.07,10.32-3.22,2.5-.84,4.94-1.85,7.36-2.89.98-.42,1.84-.47,2.76.03,1.56.84,3.12,1.67,4.7,2.47.3.15.68.13,1.02.2.04-.4.22-.84.1-1.18-.13-.38-.5-.68-.81-.98-1.43-1.37-3.19-2.19-5.01-2.87-2.32-.87-4.67-1.66-6.96-2.59-1.39-.57-2.7-1.32-4.02-2.04-.39-.21-.68-.61-1.11-1,1.18-.51,2.21-.41,3.18-.14,5.33,1.51,10.74,1.5,16.18.83,2.77-.34,5.5.02,8.17.56,2.83.58,5.34,1.82,7.07,4.39,3.09,4.6,6.6,8.91,9.37,13.73.78,1.35,1.71,2.61,2.55,3.92.67,1.04,1.35,2.07,1.96,3.16,2.59,4.66,5.19,9.31,7.71,14,2.13,3.95,4.93,7.45,7.53,11.08,3.11,4.35,5.44,9.14,6.09,14.43.66,5.34.55,10.75-.77,16.05-.45,1.83-.87,3.67-1.32,5.5-.1.4-.27.79-.42,1.21-3.2-1.12-5.82-2.91-8.09-5.29-4.83-5.05-8.52-10.84-11.17-17.26-3.65-8.86-7.17-17.77-10.66-26.69-2.86-7.32-5.56-14.7-8.96-21.8-.05-.09-.03-.2-.05-.37Z"/>
    <path class="cls-1" d="m289.4,459.95c1.34,4.15,4.06,6.86,7.15,9.3,3.14,2.49,6.53,4.56,10.03,6.46,3.78,2.06,7.53,4.18,11.33,6.21,2.14,1.14,4.37,2.09,6.53,3.17,1.58.8,3.18,1.59,4.66,2.55.87.57,1.54,1.46,2.44,2.35-2.42,1.32-4.6,2.46-7.16,2.83-3.7.53-7.32.1-10.89-.77-8.26-2.02-16.5-4.11-24.74-6.22-2.03-.52-4-1.27-6.01-1.88-2.81-.85-5.65-1.31-8.6-.92-1.88.24-3.75.1-5.59-.48-.95-.3-1.43-.77-1.42-1.82,0-1.67-.13-3.33-.16-5-.06-3.88-.1-7.75-.14-11.63,0-.53,0-1.06,0-1.82.42.27.65.44.89.57,1.08.58,2.11,1.35,3.27,1.67,4.12,1.16,8.3,1.11,12.48.28,2.47-.49,4.44-1.61,5.38-4.1.06-.18.23-.32.55-.75Z"/>
    <path class="cls-1" d="m176.96,459.85c1.78,2.02,3.96,2.9,6.35,3.22,4.45.58,8.91.79,13.3-.48.09-.03.21.02.4.04.65,4.77.55,9.49-1.05,14.11-.4,1.15-1.23,1.72-2.47,1.65-.7-.04-1.4-.06-2.1-.05-1.32.02-2.59.29-3.67,1.06-6.46,4.66-13.98,6.51-21.59,8.15-6.8,1.46-13.65,1.82-20.55,1.06-.85-.09-1.7-.23-2.89-.39.66-.68,1.07-1.22,1.59-1.62,3.69-2.88,7.34-5.81,11.11-8.58,3.16-2.33,6.47-4.45,9.7-6.69,4.24-2.94,7.85-6.54,11.08-10.54.23-.29.48-.57.79-.93Z"/>
    <path class="cls-1" d="m267.62,460.24c-.06-5.91-.41-11.75.05-17.67,6.92.31,13.71-.47,20.62-.04,0,.52.01.93,0,1.35-.13,3.81-.39,7.63-.37,11.44.02,2.43-1.42,3.95-2.81,5.55-.31.36-.95.5-1.46.61-4.05.85-8.11.94-12.14-.15-1.24-.34-2.47-.69-3.89-1.08Z"/>
    <path class="cls-1" d="m196.75,444.8c.1,1.23.21,2.08.23,2.93.08,3.17.15,6.34.2,9.51.02,1.43-.12,1.64-1.48,2.1-.81.28-1.65.5-2.5.6-5.24.61-10.39.19-15.39-1.38-.11-5.09-.22-10.07-.33-15.18,2.16.38,4.15.75,6.15,1.08,1.75.29,3.5.6,5.26.81,2.56.31,5.13.55,7.85-.47Z"/>
    <path class="cls-1" d="m195.67,481.67c.28.67.1,1.18-.5,1.51-1.32.72-2.64,1.42-3.97,2.1-1.14.59-2.43.98-3.42,1.75-4.72,3.7-10.04,5.99-15.85,7.3-4.58,1.03-9.21,1.7-13.89,1.96-1.4.07-2.79.23-4.19.23-3.5,0-6.98-.26-10.37-1.26-.66-.2-1.19-.54-1.45-1.17-.39-.92-.72-1.87-1.22-3.16,1.13.15,1.91.2,2.67.35,7.23,1.46,14.45,1.21,21.66-.19,5.03-.97,9.99-2.2,14.83-3.89,3.02-1.05,5.81-2.57,8.44-4.37,1.36-.93,2.77-1.35,4.4-1.18.9.1,1.82.02,2.86.02Z"/>
    <path class="cls-1" d="m332.67,492.25c-.49.49-.8.91-1.21,1.19-2.8,1.98-5.84,3.42-9.29,3.85-.43.05-.86.09-1.28.18-2.08.42-4.11.39-6.21-.1-6.86-1.59-13.78-2.95-20.63-4.56-3.29-.77-6.51-1.89-9.75-2.85-2.44-.72-4.85-.9-7.26.15-.91.4-1.89.45-2.85.14-1.48-.48-3.01-.87-4.39-1.54-1.4-.68-2.36-1.84-2.23-3.57.13-.07.25-.17.31-.14,2.32.87,4.7,1.04,7.15.75,2.36-.28,4.63.33,6.81,1.06,7.02,2.35,14.27,3.62,21.49,5.07,2.84.57,5.64,1.37,8.46,2.08,3.36.85,6.78,1.18,10.22,1.31,3.46.12,6.57-.9,9.44-2.79.22-.15.45-.27.68-.4.03-.01.09.03.55.17Z"/>
    <path class="cls-1" d="m221.19,24.98c1.01,2.17,2.08,4.11,2.18,6.35.05,1.04-.13,2.15-.47,3.13-.43,1.21-1.65,1.48-2.58.58-.54-.52-1-1.31-1.11-2.04-.15-.98-.09-2.06.17-3.02.46-1.64,1.15-3.21,1.81-4.99Zm.23,9.47c-.45-1.24-.83-2.27-1.26-3.46-.75.66-.78,1.35-.52,2.09.25.73.63,1.33,1.78,1.37Z"/>
    <path class="cls-3" d="m239.38,47c-.82-1.22-.5-2.15.14-3.01.97-1.32,2.38-1.62,3.88-1.49,1.18.09,2.34.36,3.51.5.69.08,1.41.19,2.08.07,1.54-.27,2.93-.78,3.22-2.65.04-.28.46-.49.71-.74.25.25.62.47.72.77.27.85-.07,1.59-.66,2.21-1.17,1.22-2.61,1.9-4.3,1.94-.96.02-1.92-.1-2.88-.15-1.1,1.87-2.8,2.46-4.81,2-.7-.16-1.08.06-1.61.56Zm1.4-1.85c1.38.26,2.39.02,3.24-.85-1.12-.19-2.24-.39-3.24.85Z"/>
    <path class="cls-3" d="m251.51,33.56c-.13-1.36.88-2.05,1.36-3.15-1.59-.71-3.16-1.41-4.72-2.11.02-.13.05-.26.07-.39.31-.07.68-.27.93-.17,1.45.54,2.91,1.06,4.28,1.77,1.03.53,1.08,1.14.48,2.13-.55.89-1.17,1.41-2.4,1.93Z"/>
    <path class="cls-3" d="m234.72,32.13c-1.03-.04-1.78-1.01-1.76-2.26.02-.98.57-1.62,1.38-1.63.98-.01,2.13,1.32,2.11,2.45-.01.91-.7,1.48-1.73,1.45Z"/>
    <path class="cls-3" d="m228.18,30.74c.09-.68.07-1.22.25-1.68.54-1.34,1.14-2.67,1.77-3.97.13-.28.52-.43.8-.63.16.25.46.51.45.77-.03,2.02-.74,3.77-2.17,5.2-.18.19-.56.17-1.09.31Z"/>
    <path class="cls-3" d="m252.19,23.95c-1.17.05-2.41-1.63-2.02-2.72.23-.62.87-.96,1.55-.82.85.19,1.74,1.4,1.68,2.29-.04.71-.53,1.21-1.22,1.24Z"/>
    <path class="cls-3" d="m246.44,15.29c1.68-.2,2.93-.38,4.19-.49.49-.04,1,.1,1.1.69.1.58-.3.88-.78,1.05-1.22.42-2.43.31-3.6-.15-.28-.11-.44-.5-.92-1.09Z"/>
    <path class="cls-3" d="m221.42,34.46c-1.15-.04-1.53-.64-1.78-1.37-.25-.74-.23-1.43.52-2.09.43,1.19.81,2.22,1.26,3.46Z"/>
    <path class="cls-1" d="m240.78,45.15c1-1.24,2.13-1.04,3.24-.85-.85.87-1.86,1.12-3.24.85Z"/>
  </g>
  <g id="primary-color">
    <path class="cls-2" d="m312.37,129.34c-2.1,2.94-3.42,5.98-4.07,9.3-.71,3.61-.42,7.08,1.59,10.27.94,1.49,1.91,2.97,2.94,4.58-.42-.08-.73-.11-1.02-.2-7.43-2.36-14.46-5.57-21-9.83-3.79-2.47-7.56-4.96-11.38-7.38-.93-.59-1.3-1.24-1.27-2.35.08-3.39.1-6.78.06-10.17-.04-2.63-.18-5.27-.32-7.9-.04-.7.02-1.51-1.06-2-.16.58-.38,1.06-.4,1.54-.49,9.78-1.37,19.54-1.22,29.36.27,17.14-.87,34.22-2.64,51.27-.52,4.97-.68,9.98-1.05,14.97-.03.37-.23.84-.51,1.07-2,1.66-4.16,2.95-6.7,3.75-7.39,2.32-14.94,2.39-22.56,2.12-9.68-.34-18.8-2.82-27.57-6.8-.49-.22-.95-.52-1.46-.68-1.43-.45-1.78-1.38-1.68-2.82.42-6.23.68-12.47,1.09-18.7.53-8.11-.2-16.13-1.51-24.12-1.58-9.65-4.18-19.03-7.46-28.22-.42-1.19-1.15-2.27-1.85-3.61.95-2.53,2.85-4.93,3.64-7.82-.09-.08-.17-.15-.26-.23-.29.15-.68.23-.84.47-.84,1.24-1.84,2.44-2.39,3.8-3.62,9.02-9,16.99-14.47,24.94-4.02,5.84-8.94,10.9-13.44,16.32-.41.49-.91.92-1.38,1.35-.1.09-.27.1-.57.21.17-.67.31-1.24.47-1.79,1.55-5.42,2.27-10.95,2.16-16.59-.12-5.61-1.6-10.74-5.27-15.08-.55-.65-.46-1.22-.27-1.92,1.67-6.29,3.37-12.58,4.96-18.89,2.08-8.25,4.16-16.49,7.03-24.51,1.38-3.86,3.09-7.57,5.27-11.06,3.03-4.84,6.12-6.06,11.63-4.47,1.96.57,3.85,1.37,5.75,2.12,1.71.68,3.44,1.2,5.31,1.23,2,.03,3.84-.41,5.51-1.52.26-.17.55-.31.77-.44.14.06.2.07.23.11,5.94,6.31,13.35,7.63,21.48,6.17,2.36-.42,4.67-1.27,6.92-2.14,3.19-1.23,4.03-1.91,6.27-4.24.57.36,1.15.72,1.74,1.09,1.44.9,2.99,1.2,4.64.83,1.57-.35,3.13-.78,4.7-1.14,2.3-.53,4.59-1.2,6.93-1.51,2.87-.38,5.54.56,7.98,2.05,2.59,1.59,4.85,3.57,6.87,5.84,3.59,4.05,6.5,8.57,9.16,13.27,3.02,5.34,6.14,10.63,9.15,15.98,2.11,3.74,4.84,6.98,7.79,10.06,1.23,1.28,2.34,2.67,3.59,4.11Z"/>
  </g>
</svg>