<svg xmlns="http://www.w3.org/2000/svg" id="particulier-professionnel" viewBox="0 0 500 500">
  <defs>
    <style>
      .cls-1{fill:#fff}.cls-3{fill:#71a52e}.cls-4{fill:#030f40}
    </style>
  </defs>
  <g id="secondary-color">
    <path fill="#fabd13" d="M221.11 490.33c-9.29 0-18.22-.99-27.14-2.8-13.89-2.8-27.23-7.48-40.22-13.17-8.39-3.7-16.77-7.48-24.71-12.08a74.1 74.1 0 0 1-12.53-8.84c-5.86-5.23-10.55-11.27-13.53-18.49-2.62-6.49-3.25-13.35-2.62-20.29.72-8.39 3.25-16.32 6.04-24.17 3.07-8.57 6.76-16.95 9.92-25.52a127.87 127.87 0 0 0 5.23-17.31c2.34-11.18.18-21.55-6.04-31.02a203.6 203.6 0 0 0-10.64-14.34c-4.06-5.14-8.03-10.37-11.18-16.14a62.35 62.35 0 0 1-7.67-27.41c-.81-16.95 4.24-32.01 13.62-45.99a149.98 149.98 0 0 1 13.89-17.31c11.36-12.35 24.26-23.09 37.87-32.82 11.63-8.39 23.72-16.05 35.8-23.81 9.56-6.13 18.85-12.71 27.41-20.2 5.68-4.96 11-10.37 16.32-15.69 5.95-5.95 11.72-11.99 17.85-17.76 6.13-5.77 12.62-11.27 19.75-15.87a85.34 85.34 0 0 1 33.37-12.62c4.69-.72 9.38-1.08 14.16-.72 4.33.36 19.66 6.58 22.45 8.39 7.12 4.69 13.53 10.28 19.57 16.23 3.16 3.16 5.41 6.94 7.94 10.64 4.51 6.85 7.76 14.25 10.82 21.82a287.3 287.3 0 0 0 9.47 20.74c4.33 8.48 8.66 16.86 12.35 25.61a240.27 240.27 0 0 1 11.72 34.09 112.85 112.85 0 0 1 3.61 32.01c-.45 13.08-2.71 25.79-7.48 37.96-2.8 7.21-6.58 13.8-10.82 20.2a313.44 313.44 0 0 1-26.87 34.72c-5.77 6.49-11.54 12.9-16.86 19.75-8.12 10.37-14.16 21.82-18.94 34.09-3.79 9.74-6.58 19.75-9.11 29.85-1.89 7.48-3.61 14.97-5.95 22.36a105.6 105.6 0 0 1-20.47 36.79c-9.02 10.46-20.38 17.58-33.46 22a148.9 148.9 0 0 1-26.6 6.04c-5.5.72-11 .9-16.32 1.08Z" opacity=".1" style="isolation:isolate"/>
  </g>
  <g id="invariable">
    <path d="m176.65 135.04.27-9.56c-1.53-.27-2.98-.54-4.51-.72-5.41-.81-9.11-3.88-11.63-8.48-2.71-4.96-3.07-10.28-2.34-15.78a50.8 50.8 0 0 1 3.7-13.17 56.93 56.93 0 0 1 2.8-5.95c2.07-3.7 5.68-5.59 9.47-7.03 6.76-2.52 13.26-1.53 19.48 1.71 1.53.81 3.07 1.8 4.51 2.89 4.42 3.25 6.67 7.67 7.3 13.08.54 4.96-.36 9.65-2.07 14.25a22.92 22.92 0 0 1-4.06 7.12c-.18.18-.36.54-.45.81-.81 4.96-1.71 10.01-1.71 15.06 0 1.71.09 3.34 1.08 4.78 1.26 1.71 2.71 3.16 4.78 3.88 2.16.72 4.33 1.26 6.4 1.8 1.98.54 4.06.9 5.86 2.07.9.54 2.07.63 3.07.99 6.04 1.98 10.28 5.68 11.99 11.99 1.98 7.03 2.71 14.25 2.89 21.46.18 5.77.09 11.45 0 17.22a44.91 44.91 0 0 1-3.07 15.78c-2.34 6.22-7.3 9.65-13.98 9.65-1.44 0-2.8-.18-4.24-.18h-1.53c0 .9.09 1.71 0 2.52-.27 3.16-.54 6.22-.72 9.38-.09 1.71 0 3.43.18 5.14.09 1.62.54 3.25 0 4.96-.18.45.09 1.08.27 1.71.99 4.15 2.07 8.3 2.98 12.44a106.6 106.6 0 0 1 2.34 23.9c-.09 6.94-.99 13.8-1.89 20.74-.9 6.67-1.26 13.26-.54 19.93.72 6.85 1.26 13.71 2.07 20.56.54 4.69 1.35 9.38 1.89 14.07.72 6.13 1.26 12.26 1.8 18.4.54 5.68.9 11.45 1.44 17.13l1.08 12.44c.45 4.42.99 8.84 1.35 13.26.27 2.89.54 5.68.72 8.57.27 3.34.9 6.49 1.8 9.65.27 1.08.54 2.16.54 3.25a53.2 53.2 0 0 1-.27 10.01c-.18 1.17-.45 2.25-1.53 2.89-.27.18-.36.54-.63.9-1.17-.09-1.89-.9-2.89-1.89-.09 1.26-.18 2.25.18 3.07.27.72.18 1.17-.18 1.71-.18.36-.36.9-.27 1.26.54 3.43 1.17 6.85 1.71 10.37.54 3.34.99 6.67 1.44 10.1.45 3.07.72 6.22 1.08 9.29.09.9-.09 1.71-.72 2.34-.9.99-1.8 2.16-2.98 2.89a26.6 26.6 0 0 1-12.17 4.15c-2.62.27-5.23.45-7.76.72-3.25.27-6.22 1.35-9.11 2.71-2.98 1.44-6.22 2.07-9.47 2.43-4.6.54-9.11.36-13.62-.9-1.98-.54-3.34-1.62-3.79-3.7-.36-1.8-.72-3.7-.81-5.59-.09-1.71.63-3.34 1.62-4.78-.18 0-.27-.09-.36-.09-3.16.72-6.4 1.53-9.56 2.25-5.41 1.26-11.72-1.62-13.89-6.76a12 12 0 0 1-.72-4.42c0-.72.54-1.62 1.08-2.16.81-.81 1.8-1.44 2.8-1.98a37.36 37.36 0 0 1 3.34-1.71c5.59-2.34 10.37-6.04 15.06-9.74 2.62-2.07 4.24-4.78 5.5-7.85.18-.36.18-.9 0-1.35-.72-2.07-1.44-4.24-2.25-6.31a2.4 2.4 0 0 0-.9-.99 4.46 4.46 0 0 1-1.89-1.98 144.96 144.96 0 0 1-9.65-24.71c-1.62-5.41-3.61-10.82-5.23-16.23-2.52-8.48-4.87-17.04-7.21-25.52a777.4 777.4 0 0 1-5.14-19.48c-.99-3.97-1.71-8.03-2.52-12.08a15.2 15.2 0 0 1 .27-6.67c1.53-5.86 3.16-11.81 4.51-17.67 3.07-13.26 6.04-26.51 9.11-39.77 1.62-6.85 3.43-13.71 5.14-20.65 1.53-6.04 2.98-12.17 4.42-18.22.09-.18.09-.45.09-.63l-.27-6.76c-.09-2.8-.27-5.5-.36-8.3-.09-4.96-.18-9.92-.36-14.88-.09-1.44-.36-2.89-.54-4.42-.9-.09-1.62-.18-2.34-.18-6.4-.45-12.62-1.35-18.67-3.52a17.36 17.36 0 0 1-4.24-2.25c-2.34-1.53-3.34-3.97-3.7-6.67-.18-1.44-.09-2.07.72-3.97-.63 0-1.08 0-1.62-.09-1.44-.09-1.71-.45-1.8-2.07-.54 0-1.08.09-1.62 0-1.08-.09-1.53-.99-.81-1.89.36-.45.9-.9 1.44-1.26 1.08-.72 2.16-1.26 3.16-1.98.45-.27.9-.63 1.53-1.08-.99-.27-1.8-.54-2.62-.81-.45-.18-.99-.36-1.35-.72-.27-.18-.63-.72-.54-.99.09-.27.54-.63.81-.72.81-.18 1.71-.27 2.62-.36 1.71-.09 3.52-.27 5.32-.36.27-2.89 1.35-5.41 2.43-7.85 2.89-6.4 5.77-12.81 8.57-19.3a30.35 30.35 0 0 1 6.49-9.29 15.84 15.84 0 0 1 6.31-3.61c3.88-1.17 7.85-1.44 11.9-1.53 1.71 0 3.43 0 5.14-.09 1.35.18 2.25.09 3.25 0Zm37.24 80.98h2.25c.9 0 1.89 0 2.8-.18.99-.18 2.07-.36 2.98-.81 3.07-1.35 5.05-3.88 6.22-6.94a45.62 45.62 0 0 0 2.8-15.15v-15.33a94.95 94.95 0 0 0-2.62-22c-1.35-5.5-5.05-8.75-10.01-10.64-2.98-1.17-6.13-2.07-9.2-3.07-2.52-.81-5.05-1.44-7.67-2.25a22.69 22.69 0 0 1-5.32 11.45 9.5 9.5 0 0 1-5.32 3.25c-4.33.99-8.3 0-11.99-2.25a11.44 11.44 0 0 1-5.59-9.11c-.18-1.89-.27-3.7.54-5.5l-5.95.27c-3.43.18-6.85.54-10.19 1.53a12.51 12.51 0 0 0-5.23 2.98c-2.43 2.34-4.42 5.05-5.77 8.12s-2.62 6.22-4.06 9.29c-1.71 3.79-3.61 7.48-5.41 11.27a34.06 34.06 0 0 0-1.98 5.59c6.31-1.17 12.44-1.62 18.58 1.17.18-1.26.36-2.25.45-3.25l.27-4.87c.09-.54.27-1.08.45-1.62.09-.18.45-.45.54-.36.27.09.54.27.63.54.09.18.09.54.09.72 0 3.25.45 6.58-.45 9.83 1.17.81 2.34 1.62 2.62 3.25 8.21.27 16.32.99 24.08 3.61a74.3 74.3 0 0 1 21.82 11.45c-.09-2.43-.27-4.6-.27-6.76.09-2.8-.45-5.32-1.62-7.85-.63-1.26-.9-2.8-1.35-4.15-.18-.45-.27-.9.45-1.26 1.35 1.44 1.44 3.43 2.34 5.14v-1.8c-.09-2.52-.18-5.14-.18-7.67 0-.54-.27-1.44.63-1.53.81-.09.81.81.9 1.44.27 2.89.54 5.68.63 8.57.18 5.77.18 11.54.27 17.58 6.4 6.13 6.49 6.4 7.85 17.31Zm-42.47 71.24h-.18c0 .27.09.63.09.9.45 2.25.99 4.6 1.44 6.85.99 5.05 1.8 10.01 2.8 15.06a6.17 6.17 0 0 1-.27 3.61 446.74 446.74 0 0 0-3.97 11.54c-1.8 5.59-3.52 11.27-5.32 16.86-.81 2.71-.72 5.32.27 7.94.72 1.98 1.44 3.88 1.98 5.86 2.52 8.84 5.23 17.58 7.48 26.42 2.62 10.28 4.87 20.56 7.3 30.84.81 3.43 1.35 6.85 2.52 10.1 1.26 3.34 2.16 6.76 3.43 10.01.63 1.8.27 3.25-.99 4.6-.36.45-.81.9-1.26 1.17-.81.54-.99 1.08-.81 2.07.72 4.42 1.71 8.75 2.98 13.08.72 2.34 1.17 4.78 1.62 7.12a54.43 54.43 0 0 0 2.07 7.94c3.16-2.16 6.22-4.24 9.29-6.31L200 453c-1.53-.72-2.16-2.16-2.43-3.79-.18-.72-.36-1.44-.45-2.16-1.17-7.39-2.34-14.7-3.43-22.09a565.7 565.7 0 0 1-1.71-12.08c-.9-5.95-1.8-11.9-2.62-17.95a768.4 768.4 0 0 1-1.71-14.25c-.63-5.41-1.44-10.82-1.98-16.32a309.02 309.02 0 0 0-3.43-25.88c-.72-4.33-1.53-8.57-2.34-12.9-1.53-8.03-2.89-16.14-4.6-24.08-.9-4.6-2.52-9.38-3.88-14.25Zm37.87-68.99c-.72-.09-1.26-.27-1.8-.27-3.07-.36-6.22-.63-9.29-1.17-3.34-.63-6.67-1.44-10.01-2.34-6.67-1.89-13.44-3.61-19.39-7.12-.9-.54-1.8-.99-2.07-1.98-2.71.18-5.23.36-7.67.54.09 2.07.18 4.06.36 5.95l.54 10.64c.27 4.69.45 9.47.81 14.25.09.9-.54 1.89.18 2.71.72.72 1.35 1.44 2.07 2.07 2.8 2.43 5.5 4.78 9.29 5.5 2.07.36 4.15.72 6.22.72 3.43 0 6.85-.09 10.28-.36 2.71-.18 5.41-.54 8.03-1.26 4.24-1.08 8.39-2.52 12.08-4.78-.27-1.71-.45-3.34-.72-4.96a23.5 23.5 0 0 1-.09-7.94c.45-3.34.81-6.67 1.17-10.19Zm-32.64-81.16c-.27.09-.36.09-.36.09-.09.09-.18.27-.27.36-.72 1.53-.54 3.16-.45 4.78.36 3.79 2.07 6.49 5.5 8.12a17.5 17.5 0 0 0 5.23 1.53c2.62.36 5.14-.18 7.12-2.07a17.96 17.96 0 0 0 4.24-6.67c.63-1.71.99-3.61 1.44-5.05-1.08-1.53-2.07-2.8-2.89-4.24a7.65 7.65 0 0 1-.81-2.8c-.18-4.87.27-9.65 1.35-14.43.27-1.08.54-2.07.27-3.25a8.53 8.53 0 0 1 0-2.62c.09-.45.36-.99.63-1.35.45-.54.99-.99 1.44-1.62.9-1.26.99-2.71.63-4.15-.18-.81-.72-1.17-1.44-1.08-1.53.18-3.07.18-4.15 1.71-.54.81-1.53 1.35-2.62 1.08s-1.8-1.08-1.98-2.16-.18-2.16-.09-3.25c.09-2.16.27-4.42.27-6.58 0-1.44-.09-2.98-.36-4.33-.9-3.61-4.33-7.03-9.29-5.32-1.26.45-2.43.9-3.7 1.35a9.42 9.42 0 0 1-4.15.72c-1.98-.09-2.98-1.17-2.89-3.07 0-.45.09-.9.09-1.44-1.44.45-1.71.54-2.25 1.35-.81 1.35-1.71 2.62-2.34 4.06-.63 1.26-.99 2.62-1.53 4.15.9-.09 1.62-.27 2.25-.36.9 0 1.44.36 1.53.99.09.63-.45 1.17-1.26 1.35-.99.18-2.07.09-2.98-.54-.18.36-.36.72-.36.99a83.86 83.86 0 0 0-1.44 6.49 23.5 23.5 0 0 0 .54 11.45c1.53 4.96 4.33 8.93 9.56 10.46.81.27 1.71.45 2.62.54 2.8.45 5.59.54 8.3-.54 1.17-.45 2.16-1.26 3.25-1.8.81-.36 1.62-.81 2.43-.99.36-.09 1.08.18 1.17.36.09.36-.18.9-.27 1.35-.09.09-.18.27-.36.36-2.43 1.8-4.96 3.43-8.12 3.88-.45.09-.9.18-1.17.27.09 2.89.36 5.59.36 8.3 0 2.16-.18 4.24-.36 6.4-.09.72-.27 1.35-1.08 1.53-.63.09-1.08-.45-1.26-1.53-.09-.45-.09-.81-.09-1.26.09-.36.09-.9.09-1.53Zm-9.74 353.85c2.34.09 4.6.27 6.85.18 3.07-.18 6.13-.54 9.2-.81a52.31 52.31 0 0 0 12.44-2.71c5.5-1.89 11-3.25 16.77-4.24 2.71-.45 5.5-1.08 7.76-2.98.54-.45 1.44-.36 2.34-.63-.81-5.68-1.62-11.45-2.43-17.4-2.34 1.62-4.96 2.34-7.48 3.07-1.08.27-2.25.36-3.43.45-2.07.09-3.97-.72-5.77-1.44-.99.81-1.89 1.71-2.89 2.43a368.11 368.11 0 0 1-11.54 7.76c-4.96 3.25-10.1 6.22-15.69 8.3a16.59 16.59 0 0 0-3.7 1.98c-1.98 1.35-2.98 3.25-2.43 6.04Zm35.35-293.07c0-.09.09-.18.09-.27-.45-.27-.81-.63-1.26-.9-4.51-2.8-9.29-5.23-14.07-7.39-4.42-2.07-9.11-3.16-13.89-3.97-4.96-.81-9.92-1.17-14.97-1.44a4.93 4.93 0 0 0-3.79 1.17c-3.61 3.07-6.31 6.67-7.57 11.18a9.32 9.32 0 0 0 0 5.86c.27.09.45.18.63.18 3.25.36 6.49.72 9.83.9 2.25.09 4.51.27 6.67-.09 5.32-.72 10.73-1.71 16.05-2.52 4.24-.63 8.57-1.26 12.81-1.71 3.16-.36 6.31-.63 9.47-.99Zm-31.29 254.48c-.09.36-.18.54-.27.81a14.3 14.3 0 0 1-4.42 7.57c-4.33 3.79-8.93 7.39-14.25 9.83-1.89.81-3.7 1.62-5.5 2.52-.81.45-1.62.99-2.34 1.44-.63.45-.81.99-.81 1.8a7.66 7.66 0 0 0 1.71 4.6c1.26-.18 2.62-.27 3.97-.54a450.1 450.1 0 0 0 10.64-2.34 95.73 95.73 0 0 0 26.06-9.38c.99-.54 1.98-1.35 2.89-2.07.72-.45.81-.99.54-1.89-.99-3.79-1.89-7.67-2.8-11.54l-.81-3.79c-2.34.9-4.6 1.71-6.85 2.43a14.12 14.12 0 0 1-7.76.54Zm-.81-247.63a17.54 17.54 0 0 0 4.78 2.52c3.25 1.17 6.58 2.34 9.92 3.25 4.6 1.26 9.11 2.43 13.8 3.43 2.98.63 6.13.81 9.11 1.17 1.17.18 2.34.27 3.43.45.36-7.12-3.07-12.26-8.03-16.41-10.91 1.89-22 2.98-33 5.59Zm-25.7-3.07c0-.54-.09-.9-.09-1.26-.09-3.61.54-6.94 2.43-10.01a22.3 22.3 0 0 1 4.78-5.68c.27-.18.45-.45.72-.81-1.8-.09-3.52-.09-5.14-.27a12.1 12.1 0 0 0-5.95.72c-3.16 1.26-6.4 2.43-9.56 3.7-.54.18-.99.45-1.62.72v2.98c.09 3.34 1.53 5.77 4.6 7.21 2.98 1.44 6.22 2.16 9.83 2.71Zm12.35-19.66c.09-.09.09-.27.09-.45-.54-.36-.99-.81-1.44-1.08a66.9 66.9 0 0 0-3.79-1.71c-4.33-1.71-8.75-1.53-13.26-1.08a8.03 8.03 0 0 0-4.51 1.8c-.72.54-1.44 1.17-2.25 1.71a112.18 112.18 0 0 1-5.23 3.43c-.45.27-.99.54-1.44.81 0 .09.09.18.09.36 1.35-.45 2.8-.72 4.15-1.26 1.89-.81 3.7-1.71 5.5-2.62.54-.27.99-.54 1.17.54-2.89 1.62-5.86 3.25-8.75 4.87 0 .09.09.18.09.36.45-.09.99-.09 1.44-.27a3463 3463 0 0 0 9.2-3.52c2.8-1.08 5.59-2.16 8.75-1.89 3.34.18 6.76 0 10.19 0Zm45.36 272.6c.72 2.89 1.44 5.68 2.16 8.48 4.96 1.62 11.9-.72 15.24-3.61-.09-1.35-.27-2.8-.36-4.24-.18 0-.27-.09-.27 0l-.54.27a12.25 12.25 0 0 1-10.46 1.08c-1.98-.63-3.79-1.26-5.77-1.98Zm-18.4-12.81c-4.42 3.43-9.29 3.34-14.52 2.8.81 2.07 1.62 3.97 2.34 5.86 3.07.27 10.91-1.71 13.17-3.43-.27-1.62-.63-3.34-.99-5.23Zm-52.3-263.14h-3.52q0 .09-.09.18c.72.27 1.35.63 2.07.99.54-.36.9-.72 1.53-1.17ZM265.03 263.9s0-.09.09-.09c1.62-5.5 3.43-10.91 4.87-16.5 1.35-4.69 2.52-9.47 3.43-14.25.81-4.15.99-8.39 1.53-12.53.81-7.12 2.34-14.07 4.06-21.01 2.34-9.29 5.77-18.22 9.29-27.05.36-.81.9-1.62 1.35-2.34.18 0 .36.09.54.09 0 .54.18 1.08.09 1.62-.09.72-.36 1.44-.54 2.07-1.26 3.52-2.52 6.94-3.79 10.46-.36.9-.36 1.71 0 2.71a38.9 38.9 0 0 1 1.8 4.87c1.53 4.51 2.8 9.02 2.89 13.89 0 1.71-.09 3.52.27 5.14a7.6 7.6 0 0 1-.54 4.06c-.36.9-.72 1.8-1.17 2.71-2.07 3.97-4.06 7.85-6.22 11.72-3.07 5.59-6.22 11.09-8.75 16.95a44.02 44.02 0 0 0-2.89 9.56c-.09.45-.09.99-.09 1.53a32.69 32.69 0 0 0 6.58 2.8c9.2 2.52 18.49 4.33 27.95 4.96 6.04.45 12.08.45 18.13.63.63 0 1.35-.09 2.16-.09v-1.98c.18-1.98.27-3.97.54-5.95.54-4.96 1.26-9.83 1.71-14.79.54-4.96.9-9.92 1.35-14.97.72-8.03 1.98-15.96 2.25-23.99.18-6.13.63-12.17.09-18.31-.36-3.52-.54-6.94-1.08-10.37a64.24 64.24 0 0 0-5.95-17.4c-2.62-5.23-5.05-10.64-7.94-15.78a78.35 78.35 0 0 1-6.4-14.7c-.09-.36-.27-.63-.27-.81-3.79.63-7.39 1.26-11.09 1.89v1.71c-.09 3.52-1.53 6.31-4.6 8.12-.36.18-.63.36-.9.54a9.98 9.98 0 0 0-4.06 4.78c-1.71 4.33-3.07 8.75-3.16 13.44-.18 5.05-2.8 8.48-7.03 10.82-2.25 1.26-3.61.36-3.61-2.16 0-.45 0-.99.09-1.44l1.35-5.95c.27-1.08.54-2.25.63-3.34a4.29 4.29 0 0 0-.9-3.43 24.26 24.26 0 0 1-4.15-7.67c-.9.81-1.26 1.08-1.71 2.52a55 55 0 0 0-1.89 6.58c-1.26 5.95-2.34 11.99-3.43 17.95-.81 4.42-1.62 8.93-2.34 13.35-.45 2.89-.54 5.77-.9 8.75-.54 5.32-1.17 10.64-1.8 16.05-.63 5.77-1.17 11.54-1.98 17.22a1644.83 1644.83 0 0 1-4.87 30.39c-.18 1.35-.45 2.62-.72 3.97 3.61 1.44 7.3 3.43 11.72 3.07Zm138.6 218.5c.99 1.35.81 2.89-.18 4.24-1.08 1.62-2.8 2.34-4.6 2.62-3.16.45-6.4.9-9.65.45-1.89-.27-3.88-.09-5.77-.09-4.6-.09-9.2-.63-13.89-1.17-1.89-.27-3.52-.99-4.51-2.62-.09-.09-.18-.18-.54-.45-.09.54-.27.81-.36 1.17-.36 1.35-.9 2.07-2.34 2.07-2.16 0-4.42-.09-6.49-.45a5.08 5.08 0 0 1-4.06-3.52c-.63-1.89-1.08-3.88-1.53-5.86-.81-3.79-1.53-7.67-2.34-11.45a11 11 0 0 1 .54-6.58c.18-.45.36-.99.54-1.44 1.71-3.43.81-6.58-1.35-9.65h-3.25c-1.8.09-2.07-.45-2.52-1.71a90.48 90.48 0 0 1-2.8-13.8c-1.08-7.94-2.8-15.69-4.42-23.45a829.07 829.07 0 0 1-4.06-20.56c-1.53-8.12-2.98-16.32-4.42-24.44-1.26-7.21-2.43-14.52-3.7-21.73a610.7 610.7 0 0 0-7.03-33.82c-1.62-6.67-2.89-13.44-4.33-20.2a1.82 1.82 0 0 0-.54-.99c-.36 1.53-.63 3.16-.99 4.69-2.34 10.55-3.97 21.28-5.95 31.92-.18.81.18 1.26.63 1.8 1.89 2.25 3.7 4.6 5.59 6.94a5.27 5.27 0 0 1 1.08 4.69c-.63 2.89-1.44 5.59-3.16 8.12-1.08 1.62-1.98 3.43-2.89 5.14-.36.72-.72 1.35-1.17 2.07-1.17 1.62-2.43 2.89-4.78 2.07-.36 2.52-.72 4.87-.99 7.21-.81 6.49-1.71 13.08-2.43 19.57-.9 8.12-1.62 16.32-2.34 24.44-.63 8.03-1.26 16.05-1.71 24.08-.36 6.76-1.08 13.53-.81 20.29.09 1.62 0 3.34 0 4.96-1.71.63-3.25-.45-4.96-.09 0 .18 0 .45.09.72 3.7 10.64 10.1 19.12 19.84 24.8l5.68 3.25a11.38 11.38 0 0 1 4.51 4.51c.63 1.17.72 2.43-.09 3.52a2.68 2.68 0 0 1-2.07 1.26c-2.8.18-5.5.36-8.3.36-6.4-.09-12.62-1.17-18.85-2.62-3.43-.81-6.85-1.62-10.37-2.34-1.26-.27-2.16-.81-2.62-2.16-.18-.63-.63-1.17-1.08-1.98-.18.54-.36.9-.45 1.17-.45 1.35-1.44 1.98-2.8 2.07-1.8.09-3.43-.36-4.96-1.08a4.43 4.43 0 0 1-2.34-2.43 26.28 26.28 0 0 1-1.89-7.85c-.36-3.61-.9-7.12-1.26-10.73-.36-2.8-.63-5.59-.9-8.39 0-.27 0-.63-.09-.9-.72-1.8 0-3.25 1.35-4.51.72-.63 1.08-1.26.54-2.34-.9-.27-1.89-.45-2.89-.81-2.07-.72-2.52-1.17-1.98-3.34 1.53-6.22 2.07-12.53 2.98-18.85.72-4.96 1.17-10.01 1.62-15.06.81-9.11 1.71-18.31 2.43-27.41.45-5.41.72-10.82 1.08-16.23.45-7.76.99-15.51 1.44-23.27.27-5.41.45-10.82.72-16.23.45-7.21.99-14.43 1.44-21.64 0-.18 0-.45.09-.63.36-1.53-.18-2.8-1.17-3.97-2.07-2.52-3.97-5.23-5.95-7.94-1.17.63-2.16.18-2.98-.54-.9-.9-1.71-1.44-2.98-1.17-.9.18-1.8-.27-2.62-.9-2.71-2.34-4.06-5.41-3.43-8.93.72-4.33 1.8-8.57 2.8-12.81.18-.99.45-1.89.36-2.98-.27-2.43.45-4.87.9-7.21.81-4.15 1.53-8.39 2.25-12.62a429.23 429.23 0 0 0 4.15-28.32c.72-6.76 1.62-13.44 2.34-20.2.54-5.14.99-10.37 1.62-15.51.54-4.33 1.35-8.57 2.16-12.81a609.95 609.95 0 0 1 3.79-18.85 64.92 64.92 0 0 1 2.16-7.12 5.97 5.97 0 0 1 2.71-3.43c-.18-3.07.72-5.95 1.98-8.75s3.16-5.05 6.13-6.22c-.99-.54-1.98-.99-2.89-1.44-5.5-2.62-7.12-9.11-5.86-13.35.45-1.53.9-3.07 1.62-4.6a9.5 9.5 0 0 0 .63-5.68c-.18-.9-.27-1.89-.45-2.8-.72-4.24.09-8.21 1.8-12.08.27-.54.36-1.08.18-1.8-1.53-4.6-2.89-9.2-4.42-13.89-.9-2.8-1.98-5.59-2.98-8.39-.81-2.34-1.44-4.78-2.25-7.12a7.3 7.3 0 0 1-.27-.99 18.5 18.5 0 0 1-6.22.81c-5.32-.09-12.26-5.32-10.37-13.62a18.2 18.2 0 0 1 2.43-5.59c1.26-1.8 2.52-3.52 3.88-5.32.63-.81.9-1.62.27-2.62-1.26-2.16-.9-4.33.54-6.31a14.74 14.74 0 0 1 9.02-5.77 17.9 17.9 0 0 1 7.57.09c.45.09.72.18.99.09l.36 1.8c-.9.18-1.8.27-2.8.18a20.43 20.43 0 0 0-4.69 0c-3.7.54-6.67 2.34-8.75 5.5-.81 1.17-1.08 2.62-.27 3.88.99 1.62.54 2.98-.45 4.33-.63.81-1.26 1.62-1.89 2.52-1.62 2.34-3.07 4.87-3.61 7.76a8.66 8.66 0 0 0 6.4 10.37c1.08.27 2.25.45 3.43.45a8.7 8.7 0 0 0 7.57-3.97 15.73 15.73 0 0 0 2.25-5.41 10.04 10.04 0 0 1 3.97-5.77c.63-.54 1.26-.99 2.25-.81a4.62 4.62 0 0 1-1.08 2.43 23.45 23.45 0 0 0-4.15 7.48 14.31 14.31 0 0 1-3.16 5.14c-.54.63-1.17 1.08-1.8 1.62 1.26 3.61 2.52 7.12 3.79 10.64 1.53 4.24 3.07 8.39 4.6 12.62 0 .09.18.09.36.18l3.25-2.98c-.54-1.17-1.08-2.16-1.44-3.25-1.8-4.69-3.61-9.38-5.32-14.07-.36-.9-.45-1.89-.72-2.89 0-.27.09-.54.18-1.08 3.61 6.76 5.68 13.71 8.12 20.56 1.26-.99 2.43-1.8 3.61-2.71l-2.16-5.86c-.63-1.89-1.26-3.88-1.8-5.77l-1.62-5.77c.09 0 .27-.09.36-.09 2.34 5.59 3.97 11.45 6.13 17.04 4.87-2.25 9.56-4.42 14.34-6.58-1.35-3.52-2.8-7.21-4.06-10.91-1.44-4.06-2.71-8.21-4.06-12.35a2.75 2.75 0 0 1 .18-2.34c2.16 4.33 3.34 8.57 4.87 12.81 1.44 4.24 2.8 8.48 4.15 12.62 2.71-.63 5.5-1.26 8.39-1.89v-.27c-1.17-3.7-2.52-7.39-3.61-11.09-1.35-4.6-2.71-9.29-3.97-13.98-.18-.72-.36-1.44 0-2.25.9.63 1.08 1.53 1.35 2.34 1.35 4.69 2.71 9.29 4.06 13.98a378.1 378.1 0 0 1 3.07 11.45c1.26-.09 2.43-.27 3.88-.36l1.44-.45.81 2.8c.54 1.71 1.26 3.43 1.8 5.14.27.81.63 1.17 1.44 1.44a17.04 17.04 0 0 1 7.12 4.87c3.25 4.06 4.96 8.66 4.6 13.89-.09 1.44-.45 2.8-.45 4.15 0 1.53 0 3.07.27 4.51.36 1.71.99 3.43 1.53 5.05.72 2.07.81 4.15.72 6.31a38.94 38.94 0 0 1-1.08 7.12c-1.44 5.5-5.23 8.75-10.1 10.91-1.62.72-3.16 1.53-4.78 2.34a10.49 10.49 0 0 0 7.67 3.61c2.16.09 4.33 0 6.4 0 2.71 0 5.41.54 8.03 1.26 1.44.45 2.71 1.35 3.88 2.25 2.89 2.16 4.33 5.32 5.86 8.39 5.05 9.92 10.1 19.75 14.97 29.76 1.89 3.88 3.34 7.94 4.96 11.99 1.8 4.6 3.34 9.29 5.05 13.98a93.35 93.35 0 0 1 3.43 12.99c.09.54.27 1.08.36 1.71a5.9 5.9 0 0 1-.99 4.87 239.17 239.17 0 0 1-12.71 15.69c-1.89 2.16-3.61 4.51-5.68 6.49s-4.42 3.79-6.76 5.5c-1.44 1.08-1.71.9-2.71-.63-.18-.27-.45-.45-.72-.72-1.89 2.16-3.79 4.24-5.23 6.67-.27.54-.36.99-.27 1.62.45 2.25.72 4.51 1.08 6.76.18 1.08-.18 1.8-1.26 2.16.54 2.89 1.17 5.68 1.62 8.57 1.08 6.49 2.07 13.08 3.07 19.66l2.98 20.29c1.08 7.57 2.16 15.06 3.34 22.54.9 6.22 1.98 12.35 2.98 18.49.72 4.96 1.35 10.01 2.07 14.97 1.08 7.3 2.07 14.61 3.34 21.91 1.53 8.84 3.34 17.58 4.96 26.42 1.08 5.95 1.98 11.9 3.61 17.76a89.93 89.93 0 0 1 2.16 10.91c.18.18.27.36.27.63v1.53c.09.36.09.63.18.99.63-.18.99 0 1.26.54s0 1.17-.72 1.53c-.81.27-1.62.54-2.43.63-.63.09-1.35.09-2.16.09 0 .45.09.81.09 1.26.81 0 1.53.09 2.25.09 2.52.18 4.24 1.53 5.59 3.61.63.99 1.17 2.07 1.71 3.16 2.07 4.6 5.41 8.12 9.47 11 2.89 1.98 5.86 3.79 8.84 5.68 1.35.81 2.71 1.71 4.15 2.43 1.35.45 2.43 1.71 3.34 2.89Zm-2.43 3.52c1.08-.9 1.17-1.98.18-2.98-1.17-1.08-2.34-2.25-3.79-2.98-3.43-1.71-6.58-3.79-9.83-5.86-.54-.36-.99-.63-1.44-.9-1.35.54-2.43.99-3.7 1.44.18-1.44 1.17-1.98 2.07-2.71-.63-.54-1.17-.9-1.71-1.44-1.35.81-2.52 1.62-3.79 2.34-.36.27-.81.45-1.26.54-.27.09-.63-.09-.81-.27a1.25 1.25 0 0 1 0-.81c.36-.45.72-.9 1.17-1.26.99-.72 1.98-1.44 3.07-2.16-.54-.63-1.08-1.17-1.53-1.62-1.98.63-3.34 2.25-5.59 2.25.63-2.34 2.8-2.8 4.15-4.06-1.08-1.98-2.07-3.88-3.07-5.77-.27-.54-.54-.99-.81-1.53a5.38 5.38 0 0 0-5.23-2.8c-2.16.09-3.07.9-3.34 3.07-.36 3.07-2.43 4.42-5.41 3.7-.99-.27-1.98-.63-2.98-.9a11.26 11.26 0 0 0-7.3.18c-1.53.63-1.89 1.26-1.53 2.89.9 4.51 1.89 9.02 2.8 13.44.36 1.89.81 3.79 1.26 5.59.36 1.26 1.08 2.34 2.34 2.52 1.98.45 4.15.54 6.22.72.54 0 .99-.27.99-.99.09-.54.18-1.08.36-1.53.63-1.35 1.89-1.71 3.07-.72.45.36.9.9 1.26 1.35a3.18 3.18 0 0 0 2.34 1.35c3.7.36 7.48.9 11.18 1.17 2.89.18 5.86-.09 8.75.18 3.25.36 6.4-.09 9.65-.54.72.09 1.53-.36 2.25-.9Zm-26.69-266.29c.45-.54.72-1.08.54-1.8-1.08-5.23-2.07-10.55-3.97-15.6-1.17-3.16-2.52-6.22-3.52-9.38a138.92 138.92 0 0 0-10.19-24.17 396.35 396.35 0 0 1-12.62-25.79c-1.26-2.89-3.34-4.96-6.31-5.77-1.8-.54-3.7-.99-5.68-1.08-2.89-.27-5.77-.18-8.57-.27a11.77 11.77 0 0 1-7.85-2.98c-1.26-1.08-2.34-2.25-3.52-3.52.81 2.07 1.53 4.06 2.34 6.04.81 1.8 1.62 3.61 2.62 5.32a140.88 140.88 0 0 1 8.57 16.32c.9 2.07 1.62 4.15 2.43 6.22a90.3 90.3 0 0 1 2.07 5.23c2.25 6.67 2.98 13.53 3.07 20.47.09 6.04-.18 12.08-.36 18.13-.09 2.71-.36 5.41-.63 8.12-.81 7.67-1.53 15.24-2.34 22.9-.63 5.95-1.35 11.9-2.07 17.85-.09.9-.18 1.8-.36 2.62a46.55 46.55 0 0 0-.45 7.12c.27 0 .45.09.63.09 4.06 0 8.03-1.35 11.99-1.98.54-.09.99-.45.9-1.08l-.27-2.52c-.09-.81-.18-1.71-.27-2.89-.45.72-.72 1.08-.99 1.44-.99 1.26-1.98 2.62-2.98 3.79-.36.45-.81.81-1.35.45s-.54-.9-.45-1.35c.09-.36.09-.72.27-1.08.45-1.26.99-2.52 1.53-3.79.18-.36.27-.72.54-1.35-.54.45-.72.63-.99.81-1.71 1.44-3.43 3.07-5.86 3.25-.36 0-.9.09-1.08-.09a1.2 1.2 0 0 1-.09-.81c0-.09.09-.18.09-.27.27-.72.54-1.35.99-1.98a66.23 66.23 0 0 0 6.13-10.73c.99-2.07 1.71-4.24 2.43-6.4a9.25 9.25 0 0 0-.27-6.58 26.78 26.78 0 0 1-1.89-8.84c0-2.07.09-4.15.36-6.22.45-3.7 1.08-7.39 1.71-11.09.9-5.59 1.98-11.18 2.98-16.77.09-.63.09-1.35.18-2.16l-2.34 1.17c-.09-.09-.18-.18-.18-.27.36-.54.72-1.08 1.17-1.53.81-.81 1.62-1.53 2.34-2.25a11.3 11.3 0 0 0 3.07-4.51c1.17-2.98.99-5.77-.99-8.39l-2.52-3.34a17.36 17.36 0 0 1-3.61-7.85c-.18-.9-.18-1.71-.18-2.62 0-.45.18-.9.81-.9.09.18.18.27.18.45.54 3.88 2.25 7.21 4.6 10.28a91.5 91.5 0 0 1 2.62 3.52 9.38 9.38 0 0 1 1.62 5.77c-.09 2.34-.99 4.42-2.25 6.4-.27.36-.54.81-.72 1.08.36.63.72 1.17.99 1.71 3.61 6.85 7.12 13.71 10.64 20.56.45.81.45 1.44 0 2.16-1.62 2.71-3.07 5.59-4.69 8.3-1.08 1.89-2.34 3.7-3.43 5.32 2.16 2.62 4.24 5.23 5.41 8.21 1.17 3.07 1.98 6.31 2.98 9.65.36-.45.63-.72.9-1.08 3.07-3.61 6.13-7.12 9.11-10.73 2.43-2.89 4.69-5.95 7.03-8.93Zm-3.88 230.31a9.2 9.2 0 0 1-.36-3.16v-.09c-.36-2.16-.72-4.42-1.17-6.58-.81-3.61-1.89-7.12-2.62-10.82-.99-4.96-1.8-10.01-2.8-15.06-1.26-6.76-2.71-13.62-3.97-20.38a602.2 602.2 0 0 1-3.34-21.28c-1.62-11.72-3.16-23.54-5.23-35.26-.9-5.05-1.53-10.19-2.34-15.33-.9-5.95-1.8-11.99-2.71-17.95l-3.25-22.45c-.81-5.41-1.62-10.91-2.52-16.5-.81.18-1.44.18-2.16.45a47.75 47.75 0 0 1-14.7 1.8c-5.41-.09-10.82-.09-16.23-.45a140.83 140.83 0 0 1-30.57-5.41c-1.35-.36-2.71-.99-4.24-1.53-.18.63-.45 1.26-.63 1.89-1.71 5.23-2.25 10.64-2.43 16.14-.18 5.77-.45 11.54-.72 17.31a3.96 3.96 0 0 0 .9 2.98c4.24 5.14 8.48 10.37 12.71 15.51l3.34 3.88c.45-.36.81-.72 1.17-1.08 1.8-1.71 3.16-1.89 5.41-.81 1.08.54 2.16 1.35 2.98 2.16 1.8 1.8 3.34 3.7 5.05 5.5.36.36.72.72 1.26 1.17.45-2.43.9-4.69 1.26-6.94a507.23 507.23 0 0 1 4.87-25.97c.45-2.16.99-4.24 1.35-6.4.45-2.34.63-4.78.99-7.21l.27-1.44h.36c.09.36.27.63.27.99 0 1.71 0 3.34-.09 4.96-.09.99-.09 1.98.18 2.89 2.07 9.02 4.24 17.95 6.22 26.96 1.89 8.48 3.7 17.04 5.32 25.52 1.62 8.39 2.89 16.86 4.42 25.25 2.52 14.07 5.14 28.04 7.85 42.11 1.17 6.22 2.71 12.44 3.88 18.67.9 4.96 1.53 9.92 2.43 14.79.45 2.34.99 4.69 1.62 7.03.09.45.36.9.45 1.17h5.5c-.09-.81-.09-1.35-.18-1.98a21.8 21.8 0 0 1-.09-6.4c0-.36.09-.72.18-1.08.36-.9 1.26-1.08 1.8-.36.27.27.36.63.54.9 1.8 3.16 3.61 6.31 5.32 9.56.45.81 1.08 1.08 1.98 1.26 3.25.63 6.49.72 9.83.81 1.08.54 1.89.45 2.62.27Zm-3.79 4.06c-.18-.63-.27-1.26-.36-1.71-2.71-.27-5.23-.81-7.85-.81-1.98-.09-3.07-.99-3.97-2.52-1.17-1.98-2.34-4.06-3.61-6.04a4.5 4.5 0 0 0-.63-.72c-.09 1.53 0 2.98.18 4.42.18 1.8.27 2.25-1.71 2.89.72 1.62 1.71 3.16 1.89 4.78.27 1.62-.27 3.43-.45 4.96 1.53-.09 3.16-.45 4.69-.36 1.44.09 2.89.63 4.42.99.81.18 1.62.54 2.43.63 1.35.18 2.71-.9 2.62-1.98-.09-1.89.45-3.52 2.34-4.51Zm-11.36-211.46c.45-.45.45-.9.36-1.44-1.26-5.68-2.89-11.18-6.49-15.87-.36-.45-.81-.72-1.26-1.17-.99 1.26-1.89 2.43-2.71 3.52 0 .18 0 .27.09.27.09.09.18.27.36.36a14.52 14.52 0 0 1 5.05 8.39c.63 3.16 1.26 6.31.81 9.74a48.37 48.37 0 0 1 3.79-3.79Zm.72-33.82c-4.06-7.76-8.3-15.24-11.63-23.36l-1.53 1.17c0 1.62.09 2.89 0 4.06-.45 3.79-.99 7.67-1.71 11.45-1.08 6.49-2.43 12.9-2.89 19.48-.18 2.62.09 5.05.9 7.57 1.26-.45 2.52-.9 3.7-1.44.36-.18.81-.54.99-.9a381.1 381.1 0 0 0 5.23-7.57c2.43-3.43 4.69-7.03 6.94-10.46Zm-7.21 34.9c.54-.63.81-1.35.63-2.16-.45-1.98-.63-4.06-1.26-5.95a13.1 13.1 0 0 0-4.42-6.58c-1.35.54-2.52.99-3.52 1.35.18 1.44.45 2.8.45 4.15a25.05 25.05 0 0 1-3.34 11.9c-1.8 3.34-3.7 6.58-5.68 9.92a35.94 35.94 0 0 0 6.58-8.21c.36-.72.72-1.53 1.89-2.07-.36.81-.54 1.26-.72 1.8a28.27 28.27 0 0 1-5.68 7.76l-.99.99c-.27.36-.54.63-.81.99a23.83 23.83 0 0 0 5.86-4.96c1.17-1.26 2.16-2.62 3.34-3.97.18-.18.45-.36.72-.54.09.09.18.09.27.18-1.53 4.06-4.42 7.57-5.59 11.81a19.73 19.73 0 0 0 3.43-4.78 39.5 39.5 0 0 1 5.59-8.3c1.17-.99 2.16-2.16 3.25-3.34Zm-25.25-134.09c.54-2.8.63-5.5 0-8.48-.9-3.97-1.8-7.76-3.34-11.54a18.73 18.73 0 0 0-10.1-10.73c-.99-.45-1.98-.72-3.07-.36-1.53 3.97-2.98 7.85-4.51 11.81.18.09.27.18.36.27.18.27.54.54.54.81 0 .18-.36.45-.63.63a1.7 1.7 0 0 1-.72.18c-.54 0-.81.27-1.08.72-2.34 3.7-5.41 6.76-8.66 9.65-1.53 1.35-2.89 2.89-4.33 4.33-.36.36-.63.9-.9 1.35a7.02 7.02 0 0 0 4.6 1.26c.99-.09 1.62.27 1.89 1.17l.27.54c.45 1.17.81 2.25 1.26 3.43l2.16 6.13c.63 1.98 1.08 3.97 1.62 6.13 3.61-.99 7.57-.81 10.91-2.8v-2.34c-1.71-.36-3.34-.63-4.87-1.17a29.37 29.37 0 0 1-5.05-2.52 7.85 7.85 0 0 1-3.25-4.06c.9.36 1.17.99 1.71 1.44.72.72 1.44 1.53 2.34 1.98 5.05 2.43 10.19 2.98 15.51.72 3.88-1.62 6.49-4.33 7.3-8.57Zm-8.39-39.59c-.45-1.62-.9-3.25-1.44-4.78-.09-.27-.18-.54-.45-1.08-14.34.72-26.42 6.58-37.6 15.15.81 2.89 1.62 5.59 2.43 8.48.36-.27.54-.36.63-.54a37.3 37.3 0 0 1 10.37-8.75c2.89-1.71 5.86-3.52 8.84-5.05a42.1 42.1 0 0 1 6.49-2.71 18.6 18.6 0 0 1 6.31-1.08c1.44.18 2.89.27 4.42.36Zm-2.16 422.66c.45-.54.36-1.17 0-1.62a19.92 19.92 0 0 0-2.71-2.8c-.99-.81-2.25-1.35-3.34-1.98-3.88-2.16-7.67-4.51-10.91-7.48-.54-.45-1.08-.99-1.62-1.44-1.17.72-2.34 1.44-3.79 1.17.18-1.44 1.62-1.89 2.34-2.89-.54-.63-1.08-1.17-1.53-1.71-2.16.9-3.79 2.71-6.49 2.98 1.08-2.62 3.34-3.34 5.14-4.69-.45-.72-.99-1.44-1.44-2.07-1.98.99-3.61 2.43-5.86 2.89-.18-1.71 1.08-2.07 1.89-2.71.9-.72 1.8-1.35 2.89-2.07a32.61 32.61 0 0 1-4.42-11.18c-3.52-.63-6.76-1.17-10.1-1.8v4.33c0 1.8-.9 2.52-2.62 2.43a5.84 5.84 0 0 1-4.15-2.25c-.72-.9-1.26-1.8-1.98-2.62-.81-.9-1.71-1.71-2.62-2.43-.27-.27-.9-.36-1.26-.27-.9.27-1.89 1.71-1.8 2.71.36 3.43.72 6.85 1.17 10.28.36 3.07.81 6.13 1.08 9.2.27 2.89.63 5.77 1.71 8.57.36.9.9 1.71 1.89 1.98 1.17.36 2.43.63 3.61.81 1.08.09 1.17 0 1.62-1.17.18-.54.45-1.08.63-1.53.54-1.35 1.44-1.53 2.34-.36.63.81 1.26 1.71 1.71 2.62.45.81.9 1.26 1.8 1.44 7.3 1.53 14.43 3.52 21.91 4.24 3.97.36 7.85.81 11.81.27.54-.09 1.08 0 1.53.09.72-.45 1.17-.45 1.53-.9Zm-4.69-153.84a4.54 4.54 0 0 0-.81-3.97 88.17 88.17 0 0 0-6.85-8.48 433.26 433.26 0 0 0-6.31-6.76 9.43 9.43 0 0 0-3.34-2.25 2.36 2.36 0 0 0-2.52.36l-1.89 1.62c-.9.63-1.44.63-2.16-.27-3.07-3.52-6.22-7.03-9.2-10.64-4.51-5.68-8.93-11.54-13.35-17.31l-1.17-1.44c-.45.72-.9 1.08-1.17 1.71-.54 1.35-.81 2.62.45 3.88.99.99 1.8 2.16 2.62 3.25 2.62 3.25 5.14 6.58 7.76 9.83 2.89 3.61 5.77 7.12 8.57 10.73 1.17 1.53 2.25 3.25 3.34 4.87.36.54.72 1.08-.09 1.62-.36-.18-.63-.27-.99-.45-.45.72-.72 1.35-1.08 1.89a3.73 3.73 0 0 0-.27 3.97c.27.63.54 1.26.9 1.8 1.62 2.34 3.16 4.69 4.87 6.85 2.98 3.79 6.13 7.48 9.29 11.18.9.99 1.89 1.98 2.89 2.8 1.8 1.44 2.43 1.26 3.61-.63.27-.45.54-.99.81-1.53.99-1.8 1.89-3.61 2.98-5.32 1.71-2.16 2.52-4.69 3.16-7.3Zm-11.72 17.85c.09-.9 0-1.44-.72-1.98-.81-.63-1.53-1.44-2.25-2.25-2.07-2.43-4.24-4.87-6.31-7.39a77.7 77.7 0 0 1-7.94-10.82 17.92 17.92 0 0 1-1.62-3.25 5.17 5.17 0 0 1 .54-4.96c.63-.9 1.17-1.8 1.8-2.8-1.35-2.43-10.73-13.89-12.08-14.79-.09.45-.18.81-.18 1.26-.36 4.15-.72 8.3-.9 12.44l-1.35 26.69c-.18 4.42-.45 8.84-.72 13.26-.63 9.74-1.35 19.48-2.07 29.13-.45 6.31-.99 12.62-1.71 18.85-.9 8.39-1.98 16.77-3.07 25.16-.54 4.33-1.08 8.57-2.71 12.62-.09.18-.09.36-.09.63 1.53.72 3.16.99 4.78 1.17.45-3.79 1.8-7.12 3.16-10.46.18-.54.54-1.08 1.26-.9.63.09.72.63.81 1.17.9 3.16 1.8 6.22 2.71 9.29.18.45.45.99.72 1.35.18.36.54.72.9.81 1.8.72 3.61 1.53 5.5 2.16 4.33 1.26 8.84.99 13.44 1.71 0-.9-.09-1.62-.09-2.43a98.05 98.05 0 0 1-.18-5.14c.27-5.86.63-11.63.99-17.49.36-5.32.72-10.73 1.17-16.05.36-4.87.72-9.74 1.17-14.61.45-5.23 1.08-10.46 1.71-15.69.63-5.59 1.35-11.18 2.07-16.77.36-3.25.81-6.58 1.26-9.92Zm-7.76-143.56c.27-5.77 0-11.45-1.62-17.04-.81-2.71-1.62-5.41-2.34-8.12h-.36c-.18.36-.27.81-.45 1.17a183.28 183.28 0 0 0-4.69 17.04 120.97 120.97 0 0 0-2.71 15.87c-.63 7.3-1.71 14.52-3.7 21.55-.18.54-.27 1.08-.36 1.62 1.71-3.07 3.16-6.22 4.87-9.29 3.34-6.22 6.76-12.44 10.19-18.67a11 11 0 0 0 1.17-4.15ZM271.35 459.5c.18-1.8 0-3.52.99-5.14-.9-.45-1.71-.9-2.62-1.26a4.83 4.83 0 0 1-2.89-2.89 14 14 0 0 1-.72-2.07c-.54-1.62-.99-3.25-1.53-4.96-.09-.27-.27-.54-.63-1.17-.99 3.43-1.89 6.58-2.89 9.65 3.43 1.62 3.88 2.07 6.22 5.14.36.45.72.99 1.17 1.44.81.9 1.62 1.44 2.89 1.26Zm-.63-200.37c-1.17-.54-1.26-1.62-1.35-2.8-.81 2.52-1.71 4.96-2.34 7.48-.63 2.43-1.08 4.96-1.53 7.48-.09.54-.36.99-.9 1.17-.36.09-.72.18-1.17.27l.27 4.51.81 11.36c.09.81-.18 1.71-.27 2.8.72.9 1.53 1.89 2.34 2.98.09 0 .18-.09.27-.18 0-.45.09-.9.09-1.35.18-5.95.36-11.9.72-17.76.09-2.34.36-4.69.81-6.94.63-3.16 1.53-6.04 2.25-9.02Zm-7.03 11.72c.27-1.8.54-3.34.81-5.14-2.16.27-4.24 0-6.13-.81-1.89-.81-3.79-1.62-5.77-2.52-.45 2.16-.81 4.24-1.26 6.4 4.06 1.53 8.21 1.89 12.35 2.07Zm-1.08 17.58c0-1.62.09-3.34 0-4.96-.27-3.52-.72-7.03-.18-10.64 0-.09-.09-.18-.18-.36-3.7-.27-7.48-.54-10.91-2.16-.63 2.89-1.17 5.68-1.71 8.48-.45 2.16-.81 4.33-1.17 6.49-.27 1.71.9 4.6 2.25 5.68-.54-1.98-.72-3.43-.54-4.33.45.9.81 1.71 1.26 2.52s.9 1.53 1.8 2.25c-1.26-4.6-1.35-4.69-.72-5.86.72.45.99 1.17 1.26 1.89a68 68 0 0 0 1.44 3.79 7.86 7.86 0 0 0 2.52 3.25c.09-.99.18-1.71.27-2.52.45-2.62 2.07-3.88 4.6-3.52Z" class="cls-4"/>
    <path d="M370.35 446.78a9.26 9.26 0 0 0 .36 3.16c-.81.18-1.62.18-2.43.18-3.25-.09-6.58-.18-9.83-.81-.9-.18-1.53-.45-1.98-1.26-1.8-3.16-3.61-6.4-5.32-9.56-.18-.27-.27-.72-.54-.9-.63-.72-1.53-.54-1.8.36-.09.36-.18.72-.18 1.08a21.8 21.8 0 0 0 .09 6.4c.09.63.09 1.17.18 1.98h-5.5c-.09-.36-.36-.72-.45-1.17-.54-2.34-1.17-4.69-1.62-7.03-.9-4.96-1.44-9.92-2.43-14.79-1.17-6.22-2.71-12.44-3.88-18.67-2.71-14.07-5.23-28.04-7.85-42.11-1.53-8.39-2.8-16.86-4.42-25.25a801.38 801.38 0 0 0-5.32-25.52c-1.98-9.02-4.15-17.95-6.22-26.96-.18-.99-.27-1.89-.18-2.89.09-1.62.09-3.34.09-4.96 0-.36-.18-.63-.27-.99h-.36l-.27 1.44c-.36 2.43-.54 4.78-.99 7.21-.36 2.16-.9 4.33-1.35 6.4a356.84 356.84 0 0 0-4.87 25.97c-.36 2.25-.81 4.51-1.26 6.94-.54-.54-.9-.81-1.26-1.17-1.71-1.8-3.34-3.79-5.05-5.5-.9-.9-1.89-1.62-2.98-2.16-2.25-1.17-3.61-.9-5.41.81-.36.36-.72.72-1.17 1.08l-3.34-3.88c-4.24-5.14-8.48-10.37-12.71-15.51-.72-.9-.99-1.8-.9-2.98.27-5.77.54-11.54.72-17.31.18-5.5.72-10.91 2.43-16.14.18-.63.45-1.26.63-1.89 1.53.54 2.8 1.08 4.24 1.53a140.83 140.83 0 0 0 30.57 5.41c5.41.36 10.82.36 16.23.45 4.96.09 9.92-.36 14.7-1.8.63-.18 1.35-.27 2.16-.45.9 5.59 1.71 11.09 2.52 16.5l3.25 22.45c.9 5.95 1.8 11.99 2.71 17.95.72 5.14 1.44 10.19 2.34 15.33 2.07 11.72 3.61 23.45 5.23 35.26.99 7.12 2.07 14.25 3.34 21.28 1.17 6.85 2.62 13.62 3.97 20.38.9 5.05 1.8 10.1 2.8 15.06.72 3.61 1.8 7.21 2.62 10.82.45 2.16.81 4.33 1.17 6.58-.18-.45-.18-.36-.18-.36Z" class="cls-1"/>
    <path d="m314.62 61.72-1.44.45c-3.61-11-5.59-22.18-6.22-33.46-.81-.09-1.35-.18-2.16-.18.36-.54.54-.99.81-1.26 1.08-.9 1.35-1.98 1.17-3.34 0-.27-.09-.63 0-.9.09-.54.27-.99.45-1.53h.45c.36.72.63 1.53.9 2.34.99-.9 2.16-2.71 2.98-4.51 1.8-4.15.27-10.1-3.34-12.9a5.66 5.66 0 0 0-8.75 2.98c-.09.27-.36.81-.54.81-.36 0-.81-.18-1.08-.45-.45-.63-.81-1.35-1.17-1.98-1.62-3.25-4.42-4.51-7.85-4.33-3.7.18-6.94 1.71-9.38 4.6a13.66 13.66 0 0 0-3.25 8.3l-.27 2.07c-.72.27-1.35.54-1.98.72l-.36-1.8c.45-.09.45-.45.36-1.35a14.1 14.1 0 0 1 1.62-8.3c2.25-4.15 5.59-6.67 10.28-7.39 1.71-.27 3.43-.45 5.14-.18 3.7.45 6.58 2.25 8.21 5.86.45-.36.72-.63 1.08-.9 3.52-2.89 8.21-2.71 11.27.63 3.52 3.79 5.41 9.38 2.8 15.06a15.76 15.76 0 0 1-4.6 6.22c-.54.45-.72.9-.72 1.62.09 11.09 2.43 22.18 5.59 33.09Z" class="cls-4"/>
    <path d="M213.9 216.02c-1.35-10.91-1.53-11.18-7.94-17.4-.09-5.95-.09-11.72-.27-17.58-.09-2.89-.36-5.68-.63-8.57-.09-.54-.09-1.44-.9-1.44-.9.09-.63.9-.63 1.53 0 2.52.09 5.14.18 7.67v1.8c-.9-1.8-.99-3.7-2.34-5.14-.63.36-.54.81-.45 1.26.45 1.35.81 2.8 1.35 4.15a18.04 18.04 0 0 1 1.62 7.85c0 2.16.18 4.33.27 6.76a78.96 78.96 0 0 0-21.82-11.45c-7.76-2.52-15.87-3.34-24.08-3.61-.18-1.62-1.35-2.34-2.62-3.25.9-3.25.45-6.58.45-9.83 0-.27 0-.54-.09-.72a3.36 3.36 0 0 0-.63-.54c-.18 0-.54.18-.54.36-.18.54-.36 1.08-.45 1.62l-.27 4.87c-.09.99-.27 2.07-.45 3.25-6.13-2.8-12.26-2.25-18.58-1.17a37.32 37.32 0 0 1 1.98-5.59c1.8-3.79 3.61-7.48 5.41-11.27 1.44-3.07 2.71-6.22 4.06-9.29a25.74 25.74 0 0 1 5.77-8.12 12.73 12.73 0 0 1 5.23-2.98 43.61 43.61 0 0 1 10.19-1.53l5.95-.27c-.81 1.8-.72 3.7-.54 5.5a11.45 11.45 0 0 0 5.59 9.11c3.7 2.25 7.67 3.25 11.99 2.25a9.83 9.83 0 0 0 5.32-3.25 22.73 22.73 0 0 0 5.32-11.45c2.62.72 5.14 1.44 7.67 2.25 3.07.99 6.22 1.89 9.2 3.07 4.96 1.98 8.66 5.14 10.01 10.64a95.45 95.45 0 0 1 2.62 22c.09 5.14 0 10.19 0 15.33s-1.08 10.28-2.8 15.15a11.78 11.78 0 0 1-6.22 6.94c-.9.45-1.98.63-2.98.81-.9.18-1.89.18-2.8.18-.63.18-1.35.09-2.16.09ZM209.3 218.27c-.45 3.61-.72 6.85-1.26 10.19-.36 2.71-.36 5.32.09 7.94.27 1.62.45 3.25.72 4.96a45.25 45.25 0 0 1-12.08 4.78c-2.62.63-5.32.99-8.03 1.26-3.43.27-6.85.36-10.28.36-2.07 0-4.15-.36-6.22-.72-3.79-.63-6.58-3.07-9.29-5.5a22.47 22.47 0 0 1-2.07-2.07c-.81-.81-.09-1.8-.18-2.71-.36-4.69-.54-9.47-.81-14.25l-.54-10.64c-.09-1.98-.18-3.97-.36-5.95 2.43-.18 4.96-.36 7.67-.54.27.99 1.17 1.44 2.07 1.98 6.04 3.61 12.71 5.32 19.39 7.12 3.34.9 6.67 1.71 10.01 2.34 3.07.54 6.22.81 9.29 1.17.63 0 1.17.09 1.89.27Z" class="cls-1"/>
    <path d="M176.65 137.11v1.62c0 .45 0 .81.09 1.26.18.99.63 1.62 1.26 1.53.81-.09.99-.81 1.08-1.53.18-2.16.36-4.24.36-6.4 0-2.71-.18-5.41-.36-8.3.27-.09.72-.27 1.17-.27 3.07-.45 5.59-2.07 8.12-3.88.09-.09.27-.18.36-.36.18-.45.45-.99.27-1.35-.09-.27-.81-.54-1.17-.36-.81.18-1.62.63-2.43.99-1.08.54-2.16 1.26-3.25 1.8-2.71 1.08-5.5.99-8.3.54-.9-.18-1.71-.27-2.62-.54-5.23-1.62-8.03-5.5-9.56-10.46-1.17-3.79-1.17-7.57-.54-11.45.36-2.16.99-4.33 1.44-6.49.09-.27.18-.54.36-.99.9.63 1.89.81 2.98.54.81-.18 1.35-.81 1.26-1.35-.09-.63-.63-1.08-1.53-.99-.63 0-1.35.18-2.25.36.54-1.44.9-2.89 1.53-4.15.63-1.44 1.53-2.71 2.34-4.06.54-.81.72-.9 2.25-1.35 0 .45-.09.9-.09 1.44-.09 1.98.99 2.98 2.89 3.07 1.44.09 2.8-.18 4.15-.72 1.17-.45 2.43-.99 3.7-1.35 5.05-1.71 8.39 1.71 9.29 5.32.36 1.35.45 2.89.36 4.33 0 2.16-.18 4.42-.27 6.58 0 1.08 0 2.16.09 3.25a2.48 2.48 0 0 0 1.98 2.16 2.45 2.45 0 0 0 2.62-1.08c.99-1.53 2.62-1.53 4.15-1.71.72-.09 1.26.36 1.44 1.08a4.85 4.85 0 0 1-.63 4.15c-.36.63-.99 1.08-1.44 1.62-.27.36-.63.9-.63 1.35-.09.9-.18 1.8 0 2.62.18 1.08-.09 2.16-.27 3.25a52.02 52.02 0 0 0-1.35 14.43c.09.99.36 1.98.81 2.8.81 1.44 1.8 2.62 2.89 4.24-.45 1.53-.9 3.34-1.44 5.05a17.84 17.84 0 0 1-4.24 6.67c-1.98 1.89-4.51 2.43-7.12 2.07a20.6 20.6 0 0 1-5.23-1.53c-3.43-1.53-5.14-4.33-5.5-8.12-.18-1.62-.27-3.25.45-4.78.09-.09.18-.27.27-.36q-.09-.09.27-.18Zm-5.95-21.73c2.07-.18 4.06-.63 5.68-1.98.36-.27.63-.54.81-.9.09-.27.09-.72-.09-.99-.09-.18-.54-.27-.81-.27-.36.09-.63.27-.99.45-1.17.45-2.25.99-3.43 1.35-.54.18-1.17.36-1.8.54-.54.18-1.08.36-.99.99.09.72.72.72 1.35.81h.27Zm7.39-24.53c-.63.09-.9.09-1.26.09-.54.18-1.17.27-1.17 1.08 0 .63.54.81 1.08.99.99.36 1.98.63 2.98.99.54.18 1.17.18 1.53-.36.36-.54.18-1.08-.27-1.53a3.23 3.23 0 0 0-.9-.63 8.11 8.11 0 0 0-1.98-.63Zm-10.01 13.26v-.45c-.36-.27-.63-.54-.99-.81.45-.54.81-.99 1.17-1.53.45-.63.81-1.35 1.17-1.98.09-.18-.09-.54-.09-.81-.27.09-.63.09-.81.27-.81.99-1.53 1.98-2.34 2.98l-.54.81c-.45.9-.18 1.62.81 1.8.54-.09 1.08-.27 1.62-.27Zm8.12-5.68c.09.54 0 .99.09 1.35.18.36.54.9.81.9.36 0 .9-.36.99-.72a12 12 0 0 0 .27-2.52c0-.36-.54-.81-.9-.81s-.81.36-1.08.63c-.09.36-.09.9-.18 1.17Zm-13.62-.54c.09.27.09.72.27 1.08.18.27.45.63.81.63.27 0 .72-.27.81-.54.27-.63.45-1.35.54-2.07.09-.54-.36-.99-.9-1.08-.63-.09-.99.27-1.17.81-.27.27-.27.72-.36 1.17Zm17.31 12.53c0-.9-.81-1.71-1.35-1.62-.18 0-.54.36-.54.63-.09.54.9 1.62 1.26 1.53.27-.09.45-.36.63-.54ZM166.91 490.97c-.54-2.8.36-4.69 2.34-6.13a14.5 14.5 0 0 1 3.7-1.98c5.59-2.07 10.73-5.05 15.69-8.3 3.88-2.52 7.67-5.14 11.54-7.76.99-.72 1.89-1.62 2.89-2.43 1.8.81 3.7 1.53 5.77 1.44 1.17-.09 2.34-.09 3.43-.45 2.52-.72 5.14-1.44 7.48-3.07.81 5.95 1.71 11.72 2.43 17.4-.9.18-1.8.18-2.34.63-2.25 1.89-5.05 2.52-7.76 2.98-5.68.99-11.27 2.34-16.77 4.24a54.56 54.56 0 0 1-12.44 2.71c-3.07.27-6.13.72-9.2.81-2.16.18-4.42 0-6.76-.09ZM202.26 197.89c-3.16.27-6.31.54-9.47.9a550.6 550.6 0 0 0-12.81 1.71c-5.32.81-10.64 1.8-16.05 2.52-2.16.27-4.51.18-6.67.09-3.25-.18-6.49-.63-9.83-.9-.18 0-.36-.09-.63-.18-.72-1.98-.54-3.88 0-5.86 1.35-4.51 4.06-8.12 7.57-11.18a4.91 4.91 0 0 1 3.79-1.17c4.96.36 10.01.63 14.97 1.44 4.78.81 9.47 1.89 13.89 3.97 4.87 2.25 9.56 4.6 14.07 7.39.45.27.81.54 1.26.9-.09.18-.09.27-.09.36ZM170.97 452.37c2.71.54 5.23.27 7.67-.54 2.25-.81 4.51-1.62 6.85-2.43l.81 3.79c.9 3.88 1.8 7.67 2.8 11.54.18.81.18 1.35-.54 1.89-.99.72-1.89 1.53-2.89 2.07a93.14 93.14 0 0 1-26.06 9.38c-3.52.72-7.12 1.62-10.64 2.34-1.35.27-2.62.36-3.97.54a7.66 7.66 0 0 1-1.71-4.6c-.09-.72.18-1.35.81-1.8.81-.54 1.53-1.08 2.34-1.44 1.8-.9 3.7-1.71 5.5-2.52 5.32-2.43 9.92-5.95 14.25-9.83a13.85 13.85 0 0 0 4.42-7.57c.18-.18.27-.45.36-.81ZM170.16 204.74c11-2.62 22.09-3.7 33.09-5.59 5.05 4.15 8.39 9.29 8.03 16.41a50.6 50.6 0 0 0-3.43-.45c-3.07-.36-6.13-.54-9.11-1.17-4.6-.99-9.2-2.16-13.8-3.43-3.34-.9-6.67-2.07-9.92-3.25a16.78 16.78 0 0 1-4.87-2.52Z" class="cls-1"/>
    <path d="M144.46 201.68a38.91 38.91 0 0 1-9.92-2.71c-3.07-1.44-4.51-3.88-4.6-7.21v-2.98c.63-.27 1.08-.45 1.62-.72 3.25-1.26 6.4-2.43 9.56-3.7a12.1 12.1 0 0 1 5.95-.72c1.62.18 3.34.18 5.14.27-.27.36-.45.54-.72.81a22.3 22.3 0 0 0-4.78 5.68c-1.89 3.07-2.52 6.4-2.43 10.01.09.36.09.72.18 1.26Z" class="cls-1"/>
    <path d="M156.81 182.02c-3.43 0-6.85.18-10.28-.09-3.16-.18-5.95.81-8.75 1.89a3463 3463 0 0 0-9.2 3.52c-.45.18-.9.18-1.44.27 0-.09-.09-.18-.09-.36 2.89-1.62 5.86-3.25 8.75-4.87-.27-.99-.72-.72-1.17-.54-1.8.9-3.61 1.8-5.5 2.62-1.35.54-2.71.81-4.15 1.26 0-.09-.09-.18-.09-.36.45-.27.99-.54 1.44-.81 1.71-1.17 3.52-2.25 5.23-3.43.81-.54 1.53-1.08 2.25-1.71a8.29 8.29 0 0 1 4.51-1.8c4.51-.36 8.93-.63 13.26 1.08 1.26.54 2.52 1.08 3.79 1.71.54.27.99.72 1.44 1.08.09.27 0 .36 0 .54ZM202.17 454.62c1.98.63 3.79 1.26 5.59 1.89 3.61 1.17 7.21.9 10.46-1.08l.54-.27h.27c.09 1.35.27 2.8.36 4.24-3.34 2.89-10.28 5.23-15.24 3.61-.54-2.71-1.26-5.41-1.98-8.39ZM183.87 441.82c.36 1.89.72 3.61.99 5.23-2.25 1.71-10.1 3.7-13.17 3.43-.72-1.8-1.53-3.79-2.34-5.86 5.14.54 10.1.63 14.52-2.8ZM131.57 178.68c-.63.54-1.08.81-1.44 1.17-.72-.36-1.44-.63-2.07-.99q0-.09.09-.18h3.43ZM289.64 170.12c-.45.81-.99 1.53-1.35 2.34-3.52 8.84-6.94 17.76-9.29 27.05-1.71 6.94-3.25 13.89-4.06 21.01-.45 4.15-.72 8.48-1.53 12.53-.9 4.78-2.16 9.56-3.43 14.25-1.53 5.5-3.25 11-4.96 16.5 0 .09-.09.18-.09.09-4.33.36-8.03-1.62-12.08-2.98.27-1.35.54-2.62.72-3.97 1.62-10.1 3.34-20.29 4.87-30.39.81-5.68 1.35-11.45 1.98-17.22.63-5.32 1.17-10.64 1.8-16.05.27-2.89.45-5.86.9-8.75.72-4.51 1.53-8.93 2.34-13.35 1.08-5.95 2.25-11.99 3.43-17.95a55 55 0 0 1 1.89-6.58 4.1 4.1 0 0 1 1.71-2.52c.9 2.8 2.34 5.32 4.15 7.67.81.99 1.08 2.16.9 3.43-.09 1.08-.45 2.25-.63 3.34l-1.35 5.95c-.09.45-.09.9-.09 1.44 0 2.52 1.35 3.43 3.61 2.16 4.33-2.34 6.85-5.77 7.03-10.82.18-4.69 1.44-9.11 3.16-13.44a9.54 9.54 0 0 1 4.06-4.78c.27-.18.63-.36.9-.54a8.91 8.91 0 0 0 4.6-8.12v-1.71c3.7-.63 7.3-1.26 11.09-1.89a79 79 0 0 0 6.67 15.51c2.8 5.14 5.32 10.55 7.94 15.78a61.9 61.9 0 0 1 5.95 17.4c.63 3.43.81 6.94 1.08 10.37.54 6.13.09 12.17-.09 18.31-.27 8.03-1.53 15.96-2.25 23.99-.45 4.96-.81 10.01-1.35 14.97s-1.17 9.83-1.71 14.79l-.54 5.95v1.89c-.81.09-1.53.18-2.16.09-6.04-.18-12.08-.18-18.13-.63a140.28 140.28 0 0 1-27.95-4.96 31.58 31.58 0 0 1-6.58-2.8c0-.54 0-.99.09-1.53a50.14 50.14 0 0 1 2.89-9.56c2.52-5.86 5.68-11.36 8.75-16.95 2.16-3.88 4.15-7.85 6.22-11.72.45-.9.9-1.8 1.17-2.71.45-1.26.81-2.62.54-4.06-.36-1.71-.27-3.43-.27-5.14-.09-4.78-1.35-9.38-2.89-13.89-.54-1.62-1.08-3.25-1.8-4.87-.45-.9-.36-1.8 0-2.71 1.35-3.43 2.52-6.94 3.79-10.46.27-.72.45-1.35.54-2.07.09-.54 0-1.08-.09-1.62.27 0 .09-.09-.09-.09Zm19.93 25.16 5.5-.81c.36-.09.81-.27 1.08-.54s.36-.72.27-1.08c-.09-.54-.54-.54-.99-.45-.72.09-1.44.36-2.16.45-3.88.63-7.76.81-11.45-.9a.69.69 0 0 0-.45-.18c-.36.09-.81.18-.9.45s.09.72.27.9c.72.45 1.53.9 2.34 1.17 2.25.63 4.33.81 6.49.99Zm18.58 20.29c0-.72-.09-1.26-.9-1.44-.54-.09-1.17.09-1.26.63-.27 1.17-.54 2.34-.54 3.52 0 .9.81 1.17 1.53.54.27-.18.54-.54.63-.9.27-.81.36-1.53.54-2.34Zm-4.69 18.4c0 .81.09 1.44.81 1.62.72.18 1.08-.36 1.26-.9.27-.72.45-1.44.63-2.25.09-.63 0-1.26-.81-1.44-.72-.18-1.26.18-1.44.81-.18.81-.27 1.62-.45 2.16Zm2.71-53.66c-.18-.63-.27-1.44-.63-2.16a1.64 1.64 0 0 0-1.17-.72 1 1 0 0 0-.99 1.17c.09.9.36 1.71.63 2.52.18.54.63.9 1.17.72.72-.18.9-.63.99-1.53Zm.09 18.04v.81c.09.63.27 1.26.99 1.17.36 0 .9-.54.99-.99.27-.81.36-1.71.36-2.62 0-.54-.36-.99-.9-.99-.63-.09-.99.27-1.17.81l-.27 1.8Zm-4.96 53.29c0 .45 0 .63.09.81.09.54.36 1.08.9 1.08.36 0 .9-.36 1.08-.72.36-.63.45-1.35.63-2.07.09-.63-.27-1.08-.9-1.35-.63-.18-.99.18-1.26.72a5.2 5.2 0 0 0-.54 1.53Zm-1.26-91.08a3.57 3.57 0 0 0-1.26-2.16c-.72-.54-1.62-.09-1.71.9-.09.81.72 2.07 1.53 2.34s1.44-.18 1.44-1.08ZM288.65 454.8c-4.6-.72-9.11-.45-13.44-1.71a41 41 0 0 1-5.5-2.16c-.36-.18-.63-.54-.9-.81-.27-.45-.54-.9-.72-1.35-.9-3.07-1.8-6.22-2.71-9.29-.18-.54-.18-1.08-.81-1.17-.72-.18-.99.36-1.26.9-1.35 3.43-2.71 6.76-3.16 10.46a14.89 14.89 0 0 1-4.78-1.17c0-.27 0-.45.09-.63 1.62-4.06 2.16-8.39 2.71-12.62 1.08-8.39 2.07-16.77 3.07-25.16.72-6.31 1.17-12.53 1.71-18.85.72-9.74 1.44-19.48 2.07-29.13.27-4.42.45-8.84.72-13.26.45-8.93.81-17.85 1.35-26.69.18-4.15.63-8.3.9-12.44 0-.45.18-.81.18-1.26 1.35.9 10.64 12.44 12.08 14.79-.63.9-1.17 1.89-1.8 2.8a5.15 5.15 0 0 0-.54 4.96c.45 1.08.99 2.16 1.62 3.25a85.39 85.39 0 0 0 8.03 10.82c2.07 2.52 4.15 4.96 6.31 7.39.72.81 1.35 1.53 2.25 2.16.72.54.9 1.17.72 1.98l-1.35 10.1c-.72 5.59-1.44 11.18-2.07 16.77-.63 5.23-1.17 10.46-1.71 15.69-.45 4.87-.81 9.74-1.17 14.61-.36 5.32-.81 10.73-1.17 16.05-.36 5.86-.72 11.63-.99 17.49-.09 1.71.09 3.43.18 5.14 0 .81.09 1.53.09 2.34ZM308.31 62.45c-2.89.63-5.68 1.26-8.39 1.89a503.97 503.97 0 0 0-4.15-12.62c-1.44-4.24-2.71-8.48-4.87-12.81a2.75 2.75 0 0 0-.18 2.34c1.35 4.15 2.62 8.21 4.06 12.35 1.26 3.7 2.71 7.39 4.06 10.91-4.78 2.16-9.47 4.33-14.34 6.58-2.16-5.59-3.79-11.54-6.13-17.04-.09 0-.27.09-.36.09.54 1.98.99 3.88 1.62 5.77.54 1.98 1.17 3.88 1.8 5.77.63 1.98 1.44 3.88 2.16 5.86-1.17.9-2.34 1.71-3.61 2.71-2.43-6.85-4.51-13.89-8.12-20.56-.09.54-.27.81-.18 1.08.18.99.36 1.98.72 2.89 1.71 4.69 3.52 9.38 5.32 14.07.45 1.08.9 2.07 1.44 3.25l-3.25 2.98c-.18-.09-.27-.09-.36-.18-1.53-4.24-3.07-8.39-4.6-12.62-1.26-3.52-2.52-7.03-3.79-10.73.54-.54 1.17-1.08 1.8-1.62a14.97 14.97 0 0 0 3.16-5.23 29.98 29.98 0 0 1 4.15-7.48c.54-.72.99-1.44 1.08-2.43-.99-.18-1.71.36-2.25.81-1.89 1.53-3.43 3.34-3.97 5.77a14.4 14.4 0 0 1-2.25 5.41 8.61 8.61 0 0 1-7.57 3.97c-1.17 0-2.25-.09-3.43-.45-4.69-1.17-7.3-5.59-6.31-10.37.54-2.89 1.98-5.32 3.61-7.76.54-.81 1.26-1.62 1.89-2.52.99-1.35 1.44-2.71.45-4.33-.81-1.26-.54-2.62.27-3.88a12.22 12.22 0 0 1 8.75-5.5c1.53-.18 3.16-.18 4.69 0a8.92 8.92 0 0 0 4.78-.9l.27-2.07a13.62 13.62 0 0 1 3.25-8.3 12.87 12.87 0 0 1 9.38-4.6c3.43-.18 6.22 1.08 7.85 4.33.36.72.72 1.35 1.17 1.98.18.27.72.45 1.08.45.18 0 .45-.45.54-.81a5.66 5.66 0 0 1 8.75-2.98c3.61 2.71 5.14 8.75 3.34 12.9a16.11 16.11 0 0 1-2.98 4.51c-.36-.72-.63-1.53-.9-2.34h-.45c-.18.54-.36.99-.45 1.53-.09.27-.09.63 0 .9.18 1.35 0 2.43-1.17 3.34-.27.27-.45.63-.81 1.26.72.09 1.35.18 2.16.18a122.36 122.36 0 0 0 6.22 33.46c-1.44.18-2.62.27-3.88.36-1.08-3.88-2.07-7.67-3.07-11.45-1.35-4.69-2.71-9.29-4.06-13.98-.27-.81-.45-1.71-1.35-2.34-.45.81-.18 1.53 0 2.25 1.35 4.69 2.62 9.29 3.97 13.98 1.08 3.7 2.43 7.39 3.61 11.09-.18.72-.18.81-.18.9Zm-32.73-16.5c0 1.98.27 2.8 1.17 3.43a4.72 4.72 0 0 0-1.17-3.43Z" class="cls-1"/>
    <path d="M327.7 265.43c-.18-3.34.45-6.49.81-9.74.72-5.95 1.44-11.9 2.07-17.85.81-7.67 1.62-15.24 2.34-22.9.27-2.71.54-5.41.63-8.12.18-6.04.45-12.08.36-18.13-.09-6.94-.81-13.89-3.07-20.47a90.3 90.3 0 0 0-2.07-5.23c-.81-2.07-1.53-4.15-2.43-6.22-2.43-5.68-5.41-11-8.57-16.32-.99-1.71-1.8-3.52-2.62-5.32-.81-1.89-1.53-3.97-2.34-6.04 1.26 1.26 2.34 2.43 3.52 3.52a11.98 11.98 0 0 0 7.85 2.98c2.89 0 5.77 0 8.57.27 1.89.18 3.79.54 5.68 1.08 3.07.9 5.05 2.98 6.31 5.77a462.16 462.16 0 0 0 12.62 25.79 146.22 146.22 0 0 1 10.19 24.17c.99 3.16 2.34 6.22 3.52 9.38 1.89 5.05 2.89 10.28 3.97 15.6.18.81-.18 1.35-.54 1.8-2.34 2.98-4.6 6.04-7.03 9.02-2.98 3.61-6.04 7.12-9.11 10.73-.27.36-.54.63-.9 1.08-.99-3.34-1.8-6.58-2.98-9.65-1.17-3.07-3.25-5.59-5.41-8.21 1.08-1.62 2.34-3.43 3.43-5.32 1.62-2.71 3.07-5.5 4.69-8.3.45-.81.36-1.44 0-2.16-3.61-6.85-7.12-13.71-10.64-20.56-.27-.54-.63-1.08-.99-1.71.27-.36.45-.72.72-1.08a12.48 12.48 0 0 0 2.25-6.4 9.38 9.38 0 0 0-1.62-5.77 86.45 86.45 0 0 0-2.62-3.52 20.95 20.95 0 0 1-4.6-10.28c0-.18-.09-.27-.18-.45-.63-.09-.81.36-.81.9 0 .9 0 1.8.18 2.62.45 2.98 1.8 5.5 3.61 7.85l2.52 3.34c1.98 2.62 2.16 5.41.99 8.39a12.83 12.83 0 0 1-3.07 4.51c-.81.72-1.62 1.44-2.34 2.25-.45.45-.81.99-1.17 1.53.09.09.18.18.18.27.72-.36 1.35-.72 2.34-1.17-.09.9-.09 1.53-.18 2.16l-2.98 16.77c-.63 3.7-1.26 7.39-1.71 11.09a36.07 36.07 0 0 0-.36 6.22c.09 3.07.81 6.04 1.89 8.84.9 2.25.99 4.33.27 6.58-.72 2.16-1.44 4.33-2.43 6.4-1.8 3.7-3.7 7.3-6.13 10.73-.45.54-.72 1.26-.99 1.98-.09.36-.18.9 0 1.08s.72.09 1.08.09c2.43-.18 4.15-1.8 5.86-3.25.27-.18.45-.36.99-.81a7.7 7.7 0 0 0-.45 1.35c-.54 1.26-1.08 2.52-1.53 3.79l-.27 1.08c-.09.54-.09 1.08.45 1.35s.99-.09 1.35-.45l2.98-3.79c.27-.36.54-.81.99-1.44.09 1.17.18 1.98.27 2.89l.27 2.52c.09.63-.36.99-.9 1.08-3.97.63-7.94 1.98-11.99 1.98-.27 0-.45-.09-.72-.18ZM285.23 476.63c2.71-.27 4.33-2.07 6.49-2.98.45.54.99 1.08 1.53 1.71-.72.99-2.16 1.44-2.34 2.89 1.44.27 2.62-.45 3.79-1.17.54.54 1.08.99 1.62 1.44 3.25 2.98 7.03 5.32 10.91 7.48 1.08.63 2.34 1.17 3.34 1.98s1.8 1.8 2.71 2.8c.36.45.45 1.08 0 1.62-.36.45-.81.54-1.44.36-.45-.09-1.08-.18-1.53-.09-3.97.63-7.94.09-11.81-.27-7.39-.72-14.61-2.62-21.91-4.24a2.3 2.3 0 0 1-1.8-1.44c-.45-.9-.99-1.8-1.71-2.62-.9-1.08-1.8-.9-2.34.36-.18.54-.45.99-.63 1.53-.45 1.17-.45 1.35-1.62 1.17a23.66 23.66 0 0 1-3.61-.81c-.9-.27-1.44-.99-1.89-1.98-1.08-2.8-1.44-5.59-1.71-8.57-.27-3.07-.72-6.13-1.08-9.2-.36-3.43-.81-6.85-1.08-10.28-.09-.99.81-2.43 1.8-2.71.36-.09.99 0 1.26.27.9.72 1.8 1.62 2.62 2.43.72.81 1.35 1.71 1.98 2.62a5.82 5.82 0 0 0 4.15 2.25c1.8.18 2.62-.63 2.71-2.43v-4.33c3.34.63 6.58 1.17 10.1 1.8a30.73 30.73 0 0 0 4.42 11.18c-.99.72-1.98 1.35-2.89 2.07-.81.72-2.07 1.08-1.89 2.71 2.25-.45 3.88-1.89 5.86-2.89.45.72.99 1.35 1.44 2.07-2.07 1.89-4.33 2.62-5.41 5.23ZM378.29 465.54c-1.35 1.26-3.52 1.71-4.15 4.06 2.25 0 3.7-1.62 5.68-2.25.45.45.9.99 1.53 1.62-1.08.72-2.07 1.44-3.07 2.16-.45.36-.9.72-1.17 1.26-.18.18-.18.63 0 .81s.54.36.81.27c.45-.09.9-.27 1.26-.54 1.26-.72 2.43-1.53 3.79-2.34l1.71 1.44c-.9.72-1.89 1.35-2.07 2.71 1.26-.54 2.43-.9 3.7-1.44.36.27.9.54 1.44.9 3.16 2.07 6.31 4.15 9.74 5.86 1.44.72 2.62 1.89 3.79 2.98.99.9.9 2.07-.18 2.98-.63.54-1.53.99-2.34 1.08-3.16.45-6.4.9-9.65.54-2.89-.27-5.86 0-8.75-.18-3.7-.27-7.48-.72-11.18-1.17a3.18 3.18 0 0 1-2.34-1.35 8.96 8.96 0 0 0-1.26-1.35c-1.17-.99-2.43-.63-3.07.72-.18.45-.36.99-.36 1.53-.09.63-.45.99-.99.9-2.07-.18-4.15-.27-6.22-.63-1.17-.27-1.98-1.35-2.34-2.52a802.18 802.18 0 0 1-4.06-19.03c-.36-1.62 0-2.25 1.53-2.89 2.43-.9 4.87-.99 7.3-.18.99.27 1.98.63 2.98.9 2.98.81 5.05-.63 5.41-3.7.27-2.16 1.17-2.98 3.34-3.07 2.34-.09 4.06.9 5.23 2.8.27.45.54.99.81 1.53a37.23 37.23 0 0 1 3.16 5.59ZM309.84 121.69v2.25c-3.34 1.98-7.3 1.8-10.91 2.8-.54-2.16-.99-4.15-1.62-6.13-1.08-3.25-2.25-6.4-3.34-9.56l-.27-.54c-.36-.9-.9-1.26-1.89-1.17a6.54 6.54 0 0 1-4.6-1.26c.36-.45.54-.99.9-1.35 1.44-1.44 2.8-2.98 4.33-4.33 3.25-2.89 6.31-5.95 8.66-9.65.27-.45.54-.72 1.08-.72.27 0 .54-.09.72-.18.27-.18.63-.45.63-.63 0-.27-.36-.54-.54-.81-.09-.09-.27-.18-.36-.27 1.53-3.97 3.07-7.94 4.51-11.81 1.08-.36 2.07-.09 3.07.36 4.96 2.07 8.21 5.77 10.1 10.73a82.46 82.46 0 0 1 3.34 11.54 20.7 20.7 0 0 1 0 8.48c-.81 4.24-3.34 7.03-7.3 8.66-5.32 2.16-10.46 1.71-15.51-.72-.9-.45-1.62-1.26-2.34-1.98-.45-.45-.72-1.08-1.71-1.44a7.03 7.03 0 0 0 3.25 4.06c1.62.99 3.25 1.89 5.05 2.52 1.44.54 3.07.81 4.78 1.17Zm-3.61-12.17c.54 1.08 1.35.99 1.98 1.08.9.18 1.62.36 2.25 1.17 1.17 1.44 2.52 1.62 4.15.72a5.69 5.69 0 0 0 2.98-3.97c-.9-.54-1.62-.9-2.34-1.35-.54-.36-1.17-.54-1.71-.09-.18.09-.45.36-.63.36-1.35-.18-2.07.72-2.8 1.62-.45.54-.9.72-1.62.63-.63-.09-1.26-.09-2.25-.18Zm5.77-5.59.36.18c.27-.18.54-.36.72-.54 1.53-1.44 1.62-1.8.54-3.61-1.35-2.16-2.07-4.51-2.71-6.94-.09-.36-.27-.63-.36-.99-.09.09-.27.09-.45.18.27 3.43 1.62 6.49 3.34 9.29-.63.99-1.08 1.71-1.44 2.43Zm.36-15.87c.72.27 1.08.54 1.44.54l3.7.54c.54.09 1.08 0 1.26-.54.18-.63-.27-.99-.81-1.17a8.24 8.24 0 0 0-4.42-.27c-.27.09-.54.45-1.17.9Zm-8.84 11.72c-.18-.54-.45-1.35-.81-2.07-.36-.63-1.08-.63-1.44-.18-.9.99-.54 3.34.54 4.06.54.36 1.26.18 1.53-.45.09-.36.09-.72.18-1.35Zm15.15-4.33c0-.9-.45-1.8-.99-1.98-.18-.09-.54.09-.72.18-.54.45-.63 1.44-.18 2.16.27.36.72.81 1.08.81.72.09.81-.63.81-1.17Zm-15.06 12.53c-1.44.99-1.62 1.98-.63 3.07.27-1.08.45-2.07.63-3.07Zm-1.53-2.98c1.62-.54 2.43-1.53 2.52-2.98-.99 1.17-1.8 2.07-2.52 2.98Zm15.06-5.95c1.08.81 1.71.81 2.52 0h-2.52ZM281.53 324.95c.36.18.72.36.99.45.81-.54.45-1.08.09-1.62-1.08-1.62-2.16-3.34-3.34-4.96-2.8-3.61-5.77-7.12-8.57-10.73-2.62-3.25-5.14-6.58-7.67-9.83-.9-1.08-1.62-2.25-2.71-3.25-1.26-1.26-.99-2.52-.45-3.88.18-.54.72-.99 1.17-1.71.45.63.81.99 1.17 1.44 4.42 5.77 8.75 11.63 13.35 17.31 2.89 3.7 6.13 7.12 9.11 10.64.72.81 1.26.9 2.16.27.72-.45 1.26-1.08 1.89-1.62.72-.63 1.53-.72 2.52-.36a7.75 7.75 0 0 1 3.34 2.16c2.07 2.25 4.15 4.51 6.31 6.76a76.31 76.31 0 0 1 6.85 8.48 4.24 4.24 0 0 1 .72 3.97c-.72 2.62-1.44 5.05-2.98 7.3-1.08 1.71-1.98 3.52-2.98 5.32-.27.45-.54.99-.81 1.53-1.17 1.89-1.8 2.07-3.61.63a17.06 17.06 0 0 1-2.89-2.8c-3.16-3.7-6.22-7.39-9.29-11.18-1.71-2.16-3.25-4.6-4.87-6.85a11.2 11.2 0 0 1-.9-1.8 3.73 3.73 0 0 1 .27-3.97c.36-.27.63-.9 1.08-1.71Zm20.11 21.46c1.17 0 1.8-.72 1.44-1.8-.45-1.17-.9-2.43-1.71-3.52a406.46 406.46 0 0 0-9.38-11.9 11.77 11.77 0 0 0-3.88-3.43c-.63-.27-1.26-.63-1.89-.18-.72.54-.72 1.35-.45 1.98.45.99.9 1.98 1.53 2.89 3.7 4.78 7.57 9.56 11.27 14.34a4.17 4.17 0 0 0 3.07 1.62Zm-1.17 4.06c-.45-.99-.63-1.89-1.17-2.62a166.8 166.8 0 0 0-11.63-14.7 19.74 19.74 0 0 0-3.16-2.98c-.99-.72-1.98-.09-1.98 1.08 0 .54.09.99.27 1.53.45 1.71 1.53 3.07 2.62 4.42 2.43 2.98 4.96 5.95 7.39 8.93 1.35 1.62 2.71 3.16 4.06 4.69.27.27.63.54.9.81.45.36.99.9 1.62.45.54-.45.72-1.08 1.08-1.62Zm3.88-9.74c2.07 0 2.71-.9 2.07-2.43-.18-.45-.45-.9-.81-1.35-1.17-1.35-2.43-2.71-3.52-4.15-1.89-2.34-3.7-4.78-5.59-7.12-1.08-1.35-2.34-2.52-3.61-3.7a3.3 3.3 0 0 0-1.8-.81c-1.08-.18-1.89.81-1.62 1.89.09.45.36.99.63 1.44.63.9 1.35 1.89 1.98 2.8 2.16 2.8 4.15 5.59 6.4 8.3a63.58 63.58 0 0 0 4.15 4.42c.54.36 1.35.54 1.71.72ZM313.54 63.98c.18.54.36.81.45 1.08.45 1.62.9 3.16 1.44 4.78l-4.42-.27c-2.16-.18-4.24.36-6.31 1.08a40.21 40.21 0 0 0-6.49 2.71 123.85 123.85 0 0 0-8.84 5.05A38.44 38.44 0 0 0 279 87.16c-.09.18-.27.27-.63.54-.81-2.89-1.62-5.59-2.43-8.48 11.18-8.66 23.27-14.52 37.6-15.24Z" class="cls-1"/>
    <path d="M252.49 285.54c-.54 1.17-.54 1.26.72 5.86-.9-.72-1.44-1.44-1.8-2.25s-.72-1.53-1.26-2.52c-.27.9-.09 2.34.54 4.33-1.35-1.17-2.52-4.06-2.25-5.68.36-2.16.72-4.33 1.17-6.49.54-2.8 1.17-5.59 1.71-8.48 3.43 1.62 7.21 1.98 10.91 2.16.09.18.18.27.18.36-.54 3.52-.09 7.03.18 10.64.09 1.62 0 3.34 0 4.96-2.52-.36-4.15.9-4.6 3.61-.09.81-.18 1.53-.27 2.52-1.26-.9-1.89-2.07-2.52-3.25a62.5 62.5 0 0 1-1.44-3.79c-.27-.81-.54-1.53-1.26-1.98ZM332.03 256.33c1.89-3.34 3.79-6.67 5.68-9.92a25.23 25.23 0 0 0 3.34-11.9c0-1.35-.27-2.71-.45-4.15.99-.36 2.16-.9 3.52-1.35a13.82 13.82 0 0 1 4.42 6.58c.54 1.89.81 3.97 1.26 5.95.18.81-.09 1.53-.63 2.16-1.08 1.17-2.07 2.34-3.16 3.52a39.24 39.24 0 0 0-5.59 8.3 17.7 17.7 0 0 1-3.43 4.78c1.17-4.24 4.06-7.67 5.59-11.81-.09-.09-.18-.09-.27-.18-.27.18-.54.36-.72.54-1.08 1.35-2.16 2.71-3.34 3.97a25.96 25.96 0 0 1-5.86 4.96c.27-.36.45-.72.81-.99.27-.36.63-.72.99-.99a30.07 30.07 0 0 0 5.68-7.76c.27-.45.45-.99.72-1.8-1.17.54-1.44 1.35-1.89 2.07a46.48 46.48 0 0 1-6.67 8.03ZM348.89 449.57c1.98-.72 1.98-1.08 1.71-2.89a18.02 18.02 0 0 1-.18-4.42c.18.27.45.45.63.72 1.17 1.98 2.34 4.06 3.61 6.04.9 1.53 2.07 2.43 3.97 2.52 2.62.09 5.14.54 7.85.81.09.45.18 1.08.36 1.71-1.89.99-2.43 2.62-2.25 4.6.09 1.08-1.26 2.16-2.62 1.98-.81-.09-1.62-.45-2.43-.63-1.44-.36-2.89-.9-4.42-.99-1.62-.09-3.16.18-4.69.36.18-1.53.63-3.34.45-4.96-.27-1.71-1.26-3.25-1.98-4.87ZM266.56 294.2c-.81-1.08-1.71-2.07-2.34-2.98.09-1.08.36-1.89.27-2.8-.18-3.79-.54-7.57-.81-11.36l-.27-4.51c.45-.09.81-.18 1.17-.27.54-.18.81-.54.9-1.17.45-2.52.9-4.96 1.53-7.48s1.44-4.96 2.34-7.48c.09 1.17.18 2.34 1.35 2.8-.81 3.07-1.62 5.95-2.25 8.84-.45 2.25-.72 4.6-.81 6.94-.27 5.95-.45 11.9-.72 17.76 0 .45-.09.9-.09 1.35l-.27.36Z" class="cls-1"/>
    <path d="M351.51 246.23c.45-3.43-.09-6.58-.81-9.74a14.02 14.02 0 0 0-5.05-8.39l-.36-.36s0-.09-.09-.27a189.5 189.5 0 0 1 2.71-3.52c.45.45.9.81 1.26 1.26 3.7 4.69 5.32 10.19 6.49 15.87.09.54.09.99-.36 1.44-1.08 1.17-2.34 2.34-3.79 3.7Zm2.89-3.34c-.36-.45-.63-.99-.9-1.08-.63-.09-.9.45-.9.99-.09.54.27.99.81.9.27-.09.54-.45.99-.81ZM271.34 459.49c-1.26.18-2.16-.36-2.89-1.17-.45-.45-.81-.99-1.17-1.44-2.34-3.07-2.8-3.43-6.22-5.14.9-3.07 1.8-6.22 2.89-9.65.27.63.45.9.63 1.17.54 1.62.99 3.25 1.53 4.96.18.72.45 1.35.72 2.07a4.83 4.83 0 0 0 2.89 2.89c.9.27 1.71.81 2.62 1.26-.99 1.53-.81 3.25-.99 5.05ZM251.23 268.86c.45-2.25.81-4.24 1.26-6.4 1.98.9 3.88 1.71 5.77 2.52 1.98.81 3.97 1.08 6.13.81-.27 1.8-.54 3.34-.81 5.14-4.06-.27-8.21-.63-12.35-2.07Zm10.19-1.98c-.63.09-1.17.81-1.08 1.62 0 .72.45 1.08 1.08 1.08.72-.09 1.26-.81 1.17-1.62a1.24 1.24 0 0 0-1.17-1.08Z" class="cls-1"/>
    <path d="M170.7 115.38h-.27c-.54 0-1.26 0-1.35-.81-.09-.63.54-.81.99-.99.54-.18 1.17-.27 1.8-.54 1.17-.45 2.25-.9 3.43-1.35.36-.09.63-.36.99-.45.27 0 .72.09.81.27.18.27.18.72.09.99-.18.36-.54.63-.81.9-1.62 1.35-3.61 1.8-5.68 1.98ZM178.1 90.85c.45.09 1.26.27 1.98.54.36.09.63.36.9.63.45.45.54.99.27 1.53-.36.63-.9.54-1.53.36-.99-.27-1.98-.63-2.98-.99-.54-.18-1.08-.36-1.08-.99 0-.72.63-.9 1.17-1.08.27 0 .63.09 1.26 0ZM168.09 104.11c-.54.09-1.08.18-1.53.09-.9-.18-1.17-.9-.81-1.8.09-.27.36-.54.54-.81.72-.99 1.53-1.98 2.34-2.98.18-.18.54-.18.81-.27.09.27.18.63.09.81-.36.72-.72 1.35-1.17 1.98-.36.54-.81.99-1.17 1.53.36.27.63.54.99.81-.09.36-.09.45-.09.63ZM176.2 98.43c.09-.27 0-.81.27-1.17.18-.36.72-.72 1.08-.63.36 0 .9.54.9.81.09.81 0 1.71-.27 2.52-.09.36-.72.72-.99.72-.36 0-.72-.54-.81-.9-.18-.36-.09-.81-.18-1.35ZM162.59 97.89c.09-.45.09-.9.18-1.17.18-.54.63-.9 1.17-.81s.99.54.9 1.08a7.78 7.78 0 0 1-.54 2.07c-.09.27-.54.54-.81.54s-.63-.36-.81-.63c0-.36 0-.81-.09-1.08ZM179.9 110.42c-.18.09-.36.45-.63.54-.45.09-1.35-.99-1.26-1.53 0-.18.36-.54.54-.63.54-.09 1.26.72 1.35 1.62ZM309.57 195.28c-2.16-.18-4.33-.36-6.31-1.08-.81-.27-1.62-.72-2.34-1.17-.18-.09-.36-.63-.27-.9s.54-.36.9-.45c.09 0 .27.09.45.18 3.7 1.8 7.57 1.62 11.45.9.72-.09 1.44-.36 2.16-.45.45-.09.9-.09.99.45 0 .36-.09.81-.27 1.08-.27.27-.72.45-1.08.54-1.98.36-3.79.54-5.68.9ZM328.15 215.57c-.18.81-.27 1.53-.45 2.25-.09.36-.36.63-.63.9-.72.63-1.53.36-1.53-.54 0-1.17.27-2.34.54-3.52.09-.54.72-.72 1.26-.63.72.27.81.9.81 1.53ZM323.46 233.96c.18-.63.27-1.35.54-2.07.18-.63.72-.99 1.44-.81.81.18.9.81.81 1.44-.18.72-.36 1.53-.63 2.25-.18.54-.54 1.08-1.26.9-.81-.18-.81-.9-.9-1.71ZM326.17 180.31c0 .81-.27 1.35-.9 1.53s-.99-.27-1.17-.72c-.27-.81-.54-1.71-.63-2.52a1 1 0 0 1 .99-1.17c.45 0 .99.36 1.17.72.27.72.36 1.62.54 2.16ZM326.26 198.34c.09-.63.09-1.26.27-1.89.09-.54.54-.9 1.17-.81.63.09.99.45.9.99-.09.9-.09 1.8-.36 2.62-.09.45-.63.9-.99.99-.63.09-.9-.54-.99-1.17v-.72ZM321.3 251.64c.09-.45.27-.99.54-1.62.18-.45.63-.81 1.26-.72.63.18.99.72.9 1.35a5.54 5.54 0 0 1-.63 2.07c-.18.36-.63.72-1.08.72-.54 0-.9-.45-.9-1.08-.09-.18-.09-.36-.09-.72ZM320.03 160.56c0 .99-.63 1.44-1.44 1.08-.72-.27-1.53-1.62-1.53-2.34.09-.9.9-1.35 1.71-.9a3.57 3.57 0 0 1 1.26 2.16ZM275.58 45.94a5.61 5.61 0 0 1 1.17 3.43c-.81-.63-1.17-1.44-1.17-3.43ZM306.24 109.52c.9.09 1.62.09 2.25.18.72.09 1.17-.09 1.62-.63.72-.9 1.44-1.8 2.8-1.62.18 0 .45-.27.63-.36.63-.36 1.17-.27 1.71.09.72.45 1.44.9 2.34 1.35a5.68 5.68 0 0 1-2.98 3.97c-1.62.81-2.98.72-4.15-.72-.63-.81-1.35-.99-2.25-1.17-.63-.09-1.35 0-1.98-1.08Zm4.51.27c1.89 0 3.52-.18 5.41-.81-.72-.54-1.35-.9-1.8-1.26-.9.99-.9 1.08-1.44.99-1.08-.36-1.53.27-2.16 1.08Zm.63 1.17c1.62 1.35 3.25.99 4.51-.99-1.53.36-2.98.72-4.51.99ZM312.01 103.93c.45-.72.9-1.44 1.44-2.34-1.71-2.89-3.07-5.95-3.34-9.29.09-.09.27-.09.45-.18.09.36.27.63.36.99.63 2.43 1.35 4.78 2.71 6.94 1.08 1.8.99 2.16-.54 3.61-.18.18-.45.36-.72.54l-.36-.27ZM312.37 88.06c.63-.45.9-.81 1.26-.81a9.23 9.23 0 0 1 4.42.27c.45.18.99.45.81 1.17-.18.63-.72.63-1.26.54l-3.7-.54c-.45-.09-.81-.27-1.53-.63ZM303.44 99.78c-.09.63-.09.99-.18 1.26-.27.63-.9.81-1.53.45-1.08-.72-1.44-3.07-.54-4.06.36-.45 1.08-.45 1.44.18.45.81.63 1.62.81 2.16ZM318.68 95.45c0 .63-.09 1.26-.81 1.26-.36 0-.9-.45-1.08-.81-.45-.72-.27-1.71.18-2.16a.7.7 0 0 1 .72-.18c.54 0 .99.99.99 1.89ZM303.62 107.99c-.18.99-.36 1.98-.63 3.07-.9-1.08-.81-2.07.63-3.07ZM302.09 105.01c.81-.9 1.53-1.89 2.52-2.98-.09 1.44-.9 2.43-2.52 2.98ZM317.24 99.06h2.52c-.9.81-1.53.81-2.52 0ZM301.64 346.41a3.92 3.92 0 0 1-2.98-1.53 1567 1567 0 0 1-11.27-14.34 10.94 10.94 0 0 1-1.53-2.89c-.27-.63-.27-1.44.45-1.98.63-.45 1.26-.18 1.89.18 1.62.81 2.8 2.07 3.88 3.43 3.16 3.97 6.31 7.85 9.38 11.9.81.99 1.26 2.25 1.71 3.52.27 1.08-.36 1.71-1.53 1.71Zm-2.98-3.52c.63-2.62.54-2.62-.81-4.33a299.82 299.82 0 0 1-4.96-6.22c-1.26-1.53-2.71-3.07-4.06-4.51-.45-.45-1.08-.72-1.8-1.26 0 1.53.63 2.43 1.35 3.34 2.62 3.34 5.23 6.58 7.85 9.92.72.9 1.53 1.89 2.43 3.07Zm3.52 2.34c-.27-1.44-.9-2.43-1.89-3.79v1.89c-.09 1.44 0 1.62 1.89 1.89ZM300.47 350.47c-.36.54-.54 1.17-.99 1.53-.63.54-1.17 0-1.62-.45-.36-.27-.63-.54-.9-.81-1.35-1.53-2.71-3.16-4.06-4.69-2.43-2.98-4.96-5.86-7.39-8.93-1.08-1.35-2.16-2.71-2.62-4.42-.09-.54-.27-.99-.27-1.53 0-1.26.99-1.89 1.98-1.08 1.17.9 2.16 1.89 3.16 2.98 4.15 4.69 8.03 9.56 11.63 14.7.45.72.72 1.71 1.08 2.71Zm-16.86-19.93c.09.72 0 1.08.18 1.44.63 1.26 1.17 2.71 2.07 3.79 3.52 4.33 7.21 8.57 10.91 12.9.18.27.45.45.81.72.45-1.35.09-2.34-.81-3.34-1.17-1.26-2.25-2.71-3.34-4.06-2.71-3.25-5.41-6.58-8.12-9.83-.45-.63-.99-.99-1.71-1.62Zm15.06 20.29h.45c-.09-.36-.09-.81-.18-1.17h-.27v1.17ZM304.34 340.73c-.36-.18-1.17-.36-1.71-.81a38.83 38.83 0 0 1-4.15-4.42c-2.16-2.71-4.24-5.5-6.4-8.3a29.9 29.9 0 0 1-1.98-2.8c-.27-.45-.54-.9-.63-1.44-.27-1.08.54-2.07 1.62-1.89a3.3 3.3 0 0 1 1.8.81 46.92 46.92 0 0 1 3.61 3.7c1.89 2.34 3.7 4.78 5.59 7.12 1.17 1.44 2.34 2.8 3.52 4.15.36.36.63.9.81 1.35.63 1.62 0 2.52-2.07 2.52Zm-4.51-5.5c.54-1.71.72-2.89-.54-4.06-1.44-1.44-2.62-3.16-3.88-4.69-.99-1.17-1.98-2.25-2.98-3.43-.45-.45-.99-.9-1.8-.81-.54.81 0 1.35.45 1.8 2.34 3.07 4.78 6.13 7.21 9.2.45.63.9 1.17 1.53 1.98Zm5.41 4.24c.09-.09.09-.18.18-.36-.81-1.89-2.34-3.16-3.61-4.87-.81 2.52-.81 2.62.81 3.97.36.27.72.63 1.17.81.45.27.99.27 1.44.45ZM354.39 242.89c-.45.36-.72.72-1.08.81-.54.09-.81-.36-.81-.9.09-.54.36-1.08.9-.99.36.09.63.54.99 1.08ZM261.51 266.88c.54 0 .99.45 1.08 1.08.09.81-.45 1.53-1.17 1.62-.63.09-.99-.36-1.08-1.08 0-.81.45-1.53 1.17-1.62Z" class="cls-4"/>
    <path d="M310.75 109.79c.63-.81 1.08-1.44 2.07-1.08.54.18.54.09 1.44-.99.54.36 1.08.81 1.8 1.26-1.8.63-3.43.81-5.32.81ZM311.38 110.96c1.62-.36 3.07-.72 4.51-.99-1.26 1.98-2.98 2.34-4.51.99ZM298.66 342.81c-.9-1.17-1.71-2.07-2.52-3.07-2.62-3.34-5.23-6.58-7.85-9.92-.72-.9-1.44-1.8-1.35-3.34.72.45 1.35.81 1.8 1.26 1.35 1.44 2.71 2.98 4.06 4.51 1.71 2.07 3.34 4.15 4.96 6.22 1.44 1.71 1.53 1.71.9 4.33ZM302.18 345.24c-1.89-.18-1.98-.45-1.89-1.89v-1.89c.9 1.35 1.53 2.34 1.89 3.79ZM283.6 330.54c.72.63 1.26.99 1.62 1.44 2.71 3.25 5.41 6.58 8.12 9.83 1.08 1.35 2.16 2.8 3.34 4.06.9.99 1.26 1.98.81 3.34-.27-.27-.54-.45-.81-.72-3.61-4.24-7.3-8.57-10.91-12.9-.9-1.08-1.44-2.52-2.07-3.79-.09-.09 0-.45-.09-1.26ZM298.66 350.83v-1.17h.27c.09.36.09.81.18 1.17-.09-.09-.27-.09-.45 0ZM299.83 335.14c-.63-.81-1.08-1.35-1.53-1.89-2.43-3.07-4.78-6.13-7.21-9.2-.36-.54-.9-.99-.45-1.8.81-.18 1.35.27 1.8.81.99 1.08 1.98 2.25 2.98 3.43 1.35 1.53 2.43 3.25 3.88 4.69 1.26 1.17 1.08 2.34.54 3.97ZM305.25 339.47c-.45-.09-.99-.18-1.44-.36-.45-.18-.81-.54-1.17-.81-1.62-1.35-1.71-1.53-.81-3.97 1.26 1.71 2.8 2.98 3.61 4.87 0 0-.09.09-.18.27Z" class="cls-1"/>
  </g>
  <g id="primary-color">
    <path d="M204.25 188.33c.18 2.52.18 5.14.27 7.67a5.1 5.1 0 0 1-.27 1.62c-1.44-1.8-3.34-2.71-5.14-3.79-3.43-1.98-6.85-4.24-10.46-5.77a74.36 74.36 0 0 0-18.67-5.05c-3.16-.45-6.31-.54-9.47-.72-.63-.09-1.26-.09-1.8-.27-.27-.09-.63-.18-.63-.36-.27-1.26-1.35-1.89-2.25-2.62.36-3.34.27-10.01-.18-11.09-1.08.63-1.17 1.89-.99 2.71.54 1.98.09 3.88-.36 5.77-.09.27-.09.54-.18.72-.18.99-.54 1.08-1.35.81-.99-.36-1.98-.72-2.89-1.08-3.07-1.26-6.31-.99-9.56-.72-1.71.18-3.43.36-5.32.63.45-1.8.63-3.52 1.44-4.87 2.34-4.06 3.52-8.57 5.41-12.81a130.23 130.23 0 0 1 5.32-10.55c1.26-2.34 2.71-4.6 4.78-6.4a15.01 15.01 0 0 1 5.77-3.07c5.32-1.44 10.73-1.89 16.32-1.89-.27.9-.54 1.62-.72 2.43-.45 3.07.18 5.95 1.71 8.75 1.35 2.25 3.52 3.52 5.77 4.6 1.44.72 2.89 1.35 4.6 1.53 4.24.54 7.76-.63 10.73-3.79 2.71-2.89 3.97-6.4 4.87-10.19.36-1.62.63-1.8 2.25-1.08 3.61 1.71 7.48 2.8 11.27 3.97 2.25.72 4.51 1.62 6.67 2.52.54.18 1.08.63 1.53.99a98.3 98.3 0 0 1 4.24 4.42c.45.45.72 1.08.9 1.62.81 3.52 1.53 7.03 2.25 10.55.81 4.15.9 8.39.99 12.62 0 1.44.18 2.89.18 4.42 0 1.08-.18 2.16-.27 3.25 0 .45-.09.9 0 1.44.27 5.23-.09 10.37-.54 15.6-.09.99-.36 2.07-.72 3.07-.9 2.52-1.53 5.23-3.16 7.48-1.89 2.8-4.42 4.51-7.85 4.78-1.62.09-3.25 0-5.05 0-.09-.54-.18-1.08-.18-1.62a22.67 22.67 0 0 0-2.07-8.75c-1.17-2.52-3.07-4.42-5.14-6.22-.72-.63-.9-1.17-.9-2.07.09-4.06.09-8.03 0-12.08-.09-3.79-.45-7.57-.72-11.36a9.86 9.86 0 0 0-.54-2.34c-.72 1.08-.36 2.16-.36 3.25v3.43c0 1.08.18 2.16.27 3.25.18.99.09 5.14.18 6.67ZM209.12 241.63a29.77 29.77 0 0 1-7.21 3.52c-8.39 2.71-16.95 3.34-25.61 2.71-.72-.09-1.44-.09-2.16-.18-4.15-.36-7.21-2.89-10.28-5.23-.9-.63-1.62-1.53-2.43-2.25-.81-.63-.99-1.53-.99-2.52 0-.9 0-1.71-.09-2.62-.27-5.86-.63-11.63-.9-17.49a500.4 500.4 0 0 0-.72-11.63l6.67-.81c.45 0 1.08 0 1.44.27 3.7 2.89 8.03 4.6 12.44 6.04 3.52 1.17 7.03 2.25 10.64 3.07a131.83 131.83 0 0 0 15.69 2.71c.99.09 1.98.27 2.98.45.9.09 1.35.63 1.26 1.44 0 .72-.09 1.44-.27 2.16a161.5 161.5 0 0 0-.99 6.49c0 .18 0 .45-.09.63-.81 2.43-.45 4.96 0 7.39.36 1.98.45 3.79.63 5.86ZM295.06 335.32s0-.09 0 0c-.09.45-.18.99-.36 1.62-.09.18-.09.45-.09.63.27.36.63.72.9 1.08.09-.81.18-1.62.36-2.52a3.44 3.44 0 0 1-.81-.81ZM294.6 343.53l-.81-.81c-.09.81-.27 1.53-.45 2.34.27.36.63.63.9.99.09-.81.27-1.62.36-2.43.09 0 0-.09 0-.09ZM288.74 335.95c-.09.99-.18 1.98-.27 3.16.09.09.09.18.18.18.27.27.45.54.72.9.09-.9.27-1.89.45-2.98-.36-.45-.72-.9-1.08-1.26ZM272.33 302.23c.09-2.07.18-4.06.36-6.13.54-6.04 1.08-12.17 1.8-18.22.63-5.05 1.44-10.01 2.25-14.97.09-.45.27-.99-.63-1.53-.63 1.98-.63 3.88-.99 5.77-.36 1.98-.63 3.88-.9 5.86l-.81 5.86c-.27 1.98-.45 4.06-.72 6.04l-.54 5.95c-.18 1.98-.27 3.97-.36 5.95-.09 1.44-.18 2.8-.18 4.42.18.27.45.63.72.99ZM296.41 330.9c.09-.9.27-1.8.36-2.62v-.18l-.81-.81c-.09.81-.27 1.71-.36 2.62.18.18.36.45.54.63.09.09.18.18.27.36Z" class="cls-3"/>
    <path d="M308.67 336.67c-.09-.99-.36-1.8-1.17-2.43-.45-.36-.72-.9-1.08-1.35-.36-.54-.72-1.17-1.17-1.71-2.62-3.07-5.32-6.04-7.85-8.93-.27-.27-.54-.63-.81-.9a5.78 5.78 0 0 1-.9-1.17 12.86 12.86 0 0 0-4.06-3.15 2.76 2.76 0 0 0-3.07.45c-.63.54-1.35 1.17-2.07 1.62-.81.54-1.17.45-1.71-.27a17.57 17.57 0 0 1-1.53-2.07l.09.09a399.75 399.75 0 0 1-6.85-7.67 942.85 942.85 0 0 1-6.13-7.57c-2.71-3.7-5.41-7.39-8.21-11.09-.36-.45-.63-1.08-1.35-.9-.45.18-.9.63-1.17 1.17-.36.63-.36 1.35-.63 2.07-.18.72 0 1.17.45 1.71 1.44 1.62 2.8 3.25 4.15 4.87a322.18 322.18 0 0 0 14.79 18.22c1.62 1.8 3.07 3.7 4.06 5.95.27.54-1.98 2.71-2.34 3.43-.72 1.35-.81 2.71 0 3.97l1.62 2.71c.09.27.27.54.27.81.27.27.45.54.63.9l.63.9s.09.09.09.18c.18.18.27.27.36.45 1.26 1.44 2.43 2.98 3.7 4.42.81.9 1.53 1.8 2.25 2.8.99 1.35 1.98 2.71 3.07 3.97 1.62 1.8 3.43 3.52 5.14 5.23.63.63 1.35.99 2.16 1.62.63-.81 1.08-1.44 1.53-2.16 1.62-2.52 3.25-4.96 4.78-7.48 1.62-2.62 2.62-5.5 2.34-8.66Zm-10.28 15.06c-1.17-1.08-2.25-2.25-3.34-3.43q-.09 0-.09-.09c-.09-.09-.09-.18-.18-.27-.18-.18-.27-.36-.45-.45-.09-.09-.09-.18-.09-.36-.09-.18-.27-.36-.36-.54-.18-.18-.36-.45-.54-.63-.27-.18-.54-.36-.72-.54l-2.98-3.79c-.09-.18-.27-.36-.36-.54-.36-.45-.81-.9-1.17-1.35-.09-.18-.27-.36-.36-.54-.45-.45-.81-.72-1.17-1.08a15.32 15.32 0 0 1-2.98-4.51c-.09-.27-.27-.63-.27-.9-.09-.09-.09-.27-.18-.36a4.24 4.24 0 0 1-.36-1.44c0-.27.09-.54.36-.81a.68.68 0 0 1 .36-.18c0-.09 1.35.27 1.71.72.27.27.54.63.72.9.99.72 1.71 1.8 2.43 2.71.9 1.17 1.98 2.25 2.71 3.61 0 .09 3.79 4.87 4.06 5.14.09 0 3.07 3.61 4.42 5.59.45.63.54 1.62.54 2.34-.09.99-.99 1.53-1.71.81Zm3.88-5.59c-.63.45-1.8.18-2.52-.72-1.08-1.26-3.43-4.15-3.43-4.33-.09-.27-.36-.45-.54-.63s-.45-.45-.72-.63c-.54-.63-3.7-4.42-4.51-5.77l-2.07-2.34c-1.08-1.35-2.62-2.62-2.62-4.42 0-.18.09-.27.09-.36.09-.45.27-.9.54-1.08.27-.18.9-.09 1.26.09.45.18.81.45 1.17.72.81.18 1.35.72 1.89 1.35s.99 1.35 1.53 1.98l1.35 1.62c.18.27.45.45.54.72.18.18.36.45.54.63.36.45 1.98 2.43 2.34 2.8 1.26 1.62 2.62 3.25 3.88 4.96.63.9 1.17 1.89 1.62 2.8.45 1.08.27 2.25-.36 2.62Zm3.7-6.22c-.27.36-.99.54-1.35.36a9.44 9.44 0 0 1-2.52-1.26c-.54-.36-.99-.9-1.35-1.44l-1.89-2.43c-.18.09-.36.09-.45-.09-.9-1.44-1.71-2.98-2.89-4.24-.27-.27-.54-.54-.81-.9v-.09c-.54-.54-1.08-1.17-1.53-1.71s-.9-1.08-1.44-1.62c-.09-.09-.18-.27-.36-.45a4.4 4.4 0 0 1-1.62-2.43v-.63c-.18-.36-.09-.45.45-.99v.09c.18-.18.36-.36.54-.45s.45-.09.63-.09v-.27c.72.45 1.26.63 1.71.99.9.9 1.8 1.8 2.52 2.71 2.62 3.07 5.14 6.13 7.67 9.29.81.99 1.53 1.98 2.25 3.07.27.36.54.72.63 1.08 0 .54.09 1.17-.18 1.53ZM305.61 266.52c-3.34 17.58-5.95 35.26-8.66 53.11.27.36.54.63.81.99 2.71-18.13 5.5-36.16 9.02-54.11h-1.17Z" class="cls-3"/>
    <path d="M290.37 329.1c-.27-.36-.54-.63-.81-.9-.09.9-.18 1.8-.36 2.71.09.18.27.36.45.45.18.18.36.45.54.63l.27-2.8-.09-.09ZM282.07 338.21c-.09-.27-.27-.54-.36-.81-.27 2.89-.45 5.77-.72 8.57-.45 6.04-.9 12.17-1.44 18.22-.45 5.86-.81 11.72-1.35 17.58a320.1 320.1 0 0 1-4.06 27.86c-1.71 9.65-2.8 19.39-2.71 29.22 0 3.52-.09 7.12-.09 10.64v1.98c.54-.63.45-1.17.54-1.71.18-4.15.45-8.3.45-12.53.09-8.39 1.08-16.77 2.43-25.07.99-6.04 2.07-11.99 2.89-18.04a433.34 433.34 0 0 0 3.16-32.01c.54-7.67 1.17-15.42 1.71-23.09v-.27c-.18-.09-.36-.36-.45-.54ZM129.67 188.6c.99-.36 1.89-.72 2.89-1.08a76.26 76.26 0 0 1 5.77-2.25 61.76 61.76 0 0 1 5.77-1.89c.81-.18 1.8 0 2.8.09 1.26.09 2.52.09 3.7.18.72 0 1.44.09 2.25.18-.9.9-1.62 1.8-2.34 2.52-3.52 3.25-5.32 7.39-5.86 12.08-.09 1.17.09 2.34.18 3.7-.81-.18-1.62-.18-2.43-.45-2.16-.63-4.42-1.17-6.58-1.89-3.88-1.26-6.04-4.42-6.04-8.48-.09-.9-.09-1.71-.09-2.71ZM361.79 449.93c.27 0 .45 0 .72.09-.18-.72-.36-1.44-.45-2.16-1.17-4.78-2.52-9.47-3.61-14.25-2.25-9.92-4.33-19.84-6.49-29.76a688.46 688.46 0 0 1-7.3-38.69c-1.08-6.76-2.16-13.62-3.34-20.38-.99-5.77-2.07-11.54-3.16-17.4a3688.68 3688.68 0 0 0-5.77-30.75 201.14 201.14 0 0 1-3.34-22.09c-.18-2.25-.54-4.42-.81-6.67 0-.18 0-.45-.09-.63h-.9c0 .45-.09.81 0 1.17.18 2.16.45 4.24.72 6.4.63 5.05 1.26 10.1 2.07 15.15 1.08 6.22 2.34 12.35 3.52 18.58 1.62 8.75 3.25 17.49 4.78 26.24 1.98 11.36 3.88 22.72 5.86 34 1.44 8.3 2.8 16.68 4.51 24.89 2.62 12.62 5.5 25.25 8.39 37.87 1.35 6.04 3.16 11.99 4.78 17.95-.09.27-.09.36-.09.45ZM356.29 447.68c-.18-.45-.36-.9-.45-1.35a482.18 482.18 0 0 1-8.93-34c-3.07-13.17-6.04-26.42-9.11-39.59-1.71-7.57-3.61-15.24-5.05-22.9-1.26-6.22-2.07-12.44-3.07-18.67-1.35-8.84-2.62-17.58-3.97-26.42-.99-6.76-2.16-13.62-3.25-20.38-.72-4.51-1.26-9.02-1.89-13.44-.09-.72-.27-1.53-.45-2.34 1.08 0 1.08.72 1.17 1.26.27 1.44.45 2.89.72 4.33 1.08 7.21 2.25 14.43 3.34 21.64.9 5.5 1.71 11 2.62 16.5 1.89 12.26 3.7 24.62 5.77 36.88.99 5.77 2.43 11.54 3.7 17.22 2.07 9.38 4.06 18.76 6.22 28.04 1.98 8.84 3.97 17.67 6.13 26.51 1.89 7.67 3.97 15.24 5.86 22.81.36 1.26.54 2.52.9 3.7-.09.18-.18.18-.27.18ZM366.39 447.68c.18.72.27 1.53.45 2.34h.81c-.27-1.89-.54-3.7-.99-5.5-1.17-5.5-2.34-11-3.61-16.5-2.71-12.35-4.78-24.89-6.85-37.33-1.08-6.31-2.07-12.53-3.34-18.76-2.34-11.72-4.06-23.63-6.04-35.44-1.44-9.02-2.8-18.04-4.51-26.96-2.07-10.91-3.61-21.91-5.23-32.91-.45-2.8-.99-5.5-1.44-8.3-.09-.45-.09-1.08-.9-1.17-.36.72-.18 1.44 0 2.07.9 5.41 1.98 10.73 2.71 16.14 1.08 8.21 2.52 16.23 3.97 24.35 1.71 9.83 3.34 19.75 4.96 29.58.9 5.5 1.62 11 2.62 16.5 1.26 7.3 2.8 14.52 4.06 21.82 1.44 8.03 2.8 16.14 4.33 24.17 1.71 9.02 3.43 18.13 5.23 27.14 1.08 6.31 2.53 12.53 3.79 18.76ZM311.29 276.98c1.71-.18 2.52.45 2.98 2.16 3.16 13.35 6.49 26.69 9.56 40.13 1.71 7.76 3.07 15.51 4.6 23.27l3.25 17.85c1.17 6.67 2.25 13.35 3.43 20.02 2.71 15.87 6.4 31.56 10.1 47.16 1.35 5.95 2.62 11.9 3.16 18.04v1.62h-.36a70.72 70.72 0 0 0-.63-3.88c-1.35-6.4-2.52-12.9-3.97-19.3-3.25-13.8-6.58-27.59-8.93-41.57a3120.61 3120.61 0 0 0-5.32-30.75c-2.89-16.14-5.86-32.28-9.83-48.24-1.62-6.49-3.07-12.99-4.69-19.48a26.3 26.3 0 0 0-1.44-4.51c-.54-.81-1.26-1.62-1.89-2.52ZM276.03 317.1l-1.08 14.52c-.45 5.86-.99 11.63-1.44 17.49l-1.08 13.44c-.27 3.97-.54 7.94-.9 11.81-.27 3.52-.63 6.94-.99 10.46-.54 5.5-1.17 11-1.8 16.5l-1.08 9.92c-.45 4.06-.81 8.12-1.17 12.17-.45 4.51-.9 9.02-1.89 13.44a4.28 4.28 0 0 0 .36 2.98c.18-1.17.27-2.07.36-2.98.54-3.52 1.26-7.03 1.71-10.64s.72-7.21 1.08-10.91c.45-4.42.99-8.93 1.44-13.35.45-4.33.99-8.66 1.44-13.08.45-4.33.99-8.57 1.35-12.9.45-4.69.72-9.38 1.08-14.07.45-5.68.9-11.27 1.44-16.95.36-4.78.81-9.56 1.17-14.34.36-4.15.54-8.3.9-12.44-.36-.36-.63-.72-.9-1.08ZM287.84 344.88c-.27 2.16-.45 4.33-.72 6.4-1.35 10.28-2.8 20.56-4.24 30.84-1.35 9.74-2.8 19.48-4.06 29.22a179.73 179.73 0 0 0-1.44 23.09c0 6.31.36 12.62.54 18.94 0 .09 0 .27.09.36.09 0 .27 0 .36.09.09-.18.09-.45.09-.72 0-1.8-.09-3.52-.18-5.32a243.1 243.1 0 0 1 .9-32.37c.9-8.93 2.25-17.76 3.52-26.6.9-6.49 1.98-12.99 2.98-19.48.81-5.32 1.44-10.64 2.16-15.96.36-2.43.54-4.96.9-7.39a9.53 9.53 0 0 0-.9-1.08ZM270.8 310.97c-.09.99-.27 1.89-.36 2.8l-1.08 12.81c-.45 5.59-.81 11.27-1.08 16.86-.45 7.94-.63 15.96-1.08 23.9-.27 5.5-.81 11-1.26 16.5-.27 3.07-.45 6.13-.81 9.2-.27 2.62-.63 5.14-.9 7.76-.54 4.78-1.17 9.65-1.8 14.43-.54 4.69-1.17 9.38-1.71 14.16-.54 5.68-.9 11.45-2.62 16.95-.18.63-.18 1.26-.18 1.89.09 0 .27 0 .36.09.27-.9.45-1.8.72-2.71 1.08-3.7 1.8-7.48 2.07-11.36.36-4.33.81-8.57 1.26-12.9 1.08-9.02 2.25-17.95 3.25-26.96.72-6.85 1.35-13.71 1.89-20.56.54-7.03.9-14.16 1.26-21.19.36-7.03.54-14.07.99-21.1.27-4.51.72-8.93 1.17-13.44l.54-5.77v-.27a4.26 4.26 0 0 0-.63-1.08ZM292.8 350.92c-.09-.09-.09-.18-.18-.27-.54 4.24-.99 8.48-1.44 12.62-.54 4.69-.9 9.47-1.53 14.16-.54 4.87-1.35 9.74-1.89 14.52-.81 7.3-1.53 14.61-2.34 21.91-.9 8.84-1.35 17.67-1.44 26.51-.09 4.51 0 9.02-.63 13.62v.54h.45c.18-2.16.54-4.33.63-6.49.27-6.58.36-13.26.72-19.84.18-3.88.45-7.67.81-11.54.36-4.33.9-8.66 1.35-13.08.63-5.5 1.35-11.09 2.07-16.59.54-4.51 1.17-9.11 1.71-13.62.63-5.32 1.17-10.64 1.8-15.96.18-1.89.45-3.79.63-5.68-.27-.27-.54-.54-.72-.81ZM290.01 264.53h-.72c0 .18 0 .36-.09.54-.45 2.89-.99 5.86-1.35 8.84-.72 5.41-1.44 10.82-2.07 16.23-.45 3.7-.72 7.48-1.08 11.18-.45 4.6-.9 9.29-1.26 13.89.36.27.63.63.9.99.18-2.43.45-4.78.63-7.21.45-4.87.9-9.74 1.44-14.61.81-7.48 1.8-14.97 2.71-22.45.27-2.07.72-4.06.99-6.13.09-.36.18-.81.18-1.17-.09-.09-.18-.09-.27-.09ZM296.68 265.88a67.47 67.47 0 0 1-.72 4.51c-1.71 7.94-2.52 15.96-3.25 23.99-.45 5.32-.99 10.55-1.44 15.87-.18 1.8-.36 3.52-.45 5.32v.09c.27 0 .54 0 .81.09q.09 0 .18.09c.18-1.62.27-3.25.45-4.87.72-7.57 1.35-15.15 2.07-22.72.36-3.97.9-7.85 1.53-11.81.54-3.25 1.17-6.58 1.8-9.83 0-.18.09-.36.09-.54-.45-.09-.81-.18-1.08-.18ZM282.79 263.63c-.09.9-.18 1.8-.36 2.71-.72 4.24-1.62 8.48-2.25 12.71a371.5 371.5 0 0 0-1.8 14.43c-.54 4.42-.99 8.84-1.53 13.17 0 .18 0 .45-.09.63 0 .09.09.09.18.18l.09.09c.18.18.27.36.36.54.09.09.18.27.27.36v-.27l.54-5.32 1.35-12.44c.72-5.5 1.53-11 2.34-16.5.45-3.25 1.17-6.4 1.71-9.65v-.72c-.27.09-.54.09-.81.09Z" class="cls-3"/>
  </g>
</svg>