<svg width="482" height="482" viewBox="0 0 482 482" fill="none" xmlns="http://www.w3.org/2000/svg">
<path opacity="0.1" d="M257.697 0.0577381C272.398 0.153938 286.907 1.8182 301.058 5.98366C319.856 11.5152 336.09 21.366 350.097 34.9687C361.472 46.0125 371.035 58.5089 379.422 71.9095C382.15 76.2674 384.859 80.6445 387.394 85.1082C394.752 98.2151 403.266 110.642 412.834 122.241C415.649 125.628 418.319 129.139 421.047 132.602C425.745 138.598 429.906 144.994 433.483 151.717C440.828 165.397 443.576 180.019 442.602 195.421C441.792 208.283 438.91 220.75 435.42 233.102C431.709 246.224 426.908 258.961 421.761 271.573C418.203 280.285 414.523 288.947 410.723 297.556C403.657 313.564 397.439 329.908 391.038 346.176C386.006 358.98 380.617 371.621 374.081 383.751C361.732 406.666 346.52 427.426 327.616 445.416C316.405 456.075 304.153 465.223 290.068 471.823C279.609 476.729 268.706 479.874 257.167 480.759C243.507 481.818 230.58 479.047 218.154 473.496C208.582 469.216 199.79 463.665 191.432 457.364C179.768 448.581 169.125 438.634 158.685 428.475C145.546 415.69 133.602 401.827 121.831 387.801C116.476 381.397 111.075 375.031 105.626 368.706C97.0564 358.797 87.8213 349.504 78.4319 340.375C71.5779 333.708 65.0034 326.782 59.1905 319.172C50.9097 308.321 44.7209 296.44 41.6843 283.059C39.2839 272.496 38.7633 261.789 39.5442 251.015C40.6774 234.283 43.9062 217.759 49.1553 201.828C53.4643 188.927 59.4026 176.768 66.1024 164.954C74.8748 149.495 84.6497 134.67 94.7043 120.019C97.577 115.834 100.363 111.592 103.13 107.34C103.924 106.106 104.601 104.802 105.154 103.444C108.027 96.402 110.726 89.2832 113.695 82.2799C116.953 74.5839 120.867 67.215 125.899 60.4906C126.892 59.1534 127.904 57.8162 128.811 56.4213C135.183 46.657 143.521 38.836 152.968 32.1308C157.393 28.9947 162.126 26.3877 166.966 23.925C182.938 15.7753 199.814 9.52754 217.248 5.31026C227.852 2.75134 238.552 0.683038 249.474 0.0769781C252.203 -0.0673219 254.95 0.0577381 257.688 0.0577381H257.697Z" fill="#F9BC13"/>
<path d="M199.2 316.729C196.79 315.69 195.961 314.545 196.337 312.169C197.166 307.022 200 303.251 204.666 300.875C204.897 300.75 205.177 300.587 205.418 300.615C207.356 300.817 208.773 299.721 210.315 298.826C211.067 298.337 211.923 298.029 212.816 297.929C213.708 297.829 214.611 297.938 215.453 298.249C215.974 297.691 216.543 297.133 217.044 296.527C219.271 293.776 221.44 290.976 223.724 288.273C224.844 286.952 226.059 285.714 227.359 284.569C229.605 282.578 232.102 282.636 234.618 284.021C237.339 285.511 239.561 287.765 241.009 290.505C242.375 293.048 244.394 295.183 246.86 296.69C248.268 297.566 249.82 298.23 251.333 298.913C251.632 299.047 252.133 298.961 252.452 298.797C256.761 296.546 261.465 295.44 266.092 294.199C272.927 292.352 279.829 290.764 286.693 289.023C288.091 288.667 289.594 288.475 290.664 287.301C290.819 287.128 291.146 287.051 291.397 287.013C293.383 286.743 294.559 285.425 295.581 283.886C297.644 280.769 299.803 277.71 301.76 274.526C306.705 266.474 312.663 259.182 318.746 251.986C324.655 245.002 330.545 237.999 336.628 231.169C339.414 228.042 342.614 225.262 345.719 222.424C348.948 219.471 352.91 218.153 357.2 217.72C359.793 217.46 362.386 217.239 364.97 216.893C368.334 216.44 371.101 214.69 373.675 212.621C374.06 212.313 374.436 211.765 374.475 211.303C374.696 208.446 374.629 205.599 374.234 203.04C371.756 202.232 369.51 201.626 367.351 200.769C361.374 198.412 357.846 193.833 356.65 187.715C354.385 176.133 356.371 165.377 364.044 156.084C367.833 151.505 372.624 148.273 378.668 147.859C383.517 147.532 388.433 147.638 392.906 150.197C397.406 152.783 400.959 156.737 403.048 161.481C404.735 165.137 406.132 168.898 405.496 173.054C405.785 173.247 405.997 173.429 406.229 173.526C408.909 174.622 409.747 176.806 409.767 179.471C409.767 179.932 409.632 180.394 409.593 180.856C409.285 184.868 406.682 186.907 403.163 187.83C401.399 188.292 400.58 189.158 400.175 190.813C399.38 194.062 399.168 197.427 399.548 200.75C399.818 203.049 400.377 205.329 400.956 207.59C401.843 211.034 404.166 213.256 407.492 214.324C411.685 215.68 415.859 217.056 420.245 217.768C422.79 218.182 425.326 218.98 427.736 219.942C432.074 221.654 434.802 225.118 436.749 229.196C437.636 231.053 438.195 233.064 438.957 234.988C443.266 245.868 445.56 257.22 447.006 268.773C447.421 272.082 447.748 275.421 447.825 278.749C448.057 288.754 448.163 298.759 448.288 308.773C448.307 310.149 448.144 311.524 448.057 313.016C448.722 312.967 449.185 312.958 449.628 312.91C452.751 312.583 455.865 312.236 458.989 311.928C459.683 311.861 460.463 311.717 460.917 312.621C460.454 313.583 459.577 313.372 458.834 313.439L447.989 314.449C447.69 315.69 447.44 316.777 447.16 317.854C446.1 322.01 443.748 324.867 439.545 326.397C434.252 328.321 428.796 329.023 423.253 329.437C419.455 329.716 415.657 330.043 411.868 330.418C410.75 330.524 409.661 330.918 408.542 331.101C406.104 331.486 403.665 332.005 401.206 332.13C395.731 332.409 390.246 332.563 384.761 332.602C379.671 332.65 374.639 331.919 369.635 330.938C368.209 330.659 366.714 330.687 365.249 330.707C362.309 330.726 359.321 330.524 356.448 330.976C353.287 331.492 350.19 332.346 347.213 333.525C341.207 335.836 334.822 337.007 328.386 336.979C323.44 337.027 318.476 336.585 313.55 336.854C310.417 337.027 307.332 336.989 304.228 336.777C304.026 336.758 303.823 336.815 303.63 336.815C300.16 336.787 298.376 334.449 299.302 331.082C299.437 330.601 299.774 330.13 300.131 329.754C300.488 329.37 300.931 328.985 301.403 328.802C304.324 327.725 306.397 325.512 308.585 323.482C312.492 319.752 317.641 317.591 323.045 317.412C327.19 317.229 331.326 316.941 335.452 316.613C337.64 316.44 339.809 316.084 341.988 315.546C341.381 315.517 340.783 315.449 340.185 315.449C329.89 315.392 319.584 315.392 309.289 315.267C304.411 315.209 299.639 315.295 294.829 316.575C287.956 318.412 280.841 318.711 273.727 318.73L259.084 318.759C258.419 318.759 257.744 318.807 257.079 318.807C254.505 318.788 252.423 319.48 250.736 321.741C246.831 326.974 240.999 328.725 234.897 329.812C229.566 330.749 224.163 331.213 218.75 331.197C216.302 331.197 213.853 331.621 211.395 331.64C206.652 331.688 201.909 331.64 197.166 331.515C195.248 331.467 194.496 330.457 194.534 328.494C194.621 324.271 195.836 320.49 198.786 317.354C198.911 317.191 199.007 317.008 199.181 316.748L199.2 316.729ZM438.301 324.723C440.451 324.281 441.945 323.376 443.054 321.847C444.24 320.219 444.987 318.314 445.223 316.315C445.579 313.266 445.975 310.207 446.003 307.147C446.061 298.537 446.003 289.928 445.849 281.327C445.81 277.592 445.543 273.862 445.049 270.158C443.497 259.124 441.714 248.129 437.588 237.662C436.633 235.247 435.949 232.708 434.869 230.351C433.124 226.541 430.502 223.453 426.444 221.933C424.516 221.202 422.52 220.529 420.496 220.173C416.543 219.494 412.675 218.394 408.957 216.893C408.041 216.517 407.087 216.238 406.103 215.892C405.485 218.413 403.922 220.603 401.737 222.01C400.044 223.195 398.22 224.18 396.3 224.944C391.036 226.984 385.493 227.465 379.921 227.157C377.087 227.003 374.214 226.387 371.486 225.57C368.508 224.665 366.657 222.549 366.56 219.23C366.56 219.134 366.396 219.047 366.396 219.047L357.113 219.365C353.016 219.509 349.362 220.808 346.355 223.627C343.386 226.416 340.368 229.177 337.64 232.188C332.801 237.537 328.135 243.04 323.44 248.513C317.618 255.315 311.795 262.107 306.783 269.543C305.288 271.755 303.881 274.026 302.367 276.229C299.591 280.279 297.297 284.675 293.682 288.196C303.062 291.89 307.168 298.98 307.612 308.898C312.075 304.656 315.941 300.356 320.009 296.248C324.096 292.111 328.26 288.061 332.357 283.934C336.387 279.865 340.359 275.748 344.35 271.659L344.677 271.861C344.215 272.708 343.868 273.651 343.27 274.382C341.168 276.969 339.096 279.596 336.802 282.02C328.637 290.663 320.42 299.257 312.152 307.802C310.301 309.706 308.142 311.313 306.137 313.064C305.982 313.208 305.886 313.42 305.684 313.708H322.534C331.49 313.727 340.455 313.978 349.401 313.304C349.912 313.266 350.432 313.189 351.107 313.112C351.04 311.813 351.069 310.611 350.886 309.437C349.093 297.633 347.251 285.839 345.449 274.035C344.947 270.745 344.504 267.436 344.109 264.117C344.012 263.328 343.733 262.376 344.591 261.741C345.574 261.818 345.535 262.607 345.67 263.213C346.085 265.098 346.48 266.993 346.866 268.889C349.358 281.522 351.246 294.267 352.524 307.08C352.775 309.379 353.093 311.678 353.402 314.16C357.258 313.256 360.892 312.467 364.488 311.553C366.753 310.976 368.98 310.245 371.216 309.552C381.242 306.455 391.374 303.732 401.737 301.981C405.091 301.414 408.465 300.962 411.83 300.461C412.148 299.605 412.659 298.807 412.697 297.989C412.852 294.863 413.121 291.707 412.832 288.61C412.408 284.04 411.55 279.499 410.875 274.949C410.789 274.362 410.519 273.756 411.184 272.727C411.849 274.911 412.456 276.652 412.919 278.432C413.391 280.24 413.758 282.068 414.114 283.905C414.461 285.676 414.847 287.446 415.02 289.225C415.204 291.072 415.252 292.958 415.184 294.815C415.127 296.642 414.857 298.46 414.654 300.51C415.907 300.51 416.91 300.433 417.893 300.529C419.272 300.663 420.805 300.606 421.99 301.193C424.795 302.587 427.639 304.04 430.088 305.945C435.467 310.149 438.59 315.632 438.301 322.693C438.272 323.28 438.301 323.877 438.301 324.694V324.723ZM306.821 334.805C308.373 335.606 310.122 335.95 311.863 335.796C316.934 335.546 322.004 335.247 327.084 335.093C333.803 334.891 340.407 334.122 346.74 331.678C351.069 330.014 355.522 328.783 360.217 328.975C366.493 329.235 372.778 329.552 379.054 329.918C387.209 330.399 395.345 330.351 403.472 329.456C408.783 328.869 414.105 328.321 419.436 327.821C424.497 327.349 429.577 327.061 434.541 325.897C435.236 325.733 435.91 325.512 436.566 325.329C437.462 317.027 434.088 310.918 427.591 306.32C425.782 305.061 423.93 303.864 422.038 302.732C421.485 302.383 420.842 302.203 420.188 302.212C416.052 302.462 411.907 302.655 407.79 303.117C396.03 304.451 384.443 307.018 373.221 310.774C368.478 312.379 363.655 313.737 358.771 314.843C353.855 315.93 348.996 317.652 343.81 317.017C343.366 316.96 342.894 317.162 342.431 317.229C339.983 317.566 337.544 317.97 335.086 318.22C330.69 318.663 326.304 319.057 321.898 319.394C317.011 319.769 313.02 322.01 309.048 325.435C312.133 324.675 314.765 324.002 317.406 323.386C320.009 322.78 322.592 322.029 325.725 322.058C324.337 323.319 322.987 323.424 321.744 323.78C317.579 324.992 313.357 326.06 309.25 327.436C306.667 328.302 304.228 329.61 301.741 330.745C301.259 330.966 300.574 331.207 300.931 331.871C308.403 329.742 315.877 327.622 323.354 325.512C323.865 325.368 324.395 325.291 324.915 325.204C324.964 325.204 325.041 325.252 325.089 325.3C325.128 325.348 325.137 325.416 325.243 325.675C324.742 325.983 324.25 326.426 323.662 326.628C320.587 327.725 317.512 328.831 314.389 329.802C310.754 330.928 307.062 331.88 303.418 332.967C302.58 333.218 301.587 333.391 301.24 334.43C303.033 335.825 304.295 336.046 305.134 334.863C306.243 333.295 307.814 332.611 309.52 332.313C315.169 331.313 320.847 330.457 326.506 329.543C326.545 329.543 326.593 329.6 326.853 329.793C326.082 330.12 325.455 330.495 324.78 330.659C322.968 331.101 321.137 331.486 319.295 331.842C316.153 332.448 312.981 332.958 309.848 333.602C308.913 333.795 308.065 334.314 306.84 334.834L306.821 334.805ZM404.889 214.997C404.802 214.853 404.754 214.718 404.657 214.641C404.407 214.42 404.156 214.18 403.867 214.035C401.033 212.621 399.876 210.033 399.124 207.196C397.987 202.895 397.881 198.489 397.938 194.083C397.958 192.708 398.266 191.284 398.69 189.966C399.298 188.1 400.165 186.57 402.537 186.166C404.571 185.82 406.479 184.694 407.029 182.366C407.486 180.464 407.282 178.463 406.451 176.691C405.843 175.363 404.812 174.834 403.385 174.92C401.717 175.026 400.57 175.931 399.519 177.152C397.784 179.172 395.75 178.942 394.661 176.489C394.025 175.055 393.784 173.429 393.446 171.881C392.945 169.61 392.656 167.282 392.019 165.05C391.104 161.799 388.742 159.981 385.512 159.182C382.842 158.528 380.355 159.086 377.897 160.106C376.547 160.664 375.188 161.308 373.761 161.568C371.534 161.972 370.705 161.135 370.657 158.913C370.619 156.998 370.079 156.537 368.218 156.835C367.758 156.91 367.313 157.057 366.898 157.268C364.786 158.355 362.955 159.75 361.779 161.895C357.894 168.995 356.92 176.585 357.576 184.569C358.058 190.438 360.902 194.718 365.529 198.037C365.857 198.268 366.194 198.48 366.531 198.701C372.277 202.578 382.649 203.299 388.578 196.537C389.108 195.94 389.793 195.478 390.4 194.949C390.371 196.796 389.32 197.903 388.135 198.865C385.3 201.154 382.11 202.539 378.398 202.559C377.559 202.559 376.721 202.703 375.998 202.761C376.219 205.156 376.441 207.33 376.615 209.504C376.699 210.51 376.52 211.519 376.096 212.435C375.672 213.35 375.017 214.141 374.195 214.728C372.71 215.858 371.14 216.875 369.5 217.768C367.852 218.682 367.476 219.278 368.43 220.885C369.009 221.845 369.813 222.651 370.773 223.232C371.843 223.857 373.115 224.194 374.34 224.473C379.227 225.599 384.163 225.416 389.099 224.733C392.287 224.343 395.393 223.443 398.295 222.068C401.39 220.548 403.838 218.403 404.898 214.997H404.889ZM215.27 329.254C217.429 330.139 219.521 330.524 221.642 330.168C226.906 329.271 232.163 328.334 237.413 327.359C241.713 326.57 245.626 325.012 248.624 321.654C249.425 320.76 250.273 319.903 251.179 319.105C251.767 318.586 252.442 318.143 253.136 317.797C255.17 316.777 257.387 316.69 259.595 316.681C266.083 316.662 272.57 316.739 279.048 316.662C285.006 316.594 290.944 316.065 296.728 314.564C298.839 314.016 300.883 313.16 302.907 312.323C303.351 312.14 303.775 311.505 303.9 311.005C304.845 307.157 304.295 303.424 302.657 299.884C300.526 295.286 297.133 291.919 292.303 290.12C291.176 289.674 289.918 289.691 288.804 290.168C287.189 290.809 285.538 291.355 283.859 291.803C273.968 294.372 264.068 296.892 254.177 299.442C254.09 299.461 254.033 299.596 253.955 299.682L255.315 300.798C253.83 301.568 252.606 301.298 251.372 300.567C250.283 299.932 249.135 299.384 248.007 298.826C244.672 297.171 241.635 295.247 239.948 291.669C238.724 289.081 236.574 287.205 234.203 285.647C231.764 284.05 229.952 284.232 227.937 286.301C226.963 287.301 226.134 288.436 225.219 289.504C222.442 292.746 219.704 296.027 216.851 299.201C215.376 300.837 213.67 302.251 212.099 303.79C211.809 304.069 211.617 304.444 211.173 305.06C216.668 303.453 221.391 301.241 225.354 297.585C226.78 296.277 228.168 294.93 229.653 293.679C231.292 292.294 232.622 292.804 233.143 294.872C233.567 296.546 234.097 298.191 234.618 299.836C234.897 300.721 235.321 301.577 235.553 302.482C235.717 303.117 235.659 303.819 235.707 304.694C234.299 304.213 234.107 303.203 233.904 302.376C233.21 299.49 230.868 298.201 228.795 296.594L223.753 301.308C225.199 302.366 226.877 303.068 226.877 305.214C224.544 305.118 223.426 303.117 221.555 302.607L217.294 304.887C217.979 305.483 218.654 305.878 219.03 306.464C220.003 307.975 221.459 308.456 223.098 308.687C226.048 309.11 228.785 310.168 231.398 311.544C232.333 312.044 233.229 312.65 234.039 313.333C234.926 314.083 235.148 315.036 234.743 316.219C233.422 320.077 230.993 322.799 226.973 323.905C225.305 324.367 223.599 324.713 221.912 325.127C219.261 325.781 217.092 327.205 215.289 329.283L215.27 329.254ZM210.045 307.292C209.881 307.705 209.756 308.138 209.534 308.523C208.306 310.822 207.46 313.304 207.028 315.873C206.827 316.987 206.737 318.118 206.758 319.249C206.777 321.058 207.568 322.328 208.763 322.597C210.392 322.953 211.433 322.039 212.282 320.837C213.046 319.663 213.71 318.427 214.268 317.143C215.347 314.68 216.504 312.294 218.798 310.659C219.271 310.322 219.714 309.822 219.088 308.889C218.509 309.139 217.748 309.264 217.314 309.697C216.245 310.698 215.306 311.829 214.518 313.064C213.477 314.834 212.725 316.787 211.78 318.624C211.395 319.468 210.885 320.25 210.267 320.942C209.457 321.779 208.387 321.558 208.069 320.442C207.738 319.296 207.62 318.1 207.722 316.912C207.992 314.314 208.667 311.803 209.862 309.456C210.248 308.696 210.556 307.898 210.874 307.167C208.859 305.579 208.84 305.339 210.479 303.482C211.144 302.732 211.829 302.001 212.513 301.27L214.084 299.605C211.192 299.394 209.207 300.779 207.654 302.78C205.485 305.589 203.911 308.81 203.027 312.246C202.854 312.89 202.892 313.593 202.806 314.516C204.811 313.689 205.592 312.159 206.633 310.909C207.683 309.639 208.291 307.994 210.045 307.272V307.292ZM206.016 302.289C202.14 303.444 197.957 309.023 198.092 312.64C198.159 314.478 198.892 314.882 200.993 314.131C201.504 309.831 203.789 306.205 206.016 302.289ZM231.224 294.43L229.47 295.93L232.217 297.2L231.224 294.43ZM68.636 209.543C68.6649 207.359 68.7517 205.175 68.7324 203.001C68.6746 198.336 68.5203 193.66 68.4914 188.995C68.4432 180.991 68.3661 172.977 68.4721 164.973C68.5493 159.307 68.771 153.631 69.1951 147.984C69.3783 145.493 70.1399 143.021 70.8243 140.587C71.7497 137.325 74.0826 135.363 77.1771 134.122C81.303 132.467 85.6313 132.275 89.979 132.073C98.3947 131.698 106.801 131.303 115.216 130.986C119.159 130.832 123.102 130.842 127.045 130.736C139.413 130.399 151.771 129.985 164.14 129.716C169.422 129.601 174.705 129.851 179.978 129.774C188.066 129.668 196.154 129.408 204.242 129.235C211.944 129.072 219.618 129.601 227.253 130.505C229.152 130.726 231.07 131.284 232.844 132.015C239.042 134.584 242.378 139.336 242.908 145.983C243.091 148.302 243.043 150.649 242.975 152.987C242.513 169.197 241.982 185.397 241.568 201.606C241.423 207.475 241.472 213.352 241.587 219.221C241.78 229.581 241.279 239.894 240.189 250.187C239.939 252.771 239.248 255.292 238.146 257.643C237.512 259.08 236.553 260.352 235.344 261.357C234.134 262.362 232.708 263.073 231.176 263.434C227.166 264.454 223.107 265.31 218.933 265.387C209.717 265.541 200.492 265.772 191.276 265.839C183.121 265.897 174.956 265.733 166.8 265.714C150.682 265.695 134.574 265.714 118.465 265.714C113.385 265.714 108.305 265.637 103.224 265.599H97.7585C97.4403 266.84 97.1993 267.869 96.9101 268.889C94.7797 276.392 92.7842 283.934 90.4224 291.361C89.4613 294.302 87.4418 296.784 84.7541 298.326C79.5003 301.5 73.7934 303.54 67.9998 305.397C64.6414 306.498 61.235 307.448 57.791 308.244C53.6651 309.168 49.9826 307.859 46.7339 305.339C44.4107 303.54 42.2417 301.549 39.9667 299.682C38.3664 298.374 36.6987 297.152 35.0985 295.834C32.0329 293.304 29.2855 290.486 27.6371 286.811C27.0421 285.474 26.6615 284.052 26.5092 282.597C25.9115 276.69 25.4488 270.784 24.9186 264.867C24.3017 258.028 23.7425 251.188 23.0195 244.367C22.5279 239.73 21.7856 235.122 21.1783 230.505C21.0723 229.716 21.0723 228.908 21.0723 228.109C21.1012 225.06 22.2869 222.607 25.1307 221.289C29.1313 219.442 33.1319 217.585 37.2482 216.046C44.2677 213.455 51.4608 211.36 58.7743 209.774C61.782 209.11 64.78 208.619 67.8166 209.572C67.9805 209.629 68.1926 209.552 68.6264 209.524L68.636 209.543ZM70.5255 209.966C76.3191 212.689 81.9489 215.286 87.5304 217.98C92.1673 220.221 96.5824 222.838 100.843 225.753C101.973 226.474 102.919 227.448 103.609 228.596C104.298 229.744 104.711 231.037 104.815 232.371C105.008 234.468 105.143 236.71 104.661 238.73C102.819 246.445 100.708 254.093 98.7032 261.77C98.5104 262.511 98.2983 263.251 98.0284 264.213H101.499C109.924 264.194 118.349 264.175 126.775 264.175C134.795 264.175 142.825 264.271 150.846 264.223C161.007 264.156 171.167 263.934 181.337 263.857C189.82 263.8 198.313 263.954 206.806 263.828C213.487 263.732 220.167 263.357 226.78 262.251C232.834 261.241 236.497 257.845 237.722 251.842C238.252 249.235 238.551 246.561 238.676 243.905C239.023 236.508 239.341 229.11 239.466 221.712C239.63 212.775 239.524 203.829 239.659 194.892C239.765 187.686 240.132 180.49 240.247 173.285C240.324 168.283 240.161 163.28 240.132 158.278C240.112 154.94 240.17 151.602 240.161 148.273C240.161 147.369 240.035 146.455 239.948 145.224C221.064 145.281 202.362 145.628 183.661 145.801C164.872 145.974 146.074 146.234 127.286 146.436C108.594 146.638 89.8922 146.811 71.1617 146.994C71.0653 147.503 70.9303 147.956 70.9014 148.417C70.6893 151.409 70.3423 154.411 70.3423 157.402C70.323 174.555 70.3809 191.698 70.4194 208.85C70.4291 209.312 70.4965 209.764 70.5158 209.985L70.5255 209.966ZM63.3437 211.063C62.0519 211.246 61.059 211.323 60.0853 211.534C51.6985 213.295 43.5527 215.882 35.4937 218.73C32.1679 219.904 28.9963 221.51 25.7766 222.992C23.4341 224.069 22.4604 226.07 22.6821 228.542C23.0581 232.66 23.5401 236.758 24.0607 240.866C24.8704 247.349 25.873 253.804 26.5767 260.298C27.3768 267.725 27.8877 275.17 28.6397 282.607C28.7843 284.03 29.2181 285.522 29.9218 286.753C30.834 288.378 31.9733 289.864 33.3054 291.169C35.0695 292.881 37.1036 294.295 38.9834 295.892C41.8368 298.316 44.6035 300.837 47.5051 303.194C48.6716 304.136 50.1176 304.742 51.4479 305.483C51.5347 305.531 51.6889 305.454 51.9299 305.425L52.3637 303.915C51.6985 303.578 51.0912 303.309 50.5225 302.972C49.1439 302.155 47.6112 301.5 46.4544 300.442C42.3381 296.642 38.2893 292.746 34.3273 288.783C32.2835 286.821 30.8879 284.284 30.3267 281.51C29.8929 279.153 29.6615 276.758 29.3916 274.382C29.0638 271.534 28.9963 268.638 28.4565 265.839C27.5214 260.962 27.2901 256.046 26.9623 251.12C26.7695 248.129 26.5767 245.127 26.3453 242.135C26.0465 238.21 25.7477 234.285 25.3621 230.37C25.1596 228.36 26.0561 227.032 27.7046 226.137C31.4545 224.098 35.137 221.895 39.2147 220.538C40.9692 219.952 42.7623 219.5 44.536 218.98L44.7192 219.5C42.5405 220.452 40.333 221.366 38.1736 222.376C34.9756 223.88 31.7942 225.42 28.63 226.994C27.0298 227.782 26.3068 229.043 26.6056 230.909C26.9527 233.083 27.2033 235.276 27.3865 237.46C28.1673 247.032 28.283 256.642 29.8447 266.157C30.5484 270.428 30.9822 274.747 31.3485 279.067C31.6763 282.953 33.3922 286.07 36.1107 288.706C39.7642 292.236 43.4274 295.748 47.2063 299.124C48.768 300.519 50.6671 301.539 52.6433 302.886L55.5642 292.265L56.0365 292.381L53.9061 302.751C55.4774 303.049 56.9234 302.751 58.3116 302.366C62.6881 301.154 67.0358 299.855 71.3931 298.624C74.8843 297.699 78.2178 296.259 81.2837 294.353C82.373 293.651 83.4816 292.977 84.9758 292.054C84.1704 293.659 82.8831 294.974 81.2933 295.815C78.78 297.339 76.0813 298.535 73.2632 299.374C70.8918 300.077 68.5878 300.991 66.1875 301.568C62.1097 302.559 58.1091 303.944 53.8579 304.146C53.7422 304.146 53.6265 304.261 53.3855 304.396L53.0963 305.916C53.7422 306.022 54.2531 306.128 54.7641 306.176C56.8077 306.397 58.755 305.887 60.6637 305.262C64.4041 304.021 68.1058 302.664 71.8558 301.481C76.1801 300.084 80.3553 298.264 84.3203 296.046C85.8169 295.254 86.9847 293.959 87.6172 292.39C88.9957 288.927 90.4803 285.473 91.5117 281.895C94.3941 271.832 96.9776 261.693 99.0502 251.419C99.9082 247.176 101.2 243.02 102.135 238.797C102.55 236.931 102.723 234.968 102.704 233.054C102.675 230.851 101.865 228.879 99.8793 227.609C97.5175 226.099 95.2521 224.406 92.7746 223.107C87.9323 220.555 83.0205 218.136 78.0447 215.854C74.7767 214.362 71.3641 213.179 67.9901 211.929C67.0261 211.573 65.9754 211.476 64.8957 211.246L64.3751 213.487C66.5827 214.632 69.1855 214.728 71.0846 216.517L63.951 215.18C63.3437 218.691 62.7363 221.962 62.2351 225.252C61.7338 228.504 61.3385 231.765 60.8951 235.026L60.4999 235.007C60.1239 231.678 60.5288 228.36 60.9819 225.05C61.4446 221.722 62.0037 218.403 62.5435 214.959C57.5886 214.776 53.3566 216.969 48.8451 217.999C50.7827 216.277 53.1638 215.478 55.5256 214.757C57.926 214.026 60.4227 213.574 63.0255 212.958C63.093 212.573 63.1701 212.006 63.2955 211.082L63.3437 211.063ZM71.4316 145.647L238.522 143.482C238.715 143.482 238.917 143.405 239.1 143.328C239.216 143.28 239.312 143.174 239.515 143.021C239.065 140.677 237.868 138.54 236.102 136.931C233.559 134.731 230.445 133.293 227.118 132.785C220.437 131.63 213.689 131.477 206.922 131.515C194.756 131.582 182.59 131.592 170.425 131.707C163.744 131.775 157.054 132.015 150.374 132.188C142.758 132.39 135.133 132.679 127.517 132.804C118.832 132.958 110.136 133.054 101.479 133.92C97.7585 134.295 94.0085 134.257 90.2682 134.42C87.4629 134.536 84.6481 134.507 81.8717 134.853C79.5678 135.142 77.2735 135.738 75.3647 137.229C72.6366 139.375 71.8654 142.405 71.4413 145.637L71.4316 145.647ZM212.397 287.099C212.127 286.974 211.973 286.945 211.896 286.859C210.46 285.387 209.38 285.406 208.329 287.147C207.847 287.955 207.577 289.004 207.558 289.947C207.539 291.14 208.3 291.544 209.457 291.092C210.19 290.803 210.874 290.37 211.559 289.976C212.06 289.687 212.532 289.341 213.178 288.917C213.303 290.87 211.964 291.515 210.826 292.198C209.689 292.881 208.368 293.487 207.066 292.708C206.473 292.29 206.036 291.688 205.823 290.995C204.994 288.398 207.192 284.675 209.833 284.069C211.568 283.665 212.879 284.762 212.773 286.532C212.773 286.686 212.581 286.84 212.407 287.109L212.397 287.099ZM192.992 285.685C192.799 285.704 192.568 285.81 192.433 285.733C191.199 285.021 190.254 285.522 189.425 286.426C188.509 287.426 188.133 288.6 188.567 289.918C188.991 291.197 189.994 291.63 191.642 291.428C192.375 291.332 193.127 290.649 193.869 291.428C193.704 291.832 193.459 292.199 193.15 292.507C192.84 292.815 192.472 293.059 192.067 293.223C191.662 293.387 191.228 293.468 190.791 293.462C190.354 293.457 189.922 293.364 189.522 293.189C188.622 292.785 187.859 292.13 187.324 291.303C185.752 288.696 187.43 284.867 190.38 284.059C191.893 283.646 192.703 284.136 192.982 285.704L192.992 285.685Z" fill="#030F40"/>
<path d="M248.345 267.484C246.417 268.956 245.925 270.813 246.137 272.891C246.349 274.94 247.805 275.748 249.704 274.901C250.331 274.622 250.938 274.295 251.777 273.881C251.854 275.478 251.025 276.132 250.109 276.642C249.582 276.94 248.989 277.099 248.384 277.106C247.779 277.112 247.182 276.966 246.648 276.681C246.161 276.454 245.732 276.119 245.396 275.7C245.06 275.281 244.825 274.79 244.711 274.266C244.432 273.2 244.406 272.083 244.633 271.005C244.861 269.927 245.336 268.916 246.022 268.052C246.513 267.426 247.072 266.801 248.345 267.484ZM267.48 269.033C265.147 269.216 264.27 270.418 263.933 272.111C263.673 273.4 264.058 274.536 264.906 274.92C265.967 275.392 266.854 274.94 267.644 274.266C268.126 273.853 268.56 273.371 268.984 272.958C269.91 273.42 269.698 273.987 269.408 274.545C268.966 275.292 268.304 275.886 267.513 276.248C266.722 276.609 265.84 276.72 264.984 276.565C263.412 276.152 262.439 274.564 262.651 272.64C262.815 271.159 263.268 269.774 264.444 268.754C265.379 267.955 265.851 267.965 267.471 269.043L267.48 269.033ZM197.05 285.55C197.05 286.435 197.079 287.33 197.05 288.215C197.022 289.052 196.925 289.889 196.848 290.861C198.024 290.745 198.988 290.582 199.962 290.582C200.338 290.582 200.714 290.976 201.09 291.188L200.386 292.265C200.357 292.313 200.28 292.342 200.212 292.361C198.834 292.775 197.378 293.718 196.029 292.823C194.785 291.986 195.518 290.495 195.595 289.283C195.662 288.292 195.836 287.311 196.038 286.33C196.106 286.003 196.405 285.724 196.597 285.416L197.05 285.541V285.55ZM252.403 268.581C254.081 269.726 253.965 271.688 254.823 273.352C255.488 273.112 256.144 272.804 256.828 272.66C257.137 272.592 257.705 272.765 257.821 273.006C257.937 273.256 257.763 273.862 257.522 274.016C256.452 274.67 255.324 275.209 253.965 275.921C252.932 273.615 252.399 271.116 252.403 268.59V268.581ZM259.99 275.093C258.371 273.699 257.898 271.005 258.872 269.389C260.356 270.264 260.915 272.9 259.99 275.093ZM203.596 288.302C204.001 290.274 204.608 292.246 203.268 294.516C202.844 293.872 202.459 293.535 202.43 293.179C202.314 291.476 202.41 289.793 203.586 288.302H203.596ZM204.599 285.493C204.29 284.973 203.933 284.646 203.972 284.377C204.011 284.127 204.464 283.867 204.782 283.79C204.917 283.761 205.331 284.242 205.302 284.454C205.264 284.762 204.936 285.031 204.599 285.493ZM258.814 265.916C259.094 266.272 259.441 266.522 259.431 266.743C259.421 266.965 259.036 267.33 258.833 267.321C258.602 267.311 258.255 266.965 258.226 266.724C258.197 266.522 258.544 266.272 258.824 265.916H258.814Z" fill="#030F40"/>
<path d="M306.822 334.805C308.036 334.295 308.894 333.766 309.82 333.583C312.953 332.939 316.124 332.419 319.267 331.823C321.108 331.476 322.93 331.082 324.752 330.639C325.427 330.476 326.054 330.101 326.825 329.774C326.565 329.581 326.516 329.523 326.478 329.523C320.809 330.428 315.141 331.294 309.492 332.294C307.795 332.592 306.214 333.275 305.106 334.843C304.267 336.027 303.014 335.805 301.211 334.41C301.558 333.371 302.551 333.198 303.39 332.948C307.034 331.861 310.726 330.909 314.36 329.783C317.484 328.821 320.559 327.705 323.634 326.609C324.212 326.407 324.714 325.964 325.215 325.656C325.109 325.396 325.099 325.329 325.061 325.281C325.012 325.233 324.945 325.175 324.887 325.185C324.367 325.281 323.836 325.358 323.325 325.493L300.903 331.851C300.546 331.188 301.231 330.947 301.713 330.726C304.2 329.591 306.639 328.282 309.222 327.417C313.329 326.041 317.551 324.973 321.716 323.761C322.95 323.405 324.309 323.29 325.697 322.039C322.554 322.01 319.971 322.761 317.378 323.367C314.736 323.982 312.104 324.656 309.02 325.416C312.991 321.991 316.973 319.749 321.87 319.374C326.266 319.028 330.662 318.643 335.057 318.201C337.516 317.951 339.954 317.547 342.403 317.21C342.866 317.152 343.338 316.95 343.782 316.998C348.968 317.633 353.826 315.911 358.743 314.824C363.627 313.718 368.45 312.36 373.193 310.755C384.415 306.999 396.002 304.433 407.762 303.097C411.878 302.636 416.024 302.443 420.159 302.193C420.767 302.155 421.48 302.395 422.01 302.712C423.89 303.857 425.76 305.031 427.563 306.301C434.06 310.899 437.434 317.008 436.538 325.31C435.882 325.493 435.207 325.714 434.513 325.877C429.549 327.041 424.468 327.34 419.407 327.801C414.081 328.294 408.759 328.839 403.444 329.437C395.317 330.341 387.181 330.38 379.025 329.899C372.75 329.533 366.474 329.216 360.189 328.956C355.494 328.763 351.04 329.995 346.712 331.659C340.379 334.103 333.785 334.872 327.056 335.074C321.976 335.228 316.905 335.526 311.835 335.776C310.097 335.93 308.352 335.586 306.803 334.786L306.822 334.805ZM404.89 214.997C403.829 218.403 401.381 220.548 398.286 222.068C395.385 223.447 392.279 224.347 389.09 224.733C384.154 225.416 379.228 225.589 374.331 224.473C373.086 224.242 371.883 223.823 370.764 223.232C369.802 222.653 368.997 221.847 368.421 220.885C367.467 219.278 367.843 218.691 369.491 217.768C371.133 216.878 372.703 215.862 374.186 214.728C375.008 214.141 375.663 213.35 376.087 212.435C376.511 211.519 376.69 210.509 376.606 209.504C376.432 207.33 376.211 205.156 375.989 202.761C376.712 202.693 377.55 202.559 378.389 202.559C382.101 202.53 385.301 201.154 388.126 198.865C389.311 197.903 390.362 196.796 390.391 194.949C389.784 195.478 389.099 195.93 388.569 196.537C382.64 203.29 372.258 202.578 366.522 198.701C366.195 198.48 365.848 198.268 365.52 198.037C360.893 194.709 358.049 190.437 357.567 184.569C356.911 176.594 357.885 169.004 361.77 161.895C362.946 159.75 364.777 158.355 366.889 157.268C367.294 157.056 367.756 156.902 368.209 156.835C370.07 156.537 370.61 157.008 370.648 158.913C370.696 161.135 371.535 161.972 373.752 161.568C375.169 161.308 376.538 160.673 377.888 160.106C380.346 159.086 382.843 158.528 385.503 159.182C388.743 159.981 391.095 161.799 392.01 165.05C392.647 167.282 392.936 169.61 393.437 171.88C393.784 173.439 394.016 175.055 394.652 176.488C395.741 178.942 397.775 179.172 399.51 177.152C400.551 175.93 401.708 175.026 403.376 174.92C404.793 174.834 405.834 175.363 406.442 176.69C407.274 178.462 407.478 180.464 407.02 182.366C406.47 184.685 404.562 185.82 402.528 186.166C400.156 186.57 399.289 188.109 398.681 189.966C398.222 191.292 397.968 192.681 397.929 194.083C397.881 198.489 397.978 202.895 399.115 207.196C399.867 210.033 401.024 212.621 403.858 214.035C404.157 214.18 404.408 214.42 404.649 214.641C404.735 214.718 404.783 214.853 404.87 214.997H404.89ZM372.47 189.081C373.261 189.745 373.964 190.351 374.678 190.928C374.986 191.178 375.314 191.419 375.661 191.611C376.721 192.198 377.791 192.39 378.852 191.63C380.047 190.765 381.175 187.417 380.732 186.022C380.645 185.733 380.404 185.493 380.308 185.358L372.461 189.081H372.47ZM365.896 176.046C367.168 175.305 368.065 173.247 367.525 172.083C367.361 171.717 366.898 171.274 366.551 171.255C366.301 171.253 366.053 171.303 365.822 171.4C365.592 171.498 365.384 171.642 365.211 171.823C364.363 172.881 364.758 175.007 365.896 176.046ZM375.748 175.642C377.04 175.315 378.032 174.863 379.035 174.863C380.047 174.863 381.05 175.344 382.062 175.575C382.192 175.605 382.328 175.598 382.454 175.553C382.579 175.508 382.69 175.428 382.771 175.323C382.852 175.217 382.902 175.09 382.913 174.957C382.924 174.825 382.896 174.692 382.833 174.574C382.652 174.224 382.387 173.923 382.062 173.699C380.201 172.438 377.107 173.285 375.738 175.642H375.748ZM365.356 180.385C366.542 182.405 367.226 182.78 368.942 182.184L366.513 180.231L371.227 176.075C369.366 176.152 367.708 177.441 365.356 180.385ZM367.621 164.646C365.664 164.184 363.466 165.599 363.274 167.446C364.874 167.051 367.043 165.647 367.621 164.646ZM386.4 170.437C386.272 169.511 385.811 168.662 385.104 168.048C384.397 167.435 383.491 167.098 382.554 167.099C383.421 168.754 384.732 169.697 386.4 170.437ZM380.558 183.319L382.043 185.82C382.438 183.944 382.274 183.675 380.558 183.319ZM215.271 329.254C216.984 327.202 219.307 325.747 221.903 325.098C223.59 324.685 225.287 324.338 226.964 323.876C230.984 322.77 233.413 320.057 234.734 316.19C235.139 315.007 234.917 314.054 234.03 313.304C233.214 312.618 232.329 312.018 231.389 311.515C228.808 310.092 226 309.125 223.089 308.658C221.46 308.427 219.994 307.946 219.021 306.435C218.645 305.849 217.96 305.464 217.285 304.858L221.546 302.578C223.417 303.078 224.535 305.089 226.868 305.185C226.868 303.04 225.19 302.337 223.744 301.279L228.786 296.565C230.859 298.172 233.201 299.461 233.895 302.347C234.098 303.174 234.29 304.184 235.698 304.665C235.65 303.78 235.698 303.088 235.544 302.453C235.312 301.548 234.888 300.702 234.609 299.807C234.088 298.162 233.567 296.517 233.134 294.843C232.603 292.775 231.283 292.265 229.644 293.65C228.169 294.901 226.762 296.248 225.344 297.556C221.382 301.212 216.659 303.434 211.164 305.031C211.608 304.415 211.8 304.04 212.089 303.761C213.67 302.222 215.377 300.808 216.842 299.172C219.695 295.998 222.433 292.717 225.21 289.475C226.125 288.408 226.954 287.272 227.928 286.272C229.943 284.204 231.755 284.021 234.194 285.618C236.565 287.176 238.715 289.052 239.939 291.64C241.626 295.219 244.653 297.143 247.999 298.797C249.136 299.355 250.274 299.903 251.363 300.538C252.597 301.26 253.821 301.529 255.306 300.769L253.946 299.653C254.023 299.567 254.091 299.442 254.168 299.413C264.059 296.864 273.959 294.343 283.85 291.775C285.531 291.335 287.183 290.789 288.795 290.139C289.91 289.667 291.167 289.649 292.294 290.091C297.124 291.89 300.517 295.247 302.648 299.855C304.338 303.307 304.777 307.237 303.891 310.976C303.766 311.476 303.342 312.111 302.898 312.294C300.874 313.131 298.83 313.987 296.719 314.535C290.935 316.036 285.006 316.565 279.039 316.633C272.552 316.71 266.064 316.633 259.586 316.652C257.378 316.652 255.161 316.748 253.127 317.768C252.421 318.119 251.764 318.559 251.17 319.076C250.274 319.865 249.425 320.731 248.615 321.625C245.617 324.983 241.694 326.532 237.404 327.33C232.156 328.314 226.898 329.25 221.633 330.139C219.503 330.495 217.411 330.11 215.251 329.225L215.271 329.254Z" fill="white"/>
<path d="M210.046 307.292C208.292 308.013 207.675 309.649 206.624 310.909C205.583 312.159 204.802 313.689 202.797 314.516C202.884 313.593 202.845 312.89 203.019 312.246C203.925 308.783 205.467 305.608 207.646 302.78C209.198 300.779 211.184 299.394 214.076 299.605L212.504 301.27C211.82 302.001 211.135 302.732 210.47 303.482C208.831 305.348 208.86 305.579 210.865 307.167C210.538 307.898 210.229 308.696 209.853 309.456C208.686 311.789 207.961 314.316 207.713 316.912C207.588 318.066 207.742 319.317 208.06 320.442C208.378 321.548 209.448 321.77 210.258 320.942C210.872 320.246 211.382 319.466 211.772 318.624C212.707 316.787 213.459 314.834 214.509 313.064C215.299 311.831 216.238 310.7 217.305 309.697C217.739 309.254 218.5 309.139 219.079 308.889C219.705 309.831 219.262 310.322 218.79 310.659C216.505 312.284 215.338 314.68 214.259 317.143C213.966 317.815 213.648 318.476 213.304 319.124C213.004 319.72 212.659 320.292 212.273 320.837C211.415 322.039 210.374 322.953 208.754 322.597C207.559 322.337 206.768 321.058 206.749 319.249C206.73 318.124 206.797 316.969 207.019 315.873C207.46 313.306 208.306 310.825 209.526 308.523C209.747 308.148 209.873 307.715 210.036 307.301L210.046 307.292ZM206.017 302.289C203.79 306.205 201.505 309.831 200.984 314.141C198.883 314.882 198.15 314.478 198.083 312.65C197.958 309.033 202.132 303.444 206.017 302.299V302.289ZM231.225 294.43L232.218 297.2L229.471 295.93L231.225 294.43ZM70.536 209.966C70.5167 209.745 70.4492 209.293 70.4396 208.841C70.401 191.688 70.3336 174.545 70.3625 157.393C70.3625 154.401 70.7192 151.4 70.9216 148.408C70.9505 147.946 71.0855 147.494 71.1819 146.984C89.9124 146.801 108.614 146.628 127.306 146.426C146.094 146.224 164.883 145.964 183.681 145.791C202.382 145.618 221.084 145.272 239.969 145.214C240.055 146.445 240.171 147.35 240.181 148.263C240.181 151.602 240.133 154.94 240.152 158.268C240.181 163.271 240.345 168.273 240.267 173.275C240.152 180.481 239.785 187.677 239.679 194.882C239.544 203.819 239.651 212.766 239.487 221.702C239.352 229.1 239.043 236.508 238.696 243.896C238.581 246.562 238.262 249.215 237.742 251.832C236.518 257.835 232.854 261.231 226.8 262.241C220.191 263.266 213.515 263.793 206.826 263.819C198.343 263.944 189.85 263.79 181.357 263.848C171.197 263.925 161.036 264.146 150.866 264.213C142.846 264.271 134.816 264.175 126.795 264.165C118.37 264.165 109.944 264.184 101.519 264.204H98.0486C98.3088 263.242 98.5306 262.511 98.7234 261.76C100.728 254.083 102.84 246.436 104.681 238.72C105.163 236.7 105.028 234.468 104.835 232.361C104.729 231.027 104.315 229.736 103.626 228.588C102.937 227.44 101.992 226.466 100.863 225.743C96.6284 222.821 92.1781 220.223 87.5506 217.97C81.9594 215.267 76.32 212.669 70.536 209.947V209.966ZM175.294 176.335C175.188 175.209 175.159 174.064 174.966 172.948C172.778 160.519 160.275 153.429 148.321 157.826C140.32 160.769 135.799 166.792 133.977 174.786C131.519 185.541 138.652 196.171 149.256 198.047C162.54 200.404 175.217 189.812 175.304 176.325L175.294 176.335ZM154.674 224.165C164.565 223.877 174.455 223.675 184.346 223.251C186.351 223.165 188.346 222.309 190.284 221.635C190.882 221.433 191.479 220.731 191.73 220.115C192.054 219.324 192.19 218.468 192.127 217.615C192.064 216.762 191.804 215.935 191.367 215.2C190.93 214.464 190.327 213.84 189.608 213.376C188.888 212.912 188.07 212.621 187.219 212.525C184.897 212.232 182.56 212.087 180.22 212.092C161.971 212.323 143.713 212.621 125.455 212.91C123.411 212.939 121.464 213.458 119.71 214.449C116.046 216.527 115.699 220.76 119.372 222.934C120.5 223.598 121.773 224.271 123.035 224.415C125.879 224.742 128.762 224.877 131.615 224.829C139.298 224.685 146.981 224.396 154.664 224.165H154.674ZM150.047 240.837C158.617 240.635 164.565 240.5 170.512 240.346C172.913 240.288 175.304 240.202 177.694 240.048C178.668 240.009 179.621 239.758 180.487 239.312C181.353 238.867 182.11 238.238 182.707 237.47C184.172 235.613 184.259 233.756 183.006 231.755C182.426 230.731 181.566 229.893 180.527 229.339C179.487 228.786 178.31 228.539 177.135 228.629C175.332 228.696 173.539 228.889 171.737 228.937C163.119 229.158 154.491 229.341 145.873 229.562C140.86 229.687 135.857 229.86 130.844 229.985C129.849 229.992 128.87 230.228 127.982 230.675C127.093 231.123 126.321 231.769 125.725 232.563C124.838 233.66 124.423 235.063 124.571 236.464C124.719 237.865 125.419 239.151 126.515 240.038C127.744 240.977 129.271 241.442 130.815 241.347L150.037 240.837H150.047Z" fill="white"/>
<path d="M63.3435 211.063L63.0929 212.929C60.4901 213.535 58.0029 213.987 55.5929 214.728C53.2215 215.45 50.8404 216.248 48.9124 217.97C53.4336 216.941 57.6655 214.738 62.6109 214.93C62.071 218.384 61.5119 221.693 61.0492 225.021C60.5961 228.331 60.1912 231.65 60.5672 234.978L60.9624 234.997C61.4059 231.736 61.8011 228.475 62.3024 225.223C62.8037 221.943 63.411 218.672 64.0183 215.151L71.1519 216.488C69.2528 214.699 66.65 214.593 64.4425 213.458L64.963 211.217C66.0331 211.448 67.0935 211.544 68.0575 211.9C71.4315 213.15 74.844 214.324 78.112 215.825C83.0862 218.105 88.0026 220.538 92.8419 223.078C95.3194 224.377 97.5751 226.07 99.9466 227.58C101.942 228.85 102.752 230.822 102.771 233.025C102.79 234.94 102.617 236.902 102.202 238.768C101.267 243.001 99.9659 247.147 99.1175 251.39C97.012 261.645 94.4972 271.811 91.5791 281.866C90.5572 285.445 89.063 288.889 87.6845 292.361C87.0542 293.931 85.8858 295.227 84.3876 296.017C80.4207 298.231 76.2459 300.051 71.9231 301.452C68.1635 302.636 64.4617 303.992 60.7311 305.233C58.8223 305.868 56.8847 306.378 54.8314 306.147C54.3205 306.089 53.8095 305.983 53.1637 305.887L53.4529 304.367C53.6939 304.233 53.8095 304.117 53.9252 304.117C58.1765 303.915 62.1771 302.53 66.2548 301.539C68.6551 300.962 70.9591 300.048 73.3305 299.346C76.1647 298.499 78.8446 297.325 81.3607 295.786C82.9504 294.945 84.2377 293.63 85.0431 292.025C83.5489 292.958 82.4403 293.631 81.351 294.324C78.281 296.222 74.9487 297.661 71.4604 298.595C67.0935 299.827 62.7458 301.125 58.3789 302.337C56.9811 302.722 55.5447 303.02 53.9734 302.722L56.1039 292.352L55.6315 292.236L52.7106 302.857C50.7344 301.5 48.8353 300.49 47.2736 299.095C43.503 295.7 39.8037 292.226 36.178 288.677C33.4595 286.051 31.7436 282.924 31.4158 279.038C31.0495 274.718 30.6157 270.399 29.912 266.128C28.3503 256.614 28.2346 247.003 27.4538 237.431C27.2808 235.238 27.0204 233.053 26.6729 230.88C26.3741 229.014 27.0875 227.763 28.6973 226.965C31.8689 225.397 35.0405 223.848 38.2409 222.347C40.4003 221.337 42.5982 220.423 44.7865 219.471L44.6033 218.951C42.8296 219.461 41.0269 219.923 39.2821 220.51C35.2043 221.866 31.5219 224.069 27.7719 226.108C26.1235 227.013 25.2269 228.331 25.4294 230.341C26.0669 237.25 26.6004 244.167 27.0296 251.092C27.3477 256.017 27.5887 260.933 28.5238 265.81C29.0637 268.619 29.1311 271.505 29.4589 274.353C29.7288 276.739 29.9602 279.134 30.394 281.481C30.9552 284.255 32.3508 286.792 34.3946 288.754C38.3561 292.723 42.3994 296.611 46.5217 300.413C47.6785 301.481 49.2113 302.135 50.5898 302.943C51.1585 303.28 51.7659 303.549 52.431 303.886L51.9972 305.397C51.7562 305.425 51.602 305.502 51.5152 305.454C50.1849 304.704 48.7389 304.107 47.5725 303.165C44.6612 300.817 41.9041 298.287 39.0507 295.863C37.1709 294.266 35.1272 292.852 33.3727 291.14C32.0451 289.832 30.9064 288.345 29.9891 286.724C29.2851 285.443 28.849 284.032 28.707 282.578C27.9551 275.151 27.4441 267.696 26.644 260.269C25.9403 253.776 24.9474 247.321 24.128 240.837C23.6008 236.737 23.1412 232.628 22.7495 228.513C22.5277 226.041 23.5014 224.05 25.8439 222.963C29.054 221.491 32.2352 219.875 35.561 218.701C43.6201 215.854 51.7659 213.266 60.1527 211.505C61.107 211.303 62.0999 211.226 63.3917 211.044L63.3435 211.063ZM98.4235 241.298C98.8862 240.741 99.0404 240.606 99.1175 240.442C100.824 236.739 100.236 232.804 97.3438 229.956C92.6587 225.339 86.788 222.597 80.9172 219.884C80.8594 219.855 80.7823 219.807 80.7341 219.827C80.4159 219.884 80.0978 219.971 79.3363 220.144C80.3099 220.683 80.8883 220.981 81.4474 221.308C84.8503 223.271 88.34 225.098 91.608 227.272C93.5745 228.581 95.2326 230.37 96.91 232.073C97.9285 233.157 98.476 234.599 98.4331 236.084V241.308L98.4235 241.298ZM88.1954 286.58L88.5617 286.724C92.6298 274.622 94.1722 261.905 97.7197 249.254C96.3991 249.937 96.2448 250.851 96.0424 251.727C95.0495 256.007 94.0469 260.288 93.0829 264.579C91.4345 271.909 89.8246 279.249 88.2051 286.58H88.1954ZM71.4315 145.637C71.8556 142.405 72.6172 139.365 75.3646 137.229C77.2829 135.738 79.5773 135.142 81.8716 134.853C84.6479 134.507 87.4628 134.545 90.268 134.42C94.0083 134.266 97.7583 134.295 101.479 133.92C110.146 133.054 118.831 132.948 127.517 132.804C135.133 132.669 142.758 132.39 150.373 132.188C157.054 132.015 163.744 131.775 170.425 131.707C182.59 131.582 194.756 131.582 206.922 131.515C213.679 131.477 220.437 131.63 227.117 132.785C230.463 133.362 233.518 134.642 236.102 136.931C237.866 138.542 239.063 140.677 239.514 143.021C239.312 143.174 239.216 143.28 239.1 143.328C238.917 143.405 238.714 143.473 238.522 143.482L71.4218 145.647L71.4315 145.637ZM82.4114 140.279C82.3729 138.788 81.3028 137.614 80.0111 137.624C78.6518 137.633 77.3793 138.951 77.3793 140.346C77.3945 141.015 77.6733 141.65 78.1552 142.115C78.6371 142.58 79.2832 142.836 79.9532 142.828C80.2843 142.828 80.612 142.762 80.9167 142.633C81.2214 142.503 81.4968 142.314 81.7264 142.076C81.956 141.838 82.135 141.556 82.2527 141.247C82.3704 140.938 82.4244 140.609 82.4114 140.279ZM98.0282 141.982C99.5417 142.001 100.805 140.971 100.824 139.731C100.843 138.461 99.5995 137.258 98.2403 137.2C96.7654 137.143 95.6471 138.182 95.6568 139.596C95.6476 139.911 95.7027 140.225 95.8188 140.519C95.935 140.812 96.1097 141.079 96.3324 141.303C96.5551 141.527 96.8211 141.704 97.1143 141.822C97.4075 141.94 97.7217 141.998 98.0379 141.991L98.0282 141.982ZM88.7063 142.357C90.1041 142.405 91.367 141.318 91.4441 140C91.5212 138.692 90.4801 137.614 89.0919 137.576C87.6652 137.537 86.412 138.605 86.3542 139.913C86.3452 140.229 86.3992 140.542 86.513 140.837C86.6268 141.131 86.7982 141.399 87.0172 141.627C87.2361 141.854 87.4982 142.036 87.7882 142.161C88.0782 142.287 88.3903 142.353 88.7063 142.357Z" fill="white"/>
<path d="M372.469 189.091L380.316 185.358C380.403 185.493 380.644 185.733 380.74 186.022C381.184 187.426 380.046 190.774 378.86 191.63C377.8 192.4 376.72 192.208 375.669 191.611C375.322 191.419 375.004 191.178 374.686 190.928C373.963 190.351 373.269 189.754 372.469 189.081V189.091ZM375.563 189.437C378.041 190.235 379.39 189.456 379.159 187.378L375.563 189.437ZM365.894 176.056C364.757 175.017 364.362 172.891 365.21 171.832C365.383 171.651 365.591 171.508 365.821 171.41C366.052 171.312 366.3 171.263 366.55 171.265C366.897 171.284 367.36 171.727 367.524 172.092C368.063 173.256 367.167 175.315 365.894 176.056ZM375.747 175.652C377.115 173.295 380.22 172.448 382.07 173.708C382.379 173.92 382.668 174.247 382.842 174.584C382.904 174.701 382.932 174.834 382.921 174.967C382.91 175.1 382.861 175.227 382.779 175.332C382.698 175.438 382.588 175.518 382.462 175.562C382.336 175.607 382.2 175.615 382.07 175.584C381.058 175.353 380.056 174.872 379.043 174.872C378.041 174.872 377.038 175.324 375.756 175.652H375.747ZM365.355 180.394C367.707 177.45 369.365 176.152 371.225 176.075L366.511 180.231L368.941 182.184C367.225 182.79 366.54 182.414 365.355 180.385V180.394ZM367.62 164.656C367.051 165.666 364.882 167.061 363.272 167.455C363.465 165.608 365.663 164.194 367.62 164.656ZM386.399 170.437C384.731 169.697 383.42 168.764 382.552 167.099C383.49 167.098 384.396 167.435 385.103 168.048C385.81 168.662 386.271 169.511 386.399 170.437ZM380.557 183.319C382.273 183.675 382.446 183.944 382.041 185.82L380.557 183.319ZM175.292 176.335C175.206 189.822 162.529 200.413 149.245 198.057C138.651 196.181 131.508 185.551 133.966 174.795C135.797 166.801 140.318 160.769 148.31 157.835C160.273 153.439 172.776 160.519 174.955 172.958C175.148 174.064 175.177 175.209 175.283 176.335H175.292ZM167.812 189.389C167.513 188.879 167.31 188.369 166.973 187.984C162.442 182.847 156.167 180.827 150.045 182.665C146.247 183.809 143.095 185.974 140.203 188.581C139.827 188.927 139.538 189.36 139.22 189.735C145.9 198.335 159.926 198.191 167.821 189.389H167.812ZM154.885 175.382C155.347 175.276 156.292 175.171 157.131 174.815C159.994 173.593 160.697 170.505 158.76 168.061C157.777 166.82 156.398 166.407 154.923 166.176C152.87 165.858 151.491 166.926 150.325 168.398C149.207 169.803 149.216 171.351 149.958 172.9C150.855 174.747 152.513 175.305 154.885 175.382ZM154.672 224.165C146.989 224.396 139.306 224.685 131.614 224.829C128.75 224.887 125.868 224.742 123.034 224.415C121.725 224.173 120.479 223.669 119.371 222.934C115.698 220.76 116.035 216.527 119.708 214.449C121.461 213.457 123.438 212.927 125.454 212.91C143.702 212.621 161.96 212.333 180.218 212.092C182.551 212.063 184.894 212.265 187.217 212.525C188.069 212.621 188.886 212.912 189.606 213.376C190.326 213.84 190.928 214.464 191.365 215.2C191.802 215.935 192.063 216.762 192.126 217.615C192.189 218.468 192.053 219.324 191.729 220.115C191.456 220.786 190.94 221.329 190.283 221.635C188.345 222.309 186.349 223.155 184.344 223.251C174.463 223.675 164.563 223.877 154.672 224.156V224.165ZM151.655 223.617C163.252 223.213 173.133 222.838 183.014 222.53C185.337 222.453 187.468 221.77 189.598 220.991C190.581 220.635 191.035 220 191.218 218.942C191.729 215.854 189.251 213.525 186.706 213.218C182.166 212.669 177.635 212.862 173.094 212.929C157.854 213.179 142.622 213.468 127.391 213.756C126.196 213.776 124.981 213.814 123.796 213.968C121.983 214.208 120.277 214.776 118.976 216.161C117.616 217.604 117.636 219.519 118.976 220.981C121.058 223.271 123.757 224.117 126.716 224.069C135.605 223.954 144.493 223.742 151.665 223.598L151.655 223.617ZM150.045 240.827L130.823 241.337C129.279 241.428 127.754 240.964 126.524 240.029C125.427 239.141 124.727 237.856 124.579 236.454C124.431 235.053 124.846 233.65 125.733 232.554C126.331 231.761 127.104 231.116 127.991 230.669C128.879 230.222 129.858 229.985 130.852 229.976C135.865 229.851 140.868 229.677 145.881 229.552C154.499 229.331 163.127 229.158 171.745 228.927C173.548 228.879 175.341 228.687 177.143 228.619C179.698 228.523 181.655 229.552 183.014 231.746C184.267 233.747 184.18 235.613 182.715 237.46C182.119 238.229 181.361 238.858 180.495 239.304C179.629 239.749 178.676 240 177.702 240.038C175.312 240.192 172.911 240.269 170.521 240.336C164.573 240.49 158.625 240.625 150.055 240.827H150.045ZM152.368 240C159.444 239.875 166.52 239.759 173.605 239.605C175.061 239.576 176.536 239.49 177.972 239.259C178.867 239.126 179.724 238.807 180.488 238.323C181.251 237.839 181.905 237.201 182.407 236.45C183.255 235.219 183.303 233.91 182.609 232.669C181.78 231.188 180.614 229.908 178.792 229.735C177.288 229.591 175.755 229.658 174.232 229.687C165.219 229.899 156.205 230.11 147.192 230.36C141.851 230.505 136.511 230.668 131.18 230.938C129.984 231.009 128.815 231.327 127.748 231.871C125.328 233.131 124.721 235.651 126.09 238.008C126.529 238.838 127.202 239.521 128.026 239.973C128.85 240.424 129.789 240.624 130.727 240.548C137.937 240.346 145.138 240.182 152.349 240H152.368ZM98.4327 241.298V236.075C98.4767 234.589 97.929 233.147 96.9095 232.063C95.2322 230.37 93.5741 228.571 91.6075 227.263C88.3492 225.089 84.8499 223.271 81.447 221.298C80.8879 220.971 80.3095 220.673 79.3358 220.134L80.7336 219.817C80.7915 219.807 80.859 219.846 80.9168 219.875C86.7876 222.588 92.6583 225.329 97.3434 229.947C100.235 232.804 100.823 236.729 99.1171 240.433C99.0496 240.587 98.8857 240.712 98.4327 241.279V241.298ZM88.2046 286.58C89.8241 279.249 91.4437 271.909 93.0825 264.579C94.0465 260.288 95.049 256.007 96.0419 251.726C96.2444 250.861 96.4083 249.937 97.7193 249.254C94.1718 261.904 92.6294 274.622 88.5613 286.724L88.195 286.58H88.2046ZM82.411 140.279C82.424 140.609 82.37 140.938 82.2523 141.247C82.1346 141.556 81.9556 141.838 81.726 142.076C81.4964 142.314 81.221 142.503 80.9163 142.633C80.6116 142.762 80.2839 142.828 79.9528 142.828C79.2835 142.833 78.6388 142.576 78.1575 142.112C77.6761 141.648 77.3966 141.014 77.3789 140.346C77.3789 138.951 78.6417 137.633 80.0106 137.624C81.312 137.614 82.3724 138.788 82.411 140.279ZM98.0278 141.982C97.7116 141.988 97.3974 141.931 97.1043 141.812C96.8111 141.694 96.5451 141.518 96.3224 141.294C96.0997 141.069 95.9249 140.803 95.8088 140.509C95.6926 140.216 95.6375 139.902 95.6467 139.586C95.6467 138.172 96.7553 137.133 98.2302 137.191C99.5991 137.248 100.833 138.451 100.814 139.721C100.804 140.971 99.5413 141.991 98.0278 141.972V141.982ZM88.7155 142.357C88.3991 142.353 88.0866 142.287 87.796 142.161C87.5055 142.036 87.2428 141.855 87.0231 141.627C86.8034 141.4 86.6311 141.132 86.5162 140.837C86.4013 140.543 86.3461 140.229 86.3538 139.913C86.4212 138.605 87.6744 137.537 89.0915 137.576C90.4797 137.614 91.5208 138.691 91.4437 140C91.3762 141.318 90.1133 142.395 88.7059 142.357H88.7155Z" fill="#030F40"/>
<path d="M375.563 189.437L379.159 187.378C379.39 189.447 378.031 190.236 375.563 189.437ZM167.802 189.389C159.907 198.191 145.881 198.336 139.2 189.735C139.509 189.36 139.807 188.927 140.183 188.581C143.075 185.974 146.228 183.8 150.026 182.665C156.147 180.827 162.423 182.847 166.954 187.984C167.301 188.369 167.503 188.889 167.802 189.389ZM154.884 175.382C152.503 175.305 150.855 174.747 149.958 172.9C149.206 171.351 149.197 169.812 150.325 168.398C151.491 166.926 152.87 165.858 154.923 166.176C156.398 166.407 157.776 166.82 158.76 168.061C160.697 170.505 159.994 173.593 157.131 174.815C156.292 175.171 155.337 175.267 154.884 175.382ZM151.655 223.617C144.493 223.761 135.604 223.973 126.716 224.098C123.747 224.136 121.058 223.29 118.975 221.01C117.645 219.548 117.616 217.633 118.975 216.19C120.286 214.805 121.983 214.228 123.795 213.997C124.981 213.843 126.196 213.805 127.391 213.785C142.622 213.497 157.863 213.208 173.094 212.958C177.625 212.881 182.156 212.698 186.706 213.247C189.251 213.554 191.719 215.873 191.218 218.97C191.044 220.029 190.581 220.664 189.598 221.02C187.468 221.799 185.328 222.482 183.014 222.559C173.123 222.867 163.252 223.232 151.645 223.636L151.655 223.617ZM133.204 218.615C134.245 217.46 135.209 216.864 136.366 217.47C137.002 217.806 137.272 218.461 137.128 219.211C136.26 219.115 135.527 218.922 134.824 218.99C134.043 219.067 133.435 219.586 133.493 220.462C133.541 221.212 134.072 221.645 134.814 221.722C135.412 221.779 136.019 221.818 136.607 221.76C138.246 221.597 138.786 220.808 138.381 219.182C138.257 218.597 138.056 218.031 137.783 217.499C137.551 217.114 137.229 216.791 136.844 216.558C136.46 216.325 136.024 216.19 135.574 216.163C135.125 216.137 134.676 216.22 134.267 216.406C133.857 216.592 133.499 216.874 133.223 217.229C133.069 217.441 133.204 217.883 133.204 218.624V218.615ZM154.913 218.364C154.258 218.364 154.017 218.336 153.776 218.364C152.484 218.547 151.79 219.163 151.915 219.99C152.041 220.769 153.072 221.327 154.171 221.193C154.364 221.173 154.557 221.068 154.749 221.048C155.395 220.991 156.041 220.952 156.687 220.914C156.947 220.894 157.227 220.933 157.487 220.914C157.69 220.894 157.873 220.808 158.066 220.76C156.774 220.375 156.301 219.596 156.099 218.393C155.938 217.686 155.548 217.05 154.99 216.585C154.123 215.834 153.448 216.142 152.802 217.374C153.496 217.386 154.2 217.713 154.913 218.355V218.364ZM145.524 220.904C146.594 221.077 147.568 221.337 148.532 221.356C148.832 221.363 149.131 221.306 149.408 221.189C149.684 221.072 149.933 220.898 150.137 220.678C150.341 220.458 150.496 220.197 150.592 219.913C150.687 219.628 150.721 219.327 150.691 219.028C150.614 217.912 149.785 217.239 148.464 217.297C147.905 217.325 147.346 217.47 146.796 217.566L146.343 215.748L145.881 215.786C145.37 217.431 145.023 219.096 145.524 220.894V220.904ZM163.049 220.433C163.252 219.932 163.416 219.673 163.474 219.384C163.744 217.941 164.129 217.508 165.392 217.325C166.799 217.114 167.233 217.374 167.879 218.903C168.101 219.413 168.236 219.932 168.968 219.653C169.354 216.921 167.696 215.488 164.91 216.104C164.148 216.277 163.368 216.354 162.471 216.488C162.5 217.633 161.951 218.98 163.059 220.423L163.049 220.433ZM141.668 214.632C140.752 216.556 140.511 218.557 140.714 220.596C140.743 220.933 141.225 221.222 141.494 221.529L142.121 221.395C142.131 219.144 142.69 216.902 141.678 214.622L141.668 214.632ZM160.129 220.452C160.803 219.153 160.697 218.085 159.753 216.864C158.789 218.297 158.895 219.346 160.129 220.452ZM160.061 214.391C159.83 214.641 159.521 214.853 159.55 214.959C159.627 215.209 159.878 215.411 160.051 215.632C160.235 215.411 160.476 215.219 160.562 214.969C160.601 214.863 160.292 214.641 160.061 214.391ZM152.368 240C145.158 240.183 137.947 240.346 130.746 240.548C129.808 240.626 128.869 240.426 128.044 239.975C127.22 239.523 126.547 238.839 126.109 238.008C124.75 235.661 125.347 233.131 127.767 231.871C128.833 231.322 130.002 231.004 131.199 230.938C136.53 230.678 141.87 230.514 147.211 230.361C156.224 230.11 165.238 229.899 174.251 229.687C175.774 229.649 177.307 229.581 178.811 229.735C180.633 229.908 181.799 231.188 182.628 232.669C182.975 233.248 183.14 233.917 183.104 234.59C183.068 235.264 182.832 235.911 182.426 236.45C181.926 237.202 181.272 237.841 180.508 238.325C179.744 238.809 178.887 239.127 177.991 239.259C176.555 239.49 175.08 239.576 173.625 239.605C166.549 239.759 159.473 239.865 152.388 239.99L152.368 240ZM175.639 232.515C174.405 232.564 173.152 233.776 173.162 234.901C173.172 235.911 174.135 236.662 175.398 236.652C176.806 236.652 177.943 235.575 177.837 234.353C177.774 233.825 177.512 233.341 177.103 232.999C176.695 232.658 176.171 232.485 175.639 232.515ZM150.161 237.47C151.472 237.47 152.687 236.325 152.648 235.122C152.619 234.083 151.78 233.304 150.681 233.304C149.38 233.304 148.204 234.42 148.204 235.661C148.204 236.7 149.033 237.47 150.151 237.46L150.161 237.47ZM134.92 233.766C134.382 233.75 133.86 233.944 133.464 234.307C133.068 234.67 132.829 235.173 132.799 235.709C132.78 236.893 133.782 238.047 134.814 238.047C135.913 238.047 136.973 236.95 136.954 235.825C136.942 235.286 136.725 234.773 136.347 234.389C135.969 234.004 135.459 233.778 134.92 233.756V233.766ZM169.441 234.67C169.393 233.564 168.409 232.746 167.243 232.833C166.105 232.91 165.218 233.862 165.267 234.949C165.315 236.036 166.346 236.912 167.455 236.816C168.573 236.719 169.489 235.728 169.441 234.68V234.67ZM142.189 237.374C143.432 237.374 144.309 236.614 144.338 235.498C144.367 234.382 143.471 233.477 142.314 233.477C141.157 233.477 140.116 234.468 140.164 235.632C140.203 236.7 140.974 237.364 142.189 237.374ZM160.919 235.132C160.919 234.16 159.955 233.314 158.895 233.343C157.709 233.372 156.639 234.411 156.697 235.488C156.745 236.44 157.603 237.21 158.567 237.171C159.743 237.123 160.929 236.104 160.919 235.132Z" fill="white"/>
<path d="M133.204 218.615C133.204 217.864 133.069 217.431 133.224 217.22C133.499 216.865 133.857 216.582 134.267 216.396C134.676 216.21 135.125 216.127 135.575 216.154C136.024 216.18 136.46 216.316 136.845 216.548C137.229 216.781 137.552 217.104 137.783 217.489C138.056 218.021 138.257 218.587 138.381 219.172C138.786 220.808 138.246 221.597 136.607 221.751C136.019 221.808 135.412 221.77 134.814 221.712C134.072 221.635 133.542 221.202 133.493 220.452C133.436 219.577 134.043 219.057 134.824 218.98C135.527 218.913 136.26 219.105 137.128 219.201C137.272 218.461 137.002 217.797 136.366 217.46C135.209 216.854 134.245 217.46 133.204 218.605V218.615ZM134.496 220.048C135.254 220.702 136.154 220.811 137.195 220.375L134.496 220.048ZM156.099 218.403C155.938 217.695 155.548 217.06 154.991 216.594C154.123 215.844 153.448 216.152 152.802 217.383C153.496 217.402 154.197 217.729 154.904 218.364C154.248 218.364 154.007 218.336 153.766 218.364C152.475 218.547 151.781 219.163 151.906 219.99C152.031 220.769 153.063 221.327 154.162 221.193C154.354 221.173 154.547 221.068 154.74 221.048C155.386 220.991 156.032 220.952 156.678 220.914C156.938 220.894 157.217 220.933 157.478 220.914C157.68 220.894 157.863 220.808 158.056 220.76C156.764 220.375 156.292 219.596 156.09 218.393L156.099 218.403ZM154.663 219.788V219.846C154.653 219.923 154.605 219.99 154.518 219.99C154.268 219.99 153.998 219.99 153.757 219.894C153.737 219.913 153.709 219.913 153.68 219.913C153.641 219.913 153.604 219.898 153.577 219.871C153.55 219.844 153.535 219.807 153.535 219.769C153.535 219.769 153.535 219.769 153.535 219.759L153.525 219.74L153.506 219.711L153.487 219.682C153.439 219.605 153.448 219.5 153.487 219.423C153.535 219.346 153.651 219.326 153.728 219.298L153.921 219.249C154.049 219.222 154.182 219.229 154.306 219.269C154.422 219.298 154.528 219.374 154.586 219.471V219.49H154.644C154.721 219.49 154.788 219.557 154.788 219.634C154.788 219.711 154.73 219.769 154.644 219.779L154.663 219.788ZM145.515 220.904C145.013 219.096 145.36 217.431 145.871 215.786L146.334 215.748L146.787 217.566C147.336 217.47 147.896 217.316 148.455 217.297C149.775 217.239 150.604 217.912 150.682 219.028C150.712 219.327 150.678 219.628 150.582 219.913C150.487 220.197 150.332 220.458 150.128 220.678C149.924 220.898 149.675 221.072 149.398 221.189C149.121 221.306 148.823 221.363 148.522 221.356C147.558 221.337 146.594 221.077 145.515 220.904ZM146.43 219.692L146.768 220.163C147.481 220.163 148.214 220.279 148.898 220.134C149.592 219.981 149.891 218.999 149.39 218.768C148.743 218.491 148.029 218.411 147.336 218.538C146.97 218.615 146.729 219.288 146.43 219.692ZM163.04 220.433C161.931 218.99 162.481 217.633 162.452 216.498C163.349 216.354 164.129 216.277 164.891 216.113C167.667 215.498 169.325 216.931 168.949 219.663C168.226 219.942 168.082 219.413 167.86 218.913C167.205 217.383 166.78 217.123 165.373 217.335C164.11 217.518 163.734 217.951 163.455 219.394C163.397 219.682 163.233 219.942 163.03 220.442L163.04 220.433ZM141.659 214.632C142.671 216.912 142.121 219.153 142.102 221.404L141.475 221.539C141.205 221.231 140.733 220.943 140.695 220.606C140.492 218.566 140.733 216.565 141.649 214.641L141.659 214.632ZM160.119 220.452C158.885 219.336 158.77 218.297 159.743 216.864C160.688 218.085 160.794 219.163 160.119 220.452ZM160.052 214.382C160.283 214.641 160.591 214.863 160.553 214.959C160.466 215.209 160.225 215.401 160.042 215.623C159.868 215.401 159.618 215.199 159.541 214.949C159.512 214.843 159.82 214.632 160.052 214.382ZM175.64 232.515C176.777 232.467 177.741 233.285 177.837 234.353C177.943 235.575 176.806 236.642 175.399 236.652C174.136 236.652 173.172 235.911 173.162 234.901C173.143 233.776 174.406 232.564 175.64 232.515ZM150.161 237.47C149.043 237.47 148.214 236.71 148.214 235.671C148.214 234.43 149.39 233.314 150.691 233.314C151.781 233.314 152.629 234.093 152.658 235.132C152.687 236.325 151.472 237.47 150.171 237.479L150.161 237.47ZM134.93 233.766C135.469 233.79 135.979 234.016 136.358 234.4C136.737 234.784 136.957 235.296 136.973 235.834C136.983 236.969 135.932 238.057 134.833 238.057C133.802 238.057 132.799 236.902 132.819 235.719C132.846 235.182 133.084 234.678 133.481 234.314C133.877 233.951 134.401 233.757 134.939 233.776L134.93 233.766ZM169.451 234.67C169.499 235.719 168.583 236.71 167.465 236.806C166.356 236.902 165.325 236.027 165.277 234.94C165.228 233.853 166.115 232.9 167.253 232.823C168.419 232.746 169.393 233.564 169.451 234.661V234.67ZM142.208 237.374C140.993 237.374 140.213 236.71 140.174 235.632C140.169 235.349 140.221 235.067 140.327 234.804C140.433 234.541 140.591 234.301 140.791 234.1C140.992 233.899 141.231 233.741 141.494 233.634C141.757 233.527 142.039 233.473 142.324 233.477C143.48 233.477 144.387 234.382 144.348 235.498C144.319 236.614 143.442 237.374 142.198 237.374H142.208ZM160.939 235.132C160.939 236.104 159.762 237.133 158.586 237.181C158.116 237.2 157.657 237.034 157.308 236.719C156.958 236.405 156.746 235.966 156.716 235.498C156.668 234.43 157.728 233.391 158.914 233.352C159.975 233.323 160.939 234.16 160.939 235.132Z" fill="#030F40"/>
<path d="M134.496 220.048L137.195 220.375C136.154 220.811 135.254 220.702 134.496 220.048ZM146.43 219.692C146.729 219.288 146.97 218.615 147.337 218.538C147.992 218.403 148.783 218.489 149.39 218.768C149.891 218.999 149.592 219.981 148.898 220.134C148.214 220.279 147.481 220.163 146.768 220.163C146.65 220.01 146.537 219.853 146.43 219.692Z" fill="white"/>
<path d="M60.7605 266.888C61.0304 266.147 61.2425 265.541 61.4738 264.944C63.1705 260.596 64.7418 256.2 66.583 251.909C69.0509 246.195 72.9165 241.424 77.2352 236.998C78.1201 236.082 79.1821 235.355 80.3569 234.86C81.5318 234.366 82.795 234.115 84.07 234.122C86.2004 234.314 87.097 236.325 85.8341 238.057C84.3399 240.106 82.73 242.078 81.3226 244.175C74.4107 254.439 69.128 265.464 65.995 277.47C65.7467 278.508 65.4246 279.527 65.031 280.519C64.1056 282.732 62.3222 283.165 60.6255 281.491C59.3846 280.277 58.2644 278.947 57.2804 277.518C54.4019 273.345 51.6184 269.108 48.9322 264.81C47.9971 263.309 47.4958 261.52 46.9174 259.827C46.6793 259.138 46.588 258.408 46.6494 257.682C46.7109 256.957 46.9236 256.252 47.2741 255.613C48.055 254.112 49.2792 253.602 50.7252 254.497C51.6121 255.055 52.4122 255.805 53.116 256.594C54.5812 258.239 56.008 259.923 57.3286 261.674C58.524 263.271 59.5362 264.993 60.7798 266.878L60.7605 266.888ZM168.256 189.177C167.562 189.976 167.07 190.707 166.425 191.255C158.549 197.97 147.665 197.653 140.618 191.842L140.319 191.582C138.469 189.87 138.449 189.649 140.175 187.715C144.513 182.838 150.017 180.606 156.447 181.289C161.527 181.818 165.2 184.906 168.256 189.177ZM153.912 175.575C152.919 175.248 151.83 175.065 150.933 174.565C150.276 174.225 149.712 173.729 149.291 173.122C148.87 172.514 148.604 171.812 148.518 171.079C148.431 170.345 148.526 169.601 148.794 168.913C149.062 168.224 149.496 167.611 150.056 167.128C151.093 166.117 152.401 165.426 153.822 165.139C155.243 164.853 156.717 164.982 158.067 165.512C161.566 166.763 162.299 170.909 159.513 173.429C157.951 174.834 156.042 175.363 153.912 175.575ZM446.11 281.337C446.07 277.601 445.803 273.871 445.31 270.168C443.758 259.134 441.974 248.138 437.848 237.672C436.894 235.257 436.21 232.717 435.13 230.361C433.385 226.551 430.763 223.463 426.705 221.943C424.777 221.212 422.781 220.539 420.757 220.183C416.804 219.503 412.936 218.404 409.218 216.902C408.302 216.527 407.347 216.248 406.364 215.902C405.745 218.423 404.183 220.612 401.997 222.02C400.305 223.205 398.48 224.189 396.56 224.954C391.297 226.994 385.754 227.475 380.182 227.167C377.348 227.013 374.475 226.397 371.747 225.579C368.768 224.675 366.917 222.559 366.821 219.24C366.821 219.144 366.657 219.057 366.657 219.057L357.374 219.375C353.277 219.519 349.623 220.818 346.615 223.636C343.646 226.426 340.629 229.187 337.901 232.198C333.062 237.547 328.396 243.049 323.701 248.523C317.879 255.324 312.056 262.116 307.043 269.552C305.549 271.765 304.142 274.035 302.628 276.238C299.852 280.288 297.557 284.685 293.942 288.206C303.322 291.9 307.429 298.99 307.872 308.908C312.336 304.665 316.201 300.365 320.269 296.258C324.357 292.121 328.521 288.071 332.618 283.944C336.648 279.875 340.619 275.757 344.61 271.669L344.938 271.871L344.89 271.967C345.073 271.967 345.247 271.977 345.42 272.015C345.044 269.389 344.697 266.763 344.379 264.136C344.283 263.348 344.003 262.395 344.861 261.76C345.844 261.837 345.806 262.626 345.941 263.232C346.355 265.118 346.75 267.013 347.136 268.908C349.628 281.542 351.516 294.287 352.795 307.099C353.045 309.399 353.363 311.698 353.672 314.18C357.528 313.275 361.162 312.487 364.758 311.573C367.023 310.995 369.25 310.264 371.487 309.572C381.512 306.474 391.644 303.752 402.007 302.001C405.362 301.433 408.736 300.981 412.1 300.481C412.418 299.625 412.929 298.826 412.968 298.008C413.122 294.882 413.392 291.727 413.102 288.629C412.678 284.059 411.82 279.519 411.146 274.968C411.059 274.382 410.789 273.776 411.454 272.746C412.119 274.93 412.727 276.671 413.189 278.451C413.662 280.26 414.028 282.087 414.385 283.925C414.732 285.695 415.117 287.465 415.291 289.245C415.474 291.092 415.522 292.977 415.455 294.834C415.397 296.662 415.127 298.48 414.924 300.529C416.178 300.529 417.18 300.452 418.163 300.548C419.542 300.683 421.075 300.625 422.26 301.212C425.066 302.607 427.91 304.059 430.358 305.964C435.737 310.168 438.861 315.651 438.571 322.713C438.542 323.299 438.571 323.896 438.571 324.714C440.721 324.271 442.215 323.367 443.324 321.837C444.51 320.209 445.257 318.305 445.493 316.306C445.85 313.256 446.245 310.197 446.274 307.138C446.322 298.528 446.274 289.918 446.11 281.308V281.337Z" fill="#71A52E"/>
</svg>
