<svg xmlns="http://www.w3.org/2000/svg" fill="none" viewBox="0 0 587 468"><mask id="mask0_1521_129395" width="2250" height="543" x="59" y="266" maskUnits="userSpaceOnUse" style="mask-type:alpha"><path id="secondary-color" stroke="#FFC229" stroke-linecap="round" stroke-linejoin="round" stroke-width="60" d="M2278.36 296.03H357.2c-78.65 0-142.4 63.76-142.4 142.4v0c0 78.66 63.75 142.42 142.4 142.42h267.02c54.45 0 98.59 44.14 98.59 98.59v0c0 54.45-44.14 98.59-98.6 98.59H89.5"/></mask><g mask="url(#mask0_1521_129395)"><path id="secondary-color" stroke="#FFC229" stroke-linecap="round" stroke-linejoin="round" stroke-width="84" d="M2278.36 296.03H357.2c-78.65 0-142.4 63.76-142.4 142.4v0c0 78.66 63.75 142.42 142.4 142.42h267.02c54.45 0 98.59 44.14 98.59 98.59v0c0 54.45-44.14 98.59-98.6 98.59H89.5"/><g clip-path="url(#clip0_1521_129395)" opacity=".3"><path fill="#C79200" fill-rule="evenodd" d="M312.4 310.95c-6.41-44.83 25.12-87.34 37.18-132.3 11.72-43.72 7.98-89.72 32.94-129.18 27.68-43.75 63.6-90.93 115.63-105.69 51.94-14.72 102.38 14.12 151.8 29.85 42.45 13.5 81.11 31.43 116.92 55.67 37.96 25.7 77.65 50.87 98.37 90.06 22.13 41.88 31.23 90.43 22.2 138.01-9.23 48.6-35.78 94.8-73.37 131.54-36.85 36.02-84.87 62.32-136.23 73.36-48.4 10.4-94.42-8.35-142.73-13.41-50.75-5.32-107.9 8.5-149.36-17.17-42.19-26.13-66.57-73.35-73.35-120.74Z" clip-rule="evenodd"/></g><g clip-path="url(#clip1_1521_129395)" opacity=".3"><path fill="#C79200" fill-rule="evenodd" d="M1090.95 69.54c12.88 36.04-6.06 76.57-8.45 115.84-2.33 38.18 8.54 75.65-5.47 112.54-15.53 40.9-37.32 86.04-77.91 107.04-40.53 20.97-87.17 5.6-130.75.92-37.44-4.02-72.48-12.34-106.23-26.36-35.77-14.87-72.88-29.01-96.66-57.97-25.4-30.95-41.14-69.62-41.69-110.55-.57-41.8 13.63-84.54 38.55-121.31 24.43-36.06 59.76-65.95 100.43-83.76 38.32-16.79 79.6-9.02 120.46-12.99 42.92-4.17 87.93-25.26 126.58-11 39.36 14.51 67.53 49.5 81.14 87.6Z" clip-rule="evenodd"/></g><g clip-path="url(#clip2_1521_129395)" opacity=".3"><path fill="#C79200" fill-rule="evenodd" d="M189.86 873.63c-15.7-42.48 6.18-90.67 8.5-137.16 2.27-45.2-11.07-89.4 5.03-133.22 17.85-48.6 43.05-102.28 90.8-127.65 47.68-25.33 103.06-7.74 154.68-2.77 44.35 4.28 85.92 13.67 126.02 29.83 42.52 17.13 86.61 33.38 115.12 67.34 30.45 36.28 49.56 81.84 50.74 130.25 1.2 49.45-15.03 100.2-44.05 144.03-28.44 42.97-69.85 78.8-117.74 100.39-45.13 20.35-94.07 11.7-142.35 16.92-50.74 5.48-103.71 31-149.63 14.64-46.75-16.66-80.52-57.7-97.12-102.6Z" clip-rule="evenodd"/></g><g clip-path="url(#clip3_1521_129395)" opacity=".3"><path fill="#C79200" fill-rule="evenodd" d="M457.8 648.14c-28.4 16.7-65.5 10.64-99.33 3.99-30.35-5.98-56.72-24.43-84.53-40.17-28.57-16.17-60.46-27.22-81.29-53.66-21.93-27.83-36.8-62.77-37.59-97.25-.77-33.93 15.6-63.72 33.32-90.34 16.3-24.47 38.52-43.21 64.32-56.29 24.6-12.46 52.9-12.01 80.34-17.02 33.87-6.19 67.83-32.66 100.43-15.99 32.18 16.46 35.57 63.3 54.65 95.3 18.75 31.45 52.8 56.11 56.9 91.75 4.12 35.77-20.57 64.26-35.44 94.89-14.83 30.56-23.3 68.06-51.78 84.8Z" clip-rule="evenodd"/></g></g><path fill="#fff" fill-rule="evenodd" d="M482.43 271.22c-15.54-1.11-36.84 1.96-41.34 19.64-1.4 6.43-4.14 9.25-8.75 13.46-29.3 37.4 72.9 43.7 78.15 7.22 11.06 4.02 23.11 4.87 34.18 8.94 6.01 2.21 11.46 5.7 16.68 9.36 21.27 15.08 42.25 30.59 63.46 45.78-8.2 3.77-23.8 18.17-17.45 27.84 1.48 1.88 3.68 3.18 5.62 4.56l1.03.73 7.97 5.73.38.27.47.34a353.2 353.2 0 0 1-51.37 59.33c-1.63 1.51-.96 4.9 1.4 5.3l2.83.42c9.11 1.32 18.4 2.51 27.58 1.8 8.95-.98 14.34-8.88 20.45-14.6a373.91 373.91 0 0 0 33.93-39.77l.22-.3c3.22-4.39 7.5-8.88 7.8-14.55.58-1.7-.92-4.15-2.37-5.31l-.5-.71c-7.73-11.11-16.5-21.82-27.47-29.87a3.88 3.88 0 0 0-1.62-3.25l-45.87-33.13c-11.84-8.13-22.84-17.68-35.67-24.24-13.12-6.3-27.93-6.56-41.37-11.81-.29-3.8-8.28-4.76-8.02-4.18-8.43-5.08-12.77-11.12-14.1-16.67-1.35-5.55.32-10.6-6.25-12.33ZM368.98 390.15c-14.19-21.3-27.7 2.27-33.61 16.47-6.98 19.43 7.47 43.34 16.8 60.1 3.44 4.65 7.96 14.47 14.02 15.18 15.27-.06 30.56-1.14 45.84-1.46 9.87-2.44-3.98-17.23-13.54-11.83-2.9 1.08-4.34 4.37-7.17 5.42-1.02.22-1.1-.24-1.51-1.26l-.06-.15c-.75-1.77-1.47-3.55-2.2-5.32-6.23-15.28-12.8-30.43-19.34-45.57-1.4-3.3.56-6 3.1-7.96 1.96-1.6 10.34-5.5 2.44-3.79 3.04-7.04-.61-14.19-4.77-19.83ZM404.2 361c-1.37-.18-3.12 1.2-3.33 2.53-1.74 11.03.2 21.93 2.52 32.72l.43 1.98c.86 3.93 1.82 7.94 3.96 11.4a20.07 20.07 0 0 0 9.29 7.78c12.17 4.84 27.3.05 36.25-9 5.73-7.83.7-17.66-.26-26.24.9-2.31 1.24-4.99 1.77-7.37l.06-.29 2.04-8.89c.45-1.96-.98-4.64-3.33-4.37a208 208 0 0 1-49.4-.25Z" clip-rule="evenodd"/><path fill="#030F40" fill-rule="evenodd" d="M346.88 387.36c.05-.22-.21-.38-.39-.22-2.88 2.78-4.92 6.33-7.16 9.62-2.13 3.13-4.45 6.14-6.04 9.6a29.22 29.22 0 0 0-2.72 10c-.28 3.5.09 7.02.7 10.47 1.23 6.8 3.83 13.25 6.7 19.5 2.78 6.08 5.92 12 9.24 17.8l1.19 2.07c1.45 2.52 2.92 5.04 4.49 7.48 1.95 3.04 3.74 6.18 6.31 8.71 1.84 1.8 5.28 0 4.45-2.58-.36-1.12-.65-2.18-1.2-3.22-.43-.8-.91-1.57-1.37-2.35l-2.7-4.7c-1.9-3.3-3.9-6.53-5.77-9.83a215.5 215.5 0 0 1-9.06-17.57l-.32-.7c-2.51-5.57-4.88-11.33-5.98-17.34-1.16-6.34-.13-12.31 2.13-18.27 1.17-3.08 2.48-6.09 3.84-9.09l.27-.57c1.31-2.87 2.71-5.71 3.39-8.8ZM487.1 277.75c-.03-.11-.22-.12-.24 0-.81 5.38 1 11.07 3.93 15.55a25.92 25.92 0 0 0 5.92 6.43l.18.13c2.38 1.78 5.6 3.5 8.56 2.34.09-.03.17-.07.25-.12-.33.52-.63 1.06-.95 1.6-.93 1.6-1.76 3.27-2.67 4.9a31.27 31.27 0 0 1-6 7.77c-9.75 9.1-23.46 11.26-36.34 11.15h-.9c-5.66-.05-13.06.24-17.42-3.84-2.35-2.2-3.64-5.31-4.8-8.24-1.15-2.87-1.94-5.83-2.9-8.75a21.79 21.79 0 0 0 5.26-4.97 20.19 20.19 0 0 0 3.27-6.72l.1-.37c.5-1.94 1-4.5.2-6.33-.1-.21-.44-.2-.54 0-.44.88-.52 1.86-.8 2.8a23.4 23.4 0 0 1-1.13 3.2c-.9 2-2.09 3.9-3.51 5.57a23.08 23.08 0 0 1-3.92 3.7c-.86-1.48-2.85-1.67-4.53-1.19a66.8 66.8 0 0 0-6.6 2.38l-.44.18c-2.13.88-4.54 1.7-6.54 2.9-1.22.58-2.38 1.16-3.47 1.67a466.9 466.9 0 0 0-16.18 8.04l-1.15.6a34.88 34.88 0 0 0-6.41 3.96c-1.98 1.65-3.52 3.9-4.97 6.03-3.31 4.84-6.43 9.82-9.7 14.7-6.62 9.82-13.22 19.64-19.87 29.44-1.6 2.38-3.42 4.7-4.86 7.17-1.38 2.36-1.35 4.79-1.08 7.43l.05.48c.52 4.84 1.4 9.49 4.13 13.64 4.28 6.52 11.03 10.58 18.17 13.38-.87.65-1.7 1.35-2.73 1.8a16.1 16.1 0 0 1-5.04 1.17c-1.84.15-3.92-.31-5.41.94-.6.5-.62 1.7 0 2.2 1.43 1.17 3.29.84 5.04.64l.1-.01c1.63-.18 3.23-.48 4.76-1.08.38-.14.75-.3 1.11-.5a.23.23 0 0 0-.01.12c.26 1.99.82 3.87 1.42 5.78l.38 1.2a481.82 481.82 0 0 0 7.19 21.3l1.43 4c1.48 4.1 2.97 8.19 4.62 12.21l3.06 7.45c1 2.43 1.84 5.05 3.07 7.36 1.02 1.9 3.8.54 3.36-1.42-.59-2.56-1.69-5.1-2.53-7.6-.86-2.53-1.7-5.06-2.57-7.59-1.52-4.39-3.2-8.71-4.88-13.04l-1.68-4.29c-1.64-4.2-3.3-8.4-5.07-12.54l-.2-.46c-1.84-4.33-3.74-9.21-7.1-12.57a.26.26 0 0 0-.16-.08c.83-.44 1.6-.98 2.27-1.62l.04-.03c.26-.29 1.37-1.68 1.73-2.52.46.17.92.33 1.39.48.8.27 1.47.08 1.95-.35l.9.55c.96.59 2 1.14 3.05 1.17 1.34.04 2.4-.7 3.1-1.79.65-.97 1.03-2.02 1.85-2.89.8-.85 1.72-1.57 2.67-2.26l1.12-.81c2.04-1.5 4.02-3 5.67-4.96.83-1 1.94-2.18 2.44-3.37.1-.23.16-.45.17-.66l.34 2.24c1.58 10.5 2.86 21.06 3.27 31.67.2 5.23.29 10.47.05 15.7a139.71 139.71 0 0 1-1 11.75l-.03.3a5 5 0 0 0-.04 1.15c-1.28.63-2.01 2.21-2.52 3.45a2.3 2.3 0 0 0 .54 2.52 10.7 10.7 0 0 0-1.97 2.39c-.12.18.13.33.27.21.92-.73 1.9-1.32 2.94-1.78.54.2 1.13.26 1.68.1a2.7 2.7 0 0 0 1.46-1.05 11.63 11.63 0 0 1 10.13 3.22l.24.28-.57.22c-.24.1-.43.16-.5.18-.51.1-1.02.16-1.53.2l-.76.06c-2.94.25-5.86.33-8.6 1.55-.56.26-.36 1.14.18 1.29 1.99.54 3.97.5 6 .35l.43-.03c1.88-.15 3.9-.14 5.75-.66-.44 1.2.16 2.77 2 3.02 5.52.73 11.08.39 16.6-.1 5.59-.49 11.17-.96 16.77-1.25 18.1-.95 36.24-.76 54.37-.5l10.24.14c8.17.12 16.34.2 24.5.14l3.83-.03c1.62-.02 3.23-.04 4.85-.09l.96-.03c1.93-.07 4.47.22 6.14-.91a2.94 2.94 0 0 0 .86-4.04 6.1 6.1 0 0 0-.92-1.1c-.7-6.03-1.1-12.08-1.5-18.13a287.2 287.2 0 0 1 2.66-63.2 253.8 253.8 0 0 1 25.64 9.56c4.52 1.93 9.02 3.93 13.47 6.04 4.05 1.92 8.13 4.32 12.46 5.57.4.35.95.51 1.44.36l.06-.02c.45.1.95.04 1.43-.25l.3-.18.15-.1a15.3 15.3 0 0 0 4.14-3.58c1.31 1.2 2.72 2.32 4.1 3.45 1.51 1.22 3.01 2.45 4.5 3.7.6.5 1.25.96 1.77 1.53l.07.09.04.04c-2.26 1.45-4.24 3.66-6 5.58-1.9 2.07-3.74 4.2-5.56 6.33l-1.76 2.07c-12.46 14.68-25.04 29.89-41.16 40.67-2.55 1.7-.12 5.86 2.41 4.12 4.79-3.3 9.32-6.95 13.67-10.8 7.63-6.73 14.5-14.29 20.92-22.16a382.7 382.7 0 0 0 9.5-12.18l1.06-1.4c1.4-1.85 2.79-3.72 4.12-5.63l.28-.4a27.73 27.73 0 0 0 3.16-5.5c.3.29.62.53 1.1.72.81.32 1.82-.35 2.01-1.15.5-1.92-1.19-3.07-2.55-4.1a213.36 213.36 0 0 0-5.05-3.61l-.6-.43c-2.12-1.5-4.25-3.04-6.56-4.22-.07-.1-.16-.18-.25-.26l-.33-.25a110.43 110.43 0 0 1 17.23-21.52l1.29-1.23a68.14 68.14 0 0 1 6.1-5.38l.67.76c.9 1.01 1.8 2.02 2.76 2.97a380.17 380.17 0 0 1 14.62 15.43l1.49 1.63c3.08 3.42 6.4 6.78 9.2 10.43l.14.19c1.22 1.64 2.1 3.45 1.53 5.53-.55 2.01-1.86 3.8-2.99 5.53l-.1.17c-4.6 7.14-9.53 14.1-14.8 20.76-10.56 13.35-22.61 26-36.99 35.27-1.99 1.28-.13 4.48 1.87 3.18a147.2 147.2 0 0 0 23.2-19.12 196.19 196.19 0 0 0 17.95-20.94c2.7-3.58 5.28-7.23 7.75-10.96 2.4-3.62 5.18-7.34 6.92-11.33a9.06 9.06 0 0 0 .5-6.6c-.68-2.03-2.04-3.72-3.45-5.3l-.13-.16a609.12 609.12 0 0 0-9.87-10.77c-3.34-3.57-6.83-7-10.4-10.34a74.04 74.04 0 0 0-8.83-7.09l.84-.57c.88-.57 1.1-1.78.33-2.55-2.09-2.1-4.5-3.93-6.76-5.85l-6.38-5.4-13-11c-7.78-6.59-15.52-13.22-23.28-19.84-3.23-2.75-6.5-5.48-9.75-8.2l-5.79-4.87-2.83-2.36a30.6 30.6 0 0 0-4.57-3.34c-3.88-2.17-8.55-3.11-12.82-4.26l-.28-.08a342.5 342.5 0 0 0-29.07-6.64c-4.4-.82-8.9-1.52-13.38-1.62a5.14 5.14 0 0 0-3.6-.12 5.4 5.4 0 0 0-1.35.81c-2.2-.77-4.36-1.14-6.4-2.44-2.05-1.3-3.86-3-5.38-4.88-3.15-3.89-4.8-8.48-5.9-13.28Zm-50.4 131.71c1.74-.12 3.3.6 4.85 1.36l-2.62 1.13-5.82 2.48c-1.93.81-3.96 1.52-5.79 2.53a1 1 0 0 0-.31.26c-1.9-1.21-3.91-2.3-5.84-3.45l-1.32-.79c2.3.77 4.64 1.15 7.13.44 3.32-.96 6.2-3.71 9.72-3.96Zm-4.76-5.81.31-.21c1.69-1.16 3.7-2.64 5.74-1.6.97.48 1.76 1.27 2.7 1.8.96.53 2.02.94 3.08 1.18 1.77.41 3.8.47 5.7.08l-.03 2.56c-1.44.6-2.87 1.2-4.3 1.82-.93-.32-1.82-.7-2.76-1.12l-.64-.28c-1.8-.81-3.63-1.36-5.63-1.1-3.77.48-6.62 3.28-10.22 4.2-4.42 1.15-8.4-2.14-12.58-2.95a13.5 13.5 0 0 0-2.1-.23h-.23l-.1-.06c-.9-.52-2.25-1.03-2.88-1.91-.68-.96-.73-2.57-.96-3.7l-.06-.33c.39 0 .79.01 1.2.09 1.27.23 2.47.69 3.66 1.19 2.24.95 4.44 2.03 6.8 2.67 2.31.62 4.73.91 7.12.57 2.32-.34 4.25-1.38 6.18-2.67Zm-.36-9.02.34-.23c.93-.58 1.98-1.2 3.1-.98 1.02.2 1.88 1 2.76 1.5a15.37 15.37 0 0 0 11.79 1.19l-.06 5.67a9.57 9.57 0 0 1-8.03-1.13l-.91-.6c-1.55-1.01-3.01-1.82-5.06-1.45-2.04.37-3.74 1.67-5.4 2.8l-.28.18a11.07 11.07 0 0 1-6.18 2.1 21.6 21.6 0 0 1-7.39-1.55c-2.33-.86-4.55-1.88-7.05-2.2a9.1 9.1 0 0 0-2.58.03 109.6 109.6 0 0 1-.92-6.08c4.44-1.2 8.53 2.66 12.65 3.85 2.39.68 5 .67 7.38.01 2.21-.62 3.95-1.9 5.84-3.12Zm-.01-9.57c.94-.19 1.88.25 2.68.7 2.06 1.13 3.83 2.72 6.15 3.31 3 .77 6.27.11 9.24-1.15l-.04 5.27a12.67 12.67 0 0 1-8.05.33c-2.09-.61-3.69-2.26-5.78-2.78-2.14-.52-4.16.5-5.89 1.67l-.52.35c-1.97 1.34-3.88 2.5-6.35 2.73-2.61.24-4.88-.58-7.2-1.66l-.55-.25c-2.95-1.35-6.78-2.9-9.73-1.35-.23-2.19-.4-4.37-.51-6.56.4-.15.82-.26 1.3-.26 1.16 0 2.37.35 3.45.73 2.36.83 4.55 2.07 6.88 2.96 2.2.84 4.66 1.28 7.01.9 2.19-.35 3.83-1.49 5.34-3.05l.21-.23c.67-.7 1.37-1.47 2.36-1.66Zm-1.73-8.11c1.09-.58 2.42-1.11 3.68-.95 1.2.16 2 .98 2.75 1.85l.4.48c1.33 1.56 2.63 2.88 4.68 3.53 2.12.66 4.37.4 6.34-.57.7-.35 1.35-.78 2-1.2l-.03 4.6a19.6 19.6 0 0 1-4.1 1.6c-2.7.65-5 .17-7.3-1.32l-.25-.16c-1.73-1.14-3.52-2.5-5.66-2.62-2.1-.12-3.67 1.04-5.05 2.45l-.16.17c-1.74 1.83-3.5 2.73-6.1 2.52-2.5-.2-4.85-1.31-7.15-2.27l-.2-.08c-2.11-.87-4.54-1.75-6.84-1.42a7.3 7.3 0 0 0-1.91.54c-.1-2.15-.14-4.31-.14-6.47 1.3-1.14 3.35-1.33 5-.86 2.56.73 4.67 2.6 7.13 3.63 2.17.9 4.44 1.1 6.66.25 2.3-.89 4.1-2.57 6.25-3.7Zm-24.9-9.08c3.84.13 7.6 2.62 11.27 3.57 4.1 1.06 7.45-.38 11.1-1.99l.47-.2c1.87-.83 3.89-1.56 5.96-1.23 2.03.33 3.82 1.45 5.56 2.46l.33.2c3.17 1.8 6.4 3.03 10.1 2.72-.02 1.16-.01 2.31-.01 3.45-.61.34-1.2.74-1.75 1.1l-.2.12c-1.77 1.1-3.58 1.83-5.69 1.15-2.03-.66-2.99-2.43-4.38-3.88a6.3 6.3 0 0 0-4.84-2.07c-2.02.08-3.93.97-5.6 2.05-1.66 1.08-3.27 2.49-5.23 3.03-4.38 1.21-8.13-3.4-12.27-4.13a6.4 6.4 0 0 0-4.96 1.13c.01-2.49.06-4.99.14-7.48Zm33.08-1.05 1.63.07c2 .08 4 .18 6 .3 1.4.07 3.1.5 4.46.07.04.14.08.27.14.4a25.5 25.5 0 0 0-.4 3.15c-1.27.14-2.54.1-3.78-.16-2.98-.62-5.4-2.5-8.05-3.83Zm-33.02-.86c7.32.5 14.7.33 22.02.49l.88.02h.1c-.83.33-1.67.7-2.5 1.08l-.83.38c-1.97.9-3.96 1.64-6.16 1.48-2.36-.17-4.57-1.13-6.77-1.9a14.58 14.58 0 0 0-6.76-.92l.02-.63Z" clip-rule="evenodd"/><path fill="#fff" fill-rule="evenodd" d="M516.08 176.63c-1.5-1.6-3.43-2.8-5.53-3.18 1.92.95 3.8 1.95 5.53 3.19Zm2.94 13.87c.26-1.22.44-2.46.5-3.7a2.6 2.6 0 0 1-1.47 1.03c.38.86.72 1.76.97 2.67Zm-100.5 19.22c1.73-7.2 9.82-21.05 11.73-23.72 2.08-6.6-9.24-11.9-3.09-17.06 2.8-2.32 6.48-3.15 9.93-3.97 23.93-5.74 49.64-2.85 71.84 7.7 3.37-.71 6.9.68 9.35 3.1 11.53 11.58-4.19 32.45-7.63 45.49-5.9 14.54 6.26 16.98 4.95 29.28-1 6.36-7.46 8.04-12.9 9-.88.2-2.05.24-2.33 1.16a23.98 23.98 0 0 1-7.96 13.96c.35 1.05.08 2.33-1.17 3.25a61.75 61.75 0 0 1-39.8 11.86c-16.86-.9-25.57-10.54-27.68-13.02-11.63-15.68-10.24-36.36-7.87-55.05 1.65-13.01-.44.77 2.63-11.98Z" clip-rule="evenodd"/><path fill="#030F40" fill-rule="evenodd" d="M470.5 149.8a3.44 3.44 0 0 0-3.74-2.44c-1.52.18-3.15 1.68-2.96 3.35.03.32.08.62.13.9h-.01l.04.11c.1.53.27 1 .5 1.45.3.86.58 1.72.86 2.59-.4-.02-.82 0-1.24.08l-1.3-3.33c-.47-1.19-.8-2.71-1.72-3.63a4 4 0 0 0-4.66-.58c-1.52.89-2.06 2.46-1.73 4.14.17.86.74 1.46 1.45 1.84l.08.03.55 1.3a4.47 4.47 0 0 0-1.4-.36 61.87 61.87 0 0 0-2.53-4.13 3.5 3.5 0 0 0-4.7-1.23c-1.5.88-2.3 3.18-1.23 4.69a90.96 90.96 0 0 1 2.35 3.5c-.13.02-.26.05-.38.09a6.22 6.22 0 0 0-.19-.24c-.83-1.03-1.8-1.8-2.79-2.65-.93-.8-1.36-2.07-2.58-2.68-1.54-.76-3.4-.4-4.3 1.13-1.97 3.27 1.33 5.65 3.44 7.63a51.98 51.98 0 0 0-9.06-4.5 4.04 4.04 0 0 0-4.42.74 2.4 2.4 0 0 0-.64 2.41 4.08 4.08 0 0 0 2.94 2.75c1.07.3 2.17.5 3.24.8 1.8.52 3.54 1.15 5.23 1.93a2.8 2.8 0 0 0-.35.25 47.62 47.62 0 0 0-10.35-2.11l-.72-.07c-2.63-.25-5.79-.72-7.4 1.8-.53.82-.59 2.18 0 3 1.13 1.57 2.24 1.88 4.1 1.91a117.13 117.13 0 0 0-9.23 1.36l-.62.13c-1.52.3-3.22.47-4.53 1.35-2.85 1.92-1.5 5.66 1.65 6.06 1.52.19 3.22-.46 4.72-.76a98.54 98.54 0 0 1 6.65-1.09c-1.55.22-3.08.54-4.58.98l-.42.13c-2.9.88-6.8 2.28-7.7 5.37-.55 1.87.95 3.5 2.76 3.62 1.69.1 3.1-.9 4.52-1.64 1.04-.54 2.1-.94 3.23-1.29a37 37 0 0 1 3.54-.89 29 29 0 0 0-2.94 1.85l-.43.32c-2.5 1.86-6.32 4.74-5.44 8.24.27 1.1 1.5 2.15 2.69 2.04 3.07-.29 4.77-3.56 7.09-5.31.6-.46 1.27-.9 1.96-1.35a55.81 55.81 0 0 0-8.44 14.02c-4.68 11-6.11 21.17-6.15 33v.36c0 6.52.15 13.16.78 19.65.6 6 1.68 11.91 4.4 17.34 4.57 9.1 13.47 16.2 23.28 18.9 10.93 3 23.13.65 32.08-6.28 2.28-1.77-.75-5.61-3.08-3.98-9.3 6.52-21.35 8.58-32.04 4.17-8.47-3.5-15.3-11.02-18.2-19.68-1.83-5.5-2.37-11.38-3.03-17.13l-.04-.38c-.7-6-1.1-12.05-1.1-18.1.01-11.22 1.63-20.46 6.58-30.65a54 54 0 0 1 8.96-13.12c1.1.22 2.26-.09 3.36-.2.57-.07 1.13-.13 1.7-.18-.58.37-1.14.76-1.7 1.16l-.73.52c-2.28 1.63-5.18 3.49-4.6 6.64a2.58 2.58 0 0 0 1.84 1.83c3 .71 5.05-2.19 7.07-3.91a82.25 82.25 0 0 1 6.76-5.09c-.4.47-.8.95-1.19 1.44l-.56.72c-1.73 2.14-4.2 4.94-2.67 7.72a2.6 2.6 0 0 0 2.26 1.3c3.08-.07 4.31-3.57 5.76-5.78a81.01 81.01 0 0 1 5.16-6.92 122.91 122.91 0 0 1 32.2 6.05l.36.1c2.3.75 4.68 1.7 6.34 3.32a8.5 8.5 0 0 1-.17 3.42l-.18.85c-.73 3.58-1.23 7.1-.85 10.77.38 3.78 1.53 7.2 2.92 10.71.66 1.66 1.35 1.36 1.58 3.14.18 1.36.07 2.76-.05 4.12l-.1 1.16c-.26 3.04-.4 6.35 1.6 8.85.31.39.97.24 1.2-.15a6.18 6.18 0 0 1 4.4-2.93c.21-.04.13-.32-.05-.35a5.92 5.92 0 0 0-3.92.93c.54-1.88 4.75-.97 6.13-.6h.05c1.73.47 3.36 1.22 4.8 2.29a10.9 10.9 0 0 1 4.49 9.06 9.78 9.78 0 0 1-5.05 8.49c-1.52.81-3.24 1.2-4.96 1.19-1.79-.02-3.38-.8-5.17-.7-1.04.07-1.83 1.18-1.23 2.15.4.64.92 1.15 1.52 1.54a50.84 50.84 0 0 1-5.5 9.58 31.58 31.58 0 0 1-4.05 4.56c-1.16 1.09-3.68 2.34-3.54 4.15.05.66.39 1.06.98 1.3 1.86.76 4.12-1.85 5.36-3.1l.1-.1a34.64 34.64 0 0 0 4.18-5.05 25.3 25.3 0 0 0 4.09-10.6c2.97.9 6.91.06 9.34-1.04 7.63-3.44 10.12-13.69 5.48-20.51a13.35 13.35 0 0 0-3.3-3.37c.28-.15.55-.35.78-.6 1.3-1.37 2.22-3.16 3.13-4.82l.1-.2a74.31 74.31 0 0 0 2.3-4.43l.26-.57c1.6-3.42 3-4.92 4.13-8.52a72.08 72.08 0 0 0 2.52-10.61l.15-.96c.32-2.09.63-4.32.39-6.44 1.62.53 3.26.85 4.87.06 1.06-.53 1.64-2.05 1.28-3.15-.27-.8-.7-1.44-1.26-1.93.33-.17.64-.38.92-.62l.24-.2c.97-.85 1.04-2.46.45-3.51l-.17-.31a3.32 3.32 0 0 0-2.87-1.64h-.56a5 5 0 0 0 1.56-.6c2.24-1.39 1.96-5.12-.76-5.78a8 8 0 0 0-3.66.13l.14-.08c.95-.58 1.75-1.72 1.66-2.88a3.34 3.34 0 0 0-5.03-2.88c-.86.55-1.7 1.17-2.5 1.83.8-1 1.5-2.07 1.8-3.21a3.38 3.38 0 0 0-1.53-3.73 3.18 3.18 0 0 0-3.08-.07 3.25 3.25 0 0 0-.62-2.19c-1.02-1.39-2.88-2.18-4.49-1.17-.21.13-.5.36-.77.64.54-1.7.05-3.49-1.77-4.26a3.66 3.66 0 0 0-3.6.58c.62-3.31-4.28-5.75-6.2-2.33-.42.78-.85 1.6-1.23 2.43l-.15.32h-.01l.1-.24.1-.23c.53-1.23 1.2-2.5 1.39-3.83.27-1.98-.61-3.85-2.76-4.14a3.58 3.58 0 0 0-3.09 1.24c.4-3.06-3.02-5.28-5.48-3-1.17 1.08-1.8 2.66-2.53 4.05l-1.27 2.35c-.1-.13-.22-.26-.35-.38.63-1.86 1.1-3.77 1.52-5.69.39-1.8-.52-3.68-2.4-4.2-1.7-.47-3.82.58-4.2 2.39a60.38 60.38 0 0 1-.93 3.78c-.24-.06-.47-.1-.7-.13l-.07-.7-.09-.84c-.2-1.91-.4-4.1-1.4-5.72-1.71-2.77-6.09-1.62-6.13 1.66-.03 1.7.66 3.38.9 5.06.1.73.17 1.47.2 2.2a65.95 65.95 0 0 0-1.84-7.26l-.27-.86Zm37.74 94.72c-3.84-.6-7.35 1.54-9.62 4.54-.41.54-.14 1.31.23 1.77.27.34.63.38 1.04.43.47.06 1.06-.31 1.27-.72 1.46-2.91 4.07-4.75 7.08-5.89.05-.02.07-.12 0-.13Zm-5.32-52.19-.12-.12c-.77-.8.45-2.03 1.23-1.23.82.85 1.37 1.88 1.89 2.92.5 1-1 1.88-1.5.88l-.23-.46a8.9 8.9 0 0 0-1.27-1.99Zm10.78-1.65c-1.1-.18-.64-1.85.46-1.67 1.42.24 2.83.51 4.25.75 1.1.18.63 1.86-.46 1.67-1.42-.24-2.84-.5-4.25-.75Zm-65.56-11.4c1.06-.36 1.51 1.31.46 1.66-1.46.5-2.91.99-4.3 1.66-1 .5-1.88-1-.88-1.5a39.7 39.7 0 0 1 4.72-1.83Zm65.8-2.25c1.04-.42 1.5 1.26.47 1.67l-3.76 1.5c-1.03.41-1.48-1.27-.46-1.68l3.76-1.5Zm-78.91-4.07.14-.1c.94-.6 1.81.9.87 1.5-.55.36-1.21.6-1.72 1.02l-.1.1c-.82.77-2.05-.46-1.23-1.23.6-.56 1.35-.87 2.04-1.3Z" clip-rule="evenodd"/><path fill="#030F40" fill-rule="evenodd" d="M437.08 250.22c-2.35-3.29.98-6.38 3.17-7.7.57-.42.11-1.78-1.11-1.57-11.12 1.9-5.36 21.02 8.84 10.53 1.69-1.36-.36-4.35-2.18-3.19l-.3.22c-2.04 1.58-5.78 4.47-8.42 1.71Zm17.43 13.85c-.53.21-5.06.42-7.74.3-1.82-.08-6.55-1.19-6.55-1.66s.2-.9.37-.88c.7.07 6.31.13 10.26.18 1.74.02 3.16.03 3.7.05l.8-.01c.2.59-.3 1.81-.84 2.02Zm-9.06-3.44c-2.11-.02-4.67-.04-6.49.06-.65.04-.97.97-1.02 1.4-.43 4.1 2.85 7.36 6.46 8.62 3.35 1.18 7.78 1.4 10.77-.8a9.13 9.13 0 0 0 2.92-3.73c.35-.8.6-1.61.74-2.46l.05-.25c.1-.61.23-1.35.02-1.91-.3-.8-1.1-.82-1.84-.82h-.18l-.89-.03-2.34-.04-5.04-.03h-1.75l-1.41-.01Zm19.79-40.17-.58-.3-.6-.29-.4-.2c-2.77-1.33-5.85-2.64-8.81-2.9-1.08-.08-2.06.34-2.43 1.41-.3.91.06 2.23 1.05 2.6 3.29 1.22 6.8 1.74 10.1 2.98 1.65.62 3.27 1.3 4.9 1.96 1.24.5 2.55.84 3.82 1.3l-.31-.03c-.1 0-.12.18-.01.2.43.03.86.11 1.29.23l.18.05c.27.1.5-.2.29-.43-1.37-1.38-2.48-2.81-4.1-3.95a33.79 33.79 0 0 0-4.39-2.63Zm-27.41-2.03c-2.29-2.31-7.15-1.42-9.88-.37a13.1 13.1 0 0 0-4.26 2.5l-.12.12-.18.18c-.83.8-1.76 1.92-1.63 3.1.02.17.12.38.32.41 1.1.2 2.16-.38 3.17-.72l.67-.23c1-.34 2-.67 3.04-.9 1.28-.3 2.59-.46 3.9-.45 1.34.02 2.77.4 4.04-.13 1.41-.59 2.15-2.28.93-3.51Zm23.73 12.15c-.24-3-4.8-3.68-5.26-.72a12.1 12.1 0 0 0 1.27 7.48c1.14 2.28 4.02 1.22 4.24-.86.29-2.78-.1-4.04-.25-5.9Zm-30-1.45c-.63-.84-1.55-1.4-2.65-1.08-3.45 1-2.43 5.88-1.22 8.25.66 1.29 2.78 1.62 3.74.48 1.56-1.85 2.31-5.54.32-7.37a2.5 2.5 0 0 0-.19-.28Z" clip-rule="evenodd"/><path fill="#030F40" fill-rule="evenodd" d="M409.47 234.97c2.76 18.64 22.03 20.7 25.46 2.2-.55-.24-.95-.71-.87-1.63.02-4.03-1.23-8.3-4.88-10.54-3.76-2.3-8.17-2.54-12.53-2.48-8.32-.2-8.14 6.74-7.18 12.45Zm28.47-8.1c2.62-.11 5.92-.02 8.26 1.57a9.86 9.86 0 0 1 4-4.56c-6.28.18-12.73-.43-19.06-.91a12.02 12.02 0 0 1 3.84 4.36c.85-.45 2.06-.4 2.96-.46Zm11.51 10.08c7.24 24.86 25.3 14.03 27.28 10.84 3.55-5.27 4.22-18.09 1.13-21.52-4.44-3.1-10.7-2.3-15.94-2.38-9.62.14-16.44 3-12.47 13.06Zm-48.53-11.44c1.96-.25 4.07-.3 5.9.56a7.87 7.87 0 0 1 4.32-5.26c.24-.3.2-.47 1.03-.42 5.07-1.52 10.74-.72 15.6.84 7.7.65 15.77 1.16 23.52 2.05 7.26-3.26 29.19-3.74 30.55 4.29 1.71-.26 4.63-1.6 6.07.22 10.56-1.78 21.48.7 32.08 1.8 2.67.5 4.05 5.78 1.02 5.71-1.7-.46.05-3.3-2.24-3.5-10.24-1.12-20.25-2.7-30.59-2.89.36 1.78-6.84 1.9-6.94.86l-.05.02c1.78 6.61.17 16.13-3.04 20.24-4.5 5.37-15.82 6.9-20.83 3.45-6.47-3.19-13.2-19.2-11.3-24.52-3.44-1.08-6.83-.76-10.39-.2.82 2.3 2.23 7.95.2 8.44.37 11.23-9.87 18.23-19.3 13.63-8.18-3.83-11.03-15.95-10.03-23.3-1.02 1.96-9.56-.17-5.58-2.02Z" clip-rule="evenodd"/><defs><clipPath id="clip0_1521_129395"><path fill="#fff" d="M395.65 562.18 215.25 41.61l558.74-193.63 180.4 520.57z"/></clipPath><clipPath id="clip1_1521_129395"><path fill="#fff" d="M789.69 535.52 545.25 132.88 977.27-129.4l244.44 402.65z"/></clipPath><clipPath id="clip2_1521_129395"><path fill="#fff" d="M324.12 1101.72 38.22 630.77 543.7 323.9l285.9 470.95z"/></clipPath><clipPath id="clip3_1521_129395"><path fill="#fff" d="m156.47 263.75 396.59 11.9-11.84 394.38-396.59-11.9z"/></clipPath></defs></svg>
