<svg width="178" height="161" viewBox="0 0 178 161" fill="none" xmlns="http://www.w3.org/2000/svg">
<path fill-rule="evenodd" clip-rule="evenodd" d="M276.445 198.117C248.043 214.804 210.941 208.754 177.118 202.097C146.771 196.124 120.398 177.668 92.5842 161.931C64.0147 145.766 32.1256 134.714 11.2999 108.276C-10.6295 80.4371 -25.5076 45.4977 -26.2928 11.0183C-27.0654 -22.9067 -10.7022 -52.6988 7.02756 -79.3224C23.3224 -103.791 45.5476 -122.529 71.3488 -135.604C95.9394 -148.066 124.242 -147.619 151.686 -152.631C185.559 -158.817 219.514 -185.291 252.118 -168.615C284.292 -152.159 287.684 -105.31 306.768 -73.3104C325.519 -41.8696 359.572 -17.2045 363.669 18.4299C367.783 54.2044 343.093 82.693 328.227 113.318C313.392 143.879 304.925 181.384 276.445 198.117Z" fill="#FFE094"/>
</svg>
