<svg xmlns="http://www.w3.org/2000/svg" id="verification-compte" viewBox="0 0 500 500">
  <defs>
    <style>
      .cls-1{fill:#fff}.cls-3{fill:#71a52e}.cls-4{fill:#030f40}
    </style>
  </defs>
  <path id="secondary-color" fill="#f9bc13" d="M288.46 24.79c15.63.19 29.55 5.13 41.92 14.58a71.25 71.25 0 0 1 14.87 15.26c5 7 9.92 14.08 14 21.67a403.51 403.51 0 0 1 9.13 18.26c2.27 4.78 3.74 9.86 4.92 15.02.48 2.12 1.2 4.14 2.14 6.11 2.9 6.11 6.03 12.09 9.6 17.83a492.65 492.65 0 0 1 20.5 36.06c1.53 3.01 3.04 6.03 4.48 9.09 5.9 12.52 7.39 25.64 5.3 39.25a78.38 78.38 0 0 1-4.09 15.92c-3.48 9.12-7 18.23-10.81 27.21-3.7 8.7-8.23 17.02-13.35 24.97a1398.23 1398.23 0 0 0-17.77 28.29 121.16 121.16 0 0 1-15.04 19.75 47.9 47.9 0 0 0-6.93 9.21c-3.99 7.08-8.04 14.13-12.06 21.19-.47.83-.88 1.69-1.38 2.49-3.43 5.49-5.92 11.41-8.12 17.48a200.22 200.22 0 0 1-11.08 25.2c-4.97 9.43-10.79 18.28-18.13 26.06-11.91 12.62-26.16 21.42-43.03 25.77a62.52 62.52 0 0 1-30.75.04 213.5 213.5 0 0 1-18.44-5.16 964.7 964.7 0 0 0-34.12-10.81c-8.56-2.55-17.02-5.42-24.96-9.58-14.97-7.83-28.08-17.96-38.23-31.64-4.96-6.7-8.77-14.04-12.1-21.65a121.52 121.52 0 0 1-9.37-33.59 19.75 19.75 0 0 0-.86-3.53 75.9 75.9 0 0 1-3.59-27.79 75.02 75.02 0 0 1 5.24-23.54c3.14-7.99 7.21-15.5 12-22.61 4.58-6.78 9.26-13.5 13.79-20.3 2.19-3.29 4.22-6.7 6.23-10.11a102.22 102.22 0 0 0 13.44-40.75c.8-6.97 1.27-13.98 1.91-20.97 1.66-17.97 5.4-35.46 12.2-52.23 6.48-16 16.02-30.04 27.56-42.78a168.75 168.75 0 0 1 32.28-27.64c13.16-8.68 26.85-16.42 41.39-22.56a119.47 119.47 0 0 1 31.38-8.59c3.3-.41 6.62-.6 9.93-.89Z" opacity=".1" style="isolation:isolate"/>
  <g id="invariable">
    <path d="M226.66 114.01c.52-3.51.98-6.8 1.49-10.08.72-4.69 1.38-9.4 2.24-14.06.59-3.21 1.53-6.36 2.2-9.55 1.42-6.76 2.74-13.54 4.14-20.3.87-4.2 2.16-8.24 4.4-11.96 1.72-2.85 3.97-4.89 7.23-5.74 2.75-.72 5.51-1.43 8.25-2.2a17 17 0 0 0 3.09-1.19c.69-.35 1.26-.92 1.86-1.44.44-.37.42-.83.34-1.42-.25-1.73-1.03-2.91-2.71-3.54-.98-.37-1.88-.96-2.8-1.47-.37-.2-.78-.41-1.03-.73-.27-.34-.58-.87-.49-1.21.1-.34.65-.64 1.06-.76.54-.15 1.13-.11 1.84-.16-.17-.31-.3-.58-.46-.82-2.99-4.4-3.13-9.08-.75-13.64a53.27 53.27 0 0 1 5.91-8.59c4.66-5.78 10.56-6.43 17.38-3.29a11.8 11.8 0 0 1 6.73 7.96 10.6 10.6 0 0 1-.62 7.01c1.4.64 2.32 1.64 2.12 3.31a4.35 4.35 0 0 1-2.78 3.75 3.9 3.9 0 0 0-2.34 2.57 27.08 27.08 0 0 0-1.23 6.83c-.09 3.26.76 4.14 4 4.26 2.21.08 4.44.1 6.64.33 2.63.27 5.21.8 7.64 1.92 1.83.84 3.32 2.07 4.42 3.73a18.5 18.5 0 0 1 3.03 8.22c.99 8.44.58 16.88-.1 25.29-.24 2.9-1.19 5.78-2.16 8.55-.94 2.68-3.16 4.3-5.77 5.3-1.68.64-3.23 0-4.67-.83-.81-.47-1.53-1.12-2.39-1.76-.06.33-.16.61-.16.88-.06 4.12-.06 8.23-.16 12.35a7.07 7.07 0 0 0 2.12 5.38c5.55 5.89 11.55 11.29 17.64 16.6a155.25 155.25 0 0 1 15.16 15.51c1.27 1.46 2.24 3.2 3.21 4.89a9.6 9.6 0 0 0 2.25 2.58c3.01 2.57 6 5.17 8.88 7.87a31.67 31.67 0 0 1 5.18 6.77 30.45 30.45 0 0 0 2.81 4.02c4.06 4.69 7.45 9.86 10.74 15.08a73.64 73.64 0 0 1 7.97 17.53c1.79 5.76 2.86 11.68 3.99 17.58.97 5.06.86 10.18.25 15.3a137.04 137.04 0 0 1-4.69 22.92c-2.76 9.31-5.87 18.5-10.77 26.99a59.96 59.96 0 0 1-10.26 13.42c-3.85 3.69-7.84 7.23-11.79 10.8-6.9 6.23-13.92 12.31-21.55 17.66-4.5 3.15-9.07 6.19-13.57 9.34a529.87 529.87 0 0 0-10.91 7.88c-4.26 3.17-5.03 4.48-5.7 9.81-.4 3.25-.61 6.51-.93 9.77-.5 5.09-1.07 10.18-1.5 15.28-.34 3.99-.48 8.01-.78 12.01-.37 5-.6 10-1.49 14.96a22 22 0 0 1-9.57 14.71c-7.84 5.41-16.41 7.09-25.61 4.33-4.68-1.4-9.08-3.47-12.52-7.12a24.2 24.2 0 0 1-6.26-13.06c-1.23-7.4-.99-14.82-.56-22.26.32-5.54-.07-11.07-.55-16.6-.49-5.68-1.69-11.27-1.79-16.99-.1-5.97-.2-11.93 1.01-17.82a44.3 44.3 0 0 1 12.38-23.09c4.49-4.45 9.52-8.18 14.78-11.64 3.44-2.26 6.84-4.58 10.28-6.84 1.72-1.13 3.51-2.16 5.24-3.27 3.34-2.14 6.58-4.42 9.12-7.53 2.41-2.94 4.84-5.87 7.1-8.92 4.71-6.36 7.83-13.52 9.79-21.13a39.88 39.88 0 0 0 1.11-15.39c-.68-5.02-1.17-10.06-1.99-15.06a33.09 33.09 0 0 0-4.25-11.35 147.91 147.91 0 0 0-3.19-5.28 29.3 29.3 0 0 0-7.21-7.69 34.32 34.32 0 0 0-16.2-6.72 21.44 21.44 0 0 0-9.1.65 44.01 44.01 0 0 0-11.31 5.22c-2.97 1.9-5.43 4.35-7.86 6.84a44.08 44.08 0 0 0-7.53 10.71 33.25 33.25 0 0 0-3.61 14.63c-.09 3.9.04 7.81.07 11.71.06 7.57-.37 15.09-2.68 22.38a32.1 32.1 0 0 1-7.32 12.1 19.4 19.4 0 0 1-13.09 6.3 36.85 36.85 0 0 1-20.48-4.25 32.35 32.35 0 0 1-11.7-10.69 52.73 52.73 0 0 1-6.99-14.49c-1.14-3.84-2.44-7.66-3.21-11.57-1.75-8.9-2.35-17.89-.93-26.92a90.25 90.25 0 0 1 5.62-20.4c2.07-5.03 4.35-9.97 7.35-14.53a104.76 104.76 0 0 1 17.18-19.81c4.61-4.19 9.43-8.14 14.12-12.23a7.12 7.12 0 0 0 1.43-1.83c1.28-2.24 2.48-4.53 3.74-6.79a9.28 9.28 0 0 1 3.04-3.16c6.3-4.26 12.65-8.43 19.38-12l1.15-.62Zm90.24 86.53c-1.28-.59-1.57-1.97-1.84-3.31-1.11-5.64-2.25-11.28-3.22-16.94-.95-5.56-1.63-11.17-2.58-16.73-.81-4.77-1.57-9.51-3.64-14.03-1.79-3.9-4.05-7.23-7.49-9.78-3.01-2.23-6.38-3.68-9.88-4.93a477.45 477.45 0 0 1-12.62-4.67c-2.56-.99-5.04-2.18-7.55-3.27a6.77 6.77 0 0 0-5.8 0 59.96 59.96 0 0 1-6.48 2.53c-3.07.97-6.19 1.76-9.3 2.58a89.54 89.54 0 0 0-11.74 3.75c-7.95 3.31-11.89 9.74-13.49 17.72-.88 4.37-1 8.9-1.33 13.36-.5 6.68-.88 13.37-1.35 20.06-.09 1.26-.33 2.51-.54 3.76-.25 1.5-1.17 2.27-2.67 2.48-1.14.15-2.27.4-3.29.58 0 2.11.02 4.1 0 6.1-.06 4.06-.12 8.13-.22 12.19a10.83 10.83 0 0 1-1.46 4.96c-.25.45-.56.95-.98 1.2-1.71 1.04-2.9 2.58-4.14 4.09-2.77 3.36-6.29 5.48-10.67 5.85-2.17.19-4.37-.15-6.16-1.55-.85-.67-1.48-1.63-2.23-2.44-.99-1.08-1.12-2.32-.36-3.49.8-1.23 1.78-2.34 2.74-3.45.62-.71 1.39-1.3 2-2.02 3.4-4 5.93-8.46 7.12-13.61.18-.77.45-1.52.66-2.28.58-2.14.74-4.33.97-6.55-.63-.23-1.12-.38-1.61-.58-.92-.37-1.84-.75-2.75-1.16a2.27 2.27 0 0 1-1.42-2.1c-.12-2-.36-3.99-.45-6-.16-3.79-.52-7.61-.31-11.38.28-4.94 1.03-9.86 1.59-14.79a87.01 87.01 0 0 1 2.17-12.3c.03-.11-.04-.25-.1-.5-.56.5-1.04.9-1.48 1.33-3.83 3.71-7.71 7.37-11.46 11.16a109.7 109.7 0 0 0-11.56 13.64c-5.47 7.69-9.23 16.23-11.83 25.26-2.13 7.39-3.38 14.91-3.04 22.65a82.83 82.83 0 0 0 3.32 20.57c1.84 6.03 4.1 11.87 7.72 17.1 3 4.33 6.7 7.95 11.46 10.21a33.34 33.34 0 0 0 15.82 3.26c4.39-.18 8.2-1.73 11.14-4.92 2.8-3.03 5.11-6.48 6.37-10.47 2.13-6.73 2.39-13.69 2.39-20.67 0-4.22-.18-8.44-.1-12.66.1-5.51 1.3-10.82 3.79-15.73 4.45-8.79 10.73-16 19.23-21.16a40.03 40.03 0 0 1 13.17-5.24c7.24-1.41 14.15.21 20.59 3.38a37.15 37.15 0 0 1 15.93 14.52c3.31 5.58 6.22 11.29 7.28 17.75.67 4.06 1.07 8.16 1.62 12.24a49.1 49.1 0 0 1-1.18 19.94 72.16 72.16 0 0 1-23.38 36.48 93.15 93.15 0 0 1-14.35 10.1 122.5 122.5 0 0 0-17.38 12.12 38.69 38.69 0 0 0-11.42 15.92 45.4 45.4 0 0 0-3.07 15.45c-.19 6.29.1 12.54 1.06 18.78a130.98 130.98 0 0 1 1.28 19.89c0 5.33-.21 10.66-.19 15.99.02 4.07.42 8.12 1.82 12a20.16 20.16 0 0 0 6.59 9.31 24.4 24.4 0 0 0 8.05 4c8.39 2.46 15.94.48 22.86-4.56a14.55 14.55 0 0 0 5.18-7.02 49.8 49.8 0 0 0 1.39-4.7c1-3.97.98-8.06 1.22-12.11.55-9.22.88-18.44 1.36-27.67.23-4.37.54-8.74.93-13.1a14.3 14.3 0 0 1 3.66-8.41 26.41 26.41 0 0 1 5.55-4.68c5.24-3.37 10.56-6.61 15.74-10.06a233.19 233.19 0 0 0 28.15-22.05c3.98-3.63 8.03-7.18 11.94-10.88 4.01-3.8 7.25-8.2 10.01-13 4.61-8.04 7.52-16.74 10.16-25.53 1.98-6.62 3.41-13.4 4.29-20.27.53-4.14 1.08-8.28.51-12.46-.38-2.77-.85-5.52-1.31-8.28a87.91 87.91 0 0 0-4.11-15.91c-2.73-7.37-6.79-14.03-11.19-20.52-3.56-5.25-8.02-9.8-11.37-15.19-.17-.26-.4-.49-.62-.72l-5.01-5.29c-.23-.24-.53-.4-1.03-.76.11.85.16 1.42.28 1.98.08.41.31.8.37 1.21.34 1.97.71 3.94.95 5.92.37 3.09.72 6.18.95 9.29.42 5.73.7 11.48 1.12 17.22.16 2.2.43 4.41.82 6.59.35 1.99.19 2.61-1.65 3.55-1.4.71-2.86 1.32-4.48 2.05.18 2.2.33 4.46.59 6.7.07.6.44 1.18.75 1.72 1.03 1.78 2.13 3.52 3.15 5.3a28.7 28.7 0 0 0 7.23 8.51c.95.74 1.8 1.64 2.55 2.58 1.75 2.2 1.55 6.42-2.36 7.47a10 10 0 0 1-5.15.11 19.01 19.01 0 0 1-7.23-3.47c-1.95-1.52-3.81-3.17-5.68-4.8a8.72 8.72 0 0 0-3.5-2.05c-1.96-.51-3.37-1.72-3.79-3.82-.12-.62-.28-1.24-.31-1.87l-.64-16.59ZM252.78 99.3c2.5.51 4.92.98 7.34 1.51 8.81 1.93 17.66 2.42 26.56.74.96-.18 1.9-.49 2.9-.76V99.2c.12-4.22.22-8.44.41-12.65a3.52 3.52 0 0 0-.83-2.58 50.55 50.55 0 0 1-8.34-14.81c-1.72-4.92-3.87-9.69-5.96-14.47a23.47 23.47 0 0 0-4.68-6.73 2.67 2.67 0 0 0-1.76-.92 10.27 10.27 0 0 1-7.03-3.51c-.58-.65-1-1.44-1.46-2.11-1.98.6-3.88 1.21-5.81 1.74-1.47.41-2.96.76-4.46 1.07-3.24.67-5.37 2.64-6.97 5.46a35.3 35.3 0 0 0-3.73 10.21c-.74 3.45-1.37 6.93-2.14 10.38-1.43 6.38-2.94 12.74-4.39 19.11-.28 1.26-.43 2.55-.64 3.86a39.4 39.4 0 0 1 17.12-.63c.42-1.38 1.17-2.81 1.23-4.27.11-2.68-.1-5.38-.32-8.06-.51-6.32-.4-12.65-.1-18.97.03-.53.19-1.05.35-1.87 1 2.14 3.08 34.14 2.7 39.86Zm26.63-71.74-.24-.17c-.39.32-.86.58-1.15.98-.74 1.02-1.52 2.04-2.04 3.17-.88 1.89-2.34 2.71-4.3 2.55a19.24 19.24 0 0 1-4.32-.86c-1.85-.6-3.62-1.46-5.45-2.12-1.3-.47-2.64-.8-3.97-1.19l-.12.32c.6.32 1.2.63 1.79.96 2.29 1.3 4.59 2.59 6.86 3.92.58.34 1.14.76 1.22 1.59-1.19.59-1.94-.63-3.03-.68.5 1.28 1.92 1.96 2.07 3.78l-2.31-1.52c.23.9.55 1.69 1.07 2.32 1.35 1.62 2.66 3.31 4.23 4.7a26.67 26.67 0 0 1 6.84 9.02c2.28 5.1 4.45 10.26 6.51 15.46 2.48 6.25 6.32 11.54 10.93 16.34.46.48 1 .88 1.51 1.34a11.5 11.5 0 0 0 3.27-4.6 28.15 28.15 0 0 0 1.47-13.85c-.26-1.99-1.28-3.49-2.75-4.82a47.71 47.71 0 0 1-4.94-4.91c-4.22-5.07-8.32-10.24-12.44-15.39a5.75 5.75 0 0 1-1.16-2.05c-.82-3.19-1.19-6.43-.51-9.7l.97-4.57ZM270 32.09c2.12 1.02 3.53.59 4.45-1.33.14-.28.19-.62.36-.87.63-.96 1.2-2 1.98-2.83.55-.58 1.37-1 2.14-1.24 1.36-.42 2.05.23 1.84 1.62-.11.73-.36 1.43-.5 2.16-.36 1.8-.97 3.57-.78 5.46.14 1.42.22 2.84.4 4.25.17 1.36.56 2.63 1.71 3.59a9.95 9.95 0 0 0 2.61-3.77c-3.45-1.25-4.04-2.09-3.8-5.67.1-1.47.28-2.95.64-4.38.36-1.47.94-2.88 1.5-4.3.23-.58.65-.99 1.28-1.3 1.19-.6 1.82-1.74 2.18-2.99.28-1-.15-1.64-1.2-1.81-1.01-.17-1.98-.14-2.82.62a6.1 6.1 0 0 1-1.56 1.07c-.43.19-1.04.3-1.46.14-.66-.26-.58-.98-.4-1.53.25-.74.59-1.47.98-2.14 1.87-3.21 1.41-6.29-.57-9.22-1.46-2.15-3.4-2.64-5.79-1.66-.29.12-.59.24-.89.32-1.64.45-2.67-.16-3.05-1.82-.14-.6-.24-1.2-.36-1.82-1.77-.02-2.95.88-3.91 2a180.84 180.84 0 0 0-5.66 7.02c-.67.87-1.23 1.86-1.65 2.88-1.84 4.4-1.72 8.57 1.33 12.52 1.08 1.39 2.39 2.03 3.95 2.61 3.18 1.18 6.31 1.66 9.55.32.49-.2 1.09-.49 1.7.16-1.03 1.44-2.72 1.41-4.17 1.96Zm26.89 56.78c1.07.56 1.84.21 2.59-.16 3.13-1.57 4.72-4.23 5.36-7.58a73.18 73.18 0 0 0 1.24-13.37c.03-5.74.35-11.5-.53-17.22a14.31 14.31 0 0 0-2.47-6.09 8.5 8.5 0 0 0-3.65-2.94c-2.74-1.21-5.65-1.69-8.58-2.05-1.61-.2-3.23-.24-4.88-.35-.57 2.21-1.42 4.05-3.36 5.1l8.26 10.72.56-1.7c.93.73.99 1.61 1.07 2.39a5.06 5.06 0 0 0 1.6 3.16c1.86 1.87 3.65 3.82 5.55 5.64a6.44 6.44 0 0 1 1.8 2.91 24.66 24.66 0 0 1 .39 12.36 17.33 17.33 0 0 1-4.95 9.18Zm-97.21 114.05c-.55 1.28-1.19 2.43-1.58 3.67a27.47 27.47 0 0 1-7.84 12.22c-.7.64-1.43 1.26-2.07 1.95-.74.8-.73 1.56-.07 2.42.62.81 1.5 1.13 2.48 1.23.47.05.96-.04 1.42.07 2.41.55 4.4-.33 6.09-1.88a45.7 45.7 0 0 0 4.25-4.44c1.77-2.14 3.57-4.17 6.28-5.13 1.03-.36 1.23-1.14 1.21-2.14-.07-2.95-.09-5.9-.14-8.85 0-.23-.08-.46-.12-.66-1.66.53-3.18 1.08-4.75 1.49-1.59.42-3.22.5-5.15.04Zm31.69-107.25-2.95 17.13c.29-.02.35 0 .4-.03 5.06-2.72 10.12-5.43 15.17-8.16.29-.16.57-.47.69-.77.97-2.56 1.9-5.13 2.84-7.71.12-.33.17-.68.26-1-2.82-1.34-12.83-1.02-16.4.55Zm88.09 115.24c0 1.75-.06 3.33.04 4.9.03.42.46.96.86 1.19 1.19.66 2.43 1.28 3.7 1.75 2.1.77 4.02 1.8 5.79 3.18 2.08 1.62 4.25 3.13 6.42 4.62a9.48 9.48 0 0 0 5.68 1.66c.9-.01 1.77-.16 2.45-1.07-.87-.9-1.56-2-2.56-2.59a17.8 17.8 0 0 1-5.72-5.6c-1.12-1.66-2.05-3.44-3.1-5.14-.85-1.37-1.75-2.71-2.61-4.05-3.64 1.44-7.15 2.22-10.96 1.15Zm-.55-9.68c.15 2.3.32 4.33.39 6.37.03.82.32 1.19 1.12 1.4 3.31.89 6.27-.38 9.21-1.19v-6.82c-3.6.88-7.08.97-10.71.25Zm-108.87-7.47-9.34-.54v7.7c.05.04.09.1.13.11 3.14.3 5.9-.77 8.5-2.37.21-.13.35-.52.38-.8.13-1.31.21-2.62.33-4.09Zm52.88-155-1.85 1.93a7.99 7.99 0 0 0 6.32 4.7c-1.62-2.09-3.6-3.9-4.47-6.63ZM250.4 94.39l-.3-.05c-.45 1.39-.86 2.78-1.35 4.15-.5 1.4-1.07 2.77-1.71 4.39 2.24-.99 3.38-2.48 3.54-4.58.1-1.29-.11-2.61-.18-3.91ZM283 468.18a31.58 31.58 0 0 1-25.95 31.29c-14.03 2.64-28.65-4.89-34.86-18.21-4.77-10.25-4.42-20.45 1.21-30.34 1.42-2.5 7.86-9.42 8.89-10.14 14.39-10.13 34.4-6.45 44.68 8.25a32.74 32.74 0 0 1 6.03 19.16Zm-4.86-.02a28.49 28.49 0 0 0-3.89-14.34c-8.29-14.16-26.85-18.51-40.13-8.45-.25.19-3.2 2.12-4.11 3.27-8.13 10.29-8.84 23.84-1.43 34.31 6.69 9.45 16 13.67 27.5 11.73 13-2.18 22.02-13.33 22.06-26.52Z" class="cls-4"/>
    <path d="M252.78 99.3c.38-5.72-1.7-37.72-2.7-39.86-.16.82-.33 1.34-.35 1.87-.3 6.32-.41 12.65.1 18.97.22 2.68.43 5.38.32 8.06-.06 1.46-.81 2.89-1.23 4.27a39.4 39.4 0 0 0-17.12.63c.21-1.31.35-2.6.64-3.86 1.45-6.37 2.96-12.73 4.39-19.11.77-3.45 1.41-6.92 2.14-10.38.76-3.57 1.91-7 3.73-10.21 1.6-2.82 3.73-4.8 6.97-5.46 1.5-.31 2.99-.66 4.46-1.07 1.92-.53 3.83-1.14 5.81-1.74.45.67.87 1.46 1.46 2.11a10.25 10.25 0 0 0 7.03 3.51c.76.06 1.28.4 1.76.92 1.92 2 3.57 4.21 4.68 6.73 2.1 4.78 4.24 9.55 5.96 14.47a50.78 50.78 0 0 0 8.34 14.81c.63.8.87 1.56.83 2.58-.19 4.22-.28 8.44-.41 12.65v1.59c-1 .26-1.93.58-2.9.76-8.9 1.68-17.75 1.19-26.56-.74-2.41-.53-4.84-1-7.34-1.51Z" class="cls-1"/>
    <path d="m279.41 27.56-.97 4.57c-.68 3.28-.31 6.51.51 9.7.19.73.67 1.44 1.16 2.05 4.12 5.15 8.22 10.32 12.44 15.39a48.72 48.72 0 0 0 4.94 4.91c1.48 1.33 2.5 2.82 2.75 4.82.61 4.74.24 9.37-1.47 13.85a11.6 11.6 0 0 1-3.27 4.6c-.52-.45-1.05-.86-1.51-1.34-4.61-4.8-8.45-10.09-10.93-16.34a401.22 401.22 0 0 0-6.51-15.46 26.67 26.67 0 0 0-6.84-9.02c-1.57-1.39-2.87-3.08-4.23-4.7a5.78 5.78 0 0 1-1.07-2.32l2.31 1.52c-.15-1.82-1.57-2.5-2.07-3.78 1.09.05 1.83 1.28 3.03.68-.08-.83-.64-1.26-1.22-1.59-2.27-1.33-4.57-2.62-6.86-3.92-.59-.33-1.19-.64-1.79-.96l.12-.32c1.32.39 2.67.72 3.97 1.19 1.83.67 3.6 1.53 5.45 2.12 1.39.45 2.86.74 4.32.86 1.96.16 3.42-.66 4.3-2.55.53-1.13 1.31-2.15 2.04-3.17.28-.4.76-.66 1.15-.98l.24.17Z" class="cls-1"/>
    <path d="M270 32.09c1.46-.54 3.14-.53 4.17-1.96-.62-.65-1.21-.36-1.7-.16-3.24 1.33-6.38.85-9.55-.32-1.55-.58-2.87-1.21-3.95-2.61-3.05-3.95-3.18-8.12-1.33-12.52.42-1.01.98-2.01 1.65-2.88 1.83-2.38 3.72-4.73 5.66-7.02.96-1.12 2.14-2.03 3.91-2 .12.62.22 1.23.36 1.82.38 1.65 1.41 2.26 3.05 1.82.3-.08.6-.2.89-.32 2.39-.98 4.33-.49 5.79 1.66 1.99 2.93 2.45 6.01.57 9.22-.4.68-.74 1.4-.98 2.14-.18.54-.27 1.27.4 1.53.41.16 1.02.05 1.46-.14.57-.25 1.1-.65 1.56-1.07.84-.76 1.82-.78 2.82-.62 1.05.17 1.48.81 1.2 1.81-.35 1.25-.98 2.39-2.18 2.99-.63.31-1.05.73-1.28 1.3-.55 1.41-1.13 2.83-1.5 4.3a25.85 25.85 0 0 0-.64 4.38c-.24 3.58.35 4.42 3.8 5.67a9.66 9.66 0 0 1-2.61 3.77c-1.15-.96-1.54-2.24-1.71-3.59-.17-1.41-.25-2.84-.4-4.25-.19-1.89.42-3.65.78-5.46.15-.72.39-1.43.5-2.16.21-1.39-.48-2.04-1.84-1.62-.78.24-1.59.66-2.14 1.24-.78.83-1.35 1.86-1.98 2.83-.17.26-.22.59-.36.87-.93 1.91-2.33 2.34-4.45 1.32Zm.44-16.48c.19.29.34.81.62.88.3.08.79-.17 1.03-.44.31-.34.48-.81.65-1.25.2-.51.05-1.03-.48-1.15-.31-.07-.83.15-1.05.41-.33.38-.47.92-.77 1.56Zm-6.86-3.2c1.02-.03 2.05-1.5 1.81-2.22-.19-.57-.97-.8-1.39-.32-.4.46-.74 1.03-.89 1.61-.08.28.33.69.46.93Zm4.11 1.44c-1.19-.14-3.02 1.15-3.36 1.96-.28.67.02.97 1.22 1.07-.35-.75 0-1.19.58-1.62.57-.41 1.04-.94 1.56-1.42Zm-2.93 8.21c1.72.03 3.07-.07 4.68-.37-1.8-1.11-3.46-1.03-4.68.37Zm2.75-13.24c-1.12-1.12-1.89-1.3-3.04-.78.83 1.21 1.74 1.47 3.04.78Zm6 2.21c.59.49 1.08.97 1.64 1.34.42.28 1.01-.08.83-.49a3.5 3.5 0 0 0-1.11-1.39c-.44-.32-1-.27-1.37.53ZM296.88 88.87a17.33 17.33 0 0 0 4.95-9.18c.85-4.14.87-8.27-.39-12.36a6.67 6.67 0 0 0-1.8-2.91c-1.91-1.82-3.69-3.77-5.55-5.64a5.08 5.08 0 0 1-1.6-3.16c-.08-.79-.14-1.66-1.07-2.39l-.56 1.7-8.26-10.72c1.94-1.05 2.79-2.88 3.36-5.1 1.64.11 3.27.15 4.88.35 2.93.36 5.84.85 8.58 2.05a8.5 8.5 0 0 1 3.65 2.94 14.18 14.18 0 0 1 2.47 6.09c.88 5.72.56 11.48.53 17.22a73.26 73.26 0 0 1-1.24 13.37c-.64 3.34-2.23 6-5.36 7.58-.75.37-1.52.72-2.59.16ZM199.67 202.92c1.93.46 3.56.38 5.15-.04 1.56-.41 3.09-.97 4.75-1.49.04.19.12.42.12.66.05 2.95.06 5.9.14 8.85.02.99-.18 1.77-1.21 2.14-2.71.96-4.51 3-6.28 5.13a44.53 44.53 0 0 1-4.25 4.44c-1.7 1.55-3.68 2.44-6.09 1.88-.45-.1-.95-.02-1.42-.07a3.4 3.4 0 0 1-2.48-1.23c-.66-.86-.67-1.62.07-2.42.64-.69 1.37-1.31 2.07-1.95a27.47 27.47 0 0 0 7.84-12.22c.38-1.23 1.02-2.39 1.58-3.67ZM231.36 95.67c3.57-1.57 13.58-1.89 16.4-.55-.08.32-.14.67-.26 1-.93 2.57-1.87 5.14-2.84 7.71-.12.31-.4.62-.69.77-5.05 2.74-10.11 5.45-15.17 8.16-.04.02-.1 0-.4.03l2.95-17.13ZM319.46 210.91c3.81 1.07 7.31.28 10.96-1.16.87 1.33 1.77 2.68 2.61 4.05 1.05 1.71 1.99 3.49 3.1 5.14a17.9 17.9 0 0 0 5.72 5.6c1 .59 1.69 1.69 2.56 2.59-.69.91-1.55 1.06-2.45 1.07a9.53 9.53 0 0 1-5.68-1.66c-2.17-1.5-4.34-3-6.42-4.62a21.1 21.1 0 0 0-5.79-3.18 26.6 26.6 0 0 1-3.7-1.75c-.4-.22-.84-.76-.86-1.19-.1-1.57-.04-3.14-.04-4.9ZM318.91 201.23c3.63.73 7.11.64 10.71-.25v6.82c-2.94.81-5.89 2.08-9.21 1.19-.8-.21-1.09-.58-1.12-1.4-.07-2.04-.24-4.07-.39-6.37ZM210.04 193.76c-.11 1.47-.19 2.79-.33 4.09-.03.28-.17.67-.38.8-2.6 1.6-5.36 2.68-8.5 2.37-.04 0-.08-.06-.13-.11v-7.7l9.33.54ZM262.92 38.77c.87 2.73 2.85 4.54 4.47 6.63-2.9-.47-5-1.97-6.32-4.7l1.85-1.93Z" class="cls-1"/>
    <path d="M270.43 15.61c.3-.64.44-1.18.77-1.56.22-.26.74-.48 1.05-.41.53.12.68.64.48 1.15-.17.44-.35.92-.65 1.25-.24.26-.74.51-1.03.44-.27-.08-.43-.59-.62-.88ZM263.57 12.41c-.13-.24-.54-.65-.46-.93.15-.58.49-1.15.89-1.61.42-.48 1.2-.25 1.39.32.24.72-.79 2.2-1.81 2.22ZM267.68 13.85c-.51.48-.99 1.01-1.56 1.42-.58.42-.93.86-.58 1.62-1.2-.1-1.5-.4-1.22-1.07.34-.81 2.18-2.1 3.36-1.96ZM264.75 22.06c1.22-1.39 2.87-1.48 4.68-.37-1.6.3-2.96.4-4.68.37ZM267.5 8.82c-1.3.69-2.22.43-3.04-.78 1.15-.52 1.92-.35 3.04.78ZM273.5 11.03c.37-.8.93-.86 1.36-.53.46.35.88.86 1.11 1.39.18.41-.41.77-.83.49-.56-.37-1.05-.85-1.64-1.34Z" class="cls-4"/>
  </g>
  <g id="primary-color">
    <path d="M316.9 200.55c.22 5.63.43 11.11.67 16.58.03.62.19 1.25.31 1.87.42 2.11 1.83 3.31 3.79 3.82a8.65 8.65 0 0 1 3.5 2.05c1.87 1.63 3.73 3.27 5.68 4.8a18.94 18.94 0 0 0 7.23 3.47c1.73.42 3.41.35 5.15-.11 3.91-1.05 4.11-5.28 2.36-7.47a15.96 15.96 0 0 0-2.55-2.58c-3-2.35-5.34-5.23-7.23-8.51-1.02-1.78-2.12-3.53-3.15-5.3-.31-.54-.68-1.13-.75-1.72-.26-2.24-.4-4.49-.59-6.7 1.62-.74 3.08-1.34 4.48-2.05 1.84-.94 2-1.57 1.65-3.55a63.42 63.42 0 0 1-.82-6.59c-.41-5.73-.7-11.48-1.12-17.22-.23-3.1-.58-6.2-.95-9.29-.24-1.98-.61-3.95-.95-5.92-.07-.41-.29-.8-.37-1.21-.11-.55-.16-1.13-.28-1.98.5.36.8.53 1.03.76 1.68 1.75 3.35 3.52 5.01 5.29.22.23.46.45.62.72 3.35 5.39 7.81 9.94 11.37 15.19 4.4 6.49 8.45 13.15 11.19 20.52a87.91 87.91 0 0 1 4.11 15.91c.46 2.75.93 5.51 1.31 8.28.57 4.18.02 8.33-.51 12.46a127.07 127.07 0 0 1-4.29 20.27c-2.63 8.79-5.55 17.49-10.16 25.53-2.75 4.81-6 9.21-10.01 13-3.91 3.7-7.97 7.25-11.94 10.88a233.97 233.97 0 0 1-28.15 22.05c-5.19 3.45-10.5 6.69-15.74 10.06a26.12 26.12 0 0 0-5.55 4.68 14.33 14.33 0 0 0-3.66 8.41c-.39 4.36-.7 8.73-.93 13.1-.48 9.22-.81 18.45-1.36 27.67-.24 4.04-.23 8.13-1.22 12.11-.4 1.58-.84 3.16-1.39 4.7a14.55 14.55 0 0 1-5.18 7.02c-6.92 5.04-14.47 7.02-22.86 4.56a24.4 24.4 0 0 1-8.05-4 19.97 19.97 0 0 1-6.59-9.31c-1.4-3.88-1.8-7.93-1.82-12-.03-5.33.19-10.66.19-15.99 0-6.65-.27-13.31-1.28-19.89a102.68 102.68 0 0 1-1.06-18.78 45.21 45.21 0 0 1 3.07-15.45 38.69 38.69 0 0 1 11.42-15.92c5.46-4.5 11.21-8.63 17.38-12.12a94.55 94.55 0 0 0 14.35-10.1 72.16 72.16 0 0 0 23.38-36.48 49.1 49.1 0 0 0 1.18-19.94c-.56-4.08-.96-8.18-1.62-12.24-1.06-6.46-3.97-12.17-7.28-17.75a37.27 37.27 0 0 0-15.93-14.52c-6.44-3.18-13.35-4.79-20.59-3.38a40.03 40.03 0 0 0-13.17 5.24c-8.5 5.16-14.78 12.37-19.23 21.16a36.19 36.19 0 0 0-3.79 15.73c-.08 4.22.1 8.44.1 12.66 0 6.98-.26 13.94-2.39 20.67-1.26 4-3.57 7.44-6.37 10.47-2.95 3.19-6.76 4.74-11.14 4.92a33.36 33.36 0 0 1-15.82-3.26c-4.76-2.26-8.46-5.88-11.46-10.21-3.62-5.23-5.88-11.07-7.72-17.1a82.83 82.83 0 0 1-3.32-20.57c-.34-7.74.91-15.27 3.04-22.65 2.6-9.03 6.36-17.57 11.83-25.26a109.7 109.7 0 0 1 11.56-13.64c3.76-3.78 7.63-7.45 11.46-11.16.45-.43.93-.83 1.48-1.33.05.26.12.39.1.5a87.01 87.01 0 0 0-2.17 12.3c-.56 4.93-1.31 9.85-1.59 14.79-.21 3.78.15 7.59.31 11.38.09 2 .33 3.99.45 6 .06 1.01.53 1.7 1.42 2.1.91.41 1.83.78 2.75 1.16.48.19.98.35 1.61.58-.23 2.23-.38 4.42-.97 6.55-.21.76-.48 1.51-.66 2.28-1.19 5.15-3.72 9.61-7.12 13.61-.61.72-1.38 1.3-2 2.02-.96 1.11-1.95 2.22-2.74 3.45-.76 1.17-.63 2.41.36 3.49.74.81 1.37 1.77 2.23 2.44 1.79 1.41 3.99 1.74 6.16 1.55 4.38-.37 7.9-2.49 10.67-5.85 1.24-1.51 2.43-3.05 4.14-4.09.42-.26.74-.75.98-1.2a10.9 10.9 0 0 0 1.46-4.96c.09-4.06.16-8.12.22-12.19.03-2 0-3.99 0-6.1 1.03-.18 2.16-.43 3.29-.58 1.5-.2 2.42-.98 2.67-2.48.21-1.25.45-2.5.54-3.76.47-6.68.85-13.38 1.35-20.06.34-4.47.45-8.99 1.33-13.36 1.6-7.98 5.54-14.41 13.49-17.72a90.02 90.02 0 0 1 11.74-3.75c3.11-.82 6.23-1.62 9.3-2.58 2.21-.7 4.37-1.58 6.48-2.53a6.77 6.77 0 0 1 5.8 0c2.51 1.1 5 2.28 7.55 3.27 4.18 1.62 8.4 3.15 12.62 4.67 3.49 1.25 6.87 2.7 9.88 4.93 3.44 2.55 5.7 5.88 7.49 9.78 2.07 4.51 2.83 9.26 3.64 14.03.94 5.56 1.62 11.17 2.58 16.73.97 5.66 2.11 11.3 3.22 16.94.24 1.35.54 2.73 1.82 3.32ZM277.96 468.16c-.03 13.2-9.06 24.34-22.06 26.53-11.5 1.93-20.82-2.28-27.5-11.73-7.41-10.48-6.7-24.02 1.43-34.31.91-1.15 3.86-3.08 4.11-3.27 13.28-10.06 31.84-5.72 40.13 8.45a28.59 28.59 0 0 1 3.89 14.34Z" class="cls-3"/>
  </g>
</svg>