<svg width="1233" height="121" viewBox="0 0 1233 121" fill="none" xmlns="http://www.w3.org/2000/svg">
<g clip-path="url(#clip0_6853_81015)">
<mask id="mask0_6853_81015" style="mask-type:alpha" maskUnits="userSpaceOnUse" x="-1841" y="-197" width="2249" height="542">
<path d="M-1811 315L110.153 315C188.804 315 252.563 251.241 252.563 172.591V172.591C252.563 93.9405 188.804 30.1818 110.153 30.1818L-156.864 30.1818C-211.314 30.1818 -255.454 -13.9589 -255.454 -68.4091V-68.4091C-255.454 -122.859 -211.314 -167 -156.864 -167L377.855 -167" stroke="#FFC229" stroke-width="60" stroke-linecap="round" stroke-linejoin="round"/>
</mask>
<g mask="url(#mask0_6853_81015)">
<path d="M-1811 315L110.153 315C188.804 315 252.563 251.241 252.563 172.591V172.591C252.563 93.9405 188.804 30.1818 110.153 30.1818L-156.864 30.1818C-211.314 30.1818 -255.454 -13.9589 -255.454 -68.4091V-68.4091C-255.454 -122.859 -211.314 -167 -156.864 -167L377.855 -167" stroke="#FFC229" stroke-width="84" stroke-linecap="round" stroke-linejoin="round"/>
<g opacity="0.3" clip-path="url(#clip1_6853_81015)">
<path fill-rule="evenodd" clip-rule="evenodd" d="M154.958 300.079C161.368 344.907 129.839 387.416 117.782 432.376C106.058 476.093 109.798 522.1 84.8363 561.56C57.159 605.311 21.228 652.489 -30.7957 667.243C-82.7349 681.973 -133.171 653.126 -182.587 637.4C-225.044 623.888 -263.707 605.964 -299.516 581.725C-337.472 556.032 -377.159 530.863 -397.878 491.669C-420.018 449.789 -429.113 401.235 -420.081 353.657C-410.856 305.057 -384.299 258.866 -346.711 222.119C-309.861 186.096 -261.845 159.793 -210.482 148.755C-162.083 138.353 -116.06 157.112 -67.7546 162.171C-17.0048 167.485 40.1561 153.676 81.6021 179.34C123.797 205.468 148.183 252.69 154.958 300.079Z" fill="#C79200"/>
</g>
<g opacity="0.3" clip-path="url(#clip2_6853_81015)">
<path fill-rule="evenodd" clip-rule="evenodd" d="M-442.616 -53.1874C-454.195 -85.5971 -437.17 -122.041 -435.018 -157.353C-432.925 -191.689 -442.696 -225.382 -430.098 -258.557C-416.13 -295.341 -396.536 -335.929 -360.034 -354.815C-323.592 -373.671 -281.653 -359.847 -242.465 -355.639C-208.797 -352.023 -177.283 -344.545 -146.936 -331.932C-114.769 -318.562 -81.3931 -305.844 -60.0127 -279.802C-37.1669 -251.976 -23.0219 -217.2 -22.5236 -180.397C-22.0146 -142.805 -34.7774 -104.374 -57.1899 -71.3022C-79.1619 -38.8805 -110.925 -12.0025 -147.499 4.01627C-181.962 19.1105 -219.084 12.1287 -255.824 15.6962C-294.424 19.4443 -334.894 38.4068 -369.656 25.5878C-405.045 12.537 -430.375 -18.9262 -442.616 -53.1874Z" fill="#FFE094"/>
</g>
<g opacity="0.3" clip-path="url(#clip3_6853_81015)">
<path fill-rule="evenodd" clip-rule="evenodd" d="M277.494 -262.602C293.193 -220.127 271.315 -171.934 268.989 -125.444C266.726 -80.2387 280.064 -36.0489 263.964 7.77951C246.113 56.3755 220.914 110.058 173.159 135.428C125.483 160.758 70.1055 143.17 18.4871 138.194C-25.8625 133.919 -67.4312 124.532 -107.539 108.37C-150.052 91.2397 -194.147 74.9845 -222.649 41.0282C-253.106 4.74435 -272.214 -40.808 -273.396 -89.222C-274.603 -138.674 -258.362 -189.42 -229.347 -233.253C-200.903 -276.224 -159.497 -312.042 -111.606 -333.641C-66.4792 -353.994 -17.5391 -345.339 30.7489 -350.558C81.4806 -356.042 134.456 -381.57 180.374 -365.202C227.123 -348.537 260.899 -307.504 277.494 -262.602Z" fill="#C79200"/>
</g>
<g opacity="0.3" clip-path="url(#clip4_6853_81015)">
<path fill-rule="evenodd" clip-rule="evenodd" d="M9.55542 -37.1162C37.9569 -53.8026 75.0594 -47.7529 108.882 -41.0962C139.229 -35.1235 165.602 -16.6674 193.416 -0.930057C221.985 15.2348 253.874 26.2868 274.7 52.7248C296.629 80.5639 311.508 115.503 312.293 149.983C313.065 183.908 296.702 213.7 278.972 240.323C262.678 264.792 240.452 283.529 214.651 296.605C190.061 309.067 161.758 308.62 134.314 313.632C100.441 319.818 66.4863 346.292 33.882 329.616C1.70792 313.16 -1.68351 266.311 -20.7678 234.311C-39.5187 202.871 -73.5719 178.205 -77.6693 142.571C-81.7828 106.797 -57.0934 78.308 -42.2273 47.6831C-27.392 17.1217 -18.9249 -20.3835 9.55542 -37.1162Z" fill="#FFE094"/>
</g>
</g>
</g>
<defs>
<clipPath id="clip0_6853_81015">
<rect width="1519" height="161" fill="white" transform="translate(-212)"/>
</clipPath>
<clipPath id="clip1_6853_81015">
<rect width="550.942" height="591.344" fill="white" transform="translate(71.7031 48.8477) rotate(70.8858)"/>
</clipPath>
<clipPath id="clip2_6853_81015">
<rect width="423.586" height="454.484" fill="white" transform="translate(-171.705 -472.223) rotate(58.7387)"/>
</clipPath>
<clipPath id="clip3_6853_81015">
<rect width="550.942" height="591.344" fill="white" transform="translate(143.238 -490.689) rotate(58.7387)"/>
</clipPath>
<clipPath id="clip4_6853_81015">
<rect width="396.773" height="394.557" fill="white" transform="translate(310.891 347.281) rotate(-178.282)"/>
</clipPath>
</defs>
</svg>
