<svg width="178" height="161" viewBox="0 0 178 161" fill="none" xmlns="http://www.w3.org/2000/svg">
<g clip-path="url(#clip0_6853_80985)">
<mask id="mask0_6853_80985" style="mask-type:alpha" maskUnits="userSpaceOnUse" x="-122" y="-184" width="2249" height="542">
<path d="M2097 -154L175.847 -154C97.1961 -154 33.4374 -90.2413 33.4374 -11.5909V-11.5909C33.4374 67.0595 97.1963 130.818 175.847 130.818L442.864 130.818C497.314 130.818 541.454 174.959 541.454 229.409V229.409C541.454 283.859 497.314 328 442.864 328L-91.8552 328" stroke="#FFC229" stroke-width="60" stroke-linecap="round" stroke-linejoin="round"/>
</mask>
<g mask="url(#mask0_6853_80985)">
<path d="M2097 -154L175.847 -154C97.1961 -154 33.4374 -90.2413 33.4374 -11.5909V-11.5909C33.4374 67.0595 97.1963 130.818 175.847 130.818L442.864 130.818C497.314 130.818 541.454 174.959 541.454 229.409V229.409C541.454 283.859 497.314 328 442.864 328L-91.8552 328" stroke="#FFC229" stroke-width="84" stroke-linecap="round" stroke-linejoin="round"/>
<g opacity="0.3" clip-path="url(#clip1_6853_80985)">
<path fill-rule="evenodd" clip-rule="evenodd" d="M131.042 -139.079C124.632 -183.906 156.161 -226.416 168.218 -271.376C179.942 -315.093 176.202 -361.1 201.164 -400.559C228.841 -444.311 264.772 -491.489 316.796 -506.243C368.735 -520.972 419.171 -492.126 468.587 -476.4C511.044 -462.888 549.707 -444.964 585.516 -420.724C623.472 -395.032 663.159 -369.862 683.878 -330.668C706.018 -288.788 715.113 -240.235 706.081 -192.656C696.856 -144.057 670.299 -97.8653 632.711 -61.1191C595.861 -25.0953 547.845 1.20766 496.482 12.2458C448.083 22.647 402.06 3.88787 353.755 -1.17041C303.005 -6.48469 245.844 7.32437 204.398 -18.3398C162.203 -44.468 137.817 -91.6899 131.042 -139.079Z" fill="#C79200"/>
</g>
<g opacity="0.3" clip-path="url(#clip2_6853_80985)">
<path fill-rule="evenodd" clip-rule="evenodd" d="M8.50556 423.602C-7.19329 381.127 14.685 332.935 17.0114 286.444C19.2735 241.239 5.93584 197.049 22.0358 153.221C39.8871 104.625 65.0862 50.9425 112.841 25.572C160.517 0.242763 215.894 17.8305 267.513 22.8063C311.863 27.0815 353.431 36.4687 393.539 52.6303C436.052 69.7607 480.147 86.0158 508.649 119.972C539.106 156.256 558.214 201.808 559.396 250.222C560.604 299.675 544.362 350.42 515.347 394.253C486.903 437.225 445.497 473.042 397.606 494.641C352.479 514.994 303.539 506.339 255.251 511.559C204.519 517.042 151.544 542.57 105.626 526.202C58.877 509.538 25.1013 468.504 8.50556 423.602Z" fill="#C79200"/>
</g>
<g opacity="0.3" clip-path="url(#clip3_6853_80985)">
<path fill-rule="evenodd" clip-rule="evenodd" d="M276.445 198.117C248.043 214.804 210.941 208.754 177.118 202.097C146.771 196.124 120.398 177.668 92.5842 161.931C64.0147 145.766 32.1256 134.714 11.2999 108.276C-10.6295 80.4371 -25.5076 45.4977 -26.2928 11.0183C-27.0654 -22.9067 -10.7022 -52.6988 7.02755 -79.3224C23.3224 -103.791 45.5476 -122.529 71.3488 -135.604C95.9394 -148.066 124.242 -147.619 151.686 -152.631C185.559 -158.817 219.514 -185.291 252.118 -168.615C284.292 -152.159 287.684 -105.31 306.768 -73.3104C325.519 -41.8696 359.572 -17.2045 363.669 18.4299C367.783 54.2044 343.093 82.693 328.227 113.318C313.392 143.879 304.925 181.384 276.445 198.117Z" fill="#FFE094"/>
</g>
</g>
</g>
<defs>
<clipPath id="clip0_6853_80985">
<rect width="498" height="161" fill="white" transform="matrix(-1 0 0 -1 498 161)"/>
</clipPath>
<clipPath id="clip1_6853_80985">
<rect width="550.942" height="591.344" fill="white" transform="translate(214.297 112.153) rotate(-109.114)"/>
</clipPath>
<clipPath id="clip2_6853_80985">
<rect width="550.942" height="591.344" fill="white" transform="translate(142.762 651.69) rotate(-121.261)"/>
</clipPath>
<clipPath id="clip3_6853_80985">
<rect width="396.773" height="394.557" fill="white" transform="translate(-24.8906 -186.28) rotate(1.71845)"/>
</clipPath>
</defs>
</svg>
