<svg width="12" height="12" viewBox="0 0 12 12" fill="none" xmlns="http://www.w3.org/2000/svg">
<g clip-path="url(#clip0_4200_20297)">
<path d="M6.00067 9.74993C5.65067 9.74993 5.35067 9.59993 5.15067 9.34993L0.20067 3.79993C-0.0993304 3.39993 -0.0493304 2.79993 0.35067 2.49993C0.75067 2.19993 1.30067 2.19993 1.60067 2.59993L5.90067 7.49993C5.95067 7.54993 6.00067 7.54993 6.10067 7.49993L10.4007 2.59993C10.7507 2.19993 11.3007 2.14993 11.7007 2.49993C12.1007 2.84993 12.1507 3.39993 11.8007 3.79993C11.8007 3.79993 11.8007 3.79993 11.7507 3.84993L6.85067 9.39993C6.65067 9.59993 6.30067 9.74993 6.00067 9.74993Z" fill="#3D466C"/>
</g>
<defs>
<clipPath id="clip0_4200_20297">
<rect width="12" height="12" fill="white"/>
</clipPath>
</defs>
</svg>
