<svg width="16" height="24" viewBox="0 0 16 24" fill="none" xmlns="http://www.w3.org/2000/svg">
<path d="M1.11235 10.6904L1.12096 10.6835L1.12925 10.6763L12.3293 0.876261C12.9068 0.370925 13.6843 0.425897 14.2113 1.01518C14.6841 1.65891 14.6128 2.41539 14.1 2.79997L14.0846 2.81149L14.0702 2.82416L4.27021 11.4242L4.25796 11.4349L4.24645 11.4464C4.14195 11.5509 4.025 11.7206 4.025 11.95C4.025 12.1794 4.14195 12.349 4.24645 12.4535L4.25796 12.465L4.27021 12.4758L14.0702 21.0758L14.0707 21.0763C14.6732 21.6034 14.733 22.3886 14.2237 22.9707C13.7001 23.5691 12.9218 23.6322 12.341 23.1339L12.3409 23.1338L12.3408 23.1336L12.3406 23.1335L12.3405 23.1333L12.3403 23.1332L12.3402 23.133L12.34 23.1329L12.3398 23.1327L12.3397 23.1326L12.3395 23.1324L12.3394 23.1322L12.3392 23.1321L12.3391 23.1319L12.3389 23.1318L12.3387 23.1316L12.3386 23.1314L12.3384 23.1313L12.3382 23.1311L12.3381 23.1309L12.3379 23.1308L12.3377 23.1306L12.3375 23.1304L12.3374 23.1302L12.3372 23.1301L12.337 23.1299L12.3368 23.1297L12.3367 23.1295L12.3365 23.1294L12.3363 23.1292L12.3361 23.129L12.3359 23.1288L12.3358 23.1286L12.3356 23.1284L12.3354 23.1282L12.3352 23.1281L12.335 23.1279L12.3348 23.1277L12.3346 23.1275L12.3344 23.1273L12.3342 23.1271L12.334 23.1269L12.3338 23.1267L12.3336 23.1265L12.3334 23.1263L12.3332 23.1261L12.333 23.1259L12.3328 23.1257L12.3326 23.1255L12.3324 23.1253L12.3322 23.1251L12.332 23.1249L12.3318 23.1247L12.3316 23.1244L12.3314 23.1242L12.3311 23.124L12.3309 23.1238L12.3307 23.1236L12.3305 23.1234L12.3303 23.1231L12.33 23.1229L12.3298 23.1227L12.3296 23.1225L12.3294 23.1222L12.3291 23.122L12.3289 23.1218L12.3287 23.1215L12.3284 23.1213L12.3282 23.1211L12.328 23.1208L12.3277 23.1206L12.3275 23.1204L12.3273 23.1201L12.327 23.1199L12.3268 23.1196L12.3265 23.1194L12.3263 23.1192L12.326 23.1189L12.3258 23.1187L12.3255 23.1184L12.3253 23.1182L12.325 23.1179L12.3248 23.1176L12.3245 23.1174L12.3243 23.1171L12.324 23.1169L12.3237 23.1166L12.3235 23.1164L12.3232 23.1161L12.323 23.1158L12.3227 23.1156L12.3224 23.1153L12.3222 23.115L12.3219 23.1147L12.3216 23.1145L12.3213 23.1142L12.3211 23.1139L12.3208 23.1136L12.3205 23.1134L12.3202 23.1131L12.3199 23.1128L12.3197 23.1125L12.3194 23.1122L12.3191 23.1119L12.3188 23.1117L12.3185 23.1114L12.3182 23.1111L12.3179 23.1108L12.3176 23.1105L12.3173 23.1102L12.317 23.1099L12.3167 23.1096L12.3164 23.1093L12.3161 23.109L12.3158 23.1087L12.3155 23.1084L12.3152 23.1081L12.3149 23.1078L12.3146 23.1074L12.3143 23.1071L12.3139 23.1068L12.3136 23.1065L12.3133 23.1062L12.313 23.1059L12.3127 23.1055L12.3123 23.1052L12.312 23.1049L12.3117 23.1046L12.3114 23.1042L12.311 23.1039L12.3107 23.1036L12.3104 23.1032L12.31 23.1029L12.3097 23.1026L12.3094 23.1022L12.309 23.1019L12.3087 23.1015L12.3083 23.1012L12.308 23.1008L12.3076 23.1005L12.3073 23.1002L12.3069 23.0998L12.3066 23.0994L12.3062 23.0991L12.3059 23.0987L12.3055 23.0984L12.3052 23.098L12.3048 23.0977L12.3044 23.0973L12.3041 23.0969L12.3037 23.0966L12.3033 23.0962L12.303 23.0958L12.3026 23.0954L12.3022 23.0951L12.3018 23.0947L12.3014 23.0943L12.3011 23.0939L12.3007 23.0936L12.3003 23.0932L12.2999 23.0928L12.2995 23.0924L12.2991 23.092L12.2987 23.0916L12.2984 23.0912L12.298 23.0908L12.2976 23.0904L12.2972 23.09L12.2968 23.0896L12.2964 23.0892L12.296 23.0888L12.2955 23.0884L12.2951 23.088L12.2947 23.0876L12.2943 23.0872L12.2939 23.0868L12.2935 23.0864L12.2931 23.0859L12.2926 23.0855L12.2922 23.0851L12.2918 23.0847L12.2914 23.0842L12.2909 23.0838L12.2905 23.0834L12.2901 23.083L12.2897 23.0825L12.2892 23.0821L12.2888 23.0816L12.2883 23.0812L12.2879 23.0808L12.2875 23.0803L12.287 23.0799L12.2866 23.0794L12.2861 23.079L12.2857 23.0785L12.2852 23.0781L12.2847 23.0776L12.2843 23.0772L12.2838 23.0767L12.2834 23.0762L12.2829 23.0758L12.2824 23.0753L12.282 23.0748L12.2815 23.0744L12.281 23.0739L12.2806 23.0734L12.2801 23.0729L12.2796 23.0725L12.2791 23.072L12.2786 23.0715L12.2782 23.071L12.2777 23.0705L12.2772 23.07L12.2767 23.0696L12.2762 23.0691L12.2757 23.0686L12.2752 23.0681L12.2747 23.0676L12.2742 23.0671L12.2737 23.0666L12.2732 23.0661L12.2727 23.0656L12.2722 23.065L12.2717 23.0645L12.2712 23.064L12.2706 23.0635L12.2701 23.063L12.2696 23.0625L12.2691 23.0619L12.2686 23.0614L12.268 23.0609L12.2675 23.0604L12.267 23.0598L12.2664 23.0593L12.2659 23.0588L12.2654 23.0582L12.2648 23.0577L12.2643 23.0571L12.2637 23.0566L12.2632 23.0561L12.2626 23.0555L12.2621 23.055L12.2615 23.0544L12.261 23.0538L12.2604 23.0533L12.2599 23.0527L12.2593 23.0522L12.2587 23.0516L12.2582 23.051L12.2576 23.0505L12.257 23.0499L12.2565 23.0493L12.2559 23.0487L12.2553 23.0482L12.2547 23.0476L12.2541 23.047L12.2536 23.0464L12.2417 23.0345L12.229 23.0235L1.12901 13.3235L1.12083 13.3163L1.11235 13.3095C0.741304 13.0127 0.5 12.4618 0.5 12C0.5 11.4504 0.732063 10.9946 1.11235 10.6904Z" fill="#030F40" stroke="#3D466C"/>
</svg>
