<svg width="20" height="24" viewBox="0 0 20 24" fill="none" xmlns="http://www.w3.org/2000/svg">
<path fill-rule="evenodd" clip-rule="evenodd" d="M1.98546 22.6857C1.42248 22.6153 1 22.1367 1 21.5694V20.3125C1 18.9688 1.85981 17.7759 3.13454 17.351L5.61546 16.524C6.89019 16.0991 7.75 14.9062 7.75 13.5625L6.95044 12.7629C6.7357 12.5482 6.56666 12.2922 6.45349 12.0104L5.83417 10.4682C5.31535 9.17623 5.13085 7.77426 5.29775 6.39205L5.51867 4.5625C5.51867 2.69854 7.02971 1.1875 8.89367 1.1875H11.1063C12.9703 1.1875 14.4813 2.69854 14.4813 4.5625L14.7109 6.50184C14.8718 7.8612 14.6842 9.23915 14.1656 10.506L13.5464 12.0188C13.4333 12.2952 13.2662 12.5463 13.0551 12.7574L12.25 13.5625C12.25 14.9062 13.1098 16.0991 14.3845 16.524L16.8655 17.351C18.1402 17.7759 19 18.9688 19 20.3125V21.5694C19 22.1367 18.5775 22.6153 18.0145 22.6857H1.98546Z" stroke="#030F40" stroke-linecap="round" stroke-linejoin="round"/>
</svg>
