<svg width="14" height="18" viewBox="0 0 14 18" fill="none" xmlns="http://www.w3.org/2000/svg">
<path d="M0.526724 15.0142C0.526764 15.194 0.558474 15.3665 0.61657 15.5265M0.526724 15.0142L0.61657 15.5265M0.526724 15.0142C0.526724 15.0143 0.526724 15.0145 0.526724 15.0146C0.526724 15.1942 0.558443 15.3666 0.61657 15.5265M0.526724 15.0142L0.61657 15.5265M3.82257 15.5895L3.48448 15.523L3.34331 15.7479C3.44534 15.5661 3.51069 15.361 3.52927 15.1427L3.5075 15.5272L3.936 15.6114L7.59206 16.3303L3.82257 15.5895ZM2.03072 16.5179C2.42479 16.5179 2.78382 16.3658 3.05218 16.1171C2.77918 16.3723 2.41801 16.5186 2.03072 16.5186C1.64861 16.5186 1.29912 16.375 1.0334 16.139C1.29898 16.3747 1.64835 16.5179 2.03072 16.5179ZM1.35814 13.6687L1.52939 13.5693L1.52939 13.5099H2.03072C1.78908 13.5099 1.56061 13.5671 1.35814 13.6687ZM9.55072 1.4779C11.0194 1.4779 12.2461 2.53665 12.5074 3.93079L12.4977 3.8836C12.2152 2.50973 10.9835 1.4779 9.55072 1.4779Z" fill="black" stroke="white" stroke-width="1.00267"/>
</svg>
