<svg width="20" height="24" viewBox="0 0 20 24" fill="none" xmlns="http://www.w3.org/2000/svg">
<path d="M13 23.9971C12.952 23.9971 12.903 23.9921 12.854 23.9831L5.786 22.5941C5.238 23.4671 4.29 23.9981 3.25 23.9981C1.596 23.9981 0.25 22.6521 0.25 20.9981C0.25 19.9311 0.832 18.9371 1.75 18.4041V2.24707C1.75 1.00607 2.759 -0.00292969 4 -0.00292969H14.5C17.395 -0.00292969 19.75 2.35207 19.75 5.24707C19.75 5.66107 19.414 5.99707 19 5.99707H18.085L13.727 23.4291C13.644 23.7641 13.345 23.9971 13 23.9971ZM3.25 19.4971C2.423 19.4971 1.75 20.1701 1.75 20.9971C1.75 21.8241 2.423 22.4971 3.25 22.4971C4.077 22.4971 4.75 21.8241 4.75 20.9971C4.75 20.1701 4.077 19.4971 3.25 19.4971ZM12.445 22.3741L16.54 5.99707H3.25V17.9971C4.904 17.9971 6.25 19.3431 6.25 20.9971C6.25 21.0491 6.248 21.1021 6.245 21.1551L12.445 22.3741ZM18.174 4.49707C17.822 2.78507 16.282 1.49707 14.5 1.49707H4C3.586 1.49707 3.25 1.83307 3.25 2.24707V4.49707H18.174Z" fill="black"/>
</svg>
