<svg width="17" height="16" viewBox="0 0 17 16" fill="none" xmlns="http://www.w3.org/2000/svg"><g clip-path="url(#a)" stroke="#3D466C" stroke-width="1.5" stroke-linecap="round" stroke-linejoin="round"><path d="m1.667 4.245 13.694-2.91M9.567.522l-2.934.623a1 1 0 0 0-.772 1.188l.208.979 4.891-1.04-.208-.978A1 1 0 0 0 9.567.522v0ZM7.667 12V7m3 5V7m2.25-3h1.75l-.923 10.583a1 1 0 0 1-1 .917H5.587a1 1 0 0 1-.996-.917L3.9 6.25"/></g><defs><clipPath id="a"><path fill="#fff" d="M.5 0h16v16H.5z"/></clipPath></defs></svg>