<svg width="24" height="24" viewBox="0 0 24 24" fill="none" xmlns="http://www.w3.org/2000/svg">
<path d="M4.917 19.4989H0.75C0.336 19.4989 0 19.1629 0 18.7489C0 18.3349 0.336 17.9989 0.75 17.9989H3.387C2.125 16.1859 1.463 14.0049 1.512 11.7789C1.573 8.97388 2.723 6.35988 4.749 4.42088C6.713 2.54088 9.293 1.50488 12.014 1.50488C13.402 1.50488 14.757 1.77588 16.041 2.30888C16.226 2.38588 16.37 2.52988 16.447 2.71488C16.523 2.89988 16.523 3.10388 16.446 3.28888C16.329 3.56988 16.057 3.75088 15.753 3.75088C15.654 3.75088 15.557 3.73188 15.465 3.69288C14.365 3.23588 13.204 3.00388 12.014 3.00388C9.682 3.00388 7.47 3.89188 5.786 5.50388C4.049 7.16688 3.063 9.40688 3.011 11.8109C2.971 13.6549 3.494 15.4509 4.5 16.9689V14.2479C4.5 13.8339 4.836 13.4979 5.25 13.4979C5.664 13.4979 6 13.8349 6 14.2489V18.7489C6 19.1629 5.664 19.4989 5.25 19.4989H5.012C4.996 19.5009 4.981 19.5019 4.967 19.5019C4.955 19.5019 4.934 19.4999 4.917 19.4989Z" fill="#3D466C"/>
<path d="M11.995 22.5008C10.603 22.5008 9.24499 22.2288 7.95699 21.6928C7.77199 21.6158 7.62799 21.4718 7.55199 21.2858C7.47599 21.1008 7.47599 20.8968 7.55299 20.7118C7.66999 20.4308 7.94199 20.2498 8.24599 20.2498C8.34499 20.2498 8.44099 20.2688 8.53299 20.3068C9.63799 20.7668 10.802 21.0008 11.995 21.0008C14.331 21.0008 16.545 20.1098 18.229 18.4928C19.964 16.8278 20.947 14.5868 20.996 12.1828C21.034 10.3378 20.508 8.54278 19.499 7.02478V9.74878C19.499 10.1628 19.163 10.4988 18.749 10.4988C18.335 10.4988 18 10.1618 18 9.74878V5.24878C18 4.83478 18.336 4.49878 18.75 4.49878H23.25C23.664 4.49878 24 4.83478 24 5.24878C24 5.66278 23.664 5.99878 23.25 5.99878H20.615C21.878 7.80978 22.542 9.98878 22.497 12.2138C22.439 15.0178 21.293 17.6328 19.269 19.5758C17.303 21.4618 14.72 22.5008 11.995 22.5008Z" fill="#3D466C"/>
</svg>
