<svg xmlns="http://www.w3.org/2000/svg" width="24" height="24" fill="none"><g stroke="#3D466C" stroke-linecap="round" stroke-linejoin="round" stroke-width="1.5" clip-path="url(#clip0_4142_19422)"><path d="M21.75 3.75H2.25a1.5 1.5 0 0 0-1.5 1.5v16.5a1.5 1.5 0 0 0 1.5 1.5h19.5a1.5 1.5 0 0 0 1.5-1.5V5.25a1.5 1.5 0 0 0-1.5-1.5ZM.75 9.75h22.5M6.75 6V.75M17.25 6V.75"/><path d="M5.625 13.5a.375.375 0 1 0 0 .75.375.375 0 0 0 0-.75ZM5.625 18.75a.375.375 0 1 0 0 .75.375.375 0 0 0 0-.75ZM12 13.5a.375.375 0 1 0 0 .75.375.375 0 0 0 0-.75ZM12 18.75a.375.375 0 1 0 0 .75.375.375 0 0 0 0-.75ZM18.375 13.5a.375.375 0 1 0 0 .75.375.375 0 0 0 0-.75ZM18.375 18.75a.375.375 0 1 0 0 .75.375.375 0 0 0 0-.75Z"/></g><defs><clipPath id="clip0_4142_19422"><path fill="#fff" d="M0 0h24v24H0z"/></clipPath></defs></svg>
