<svg xmlns="http://www.w3.org/2000/svg" viewBox="114.8 44.77 470.33 470.4"><path d="M405.48 44.801A11.201 11.201 0 0 0 395.328 56v17.5a107.965 107.965 0 0 0-11.898 5.074l-12.426-12.426c-4.363-4.312-11.387-4.312-15.75 0L320.43 100.8a11.199 11.199 0 0 0 0 15.926l12.25 12.25c-1.938 3.95-3.61 8.035-5.074 12.25h-17.152c-6.184 0-11.2 5.012-11.2 11.199v49c0 6.183 5.016 11.199 11.2 11.199h17.152a108.402 108.402 0 0 0 5.074 12.074l-12.25 12.25a11.2 11.2 0 0 0 0 15.926l34.824 34.648c4.363 4.316 11.387 4.316 15.75 0l12.074-12.074c3.95 1.941 8.035 3.609 12.25 5.074v17.328c0 6.183 5.016 11.199 11.199 11.199h49.176c6.188 0 11.199-5.016 11.199-11.2v-17.327c4.188-1.426 8.293-2.992 12.25-4.899l11.902 11.898c4.363 4.317 11.387 4.317 15.75 0l34.648-34.648c4.363-4.316 4.441-11.34.176-15.75l-12.074-12.426a108.734 108.734 0 0 0 5.074-12.074h17.148c6.187 0 11.199-5.015 11.203-11.199v-49c-.004-6.187-5.016-11.199-11.203-11.199h-17.148c-1.465-4.214-3.137-8.3-5.074-12.25l12.074-12.426c4.265-4.414 4.187-11.434-.176-15.75l-34.648-34.652c-4.363-4.312-11.387-4.312-15.75 0l-12.25 12.25c-3.809-1.89-7.797-3.437-11.902-4.898v-17.5c0-6.184-5.012-11.199-11.199-11.199h-49.176c-.348-.016-.7-.016-1.047 0zm12.25 22.398h26.773v13.652a11.197 11.197 0 0 0 8.398 10.848c8.047 2.035 15.473 5.328 22.75 9.625a11.203 11.203 0 0 0 13.652-1.75l9.625-9.625 18.898 18.902-9.449 9.625a11.192 11.192 0 0 0-1.574 13.473c4.262 7.172 7.535 14.879 9.625 23.102a11.198 11.198 0 0 0 10.848 8.574h13.301v26.602h-13.301a11.197 11.197 0 0 0-10.848 8.399c-2.086 8.257-5.336 15.879-9.625 23.102a11.193 11.193 0 0 0 1.574 13.473l9.45 9.625-18.899 18.902-9.277-9.278a11.196 11.196 0 0 0-13.648-1.574c-7.078 4.192-14.8 7.352-23.102 9.45a11.2 11.2 0 0 0-8.398 10.851v13.473H417.73v-13.473c0-5.11-3.453-9.574-8.403-10.852-8.265-2.09-15.879-5.332-23.098-9.625a11.202 11.202 0 0 0-13.652 1.575l-9.449 9.453-18.898-18.902 9.45-9.45a11.203 11.203 0 0 0 1.75-13.648c-4.282-7.214-7.548-14.87-9.626-23.102a11.2 11.2 0 0 0-10.852-8.398h-13.3v-26.602h13.3a11.207 11.207 0 0 0 10.852-8.574c2.082-8.195 5.371-15.938 9.625-23.102a11.203 11.203 0 0 0-1.75-13.648l-9.449-9.45 18.898-18.901 9.801 9.625a11.197 11.197 0 0 0 13.648 1.75c7.297-4.313 14.668-7.582 22.75-9.625a11.2 11.2 0 0 0 8.402-10.848zm13.473 55.477c-29.875 0-54.426 24.348-54.426 54.25 0 29.898 24.496 54.426 54.426 54.426 29.93 0 54.25-24.582 54.25-54.426 0-29.848-24.375-54.25-54.25-54.25zm0 22.398c17.852 0 31.852 14.027 31.852 31.852 0 17.82-14.059 32.023-31.852 32.023s-32.023-14.258-32.023-32.023c0-17.77 14.176-31.852 32.023-31.852zm-159.07 157.68c-17.707 0-34.48 5.3-49.176 14a11.22 11.22 0 0 0-5.664 6.856 11.218 11.218 0 0 0 1.113 8.82 11.2 11.2 0 0 0 15.926 3.574c11.715-6.937 24.582-10.852 37.801-10.852 21.094 0 40.34 8.242 54.773 21.703 2.098 1.934 4.852 3 7.703 2.973l52.672-.348c5.688 0 8.281 1.559 9.977 3.324s2.515 4.266 2.449 7c-.129 5.465-2.422 10.848-12.426 10.848h-74.898a11.223 11.223 0 0 0-8.023 3.227 11.208 11.208 0 0 0 0 15.953 11.22 11.22 0 0 0 8.023 3.223h74.898c20.625 0 34.438-16.414 34.828-32.727.191-8.156-2.598-16.7-8.75-23.098-6.156-6.402-15.418-10.152-26.078-10.152h-.172l-48.828.351c-17.93-15.219-40.922-24.676-66.148-24.676zm275.27.176c-7.566.105-15.262 2.062-22.223 5.597l-66.676 33.953a11.197 11.197 0 0 0 1.418 20.899 11.19 11.19 0 0 0 8.73-.95l66.676-33.948c10.828-5.504 21.395-3.461 25.551 2.797 4.172 6.28 2.106 15.117-7.523 20.828a7.198 7.198 0 0 0-.176.171L411.43 438.38H256.55l-73.676-127.4c-3.058-5.351-9.86-7.226-15.227-4.203l-47.25 27.301c-.355.157-.707.332-1.047.528a11.197 11.197 0 0 0-2.976 14.699l92.398 160.12a11.198 11.198 0 0 0 15.402 4.199l47.074-27.301c5.348-3.055 7.227-9.86 4.2-15.223l-5.95-10.328h145.07a11.182 11.182 0 0 0 5.95-1.75l144.2-87.5.171-.172c18.516-11.129 26.418-34.859 14.703-52.5-5.89-8.871-14.887-13.863-24.676-15.402a45.04 45.04 0 0 0-7.527-.523zm-378.35 28.875 81.375 140.88-27.824 15.926-81.203-140.7z"/></svg>