<svg width="41" height="40" viewBox="0 0 41 40" fill="none" xmlns="http://www.w3.org/2000/svg">
<path d="M12.0888 27.8194C8.78275 25.226 6.65869 21.1944 6.65869 16.6667C6.65869 8.84267 13.0014 2.5 20.8254 2.5C28.6494 2.5 34.992 8.84267 34.992 16.6667C34.992 21.1944 32.8679 25.226 29.5619 27.8194C29.2939 28.9023 28.9913 29.9412 28.7524 30.7187C28.4969 31.5506 27.806 32.1552 26.9406 32.2456C25.7793 32.3668 23.8217 32.5 20.8254 32.5C17.829 32.5 15.8714 32.3668 14.7101 32.2456C13.8447 32.1552 13.1538 31.5506 12.8983 30.7187C12.6594 29.9412 12.3568 28.9023 12.0888 27.8194Z" fill="#FFE094"/>
<path d="M14.5654 32.2252C14.7343 33.3169 14.9103 34.3104 15.0576 35.095C15.2648 36.199 16.05 37.0858 17.1607 37.2538C18.0324 37.3857 19.2434 37.4997 20.8251 37.4997C22.3293 37.4997 23.5652 37.3966 24.5062 37.273C25.8264 37.0998 26.7513 36.0017 26.8947 34.6779L27.162 32.2102C27.0896 32.2257 27.0156 32.2375 26.9403 32.2453C25.779 32.3665 23.8215 32.4997 20.8251 32.4997C17.8288 32.4997 15.8712 32.3665 14.7099 32.2453C14.6612 32.2402 14.613 32.2335 14.5654 32.2252Z" fill="white"/>
<path d="M12.0888 27.8194C8.78275 25.226 6.65869 21.1944 6.65869 16.6667C6.65869 8.84267 13.0014 2.5 20.8254 2.5C28.6494 2.5 34.992 8.84267 34.992 16.6667C34.992 21.1944 32.8679 25.226 29.5619 27.8194C29.2939 28.9023 28.9913 29.9412 28.7524 30.7187C28.4969 31.5506 27.806 32.1552 26.9406 32.2456C25.7793 32.3668 23.8217 32.5 20.8254 32.5C17.829 32.5 15.8714 32.3668 14.7101 32.2456C13.8447 32.1552 13.1538 31.5506 12.8983 30.7187C12.6594 29.9412 12.3568 28.9023 12.0888 27.8194Z" stroke="#C79200" stroke-linecap="round" stroke-linejoin="round"/>
<path d="M14.5654 32.2252C14.7343 33.3169 14.9103 34.3104 15.0576 35.095C15.2648 36.199 16.05 37.0858 17.1607 37.2538C18.0324 37.3857 19.2434 37.4997 20.8251 37.4997C22.3293 37.4997 23.5652 37.3966 24.5062 37.273C25.8264 37.0998 26.7513 36.0017 26.8947 34.6779L27.162 32.2102" stroke="#C79200" stroke-linecap="round" stroke-linejoin="round"/>
<path d="M29.1585 15.8333C29.1585 11.231 25.4275 7.5 20.8252 7.5" stroke="#C79200" stroke-linecap="round" stroke-linejoin="round"/>
</svg>
