<svg width="36" height="36" viewBox="0 0 36 36" fill="none" xmlns="http://www.w3.org/2000/svg">
<g clip-path="url(#clip0_5077_128617)">
<path d="M19.5 21H19C18.7348 21 18.4804 20.8946 18.2929 20.7071C18.1054 20.5196 18 20.2652 18 20V17.5C18 17.3674 17.9473 17.2402 17.8536 17.1464C17.7598 17.0527 17.6326 17 17.5 17H17" stroke="#3D466C" stroke-width="1.5" stroke-linecap="round" stroke-linejoin="round"/>
<path d="M17.75 14.5C17.7006 14.5 17.6522 14.5147 17.6111 14.5421C17.57 14.5696 17.538 14.6086 17.519 14.6543C17.5001 14.7 17.4952 14.7503 17.5048 14.7988C17.5145 14.8473 17.5383 14.8918 17.5732 14.9268C17.6082 14.9617 17.6527 14.9855 17.7012 14.9952C17.7497 15.0048 17.8 14.9999 17.8457 14.981C17.8914 14.962 17.9304 14.93 17.9579 14.8889C17.9853 14.8478 18 14.7994 18 14.75C18 14.6837 17.9737 14.6201 17.9268 14.5732C17.8799 14.5263 17.8163 14.5 17.75 14.5Z" stroke="#3D466C" stroke-width="1.5" stroke-linecap="round" stroke-linejoin="round"/>
<path d="M10.5 18C10.5 19.9891 11.2902 21.8968 12.6967 23.3033C14.1032 24.7098 16.0109 25.5 18 25.5C19.9891 25.5 21.8968 24.7098 23.3033 23.3033C24.7098 21.8968 25.5 19.9891 25.5 18C25.5 16.0109 24.7098 14.1032 23.3033 12.6967C21.8968 11.2902 19.9891 10.5 18 10.5C16.0109 10.5 14.1032 11.2902 12.6967 12.6967C11.2902 14.1032 10.5 16.0109 10.5 18V18Z" stroke="#3D466C" stroke-width="1.5" stroke-linecap="round" stroke-linejoin="round"/>
</g>
<defs>
<clipPath id="clip0_5077_128617">
<rect width="16" height="16" fill="white" transform="translate(10 10)"/>
</clipPath>
</defs>
</svg>
