<svg width="48" height="48" viewBox="0 0 48 48" fill="none" xmlns="http://www.w3.org/2000/svg">
<rect width="48" height="48" rx="24" fill="#9BCD41" fill-opacity="0.1"/>
<g clip-path="url(#clip0_6247_191229)">
<path d="M26.25 28.5H25.5C25.1022 28.5 24.7206 28.342 24.4393 28.0607C24.158 27.7794 24 27.3978 24 27V23.25C24 23.0511 23.921 22.8603 23.7803 22.7197C23.6397 22.579 23.4489 22.5 23.25 22.5H22.5" stroke="#699C00" stroke-width="1.5" stroke-linecap="round" stroke-linejoin="round"/>
<path d="M23.625 18.75C23.5508 18.75 23.4783 18.772 23.4167 18.8132C23.355 18.8544 23.3069 18.913 23.2785 18.9815C23.2502 19.05 23.2427 19.1254 23.2572 19.1982C23.2717 19.2709 23.3074 19.3377 23.3598 19.3902C23.4123 19.4426 23.4791 19.4783 23.5518 19.4928C23.6246 19.5073 23.7 19.4998 23.7685 19.4715C23.837 19.4431 23.8956 19.395 23.9368 19.3333C23.978 19.2717 24 19.1992 24 19.125C24 19.0255 23.9605 18.9302 23.8902 18.8598C23.8198 18.7895 23.7245 18.75 23.625 18.75Z" stroke="#699C00" stroke-width="1.5" stroke-linecap="round" stroke-linejoin="round"/>
<path d="M12.75 24C12.75 26.9837 13.9353 29.8452 16.045 31.955C18.1548 34.0647 21.0163 35.25 24 35.25C26.9837 35.25 29.8452 34.0647 31.955 31.955C34.0647 29.8452 35.25 26.9837 35.25 24C35.25 21.0163 34.0647 18.1548 31.955 16.045C29.8452 13.9353 26.9837 12.75 24 12.75C21.0163 12.75 18.1548 13.9353 16.045 16.045C13.9353 18.1548 12.75 21.0163 12.75 24V24Z" stroke="#699C00" stroke-width="1.5" stroke-linecap="round" stroke-linejoin="round"/>
</g>
<defs>
<clipPath id="clip0_6247_191229">
<rect width="24" height="24" fill="white" transform="translate(12 12)"/>
</clipPath>
</defs>
</svg>
