<svg width="24" height="24" viewBox="0 0 24 24" fill="none" xmlns="http://www.w3.org/2000/svg">
<g clip-path="url(#clip0_5954_196531)">
<path d="M23.25 9.00025V4.65025C23.2501 4.3504 23.1602 4.05742 22.9922 3.80912C22.8241 3.56082 22.5854 3.36859 22.307 3.25725L16.307 0.857251C15.9494 0.71425 15.5506 0.71425 15.193 0.857251L8.80701 3.41225C8.44944 3.55525 8.05058 3.55525 7.69301 3.41225L1.77901 1.04625C1.6649 1.00052 1.5413 0.983536 1.41909 0.996798C1.29687 1.01006 1.17979 1.05316 1.07815 1.1223C0.97651 1.19145 0.893422 1.28452 0.836202 1.39332C0.778981 1.50212 0.749382 1.62332 0.75001 1.74625V16.1193C0.74996 16.4191 0.839775 16.7121 1.00786 16.9604C1.17595 17.2087 1.4146 17.4009 1.69301 17.5122L7.69301 19.9123C8.05058 20.0553 8.44944 20.0553 8.80701 19.9123L11.688 18.7593" stroke="#3D466C" stroke-width="1.5" stroke-linecap="round" stroke-linejoin="round"/>
<path d="M8.25 3.51953V20.0195" stroke="#3D466C" stroke-width="1.5" stroke-linecap="round" stroke-linejoin="round"/>
<path d="M15.75 0.75V8.25" stroke="#3D466C" stroke-width="1.5" stroke-linecap="round" stroke-linejoin="round"/>
<path d="M18.75 15.4492C18.8495 15.4492 18.9448 15.4887 19.0152 15.5591C19.0855 15.6294 19.125 15.7248 19.125 15.8242" stroke="#3D466C" stroke-width="1.5" stroke-linecap="round" stroke-linejoin="round"/>
<path d="M18.375 15.8242C18.375 15.7248 18.4145 15.6294 18.4848 15.5591C18.5552 15.4887 18.6505 15.4492 18.75 15.4492" stroke="#3D466C" stroke-width="1.5" stroke-linecap="round" stroke-linejoin="round"/>
<path d="M18.75 16.1992C18.6505 16.1992 18.5552 16.1597 18.4848 16.0894C18.4145 16.0191 18.375 15.9237 18.375 15.8242" stroke="#3D466C" stroke-width="1.5" stroke-linecap="round" stroke-linejoin="round"/>
<path d="M19.125 15.8242C19.125 15.9237 19.0855 16.0191 19.0152 16.0894C18.9448 16.1597 18.8495 16.1992 18.75 16.1992" stroke="#3D466C" stroke-width="1.5" stroke-linecap="round" stroke-linejoin="round"/>
<path d="M18.75 11.3242C19.9435 11.3242 21.0881 11.7983 21.932 12.6422C22.7759 13.4862 23.25 14.6307 23.25 15.8242C23.25 17.7452 20.562 21.4002 19.341 22.9622C19.2709 23.052 19.1812 23.1246 19.0788 23.1746C18.9764 23.2245 18.8639 23.2505 18.75 23.2505C18.6361 23.2505 18.5236 23.2245 18.4212 23.1746C18.3188 23.1246 18.2291 23.052 18.159 22.9622C16.938 21.4012 14.25 17.7452 14.25 15.8242C14.25 14.6307 14.7241 13.4862 15.568 12.6422C16.4119 11.7983 17.5565 11.3242 18.75 11.3242Z" stroke="#3D466C" stroke-width="1.5" stroke-linecap="round" stroke-linejoin="round"/>
</g>
<defs>
<clipPath id="clip0_5954_196531">
<rect width="24" height="24" fill="white"/>
</clipPath>
</defs>
</svg>
