<svg width="25" height="24" viewBox="0 0 25 24" fill="none" xmlns="http://www.w3.org/2000/svg"><g clip-path="url(#a)" stroke="#fff" stroke-width="1.5" stroke-linecap="round" stroke-linejoin="round"><path d="M9.5 15.292v-.285a3 3 0 1 1 6 0v.285m-.748-10.035-2.25 6.75m-5.625-4.5a.375.375 0 1 0 0 .75.375.375 0 0 0 0-.75Zm12.75 3.75a.375.375 0 1 0 0 .75.375.375 0 0 0 0-.75v0Zm-1.5-3.75a.375.375 0 1 0 .263.11.375.375 0 0 0-.265-.11m-8.248-3a.375.375 0 1 0 0 .75.375.375 0 0 0 0-.75v0Z"/><path d="M21.931 18.142a15.753 15.753 0 0 0-18.862 0"/><path d="M1.25 12.007a11.25 11.25 0 1 0 22.5 0 11.25 11.25 0 0 0-22.5 0v0Z"/><path d="M5.377 11.257a.375.375 0 1 0 0 .75.375.375 0 0 0 0-.75Z"/></g><defs><clipPath id="a"><path fill="#fff" d="M.5 0h24v24H.5z"/></clipPath></defs></svg>