<svg width="24" height="24" viewBox="0 0 24 24" fill="none" xmlns="http://www.w3.org/2000/svg">
<g clip-path="url(#clip0_5343_148544)">
<path d="M13.044 14.136L9.33203 14.667L9.86203 10.954L19.408 1.40801C19.83 0.986047 20.4023 0.748993 20.999 0.748993C21.2945 0.748993 21.5871 0.807191 21.8601 0.920265C22.1331 1.03334 22.3811 1.19907 22.59 1.40801C22.799 1.61694 22.9647 1.86498 23.0778 2.13796C23.1908 2.41095 23.249 2.70353 23.249 2.99901C23.249 3.29448 23.1908 3.58707 23.0778 3.86005C22.9647 4.13303 22.799 4.38107 22.59 4.59001L13.044 14.136Z" stroke="#3D466C" stroke-width="1.5" stroke-linecap="round" stroke-linejoin="round"/>
<path d="M18.3477 2.46899L21.5297 5.65099" stroke="#3D466C" stroke-width="1.5" stroke-linecap="round" stroke-linejoin="round"/>
<path d="M18.75 14.25V21.75C18.75 22.1478 18.592 22.5294 18.3107 22.8107C18.0294 23.092 17.6478 23.25 17.25 23.25H2.25C1.85218 23.25 1.47064 23.092 1.18934 22.8107C0.908035 22.5294 0.75 22.1478 0.75 21.75V6.75C0.75 6.35218 0.908035 5.97064 1.18934 5.68934C1.47064 5.40804 1.85218 5.25 2.25 5.25H9.75" stroke="#3D466C" stroke-width="1.5" stroke-linecap="round" stroke-linejoin="round"/>
</g>
<defs>
<clipPath id="clip0_5343_148544">
<rect width="24" height="24" fill="white"/>
</clipPath>
</defs>
</svg>
