<svg width="32" height="32" viewBox="0 0 32 32" fill="none" xmlns="http://www.w3.org/2000/svg">
<path fill-rule="evenodd" clip-rule="evenodd" d="M10.9276 4.35781C9.51286 6.57673 6.59947 11.3243 3.08261 18.0466C2.56457 19.0368 2.51141 20.2151 3.033 21.2034C3.67651 22.4226 4.73755 24.209 6.25535 26.077C6.76459 26.7037 7.48679 27.0932 8.28453 27.1494C9.50173 27.235 11.8187 27.3334 16.0425 27.3334C20.3741 27.3334 22.7003 27.23 23.8915 27.1428C24.6337 27.0886 25.3009 26.7335 25.7577 26.1362C26.4067 25.2874 27.4669 23.7709 28.8581 21.339C29.4709 20.2674 29.492 18.9534 28.9183 17.8596C27.6805 15.5002 25.1354 10.8411 21.1253 4.37044C20.5617 3.46101 19.6389 2.83791 18.5845 2.7572C17.3883 2.66562 15.6155 2.60556 13.515 2.76934C12.4541 2.85207 11.5063 3.45013 10.9276 4.35781Z" fill="white"/>
<path d="M21.7615 5.22909C22.3357 4.96073 22.7891 4.77107 23.1322 4.63867C23.5479 4.47827 23.9468 4.8003 23.8949 5.24283C23.632 7.48547 22.9317 10.2599 22.2983 12.2753C22.1011 12.9026 21.4623 13.2715 20.8205 13.1285C18.7534 12.6683 15.9923 11.8849 13.9169 10.9885C13.5124 10.8138 13.4321 10.3162 13.7741 10.0383C14.1134 9.76267 14.6056 9.3896 15.2969 8.91993L12 2.83333C12 2.83333 13.3333 2.5 16.3333 2.5C17.7646 2.5 18.6647 2.57587 19.2148 2.65522C19.7425 2.73133 20.1831 3.03882 20.5127 3.45781C21.0008 4.07821 21.4171 4.68361 21.7615 5.22909Z" fill="#FFE094"/>
<path d="M22.7041 26.796C22.6495 27.4275 22.587 27.915 22.5301 28.2783C22.4612 28.7185 21.9829 28.9029 21.6256 28.6367C19.8148 27.2877 17.7623 25.294 16.3336 23.7379C15.8888 23.2534 15.8888 22.5157 16.3336 22.0313C17.7657 20.4713 19.8247 18.4719 21.6386 17.1227C21.9922 16.8597 22.4632 17.0391 22.5329 17.4741C22.602 17.9058 22.679 18.5186 22.7401 19.3521L29.6597 19.5402C29.6597 19.5402 29.2817 20.8616 27.7817 23.4597C27.0661 24.6991 26.5503 25.4408 26.2065 25.8775C25.8767 26.2964 25.3902 26.5242 24.8625 26.6002C24.0812 26.7127 23.3487 26.7705 22.7041 26.796Z" fill="#FFE094"/>
<path d="M3.74826 17.0187C3.22877 16.6556 2.8378 16.3577 2.55158 16.1268C2.20483 15.847 2.28427 15.3405 2.69345 15.1642C4.76711 14.2706 7.52001 13.4899 9.58201 13.0307C10.2239 12.8877 10.8627 13.2565 11.0599 13.8839C11.6949 15.9041 12.3969 18.6871 12.6584 20.9325C12.7093 21.3703 12.3185 21.6885 11.9069 21.5313C11.4985 21.3753 10.9293 21.1356 10.1769 20.7717L6.55422 26.6703C6.55422 26.6703 5.59888 25.6822 4.09888 23.0841C3.38325 21.8446 2.99887 21.0271 2.79256 20.5111C2.59465 20.0161 2.64065 19.4808 2.83869 18.9858C3.13191 18.2529 3.44807 17.5897 3.74826 17.0187Z" fill="#FFE094"/>
<path d="M6.33301 10.4445C7.56081 8.64995 10.0251 5.18551 11.3917 3.69542C11.7686 3.28446 12.2782 3.04478 12.8283 2.9538C14.0357 2.75414 16.3717 2.47789 18.5455 2.85117C19.2869 2.97849 19.9295 3.41097 20.422 3.97968C20.8844 4.51375 21.4311 5.15037 21.6663 5.44447L22.881 4.83715C23.4879 4.53367 24.1761 5.04203 24.0507 5.70894C23.5892 8.16349 22.6277 12.6304 21.6663 13.1112C20.689 13.5998 16.3087 12.2974 14.0394 11.5672C13.4273 11.3702 13.2789 10.586 13.7671 10.1676L14.9997 9.11115L13.6663 6.44447" stroke="#C79200" stroke-linecap="round" stroke-linejoin="round"/>
<path d="M26.0688 11.1647C27.0089 13.1253 28.7771 16.9916 29.3842 18.9202C29.5517 19.4521 29.5044 20.0133 29.3082 20.5352C28.8774 21.6805 27.9486 23.8417 26.5385 25.5377C26.0575 26.1161 25.3616 26.4564 24.6229 26.5985C23.9292 26.7319 23.1045 26.8871 22.7322 26.9438L22.6508 28.2993C22.6102 28.9767 21.8258 29.3185 21.311 28.8765C19.416 27.2495 16.0282 24.1834 16.0927 23.1105C16.1582 22.0197 19.4762 18.8774 21.2432 17.2773C21.7198 16.8457 22.4732 17.1093 22.5914 17.7413L22.8901 19.3369L25.8662 19.5155" stroke="#C79200" stroke-linecap="round" stroke-linejoin="round"/>
<path d="M15.7354 27.8891C13.5673 27.723 9.33494 27.3212 7.36121 26.8827C6.81688 26.7618 6.35446 26.4402 6.0006 26.0093C5.22404 25.0636 3.81678 23.1786 3.05314 21.1094C2.79269 20.4036 2.84592 19.6309 3.09222 18.9201C3.32353 18.2526 3.60153 17.4608 3.73858 17.11L2.60531 16.3618C2.03902 15.9879 2.13517 15.1377 2.77543 14.9129C5.13188 14.0853 9.48108 12.6844 10.3781 13.2767C11.29 13.8788 12.3523 18.3234 12.8545 20.6538C12.9899 21.2823 12.385 21.803 11.7786 21.5894L10.2473 21.0502L8.60461 23.5382" stroke="#C79200" stroke-linecap="round" stroke-linejoin="round"/>
</svg>
