<svg width="24" height="24" viewBox="0 0 24 24" fill="none" xmlns="http://www.w3.org/2000/svg">
<g clip-path="url(#clip0_5954_196527)">
<path d="M2.05007 10.3888C1.74419 10.3025 1.47401 10.1205 1.27913 9.86946C1.08426 9.6184 0.974952 9.31151 0.967235 8.99379C0.959519 8.67606 1.0538 8.36423 1.23626 8.104C1.41871 7.84378 1.67974 7.64886 1.98107 7.54782L22.0521 1.00182C22.1835 0.958965 22.3243 0.953239 22.4588 0.985279C22.5933 1.01732 22.7164 1.08588 22.8145 1.1834C22.9125 1.28093 22.9817 1.40363 23.0145 1.53798C23.0472 1.67234 23.0422 1.81312 23.0001 1.94482L16.4591 22.0258C16.3585 22.3277 16.1637 22.5893 15.9033 22.7721C15.6429 22.955 15.3307 23.0494 15.0127 23.0416C14.6946 23.0338 14.3875 22.924 14.1364 22.7286C13.8854 22.5331 13.7037 22.2623 13.6181 21.9558L11.3721 12.6248L2.05007 10.3888Z" stroke="#3D466C" stroke-width="1.5" stroke-linecap="round" stroke-linejoin="round"/>
<path d="M22.8141 1.18359L11.3711 12.6266" stroke="#3D466C" stroke-width="1.5" stroke-linecap="round" stroke-linejoin="round"/>
</g>
<defs>
<clipPath id="clip0_5954_196527">
<rect width="24" height="24" fill="white"/>
</clipPath>
</defs>
</svg>
