<svg width="16" height="16" viewBox="0 0 16 16" fill="none" xmlns="http://www.w3.org/2000/svg">
<path d="M8.00049 15.998C7.72449 15.998 7.50049 15.774 7.50049 15.498V13.9767C4.60715 13.7347 2.26382 11.3907 2.02249 8.49805H0.500488C0.224488 8.49805 0.000488281 8.27405 0.000488281 7.99805C0.000488281 7.72205 0.224488 7.49805 0.500488 7.49805H2.02249C2.26516 4.60538 4.60849 2.26271 7.50049 2.02071V0.498047C7.50049 0.222047 7.72449 -0.00195312 8.00049 -0.00195312C8.27649 -0.00195312 8.50049 0.222047 8.50049 0.498047V2.02071C11.3932 2.26271 13.7365 4.60605 13.9785 7.49805H15.5005C15.7765 7.49805 16.0005 7.72205 16.0005 7.99805C16.0005 8.27405 15.7765 8.49805 15.5005 8.49805H13.9792C13.7372 11.3914 11.3938 13.7347 8.50049 13.9767V15.498C8.50049 15.774 8.27649 15.998 8.00049 15.998ZM3.02582 8.49805C3.26182 10.838 5.16049 12.7367 7.50049 12.9734V11.498C7.50049 11.222 7.72449 10.998 8.00049 10.998C8.27649 10.998 8.50049 11.222 8.50049 11.498V12.9734C10.8405 12.7367 12.7385 10.8387 12.9752 8.49805H11.5005C11.2245 8.49805 11.0005 8.27405 11.0005 7.99805C11.0005 7.72205 11.2245 7.49805 11.5005 7.49805H12.9752C12.7385 5.15805 10.8405 3.26071 8.50049 3.02405V4.49805C8.50049 4.77405 8.27649 4.99805 8.00049 4.99805C7.72449 4.99805 7.50049 4.77405 7.50049 4.49805V3.02405C5.16049 3.26071 3.26249 5.15805 3.02582 7.49805H4.50049C4.77649 7.49805 5.00049 7.72205 5.00049 7.99805C5.00049 8.27405 4.77649 8.49805 4.50049 8.49805H3.02582Z" fill="white"/>
</svg>
